<?xml version="1.0" encoding="UTF-8"?>
<svg id="Layer_2" data-name="Layer 2" xmlns="http://www.w3.org/2000/svg" viewBox="0 0 340 356.15">
  <defs>
    <style>
      .cls-1 {
        fill: #faf0e4;
      }

      .cls-1, .cls-2 {
        stroke-width: 0px;
      }

      .cls-2 {
        fill: #231f20;
      }
    </style>
  </defs>
  <g id="Layer_1-2" data-name="Layer 1">
    <g>
      <g>
        <path class="cls-1" d="M136,336.55v-1.3c-27.2-13.97-40.8-20.96-68-34.93v1.01c27.2,14.09,40.8,21.13,68,35.22Z"/>
        <path class="cls-1" d="M136,327.18v-1.72c-27.2-13.1-40.8-19.65-68-32.75v1.34c27.2,13.25,40.8,19.88,68,33.14Z"/>
        <path class="cls-1" d="M136,317.82v-2.13c-27.2-12.23-40.8-18.35-68-30.58v1.66c27.2,12.42,40.8,18.63,68,31.05Z"/>
        <path class="cls-1" d="M136,308.46v-2.55c-27.2-11.36-40.8-17.04-68-28.41v1.98c27.2,11.59,40.8,17.38,68,28.97Z"/>
        <path class="cls-1" d="M136,299.09v-2.96c-27.2-10.49-40.8-15.74-68-26.23v2.31c27.2,10.76,40.8,16.14,68,26.89Z"/>
        <path class="cls-1" d="M136,289.73v-3.38c-27.2-9.62-40.8-14.44-68-24.06v2.63c27.2,9.93,40.8,14.89,68,24.81Z"/>
        <path class="cls-1" d="M136,280.37v-3.79c-27.2-8.75-40.8-13.13-68-21.89v2.95c27.2,9.09,40.8,13.64,68,22.73Z"/>
        <path class="cls-1" d="M136,271v-4.21c-27.2-7.89-40.8-11.83-68-19.72v3.28c27.2,8.26,40.8,12.39,68,20.65Z"/>
        <path class="cls-1" d="M136,261.64v-4.63c-27.2-7.02-40.8-10.53-68-17.54v3.6c27.2,7.43,40.8,11.14,68,18.57Z"/>
        <path class="cls-1" d="M136,252.28v-5.04c-27.2-6.15-40.8-9.22-68-15.37v3.92c27.2,6.6,40.8,9.89,68,16.49Z"/>
        <path class="cls-1" d="M136,242.91v-5.46c-27.2-5.28-40.8-7.92-68-13.2v4.24c27.2,5.76,40.8,8.65,68,14.41Z"/>
        <path class="cls-1" d="M136,233.55v-5.87c-27.2-4.41-40.8-6.61-68-11.02v4.57c27.2,4.93,40.8,7.4,68,12.33Z"/>
        <path class="cls-1" d="M136,224.19v-6.29c-27.2-3.54-40.8-5.31-68-8.85v4.89c27.2,4.1,40.8,6.15,68,10.25Z"/>
        <path class="cls-1" d="M136,214.82v-6.7c-27.2-2.67-40.8-4.01-68-6.68v5.21c27.2,3.27,40.8,4.9,68,8.17Z"/>
        <path class="cls-1" d="M136,205.46v-7.12c-27.2-1.8-40.8-2.7-68-4.5v5.54c27.2,2.43,40.8,3.65,68,6.09Z"/>
        <path class="cls-1" d="M136,196.1v-7.54c-27.2-.93-40.8-1.4-68-2.33v5.86c27.2,1.6,40.8,2.4,68,4Z"/>
        <path class="cls-1" d="M68,184.81c27.2.77,40.8,1.15,68,1.92v-7.95c-27.2-.06-40.8-.09-68-.16v6.18Z"/>
      </g>
      <g>
        <path class="cls-1" d="M136,19.61v1.3c-27.2,13.97-40.8,20.96-68,34.93v-1.01c27.2-14.09,40.8-21.13,68-35.22Z"/>
        <path class="cls-1" d="M136,28.97v1.72c-27.2,13.1-40.8,19.65-68,32.75v-1.34c27.2-13.25,40.8-19.88,68-33.14Z"/>
        <path class="cls-1" d="M136,38.33v2.13c-27.2,12.23-40.8,18.35-68,30.58v-1.66c27.2-12.42,40.8-18.63,68-31.05Z"/>
        <path class="cls-1" d="M136,47.7v2.55c-27.2,11.36-40.8,17.04-68,28.41v-1.98c27.2-11.59,40.8-17.38,68-28.97Z"/>
        <path class="cls-1" d="M136,57.06v2.96c-27.2,10.49-40.8,15.74-68,26.23v-2.31c27.2-10.76,40.8-16.14,68-26.89Z"/>
        <path class="cls-1" d="M136,66.42v3.38c-27.2,9.62-40.8,14.44-68,24.06v-2.63c27.2-9.93,40.8-14.89,68-24.81Z"/>
        <path class="cls-1" d="M136,75.79v3.79c-27.2,8.75-40.8,13.13-68,21.89v-2.95c27.2-9.09,40.8-13.64,68-22.73Z"/>
        <path class="cls-1" d="M136,85.15v4.21c-27.2,7.89-40.8,11.83-68,19.71v-3.28c27.2-8.26,40.8-12.39,68-20.65Z"/>
        <path class="cls-1" d="M136,94.51v4.63c-27.2,7.02-40.8,10.53-68,17.54v-3.6c27.2-7.43,40.8-11.14,68-18.57Z"/>
        <path class="cls-1" d="M136,103.87v5.04c-27.2,6.15-40.8,9.22-68,15.37v-3.92c27.2-6.6,40.8-9.89,68-16.49Z"/>
        <path class="cls-1" d="M136,113.24v5.46c-27.2,5.28-40.8,7.92-68,13.2v-4.24c27.2-5.76,40.8-8.65,68-14.41Z"/>
        <path class="cls-1" d="M136,122.6v5.87c-27.2,4.41-40.8,6.61-68,11.02v-4.57c27.2-4.93,40.8-7.4,68-12.33Z"/>
        <path class="cls-1" d="M136,131.97v6.29c-27.2,3.54-40.8,5.31-68,8.85v-4.89c27.2-4.1,40.8-6.15,68-10.25Z"/>
        <path class="cls-1" d="M136,141.33v6.7c-27.2,2.67-40.8,4.01-68,6.68v-5.21c27.2-3.27,40.8-4.9,68-8.17Z"/>
        <path class="cls-1" d="M136,150.69v7.12c-27.2,1.8-40.8,2.7-68,4.5v-5.54c27.2-2.43,40.8-3.65,68-6.09Z"/>
        <path class="cls-1" d="M136,160.06v7.54c-27.2.93-40.8,1.4-68,2.33v-5.86c27.2-1.6,40.8-2.4,68-4Z"/>
        <path class="cls-1" d="M68,171.34c27.2-.77,40.8-1.15,68-1.92v7.95c-27.2.06-40.8.09-68,.16v-6.18Z"/>
      </g>
      <path class="cls-2" d="M54.39,213.58l.15.02v-.2c-.05.06-.1.12-.15.17Z"/>
      <g>
        <path class="cls-1" d="M68,177.53v1.1c-27.2-.06-40.8-.09-68-.16v-.78c27.2-.06,40.8-.09,68-.16Z"/>
        <path class="cls-1" d="M68,169.92v1.42c-27.2.77-40.8,1.15-68,1.92v-1.02c27.2-.93,40.8-1.4,68-2.33Z"/>
        <path class="cls-1" d="M68,162.31v1.75c-27.2,1.6-40.8,2.4-68,4v-1.25c27.2-1.8,40.8-2.7,68-4.5Z"/>
        <path class="cls-1" d="M68,154.71v2.07c-27.2,2.43-40.8,3.65-68,6.09v-1.48c27.2-2.67,40.8-4.01,68-6.68Z"/>
        <path class="cls-1" d="M68,147.1v2.39c-27.2,3.27-40.8,4.9-68,8.17v-1.71c27.2-3.54,40.8-5.31,68-8.85Z"/>
        <path class="cls-1" d="M68,139.5v2.72c-27.2,4.1-40.8,6.15-68,10.25v-1.94c27.2-4.41,40.8-6.61,68-11.02Z"/>
        <path class="cls-1" d="M68,131.89v3.04c-27.2,4.93-40.8,7.4-68,12.33v-2.17c27.2-5.28,40.8-7.92,68-13.2Z"/>
        <path class="cls-1" d="M68,124.28v3.36c-27.2,5.76-40.8,8.65-68,14.41v-2.4c27.2-6.15,40.8-9.22,68-15.37Z"/>
        <path class="cls-1" d="M68,116.68v3.68c-27.2,6.6-40.8,9.89-68,16.49v-2.63c27.2-7.02,40.8-10.52,68-17.54Z"/>
        <path class="cls-1" d="M68,109.07v4.01c-27.2,7.43-40.8,11.14-68,18.57v-2.86c27.2-7.89,40.8-11.83,68-19.71Z"/>
        <path class="cls-1" d="M68,101.47v4.33c-27.2,8.26-40.8,12.39-68,20.65v-3.09c27.2-8.75,40.8-13.13,68-21.89Z"/>
        <path class="cls-1" d="M68,93.86v4.65c-27.2,9.09-40.8,13.64-68,22.73v-3.32c27.2-9.62,40.8-14.44,68-24.06Z"/>
        <path class="cls-1" d="M68,86.26v4.98c-27.2,9.93-40.8,14.89-68,24.81v-3.56c27.2-10.49,40.8-15.74,68-26.23Z"/>
        <path class="cls-1" d="M68,78.65v5.3c-27.2,10.76-40.8,16.14-68,26.89v-3.79c27.2-11.36,40.8-17.04,68-28.41Z"/>
        <path class="cls-1" d="M68,71.05v5.62c-27.2,11.59-40.8,17.38-68,28.97v-4.02c27.2-12.23,40.8-18.35,68-30.58Z"/>
        <path class="cls-1" d="M68,63.44v5.95c-27.2,12.42-40.8,18.63-68,31.05v-4.25c27.2-13.1,40.8-19.65,68-32.75Z"/>
        <path class="cls-1" d="M68,55.83v6.27C40.8,75.36,27.2,81.99,0,95.24v-4.48c27.2-13.97,40.8-20.95,68-34.93Z"/>
        <path class="cls-1" d="M68,48.23v6.59C40.8,68.91,27.2,75.95,0,90.04v-4.71c27.2-14.84,40.8-22.26,68-37.1Z"/>
      </g>
      <g>
        <path class="cls-1" d="M0,178.47v-.78c27.2-.06,40.8-.09,68-.16v1.1c-27.2-.06-40.8-.09-68-.16Z"/>
        <path class="cls-1" d="M0,183.9v-1.02c27.2.77,40.8,1.15,68,1.92v1.42c-27.2-.93-40.8-1.4-68-2.33Z"/>
        <path class="cls-1" d="M0,189.33v-1.25c27.2,1.6,40.8,2.4,68,4v1.75c-27.2-1.8-40.8-2.7-68-4.5Z"/>
        <path class="cls-1" d="M0,194.77v-1.48c27.2,2.43,40.8,3.65,68,6.09v2.07c-27.2-2.67-40.8-4.01-68-6.68Z"/>
        <path class="cls-1" d="M0,200.2v-1.71c27.2,3.27,40.8,4.9,68,8.17v2.39c-27.2-3.54-40.8-5.31-68-8.85Z"/>
        <path class="cls-1" d="M0,205.63v-1.94c27.2,4.1,40.8,6.15,68,10.25v2.71c-27.2-4.41-40.8-6.61-68-11.02Z"/>
        <path class="cls-1" d="M0,211.07v-2.17c27.2,4.93,40.8,7.4,68,12.33v3.04c-27.2-5.28-40.8-7.92-68-13.2Z"/>
        <path class="cls-1" d="M0,216.5v-2.4c27.2,5.76,40.8,8.64,68,14.41v3.36c-27.2-6.15-40.8-9.22-68-15.37Z"/>
        <path class="cls-1" d="M0,221.93v-2.63c27.2,6.59,40.8,9.89,68,16.49v3.68c-27.2-7.02-40.8-10.53-68-17.54Z"/>
        <path class="cls-1" d="M0,227.36v-2.86c27.2,7.43,40.8,11.14,68,18.57v4.01c-27.2-7.89-40.8-11.83-68-19.71Z"/>
        <path class="cls-1" d="M0,232.8v-3.09c27.2,8.26,40.8,12.39,68,20.65v4.33c-27.2-8.76-40.8-13.13-68-21.89Z"/>
        <path class="cls-1" d="M0,238.23v-3.32c27.2,9.09,40.8,13.64,68,22.73v4.65c-27.2-9.62-40.8-14.44-68-24.06Z"/>
        <path class="cls-1" d="M0,243.66v-3.55c27.2,9.92,40.8,14.89,68,24.81v4.98c-27.2-10.49-40.8-15.74-68-26.23Z"/>
        <path class="cls-1" d="M0,249.09v-3.79c27.2,10.76,40.8,16.13,68,26.89v5.3c-27.2-11.36-40.8-17.04-68-28.41Z"/>
        <path class="cls-1" d="M0,254.53v-4.02c27.2,11.59,40.8,17.38,68,28.97v5.62c-27.2-12.23-40.8-18.35-68-30.58Z"/>
        <path class="cls-1" d="M0,259.96v-4.25c27.2,12.42,40.8,18.63,68,31.05v5.95c-27.2-13.1-40.8-19.65-68-32.75Z"/>
        <path class="cls-1" d="M0,265.39v-4.48c27.2,13.25,40.8,19.88,68,33.13v6.27c-27.2-13.97-40.8-20.96-68-34.93Z"/>
        <path class="cls-1" d="M0,270.82v-4.71c27.2,14.08,40.8,21.13,68,35.21v6.59c-27.2-14.84-40.8-22.26-68-37.1Z"/>
      </g>
      <g>
        <path class="cls-1" d="M340,177.68v.78c-27.2.06-40.8.09-68,.16v-1.1c27.2.06,40.8.09,68,.16Z"/>
        <path class="cls-1" d="M340,172.25v1.02c-27.2-.77-40.8-1.15-68-1.92v-1.42c27.2.93,40.8,1.4,68,2.33Z"/>
        <path class="cls-1" d="M340,166.82v1.25c-27.2-1.6-40.8-2.4-68-4v-1.75c27.2,1.8,40.8,2.7,68,4.5Z"/>
        <path class="cls-1" d="M340,161.38v1.48c-27.2-2.43-40.8-3.65-68-6.09v-2.07c27.2,2.67,40.8,4.01,68,6.68Z"/>
        <path class="cls-1" d="M340,155.95v1.71c-27.2-3.27-40.8-4.9-68-8.17v-2.39c27.2,3.54,40.8,5.31,68,8.85Z"/>
        <path class="cls-1" d="M340,150.52v1.94c-27.2-4.1-40.8-6.15-68-10.25v-2.72c27.2,4.41,40.8,6.61,68,11.02Z"/>
        <path class="cls-1" d="M340,145.09v2.17c-27.2-4.93-40.8-7.4-68-12.33v-3.04c27.2,5.28,40.8,7.92,68,13.2Z"/>
        <path class="cls-1" d="M340,139.65v2.4c-27.2-5.76-40.8-8.64-68-14.41v-3.36c27.2,6.15,40.8,9.22,68,15.37Z"/>
        <path class="cls-1" d="M340,134.22v2.63c-27.2-6.59-40.8-9.89-68-16.49v-3.68c27.2,7.02,40.8,10.53,68,17.54Z"/>
        <path class="cls-1" d="M340,128.79v2.86c-27.2-7.43-40.8-11.14-68-18.57v-4.01c27.2,7.89,40.8,11.83,68,19.71Z"/>
        <path class="cls-1" d="M340,123.36v3.09c-27.2-8.26-40.8-12.39-68-20.65v-4.33c27.2,8.76,40.8,13.13,68,21.89Z"/>
        <path class="cls-1" d="M340,117.92v3.32c-27.2-9.09-40.8-13.64-68-22.73v-4.65c27.2,9.62,40.8,14.44,68,24.06Z"/>
        <path class="cls-1" d="M340,112.49v3.56c-27.2-9.92-40.8-14.89-68-24.81v-4.98c27.2,10.49,40.8,15.74,68,26.23Z"/>
        <path class="cls-1" d="M340,107.06v3.79c-27.2-10.76-40.8-16.13-68-26.89v-5.3c27.2,11.36,40.8,17.04,68,28.41Z"/>
        <path class="cls-1" d="M340,101.63v4.02c-27.2-11.59-40.8-17.38-68-28.97v-5.62c27.2,12.23,40.8,18.35,68,30.58Z"/>
        <path class="cls-1" d="M340,96.19v4.25c-27.2-12.42-40.8-18.63-68-31.05v-5.95c27.2,13.1,40.8,19.65,68,32.75Z"/>
        <path class="cls-1" d="M340,90.76v4.48c-27.2-13.25-40.8-19.88-68-33.13v-6.27c27.2,13.97,40.8,20.96,68,34.93Z"/>
        <path class="cls-1" d="M340,85.33v4.71c-27.2-14.08-40.8-21.13-68-35.21v-6.59c27.2,14.84,40.8,22.26,68,37.1Z"/>
      </g>
      <g>
        <path class="cls-1" d="M272,178.63v-1.1c27.2.06,40.8.09,68,.16v.78c-27.2.06-40.8.09-68,.16Z"/>
        <path class="cls-1" d="M272,186.23v-1.42c27.2-.77,40.8-1.15,68-1.92v1.02c-27.2.93-40.8,1.4-68,2.33Z"/>
        <path class="cls-1" d="M272,193.84v-1.75c27.2-1.6,40.8-2.4,68-4v1.25c-27.2,1.8-40.8,2.7-68,4.5Z"/>
        <path class="cls-1" d="M272,201.44v-2.07c27.2-2.43,40.8-3.65,68-6.09v1.48c-27.2,2.67-40.8,4.01-68,6.68Z"/>
        <path class="cls-1" d="M272,209.05v-2.39c27.2-3.27,40.8-4.9,68-8.17v1.71c-27.2,3.54-40.8,5.31-68,8.85Z"/>
        <path class="cls-1" d="M272,216.65v-2.71c27.2-4.1,40.8-6.15,68-10.25v1.94c-27.2,4.41-40.8,6.61-68,11.02Z"/>
        <path class="cls-1" d="M272,224.26v-3.04c27.2-4.93,40.8-7.4,68-12.33v2.17c-27.2,5.28-40.8,7.92-68,13.2Z"/>
        <path class="cls-1" d="M272,231.87v-3.36c27.2-5.76,40.8-8.65,68-14.41v2.4c-27.2,6.15-40.8,9.22-68,15.37Z"/>
        <path class="cls-1" d="M272,239.47v-3.68c27.2-6.6,40.8-9.89,68-16.49v2.63c-27.2,7.02-40.8,10.52-68,17.54Z"/>
        <path class="cls-1" d="M272,247.08v-4.01c27.2-7.43,40.8-11.14,68-18.57v2.86c-27.2,7.89-40.8,11.83-68,19.71Z"/>
        <path class="cls-1" d="M272,254.68v-4.33c27.2-8.26,40.8-12.39,68-20.65v3.09c-27.2,8.75-40.8,13.13-68,21.89Z"/>
        <path class="cls-1" d="M272,262.29v-4.65c27.2-9.09,40.8-13.64,68-22.73v3.32c-27.2,9.62-40.8,14.44-68,24.06Z"/>
        <path class="cls-1" d="M272,269.89v-4.98c27.2-9.93,40.8-14.89,68-24.81v3.55c-27.2,10.49-40.8,15.74-68,26.23Z"/>
        <path class="cls-1" d="M272,277.5v-5.3c27.2-10.76,40.8-16.14,68-26.89v3.79c-27.2,11.36-40.8,17.04-68,28.41Z"/>
        <path class="cls-1" d="M272,285.11v-5.62c27.2-11.59,40.8-17.38,68-28.97v4.02c-27.2,12.23-40.8,18.35-68,30.58Z"/>
        <path class="cls-1" d="M272,292.71v-5.95c27.2-12.42,40.8-18.63,68-31.05v4.25c-27.2,13.1-40.8,19.65-68,32.75Z"/>
        <path class="cls-1" d="M272,300.32v-6.27c27.2-13.25,40.8-19.88,68-33.13v4.48c-27.2,13.97-40.8,20.95-68,34.93Z"/>
        <path class="cls-1" d="M272,307.92v-6.59c27.2-14.09,40.8-21.13,68-35.21v4.71c-27.2,14.84-40.8,22.26-68,37.1Z"/>
      </g>
      <g>
        <path class="cls-1" d="M272,301.33v-1.01c-27.2,13.97-40.8,20.96-68,34.93v1.3c27.2-14.09,40.8-21.13,68-35.22Z"/>
        <path class="cls-1" d="M272,294.05v-1.34c-27.2,13.1-40.8,19.65-68,32.75v1.72c27.2-13.25,40.8-19.88,68-33.14Z"/>
        <path class="cls-1" d="M272,286.76v-1.66c-27.2,12.23-40.8,18.35-68,30.58v2.13c27.2-12.42,40.8-18.63,68-31.05Z"/>
        <path class="cls-1" d="M272,279.48v-1.98c-27.2,11.36-40.8,17.05-68,28.41v2.55c27.2-11.59,40.8-17.38,68-28.97Z"/>
        <path class="cls-1" d="M272,272.2v-2.31c-27.2,10.49-40.8,15.74-68,26.23v2.96c27.2-10.76,40.8-16.14,68-26.89Z"/>
        <path class="cls-1" d="M272,264.92v-2.63c-27.2,9.62-40.8,14.44-68,24.06v3.38c27.2-9.92,40.8-14.89,68-24.81Z"/>
        <path class="cls-1" d="M272,257.63v-2.95c-27.2,8.76-40.8,13.13-68,21.89v3.79c27.2-9.09,40.8-13.64,68-22.73Z"/>
        <path class="cls-1" d="M272,250.35v-3.28c-27.2,7.89-40.8,11.83-68,19.72v4.21c27.2-8.26,40.8-12.39,68-20.65Z"/>
        <path class="cls-1" d="M272,243.07v-3.6c-27.2,7.02-40.8,10.53-68,17.54v4.63c27.2-7.43,40.8-11.14,68-18.57Z"/>
        <path class="cls-1" d="M272,235.79v-3.92c-27.2,6.15-40.8,9.22-68,15.37v5.04c27.2-6.6,40.8-9.89,68-16.49Z"/>
        <path class="cls-1" d="M272,228.5v-4.24c-27.2,5.28-40.8,7.92-68,13.2v5.46c27.2-5.76,40.8-8.65,68-14.41Z"/>
        <path class="cls-1" d="M272,221.22v-4.57c-27.2,4.41-40.8,6.61-68,11.02v5.87c27.2-4.93,40.8-7.4,68-12.33Z"/>
        <path class="cls-1" d="M272,213.94v-4.89c-27.2,3.54-40.8,5.31-68,8.85v6.29c27.2-4.1,40.8-6.15,68-10.25Z"/>
        <path class="cls-1" d="M272,206.66v-5.21c-27.2,2.67-40.8,4.01-68,6.68v6.7c27.2-3.27,40.8-4.9,68-8.17Z"/>
        <path class="cls-1" d="M272,199.37v-5.54c-27.2,1.8-40.8,2.7-68,4.5v7.12c27.2-2.43,40.8-3.65,68-6.09Z"/>
        <path class="cls-1" d="M272,192.09v-5.86c-27.2.93-40.8,1.4-68,2.33v7.54c27.2-1.6,40.8-2.4,68-4Z"/>
        <path class="cls-1" d="M204,186.73c27.2-.77,40.8-1.15,68-1.92v-6.18c-27.2.06-40.8.09-68,.16v7.95Z"/>
      </g>
      <g>
        <path class="cls-1" d="M272,54.82v1.01c-27.2-13.97-40.8-20.96-68-34.93v-1.3c27.2,14.09,40.8,21.13,68,35.22Z"/>
        <path class="cls-1" d="M272,62.11v1.34c-27.2-13.1-40.8-19.65-68-32.75v-1.72c27.2,13.25,40.8,19.88,68,33.14Z"/>
        <path class="cls-1" d="M272,69.39v1.66c-27.2-12.23-40.8-18.35-68-30.58v-2.13c27.2,12.42,40.8,18.63,68,31.05Z"/>
        <path class="cls-1" d="M272,76.67v1.98c-27.2-11.36-40.8-17.04-68-28.41v-2.55c27.2,11.59,40.8,17.38,68,28.97Z"/>
        <path class="cls-1" d="M272,83.95v2.31c-27.2-10.49-40.8-15.74-68-26.23v-2.96c27.2,10.76,40.8,16.14,68,26.89Z"/>
        <path class="cls-1" d="M272,91.23v2.63c-27.2-9.62-40.8-14.44-68-24.06v-3.38c27.2,9.92,40.8,14.89,68,24.81Z"/>
        <path class="cls-1" d="M272,98.52v2.95c-27.2-8.76-40.8-13.13-68-21.89v-3.79c27.2,9.09,40.8,13.64,68,22.73Z"/>
        <path class="cls-1" d="M272,105.8v3.28c-27.2-7.89-40.8-11.83-68-19.71v-4.21c27.2,8.26,40.8,12.39,68,20.65Z"/>
        <path class="cls-1" d="M272,113.08v3.6c-27.2-7.02-40.8-10.53-68-17.54v-4.63c27.2,7.43,40.8,11.14,68,18.57Z"/>
        <path class="cls-1" d="M272,120.36v3.92c-27.2-6.15-40.8-9.22-68-15.37v-5.04c27.2,6.6,40.8,9.89,68,16.49Z"/>
        <path class="cls-1" d="M272,127.65v4.24c-27.2-5.28-40.8-7.92-68-13.2v-5.46c27.2,5.76,40.8,8.64,68,14.41Z"/>
        <path class="cls-1" d="M272,134.93v4.57c-27.2-4.41-40.8-6.61-68-11.02v-5.87c27.2,4.93,40.8,7.4,68,12.33Z"/>
        <path class="cls-1" d="M272,142.21v4.89c-27.2-3.54-40.8-5.31-68-8.85v-6.29c27.2,4.1,40.8,6.15,68,10.25Z"/>
        <path class="cls-1" d="M272,149.49v5.21c-27.2-2.67-40.8-4.01-68-6.68v-6.7c27.2,3.27,40.8,4.9,68,8.17Z"/>
        <path class="cls-1" d="M272,156.78v5.54c-27.2-1.8-40.8-2.7-68-4.5v-7.12c27.2,2.43,40.8,3.65,68,6.09Z"/>
        <path class="cls-1" d="M272,164.06v5.86c-27.2-.93-40.8-1.4-68-2.33v-7.54c27.2,1.6,40.8,2.4,68,4Z"/>
        <path class="cls-1" d="M204,169.42c27.2.77,40.8,1.15,68,1.92v6.18c-27.2-.06-40.8-.09-68-.16v-7.95Z"/>
      </g>
      <g>
        <path class="cls-1" d="M204,177.37v1.41c-27.2.06-40.8.06-68,0v-1.41c27.2-.06,40.8-.06,68,0Z"/>
        <path class="cls-1" d="M204,167.59v1.83c-27.2-.77-40.8-.77-68,0v-1.83c27.2-.93,40.8-.93,68,0Z"/>
        <path class="cls-1" d="M204,157.81v2.24c-27.2-1.6-40.8-1.6-68,0v-2.24c27.2-1.8,40.8-1.8,68,0Z"/>
        <path class="cls-1" d="M204,148.03v2.66c-27.2-2.43-40.8-2.43-68,0v-2.66c27.2-2.67,40.8-2.67,68,0Z"/>
        <path class="cls-1" d="M204,138.25v3.08c-27.2-3.27-40.8-3.27-68,0v-3.08c27.2-3.54,40.8-3.54,68,0Z"/>
        <path class="cls-1" d="M204,128.47v3.49c-27.2-4.1-40.8-4.1-68,0v-3.49c27.2-4.41,40.8-4.41,68,0Z"/>
        <path class="cls-1" d="M204,118.7v3.91c-27.2-4.93-40.8-4.93-68,0v-3.91c27.2-5.28,40.8-5.28,68,0Z"/>
        <path class="cls-1" d="M204,108.92v4.32c-27.2-5.76-40.8-5.76-68,0v-4.32c27.2-6.15,40.8-6.15,68,0Z"/>
        <path class="cls-1" d="M204,99.14v4.74c-27.2-6.6-40.8-6.6-68,0v-4.74c27.2-7.02,40.8-7.02,68,0Z"/>
        <path class="cls-1" d="M204,89.36v5.15c-27.2-7.43-40.8-7.43-68,0v-5.15c27.2-7.89,40.8-7.89,68,0Z"/>
        <path class="cls-1" d="M204,79.58v5.57c-27.2-8.26-40.8-8.26-68,0v-5.57c27.2-8.76,40.8-8.75,68,0Z"/>
        <path class="cls-1" d="M204,69.8v5.98c-27.2-9.09-40.8-9.09-68,0v-5.98c27.2-9.62,40.8-9.62,68,0Z"/>
        <path class="cls-1" d="M204,60.02v6.4c-27.2-9.92-40.8-9.92-68,0v-6.4c27.2-10.49,40.8-10.49,68,0Z"/>
        <path class="cls-1" d="M204,50.24v6.81c-27.2-10.76-40.8-10.76-68,0v-6.81c27.2-11.36,40.8-11.36,68,0Z"/>
        <path class="cls-1" d="M204,40.46v7.23c-27.2-11.59-40.8-11.59-68,0v-7.23c27.2-12.23,40.8-12.23,68,0Z"/>
        <path class="cls-1" d="M204,30.69v7.65c-27.2-12.42-40.8-12.42-68,0v-7.65c27.2-13.1,40.8-13.1,68,0Z"/>
        <path class="cls-1" d="M204,20.91v8.06c-27.2-13.25-40.8-13.25-68,0v-8.06c27.2-13.97,40.8-13.97,68,0Z"/>
        <path class="cls-1" d="M204,11.13v8.48c-27.2-14.09-40.8-14.09-68,0v-8.48c27.2-14.84,40.8-14.84,68,0Z"/>
      </g>
      <g>
        <path class="cls-1" d="M136,178.78v-1.41c27.2-.06,40.8-.06,68,0v1.41c-27.2.06-40.8.06-68,0Z"/>
        <path class="cls-1" d="M136,188.56v-1.83c27.2.77,40.8.77,68,0v1.83c-27.2.93-40.8.93-68,0Z"/>
        <path class="cls-1" d="M136,198.34v-2.24c27.2,1.6,40.8,1.6,68,0v2.24c-27.2,1.8-40.8,1.8-68,0Z"/>
        <path class="cls-1" d="M136,208.12v-2.66c27.2,2.43,40.8,2.43,68,0v2.66c-27.2,2.67-40.8,2.67-68,0Z"/>
        <path class="cls-1" d="M136,217.9v-3.07c27.2,3.27,40.8,3.27,68,0v3.07c-27.2,3.54-40.8,3.54-68,0Z"/>
        <path class="cls-1" d="M136,227.68v-3.49c27.2,4.1,40.8,4.1,68,0v3.49c-27.2,4.41-40.8,4.41-68,0Z"/>
        <path class="cls-1" d="M136,237.46v-3.91c27.2,4.93,40.8,4.93,68,0v3.91c-27.2,5.28-40.8,5.28-68,0Z"/>
        <path class="cls-1" d="M136,247.24v-4.32c27.2,5.76,40.8,5.76,68,0v4.32c-27.2,6.15-40.8,6.15-68,0Z"/>
        <path class="cls-1" d="M136,257.01v-4.74c27.2,6.6,40.8,6.6,68,0v4.74c-27.2,7.02-40.8,7.02-68,0Z"/>
        <path class="cls-1" d="M136,266.79v-5.15c27.2,7.43,40.8,7.43,68,0v5.15c-27.2,7.89-40.8,7.89-68,0Z"/>
        <path class="cls-1" d="M136,276.57v-5.57c27.2,8.26,40.8,8.26,68,0v5.57c-27.2,8.75-40.8,8.75-68,0Z"/>
        <path class="cls-1" d="M136,286.35v-5.98c27.2,9.09,40.8,9.09,68,0v5.98c-27.2,9.62-40.8,9.62-68,0Z"/>
        <path class="cls-1" d="M136,296.13v-6.4c27.2,9.92,40.8,9.92,68,0v6.4c-27.2,10.49-40.8,10.49-68,0Z"/>
        <path class="cls-1" d="M136,305.91v-6.81c27.2,10.76,40.8,10.76,68,0v6.81c-27.2,11.36-40.8,11.36-68,0Z"/>
        <path class="cls-1" d="M136,315.69v-7.23c27.2,11.59,40.8,11.59,68,0v7.23c-27.2,12.23-40.8,12.23-68,0Z"/>
        <path class="cls-1" d="M136,325.47v-7.65c27.2,12.42,40.8,12.42,68,0v7.65c-27.2,13.1-40.8,13.1-68,0Z"/>
        <path class="cls-1" d="M136,335.24v-8.06c27.2,13.25,40.8,13.25,68,0v8.06c-27.2,13.97-40.8,13.97-68,0Z"/>
        <path class="cls-1" d="M136,345.02v-8.48c27.2,14.09,40.8,14.09,68,0v8.48c-27.2,14.84-40.8,14.84-68,0Z"/>
      </g>
    </g>
  </g>
</svg>
