<?xml version="1.0" encoding="UTF-8"?>
<svg id="Layer_2" data-name="Layer 2" xmlns="http://www.w3.org/2000/svg" viewBox="0 0 267.4 359.7">
  <defs>
    <style>
      .cls-1 {
        fill: #faf0e4;
        stroke-width: 0px;
      }
    </style>
  </defs>
  <g id="Layer_1-2" data-name="Layer 1">
    <g>
      <path class="cls-1" d="M267.39,150.77c-.02-9.34.14-18.68-.56-28.01-.46-6.15-1.38-12.21-2.7-18.21-2.59-11.79-6.78-23.01-12.43-33.69-5.8-10.95-13.11-20.8-21.57-29.81-5.58-5.95-11.91-11.05-18.42-15.93-9.65-7.24-20.38-12.53-31.58-16.8C163.62,2.03,146.47-.6,128.8.12c-5.28.21-10.53.63-15.75,1.42-7.75,1.18-15.35,2.99-22.73,5.66-.53.19-1.03.46-1.54.69,1.03.08,1.98-.09,2.93-.29.97-.2,1.93-.44,2.89-.63.97-.2,1.94-.36,2.91-.54s1.94-.35,2.92-.5c.97-.15,1.95-.33,2.93-.41.9-.07,1.79-.49,2.99-.26-.39.23-.48.33-.58.35-7.37,1.38-14.63,3.24-21.8,5.44-8.64,2.65-16.97,6.01-24.43,11.25-.74.52-1.43,1.09-2.15,1.64.06.12.12.23.17.35,15.13-7.03,30.8-12.23,47.42-14.22-.26.25-.57.37-.88.44-2.04.48-4.07.94-6.11,1.42-16.28,3.79-31.75,9.7-46.4,17.77-4.87,2.68-9.31,5.9-13.11,9.97-.24.26-.43.58-.64.87.07.09.14.18.22.26,10.1-6.81,20.76-12.54,32.09-16.99,11.36-4.46,23.01-7.84,35.18-9.18-.4.26-.83.38-1.26.48-7.49,1.66-14.91,3.59-22.17,6.08-12.47,4.28-24.33,9.84-35.51,16.84-5.67,3.55-11.16,7.35-16.28,11.66-2.37,1.99-4.13,4.48-5.68,7.17,23.61-20.12,50.44-33.25,81.26-37.76-.11.25-.29.38-.48.42-1.64.37-3.31.64-4.93,1.1-6.25,1.78-12.58,3.37-18.72,5.5-15.42,5.34-29.71,12.91-42.87,22.58-7.04,5.17-13.64,10.84-19.74,17.09-1.88,1.93-3,4.3-4.02,6.77,12.1-12.91,25.78-23.75,41.32-32.2,15.53-8.45,31.94-14.24,49.5-16.63-.19.25-.43.37-.69.43-2.82.68-5.67,1.28-8.47,2.02-15.49,4.1-30.13,10.18-43.84,18.52-12.34,7.51-23.43,16.54-33.32,27.05-2.9,3.08-5.58,6.39-8.3,9.64-1.53,1.83-2.37,4.02-2.85,6.37.48-.36.86-.78,1.2-1.23,6.43-8.43,13.58-16.2,21.6-23.14,11-9.53,23.06-17.42,36.29-23.54,12.1-5.59,24.69-9.53,37.85-11.65.28-.04.58.03,1.18.07-.46.23-.6.34-.76.38-3.66.93-7.34,1.78-10.97,2.78-14.77,4.09-28.63,10.26-41.61,18.4-12.24,7.68-23.11,16.98-32.78,27.69-5.46,6.05-10.36,12.54-14.74,19.41-1.11,1.73-1.8,4.19-1.69,6.11.56-.91,1.04-1.69,1.53-2.48,7.67-12.32,16.92-23.3,27.78-32.91,10.68-9.46,22.46-17.25,35.39-23.31,11.27-5.28,22.98-9.15,35.26-11.24.4-.07.82,0,1.23,0-.2.27-.4.37-.61.43-4.81,1.34-9.68,2.51-14.42,4.04-23.02,7.43-43.17,19.63-60.37,36.64-6.46,6.39-12.25,13.35-17.41,20.83-3.63,5.27-6.97,10.71-9.86,16.42-.92,1.83-1.31,3.76-1.11,5.82.45-.61.8-1.26,1.13-1.91,8.5-17.27,20.01-32.24,34.51-44.88,19.47-16.99,41.83-28.11,67.3-32.85.38-.07.79,0,1.19,0-2.52.9-5.03,1.57-7.55,2.27-12.38,3.43-24.15,8.32-35.27,14.76-17.28,10.01-31.88,23.02-43.82,39.02-7.3,9.78-13.21,20.36-17.84,31.65-.94,2.28-1.09,4.02-.51,6.11,5.68-15.32,13.62-29.23,24.03-41.7,10.37-12.43,22.48-22.83,36.43-31.03,13.96-8.21,28.82-13.99,44.87-16.47-1.6.62-3.26,1.07-4.92,1.51-9.91,2.65-19.47,6.22-28.63,10.84-16.49,8.32-30.85,19.38-42.98,33.31C15.92,103.14,6.4,120.48.55,139.84c-.58,1.92-.68,5.12-.18,7.25,4.25-16.89,11.32-32.32,21.34-46.39,10.06-14.12,22.37-25.91,36.95-35.3,14.48-9.33,30.12-15.74,47.15-18.61-.13.25-.32.35-.52.4-8.53,2.14-16.84,4.9-24.88,8.47-17.82,7.92-33.33,19.06-46.38,33.58-15.87,17.66-26.38,38.11-31.6,61.28-1.6,7.11-2.63,14.27-2.41,21.59.15,4.93.14,9.88,0,14.81-.2,7.31.69,14.49,2.24,21.61,3.56,16.3,9.87,31.44,18.99,45.41,5.26,8.06,11.32,15.45,18.16,22.23,5.3,5.25,10.99,10.01,17.05,14.34.43.31.94.51,1.48.79.67-1.92-.1-2.97-1.44-3.89-5.04-3.45-9.75-7.35-14.17-11.55-12.23-11.61-21.99-25.01-29.07-40.33C3.51,214.41-.49,192.25,1.41,169.05c1.51-18.5,6.73-35.92,15.6-52.22,9.14-16.78,21.36-30.92,36.63-42.4,9.29-6.99,19.36-12.63,30.18-16.88,6.61-2.6,13.39-4.65,20.37-5.98.37-.07.77,0,1.15,0-.42.36-.86.48-1.3.6-8.21,2.2-16.21,4.99-23.92,8.58-19.74,9.21-36.31,22.4-49.55,39.71-9.63,12.59-16.71,26.5-21.3,41.68-3.37,11.13-5.18,22.52-5.56,34.13-.21,6.45.14,12.89.93,19.3,1.97,16.03,6.68,31.21,14.23,45.49,5.63,10.64,12.59,20.32,20.89,29.06,5.14,5.41,10.71,10.31,16.65,14.8.43.33.93.56,1.45.87.6-2.1.41-2.64-1.38-3.98-6.2-4.64-11.92-9.82-17.18-15.51-13.07-14.15-22.44-30.44-28.13-48.82-4.69-15.15-6.43-30.64-5.34-46.47,1.15-16.62,5.4-32.4,12.74-47.33,7.66-15.58,18.08-29.06,31.29-40.35,15.84-13.55,33.89-22.73,54.31-27.12.41-.09.84-.08,1.26-.12-.2.36-.45.47-.71.55-3.65,1.15-7.35,2.2-10.96,3.47-20.58,7.22-38.27,18.86-52.91,35.04-13,14.37-22.2,30.89-27.61,49.5-4.31,14.83-5.9,29.95-4.63,45.34,1.68,20.4,7.89,39.34,18.7,56.73,7.84,12.61,17.61,23.49,29.28,32.67.38.3.84.49,1.32.77.74-1.93-.06-3.06-1.37-4.05-4.91-3.75-9.36-8.02-13.56-12.52-9.64-10.33-17.29-21.99-22.85-34.99-8.95-20.95-12-42.72-8.94-65.31,2.14-15.79,7.18-30.62,15.11-44.44,8.74-15.24,20.24-28.02,34.47-38.33,13.35-9.68,28.06-16.35,44.21-19.81.27-.06.57,0,.86,0-.29.39-.61.51-.93.6-9.73,2.66-19.05,6.35-27.94,11.14-9.94,5.36-18.97,11.95-27.06,19.8-10.74,10.42-19.34,22.39-25.67,35.98-9.08,19.49-12.84,39.96-11.12,61.37,1.92,23.84,10.2,45.31,24.67,64.37,5.47,7.2,11.69,13.69,18.63,19.48.46.38.85.96,1.59.81.69-1.96-.36-3.1-1.68-4.21-7.16-6-13.43-12.82-18.94-20.37-7.36-10.08-13.02-21.03-16.87-32.89-4.83-14.87-6.77-30.1-5.56-45.72,1.33-17.17,6.11-33.31,14.45-48.38,6.15-11.12,13.88-21.01,23.24-29.63,9.66-8.9,20.48-16.04,32.55-21.22,5.87-2.52,11.88-4.7,17.8-7.12,4.79-1.96,9.68-3.56,14.69-4.83,7.92-2.01,15.92-2.42,24-1.37,5.94.77,11.76,2.13,17.38,4.19,4.58,1.68,9.2,3.36,13.26,6.1,6.5,4.38,12.75,9.05,17.93,15.07,4.46,5.19,8.27,10.8,11.26,16.9,2.11,4.31,3.86,8.8,5.02,13.51,1.5,6.11,2.5,12.24,2.44,18.55-.07,6.97-.02,13.94-.02,20.9v50.54c0,4.65,0,9.29,0,13.94,0,.7.05,1.39.05,2.09,0,3.95,0,7.89,0,11.84,0,4.01,0,8.01,0,12.02,0,2.96.03,5.92.02,8.88,0,3.37-.06,6.73-.05,10.1,0,2.61.09,5.22.09,7.83-.01,4.87-.1,9.75-.1,14.62,0,4.35.08,8.7.1,13.05,0,.85-.12,1.71-.19,2.7h-7.77c-8.25,0-16.49-.01-24.74,0-2.38,0-4.76.15-7.14.16-5.63.02-11.27,0-16.9,0-3.66,0-7.32.02-10.98.03-4.3,0-8.61-.17-12.89.08-4.6.27-9.17.21-13.76,0-3.77-.17-7.55-.19-11.32-.25-.78-.01-1.55.09-2.33.14-.02.15-.04.29-.06.44,1.5.52,2.99,1.04,4.49,1.55-6.17-.84-12.15-2.88-18.49-1.76,5.94,2.76,12.2,4.54,18.41,6.49-1.79-.16-3.55-.46-5.28-.87-5.27-1.22-10.41-2.88-15.47-4.8-2.54-.96-5.14-1.42-7.86-1.19-.34.03-.68.16-1.44.34,10.01,5.05,20.18,8.35,30.52,11.23-.4.11-.77.11-1.13.05-10.8-2.01-21.13-5.48-31.04-10.19-.94-.45-1.92-.84-2.92-1.14-1.56-.47-3.14-.39-4.76-.01.88.73,1.81,1.29,2.75,1.81.97.53,1.96,1.02,2.94,1.52.98.5,1.96,1.01,2.96,1.49,1,.48,2.01.91,3.02,1.37,1.01.45,2.01.91,3.03,1.34,1.02.43,2.04.84,3.07,1.25,1.08.43,2.16.85,3.25,1.26,1.03.39,2.07.77,3.11,1.13,1.04.36,2.1.69,3.15,1.03,1.05.34,2.1.67,3.16.99,1.06.32,2.12.62,3.18.92,1.06.3,2.13.58,3.19.89.97.28,2.02.35,2.89.99-3.79-.6-7.55-1.32-11.24-2.3-9.87-2.61-19.26-6.46-28.29-11.22-2.48-1.31-4.79-3.11-7.98-2.8.24-1.61-.72-2.26-1.74-2.91-10.22-6.57-19.42-14.34-27.63-23.3-12.11-13.23-21.34-28.23-27.75-44.97-.22-.57-.47-1.13-.7-1.69-.29,1.84-.55,3.62.24,5.33,2.17,4.69,4.16,9.48,6.57,14.04,7.41,14.05,16.96,26.48,28.53,37.37,8.81,8.28,18.49,15.35,29.05,21.24,12.31,6.86,25.39,11.74,39.05,15.11.54.13,1.08.3,1.61.45-.03.11-.07.22-.1.33-11.74-1.83-22.97-5.41-33.72-10.44C39.25,296.71,15.7,272.71.22,240.14c-.22,1.91-.3,3.36.43,4.76.97,1.85,1.84,3.76,2.84,5.6,7.5,13.85,16.89,26.24,28.29,37.14,11.87,11.35,25.25,20.45,40.08,27.46,10.39,4.91,21.24,8.49,32.41,11.14.28.07.53.23.8.35-14.91-2.07-28.89-6.95-42.13-13.93-27.11-14.3-47.87-35.09-62.69-62.26-.32,1.92-.16,3.34.66,4.79,7.95,14.08,17.89,26.57,29.74,37.56,10.68,9.9,22.56,18.08,35.56,24.62,12.42,6.24,25.46,10.73,39.04,13.69.31.07.61.19.92.29-14.67-1.8-28.49-6.35-41.71-12.8-13.32-6.5-25.42-14.83-36.36-24.86-10.84-9.93-19.97-21.26-27.83-34.04-.38,1.9-.09,3.2.74,4.51,7.32,11.54,15.96,21.98,25.95,31.32,12.2,11.4,25.88,20.62,40.96,27.74,11.82,5.58,24.17,9.59,36.94,12.36.32.07.62.23.93.35-8.14-.6-24.49-4.42-40.62-12.01-26.69-12.55-48.21-31.17-64.9-55.75-.35,1.65-.18,2.83.65,4.02,6.56,9.42,13.96,18.12,22.33,25.99,6.32,5.95,13.04,11.38,20.22,16.25,8.63,5.86,17.72,10.87,27.3,15,11.03,4.76,22.43,8.3,34.18,10.76.27.06.52.22.78.34-8.52-.85-16.72-2.87-24.8-5.5-8.03-2.61-15.79-5.87-23.3-9.73-7.56-3.88-14.77-8.34-21.63-13.36-6.81-4.99-13.16-10.5-19.15-16.45-5.99-5.96-11.37-12.44-16.6-19.32-.42,1.72-.03,2.87.85,4.03,6.73,8.86,14.19,17.04,22.5,24.45,10.24,9.14,21.44,16.9,33.56,23.3,14.9,7.87,30.68,13.27,47.14,16.76.37.08.72.21,1.08.32-.26.22-.49.25-.7.21-4-.72-8.03-1.29-11.99-2.21-13.89-3.22-27.1-8.26-39.66-15-13.65-7.32-26.06-16.36-37.2-27.12-5.23-5.05-10.11-10.42-14.66-16.09-.25-.32-.58-.58-.94-.93-.43,1.57.05,2.64.92,3.71,6.72,8.27,14.1,15.9,22.21,22.82,12.9,11.02,27.13,19.93,42.64,26.8,12.16,5.39,24.83,9.19,37.81,12,.41.09.81.24,1.22.37-7.69-.65-15.15-2.32-22.49-4.53-32.68-9.86-59.95-28.02-82.21-54.01-.43,2.05-.4,2.14.76,3.5,4.95,5.79,10.28,11.22,15.94,16.32,10.1,9.11,21.11,16.93,33.02,23.48,8.93,4.91,18.2,9.03,27.84,12.36,8.97,3.1,18.11,5.53,27.41,7.37.28.06.55.2.82.3-13.64-1.4-26.7-4.95-39.37-9.99-12.74-5.07-24.73-11.53-35.96-19.4-11.15-7.82-21.24-16.84-30.46-27.04-.61,1.69.01,2.73.97,3.68,4.56,4.48,8.96,9.12,13.69,13.41,12.71,11.5,26.95,20.77,42.39,28.17,12.2,5.85,24.92,10.24,38.09,13.36,2.94.7,5.87,1.54,8.85,1.9,4.61.54,9.26.96,13.89,1.01,16.56.16,33.11.16,49.67.19,11.85.02,23.7,0,35.55,0,6.62,0,13.24,0,19.87,0,14.18,0,28.35,0,42.53,0,.49,0,.99-.08,1.52-.13.03-.44.06-.73.06-1.01,0-12.31-.03-24.63-.03-36.94,0-14.58.03-29.16.03-43.74,0-14-.04-28-.04-42,0-16.44.03-32.88.04-49.33,0-11.91.02-23.82,0-35.73Z"/>
      <path class="cls-1" d="M90.55,71.72c.17-.13.28-.35.46-.57-6.31.67-27.55,14.22-37.25,23.62-19.68,19.07-31.73,42.1-35.42,69.26-3.77,27.73,1.89,53.6,16.37,77.55,5.68,9.39,19.53,25.36,23.25,26.75.07-.14.18-.28.21-.44.28-1.47-.36-2.53-1.4-3.54-2.76-2.66-5.57-5.28-8.14-8.12-11.3-12.45-19.42-26.75-24.39-42.81-4.09-13.24-5.72-26.79-4.84-40.61.76-11.97,3.3-23.57,7.74-34.73,5.89-14.77,14.43-27.8,25.73-38.99,7.6-7.53,16.08-13.89,25.54-18.91,4.4-2.33,8.2-5.47,12.12-8.46Z"/>
      <path class="cls-1" d="M77.7,82.74c-27.21,14.88-54.55,48.54-55.92,93.79-.68,22.41,4.96,43.26,16.65,62.42,5.33,8.74,11.74,16.61,19.47,23.68.8-2.25-.13-3.59-1.45-4.87-9.61-9.34-17.17-20.14-22.73-32.31-8.01-17.54-11.25-35.96-9.54-55.18,1.66-18.66,7.76-35.8,18.19-51.36,7.42-11.07,16.6-20.46,27.52-28.11,3.13-2.2,5.67-4.92,7.81-8.06Z"/>
      <path class="cls-1" d="M69.36,94.03c-.08-.12-.16-.24-.25-.36-.59.41-1.21.78-1.77,1.23-4.35,3.58-8.54,7.33-12.37,11.49-7.74,8.41-14.04,17.77-18.8,28.14-7.64,16.63-10.97,34.12-9.71,52.39,1.82,26.34,12.05,49.04,30.11,68.25.37.39.82.7,1.38,1.16.48-1.8.29-3.15-.81-4.31-.76-.8-1.53-1.59-2.25-2.42-20.03-23.17-29.02-50.01-25.93-80.53,2.74-27.13,14.73-49.72,35.06-67.87,2.3-2.05,4.06-4.42,5.34-7.18Z"/>
      <path class="cls-1" d="M46.52,124.81c-9.92,16.09-15.29,33.56-15.76,52.44-.5,20.38,4.63,39.32,15.19,56.77,3.87,6.4,10.09,14.44,12.03,15.45.68-1.97-.17-3.42-1.37-4.87-16.82-20.29-24.72-43.6-23.57-69.95.39-8.88,2.06-17.53,4.83-25.96,4.66-14.18,12.12-26.71,22.38-37.56,1.87-1.97,3.13-4.24,3.79-6.98-2.84,1.36-12.48,12.46-17.53,20.65Z"/>
      <path class="cls-1" d="M38.69,153.94c-5.71,21.29-4.38,42.21,3.58,62.75,4.24,10.94,12.99,24.14,15.8,25.95.25-1.41.29-2.69-.47-3.88-.47-.73-.99-1.43-1.51-2.14-6.09-8.25-10.75-17.25-13.91-26.99-3.68-11.33-5.23-22.94-4.58-34.86.73-13.24,4.05-25.78,9.95-37.64,2.88-5.79,6.31-11.25,10.36-16.29,1.57-1.96,2.53-4.11,2.47-6.7-10.43,11.54-17.67,24.82-21.69,39.82Z"/>
      <path class="cls-1" d="M58.41,123.5c-.44.57-.91,1.13-1.33,1.72-5.94,8.43-10.41,17.57-13.37,27.45-3.32,11.08-4.57,22.4-3.76,33.93.82,11.71,3.75,22.9,8.71,33.54,2.29,4.91,5.01,9.57,8.12,14,.3.43.5,1.06,1.25,1.04.52-2.09-.15-3.8-1.18-5.5-1.78-2.93-3.63-5.83-5.15-8.89-7.41-14.95-10.71-30.76-9.48-47.43,1.15-15.47,5.88-29.79,14.35-42.83,1.36-2.1,2.32-4.25,1.82-7.04Z"/>
      <path class="cls-1" d="M57.97,345.64c-7.22-3.24-14.19-6.93-20.93-11.08-6.74-4.15-13.14-8.77-19.31-13.72-6.16-4.93-11.75-10.48-17.41-16.15-.57,1.58-.04,2.58.9,3.49,2.8,2.7,5.54,5.47,8.39,8.11,12.61,11.69,26.66,21.32,41.97,29.1,8.82,4.48,18.02,8.04,27.36,11.3,7.69,2.68,15.5,3.36,23.52,2.83.21-.01.41-.06.62-.09.02-.16.05-.33.07-.49-7.77-1.23-15.44-2.84-22.97-5.08-7.59-2.25-14.99-4.99-22.21-8.23Z"/>
      <path class="cls-1" d="M44.38,185.77c.7,13.21,8.35,36.93,13.51,41.31.51-1.55.48-3.03-.27-4.67-.65-1.43-1.44-2.78-2.12-4.2-6.59-13.66-9.64-28.04-8.77-43.22.54-9.42,2.53-18.52,6.07-27.26,1.2-2.95,2.64-5.82,4.06-8.67,1.01-2.01,1.72-4.03.94-6.36-10.14,16.25-14.44,33.96-13.43,53.06Z"/>
      <path class="cls-1" d="M11.18,245.77c7.39,13.78,16.77,26.03,28.25,36.68,5.29,4.91,10.9,9.4,16.88,13.44.49.33,1.05.58,1.63.9.49-2.15.32-2.64-1.29-3.72-9.88-6.65-18.76-14.43-26.58-23.42-14.04-16.14-23.77-34.56-29.24-55.24-.14-.54-.3-1.08-.45-1.61-.25,2.4-.54,4.75.16,7.08,2.7,8.98,6.22,17.63,10.65,25.9Z"/>
      <path class="cls-1" d="M79.17,358.31c-9.57-2.77-18.82-6.37-27.78-10.69-12.18-5.87-23.59-13.02-34.22-21.4-5.39-4.25-10.54-8.77-15.4-13.61-.45-.45-.79-1.12-1.57-1.15-.39,1.36.05,2.3,1.01,3.17,1.94,1.75,3.78,3.61,5.71,5.37,18.44,16.79,39.36,29.49,62.72,38.2,4.05,1.51,8.14,1.64,12.32,1.05-.16-.07-.31-.17-.47-.22-.77-.25-1.55-.5-2.33-.72Z"/>
      <path class="cls-1" d="M57.01,149.45c.87-2.13,1.39-4.31,1.19-6.62-.03-.3-.17-.59-.26-.88-6.56,12.69-9.59,26.13-9.2,40.31.34,12.53,3.36,24.39,9.04,35.54.6-1.89.54-3.62-.09-5.52-.47-1.43-1.03-2.84-1.55-4.25-5.18-14.26-6.34-28.84-3.5-43.73.97-5.09,2.42-10.05,4.37-14.85Z"/>
      <path class="cls-1" d="M38.39,345.88c-4.59-2.6-9.09-5.4-13.45-8.38-4.36-2.98-8.59-6.17-12.71-9.47-4.09-3.28-7.97-6.82-11.99-10.28-.42,1.34-.04,2.27.9,3.07,1.1.94,2.15,1.95,3.22,2.93,15.83,14.39,33.57,25.8,53.14,34.43,3.09,1.36,6.22,1.73,9.89,1.28-5.21-2.2-10.13-4.12-14.9-6.35-4.78-2.23-9.51-4.63-14.1-7.23Z"/>
      <path class="cls-1" d="M1.61,327.39c11.61,10.45,24.24,19.48,37.96,26.97,2.65,1.45,5.35,2.79,8.03,4.19,2.24,1.17,4.59,1.32,7.08.77-19.98-8.91-38.12-20.61-54.36-35.5-.68,1.88.33,2.71,1.3,3.57Z"/>
      <path class="cls-1" d="M57.06,194.21c-1.55-8.28-1.82-16.6-.58-24.95.46-3.1,1.05-6.18,1.53-9.28.33-2.11.26-4.22-.13-6.35-3.79,10.36-5.25,21.01-4.46,31.97.51,7.06,1.85,13.96,4.27,20.74.27-.25.41-.32.42-.4.05-.46.08-.92.11-1.38.18-3.52-.52-6.93-1.16-10.36Z"/>
      <path class="cls-1" d="M1.19,333.05c7.46,6.5,15.3,12.5,23.66,17.78,4.42,2.79,8.99,5.34,13.49,7.99,1.74,1.02,3.59.95,5.53.51-15.71-7.97-30.22-17.68-43.54-29.36-.58,1.47-.07,2.27.85,3.07Z"/>
      <path class="cls-1" d="M1.27,339.07c6.42,5.38,13.14,10.35,20.15,14.94,2.57,1.69,5.23,3.24,7.85,4.86,1.51.93,3.11.91,5.2.53-12.32-6.83-23.57-14.5-34.17-23.45-.54,1.54.03,2.34.97,3.13Z"/>
      <path class="cls-1" d="M1.12,344.78c6.08,4.95,12.45,9.5,19.01,13.79,1.51.99,3.06,1.25,5.23.84-8.96-5.38-17.15-11.14-25.04-17.54-.49,1.37-.12,2.15.8,2.9Z"/>
      <path class="cls-1" d="M1.2,350.64c3.57,2.58,7.12,5.18,10.63,7.84,1.35,1.02,2.76,1.38,4.66.97-5.52-3.94-10.85-7.75-16.24-11.6-.45,1.3-.02,2.08.95,2.78Z"/>
      <path class="cls-1" d="M.79,356.01c1.4,1.01,2.75,2.09,4.17,3.08.97.68,2.04.71,3.36.21-2.79-2.01-5.38-3.88-8.07-5.83-.26,1.11-.32,1.91.55,2.54Z"/>
    </g>
  </g>
</svg>
