<svg width="64" height="64" viewBox="0 0 64 64" fill="none" xmlns="http://www.w3.org/2000/svg">
<g clip-path="url(#clip0_133_7)">
<path fill-rule="evenodd" clip-rule="evenodd" d="M58.9096 58.9087C53.8183 64 46.0232 64 32.001 64C17.9788 64 10.1836 64 5.09231 58.9087C0.000976562 53.8173 0.000976562 46.0222 0.000976562 32C0.000976562 17.9778 0.000976562 10.1827 5.09231 5.09133C10.1836 0 17.9788 0 32.001 0C46.0232 0 53.8183 0 58.9096 5.09133C64.001 10.1827 64.001 17.9778 64.001 32C64.001 46.0222 64.001 53.8173 58.9096 58.9087ZM13.625 14C15.077 14 16.25 15.1491 16.25 16.5714V43.5714C16.25 44.2786 16.8406 44.8571 17.5625 44.8571H50.375C51.827 44.8571 53 46.0062 53 47.4286C53 48.8509 51.827 50 50.375 50H17.5625C13.9367 50 11 47.1232 11 43.5714V16.5714C11 15.1491 12.173 14 13.625 14ZM49.6039 19.8902C50.6293 20.8946 50.6293 22.5259 49.6039 23.5304L49.6121 23.5384L39.1121 33.8241C38.0867 34.8286 36.4215 34.8286 35.3961 33.8241L30.6875 29.2116L23.3539 36.3875C22.3285 37.392 20.6633 37.392 19.6379 36.3875C18.6125 35.383 18.6125 33.7518 19.6379 32.7473L28.8254 23.7473C29.8508 22.7429 31.516 22.7429 32.5414 23.7473L37.25 28.3598L45.8879 19.8902C46.9133 18.8857 48.5785 18.8857 49.6039 19.8902Z" fill="white"/>
</g>
<defs>
<clipPath id="clip0_133_7">
<rect width="64" height="64" fill="white"/>
</clipPath>
</defs>
</svg>
