<svg width="64" height="64" viewBox="0 0 64 64" fill="none" xmlns="http://www.w3.org/2000/svg">
<path d="M32 12C43.0469 12 52 20.9531 52 32C52 43.0469 43.0469 52 32 52C20.9531 52 12 43.0469 12 32C12 20.9531 20.9531 12 32 12ZM32 48.25C32.5781 48.25 34.0391 47.6875 35.7188 44.4688C36.4062 43.0859 36.9297 41.4062 37.4375 39.5H26.5625C27 41.4062 27.5938 43.0859 28.2812 44.4688C29.8906 47.6875 31.4219 48.25 32 48.25ZM25.9453 35.75H38.0547C38.1797 34.5547 38.25 33.2969 38.25 32C38.25 30.7031 38.1797 29.4453 38.0547 28.25H25.9453C25.8203 29.4453 25.75 30.7031 25.75 32C25.75 33.2969 25.8203 34.5547 25.9453 35.75ZM37.4375 24.5C36.9297 22.5938 36.4062 20.9141 35.7188 19.5352C34.0391 16.3141 32.5781 15.75 32 15.75C31.4219 15.75 29.8906 16.3141 28.2812 19.5352C27.5938 20.9141 27 22.5938 26.5625 24.5H37.4375ZM41.8281 28.25C41.9375 29.4609 42 30.7188 42 32C42 33.2812 41.9375 34.5391 41.8281 35.75H47.8125C48.1016 34.5469 48.25 33.2891 48.25 32C48.25 30.7109 48.1016 29.4531 47.8125 28.25H41.8281ZM38.7266 17.2039C39.8281 19.2078 40.7031 21.6953 41.2734 24.5H46.4219C44.75 21.2891 42.0312 18.7094 38.7266 17.2039ZM25.2734 17.2039C21.9688 18.7094 19.2531 21.2891 17.5805 24.5H22.7266C23.2969 21.6953 24.1719 19.2078 25.2734 17.2039ZM15.75 32C15.75 33.2891 15.9008 34.5469 16.1852 35.75H22.1719C22.0625 34.5391 22 33.2812 22 32C22 30.7188 22.0625 29.4609 22.1719 28.25H16.1852C15.9008 29.4531 15.75 30.7109 15.75 32ZM46.4219 39.5H41.2734C40.7031 42.3047 39.8281 44.7891 38.7266 46.7969C42.0312 45.2891 44.75 42.7109 46.4219 39.5ZM22.7266 39.5H17.5805C19.2531 42.7109 21.9688 45.2891 25.2734 46.7969C24.1719 44.7891 23.2969 42.3047 22.7266 39.5Z" fill="#8A7ED8"/>
</svg>
