<svg width="64" height="64" viewBox="0 0 64 64" fill="none" xmlns="http://www.w3.org/2000/svg">
<g clip-path="url(#clip0_4_136)">
<path fill-rule="evenodd" clip-rule="evenodd" d="M58.9096 58.9087C53.8183 64 46.0232 64 32.001 64C17.9788 64 10.1836 64 5.09231 58.9087C0.000976562 53.8173 0.000976562 46.0222 0.000976562 32C0.000976562 17.9778 0.000976562 10.1827 5.09231 5.09133C10.1836 0 17.9788 0 32.001 0C46.0232 0 53.8183 0 58.9096 5.09133C64.001 10.1827 64.001 17.9778 64.001 32C64.001 46.0222 64.001 53.8173 58.9096 58.9087ZM52 32C52 20.9531 43.0469 12 32 12C20.9531 12 12 20.9531 12 32C12 43.0469 20.9531 52 32 52C43.0469 52 52 43.0469 52 32ZM35.7188 44.4688C34.0391 47.6875 32.5781 48.25 32 48.25C31.4219 48.25 29.8906 47.6875 28.2812 44.4688C27.5938 43.0859 27 41.4062 26.5625 39.5H37.4375C36.9297 41.4062 36.4062 43.0859 35.7188 44.4688ZM38.0547 35.75H25.9453C25.8203 34.5547 25.75 33.2969 25.75 32C25.75 30.7031 25.8203 29.4453 25.9453 28.25H38.0547C38.1797 29.4453 38.25 30.7031 38.25 32C38.25 33.2969 38.1797 34.5547 38.0547 35.75ZM35.7188 19.5352C36.4062 20.9141 36.9297 22.5938 37.4375 24.5H26.5625C27 22.5938 27.5938 20.9141 28.2812 19.5352C29.8906 16.3141 31.4219 15.75 32 15.75C32.5781 15.75 34.0391 16.3141 35.7188 19.5352ZM42 32C42 30.7188 41.9375 29.4609 41.8281 28.25H47.8125C48.1016 29.4531 48.25 30.7109 48.25 32C48.25 33.2891 48.1016 34.5469 47.8125 35.75H41.8281C41.9375 34.5391 42 33.2812 42 32ZM41.2734 24.5C40.7031 21.6953 39.8281 19.2078 38.7266 17.2039C42.0312 18.7094 44.75 21.2891 46.4219 24.5H41.2734ZM17.5805 24.5C19.2531 21.2891 21.9688 18.7094 25.2734 17.2039C24.1719 19.2078 23.2969 21.6953 22.7266 24.5H17.5805ZM16.1852 35.75C15.9008 34.5469 15.75 33.2891 15.75 32C15.75 30.7109 15.9008 29.4531 16.1852 28.25H22.1719C22.0625 29.4609 22 30.7188 22 32C22 33.2812 22.0625 34.5391 22.1719 35.75H16.1852ZM41.2734 39.5H46.4219C44.75 42.7109 42.0312 45.2891 38.7266 46.7969C39.8281 44.7891 40.7031 42.3047 41.2734 39.5ZM17.5805 39.5H22.7266C23.2969 42.3047 24.1719 44.7891 25.2734 46.7969C21.9688 45.2891 19.2531 42.7109 17.5805 39.5Z" fill="white"/>
</g>
<defs>
<clipPath id="clip0_4_136">
<rect width="64" height="64" fill="white"/>
</clipPath>
</defs>
</svg>
