<svg width="64" height="64" viewBox="0 0 64 64" fill="none" xmlns="http://www.w3.org/2000/svg">
<path d="M17 14.5C14.2422 14.5 12 16.7422 12 19.5V24.5C12 27.2578 14.2422 29.5 17 29.5H47C49.7578 29.5 52 27.2578 52 24.5V19.5C52 16.7422 49.7578 14.5 47 14.5H17ZM38.875 23.875C37.8359 23.875 37 23.0391 37 22C37 20.9609 37.8359 20.125 38.875 20.125C39.9141 20.125 40.75 20.9609 40.75 22C40.75 23.0391 39.9141 23.875 38.875 23.875ZM46.375 22C46.375 23.0391 45.5391 23.875 44.5 23.875C43.4609 23.875 42.625 23.0391 42.625 22C42.625 20.9609 43.4609 20.125 44.5 20.125C45.5391 20.125 46.375 20.9609 46.375 22ZM17 34.5C14.2422 34.5 12 36.7422 12 39.5V44.5C12 47.2578 14.2422 49.5 17 49.5H47C49.7578 49.5 52 47.2578 52 44.5V39.5C52 36.7422 49.7578 34.5 47 34.5H17ZM38.875 43.875C37.8359 43.875 37 43.0391 37 42C37 40.9609 37.8359 40.125 38.875 40.125C39.9141 40.125 40.75 40.9609 40.75 42C40.75 43.0391 39.9141 43.875 38.875 43.875ZM47 42C47 43.0391 46.1641 43.875 45.125 43.875C44.0859 43.875 43.25 43.0391 43.25 42C43.25 40.9609 44.0859 40.125 45.125 40.125C46.1641 40.125 47 40.9609 47 42Z" fill="#8A7ED8"/>
</svg>
