<svg width="64" height="64" viewBox="0 0 64 64" fill="none" xmlns="http://www.w3.org/2000/svg">
<g clip-path="url(#clip0_4_149)">
<path fill-rule="evenodd" clip-rule="evenodd" d="M58.9096 58.9087C53.8183 64 46.0232 64 32.001 64C17.9788 64 10.1836 64 5.09231 58.9087C0.000976562 53.8173 0.000976562 46.0222 0.000976562 32C0.000976562 17.9778 0.000976562 10.1827 5.09231 5.09133C10.1836 0 17.9788 0 32.001 0C46.0232 0 53.8183 0 58.9096 5.09133C64.001 10.1827 64.001 17.9778 64.001 32C64.001 46.0222 64.001 53.8173 58.9096 58.9087ZM12 19.5C12 16.7422 14.2422 14.5 17 14.5H47C49.7578 14.5 52 16.7422 52 19.5V24.5C52 27.2578 49.7578 29.5 47 29.5H17C14.2422 29.5 12 27.2578 12 24.5V19.5ZM37 22C37 23.0391 37.8359 23.875 38.875 23.875C39.9141 23.875 40.75 23.0391 40.75 22C40.75 20.9609 39.9141 20.125 38.875 20.125C37.8359 20.125 37 20.9609 37 22ZM44.5 23.875C45.5391 23.875 46.375 23.0391 46.375 22C46.375 20.9609 45.5391 20.125 44.5 20.125C43.4609 20.125 42.625 20.9609 42.625 22C42.625 23.0391 43.4609 23.875 44.5 23.875ZM12 39.5C12 36.7422 14.2422 34.5 17 34.5H47C49.7578 34.5 52 36.7422 52 39.5V44.5C52 47.2578 49.7578 49.5 47 49.5H17C14.2422 49.5 12 47.2578 12 44.5V39.5ZM37 42C37 43.0391 37.8359 43.875 38.875 43.875C39.9141 43.875 40.75 43.0391 40.75 42C40.75 40.9609 39.9141 40.125 38.875 40.125C37.8359 40.125 37 40.9609 37 42ZM45.125 43.875C46.1641 43.875 47 43.0391 47 42C47 40.9609 46.1641 40.125 45.125 40.125C44.0859 40.125 43.25 40.9609 43.25 42C43.25 43.0391 44.0859 43.875 45.125 43.875Z" fill="white"/>
</g>
<defs>
<clipPath id="clip0_4_149">
<rect width="64" height="64" fill="white"/>
</clipPath>
</defs>
</svg>
