<svg width="64" height="64" viewBox="0 0 64 64" fill="none" xmlns="http://www.w3.org/2000/svg">
<path d="M34.5 20.539V39.4999C34.5 40.8827 33.3828 41.9999 32 41.9999C30.6172 41.9999 29.5 40.8827 29.5 39.4999V20.539L23.7656 26.2733C22.7891 27.2499 21.2031 27.2499 20.2266 26.2733C19.25 25.2968 19.25 23.7108 20.2266 22.7343L30.2266 12.7343C31.2031 11.7577 32.7891 11.7577 33.7656 12.7343L43.7656 22.7343C44.7422 23.7108 44.7422 25.2968 43.7656 26.2733C42.7891 27.2499 41.2031 27.2499 40.2266 26.2733L34.5 20.539ZM17 39.4999H27C27 42.2577 29.2422 44.4999 32 44.4999C34.7578 44.4999 37 42.2577 37 39.4999H47C49.7578 39.4999 52 41.7421 52 44.4999V46.9999C52 49.7577 49.7578 51.9999 47 51.9999H17C14.2422 51.9999 12 49.7577 12 46.9999V44.4999C12 41.7421 14.2422 39.4999 17 39.4999ZM45.75 47.6249C46.7891 47.6249 47.625 46.789 47.625 45.7499C47.625 44.7108 46.7891 43.8749 45.75 43.8749C44.7109 43.8749 43.875 44.7108 43.875 45.7499C43.875 46.789 44.7109 47.6249 45.75 47.6249Z" fill="#8A7ED8"/>
</svg>
