<svg width="64" height="64" viewBox="0 0 64 64" fill="none" xmlns="http://www.w3.org/2000/svg">
<g clip-path="url(#clip0_4_255)">
<path d="M32 64C46.0222 64 53.8173 64 58.9087 58.9087C64 53.8173 64 46.0222 64 32C64 17.9778 64 10.1827 58.9087 5.09133C53.8173 0 46.0222 0 32 0C17.9778 0 10.1827 0 5.09133 5.09133C0 10.1827 0 17.9778 0 32C0 46.0222 0 53.8173 5.09133 58.9087C10.1827 64 17.9778 64 32 64Z" fill="url(#paint0_linear_4_255)"/>
<path d="M21.55 26.375C18.9256 26.375 16.8 24.2773 16.8 21.6875C16.8 19.0977 18.9256 17 21.55 17C24.1744 17 26.3 19.0977 26.3 21.6875C26.3 24.2773 24.1744 26.375 21.55 26.375ZM43.4 26.375C40.7756 26.375 38.65 24.2773 38.65 21.6875C38.65 19.0977 40.7756 17 43.4 17C46.0244 17 48.15 19.0977 48.15 21.6875C48.15 24.2773 46.0244 26.375 43.4 26.375ZM13 34.502C13 31.0508 15.8381 28.25 19.3353 28.25H21.8706C22.8147 28.25 23.7113 28.4551 24.5188 28.8184C24.4416 29.2402 24.4059 29.6797 24.4059 30.125C24.4059 32.3633 25.4034 34.373 26.9769 35.75C26.965 35.75 26.9531 35.75 26.9353 35.75H14.2647C13.57 35.75 13 35.1875 13 34.502ZM37.0647 35.75C37.0528 35.75 37.0409 35.75 37.0231 35.75C38.6025 34.373 39.5941 32.3633 39.5941 30.125C39.5941 29.6797 39.5525 29.2461 39.4812 28.8184C40.2887 28.4492 41.1853 28.25 42.1294 28.25H44.6647C48.1619 28.25 51 31.0508 51 34.502C51 35.1934 50.43 35.75 49.7353 35.75H37.0647ZM37.7 30.125C37.7 33.2305 35.1469 35.75 32 35.75C28.8531 35.75 26.3 33.2305 26.3 30.125C26.3 27.0195 28.8531 24.5 32 24.5C35.1469 24.5 37.7 27.0195 37.7 30.125ZM20.6 45.4355C20.6 41.123 24.1447 37.625 28.5147 37.625H35.4853C39.8553 37.625 43.4 41.123 43.4 45.4355C43.4 46.2969 42.6934 47 41.8147 47H22.1853C21.3125 47 20.6 46.3027 20.6 45.4355V45.4355Z" fill="url(#paint1_linear_4_255)"/>
</g>
<defs>
<linearGradient id="paint0_linear_4_255" x1="31.9579" y1="-0.0105222" x2="32.0315" y2="63.9264" gradientUnits="userSpaceOnUse">
<stop stop-color="#F5C448"/>
<stop offset="1" stop-color="#EE9343"/>
</linearGradient>
<linearGradient id="paint1_linear_4_255" x1="32" y1="17" x2="32" y2="47" gradientUnits="userSpaceOnUse">
<stop stop-color="white"/>
<stop offset="1" stop-color="white" stop-opacity="0.6"/>
</linearGradient>
<clipPath id="clip0_4_255">
<rect width="64" height="64" fill="white"/>
</clipPath>
</defs>
</svg>
