<svg width="64" height="64" viewBox="0 0 64 64" fill="none" xmlns="http://www.w3.org/2000/svg">
<g clip-path="url(#clip0_4_203)">
<path fill-rule="evenodd" clip-rule="evenodd" d="M58.9096 58.9087C53.8183 64 46.0232 64 32.001 64C17.9788 64 10.1836 64 5.09231 58.9087C0.000976562 53.8173 0.000976562 46.0222 0.000976562 32C0.000976562 17.9778 0.000976562 10.1827 5.09231 5.09133C10.1836 0 17.9788 0 32.001 0C46.0232 0 53.8183 0 58.9096 5.09133C64.001 10.1827 64.001 17.9778 64.001 32C64.001 46.0222 64.001 53.8173 58.9096 58.9087ZM49.1515 22V18.25C49.1515 14.7969 41.2817 12 31.5758 12C21.8699 12 14 14.7969 14 18.25V22C14 25.4531 21.8699 28.25 31.5758 28.25C41.2817 28.25 49.1515 25.4531 49.1515 22ZM49.1515 26.5391C47.9824 27.4531 46.4838 28.1953 44.8517 28.7734C41.3287 30.0234 36.6366 30.75 31.5758 30.75C26.5149 30.75 21.8228 30.0234 18.2998 28.7734C16.6677 28.1953 15.1691 27.4609 14 26.5391V34.5C14 37.9531 21.8699 40.75 31.5758 40.75C41.2817 40.75 49.1515 37.9531 49.1515 34.5V26.5391ZM18.2998 41.2734C16.6677 40.6953 15.1691 39.9609 14 39.0391V45.75C14 49.2031 21.8699 52 31.5758 52C41.2817 52 49.1515 49.2031 49.1515 45.75V39.0391C47.9824 39.9531 46.4838 40.6953 44.8517 41.2734C41.3287 42.5234 36.6366 43.25 31.5758 43.25C26.5149 43.25 21.8228 42.5234 18.2998 41.2734Z" fill="white"/>
</g>
<defs>
<clipPath id="clip0_4_203">
<rect width="64" height="64" fill="white"/>
</clipPath>
</defs>
</svg>
