<svg width="64" height="64" viewBox="0 0 64 64" fill="none" xmlns="http://www.w3.org/2000/svg">
<g clip-path="url(#clip0_4_282)">
<path d="M32 64C46.0222 64 53.8173 64 58.9087 58.9087C64 53.8173 64 46.0222 64 32C64 17.9778 64 10.1827 58.9087 5.09133C53.8173 0 46.0222 0 32 0C17.9778 0 10.1827 0 5.09133 5.09133C0 10.1827 0 17.9778 0 32C0 46.0222 0 53.8173 5.09133 58.9087C10.1827 64 17.9778 64 32 64Z" fill="url(#paint0_linear_4_282)"/>
<path d="M13.2498 12H23.2498C23.6638 12 24.0545 12.2109 24.2888 12.5547L30.6248 22.0547C26.7576 22.375 23.281 24.0547 20.656 26.6094L12.2107 13.9453C11.9529 13.5625 11.9295 13.0703 12.1482 12.6641C12.367 12.2578 12.7888 12 13.2498 12ZM51.7888 13.9453L43.3435 26.6172C40.7263 24.0625 37.242 22.3828 33.3748 22.0625L39.7107 12.5547C39.9451 12.2031 40.3357 12 40.7498 12H50.7498C51.2107 12 51.6326 12.25 51.8513 12.6641C52.0701 13.0781 52.0466 13.5625 51.7888 13.9453ZM45.7498 38.25C45.7498 45.8437 39.5935 52 31.9998 52C24.406 52 18.2498 45.8437 18.2498 38.25C18.2498 30.6563 24.406 24.5 31.9998 24.5C39.5935 24.5 45.7498 30.6563 45.7498 38.25ZM32.656 30.8359C32.3904 30.2891 31.617 30.2891 31.3435 30.8359L29.5935 34.3828C29.4841 34.6016 29.281 34.75 29.0466 34.7813L25.1248 35.3516C24.5232 35.4375 24.2888 36.1719 24.7185 36.6016L27.5545 39.3672C27.7263 39.5391 27.8045 39.7734 27.7654 40.0156L27.0935 43.9141C26.992 44.5078 27.617 44.9687 28.156 44.6875L31.656 42.8437C31.867 42.7344 32.1248 42.7344 32.3357 42.8437L35.8357 44.6875C36.3748 44.9687 36.9998 44.5156 36.8982 43.9141L36.2263 40.0156C36.1873 39.7813 36.2654 39.5391 36.4373 39.3672L39.2732 36.6016C39.7107 36.1797 39.4685 35.4453 38.867 35.3516L34.9529 34.7813C34.7185 34.75 34.5076 34.5938 34.406 34.3828L32.656 30.8359V30.8359Z" fill="url(#paint1_linear_4_282)"/>
</g>
<defs>
<linearGradient id="paint0_linear_4_282" x1="31.9579" y1="-0.0105222" x2="32.0315" y2="63.9264" gradientUnits="userSpaceOnUse">
<stop stop-color="#F5C448"/>
<stop offset="1" stop-color="#EE9343"/>
</linearGradient>
<linearGradient id="paint1_linear_4_282" x1="31.9998" y1="12" x2="31.9998" y2="52" gradientUnits="userSpaceOnUse">
<stop stop-color="white"/>
<stop offset="1" stop-color="white" stop-opacity="0.6"/>
</linearGradient>
<clipPath id="clip0_4_282">
<rect width="64" height="64" fill="white"/>
</clipPath>
</defs>
</svg>
