<svg width="64" height="64" viewBox="0 0 64 64" fill="none" xmlns="http://www.w3.org/2000/svg">
<path d="M22.287 22.9966H28.5586C34.1763 13.7368 42.7963 13.3993 48.0274 14.3696C48.8429 14.5243 49.4828 15.1571 49.6304 15.9727C50.6007 21.2037 50.2632 29.8237 41.0034 35.4414V41.7201C41.0034 43.5059 40.0613 45.1653 38.5215 46.0723L32.2991 49.7635C31.7788 50.0729 31.1319 50.0799 30.6046 49.7776C30.0773 49.4752 29.7538 48.9198 29.7538 48.3081V40.2436C29.7538 38.6546 29.1211 37.1289 27.9961 36.0039C26.8711 34.8789 25.3454 34.2462 23.7564 34.2462H15.6919C15.0872 34.2462 14.5248 33.9227 14.2224 33.3954C13.9201 32.8681 13.9271 32.2212 14.2365 31.7009L17.9277 25.4785C18.8418 23.9387 20.4941 22.9966 22.2799 22.9966H22.287ZM43.8158 22.9966C43.8158 22.2507 43.5195 21.5354 42.9921 21.0079C42.4646 20.4805 41.7493 20.1842 41.0034 20.1842C40.2575 20.1842 39.5422 20.4805 39.0147 21.0079C38.4873 21.5354 38.191 22.2507 38.191 22.9966C38.191 23.7425 38.4873 24.4578 39.0147 24.9853C39.5422 25.5127 40.2575 25.809 41.0034 25.809C41.7493 25.809 42.4646 25.5127 42.9921 24.9853C43.5195 24.4578 43.8158 23.7425 43.8158 22.9966ZM25.711 47.0425C23.3064 49.4542 18.6449 49.9252 15.9942 49.9885C14.8693 50.0166 13.9834 49.1307 14.0115 48.0058C14.0748 45.3551 14.5458 40.6936 16.9575 38.289C19.3761 35.8703 23.2924 35.8703 25.711 38.289C28.1297 40.7076 28.1297 44.6239 25.711 47.0425ZM22.4276 44.4833C23.2291 43.6817 23.2291 42.374 22.4276 41.5724C21.626 40.7709 20.3183 40.7709 19.5167 41.5724C18.8066 42.2826 18.6027 43.5763 18.5535 44.4762C18.5183 45.0387 18.9683 45.4817 19.5308 45.4535C20.4308 45.4043 21.7245 45.1934 22.4346 44.4903L22.4276 44.4833Z" fill="#8A7ED8"/>
</svg>
