<?xml version="1.0" encoding="UTF-8" standalone="no"?>
<!DOCTYPE svg PUBLIC "-//W3C//DTD SVG 1.1//EN" "http://www.w3.org/Graphics/SVG/1.1/DTD/svg11.dtd">
<svg width="100%" height="100%" viewBox="0 0 2000 2000" version="1.1" xmlns="http://www.w3.org/2000/svg" xmlns:xlink="http://www.w3.org/1999/xlink" xml:space="preserve" xmlns:serif="http://www.serif.com/" style="fill-rule:evenodd;clip-rule:evenodd;stroke-linejoin:round;stroke-miterlimit:2;">
    <g transform="matrix(3.08362,0,0,3.08362,-638.257,-1157.62)">
        <g transform="matrix(1.13417,0,0,0.879546,-147.657,365.995)">
            <path d="M481,698.77C481,672.957 464.748,652 444.73,652L382.38,652C362.362,652 346.11,672.957 346.11,698.77C346.11,724.583 362.362,745.54 382.38,745.54L444.73,745.54C464.748,745.54 481,724.583 481,698.77Z" style="fill:rgb(50,99,7);"/>
        </g>
        <g transform="matrix(1.13417,0,0,0.879546,272.128,365.995)">
            <path d="M481,698.77C481,672.957 464.748,652 444.73,652L382.38,652C362.362,652 346.11,672.957 346.11,698.77C346.11,724.583 362.362,745.54 382.38,745.54L444.73,745.54C464.748,745.54 481,724.583 481,698.77Z" style="fill:rgb(50,99,7);"/>
        </g>
        <g transform="matrix(-0.982033,1.88483,1.00584,0.524061,369.273,-302.635)">
            <path d="M485.179,755.5C485.179,729.836 474.06,709 460.365,709L370.924,709C357.229,709 346.11,729.836 346.11,755.5C346.11,781.164 357.229,802 370.924,802L460.365,802C474.06,802 485.179,781.164 485.179,755.5Z" style="fill:rgb(50,99,7);"/>
        </g>
        <g transform="matrix(0.982033,1.88483,-1.00584,0.524061,693.282,-302.635)">
            <path d="M485.179,755.5C485.179,729.836 474.06,709 460.365,709L370.924,709C357.229,709 346.11,729.836 346.11,755.5C346.11,781.164 357.229,802 370.924,802L460.365,802C474.06,802 485.179,781.164 485.179,755.5Z" style="fill:rgb(50,99,7);"/>
        </g>
        <g transform="matrix(1.13417,0,0,1.13417,-49.4181,186.571)">
            <path d="M576.683,341.488C589.828,317.245 610.978,301.5 634.805,301.5C674.687,301.5 707.067,345.611 707.067,399.943C707.067,420.849 702.272,440.242 694.086,456.179C702.487,477.947 707.067,501.599 707.067,526.313C707.067,634.591 619.158,722.5 510.879,722.5C402.6,722.5 314.692,634.591 314.692,526.313C314.692,501.599 319.271,477.947 327.673,456.179C319.486,440.242 314.692,420.849 314.692,399.943C314.692,345.611 347.071,301.5 386.953,301.5C410.781,301.5 431.93,317.245 445.075,341.488C465.643,334.12 487.798,330.125 510.879,330.125C533.96,330.125 556.115,334.12 576.683,341.488Z" style="fill:rgb(125,191,67);"/>
        </g>
        <g transform="matrix(0.791851,0,0,0.791851,124.579,394.701)">
            <path d="M279.211,648.342C297.621,536.457 394.909,451 512,451C629.091,451 726.379,536.457 744.789,648.342C694.234,722.947 608.8,772 512,772C415.2,772 329.766,722.947 279.211,648.342Z" style="fill:rgb(252,237,161);"/>
        </g>
        <g transform="matrix(8.56128e-17,-1.39816,1.54914,9.48574e-17,-583.259,1528.92)">
            <path d="M517.635,575C438.361,575 374,639.361 374,718.635C374,797.909 438.361,862.269 517.635,862.269C471.656,842.16 434.327,784.722 434.327,718.635C434.327,652.547 471.656,595.109 517.635,575Z" style="fill-opacity:0.1;"/>
        </g>
        <g transform="matrix(1.13417,0,0,1.13417,-49.4181,186.571)">
            <path d="M451.737,509.358C470.099,502.263 490.04,498.386 510.879,498.386C531.719,498.386 551.66,502.263 570.022,509.358C558.937,530.716 536.6,545.32 510.879,545.32C485.158,545.32 462.822,530.716 451.737,509.358Z" style="fill:rgb(252,237,161);"/>
        </g>
        <g transform="matrix(1.13417,0,0,1.13417,-49.4181,186.571)">
            <path d="M485.179,500.387C493.551,499.068 502.136,498.386 510.879,498.386C519.622,498.386 528.207,499.068 536.579,500.387C530.974,508.576 521.55,513.955 510.879,513.955C500.208,513.955 490.784,508.576 485.179,500.387Z" style="fill:rgb(196,193,161);"/>
        </g>
        <g transform="matrix(1.13417,0,0,1.13417,-49.4181,186.571)">
            <path d="M485.179,500.387C493.551,499.068 502.136,498.386 510.879,498.386C519.622,498.386 528.207,499.068 536.579,500.387C530.974,508.576 521.55,513.955 510.879,513.955C500.208,513.955 490.784,508.576 485.179,500.387Z" style="fill:rgb(255,0,0);fill-opacity:0.1;"/>
        </g>
        <g transform="matrix(0.459314,0,0,0.334349,367.391,610.752)">
            <path d="M334.5,262.445C334.5,247.85 325.874,236 315.25,236C304.626,236 296,247.85 296,262.445L296,312.555C296,327.15 304.626,339 315.25,339C325.874,339 334.5,327.15 334.5,312.555L334.5,262.445Z" style="fill:rgb(77,131,30);"/>
        </g>
        <g transform="matrix(0.459314,0,0,0.334349,403.025,610.752)">
            <path d="M334.5,262.445C334.5,247.85 325.874,236 315.25,236C304.626,236 296,247.85 296,262.445L296,312.555C296,327.15 304.626,339 315.25,339C325.874,339 334.5,327.15 334.5,312.555L334.5,262.445Z" style="fill:rgb(77,131,30);"/>
        </g>
        <g transform="matrix(1.13417,0,0,1.13417,-30.5673,178.43)">
            <path d="M481,698.77C481,672.957 460.043,652 434.23,652L392.88,652C367.067,652 346.11,672.957 346.11,698.77C346.11,724.583 367.067,745.54 392.88,745.54L434.23,745.54C460.043,745.54 481,724.583 481,698.77Z" style="fill:rgb(125,191,67);"/>
        </g>
        <g transform="matrix(-1.13417,0,0,1.13417,1093.12,178.43)">
            <path d="M481,698.77C481,672.957 460.043,652 434.23,652L392.88,652C367.067,652 346.11,672.957 346.11,698.77C346.11,724.583 367.067,745.54 392.88,745.54L434.23,745.54C460.043,745.54 481,724.583 481,698.77Z" style="fill:rgb(125,191,67);"/>
        </g>
        <g transform="matrix(0.252474,0,0,0.370878,244.125,438.03)">
            <circle cx="497" cy="490" r="246" style="fill:white;"/>
        </g>
        <g transform="matrix(0.252474,0,0,0.370878,564.929,438.03)">
            <circle cx="497" cy="490" r="246" style="fill:white;"/>
        </g>
        <g transform="matrix(-0.278774,-1.39262,1.55591,-0.311462,-331.351,1377.06)">
            <path d="M373.055,489C358.183,489 346.11,504.459 346.11,523.5C346.11,542.541 358.183,558 373.055,558C361.901,555.125 352.846,540.656 352.846,523.5C352.846,506.344 361.901,491.875 373.055,489Z" style="fill-opacity:0.1;"/>
        </g>
        <g transform="matrix(0.278774,-1.39262,-1.55591,-0.311462,1392.52,1377.06)">
            <path d="M373.055,489C358.183,489 346.11,504.459 346.11,523.5C346.11,542.541 358.183,558 373.055,558C361.901,555.125 352.846,540.656 352.846,523.5C352.846,506.344 361.901,491.875 373.055,489Z" style="fill-opacity:0.1;"/>
        </g>
        <g transform="matrix(0.918628,0,0,0.918628,49.952,349.177)">
            <path d="M334.5,255.25C334.5,244.626 325.874,236 315.25,236C304.626,236 296,244.626 296,255.25L296,319.75C296,330.374 304.626,339 315.25,339C325.874,339 334.5,330.374 334.5,319.75L334.5,255.25Z"/>
        </g>
        <g transform="matrix(0.918628,0,0,0.918628,426.33,349.177)">
            <path d="M334.5,255.25C334.5,244.626 325.874,236 315.25,236C304.626,236 296,244.626 296,255.25L296,319.75C296,330.374 304.626,339 315.25,339C325.874,339 334.5,330.374 334.5,319.75L334.5,255.25Z"/>
        </g>
        <g transform="matrix(1.13417,0,0,1.13417,-49.4181,186.571)">
            <path d="M445.851,341.212C466.2,334.02 488.088,330.125 510.879,330.125C533.96,330.125 556.115,334.12 576.683,341.488C576.856,341.17 577.03,340.854 577.205,340.539L577,343C577,343 570.318,378.57 579,399.943C534,428.782 489,430.807 444,399.943C452.682,378.571 446,343 446,343L445.851,341.212Z" style="fill-opacity:0.1;"/>
        </g>
    </g>
    <g transform="matrix(3.49735,0,0,3.49735,-790.644,-86.2415)">
        <g transform="matrix(1.44028,0,0,1.18053,-223.81,-194.922)">
            <path d="M509.977,201.794C510.123,201.342 510.481,201.045 510.879,201.045C511.278,201.045 511.635,201.342 511.781,201.794C517.857,220.609 552.803,328.832 560.879,353.843C561.314,355.191 561.271,356.699 560.76,358.007C560.25,359.315 559.316,360.306 558.184,360.743C528.703,371.947 497.358,372.812 463.67,360.676C462.521,360.257 461.568,359.27 461.044,357.955C460.52,356.64 460.471,355.116 460.911,353.755C469.038,328.578 503.908,220.587 509.977,201.794Z" style="fill:rgb(191,53,53);"/>
        </g>
        <g transform="matrix(1,0,0,1,-1.13687e-13,-130.11)">
            <path d="M568.993,364.025L449.897,327.755L462.071,296.853L573.714,326.767L574.793,329.507C575.59,331.481 583.88,350.79 584.443,354.247C584.545,354.873 584.514,356.868 583.44,358.462C583.092,358.978 582.53,359.772 581.94,360.15C581.399,360.498 580.842,360.876 580.224,361.089C576.096,362.513 570.313,364.495 568.993,364.025ZM548.14,261.852L563.188,300.048L470.587,275.236L482.761,244.333L548.14,261.852ZM523.251,198.674L538.299,236.87L490.723,224.122L502.897,193.22L523.251,198.674Z" style="fill:white;"/>
        </g>
        <g transform="matrix(1,0,0,1,-2.511,-129.341)">
            <circle cx="514.511" cy="177.788" r="23.788" style="fill:rgb(191,53,53);"/>
        </g>
    </g>
    <g transform="matrix(1,0,0,1,47.2129,-22.2594)">
        <path d="M683.081,594.514C712.401,604.257 734.762,654.48 734.762,714.893C734.762,756.126 724.345,792.613 708.408,814.721C679.089,804.979 656.728,754.756 656.728,694.343C656.728,653.11 667.145,616.623 683.081,594.514Z" style="fill:rgb(125,191,67);"/>
    </g>
    <g transform="matrix(-1,0,0,1,1949.24,-29.5198)">
        <path d="M683.081,594.514C712.401,604.257 734.762,654.48 734.762,714.893C734.762,756.126 724.345,792.613 708.408,814.721C679.089,804.979 656.728,754.756 656.728,694.343C656.728,653.11 667.145,616.623 683.081,594.514Z" style="fill:rgb(125,191,67);"/>
    </g>
    <g transform="matrix(3.60293,-0.0441988,0.0696513,5.67773,-2333.18,-3422.25)">
        <path d="M826.532,741.47C826.532,714.107 802.521,691.924 772.903,691.924C743.284,691.924 719.274,714.107 719.274,741.47L826.532,741.47Z" style="fill:rgb(113,172,60);"/>
    </g>
    <g transform="matrix(3.60293,-0.0441988,0.0696513,5.67773,-1343.22,-3422.25)">
        <path d="M826.532,741.47C826.532,714.107 802.521,691.924 772.903,691.924C743.284,691.924 719.274,714.107 719.274,741.47L826.532,741.47Z" style="fill:rgb(113,172,60);"/>
    </g>
</svg>
