<svg width="32" height="32" viewBox="0 0 32 32" fill="none" xmlns="http://www.w3.org/2000/svg">
<path fill-rule="evenodd" clip-rule="evenodd" d="M9.9979 1.76711C9.9979 1.3436 9.65406 1 9.23079 1H3.48092C1.55966 1 0 2.55966 0 4.48068V27.5125C0 29.4335 1.55966 30.9935 3.48092 30.9935H9.23079C9.65406 30.9935 9.9979 30.6496 9.9979 30.2263V1.76711ZM26.6293 20.7439C25.7861 19.231 23.8732 18.0028 22.3604 18.0028H13.5577C13.0922 18.0028 12.9249 18.3807 13.1843 18.8462L18.4298 28.2586C19.273 29.7717 21.1858 31 22.6987 31H31.5012C31.9667 31 32.1342 30.6221 31.8745 30.1563L26.6293 20.7439ZM26.9963 7.99831C26.9963 4.13587 23.8604 1 19.9977 1H13.8227C13.3682 1 12.9994 1.3688 12.9994 1.82326V14.1734C12.9994 14.6278 13.3682 14.9969 13.8227 14.9969H19.9977C23.8604 14.9969 26.9963 11.861 26.9963 7.99831Z" fill="white"/>
</svg>
