<?xml version="1.0" encoding="UTF-8" standalone="no"?>
<!DOCTYPE svg PUBLIC "-//W3C//DTD SVG 1.1//EN" "http://www.w3.org/Graphics/SVG/1.1/DTD/svg11.dtd">
<svg width="100%" height="100%" viewBox="0 0 1025 1025" version="1.1" xmlns="http://www.w3.org/2000/svg" xmlns:xlink="http://www.w3.org/1999/xlink" xml:space="preserve" xmlns:serif="http://www.serif.com/" style="fill-rule:evenodd;clip-rule:evenodd;">
    <g transform="matrix(0.430011,0,0,0.430011,-11.1814,80.8679)">
        <path d="M1679.59,987.856C1707.71,979.435 1738.18,987.631 1758.3,1009.02C1912.79,1173.37 2183.39,1461.2 2325.76,1612.65L2325.76,1612.66C2344.16,1632.23 2351.12,1659.94 2344.14,1685.89C2337.16,1711.83 2317.25,1732.31 2291.52,1740.02L1581.62,1952.54C1555.88,1960.24 1527.99,1954.07 1507.9,1936.23C1487.82,1918.38 1478.4,1891.41 1483.02,1864.95L1625.45,1048.79C1630.5,1019.87 1651.46,996.277 1679.59,987.856Z" style="fill:none;fill-rule:nonzero;stroke:white;stroke-width:14px;"/>
    </g>
    <g transform="matrix(0.430011,0,0,0.430011,-10.9788,80.8544)">
        <path d="M195.562,1217.68L578.918,996.344C681.356,937.202 812.548,972.354 871.694,1074.8L1093.03,1458.15C1152.17,1560.59 1117.01,1691.78 1014.58,1750.93L631.22,1972.26C528.776,2031.4 397.584,1996.25 338.442,1893.81L117.111,1510.46C57.965,1408.01 93.118,1276.82 195.562,1217.68Z" style="fill:none;fill-rule:nonzero;stroke:white;stroke-width:14px;"/>
    </g>
    <g transform="matrix(0.430011,0,0,0.430011,-10.8699,80.4987)">
        <path d="M1242.8,7.456C1483.41,7.456 1678.46,202.508 1678.46,443.116C1678.46,683.725 1483.41,878.776 1242.8,878.776C1002.19,878.776 807.14,683.725 807.14,443.116C807.14,202.508 1002.19,7.456 1242.8,7.456Z" style="fill:none;fill-rule:nonzero;stroke:white;stroke-width:14px;"/>
    </g>
</svg>
