<svg width="1254" height="120" viewBox="0 0 1254 120" fill="none" xmlns="http://www.w3.org/2000/svg">
<rect y="17" width="226" height="103" rx="8" fill="#020202"/>
<rect x="1" y="18" width="224" height="101" rx="7" stroke="white" stroke-opacity="0.9" stroke-width="2"/>
<path d="M102.923 61.5088V71.209C102.923 72.2549 102.701 73.1914 102.257 74.0186C101.819 74.8457 101.156 75.502 100.268 75.9873C99.3788 76.4658 98.2612 76.7051 96.9145 76.7051C94.9936 76.7051 93.5307 76.2026 92.5258 75.1978C91.5278 74.186 91.0287 72.8428 91.0287 71.168V61.5088H93.4897V70.9526C93.4897 72.2036 93.7836 73.1265 94.3715 73.7212C94.9594 74.3159 95.8378 74.6133 97.0068 74.6133C97.8134 74.6133 98.4697 74.4731 98.9755 74.1929C99.4882 73.9058 99.8642 73.4888 100.103 72.9419C100.35 72.3882 100.473 71.7217 100.473 70.9424V61.5088H102.923ZM114.351 73.2598C114.351 74.0049 114.17 74.6338 113.808 75.1465C113.445 75.6592 112.916 76.0488 112.218 76.3154C111.528 76.5752 110.68 76.7051 109.675 76.7051C108.882 76.7051 108.199 76.647 107.624 76.5308C107.057 76.4214 106.52 76.2505 106.015 76.0181V73.9365C106.555 74.1895 107.16 74.4082 107.83 74.5928C108.506 74.7773 109.145 74.8696 109.747 74.8696C110.54 74.8696 111.111 74.7466 111.459 74.5005C111.808 74.2476 111.982 73.9126 111.982 73.4956C111.982 73.2495 111.911 73.0308 111.767 72.8394C111.63 72.6411 111.371 72.4395 110.988 72.2344C110.612 72.0225 110.058 71.7695 109.327 71.4756C108.609 71.1885 108.004 70.9014 107.512 70.6143C107.02 70.3271 106.647 69.9819 106.394 69.5786C106.141 69.1685 106.015 68.6455 106.015 68.0098C106.015 67.0049 106.411 66.2427 107.204 65.7231C108.004 65.1968 109.06 64.9336 110.373 64.9336C111.07 64.9336 111.726 65.0054 112.341 65.1489C112.963 65.2856 113.572 65.4873 114.166 65.7539L113.408 67.5688C112.895 67.3433 112.379 67.1587 111.859 67.0151C111.347 66.8647 110.824 66.7896 110.291 66.7896C109.668 66.7896 109.193 66.8853 108.865 67.0767C108.544 67.2681 108.383 67.5415 108.383 67.897C108.383 68.1636 108.462 68.3892 108.619 68.5737C108.776 68.7583 109.046 68.9429 109.429 69.1274C109.819 69.312 110.359 69.541 111.049 69.8145C111.726 70.0742 112.311 70.3477 112.803 70.6348C113.302 70.915 113.685 71.2603 113.951 71.6704C114.218 72.0806 114.351 72.6104 114.351 73.2598ZM121.688 64.9336C122.699 64.9336 123.567 65.1421 124.292 65.5591C125.017 65.9761 125.574 66.5674 125.963 67.333C126.353 68.0986 126.548 69.0146 126.548 70.0811V71.373H118.97C118.998 72.4736 119.292 73.3213 119.852 73.916C120.419 74.5107 121.212 74.8081 122.231 74.8081C122.956 74.8081 123.605 74.7397 124.179 74.603C124.76 74.4595 125.358 74.251 125.974 73.9775V75.936C125.406 76.2026 124.829 76.3975 124.241 76.5205C123.653 76.6436 122.949 76.7051 122.128 76.7051C121.014 76.7051 120.033 76.4897 119.186 76.0591C118.345 75.6216 117.685 74.9722 117.207 74.1108C116.735 73.2495 116.499 72.1797 116.499 70.9014C116.499 69.6299 116.714 68.5498 117.145 67.6611C117.576 66.7725 118.181 66.0957 118.96 65.6309C119.739 65.166 120.648 64.9336 121.688 64.9336ZM121.688 66.7485C120.929 66.7485 120.313 66.9946 119.842 67.4868C119.377 67.979 119.104 68.7002 119.021 69.6504H124.189C124.183 69.083 124.087 68.5806 123.902 68.1431C123.725 67.7056 123.451 67.3638 123.082 67.1177C122.72 66.8716 122.255 66.7485 121.688 66.7485ZM135.228 64.9336C135.419 64.9336 135.628 64.9438 135.853 64.9644C136.079 64.9849 136.273 65.0122 136.438 65.0464L136.212 67.3022C136.068 67.2612 135.891 67.2305 135.679 67.21C135.474 67.1895 135.289 67.1792 135.125 67.1792C134.694 67.1792 134.284 67.251 133.895 67.3945C133.505 67.5312 133.16 67.7432 132.859 68.0303C132.558 68.3105 132.322 68.6626 132.151 69.0864C131.981 69.5103 131.895 70.0024 131.895 70.563V76.5H129.475V65.1489H131.362L131.69 67.1484H131.803C132.028 66.7451 132.309 66.376 132.644 66.041C132.979 65.7061 133.361 65.4395 133.792 65.2412C134.23 65.0361 134.708 64.9336 135.228 64.9336Z" fill="white"/>
<rect x="1028" y="17" width="226" height="103" rx="8" fill="#020202"/>
<rect x="1029" y="18" width="224" height="101" rx="7" stroke="white" stroke-opacity="0.9" stroke-width="2"/>
<path d="M1105.25 76.5H1102.81V61.5088H1111.28V63.5801H1105.25V68.2559H1110.89V70.3169H1105.25V76.5ZM1116.66 76.5H1114.22V61.5088H1122.69V63.5801H1116.66V68.2559H1122.3V70.3169H1116.66V76.5ZM1138.21 64.9336C1139.48 64.9336 1140.44 65.2617 1141.08 65.918C1141.73 66.5742 1142.05 67.627 1142.05 69.0762V76.5H1139.64V69.5068C1139.64 68.6455 1139.48 67.9961 1139.14 67.5586C1138.81 67.1211 1138.3 66.9023 1137.61 66.9023C1136.66 66.9023 1135.97 67.21 1135.54 67.8252C1135.13 68.4336 1134.92 69.3188 1134.92 70.481V76.5H1132.51V69.5068C1132.51 68.9326 1132.43 68.4541 1132.28 68.0713C1132.14 67.6816 1131.92 67.3911 1131.62 67.1997C1131.31 67.0015 1130.94 66.9023 1130.48 66.9023C1129.81 66.9023 1129.28 67.0527 1128.89 67.3535C1128.5 67.6543 1128.22 68.0986 1128.05 68.6865C1127.88 69.2676 1127.79 69.9819 1127.79 70.8296V76.5H1125.38V65.1489H1127.26L1127.6 66.6768H1127.73C1127.96 66.2803 1128.25 65.9556 1128.59 65.7026C1128.94 65.4429 1129.33 65.2515 1129.75 65.1284C1130.17 64.9985 1130.61 64.9336 1131.07 64.9336C1131.92 64.9336 1132.63 65.084 1133.21 65.3848C1133.8 65.6787 1134.23 66.1299 1134.52 66.7383H1134.7C1135.06 66.123 1135.55 65.6685 1136.19 65.3745C1136.82 65.0806 1137.5 64.9336 1138.21 64.9336ZM1151.45 64.9336C1152.8 64.9336 1153.88 65.4258 1154.69 66.4102C1155.51 67.3945 1155.92 68.8574 1155.92 70.7988C1155.92 72.084 1155.73 73.1675 1155.35 74.0493C1154.97 74.9243 1154.44 75.5874 1153.76 76.0386C1153.08 76.4829 1152.29 76.7051 1151.39 76.7051C1150.82 76.7051 1150.32 76.6299 1149.89 76.4795C1149.47 76.3291 1149.11 76.1343 1148.81 75.895C1148.5 75.6489 1148.25 75.3823 1148.05 75.0952H1147.9C1147.94 75.3687 1147.97 75.6729 1148 76.0078C1148.03 76.3359 1148.05 76.6367 1148.05 76.9102V81.5347H1145.63V65.1489H1147.6L1147.93 66.7178H1148.05C1148.26 66.3965 1148.52 66.0991 1148.82 65.8257C1149.12 65.5522 1149.49 65.3369 1149.92 65.1797C1150.36 65.0156 1150.87 64.9336 1151.45 64.9336ZM1150.81 66.9023C1150.14 66.9023 1149.61 67.0356 1149.21 67.3022C1148.81 67.562 1148.52 67.9551 1148.33 68.4814C1148.16 69.0078 1148.06 69.6675 1148.05 70.4604V70.7988C1148.05 71.6396 1148.13 72.354 1148.3 72.9419C1148.48 73.5229 1148.77 73.9673 1149.17 74.2749C1149.58 74.5757 1150.14 74.7261 1150.84 74.7261C1151.42 74.7261 1151.91 74.5654 1152.29 74.2441C1152.68 73.9229 1152.97 73.4648 1153.16 72.8701C1153.35 72.2754 1153.45 71.5747 1153.45 70.7681C1153.45 69.5444 1153.23 68.5942 1152.79 67.9175C1152.36 67.2407 1151.7 66.9023 1150.81 66.9023ZM1163.44 64.9336C1164.45 64.9336 1165.32 65.1421 1166.05 65.5591C1166.77 65.9761 1167.33 66.5674 1167.72 67.333C1168.11 68.0986 1168.3 69.0146 1168.3 70.0811V71.373H1160.73C1160.75 72.4736 1161.05 73.3213 1161.61 73.916C1162.17 74.5107 1162.97 74.8081 1163.99 74.8081C1164.71 74.8081 1165.36 74.7397 1165.93 74.603C1166.52 74.4595 1167.11 74.251 1167.73 73.9775V75.936C1167.16 76.2026 1166.58 76.3975 1166 76.5205C1165.41 76.6436 1164.7 76.7051 1163.88 76.7051C1162.77 76.7051 1161.79 76.4897 1160.94 76.0591C1160.1 75.6216 1159.44 74.9722 1158.96 74.1108C1158.49 73.2495 1158.25 72.1797 1158.25 70.9014C1158.25 69.6299 1158.47 68.5498 1158.9 67.6611C1159.33 66.7725 1159.94 66.0957 1160.72 65.6309C1161.49 65.166 1162.4 64.9336 1163.44 64.9336ZM1163.44 66.7485C1162.68 66.7485 1162.07 66.9946 1161.6 67.4868C1161.13 67.979 1160.86 68.7002 1160.78 69.6504H1165.94C1165.94 69.083 1165.84 68.5806 1165.66 68.1431C1165.48 67.7056 1165.21 67.3638 1164.84 67.1177C1164.48 66.8716 1164.01 66.7485 1163.44 66.7485ZM1174.47 81.5449C1172.93 81.5449 1171.75 81.2681 1170.93 80.7144C1170.11 80.1606 1169.7 79.3848 1169.7 78.3867C1169.7 77.6895 1169.92 77.0981 1170.36 76.6128C1170.8 76.1343 1171.42 75.8027 1172.24 75.6182C1171.93 75.4814 1171.66 75.2695 1171.44 74.9824C1171.22 74.6885 1171.11 74.3638 1171.11 74.0083C1171.11 73.5845 1171.23 73.2222 1171.47 72.9214C1171.71 72.6206 1172.06 72.3301 1172.54 72.0498C1171.95 71.7969 1171.47 71.3867 1171.11 70.8193C1170.75 70.2451 1170.57 69.5718 1170.57 68.7993C1170.57 67.979 1170.75 67.2817 1171.1 66.7075C1171.45 66.1265 1171.96 65.6855 1172.63 65.3848C1173.3 65.0771 1174.11 64.9233 1175.06 64.9233C1175.26 64.9233 1175.48 64.937 1175.72 64.9644C1175.97 64.9849 1176.19 65.0122 1176.4 65.0464C1176.61 65.0737 1176.77 65.1045 1176.88 65.1387H1180.81V66.4819L1178.88 66.8408C1179.06 67.1006 1179.21 67.3979 1179.32 67.7329C1179.43 68.061 1179.48 68.4199 1179.48 68.8096C1179.48 69.9854 1179.08 70.9116 1178.26 71.5884C1177.46 72.2583 1176.34 72.5933 1174.92 72.5933C1174.58 72.5796 1174.25 72.5522 1173.93 72.5112C1173.68 72.6616 1173.49 72.8291 1173.36 73.0137C1173.23 73.1914 1173.17 73.3931 1173.17 73.6187C1173.17 73.8032 1173.23 73.9536 1173.36 74.0698C1173.49 74.1792 1173.68 74.2612 1173.94 74.3159C1174.2 74.3706 1174.51 74.3979 1174.88 74.3979H1176.84C1178.08 74.3979 1179.03 74.6611 1179.69 75.1875C1180.35 75.7139 1180.67 76.4863 1180.67 77.5049C1180.67 78.7969 1180.14 79.7915 1179.07 80.4888C1178.01 81.1929 1176.47 81.5449 1174.47 81.5449ZM1174.56 79.853C1175.4 79.853 1176.11 79.771 1176.69 79.6069C1177.26 79.4429 1177.69 79.207 1177.99 78.8994C1178.28 78.5986 1178.43 78.2397 1178.43 77.8228C1178.43 77.4536 1178.34 77.1699 1178.15 76.9717C1177.97 76.7734 1177.69 76.6367 1177.32 76.5615C1176.95 76.4863 1176.49 76.4487 1175.95 76.4487H1174.16C1173.72 76.4487 1173.33 76.5171 1172.98 76.6538C1172.64 76.7974 1172.38 77.0024 1172.18 77.269C1172 77.5356 1171.91 77.8569 1171.91 78.2329C1171.91 78.7524 1172.14 79.1523 1172.59 79.4326C1173.06 79.7129 1173.72 79.853 1174.56 79.853ZM1175.03 71.0142C1175.74 71.0142 1176.26 70.8228 1176.6 70.4399C1176.95 70.0503 1177.12 69.5034 1177.12 68.7993C1177.12 68.0337 1176.94 67.4595 1176.58 67.0767C1176.23 66.6938 1175.71 66.5024 1175.02 66.5024C1174.35 66.5024 1173.83 66.6973 1173.48 67.0869C1173.13 67.4766 1172.95 68.0542 1172.95 68.8198C1172.95 69.5103 1173.13 70.0503 1173.48 70.4399C1173.83 70.8228 1174.35 71.0142 1175.03 71.0142Z" fill="white"/>
<rect width="106" height="18" transform="translate(1087.5 8)" fill="#020202"/>
<path d="M1099.75 10.7143C1099.44 10.7143 1099.19 10.9714 1099.19 11.2857V13.5714C1099.19 13.8857 1099.44 14.1429 1099.75 14.1429H1113.25C1113.56 14.1429 1113.81 13.8857 1113.81 13.5714V11.2857C1113.81 10.9714 1113.56 10.7143 1113.25 10.7143H1099.75ZM1097.5 11.2857C1097.5 10.025 1098.51 9 1099.75 9H1113.25C1114.49 9 1115.5 10.025 1115.5 11.2857V13.5714C1115.5 14.8321 1114.49 15.8571 1113.25 15.8571H1099.75C1098.51 15.8571 1097.5 14.8321 1097.5 13.5714V11.2857ZM1099.75 19.8571C1099.44 19.8571 1099.19 20.1143 1099.19 20.4286V22.7143C1099.19 23.0286 1099.44 23.2857 1099.75 23.2857H1113.25C1113.56 23.2857 1113.81 23.0286 1113.81 22.7143V20.4286C1113.81 20.1143 1113.56 19.8571 1113.25 19.8571H1099.75ZM1097.5 20.4286C1097.5 19.1679 1098.51 18.1429 1099.75 18.1429H1113.25C1114.49 18.1429 1115.5 19.1679 1115.5 20.4286V22.7143C1115.5 23.975 1114.49 25 1113.25 25H1099.75C1098.51 25 1097.5 23.975 1097.5 22.7143V20.4286ZM1111.28 21.5714C1111.28 21.3441 1111.37 21.1261 1111.53 20.9653C1111.69 20.8046 1111.9 20.7143 1112.12 20.7143C1112.35 20.7143 1112.56 20.8046 1112.72 20.9653C1112.88 21.1261 1112.97 21.3441 1112.97 21.5714C1112.97 21.7988 1112.88 22.0168 1112.72 22.1775C1112.56 22.3383 1112.35 22.4286 1112.12 22.4286C1111.9 22.4286 1111.69 22.3383 1111.53 22.1775C1111.37 22.0168 1111.28 21.7988 1111.28 21.5714ZM1112.12 11.5714C1112.35 11.5714 1112.56 11.6617 1112.72 11.8225C1112.88 11.9832 1112.97 12.2012 1112.97 12.4286C1112.97 12.6559 1112.88 12.8739 1112.72 13.0347C1112.56 13.1954 1112.35 13.2857 1112.12 13.2857C1111.9 13.2857 1111.69 13.1954 1111.53 13.0347C1111.37 12.8739 1111.28 12.6559 1111.28 12.4286C1111.28 12.2012 1111.37 11.9832 1111.53 11.8225C1111.69 11.6617 1111.9 11.5714 1112.12 11.5714ZM1109.03 21.5714C1109.03 21.3441 1109.12 21.1261 1109.28 20.9653C1109.44 20.8046 1109.65 20.7143 1109.88 20.7143C1110.1 20.7143 1110.31 20.8046 1110.47 20.9653C1110.63 21.1261 1110.72 21.3441 1110.72 21.5714C1110.72 21.7988 1110.63 22.0168 1110.47 22.1775C1110.31 22.3383 1110.1 22.4286 1109.88 22.4286C1109.65 22.4286 1109.44 22.3383 1109.28 22.1775C1109.12 22.0168 1109.03 21.7988 1109.03 21.5714ZM1109.88 11.5714C1110.1 11.5714 1110.31 11.6617 1110.47 11.8225C1110.63 11.9832 1110.72 12.2012 1110.72 12.4286C1110.72 12.6559 1110.63 12.8739 1110.47 13.0347C1110.31 13.1954 1110.1 13.2857 1109.88 13.2857C1109.65 13.2857 1109.44 13.1954 1109.28 13.0347C1109.12 12.8739 1109.03 12.6559 1109.03 12.4286C1109.03 12.2012 1109.12 11.9832 1109.28 11.8225C1109.44 11.6617 1109.65 11.5714 1109.88 11.5714Z" fill="#FF5C00"/>
<path d="M1126.11 13.8813C1125.67 13.8813 1125.27 13.9618 1124.92 14.1226C1124.57 14.2834 1124.28 14.5161 1124.04 14.8208C1123.8 15.1213 1123.61 15.4873 1123.49 15.9189C1123.36 16.3464 1123.3 16.8288 1123.3 17.3662C1123.3 18.0856 1123.4 18.7056 1123.6 19.2261C1123.8 19.7424 1124.11 20.1401 1124.53 20.4194C1124.94 20.6945 1125.47 20.832 1126.1 20.832C1126.5 20.832 1126.88 20.7939 1127.25 20.7178C1127.62 20.6416 1128.01 20.5379 1128.41 20.4067V21.7017C1128.03 21.8498 1127.65 21.9577 1127.26 22.0254C1126.88 22.0931 1126.43 22.127 1125.93 22.127C1124.98 22.127 1124.2 21.9302 1123.57 21.5366C1122.95 21.1431 1122.48 20.5887 1122.17 19.8735C1121.87 19.1584 1121.72 18.3205 1121.72 17.3599C1121.72 16.6574 1121.81 16.0142 1122.01 15.4302C1122.2 14.8462 1122.49 14.3426 1122.86 13.9194C1123.23 13.492 1123.69 13.1641 1124.24 12.9355C1124.79 12.7028 1125.41 12.5864 1126.12 12.5864C1126.59 12.5864 1127.04 12.6393 1127.49 12.7451C1127.94 12.8467 1128.36 12.9927 1128.75 13.1831L1128.22 14.4399C1127.89 14.2876 1127.56 14.1564 1127.21 14.0464C1126.85 13.9364 1126.49 13.8813 1126.11 13.8813ZM1136.47 18.4707C1136.47 19.0547 1136.39 19.5731 1136.24 20.0259C1136.09 20.4787 1135.86 20.8617 1135.57 21.1748C1135.28 21.4837 1134.93 21.7207 1134.52 21.8857C1134.11 22.0465 1133.64 22.127 1133.13 22.127C1132.65 22.127 1132.2 22.0465 1131.8 21.8857C1131.4 21.7207 1131.05 21.4837 1130.75 21.1748C1130.46 20.8617 1130.24 20.4787 1130.08 20.0259C1129.91 19.5731 1129.83 19.0547 1129.83 18.4707C1129.83 17.6963 1129.97 17.0404 1130.23 16.5029C1130.5 15.9613 1130.89 15.5487 1131.39 15.2651C1131.89 14.9816 1132.48 14.8398 1133.17 14.8398C1133.82 14.8398 1134.39 14.9816 1134.89 15.2651C1135.38 15.5487 1135.77 15.9613 1136.05 16.5029C1136.33 17.0446 1136.47 17.7005 1136.47 18.4707ZM1131.37 18.4707C1131.37 18.9827 1131.43 19.4207 1131.55 19.7847C1131.68 20.1486 1131.88 20.4279 1132.14 20.6226C1132.4 20.813 1132.74 20.9082 1133.15 20.9082C1133.57 20.9082 1133.91 20.813 1134.17 20.6226C1134.43 20.4279 1134.62 20.1486 1134.75 19.7847C1134.87 19.4207 1134.93 18.9827 1134.93 18.4707C1134.93 17.9587 1134.87 17.5249 1134.75 17.1694C1134.62 16.8097 1134.43 16.5368 1134.17 16.3506C1133.91 16.1602 1133.57 16.0649 1133.15 16.0649C1132.53 16.0649 1132.08 16.2723 1131.8 16.687C1131.51 17.1017 1131.37 17.6963 1131.37 18.4707ZM1141.84 14.8398C1142.64 14.8398 1143.25 15.0451 1143.69 15.4556C1144.14 15.8618 1144.36 16.5156 1144.36 17.417V22H1142.87V17.6963C1142.87 17.1504 1142.75 16.742 1142.53 16.4712C1142.31 16.1961 1141.96 16.0586 1141.49 16.0586C1140.81 16.0586 1140.33 16.2681 1140.07 16.687C1139.8 17.106 1139.67 17.7132 1139.67 18.5088V22H1138.18V14.9731H1139.34L1139.55 15.9253H1139.63C1139.79 15.6799 1139.98 15.4788 1140.2 15.3223C1140.43 15.1615 1140.68 15.0409 1140.96 14.9604C1141.24 14.88 1141.54 14.8398 1141.84 14.8398ZM1149.06 20.9209C1149.26 20.9209 1149.45 20.904 1149.64 20.8701C1149.83 20.832 1150 20.7876 1150.16 20.7368V21.8667C1149.99 21.9386 1149.78 22 1149.52 22.0508C1149.26 22.1016 1148.98 22.127 1148.7 22.127C1148.3 22.127 1147.94 22.0614 1147.63 21.9302C1147.31 21.7948 1147.06 21.5641 1146.87 21.2383C1146.68 20.9124 1146.59 20.4618 1146.59 19.8862V16.1094H1145.63V15.4429L1146.66 14.916L1147.15 13.4116H1148.09V14.9731H1150.1V16.1094H1148.09V19.8672C1148.09 20.2227 1148.18 20.4871 1148.36 20.6606C1148.53 20.8341 1148.77 20.9209 1149.06 20.9209ZM1154.34 14.8398C1155.23 14.8398 1155.9 15.0366 1156.35 15.4302C1156.81 15.8237 1157.04 16.4373 1157.04 17.271V22H1155.98L1155.69 21.0034H1155.64C1155.44 21.2573 1155.24 21.4668 1155.03 21.6318C1154.82 21.7969 1154.57 21.9196 1154.29 22C1154.02 22.0846 1153.68 22.127 1153.28 22.127C1152.86 22.127 1152.49 22.0508 1152.16 21.8984C1151.83 21.7419 1151.57 21.5049 1151.38 21.1875C1151.19 20.8701 1151.09 20.4681 1151.09 19.9814C1151.09 19.2578 1151.36 18.714 1151.9 18.3501C1152.44 17.9862 1153.26 17.7852 1154.35 17.7471L1155.57 17.7026V17.3345C1155.57 16.8478 1155.45 16.5008 1155.22 16.2935C1155 16.0861 1154.68 15.9824 1154.27 15.9824C1153.92 15.9824 1153.58 16.0332 1153.25 16.1348C1152.92 16.2363 1152.6 16.3612 1152.29 16.5093L1151.8 15.4556C1152.15 15.2736 1152.54 15.1255 1152.97 15.0112C1153.41 14.897 1153.87 14.8398 1154.34 14.8398ZM1155.56 18.6421L1154.65 18.6738C1153.91 18.6992 1153.39 18.8262 1153.09 19.0547C1152.78 19.2832 1152.63 19.5964 1152.63 19.9941C1152.63 20.3411 1152.74 20.5951 1152.95 20.7559C1153.15 20.9124 1153.43 20.9907 1153.76 20.9907C1154.28 20.9907 1154.71 20.8447 1155.05 20.5527C1155.39 20.2565 1155.56 19.8228 1155.56 19.2515V18.6421ZM1160.62 14.9731V22H1159.13V14.9731H1160.62ZM1159.88 12.2817C1160.11 12.2817 1160.31 12.3431 1160.47 12.4658C1160.64 12.5885 1160.73 12.8001 1160.73 13.1006C1160.73 13.3968 1160.64 13.6084 1160.47 13.7354C1160.31 13.8581 1160.11 13.9194 1159.88 13.9194C1159.65 13.9194 1159.45 13.8581 1159.28 13.7354C1159.12 13.6084 1159.04 13.3968 1159.04 13.1006C1159.04 12.8001 1159.12 12.5885 1159.28 12.4658C1159.45 12.3431 1159.65 12.2817 1159.88 12.2817ZM1166.42 14.8398C1167.21 14.8398 1167.83 15.0451 1168.27 15.4556C1168.71 15.8618 1168.94 16.5156 1168.94 17.417V22H1167.44V17.6963C1167.44 17.1504 1167.33 16.742 1167.11 16.4712C1166.88 16.1961 1166.54 16.0586 1166.07 16.0586C1165.39 16.0586 1164.91 16.2681 1164.64 16.687C1164.38 17.106 1164.25 17.7132 1164.25 18.5088V22H1162.76V14.9731H1163.92L1164.13 15.9253H1164.21C1164.37 15.6799 1164.55 15.4788 1164.78 15.3223C1165.01 15.1615 1165.26 15.0409 1165.54 14.9604C1165.82 14.88 1166.12 14.8398 1166.42 14.8398ZM1173.82 14.8398C1174.45 14.8398 1174.99 14.9689 1175.44 15.2271C1175.88 15.4852 1176.23 15.8512 1176.47 16.3252C1176.71 16.7992 1176.83 17.3662 1176.83 18.0264V18.8262H1172.14C1172.16 19.5075 1172.34 20.0322 1172.69 20.4004C1173.04 20.7686 1173.53 20.9526 1174.16 20.9526C1174.61 20.9526 1175.01 20.9103 1175.37 20.8257C1175.73 20.7368 1176.1 20.6077 1176.48 20.4385V21.6509C1176.13 21.8159 1175.77 21.9365 1175.4 22.0127C1175.04 22.0889 1174.6 22.127 1174.1 22.127C1173.41 22.127 1172.8 21.9937 1172.27 21.7271C1171.75 21.4562 1171.35 21.0542 1171.05 20.521C1170.76 19.9878 1170.61 19.3255 1170.61 18.5342C1170.61 17.7471 1170.74 17.0785 1171.01 16.5283C1171.28 15.9782 1171.65 15.5592 1172.13 15.2715C1172.62 14.9837 1173.18 14.8398 1173.82 14.8398ZM1173.82 15.9634C1173.35 15.9634 1172.97 16.1157 1172.68 16.4204C1172.39 16.7251 1172.22 17.1715 1172.17 17.7598H1175.37C1175.37 17.4085 1175.31 17.0975 1175.19 16.8267C1175.08 16.5558 1174.92 16.3442 1174.69 16.1919C1174.46 16.0396 1174.17 15.9634 1173.82 15.9634ZM1182.08 14.8398C1182.19 14.8398 1182.32 14.8462 1182.46 14.8589C1182.6 14.8716 1182.72 14.8885 1182.82 14.9097L1182.68 16.3062C1182.6 16.2808 1182.49 16.2617 1182.35 16.249C1182.23 16.2363 1182.11 16.23 1182.01 16.23C1181.75 16.23 1181.49 16.2744 1181.25 16.3633C1181.01 16.4479 1180.8 16.5791 1180.61 16.7568C1180.42 16.9303 1180.28 17.1483 1180.17 17.4106C1180.07 17.673 1180.01 17.9777 1180.01 18.3247V22H1178.51V14.9731H1179.68L1179.89 16.2109H1179.96C1180.09 15.9613 1180.27 15.7327 1180.48 15.5254C1180.68 15.318 1180.92 15.153 1181.19 15.0303C1181.46 14.9033 1181.75 14.8398 1182.08 14.8398Z" fill="#FF5C00"/>
<path d="M497.707 73.7071C498.098 73.3166 498.098 72.6834 497.707 72.2929L491.343 65.9289C490.953 65.5384 490.319 65.5384 489.929 65.9289C489.538 66.3195 489.538 66.9526 489.929 67.3431L495.586 73L489.929 78.6569C489.538 79.0474 489.538 79.6805 489.929 80.0711C490.319 80.4616 490.953 80.4616 491.343 80.0711L497.707 73.7071ZM240 73V74H497V73V72H240V73Z" fill="white"/>
<path d="M1011.71 73.7071C1012.1 73.3166 1012.1 72.6834 1011.71 72.2929L1005.34 65.9289C1004.95 65.5384 1004.32 65.5384 1003.93 65.9289C1003.54 66.3195 1003.54 66.9526 1003.93 67.3431L1009.59 73L1003.93 78.6569C1003.54 79.0474 1003.54 79.6805 1003.93 80.0711C1004.32 80.4616 1004.95 80.4616 1005.34 80.0711L1011.71 73.7071ZM751 73V74H1011V73V72H751V73Z" fill="white"/>
<rect width="143" height="40" transform="translate(800 53)" fill="#020202"/>
<path d="M814.323 66.0088C815.615 66.0088 816.681 66.166 817.522 66.4805C818.369 66.7949 818.998 67.2734 819.409 67.916C819.826 68.5586 820.034 69.3755 820.034 70.3667C820.034 71.105 819.897 71.7339 819.624 72.2534C819.35 72.7729 818.992 73.2036 818.547 73.5454C818.103 73.8872 817.628 74.1606 817.122 74.3657L821.377 81H818.598L814.979 74.9912H812.569V81H810.108V66.0088H814.323ZM814.159 68.0596H812.569V72.9609H814.271C815.413 72.9609 816.24 72.749 816.753 72.3252C817.272 71.9014 817.532 71.2759 817.532 70.4487C817.532 69.5806 817.255 68.9653 816.701 68.603C816.155 68.2407 815.307 68.0596 814.159 68.0596ZM833.379 69.6489V81H831.482L831.154 79.4722H831.021C830.782 79.8618 830.477 80.1865 830.108 80.4463C829.739 80.6992 829.329 80.8872 828.878 81.0103C828.427 81.1401 827.952 81.2051 827.453 81.2051C826.598 81.2051 825.867 81.0615 825.258 80.7744C824.657 80.4805 824.195 80.0293 823.874 79.4209C823.553 78.8125 823.392 78.0264 823.392 77.0625V69.6489H825.812V76.6113C825.812 77.4932 825.99 78.1528 826.345 78.5903C826.707 79.0278 827.268 79.2466 828.027 79.2466C828.758 79.2466 829.339 79.0962 829.77 78.7954C830.201 78.4946 830.505 78.0503 830.682 77.4624C830.867 76.8745 830.959 76.1533 830.959 75.2988V69.6489H833.379ZM842.961 69.4336C844.24 69.4336 845.234 69.7651 845.945 70.4282C846.663 71.0845 847.022 72.1406 847.022 73.5967V81H844.612V74.0479C844.612 73.166 844.431 72.5063 844.069 72.0688C843.706 71.6245 843.146 71.4023 842.387 71.4023C841.287 71.4023 840.521 71.7407 840.09 72.4175C839.666 73.0942 839.454 74.0752 839.454 75.3604V81H837.045V69.6489H838.921L839.26 71.187H839.393C839.639 70.7905 839.943 70.4658 840.306 70.2129C840.675 69.9531 841.085 69.7583 841.536 69.6284C841.994 69.4985 842.469 69.4336 842.961 69.4336ZM858.957 81H856.517V66.0088H864.986V68.0801H858.957V72.7559H864.597V74.8169H858.957V81ZM870.364 81H867.924V66.0088H876.394V68.0801H870.364V72.7559H876.004V74.8169H870.364V81ZM891.913 69.4336C893.184 69.4336 894.141 69.7617 894.784 70.418C895.433 71.0742 895.758 72.127 895.758 73.5762V81H893.348V74.0068C893.348 73.1455 893.181 72.4961 892.846 72.0586C892.511 71.6211 892.002 71.4023 891.318 71.4023C890.361 71.4023 889.67 71.71 889.247 72.3252C888.83 72.9336 888.621 73.8188 888.621 74.981V81H886.211V74.0068C886.211 73.4326 886.136 72.9541 885.986 72.5713C885.842 72.1816 885.62 71.8911 885.319 71.6997C885.019 71.5015 884.639 71.4023 884.181 71.4023C883.518 71.4023 882.988 71.5527 882.592 71.8535C882.202 72.1543 881.922 72.5986 881.751 73.1865C881.58 73.7676 881.495 74.4819 881.495 75.3296V81H879.085V69.6489H880.961L881.3 71.1768H881.433C881.666 70.7803 881.953 70.4556 882.294 70.2026C882.643 69.9429 883.029 69.7515 883.453 69.6284C883.877 69.4985 884.318 69.4336 884.776 69.4336C885.624 69.4336 886.338 69.584 886.919 69.8848C887.5 70.1787 887.934 70.6299 888.221 71.2383H888.406C888.761 70.623 889.257 70.1685 889.893 69.8745C890.528 69.5806 891.202 69.4336 891.913 69.4336ZM905.155 69.4336C906.502 69.4336 907.582 69.9258 908.396 70.9102C909.216 71.8945 909.626 73.3574 909.626 75.2988C909.626 76.584 909.435 77.6675 909.052 78.5493C908.676 79.4243 908.146 80.0874 907.463 80.5386C906.786 80.9829 905.996 81.2051 905.094 81.2051C904.52 81.2051 904.021 81.1299 903.597 80.9795C903.173 80.8291 902.811 80.6343 902.51 80.395C902.209 80.1489 901.956 79.8823 901.751 79.5952H901.608C901.642 79.8687 901.672 80.1729 901.7 80.5078C901.734 80.8359 901.751 81.1367 901.751 81.4102V86.0347H899.331V69.6489H901.3L901.638 71.2178H901.751C901.963 70.8965 902.219 70.5991 902.52 70.3257C902.828 70.0522 903.197 69.8369 903.628 69.6797C904.065 69.5156 904.574 69.4336 905.155 69.4336ZM904.509 71.4023C903.846 71.4023 903.313 71.5356 902.91 71.8022C902.513 72.062 902.223 72.4551 902.038 72.9814C901.86 73.5078 901.765 74.1675 901.751 74.9604V75.2988C901.751 76.1396 901.837 76.854 902.007 77.4419C902.185 78.0229 902.476 78.4673 902.879 78.7749C903.289 79.0757 903.843 79.2261 904.54 79.2261C905.128 79.2261 905.613 79.0654 905.996 78.7441C906.386 78.4229 906.676 77.9648 906.868 77.3701C907.059 76.7754 907.155 76.0747 907.155 75.2681C907.155 74.0444 906.936 73.0942 906.499 72.4175C906.068 71.7407 905.405 71.4023 904.509 71.4023ZM917.147 69.4336C918.159 69.4336 919.027 69.6421 919.752 70.0591C920.476 70.4761 921.033 71.0674 921.423 71.833C921.813 72.5986 922.007 73.5146 922.007 74.5811V75.873H914.43C914.457 76.9736 914.751 77.8213 915.312 78.416C915.879 79.0107 916.672 79.3081 917.691 79.3081C918.415 79.3081 919.065 79.2397 919.639 79.103C920.22 78.9595 920.818 78.751 921.433 78.4775V80.436C920.866 80.7026 920.288 80.8975 919.7 81.0205C919.112 81.1436 918.408 81.2051 917.588 81.2051C916.474 81.2051 915.493 80.9897 914.645 80.5591C913.804 80.1216 913.145 79.4722 912.666 78.6108C912.194 77.7495 911.959 76.6797 911.959 75.4014C911.959 74.1299 912.174 73.0498 912.605 72.1611C913.035 71.2725 913.64 70.5957 914.42 70.1309C915.199 69.666 916.108 69.4336 917.147 69.4336ZM917.147 71.2485C916.388 71.2485 915.773 71.4946 915.301 71.9868C914.837 72.479 914.563 73.2002 914.481 74.1504H919.649C919.642 73.583 919.547 73.0806 919.362 72.6431C919.184 72.2056 918.911 71.8638 918.542 71.6177C918.179 71.3716 917.714 71.2485 917.147 71.2485ZM928.175 86.0449C926.637 86.0449 925.458 85.7681 924.637 85.2144C923.817 84.6606 923.407 83.8848 923.407 82.8867C923.407 82.1895 923.626 81.5981 924.063 81.1128C924.501 80.6343 925.126 80.3027 925.94 80.1182C925.632 79.9814 925.365 79.7695 925.14 79.4824C924.921 79.1885 924.812 78.8638 924.812 78.5083C924.812 78.0845 924.931 77.7222 925.171 77.4214C925.41 77.1206 925.769 76.8301 926.247 76.5498C925.653 76.2969 925.174 75.8867 924.812 75.3193C924.456 74.7451 924.278 74.0718 924.278 73.2993C924.278 72.479 924.453 71.7817 924.801 71.2075C925.15 70.6265 925.659 70.1855 926.329 69.8848C926.999 69.5771 927.809 69.4233 928.759 69.4233C928.965 69.4233 929.187 69.437 929.426 69.4644C929.672 69.4849 929.898 69.5122 930.103 69.5464C930.315 69.5737 930.475 69.6045 930.585 69.6387H934.512V70.9819L932.584 71.3408C932.769 71.6006 932.916 71.8979 933.025 72.2329C933.134 72.561 933.189 72.9199 933.189 73.3096C933.189 74.4854 932.782 75.4116 931.969 76.0884C931.162 76.7583 930.048 77.0933 928.626 77.0933C928.284 77.0796 927.953 77.0522 927.632 77.0112C927.385 77.1616 927.197 77.3291 927.068 77.5137C926.938 77.6914 926.873 77.8931 926.873 78.1187C926.873 78.3032 926.938 78.4536 927.068 78.5698C927.197 78.6792 927.389 78.7612 927.642 78.8159C927.902 78.8706 928.216 78.8979 928.585 78.8979H930.544C931.788 78.8979 932.738 79.1611 933.394 79.6875C934.05 80.2139 934.379 80.9863 934.379 82.0049C934.379 83.2969 933.845 84.2915 932.779 84.9888C931.713 85.6929 930.178 86.0449 928.175 86.0449ZM928.267 84.353C929.108 84.353 929.816 84.271 930.39 84.1069C930.964 83.9429 931.398 83.707 931.692 83.3994C931.986 83.0986 932.133 82.7397 932.133 82.3228C932.133 81.9536 932.041 81.6699 931.856 81.4717C931.672 81.2734 931.395 81.1367 931.026 81.0615C930.656 80.9863 930.198 80.9487 929.652 80.9487H927.867C927.423 80.9487 927.03 81.0171 926.688 81.1538C926.346 81.2974 926.08 81.5024 925.888 81.769C925.704 82.0356 925.612 82.3569 925.612 82.7329C925.612 83.2524 925.841 83.6523 926.299 83.9326C926.763 84.2129 927.42 84.353 928.267 84.353ZM928.739 75.5142C929.443 75.5142 929.966 75.3228 930.308 74.9399C930.65 74.5503 930.82 74.0034 930.82 73.2993C930.82 72.5337 930.643 71.9595 930.287 71.5767C929.939 71.1938 929.419 71.0024 928.729 71.0024C928.052 71.0024 927.536 71.1973 927.18 71.5869C926.832 71.9766 926.657 72.5542 926.657 73.3198C926.657 74.0103 926.832 74.5503 927.18 74.9399C927.536 75.3228 928.055 75.5142 928.739 75.5142Z" fill="white"/>
<rect width="159" height="40" transform="translate(289 53)" fill="#020202"/>
<path d="M310.846 66.0088V75.709C310.846 76.7549 310.624 77.6914 310.179 78.5186C309.742 79.3457 309.079 80.002 308.19 80.4873C307.302 80.9658 306.184 81.2051 304.837 81.2051C302.916 81.2051 301.453 80.7026 300.449 79.6978C299.45 78.686 298.951 77.3428 298.951 75.668V66.0088H301.412V75.4526C301.412 76.7036 301.706 77.6265 302.294 78.2212C302.882 78.8159 303.761 79.1133 304.929 79.1133C305.736 79.1133 306.392 78.9731 306.898 78.6929C307.411 78.4058 307.787 77.9888 308.026 77.4419C308.272 76.8882 308.395 76.2217 308.395 75.4424V66.0088H310.846ZM320.469 69.4336C321.816 69.4336 322.896 69.9258 323.709 70.9102C324.53 71.8945 324.94 73.3574 324.94 75.2988C324.94 76.584 324.748 77.6675 324.366 78.5493C323.99 79.4243 323.46 80.0874 322.776 80.5386C322.099 80.9829 321.31 81.2051 320.408 81.2051C319.833 81.2051 319.334 81.1299 318.91 80.9795C318.487 80.8291 318.124 80.6343 317.824 80.395C317.523 80.1489 317.27 79.8823 317.065 79.5952H316.921C316.955 79.8687 316.986 80.1729 317.013 80.5078C317.048 80.8359 317.065 81.1367 317.065 81.4102V86.0347H314.645V69.6489H316.614L316.952 71.2178H317.065C317.277 70.8965 317.533 70.5991 317.834 70.3257C318.141 70.0522 318.511 69.8369 318.941 69.6797C319.379 69.5156 319.888 69.4336 320.469 69.4336ZM319.823 71.4023C319.16 71.4023 318.627 71.5356 318.223 71.8022C317.827 72.062 317.536 72.4551 317.352 72.9814C317.174 73.5078 317.078 74.1675 317.065 74.9604V75.2988C317.065 76.1396 317.15 76.854 317.321 77.4419C317.499 78.0229 317.789 78.4673 318.193 78.7749C318.603 79.0757 319.157 79.2261 319.854 79.2261C320.442 79.2261 320.927 79.0654 321.31 78.7441C321.7 78.4229 321.99 77.9648 322.181 77.3701C322.373 76.7754 322.469 76.0747 322.469 75.2681C322.469 74.0444 322.25 73.0942 321.812 72.4175C321.382 71.7407 320.719 71.4023 319.823 71.4023ZM330.359 81H327.939V65.0449H330.359V81ZM344.063 75.2988C344.063 76.2422 343.94 77.0796 343.694 77.811C343.448 78.5425 343.089 79.1611 342.617 79.667C342.145 80.166 341.578 80.5488 340.915 80.8154C340.252 81.0752 339.503 81.2051 338.669 81.2051C337.89 81.2051 337.176 81.0752 336.526 80.8154C335.877 80.5488 335.313 80.166 334.834 79.667C334.363 79.1611 333.997 78.5425 333.737 77.811C333.477 77.0796 333.348 76.2422 333.348 75.2988C333.348 74.0479 333.563 72.9883 333.994 72.1201C334.431 71.2451 335.053 70.5786 335.86 70.1206C336.666 69.6626 337.627 69.4336 338.741 69.4336C339.787 69.4336 340.71 69.6626 341.51 70.1206C342.309 70.5786 342.935 71.2451 343.386 72.1201C343.837 72.9951 344.063 74.0547 344.063 75.2988ZM335.829 75.2988C335.829 76.126 335.928 76.8335 336.126 77.4214C336.331 78.0093 336.646 78.4604 337.07 78.7749C337.494 79.0825 338.04 79.2363 338.71 79.2363C339.38 79.2363 339.927 79.0825 340.351 78.7749C340.775 78.4604 341.086 78.0093 341.284 77.4214C341.482 76.8335 341.581 76.126 341.581 75.2988C341.581 74.4717 341.482 73.771 341.284 73.1968C341.086 72.6157 340.775 72.1748 340.351 71.874C339.927 71.5664 339.377 71.4126 338.7 71.4126C337.702 71.4126 336.974 71.7476 336.516 72.4175C336.058 73.0874 335.829 74.0479 335.829 75.2988ZM351.492 69.4336C352.927 69.4336 354.011 69.7515 354.742 70.3872C355.48 71.0229 355.85 72.0142 355.85 73.3608V81H354.137L353.676 79.3901H353.594C353.272 79.8003 352.941 80.1387 352.599 80.4053C352.257 80.6719 351.861 80.8701 351.41 81C350.965 81.1367 350.422 81.2051 349.779 81.2051C349.102 81.2051 348.498 81.082 347.964 80.8359C347.431 80.583 347.011 80.2002 346.703 79.6875C346.395 79.1748 346.242 78.5254 346.242 77.7393C346.242 76.5703 346.676 75.6919 347.544 75.104C348.419 74.5161 349.738 74.1914 351.502 74.1299L353.471 74.0581V73.4634C353.471 72.6772 353.286 72.1167 352.917 71.7817C352.555 71.4468 352.042 71.2793 351.379 71.2793C350.811 71.2793 350.261 71.3613 349.728 71.5254C349.195 71.6895 348.675 71.8911 348.169 72.1304L347.39 70.4282C347.944 70.1343 348.573 69.895 349.277 69.7104C349.988 69.5259 350.726 69.4336 351.492 69.4336ZM353.46 75.5757L351.994 75.627C350.791 75.668 349.947 75.873 349.461 76.2422C348.976 76.6113 348.733 77.1172 348.733 77.7598C348.733 78.3203 348.901 78.7305 349.236 78.9902C349.571 79.2432 350.012 79.3696 350.559 79.3696C351.393 79.3696 352.083 79.1338 352.63 78.6621C353.184 78.1836 353.46 77.4829 353.46 76.5601V75.5757ZM363.248 81.2051C361.894 81.2051 360.807 80.7129 359.987 79.7285C359.173 78.7373 358.767 77.2778 358.767 75.3501C358.767 73.4019 359.18 71.9287 360.007 70.9307C360.841 69.9326 361.938 69.4336 363.299 69.4336C363.873 69.4336 364.375 69.5122 364.806 69.6694C365.237 69.8198 365.606 70.0249 365.914 70.2847C366.228 70.5444 366.495 70.835 366.713 71.1562H366.826C366.792 70.9443 366.751 70.6401 366.703 70.2437C366.662 69.8403 366.642 69.4678 366.642 69.126V65.0449H369.062V81H367.175L366.744 79.4517H366.642C366.437 79.7798 366.177 80.0771 365.862 80.3438C365.555 80.6035 365.186 80.812 364.755 80.9692C364.331 81.1265 363.829 81.2051 363.248 81.2051ZM363.924 79.2466C364.957 79.2466 365.685 78.9492 366.108 78.3545C366.532 77.7598 366.751 76.8677 366.765 75.6782V75.3604C366.765 74.0889 366.56 73.1147 366.149 72.438C365.739 71.7544 364.991 71.4126 363.904 71.4126C363.036 71.4126 362.373 71.7646 361.915 72.4688C361.463 73.166 361.238 74.1401 361.238 75.3911C361.238 76.6421 361.463 77.5991 361.915 78.2622C362.373 78.9185 363.042 79.2466 363.924 79.2466ZM378.638 81V66.0088H381.099V81H378.638ZM397.849 69.4336C399.12 69.4336 400.077 69.7617 400.72 70.418C401.369 71.0742 401.694 72.127 401.694 73.5762V81H399.284V74.0068C399.284 73.1455 399.117 72.4961 398.782 72.0586C398.447 71.6211 397.938 71.4023 397.254 71.4023C396.297 71.4023 395.607 71.71 395.183 72.3252C394.766 72.9336 394.557 73.8188 394.557 74.981V81H392.148V74.0068C392.148 73.4326 392.072 72.9541 391.922 72.5713C391.778 72.1816 391.556 71.8911 391.255 71.6997C390.955 71.5015 390.575 71.4023 390.117 71.4023C389.454 71.4023 388.924 71.5527 388.528 71.8535C388.138 72.1543 387.858 72.5986 387.687 73.1865C387.516 73.7676 387.431 74.4819 387.431 75.3296V81H385.021V69.6489H386.898L387.236 71.1768H387.369C387.602 70.7803 387.889 70.4556 388.231 70.2026C388.579 69.9429 388.965 69.7515 389.389 69.6284C389.813 69.4985 390.254 69.4336 390.712 69.4336C391.56 69.4336 392.274 69.584 392.855 69.8848C393.436 70.1787 393.87 70.6299 394.157 71.2383H394.342C394.697 70.623 395.193 70.1685 395.829 69.8745C396.464 69.5806 397.138 69.4336 397.849 69.4336ZM409.717 69.4336C411.153 69.4336 412.236 69.7515 412.968 70.3872C413.706 71.0229 414.075 72.0142 414.075 73.3608V81H412.363L411.902 79.3901H411.819C411.498 79.8003 411.167 80.1387 410.825 80.4053C410.483 80.6719 410.087 80.8701 409.635 81C409.191 81.1367 408.648 81.2051 408.005 81.2051C407.328 81.2051 406.723 81.082 406.19 80.8359C405.657 80.583 405.236 80.2002 404.929 79.6875C404.621 79.1748 404.467 78.5254 404.467 77.7393C404.467 76.5703 404.902 75.6919 405.77 75.104C406.645 74.5161 407.964 74.1914 409.728 74.1299L411.696 74.0581V73.4634C411.696 72.6772 411.512 72.1167 411.143 71.7817C410.78 71.4468 410.268 71.2793 409.605 71.2793C409.037 71.2793 408.487 71.3613 407.954 71.5254C407.421 71.6895 406.901 71.8911 406.395 72.1304L405.616 70.4282C406.17 70.1343 406.798 69.895 407.503 69.7104C408.214 69.5259 408.952 69.4336 409.717 69.4336ZM411.686 75.5757L410.22 75.627C409.017 75.668 408.173 75.873 407.687 76.2422C407.202 76.6113 406.959 77.1172 406.959 77.7598C406.959 78.3203 407.127 78.7305 407.462 78.9902C407.797 79.2432 408.237 79.3696 408.784 79.3696C409.618 79.3696 410.309 79.1338 410.856 78.6621C411.409 78.1836 411.686 77.4829 411.686 76.5601V75.5757ZM420.899 86.0449C419.361 86.0449 418.182 85.7681 417.362 85.2144C416.541 84.6606 416.131 83.8848 416.131 82.8867C416.131 82.1895 416.35 81.5981 416.787 81.1128C417.225 80.6343 417.85 80.3027 418.664 80.1182C418.356 79.9814 418.09 79.7695 417.864 79.4824C417.645 79.1885 417.536 78.8638 417.536 78.5083C417.536 78.0845 417.655 77.7222 417.895 77.4214C418.134 77.1206 418.493 76.8301 418.971 76.5498C418.377 76.2969 417.898 75.8867 417.536 75.3193C417.18 74.7451 417.003 74.0718 417.003 73.2993C417.003 72.479 417.177 71.7817 417.526 71.2075C417.874 70.6265 418.383 70.1855 419.053 69.8848C419.723 69.5771 420.533 69.4233 421.484 69.4233C421.689 69.4233 421.911 69.437 422.15 69.4644C422.396 69.4849 422.622 69.5122 422.827 69.5464C423.039 69.5737 423.199 69.6045 423.309 69.6387H427.236V70.9819L425.308 71.3408C425.493 71.6006 425.64 71.8979 425.749 72.2329C425.859 72.561 425.913 72.9199 425.913 73.3096C425.913 74.4854 425.507 75.4116 424.693 76.0884C423.886 76.7583 422.772 77.0933 421.35 77.0933C421.008 77.0796 420.677 77.0522 420.356 77.0112C420.11 77.1616 419.922 77.3291 419.792 77.5137C419.662 77.6914 419.597 77.8931 419.597 78.1187C419.597 78.3032 419.662 78.4536 419.792 78.5698C419.922 78.6792 420.113 78.7612 420.366 78.8159C420.626 78.8706 420.94 78.8979 421.309 78.8979H423.268C424.512 78.8979 425.462 79.1611 426.118 79.6875C426.775 80.2139 427.103 80.9863 427.103 82.0049C427.103 83.2969 426.57 84.2915 425.503 84.9888C424.437 85.6929 422.902 86.0449 420.899 86.0449ZM420.991 84.353C421.832 84.353 422.54 84.271 423.114 84.1069C423.688 83.9429 424.122 83.707 424.416 83.3994C424.71 83.0986 424.857 82.7397 424.857 82.3228C424.857 81.9536 424.765 81.6699 424.58 81.4717C424.396 81.2734 424.119 81.1367 423.75 81.0615C423.381 80.9863 422.923 80.9487 422.376 80.9487H420.591C420.147 80.9487 419.754 81.0171 419.412 81.1538C419.07 81.2974 418.804 81.5024 418.612 81.769C418.428 82.0356 418.336 82.3569 418.336 82.7329C418.336 83.2524 418.565 83.6523 419.023 83.9326C419.487 84.2129 420.144 84.353 420.991 84.353ZM421.463 75.5142C422.167 75.5142 422.69 75.3228 423.032 74.9399C423.374 74.5503 423.545 74.0034 423.545 73.2993C423.545 72.5337 423.367 71.9595 423.011 71.5767C422.663 71.1938 422.143 71.0024 421.453 71.0024C420.776 71.0024 420.26 71.1973 419.904 71.5869C419.556 71.9766 419.382 72.5542 419.382 73.3198C419.382 74.0103 419.556 74.5503 419.904 74.9399C420.26 75.3228 420.779 75.5142 421.463 75.5142ZM434.039 69.4336C435.051 69.4336 435.919 69.6421 436.644 70.0591C437.368 70.4761 437.926 71.0674 438.315 71.833C438.705 72.5986 438.9 73.5146 438.9 74.5811V75.873H431.322C431.349 76.9736 431.643 77.8213 432.204 78.416C432.771 79.0107 433.564 79.3081 434.583 79.3081C435.307 79.3081 435.957 79.2397 436.531 79.103C437.112 78.9595 437.71 78.751 438.325 78.4775V80.436C437.758 80.7026 437.18 80.8975 436.592 81.0205C436.005 81.1436 435.301 81.2051 434.48 81.2051C433.366 81.2051 432.385 80.9897 431.537 80.5591C430.697 80.1216 430.037 79.4722 429.558 78.6108C429.087 77.7495 428.851 76.6797 428.851 75.4014C428.851 74.1299 429.066 73.0498 429.497 72.1611C429.927 71.2725 430.532 70.5957 431.312 70.1309C432.091 69.666 433 69.4336 434.039 69.4336ZM434.039 71.2485C433.28 71.2485 432.665 71.4946 432.194 71.9868C431.729 72.479 431.455 73.2002 431.373 74.1504H436.541C436.534 73.583 436.439 73.0806 436.254 72.6431C436.076 72.2056 435.803 71.8638 435.434 71.6177C435.072 71.3716 434.607 71.2485 434.039 71.2485Z" fill="white"/>
<rect x="511" y="17" width="226" height="103" rx="8" fill="#020202"/>
<rect x="512" y="18" width="224" height="101" rx="7" stroke="white" stroke-opacity="0.9" stroke-width="2"/>
<path d="M558.984 68.3481L562.542 61.5088H565.198L560.214 70.6758V76.5H557.763V70.7681L552.77 61.5088H555.446L558.984 68.3481ZM577.179 70.7988C577.179 71.7422 577.056 72.5796 576.81 73.311C576.564 74.0425 576.205 74.6611 575.733 75.167C575.262 75.666 574.694 76.0488 574.031 76.3154C573.368 76.5752 572.619 76.7051 571.785 76.7051C571.006 76.7051 570.292 76.5752 569.642 76.3154C568.993 76.0488 568.429 75.666 567.951 75.167C567.479 74.6611 567.113 74.0425 566.853 73.311C566.594 72.5796 566.464 71.7422 566.464 70.7988C566.464 69.5479 566.679 68.4883 567.11 67.6201C567.547 66.7451 568.169 66.0786 568.976 65.6206C569.783 65.1626 570.743 64.9336 571.857 64.9336C572.903 64.9336 573.826 65.1626 574.626 65.6206C575.426 66.0786 576.051 66.7451 576.502 67.6201C576.953 68.4951 577.179 69.5547 577.179 70.7988ZM568.945 70.7988C568.945 71.626 569.044 72.3335 569.243 72.9214C569.448 73.5093 569.762 73.9604 570.186 74.2749C570.61 74.5825 571.157 74.7363 571.826 74.7363C572.496 74.7363 573.043 74.5825 573.467 74.2749C573.891 73.9604 574.202 73.5093 574.4 72.9214C574.598 72.3335 574.698 71.626 574.698 70.7988C574.698 69.9717 574.598 69.271 574.4 68.6968C574.202 68.1157 573.891 67.6748 573.467 67.374C573.043 67.0664 572.493 66.9126 571.816 66.9126C570.818 66.9126 570.09 67.2476 569.632 67.9175C569.174 68.5874 568.945 69.5479 568.945 70.7988ZM590.053 65.1489V76.5H588.156L587.827 74.9722H587.694C587.455 75.3618 587.151 75.6865 586.782 75.9463C586.412 76.1992 586.002 76.3872 585.551 76.5103C585.1 76.6401 584.625 76.7051 584.126 76.7051C583.271 76.7051 582.54 76.5615 581.932 76.2744C581.33 75.9805 580.869 75.5293 580.547 74.9209C580.226 74.3125 580.065 73.5264 580.065 72.5625V65.1489H582.485V72.1113C582.485 72.9932 582.663 73.6528 583.018 74.0903C583.381 74.5278 583.941 74.7466 584.7 74.7466C585.432 74.7466 586.013 74.5962 586.443 74.2954C586.874 73.9946 587.178 73.5503 587.356 72.9624C587.54 72.3745 587.633 71.6533 587.633 70.7988V65.1489H590.053ZM599.471 64.9336C599.662 64.9336 599.871 64.9438 600.096 64.9644C600.322 64.9849 600.517 65.0122 600.681 65.0464L600.455 67.3022C600.311 67.2612 600.134 67.2305 599.922 67.21C599.717 67.1895 599.532 67.1792 599.368 67.1792C598.937 67.1792 598.527 67.251 598.138 67.3945C597.748 67.5312 597.403 67.7432 597.102 68.0303C596.801 68.3105 596.565 68.6626 596.394 69.0864C596.224 69.5103 596.138 70.0024 596.138 70.563V76.5H593.718V65.1489H595.605L595.933 67.1484H596.046C596.271 66.7451 596.552 66.376 596.887 66.041C597.222 65.7061 597.604 65.4395 598.035 65.2412C598.473 65.0361 598.951 64.9336 599.471 64.9336ZM608.904 61.5088H613.364C615.299 61.5088 616.758 61.7891 617.743 62.3496C618.727 62.9102 619.219 63.8774 619.219 65.2515C619.219 65.8257 619.117 66.3452 618.912 66.8101C618.713 67.2681 618.423 67.6475 618.04 67.9482C617.657 68.2422 617.186 68.4404 616.625 68.543V68.6455C617.206 68.748 617.722 68.9292 618.173 69.189C618.631 69.4487 618.99 69.8213 619.25 70.3066C619.517 70.792 619.65 71.4209 619.65 72.1934C619.65 73.1094 619.431 73.8887 618.994 74.5312C618.563 75.1738 617.944 75.6626 617.138 75.9976C616.338 76.3325 615.388 76.5 614.287 76.5H608.904V61.5088ZM611.365 67.6919H613.723C614.837 67.6919 615.61 67.5107 616.041 67.1484C616.471 66.7861 616.687 66.2563 616.687 65.5591C616.687 64.8481 616.43 64.3354 615.917 64.021C615.412 63.7065 614.605 63.5493 613.498 63.5493H611.365V67.6919ZM611.365 69.6812V74.439H613.959C615.107 74.439 615.914 74.2168 616.379 73.7725C616.844 73.3281 617.076 72.7266 617.076 71.9678C617.076 71.5029 616.97 71.0996 616.758 70.7578C616.553 70.416 616.215 70.1528 615.743 69.9683C615.271 69.7769 614.636 69.6812 613.836 69.6812H611.365ZM627.161 64.9336C628.596 64.9336 629.68 65.2515 630.411 65.8872C631.149 66.5229 631.519 67.5142 631.519 68.8608V76.5H629.806L629.345 74.8901H629.263C628.941 75.3003 628.61 75.6387 628.268 75.9053C627.926 76.1719 627.53 76.3701 627.079 76.5C626.634 76.6367 626.091 76.7051 625.448 76.7051C624.772 76.7051 624.167 76.582 623.633 76.3359C623.1 76.083 622.68 75.7002 622.372 75.1875C622.064 74.6748 621.911 74.0254 621.911 73.2393C621.911 72.0703 622.345 71.1919 623.213 70.604C624.088 70.0161 625.407 69.6914 627.171 69.6299L629.14 69.5581V68.9634C629.14 68.1772 628.955 67.6167 628.586 67.2817C628.224 66.9468 627.711 66.7793 627.048 66.7793C626.48 66.7793 625.93 66.8613 625.397 67.0254C624.864 67.1895 624.344 67.3911 623.838 67.6304L623.059 65.9282C623.613 65.6343 624.242 65.395 624.946 65.2104C625.657 65.0259 626.395 64.9336 627.161 64.9336ZM629.129 71.0757L627.663 71.127C626.46 71.168 625.616 71.373 625.13 71.7422C624.645 72.1113 624.402 72.6172 624.402 73.2598C624.402 73.8203 624.57 74.2305 624.905 74.4902C625.24 74.7432 625.681 74.8696 626.228 74.8696C627.062 74.8696 627.752 74.6338 628.299 74.1621C628.853 73.6836 629.129 72.9829 629.129 72.0601V71.0757ZM639.675 76.7051C638.602 76.7051 637.672 76.4966 636.886 76.0796C636.1 75.6626 635.495 75.0234 635.071 74.1621C634.648 73.3008 634.436 72.207 634.436 70.8809C634.436 69.5 634.668 68.3721 635.133 67.4971C635.598 66.6221 636.24 65.9761 637.061 65.5591C637.888 65.1421 638.835 64.9336 639.901 64.9336C640.578 64.9336 641.19 65.002 641.736 65.1387C642.29 65.2686 642.758 65.4292 643.141 65.6206L642.423 67.5483C642.006 67.3774 641.579 67.2339 641.142 67.1177C640.704 67.0015 640.284 66.9434 639.88 66.9434C639.217 66.9434 638.664 67.0903 638.219 67.3843C637.782 67.6782 637.454 68.1157 637.235 68.6968C637.023 69.2778 636.917 69.999 636.917 70.8604C636.917 71.6943 637.026 72.3984 637.245 72.9727C637.464 73.54 637.789 73.9707 638.219 74.2646C638.65 74.5518 639.18 74.6953 639.809 74.6953C640.431 74.6953 640.988 74.6201 641.48 74.4697C641.972 74.3193 642.437 74.1245 642.875 73.8853V75.9771C642.444 76.2231 641.982 76.4043 641.49 76.5205C640.998 76.6436 640.393 76.7051 639.675 76.7051ZM648.16 60.5449V68.2559C648.16 68.6045 648.147 68.9873 648.119 69.4043C648.092 69.8145 648.065 70.2007 648.037 70.563H648.088C648.266 70.3237 648.478 70.0435 648.724 69.7222C648.977 69.4009 649.216 69.1206 649.442 68.8813L652.908 65.1489H655.676L651.134 70.0298L655.974 76.5H653.144L649.514 71.5166L648.16 72.6753V76.5H645.751V60.5449H648.16ZM662.521 64.9336C663.532 64.9336 664.401 65.1421 665.125 65.5591C665.85 65.9761 666.407 66.5674 666.797 67.333C667.186 68.0986 667.381 69.0146 667.381 70.0811V71.373H659.803C659.831 72.4736 660.125 73.3213 660.685 73.916C661.253 74.5107 662.046 74.8081 663.064 74.8081C663.789 74.8081 664.438 74.7397 665.012 74.603C665.593 74.4595 666.192 74.251 666.807 73.9775V75.936C666.239 76.2026 665.662 76.3975 665.074 76.5205C664.486 76.6436 663.782 76.7051 662.962 76.7051C661.847 76.7051 660.866 76.4897 660.019 76.0591C659.178 75.6216 658.518 74.9722 658.04 74.1108C657.568 73.2495 657.332 72.1797 657.332 70.9014C657.332 69.6299 657.548 68.5498 657.978 67.6611C658.409 66.7725 659.014 66.0957 659.793 65.6309C660.572 65.166 661.482 64.9336 662.521 64.9336ZM662.521 66.7485C661.762 66.7485 661.147 66.9946 660.675 67.4868C660.21 67.979 659.937 68.7002 659.855 69.6504H665.023C665.016 69.083 664.92 68.5806 664.735 68.1431C664.558 67.7056 664.284 67.3638 663.915 67.1177C663.553 66.8716 663.088 66.7485 662.521 66.7485ZM676.225 64.9336C677.503 64.9336 678.498 65.2651 679.209 65.9282C679.926 66.5845 680.285 67.6406 680.285 69.0967V76.5H677.876V69.5479C677.876 68.666 677.695 68.0063 677.332 67.5688C676.97 67.1245 676.409 66.9023 675.651 66.9023C674.55 66.9023 673.784 67.2407 673.354 67.9175C672.93 68.5942 672.718 69.5752 672.718 70.8604V76.5H670.308V65.1489H672.185L672.523 66.687H672.656C672.903 66.2905 673.207 65.9658 673.569 65.7129C673.938 65.4531 674.348 65.2583 674.799 65.1284C675.258 64.9985 675.733 64.9336 676.225 64.9336ZM687.683 76.7051C686.33 76.7051 685.243 76.2129 684.423 75.2285C683.609 74.2373 683.202 72.7778 683.202 70.8501C683.202 68.9019 683.616 67.4287 684.443 66.4307C685.277 65.4326 686.374 64.9336 687.735 64.9336C688.309 64.9336 688.811 65.0122 689.242 65.1694C689.673 65.3198 690.042 65.5249 690.349 65.7847C690.664 66.0444 690.93 66.335 691.149 66.6562H691.262C691.228 66.4443 691.187 66.1401 691.139 65.7437C691.098 65.3403 691.077 64.9678 691.077 64.626V60.5449H693.497V76.5H691.611L691.18 74.9517H691.077C690.872 75.2798 690.613 75.5771 690.298 75.8438C689.99 76.1035 689.621 76.312 689.191 76.4692C688.767 76.6265 688.264 76.7051 687.683 76.7051ZM688.36 74.7466C689.392 74.7466 690.12 74.4492 690.544 73.8545C690.968 73.2598 691.187 72.3677 691.2 71.1782V70.8604C691.2 69.5889 690.995 68.6147 690.585 67.938C690.175 67.2544 689.426 66.9126 688.34 66.9126C687.471 66.9126 686.808 67.2646 686.35 67.9688C685.899 68.666 685.674 69.6401 685.674 70.8911C685.674 72.1421 685.899 73.0991 686.35 73.7622C686.808 74.4185 687.478 74.7466 688.36 74.7466Z" fill="white"/>
<rect width="98" height="18" transform="translate(574.5 8)" fill="#020202"/>
<path d="M586.526 13.0624C586.526 11.9234 587.634 11 589.001 11H590.126C590.5 11 590.801 11.2508 590.801 11.5625C590.801 11.8742 590.5 12.125 590.126 12.125H589.001C588.38 12.125 587.876 12.5445 587.876 13.0624V15.4999H589.226C589.6 15.4999 589.901 15.7507 589.901 16.0624C589.901 16.3741 589.6 16.6249 589.226 16.6249H587.876V20.1568C587.876 21.2068 586.929 22.0904 585.674 22.2075L585.25 22.2474C584.878 22.2825 584.547 22.0599 584.504 21.7505C584.462 21.4412 584.729 21.1646 585.101 21.1294L585.525 21.0896C586.096 21.0357 586.526 20.6349 586.526 20.1568V16.6249H585.177C584.802 16.6249 584.502 16.3741 584.502 16.0624C584.502 15.7507 584.802 15.4999 585.177 15.4999H586.526V13.0624ZM593.397 14.8624C592.612 15.9007 592.151 17.1522 592.151 18.4998C592.151 19.8474 592.612 21.099 593.397 22.1372C593.596 22.3997 593.501 22.7466 593.186 22.913C592.871 23.0794 592.455 22.9997 592.255 22.7372C591.335 21.5208 590.801 20.0631 590.801 18.4998C590.801 16.9366 591.335 15.4788 592.255 14.2624C592.455 13.9999 592.871 13.9202 593.186 14.0866C593.501 14.253 593.596 14.5999 593.397 14.8624ZM599.904 14.8624C599.705 14.5999 599.8 14.253 600.115 14.0866C600.43 13.9202 600.846 13.9999 601.046 14.2624C601.966 15.4788 602.5 16.9366 602.5 18.4998C602.5 20.0631 601.966 21.5208 601.046 22.7372C600.846 22.9997 600.43 23.0794 600.115 22.913C599.8 22.7466 599.705 22.3997 599.904 22.1372C600.689 21.099 601.15 19.8474 601.15 18.4998C601.15 17.1522 600.689 15.9007 599.904 14.8624ZM595.554 16.7889L596.651 17.703L597.747 16.7889C598.012 16.5686 598.439 16.5686 598.701 16.7889C598.962 17.0092 598.965 17.3655 598.701 17.5834L597.604 18.4975L598.701 19.4115C598.965 19.6318 598.965 19.9881 598.701 20.206C598.436 20.424 598.009 20.4263 597.747 20.206L596.651 19.292L595.554 20.206C595.289 20.4263 594.862 20.4263 594.6 20.206C594.339 19.9857 594.336 19.6295 594.6 19.4115L595.697 18.4975L594.6 17.5834C594.336 17.3631 594.336 17.0069 594.6 16.7889C594.865 16.571 595.292 16.5686 595.554 16.7889Z" fill="#FF5C00"/>
<path d="M610.282 22H608.771V12.7197H614.015V14.002H610.282V16.8965H613.773V18.1724H610.282V22ZM621.676 14.9731V22H620.502L620.299 21.0542H620.216C620.068 21.2954 619.88 21.4964 619.651 21.6572C619.423 21.8138 619.169 21.9302 618.89 22.0063C618.61 22.0868 618.316 22.127 618.007 22.127C617.478 22.127 617.026 22.0381 616.649 21.8604C616.277 21.6784 615.991 21.3991 615.792 21.0225C615.593 20.6458 615.494 20.1592 615.494 19.5625V14.9731H616.992V19.2832C616.992 19.8291 617.102 20.2375 617.322 20.5083C617.546 20.7791 617.893 20.9146 618.363 20.9146C618.816 20.9146 619.175 20.8215 619.442 20.6353C619.708 20.4491 619.897 20.174 620.007 19.8101C620.121 19.4461 620.178 18.9997 620.178 18.4707V14.9731H621.676ZM627.478 14.8398C628.269 14.8398 628.885 15.0451 629.325 15.4556C629.77 15.8618 629.992 16.5156 629.992 17.417V22H628.5V17.6963C628.5 17.1504 628.388 16.742 628.164 16.4712C627.939 16.1961 627.592 16.0586 627.123 16.0586C626.441 16.0586 625.967 16.2681 625.701 16.687C625.438 17.106 625.307 17.7132 625.307 18.5088V22H623.815V14.9731H624.977L625.187 15.9253H625.269C625.421 15.6799 625.61 15.4788 625.834 15.3223C626.062 15.1615 626.316 15.0409 626.596 14.9604C626.879 14.88 627.173 14.8398 627.478 14.8398ZM634.911 22.127C634.247 22.127 633.671 21.9979 633.185 21.7397C632.698 21.4816 632.323 21.0859 632.061 20.5527C631.799 20.0195 631.667 19.3424 631.667 18.5215C631.667 17.6667 631.811 16.9684 632.099 16.4268C632.387 15.8851 632.785 15.4852 633.292 15.2271C633.805 14.9689 634.391 14.8398 635.051 14.8398C635.47 14.8398 635.848 14.8822 636.187 14.9668C636.53 15.0472 636.82 15.1466 637.057 15.2651L636.612 16.4585C636.354 16.3527 636.09 16.2638 635.819 16.1919C635.548 16.12 635.288 16.084 635.038 16.084C634.628 16.084 634.285 16.175 634.01 16.3569C633.739 16.5389 633.536 16.8097 633.4 17.1694C633.269 17.5291 633.204 17.9756 633.204 18.5088C633.204 19.0251 633.271 19.4609 633.407 19.8164C633.542 20.1676 633.743 20.4342 634.01 20.6162C634.276 20.7939 634.604 20.8828 634.994 20.8828C635.379 20.8828 635.724 20.8363 636.028 20.7432C636.333 20.6501 636.621 20.5295 636.892 20.3813V21.6763C636.625 21.8286 636.339 21.9408 636.035 22.0127C635.73 22.0889 635.355 22.127 634.911 22.127ZM641.157 20.9209C641.352 20.9209 641.544 20.904 641.735 20.8701C641.925 20.832 642.099 20.7876 642.255 20.7368V21.8667C642.09 21.9386 641.877 22 641.614 22.0508C641.352 22.1016 641.079 22.127 640.795 22.127C640.398 22.127 640.04 22.0614 639.723 21.9302C639.405 21.7948 639.153 21.5641 638.967 21.2383C638.781 20.9124 638.688 20.4618 638.688 19.8862V16.1094H637.729V15.4429L638.758 14.916L639.247 13.4116H640.186V14.9731H642.198V16.1094H640.186V19.8672C640.186 20.2227 640.275 20.4871 640.453 20.6606C640.63 20.8341 640.865 20.9209 641.157 20.9209ZM645.175 14.9731V22H643.684V14.9731H645.175ZM644.439 12.2817C644.667 12.2817 644.864 12.3431 645.029 12.4658C645.199 12.5885 645.283 12.8001 645.283 13.1006C645.283 13.3968 645.199 13.6084 645.029 13.7354C644.864 13.8581 644.667 13.9194 644.439 13.9194C644.202 13.9194 644.001 13.8581 643.836 13.7354C643.675 13.6084 643.595 13.3968 643.595 13.1006C643.595 12.8001 643.675 12.5885 643.836 12.4658C644.001 12.3431 644.202 12.2817 644.439 12.2817ZM653.535 18.4707C653.535 19.0547 653.459 19.5731 653.307 20.0259C653.154 20.4787 652.932 20.8617 652.64 21.1748C652.348 21.4837 651.997 21.7207 651.586 21.8857C651.176 22.0465 650.713 22.127 650.196 22.127C649.714 22.127 649.272 22.0465 648.87 21.8857C648.468 21.7207 648.118 21.4837 647.822 21.1748C647.53 20.8617 647.304 20.4787 647.143 20.0259C646.982 19.5731 646.902 19.0547 646.902 18.4707C646.902 17.6963 647.035 17.0404 647.302 16.5029C647.573 15.9613 647.958 15.5487 648.457 15.2651C648.956 14.9816 649.551 14.8398 650.241 14.8398C650.888 14.8398 651.459 14.9816 651.955 15.2651C652.45 15.5487 652.837 15.9613 653.116 16.5029C653.396 17.0446 653.535 17.7005 653.535 18.4707ZM648.438 18.4707C648.438 18.9827 648.499 19.4207 648.622 19.7847C648.749 20.1486 648.944 20.4279 649.206 20.6226C649.468 20.813 649.807 20.9082 650.222 20.9082C650.636 20.9082 650.975 20.813 651.237 20.6226C651.5 20.4279 651.692 20.1486 651.815 19.7847C651.938 19.4207 651.999 18.9827 651.999 18.4707C651.999 17.9587 651.938 17.5249 651.815 17.1694C651.692 16.8097 651.5 16.5368 651.237 16.3506C650.975 16.1602 650.634 16.0649 650.215 16.0649C649.597 16.0649 649.147 16.2723 648.863 16.687C648.58 17.1017 648.438 17.6963 648.438 18.4707ZM658.912 14.8398C659.703 14.8398 660.319 15.0451 660.759 15.4556C661.203 15.8618 661.425 16.5156 661.425 17.417V22H659.934V17.6963C659.934 17.1504 659.821 16.742 659.597 16.4712C659.373 16.1961 659.026 16.0586 658.556 16.0586C657.875 16.0586 657.401 16.2681 657.134 16.687C656.872 17.106 656.741 17.7132 656.741 18.5088V22H655.249V14.9731H656.411L656.62 15.9253H656.703C656.855 15.6799 657.043 15.4788 657.268 15.3223C657.496 15.1615 657.75 15.0409 658.029 14.9604C658.313 14.88 658.607 14.8398 658.912 14.8398Z" fill="#FF5C00"/>
</svg>
