<svg width="836" height="454" viewBox="0 0 836 454" fill="none" xmlns="http://www.w3.org/2000/svg">
<rect width="836" height="454" fill="#020202"/>
<rect x="38" y="74" width="759" height="160" rx="7" stroke="white" stroke-width="2" stroke-dasharray="12 12"/>
<path d="M52.4751 43.4336C52.6665 43.4336 52.875 43.4438 53.1006 43.4644C53.3262 43.4849 53.521 43.5122 53.6851 43.5464L53.4595 45.8022C53.3159 45.7612 53.1382 45.7305 52.9263 45.71C52.7212 45.6895 52.5366 45.6792 52.3726 45.6792C51.9419 45.6792 51.5317 45.751 51.1421 45.8945C50.7524 46.0312 50.4072 46.2432 50.1064 46.5303C49.8057 46.8105 49.5698 47.1626 49.3989 47.5864C49.228 48.0103 49.1426 48.5024 49.1426 49.063V55H46.7227V43.6489H48.6094L48.9375 45.6484H49.0503C49.2759 45.2451 49.5562 44.876 49.8911 44.541C50.2261 44.2061 50.6089 43.9395 51.0396 43.7412C51.4771 43.5361 51.9556 43.4336 52.4751 43.4336ZM58.4068 43.6489V55H55.9971V43.6489H58.4068ZM57.2173 39.3013C57.5865 39.3013 57.9043 39.4004 58.1709 39.5986C58.4444 39.7969 58.5811 40.1387 58.5811 40.624C58.5811 41.1025 58.4444 41.4443 58.1709 41.6494C57.9043 41.8477 57.5865 41.9468 57.2173 41.9468C56.8345 41.9468 56.5098 41.8477 56.2432 41.6494C55.9834 41.4443 55.8536 41.1025 55.8536 40.624C55.8536 40.1387 55.9834 39.7969 56.2432 39.5986C56.5098 39.4004 56.8345 39.3013 57.2173 39.3013ZM64.6666 55L60.3497 43.6489H62.9029L65.2408 50.314C65.3912 50.7378 65.5279 51.1958 65.651 51.688C65.774 52.1802 65.8595 52.5938 65.9073 52.9287H65.9893C66.0372 52.5801 66.1295 52.1631 66.2662 51.6777C66.4029 51.1855 66.543 50.731 66.6866 50.314L69.0245 43.6489H71.5675L67.2506 55H64.6666ZM78.0221 43.4336C79.0338 43.4336 79.902 43.6421 80.6266 44.0591C81.3512 44.4761 81.9083 45.0674 82.298 45.833C82.6876 46.5986 82.8824 47.5146 82.8824 48.5811V49.873H75.3048C75.3321 50.9736 75.6261 51.8213 76.1866 52.416C76.754 53.0107 77.547 53.3081 78.5655 53.3081C79.2902 53.3081 79.9396 53.2397 80.5138 53.103C81.0948 52.9595 81.693 52.751 82.3082 52.4775V54.436C81.7408 54.7026 81.1632 54.8975 80.5753 55.0205C79.9874 55.1436 79.2833 55.2051 78.463 55.2051C77.3487 55.2051 76.3678 54.9897 75.5201 54.5591C74.6793 54.1216 74.0196 53.4722 73.5411 52.6108C73.0695 51.7495 72.8336 50.6797 72.8336 49.4014C72.8336 48.1299 73.0489 47.0498 73.4796 46.1611C73.9103 45.2725 74.5153 44.5957 75.2945 44.1309C76.0738 43.666 76.983 43.4336 78.0221 43.4336ZM78.0221 45.2485C77.2633 45.2485 76.6481 45.4946 76.1764 45.9868C75.7115 46.479 75.4381 47.2002 75.3561 48.1504H80.524C80.5172 47.583 80.4215 47.0806 80.2369 46.6431C80.0592 46.2056 79.7858 45.8638 79.4166 45.6177C79.0543 45.3716 78.5895 45.2485 78.0221 45.2485ZM90.0343 53.2568C90.3488 53.2568 90.6598 53.2295 90.9674 53.1748C91.2751 53.1133 91.5553 53.0415 91.8083 52.9595V54.7847C91.5417 54.9009 91.1964 55 90.7726 55.082C90.3488 55.1641 89.9079 55.2051 89.4499 55.2051C88.8073 55.2051 88.2296 55.0991 87.717 54.8872C87.2043 54.6685 86.7975 54.2959 86.4967 53.7695C86.196 53.2432 86.0456 52.5151 86.0456 51.5854V45.4844H84.4972V44.4077L86.1584 43.5566L86.9479 41.1265H88.4655V43.6489H91.716V45.4844H88.4655V51.5547C88.4655 52.1289 88.609 52.5562 88.8962 52.8364C89.1833 53.1167 89.5627 53.2568 90.0343 53.2568ZM93.341 50.3857V48.3452H98.632V50.3857H93.341ZM104.543 60.0449C103.005 60.0449 101.826 59.7681 101.006 59.2144C100.185 58.6606 99.7751 57.8848 99.7751 56.8867C99.7751 56.1895 99.9939 55.5981 100.431 55.1128C100.869 54.6343 101.494 54.3027 102.308 54.1182C102 53.9814 101.734 53.7695 101.508 53.4824C101.289 53.1885 101.18 52.8638 101.18 52.5083C101.18 52.0845 101.3 51.7222 101.539 51.4214C101.778 51.1206 102.137 50.8301 102.615 50.5498C102.021 50.2969 101.542 49.8867 101.18 49.3193C100.824 48.7451 100.647 48.0718 100.647 47.2993C100.647 46.479 100.821 45.7817 101.17 45.2075C101.518 44.6265 102.028 44.1855 102.697 43.8848C103.367 43.5771 104.177 43.4233 105.128 43.4233C105.333 43.4233 105.555 43.437 105.794 43.4644C106.04 43.4849 106.266 43.5122 106.471 43.5464C106.683 43.5737 106.843 43.6045 106.953 43.6387H110.88V44.9819L108.952 45.3408C109.137 45.6006 109.284 45.8979 109.393 46.2329C109.503 46.561 109.557 46.9199 109.557 47.3096C109.557 48.4854 109.151 49.4116 108.337 50.0884C107.531 50.7583 106.416 51.0933 104.994 51.0933C104.653 51.0796 104.321 51.0522 104 51.0112C103.754 51.1616 103.566 51.3291 103.436 51.5137C103.306 51.6914 103.241 51.8931 103.241 52.1187C103.241 52.3032 103.306 52.4536 103.436 52.5698C103.566 52.6792 103.757 52.7612 104.01 52.8159C104.27 52.8706 104.584 52.8979 104.953 52.8979H106.912C108.156 52.8979 109.106 53.1611 109.762 53.6875C110.419 54.2139 110.747 54.9863 110.747 56.0049C110.747 57.2969 110.214 58.2915 109.147 58.9888C108.081 59.6929 106.546 60.0449 104.543 60.0449ZM104.635 58.353C105.476 58.353 106.184 58.271 106.758 58.1069C107.332 57.9429 107.766 57.707 108.06 57.3994C108.354 57.0986 108.501 56.7397 108.501 56.3228C108.501 55.9536 108.409 55.6699 108.224 55.4717C108.04 55.2734 107.763 55.1367 107.394 55.0615C107.025 54.9863 106.567 54.9487 106.02 54.9487H104.236C103.791 54.9487 103.398 55.0171 103.056 55.1538C102.715 55.2974 102.448 55.5024 102.257 55.769C102.072 56.0356 101.98 56.3569 101.98 56.7329C101.98 57.2524 102.209 57.6523 102.667 57.9326C103.132 58.2129 103.788 58.353 104.635 58.353ZM105.107 49.5142C105.811 49.5142 106.334 49.3228 106.676 48.9399C107.018 48.5503 107.189 48.0034 107.189 47.2993C107.189 46.5337 107.011 45.9595 106.656 45.5767C106.307 45.1938 105.787 45.0024 105.097 45.0024C104.42 45.0024 103.904 45.1973 103.549 45.5869C103.2 45.9766 103.026 46.5542 103.026 47.3198C103.026 48.0103 103.2 48.5503 103.549 48.9399C103.904 49.3228 104.424 49.5142 105.107 49.5142ZM123.056 43.6489V55H121.159L120.831 53.4722H120.698C120.459 53.8618 120.155 54.1865 119.785 54.4463C119.416 54.6992 119.006 54.8872 118.555 55.0103C118.104 55.1401 117.629 55.2051 117.13 55.2051C116.275 55.2051 115.544 55.0615 114.935 54.7744C114.334 54.4805 113.872 54.0293 113.551 53.4209C113.23 52.8125 113.069 52.0264 113.069 51.0625V43.6489H115.489V50.6113C115.489 51.4932 115.667 52.1528 116.022 52.5903C116.385 53.0278 116.945 53.2466 117.704 53.2466C118.435 53.2466 119.016 53.0962 119.447 52.7954C119.878 52.4946 120.182 52.0503 120.36 51.4624C120.544 50.8745 120.637 50.1533 120.637 49.2988V43.6489H123.056ZM131.172 43.4336C132.608 43.4336 133.691 43.7515 134.423 44.3872C135.161 45.0229 135.53 46.0142 135.53 47.3608V55H133.818L133.356 53.3901H133.274C132.953 53.8003 132.621 54.1387 132.28 54.4053C131.938 54.6719 131.541 54.8701 131.09 55C130.646 55.1367 130.102 55.2051 129.46 55.2051C128.783 55.2051 128.178 55.082 127.645 54.8359C127.112 54.583 126.691 54.2002 126.384 53.6875C126.076 53.1748 125.922 52.5254 125.922 51.7393C125.922 50.5703 126.356 49.6919 127.224 49.104C128.099 48.5161 129.419 48.1914 131.182 48.1299L133.151 48.0581V47.4634C133.151 46.6772 132.967 46.1167 132.597 45.7817C132.235 45.4468 131.722 45.2793 131.059 45.2793C130.492 45.2793 129.942 45.3613 129.409 45.5254C128.875 45.6895 128.356 45.8911 127.85 46.1304L127.071 44.4282C127.624 44.1343 128.253 43.895 128.957 43.7104C129.668 43.5259 130.407 43.4336 131.172 43.4336ZM133.141 49.5757L131.675 49.627C130.472 49.668 129.627 49.873 129.142 50.2422C128.657 50.6113 128.414 51.1172 128.414 51.7598C128.414 52.3203 128.581 52.7305 128.916 52.9902C129.251 53.2432 129.692 53.3696 130.239 53.3696C131.073 53.3696 131.763 53.1338 132.31 52.6621C132.864 52.1836 133.141 51.4829 133.141 50.5601V49.5757ZM144.866 43.4336C145.057 43.4336 145.266 43.4438 145.492 43.4644C145.717 43.4849 145.912 43.5122 146.076 43.5464L145.85 45.8022C145.707 45.7612 145.529 45.7305 145.317 45.71C145.112 45.6895 144.928 45.6792 144.764 45.6792C144.333 45.6792 143.923 45.751 143.533 45.8945C143.143 46.0312 142.798 46.2432 142.497 46.5303C142.197 46.8105 141.961 47.1626 141.79 47.5864C141.619 48.0103 141.534 48.5024 141.534 49.063V55H139.114V43.6489H141L141.328 45.6484H141.441C141.667 45.2451 141.947 44.876 142.282 44.541C142.617 44.2061 143 43.9395 143.431 43.7412C143.868 43.5361 144.347 43.4336 144.866 43.4336ZM152.203 55.2051C150.849 55.2051 149.762 54.7129 148.942 53.7285C148.128 52.7373 147.722 51.2778 147.722 49.3501C147.722 47.4019 148.135 45.9287 148.962 44.9307C149.796 43.9326 150.893 43.4336 152.254 43.4336C152.828 43.4336 153.33 43.5122 153.761 43.6694C154.192 43.8198 154.561 44.0249 154.869 44.2847C155.183 44.5444 155.45 44.835 155.668 45.1562H155.781C155.747 44.9443 155.706 44.6401 155.658 44.2437C155.617 43.8403 155.597 43.4678 155.597 43.126V39.0449H158.017V55H156.13L155.699 53.4517H155.597C155.392 53.7798 155.132 54.0771 154.817 54.3438C154.51 54.6035 154.141 54.812 153.71 54.9692C153.286 55.1265 152.784 55.2051 152.203 55.2051ZM152.879 53.2466C153.912 53.2466 154.64 52.9492 155.063 52.3545C155.487 51.7598 155.706 50.8677 155.72 49.6782V49.3604C155.72 48.0889 155.515 47.1147 155.104 46.438C154.694 45.7544 153.946 45.4126 152.859 45.4126C151.991 45.4126 151.328 45.7646 150.87 46.4688C150.418 47.166 150.193 48.1401 150.193 49.3911C150.193 50.6421 150.418 51.5991 150.87 52.2622C151.328 52.9185 151.997 53.2466 152.879 53.2466Z" fill="white"/>
<rect x="59" y="106" width="226" height="103" rx="8" fill="#020202"/>
<rect x="60" y="107" width="224" height="101" rx="7" stroke="white" stroke-opacity="0.9" stroke-width="2"/>
<path d="M126.389 153.934C126.58 153.934 126.789 153.944 127.014 153.964C127.24 153.985 127.435 154.012 127.599 154.046L127.373 156.302C127.23 156.261 127.052 156.23 126.84 156.21C126.635 156.189 126.451 156.179 126.286 156.179C125.856 156.179 125.446 156.251 125.056 156.395C124.666 156.531 124.321 156.743 124.02 157.03C123.72 157.311 123.484 157.663 123.313 158.086C123.142 158.51 123.056 159.002 123.056 159.563V165.5H120.637V154.149H122.523L122.851 156.148H122.964C123.19 155.745 123.47 155.376 123.805 155.041C124.14 154.706 124.523 154.439 124.953 154.241C125.391 154.036 125.869 153.934 126.389 153.934ZM139.96 159.799C139.96 160.742 139.837 161.58 139.591 162.311C139.345 163.042 138.986 163.661 138.514 164.167C138.042 164.666 137.475 165.049 136.812 165.315C136.149 165.575 135.4 165.705 134.566 165.705C133.787 165.705 133.073 165.575 132.423 165.315C131.774 165.049 131.21 164.666 130.731 164.167C130.26 163.661 129.894 163.042 129.634 162.311C129.374 161.58 129.244 160.742 129.244 159.799C129.244 158.548 129.46 157.488 129.89 156.62C130.328 155.745 130.95 155.079 131.757 154.621C132.563 154.163 133.524 153.934 134.638 153.934C135.684 153.934 136.607 154.163 137.407 154.621C138.206 155.079 138.832 155.745 139.283 156.62C139.734 157.495 139.96 158.555 139.96 159.799ZM131.726 159.799C131.726 160.626 131.825 161.333 132.023 161.921C132.228 162.509 132.543 162.96 132.967 163.275C133.39 163.583 133.937 163.736 134.607 163.736C135.277 163.736 135.824 163.583 136.248 163.275C136.672 162.96 136.983 162.509 137.181 161.921C137.379 161.333 137.478 160.626 137.478 159.799C137.478 158.972 137.379 158.271 137.181 157.697C136.983 157.116 136.672 156.675 136.248 156.374C135.824 156.066 135.274 155.913 134.597 155.913C133.599 155.913 132.871 156.248 132.413 156.917C131.955 157.587 131.726 158.548 131.726 159.799ZM152.833 154.149V165.5H150.936L150.608 163.972H150.475C150.236 164.362 149.932 164.687 149.562 164.946C149.193 165.199 148.783 165.387 148.332 165.51C147.881 165.64 147.406 165.705 146.907 165.705C146.052 165.705 145.321 165.562 144.712 165.274C144.111 164.98 143.649 164.529 143.328 163.921C143.007 163.312 142.846 162.526 142.846 161.562V154.149H145.266V161.111C145.266 161.993 145.444 162.653 145.799 163.09C146.162 163.528 146.722 163.747 147.481 163.747C148.212 163.747 148.793 163.596 149.224 163.295C149.655 162.995 149.959 162.55 150.137 161.962C150.321 161.375 150.413 160.653 150.413 159.799V154.149H152.833ZM160.724 163.757C161.038 163.757 161.349 163.729 161.657 163.675C161.964 163.613 162.245 163.542 162.497 163.459V165.285C162.231 165.401 161.886 165.5 161.462 165.582C161.038 165.664 160.597 165.705 160.139 165.705C159.497 165.705 158.919 165.599 158.406 165.387C157.893 165.168 157.487 164.796 157.186 164.27C156.885 163.743 156.735 163.015 156.735 162.085V155.984H155.186V154.908L156.848 154.057L157.637 151.626H159.155V154.149H162.405V155.984H159.155V162.055C159.155 162.629 159.298 163.056 159.585 163.336C159.872 163.617 160.252 163.757 160.724 163.757ZM167.424 154.149V165.5H165.015V154.149H167.424ZM166.235 149.801C166.604 149.801 166.922 149.9 167.188 150.099C167.462 150.297 167.599 150.639 167.599 151.124C167.599 151.603 167.462 151.944 167.188 152.149C166.922 152.348 166.604 152.447 166.235 152.447C165.852 152.447 165.527 152.348 165.261 152.149C165.001 151.944 164.871 151.603 164.871 151.124C164.871 150.639 165.001 150.297 165.261 150.099C165.527 149.9 165.852 149.801 166.235 149.801ZM177.006 153.934C178.285 153.934 179.279 154.265 179.99 154.928C180.708 155.584 181.067 156.641 181.067 158.097V165.5H178.657V158.548C178.657 157.666 178.476 157.006 178.114 156.569C177.751 156.125 177.191 155.902 176.432 155.902C175.332 155.902 174.566 156.241 174.135 156.917C173.711 157.594 173.5 158.575 173.5 159.86V165.5H171.09V154.149H172.966L173.305 155.687H173.438C173.684 155.291 173.988 154.966 174.351 154.713C174.72 154.453 175.13 154.258 175.581 154.128C176.039 153.999 176.514 153.934 177.006 153.934ZM187.891 170.545C186.353 170.545 185.173 170.268 184.353 169.714C183.533 169.161 183.123 168.385 183.123 167.387C183.123 166.689 183.341 166.098 183.779 165.613C184.216 165.134 184.842 164.803 185.655 164.618C185.348 164.481 185.081 164.27 184.856 163.982C184.637 163.688 184.527 163.364 184.527 163.008C184.527 162.584 184.647 162.222 184.886 161.921C185.126 161.621 185.484 161.33 185.963 161.05C185.368 160.797 184.89 160.387 184.527 159.819C184.172 159.245 183.994 158.572 183.994 157.799C183.994 156.979 184.169 156.282 184.517 155.708C184.866 155.126 185.375 154.686 186.045 154.385C186.715 154.077 187.525 153.923 188.475 153.923C188.68 153.923 188.902 153.937 189.142 153.964C189.388 153.985 189.613 154.012 189.818 154.046C190.03 154.074 190.191 154.104 190.3 154.139H194.228V155.482L192.3 155.841C192.484 156.101 192.631 156.398 192.741 156.733C192.85 157.061 192.905 157.42 192.905 157.81C192.905 158.985 192.498 159.912 191.685 160.588C190.878 161.258 189.764 161.593 188.342 161.593C188 161.58 187.669 161.552 187.347 161.511C187.101 161.662 186.913 161.829 186.783 162.014C186.653 162.191 186.588 162.393 186.588 162.619C186.588 162.803 186.653 162.954 186.783 163.07C186.913 163.179 187.105 163.261 187.357 163.316C187.617 163.371 187.932 163.398 188.301 163.398H190.259C191.503 163.398 192.454 163.661 193.11 164.188C193.766 164.714 194.094 165.486 194.094 166.505C194.094 167.797 193.561 168.792 192.495 169.489C191.428 170.193 189.894 170.545 187.891 170.545ZM187.983 168.853C188.824 168.853 189.531 168.771 190.106 168.607C190.68 168.443 191.114 168.207 191.408 167.899C191.702 167.599 191.849 167.24 191.849 166.823C191.849 166.454 191.756 166.17 191.572 165.972C191.387 165.773 191.11 165.637 190.741 165.562C190.372 165.486 189.914 165.449 189.367 165.449H187.583C187.139 165.449 186.746 165.517 186.404 165.654C186.062 165.797 185.795 166.002 185.604 166.269C185.419 166.536 185.327 166.857 185.327 167.233C185.327 167.752 185.556 168.152 186.014 168.433C186.479 168.713 187.135 168.853 187.983 168.853ZM188.455 160.014C189.159 160.014 189.682 159.823 190.023 159.44C190.365 159.05 190.536 158.503 190.536 157.799C190.536 157.034 190.358 156.459 190.003 156.077C189.654 155.694 189.135 155.502 188.444 155.502C187.768 155.502 187.252 155.697 186.896 156.087C186.547 156.477 186.373 157.054 186.373 157.82C186.373 158.51 186.547 159.05 186.896 159.44C187.252 159.823 187.771 160.014 188.455 160.014ZM203.748 168.73H194.745V167.387H203.748V168.73ZM211.31 155.984H208.552V165.5H206.142V155.984H204.286V154.826L206.142 154.118V153.329C206.142 152.365 206.293 151.599 206.593 151.032C206.901 150.464 207.339 150.058 207.906 149.812C208.48 149.559 209.164 149.432 209.957 149.432C210.476 149.432 210.951 149.477 211.382 149.565C211.813 149.647 212.175 149.743 212.469 149.853L211.843 151.678C211.611 151.603 211.351 151.534 211.064 151.473C210.777 151.404 210.469 151.37 210.141 151.37C209.594 151.37 209.191 151.541 208.931 151.883C208.678 152.225 208.552 152.724 208.552 153.38V154.149H211.31V155.984ZM219.375 153.934C220.653 153.934 221.648 154.265 222.359 154.928C223.076 155.584 223.435 156.641 223.435 158.097V165.5H221.026V158.548C221.026 157.666 220.844 157.006 220.482 156.569C220.12 156.125 219.559 155.902 218.8 155.902C217.7 155.902 216.934 156.241 216.504 156.917C216.08 157.594 215.868 158.575 215.868 159.86V165.5H213.458V154.149H215.335L215.673 155.687H215.806C216.052 155.291 216.357 154.966 216.719 154.713C217.088 154.453 217.498 154.258 217.949 154.128C218.407 153.999 218.883 153.934 219.375 153.934Z" fill="white"/>
<rect x="306" y="106" width="226" height="103" rx="8" fill="#020202"/>
<rect x="307" y="107" width="224" height="101" rx="7" stroke="white" stroke-opacity="0.9" stroke-width="2"/>
<path d="M357.098 153.934C358.37 153.934 359.327 154.262 359.969 154.918C360.619 155.574 360.944 156.627 360.944 158.076V165.5H358.534V158.507C358.534 157.646 358.366 156.996 358.032 156.559C357.697 156.121 357.187 155.902 356.504 155.902C355.547 155.902 354.856 156.21 354.432 156.825C354.015 157.434 353.807 158.319 353.807 159.481V165.5H351.397V158.507C351.397 157.933 351.322 157.454 351.172 157.071C351.028 156.682 350.806 156.391 350.505 156.2C350.204 156.001 349.825 155.902 349.367 155.902C348.704 155.902 348.174 156.053 347.778 156.354C347.388 156.654 347.108 157.099 346.937 157.687C346.766 158.268 346.68 158.982 346.68 159.83V165.5H344.271V154.149H346.147L346.486 155.677H346.619C346.851 155.28 347.138 154.956 347.48 154.703C347.829 154.443 348.215 154.251 348.639 154.128C349.063 153.999 349.504 153.934 349.962 153.934C350.809 153.934 351.524 154.084 352.105 154.385C352.686 154.679 353.12 155.13 353.407 155.738H353.592C353.947 155.123 354.443 154.668 355.078 154.375C355.714 154.081 356.387 153.934 357.098 153.934ZM366.927 154.149V165.5H364.517V154.149H366.927ZM365.737 149.801C366.106 149.801 366.424 149.9 366.691 150.099C366.964 150.297 367.101 150.639 367.101 151.124C367.101 151.603 366.964 151.944 366.691 152.149C366.424 152.348 366.106 152.447 365.737 152.447C365.354 152.447 365.03 152.348 364.763 152.149C364.503 151.944 364.373 151.603 364.373 151.124C364.373 150.639 364.503 150.297 364.763 150.099C365.03 149.9 365.354 149.801 365.737 149.801ZM374.407 165.705C373.053 165.705 371.966 165.213 371.146 164.229C370.332 163.237 369.926 161.778 369.926 159.85C369.926 157.902 370.339 156.429 371.166 155.431C372 154.433 373.097 153.934 374.458 153.934C375.032 153.934 375.535 154.012 375.965 154.169C376.396 154.32 376.765 154.525 377.073 154.785C377.387 155.044 377.654 155.335 377.872 155.656H377.985C377.951 155.444 377.91 155.14 377.862 154.744C377.821 154.34 377.801 153.968 377.801 153.626V149.545H380.221V165.5H378.334L377.903 163.952H377.801C377.596 164.28 377.336 164.577 377.021 164.844C376.714 165.104 376.345 165.312 375.914 165.469C375.49 165.626 374.988 165.705 374.407 165.705ZM375.083 163.747C376.116 163.747 376.844 163.449 377.267 162.854C377.691 162.26 377.91 161.368 377.924 160.178V159.86C377.924 158.589 377.719 157.615 377.308 156.938C376.898 156.254 376.15 155.913 375.063 155.913C374.195 155.913 373.532 156.265 373.074 156.969C372.622 157.666 372.397 158.64 372.397 159.891C372.397 161.142 372.622 162.099 373.074 162.762C373.532 163.418 374.201 163.747 375.083 163.747ZM387.701 165.705C386.347 165.705 385.26 165.213 384.44 164.229C383.626 163.237 383.22 161.778 383.22 159.85C383.22 157.902 383.633 156.429 384.46 155.431C385.294 154.433 386.391 153.934 387.752 153.934C388.326 153.934 388.828 154.012 389.259 154.169C389.69 154.32 390.059 154.525 390.367 154.785C390.681 155.044 390.948 155.335 391.166 155.656H391.279C391.245 155.444 391.204 155.14 391.156 154.744C391.115 154.34 391.095 153.968 391.095 153.626V149.545H393.515V165.5H391.628L391.197 163.952H391.095C390.89 164.28 390.63 164.577 390.315 164.844C390.008 165.104 389.639 165.312 389.208 165.469C388.784 165.626 388.282 165.705 387.701 165.705ZM388.377 163.747C389.41 163.747 390.138 163.449 390.561 162.854C390.985 162.26 391.204 161.368 391.218 160.178V159.86C391.218 158.589 391.013 157.615 390.602 156.938C390.192 156.254 389.444 155.913 388.357 155.913C387.489 155.913 386.826 156.265 386.368 156.969C385.916 157.666 385.691 158.64 385.691 159.891C385.691 161.142 385.916 162.099 386.368 162.762C386.826 163.418 387.495 163.747 388.377 163.747ZM399.6 165.5H397.18V149.545H399.6V165.5ZM407.777 153.934C408.789 153.934 409.657 154.142 410.382 154.559C411.106 154.976 411.664 155.567 412.053 156.333C412.443 157.099 412.638 158.015 412.638 159.081V160.373H405.06C405.087 161.474 405.381 162.321 405.942 162.916C406.509 163.511 407.302 163.808 408.321 163.808C409.045 163.808 409.695 163.74 410.269 163.603C410.85 163.459 411.448 163.251 412.063 162.978V164.936C411.496 165.203 410.918 165.397 410.331 165.521C409.743 165.644 409.039 165.705 408.218 165.705C407.104 165.705 406.123 165.49 405.275 165.059C404.435 164.622 403.775 163.972 403.296 163.111C402.825 162.25 402.589 161.18 402.589 159.901C402.589 158.63 402.804 157.55 403.235 156.661C403.665 155.772 404.27 155.096 405.05 154.631C405.829 154.166 406.738 153.934 407.777 153.934ZM407.777 155.749C407.019 155.749 406.403 155.995 405.932 156.487C405.467 156.979 405.193 157.7 405.111 158.65H410.279C410.272 158.083 410.177 157.581 409.992 157.143C409.814 156.706 409.541 156.364 409.172 156.118C408.81 155.872 408.345 155.749 407.777 155.749ZM424.845 165.49L423.409 160.209C423.341 159.949 423.259 159.635 423.163 159.266C423.067 158.896 422.972 158.517 422.876 158.127C422.78 157.731 422.691 157.365 422.609 157.03C422.534 156.695 422.476 156.436 422.435 156.251H422.353C422.319 156.436 422.264 156.695 422.189 157.03C422.114 157.365 422.028 157.731 421.933 158.127C421.837 158.524 421.741 158.91 421.646 159.286C421.557 159.662 421.475 159.983 421.399 160.25L419.892 165.49H417.247L414.068 154.139H416.508L417.985 159.778C418.081 160.161 418.173 160.575 418.262 161.019C418.357 161.463 418.439 161.887 418.508 162.291C418.576 162.694 418.627 163.025 418.662 163.285H418.744C418.771 163.101 418.809 162.868 418.856 162.588C418.904 162.301 418.959 162.003 419.021 161.696C419.082 161.381 419.144 161.087 419.205 160.814C419.267 160.534 419.325 160.308 419.379 160.137L421.123 154.139H423.758L425.429 160.137C425.504 160.397 425.586 160.725 425.675 161.122C425.764 161.511 425.843 161.904 425.911 162.301C425.986 162.69 426.034 163.015 426.055 163.275H426.137C426.164 163.042 426.212 162.728 426.28 162.332C426.355 161.928 426.441 161.501 426.537 161.05C426.632 160.592 426.731 160.168 426.834 159.778L428.341 154.139H430.741L427.542 165.49H424.845ZM437.349 153.934C438.785 153.934 439.868 154.251 440.6 154.887C441.338 155.523 441.707 156.514 441.707 157.861V165.5H439.995L439.533 163.89H439.451C439.13 164.3 438.798 164.639 438.457 164.905C438.115 165.172 437.718 165.37 437.267 165.5C436.823 165.637 436.279 165.705 435.637 165.705C434.96 165.705 434.355 165.582 433.822 165.336C433.289 165.083 432.868 164.7 432.561 164.188C432.253 163.675 432.099 163.025 432.099 162.239C432.099 161.07 432.533 160.192 433.401 159.604C434.276 159.016 435.596 158.691 437.359 158.63L439.328 158.558V157.963C439.328 157.177 439.144 156.617 438.774 156.282C438.412 155.947 437.899 155.779 437.236 155.779C436.669 155.779 436.119 155.861 435.585 156.025C435.052 156.189 434.533 156.391 434.027 156.63L433.248 154.928C433.801 154.634 434.43 154.395 435.134 154.21C435.845 154.026 436.584 153.934 437.349 153.934ZM439.318 160.076L437.852 160.127C436.648 160.168 435.804 160.373 435.319 160.742C434.834 161.111 434.591 161.617 434.591 162.26C434.591 162.82 434.758 163.23 435.093 163.49C435.428 163.743 435.869 163.87 436.416 163.87C437.25 163.87 437.94 163.634 438.487 163.162C439.041 162.684 439.318 161.983 439.318 161.06V160.076ZM451.043 153.934C451.234 153.934 451.443 153.944 451.669 153.964C451.894 153.985 452.089 154.012 452.253 154.046L452.027 156.302C451.884 156.261 451.706 156.23 451.494 156.21C451.289 156.189 451.105 156.179 450.941 156.179C450.51 156.179 450.1 156.251 449.71 156.395C449.32 156.531 448.975 156.743 448.674 157.03C448.374 157.311 448.138 157.663 447.967 158.086C447.796 158.51 447.711 159.002 447.711 159.563V165.5H445.291V154.149H447.177L447.505 156.148H447.618C447.844 155.745 448.124 155.376 448.459 155.041C448.794 154.706 449.177 154.439 449.607 154.241C450.045 154.036 450.524 153.934 451.043 153.934ZM459.087 153.934C460.099 153.934 460.967 154.142 461.692 154.559C462.416 154.976 462.973 155.567 463.363 156.333C463.753 157.099 463.947 158.015 463.947 159.081V160.373H456.37C456.397 161.474 456.691 162.321 457.252 162.916C457.819 163.511 458.612 163.808 459.63 163.808C460.355 163.808 461.005 163.74 461.579 163.603C462.16 163.459 462.758 163.251 463.373 162.978V164.936C462.806 165.203 462.228 165.397 461.64 165.521C461.052 165.644 460.348 165.705 459.528 165.705C458.414 165.705 457.433 165.49 456.585 165.059C455.744 164.622 455.085 163.972 454.606 163.111C454.134 162.25 453.899 161.18 453.899 159.901C453.899 158.63 454.114 157.55 454.545 156.661C454.975 155.772 455.58 155.096 456.359 154.631C457.139 154.166 458.048 153.934 459.087 153.934ZM459.087 155.749C458.328 155.749 457.713 155.995 457.241 156.487C456.776 156.979 456.503 157.7 456.421 158.65H461.589C461.582 158.083 461.486 157.581 461.302 157.143C461.124 156.706 460.851 156.364 460.482 156.118C460.119 155.872 459.654 155.749 459.087 155.749ZM474.114 168.73H465.111V167.387H474.114V168.73ZM481.676 155.984H478.918V165.5H476.508V155.984H474.652V154.826L476.508 154.118V153.329C476.508 152.365 476.658 151.599 476.959 151.032C477.267 150.464 477.704 150.058 478.272 149.812C478.846 149.559 479.529 149.432 480.322 149.432C480.842 149.432 481.317 149.477 481.748 149.565C482.178 149.647 482.541 149.743 482.835 149.853L482.209 151.678C481.977 151.603 481.717 151.534 481.43 151.473C481.143 151.404 480.835 151.37 480.507 151.37C479.96 151.37 479.557 151.541 479.297 151.883C479.044 152.225 478.918 152.724 478.918 153.38V154.149H481.676V155.984ZM489.74 153.934C491.019 153.934 492.013 154.265 492.724 154.928C493.442 155.584 493.801 156.641 493.801 158.097V165.5H491.391V158.548C491.391 157.666 491.21 157.006 490.848 156.569C490.486 156.125 489.925 155.902 489.166 155.902C488.066 155.902 487.3 156.241 486.869 156.917C486.446 157.594 486.234 158.575 486.234 159.86V165.5H483.824V154.149H485.7L486.039 155.687H486.172C486.418 155.291 486.722 154.966 487.085 154.713C487.454 154.453 487.864 154.258 488.315 154.128C488.773 153.999 489.248 153.934 489.74 153.934Z" fill="white"/>
<rect x="553" y="106" width="226" height="103" rx="8" fill="#020202"/>
<rect x="554" y="107" width="224" height="101" rx="7" stroke="white" stroke-opacity="0.9" stroke-width="2"/>
<path d="M590.135 165.705C589.062 165.705 588.133 165.497 587.346 165.08C586.56 164.663 585.955 164.023 585.531 163.162C585.108 162.301 584.896 161.207 584.896 159.881C584.896 158.5 585.128 157.372 585.593 156.497C586.058 155.622 586.7 154.976 587.521 154.559C588.348 154.142 589.295 153.934 590.361 153.934C591.038 153.934 591.65 154.002 592.196 154.139C592.75 154.269 593.218 154.429 593.601 154.621L592.883 156.548C592.467 156.377 592.039 156.234 591.602 156.118C591.164 156.001 590.744 155.943 590.341 155.943C589.677 155.943 589.124 156.09 588.679 156.384C588.242 156.678 587.914 157.116 587.695 157.697C587.483 158.278 587.377 158.999 587.377 159.86C587.377 160.694 587.487 161.398 587.705 161.973C587.924 162.54 588.249 162.971 588.679 163.265C589.11 163.552 589.64 163.695 590.269 163.695C590.891 163.695 591.448 163.62 591.94 163.47C592.432 163.319 592.897 163.125 593.335 162.885V164.977C592.904 165.223 592.443 165.404 591.95 165.521C591.458 165.644 590.853 165.705 590.135 165.705ZM600.733 153.934C601.744 153.934 602.613 154.142 603.337 154.559C604.062 154.976 604.619 155.567 605.009 156.333C605.398 157.099 605.593 158.015 605.593 159.081V160.373H598.015C598.043 161.474 598.337 162.321 598.897 162.916C599.465 163.511 600.258 163.808 601.276 163.808C602.001 163.808 602.65 163.74 603.224 163.603C603.805 163.459 604.404 163.251 605.019 162.978V164.936C604.451 165.203 603.874 165.397 603.286 165.521C602.698 165.644 601.994 165.705 601.174 165.705C600.059 165.705 599.078 165.49 598.231 165.059C597.39 164.622 596.73 163.972 596.252 163.111C595.78 162.25 595.544 161.18 595.544 159.901C595.544 158.63 595.76 157.55 596.19 156.661C596.621 155.772 597.226 155.096 598.005 154.631C598.784 154.166 599.694 153.934 600.733 153.934ZM600.733 155.749C599.974 155.749 599.359 155.995 598.887 156.487C598.422 156.979 598.149 157.7 598.067 158.65H603.235C603.228 158.083 603.132 157.581 602.948 157.143C602.77 156.706 602.496 156.364 602.127 156.118C601.765 155.872 601.3 155.749 600.733 155.749ZM614.273 153.934C614.464 153.934 614.673 153.944 614.898 153.964C615.124 153.985 615.319 154.012 615.483 154.046L615.257 156.302C615.114 156.261 614.936 156.23 614.724 156.21C614.519 156.189 614.334 156.179 614.17 156.179C613.74 156.179 613.329 156.251 612.94 156.395C612.55 156.531 612.205 156.743 611.904 157.03C611.603 157.311 611.367 157.663 611.197 158.086C611.026 158.51 610.94 159.002 610.94 159.563V165.5H608.52V154.149H610.407L610.735 156.148H610.848C611.074 155.745 611.354 155.376 611.689 155.041C612.024 154.706 612.407 154.439 612.837 154.241C613.275 154.036 613.753 153.934 614.273 153.934ZM622.019 163.757C622.334 163.757 622.645 163.729 622.952 163.675C623.26 163.613 623.54 163.542 623.793 163.459V165.285C623.527 165.401 623.181 165.5 622.758 165.582C622.334 165.664 621.893 165.705 621.435 165.705C620.792 165.705 620.215 165.599 619.702 165.387C619.189 165.168 618.783 164.796 618.482 164.27C618.181 163.743 618.031 163.015 618.031 162.085V155.984H616.482V154.908L618.143 154.057L618.933 151.626H620.451V154.149H623.701V155.984H620.451V162.055C620.451 162.629 620.594 163.056 620.881 163.336C621.168 163.617 621.548 163.757 622.019 163.757ZM633.55 168.73H624.547V167.387H633.55V168.73ZM641.194 153.934C641.385 153.934 641.594 153.944 641.819 153.964C642.045 153.985 642.24 154.012 642.404 154.046L642.178 156.302C642.035 156.261 641.857 156.23 641.645 156.21C641.44 156.189 641.255 156.179 641.091 156.179C640.661 156.179 640.25 156.251 639.861 156.395C639.471 156.531 639.126 156.743 638.825 157.03C638.524 157.311 638.288 157.663 638.118 158.086C637.947 158.51 637.861 159.002 637.861 159.563V165.5H635.441V154.149H637.328L637.656 156.148H637.769C637.995 155.745 638.275 155.376 638.61 155.041C638.945 154.706 639.328 154.439 639.758 154.241C640.196 154.036 640.674 153.934 641.194 153.934ZM649.238 153.934C650.249 153.934 651.118 154.142 651.842 154.559C652.567 154.976 653.124 155.567 653.514 156.333C653.903 157.099 654.098 158.015 654.098 159.081V160.373H646.52C646.548 161.474 646.842 162.321 647.402 162.916C647.97 163.511 648.763 163.808 649.781 163.808C650.506 163.808 651.155 163.74 651.729 163.603C652.31 163.459 652.909 163.251 653.524 162.978V164.936C652.956 165.203 652.379 165.397 651.791 165.521C651.203 165.644 650.499 165.705 649.679 165.705C648.564 165.705 647.583 165.49 646.736 165.059C645.895 164.622 645.235 163.972 644.757 163.111C644.285 162.25 644.049 161.18 644.049 159.901C644.049 158.63 644.265 157.55 644.695 156.661C645.126 155.772 645.731 155.096 646.51 154.631C647.289 154.166 648.199 153.934 649.238 153.934ZM649.238 155.749C648.479 155.749 647.864 155.995 647.392 156.487C646.927 156.979 646.654 157.7 646.572 158.65H651.74C651.733 158.083 651.637 157.581 651.453 157.143C651.275 156.706 651.001 156.364 650.632 156.118C650.27 155.872 649.805 155.749 649.238 155.749ZM664.654 162.26C664.654 163.005 664.473 163.634 664.111 164.146C663.749 164.659 663.219 165.049 662.521 165.315C661.831 165.575 660.983 165.705 659.979 165.705C659.186 165.705 658.502 165.647 657.928 165.531C657.36 165.421 656.824 165.25 656.318 165.018V162.937C656.858 163.189 657.463 163.408 658.133 163.593C658.81 163.777 659.449 163.87 660.05 163.87C660.843 163.87 661.414 163.747 661.763 163.5C662.111 163.248 662.286 162.913 662.286 162.496C662.286 162.25 662.214 162.031 662.07 161.839C661.934 161.641 661.674 161.439 661.291 161.234C660.915 161.022 660.361 160.77 659.63 160.476C658.912 160.188 658.307 159.901 657.815 159.614C657.323 159.327 656.95 158.982 656.697 158.579C656.444 158.168 656.318 157.646 656.318 157.01C656.318 156.005 656.714 155.243 657.507 154.723C658.307 154.197 659.363 153.934 660.676 153.934C661.373 153.934 662.029 154.005 662.645 154.149C663.267 154.286 663.875 154.487 664.47 154.754L663.711 156.569C663.198 156.343 662.682 156.159 662.163 156.015C661.65 155.865 661.127 155.79 660.594 155.79C659.972 155.79 659.497 155.885 659.168 156.077C658.847 156.268 658.687 156.542 658.687 156.897C658.687 157.164 658.765 157.389 658.922 157.574C659.08 157.758 659.35 157.943 659.732 158.127C660.122 158.312 660.662 158.541 661.353 158.814C662.029 159.074 662.614 159.348 663.106 159.635C663.605 159.915 663.988 160.26 664.254 160.67C664.521 161.081 664.654 161.61 664.654 162.26ZM677.518 159.799C677.518 160.742 677.395 161.58 677.148 162.311C676.902 163.042 676.543 163.661 676.072 164.167C675.6 164.666 675.033 165.049 674.37 165.315C673.707 165.575 672.958 165.705 672.124 165.705C671.345 165.705 670.63 165.575 669.981 165.315C669.332 165.049 668.768 164.666 668.289 164.167C667.817 163.661 667.452 163.042 667.192 162.311C666.932 161.58 666.802 160.742 666.802 159.799C666.802 158.548 667.018 157.488 667.448 156.62C667.886 155.745 668.508 155.079 669.314 154.621C670.121 154.163 671.082 153.934 672.196 153.934C673.242 153.934 674.165 154.163 674.964 154.621C675.764 155.079 676.39 155.745 676.841 156.62C677.292 157.495 677.518 158.555 677.518 159.799ZM669.284 159.799C669.284 160.626 669.383 161.333 669.581 161.921C669.786 162.509 670.101 162.96 670.524 163.275C670.948 163.583 671.495 163.736 672.165 163.736C672.835 163.736 673.382 163.583 673.806 163.275C674.23 162.96 674.541 162.509 674.739 161.921C674.937 161.333 675.036 160.626 675.036 159.799C675.036 158.972 674.937 158.271 674.739 157.697C674.541 157.116 674.23 156.675 673.806 156.374C673.382 156.066 672.832 155.913 672.155 155.913C671.157 155.913 670.429 156.248 669.971 156.917C669.513 157.587 669.284 158.548 669.284 159.799ZM682.916 165.5H680.496V149.545H682.916V165.5ZM689.166 165.5L684.849 154.149H687.402L689.74 160.814C689.89 161.238 690.027 161.696 690.15 162.188C690.273 162.68 690.358 163.094 690.406 163.429H690.488C690.536 163.08 690.629 162.663 690.765 162.178C690.902 161.686 691.042 161.231 691.186 160.814L693.524 154.149H696.067L691.75 165.5H689.166ZM702.521 153.934C703.533 153.934 704.401 154.142 705.126 154.559C705.85 154.976 706.407 155.567 706.797 156.333C707.187 157.099 707.381 158.015 707.381 159.081V160.373H699.804C699.831 161.474 700.125 162.321 700.686 162.916C701.253 163.511 702.046 163.808 703.065 163.808C703.789 163.808 704.439 163.74 705.013 163.603C705.594 163.459 706.192 163.251 706.807 162.978V164.936C706.24 165.203 705.662 165.397 705.074 165.521C704.486 165.644 703.782 165.705 702.962 165.705C701.848 165.705 700.867 165.49 700.019 165.059C699.178 164.622 698.519 163.972 698.04 163.111C697.568 162.25 697.333 161.18 697.333 159.901C697.333 158.63 697.548 157.55 697.979 156.661C698.409 155.772 699.014 155.096 699.794 154.631C700.573 154.166 701.482 153.934 702.521 153.934ZM702.521 155.749C701.762 155.749 701.147 155.995 700.675 156.487C700.211 156.979 699.937 157.7 699.855 158.65H705.023C705.016 158.083 704.921 157.581 704.736 157.143C704.558 156.706 704.285 156.364 703.916 156.118C703.553 155.872 703.089 155.749 702.521 155.749ZM716.061 153.934C716.253 153.934 716.461 153.944 716.687 153.964C716.912 153.985 717.107 154.012 717.271 154.046L717.046 156.302C716.902 156.261 716.724 156.23 716.512 156.21C716.307 156.189 716.123 156.179 715.959 156.179C715.528 156.179 715.118 156.251 714.728 156.395C714.339 156.531 713.993 156.743 713.693 157.03C713.392 157.311 713.156 157.663 712.985 158.086C712.814 158.51 712.729 159.002 712.729 159.563V165.5H710.309V154.149H712.195L712.524 156.148H712.636C712.862 155.745 713.142 155.376 713.477 155.041C713.812 154.706 714.195 154.439 714.626 154.241C715.063 154.036 715.542 153.934 716.061 153.934ZM726.822 168.73H717.82V167.387H726.822V168.73ZM734.385 155.984H731.626V165.5H729.217V155.984H727.361V154.826L729.217 154.118V153.329C729.217 152.365 729.367 151.599 729.668 151.032C729.975 150.464 730.413 150.058 730.98 149.812C731.554 149.559 732.238 149.432 733.031 149.432C733.551 149.432 734.026 149.477 734.456 149.565C734.887 149.647 735.249 149.743 735.543 149.853L734.918 151.678C734.685 151.603 734.426 151.534 734.138 151.473C733.851 151.404 733.544 151.37 733.216 151.37C732.669 151.37 732.265 151.541 732.006 151.883C731.753 152.225 731.626 152.724 731.626 153.38V154.149H734.385V155.984ZM742.449 153.934C743.727 153.934 744.722 154.265 745.433 154.928C746.151 155.584 746.51 156.641 746.51 158.097V165.5H744.1V158.548C744.1 157.666 743.919 157.006 743.556 156.569C743.194 156.125 742.634 155.902 741.875 155.902C740.774 155.902 740.009 156.241 739.578 156.917C739.154 157.594 738.942 158.575 738.942 159.86V165.5H736.533V154.149H738.409L738.747 155.687H738.881C739.127 155.291 739.431 154.966 739.793 154.713C740.162 154.453 740.573 154.258 741.024 154.128C741.482 153.999 741.957 153.934 742.449 153.934Z" fill="white"/>
<rect x="37" y="252" width="761" height="135" rx="8" fill="#020202"/>
<rect x="38" y="253" width="759" height="133" rx="7" stroke="white" stroke-opacity="0.9" stroke-width="2"/>
<path d="M341.482 315.934C341.673 315.934 341.882 315.944 342.107 315.964C342.333 315.985 342.528 316.012 342.692 316.046L342.466 318.302C342.322 318.261 342.145 318.23 341.933 318.21C341.728 318.189 341.543 318.179 341.379 318.179C340.948 318.179 340.538 318.251 340.149 318.395C339.759 318.531 339.414 318.743 339.113 319.03C338.812 319.311 338.576 319.663 338.405 320.086C338.235 320.51 338.149 321.002 338.149 321.563V327.5H335.729V316.149H337.616L337.944 318.148H338.057C338.282 317.745 338.563 317.376 338.898 317.041C339.233 316.706 339.615 316.439 340.046 316.241C340.484 316.036 340.962 315.934 341.482 315.934ZM347.413 316.149V327.5H345.004V316.149H347.413ZM346.224 311.801C346.593 311.801 346.911 311.9 347.177 312.099C347.451 312.297 347.588 312.639 347.588 313.124C347.588 313.603 347.451 313.944 347.177 314.149C346.911 314.348 346.593 314.447 346.224 314.447C345.841 314.447 345.516 314.348 345.25 314.149C344.99 313.944 344.86 313.603 344.86 313.124C344.86 312.639 344.99 312.297 345.25 312.099C345.516 311.9 345.841 311.801 346.224 311.801ZM353.673 327.5L349.356 316.149H351.909L354.247 322.814C354.398 323.238 354.534 323.696 354.658 324.188C354.781 324.68 354.866 325.094 354.914 325.429H354.996C355.044 325.08 355.136 324.663 355.273 324.178C355.409 323.686 355.55 323.231 355.693 322.814L358.031 316.149H360.574L356.257 327.5H353.673ZM367.029 315.934C368.04 315.934 368.909 316.142 369.633 316.559C370.358 316.976 370.915 317.567 371.305 318.333C371.694 319.099 371.889 320.015 371.889 321.081V322.373H364.311C364.339 323.474 364.633 324.321 365.193 324.916C365.761 325.511 366.554 325.808 367.572 325.808C368.297 325.808 368.946 325.74 369.52 325.603C370.101 325.459 370.7 325.251 371.315 324.978V326.936C370.747 327.203 370.17 327.397 369.582 327.521C368.994 327.644 368.29 327.705 367.47 327.705C366.355 327.705 365.374 327.49 364.527 327.059C363.686 326.622 363.026 325.972 362.548 325.111C362.076 324.25 361.84 323.18 361.84 321.901C361.84 320.63 362.055 319.55 362.486 318.661C362.917 317.772 363.522 317.096 364.301 316.631C365.08 316.166 365.99 315.934 367.029 315.934ZM367.029 317.749C366.27 317.749 365.655 317.995 365.183 318.487C364.718 318.979 364.445 319.7 364.363 320.65H369.531C369.524 320.083 369.428 319.581 369.243 319.143C369.066 318.706 368.792 318.364 368.423 318.118C368.061 317.872 367.596 317.749 367.029 317.749ZM379.041 325.757C379.355 325.757 379.666 325.729 379.974 325.675C380.282 325.613 380.562 325.542 380.815 325.459V327.285C380.548 327.401 380.203 327.5 379.779 327.582C379.355 327.664 378.914 327.705 378.456 327.705C377.814 327.705 377.236 327.599 376.723 327.387C376.211 327.168 375.804 326.796 375.503 326.27C375.202 325.743 375.052 325.015 375.052 324.085V317.984H373.504V316.908L375.165 316.057L375.954 313.626H377.472V316.149H380.723V317.984H377.472V324.055C377.472 324.629 377.616 325.056 377.903 325.336C378.19 325.617 378.569 325.757 379.041 325.757ZM382.348 322.886V320.845H387.639V322.886H382.348ZM393.55 332.545C392.012 332.545 390.832 332.268 390.012 331.714C389.192 331.161 388.782 330.385 388.782 329.387C388.782 328.689 389 328.098 389.438 327.613C389.875 327.134 390.501 326.803 391.314 326.618C391.007 326.481 390.74 326.27 390.515 325.982C390.296 325.688 390.186 325.364 390.186 325.008C390.186 324.584 390.306 324.222 390.545 323.921C390.785 323.621 391.143 323.33 391.622 323.05C391.027 322.797 390.549 322.387 390.186 321.819C389.831 321.245 389.653 320.572 389.653 319.799C389.653 318.979 389.828 318.282 390.176 317.708C390.525 317.126 391.034 316.686 391.704 316.385C392.374 316.077 393.184 315.923 394.134 315.923C394.339 315.923 394.561 315.937 394.801 315.964C395.047 315.985 395.272 316.012 395.477 316.046C395.689 316.074 395.85 316.104 395.959 316.139H399.887V317.482L397.959 317.841C398.143 318.101 398.29 318.398 398.4 318.733C398.509 319.061 398.564 319.42 398.564 319.81C398.564 320.985 398.157 321.912 397.344 322.588C396.537 323.258 395.423 323.593 394.001 323.593C393.659 323.58 393.328 323.552 393.006 323.511C392.76 323.662 392.572 323.829 392.442 324.014C392.312 324.191 392.247 324.393 392.247 324.619C392.247 324.803 392.312 324.954 392.442 325.07C392.572 325.179 392.764 325.261 393.017 325.316C393.276 325.371 393.591 325.398 393.96 325.398H395.918C397.163 325.398 398.113 325.661 398.769 326.188C399.425 326.714 399.753 327.486 399.753 328.505C399.753 329.797 399.22 330.792 398.154 331.489C397.087 332.193 395.553 332.545 393.55 332.545ZM393.642 330.853C394.483 330.853 395.19 330.771 395.765 330.607C396.339 330.443 396.773 330.207 397.067 329.899C397.361 329.599 397.508 329.24 397.508 328.823C397.508 328.454 397.415 328.17 397.231 327.972C397.046 327.773 396.769 327.637 396.4 327.562C396.031 327.486 395.573 327.449 395.026 327.449H393.242C392.798 327.449 392.405 327.517 392.063 327.654C391.721 327.797 391.455 328.002 391.263 328.269C391.079 328.536 390.986 328.857 390.986 329.233C390.986 329.752 391.215 330.152 391.673 330.433C392.138 330.713 392.794 330.853 393.642 330.853ZM394.114 322.014C394.818 322.014 395.341 321.823 395.683 321.44C396.024 321.05 396.195 320.503 396.195 319.799C396.195 319.034 396.018 318.459 395.662 318.077C395.313 317.694 394.794 317.502 394.103 317.502C393.427 317.502 392.911 317.697 392.555 318.087C392.206 318.477 392.032 319.054 392.032 319.82C392.032 320.51 392.206 321.05 392.555 321.44C392.911 321.823 393.43 322.014 394.114 322.014ZM412.063 316.149V327.5H410.166L409.838 325.972H409.705C409.465 326.362 409.161 326.687 408.792 326.946C408.423 327.199 408.013 327.387 407.561 327.51C407.11 327.64 406.635 327.705 406.136 327.705C405.282 327.705 404.55 327.562 403.942 327.274C403.34 326.98 402.879 326.529 402.558 325.921C402.236 325.312 402.076 324.526 402.076 323.562V316.149H404.496V323.111C404.496 323.993 404.673 324.653 405.029 325.09C405.391 325.528 405.952 325.747 406.71 325.747C407.442 325.747 408.023 325.596 408.454 325.295C408.884 324.995 409.188 324.55 409.366 323.962C409.551 323.375 409.643 322.653 409.643 321.799V316.149H412.063ZM420.179 315.934C421.614 315.934 422.698 316.251 423.429 316.887C424.167 317.523 424.537 318.514 424.537 319.861V327.5H422.824L422.363 325.89H422.281C421.959 326.3 421.628 326.639 421.286 326.905C420.944 327.172 420.548 327.37 420.097 327.5C419.652 327.637 419.109 327.705 418.466 327.705C417.79 327.705 417.185 327.582 416.651 327.336C416.118 327.083 415.698 326.7 415.39 326.188C415.083 325.675 414.929 325.025 414.929 324.239C414.929 323.07 415.363 322.192 416.231 321.604C417.106 321.016 418.425 320.691 420.189 320.63L422.158 320.558V319.963C422.158 319.177 421.973 318.617 421.604 318.282C421.242 317.947 420.729 317.779 420.066 317.779C419.499 317.779 418.948 317.861 418.415 318.025C417.882 318.189 417.362 318.391 416.856 318.63L416.077 316.928C416.631 316.634 417.26 316.395 417.964 316.21C418.675 316.026 419.413 315.934 420.179 315.934ZM422.147 322.076L420.681 322.127C419.478 322.168 418.634 322.373 418.148 322.742C417.663 323.111 417.42 323.617 417.42 324.26C417.42 324.82 417.588 325.23 417.923 325.49C418.258 325.743 418.699 325.87 419.246 325.87C420.08 325.87 420.77 325.634 421.317 325.162C421.871 324.684 422.147 323.983 422.147 323.06V322.076ZM433.873 315.934C434.064 315.934 434.273 315.944 434.498 315.964C434.724 315.985 434.919 316.012 435.083 316.046L434.857 318.302C434.713 318.261 434.536 318.23 434.324 318.21C434.119 318.189 433.934 318.179 433.77 318.179C433.339 318.179 432.929 318.251 432.54 318.395C432.15 318.531 431.805 318.743 431.504 319.03C431.203 319.311 430.967 319.663 430.796 320.086C430.626 320.51 430.54 321.002 430.54 321.563V327.5H428.12V316.149H430.007L430.335 318.148H430.448C430.673 317.745 430.954 317.376 431.289 317.041C431.624 316.706 432.006 316.439 432.437 316.241C432.875 316.036 433.353 315.934 433.873 315.934ZM441.209 327.705C439.856 327.705 438.769 327.213 437.948 326.229C437.135 325.237 436.728 323.778 436.728 321.85C436.728 319.902 437.142 318.429 437.969 317.431C438.803 316.433 439.9 315.934 441.26 315.934C441.835 315.934 442.337 316.012 442.768 316.169C443.198 316.32 443.567 316.525 443.875 316.785C444.19 317.044 444.456 317.335 444.675 317.656H444.788C444.754 317.444 444.712 317.14 444.665 316.744C444.624 316.34 444.603 315.968 444.603 315.626V311.545H447.023V327.5H445.136L444.706 325.952H444.603C444.398 326.28 444.138 326.577 443.824 326.844C443.516 327.104 443.147 327.312 442.716 327.469C442.293 327.626 441.79 327.705 441.209 327.705ZM441.886 325.747C442.918 325.747 443.646 325.449 444.07 324.854C444.494 324.26 444.712 323.368 444.726 322.178V321.86C444.726 320.589 444.521 319.615 444.111 318.938C443.701 318.254 442.952 317.913 441.865 317.913C440.997 317.913 440.334 318.265 439.876 318.969C439.425 319.666 439.199 320.64 439.199 321.891C439.199 323.142 439.425 324.099 439.876 324.762C440.334 325.418 441.004 325.747 441.886 325.747ZM449.704 322.886V320.845H454.995V322.886H449.704ZM462.239 327.705C461.166 327.705 460.236 327.497 459.45 327.08C458.664 326.663 458.059 326.023 457.635 325.162C457.212 324.301 457 323.207 457 321.881C457 320.5 457.232 319.372 457.697 318.497C458.162 317.622 458.804 316.976 459.625 316.559C460.452 316.142 461.399 315.934 462.465 315.934C463.142 315.934 463.754 316.002 464.3 316.139C464.854 316.269 465.322 316.429 465.705 316.621L464.987 318.548C464.57 318.377 464.143 318.234 463.706 318.118C463.268 318.001 462.848 317.943 462.444 317.943C461.781 317.943 461.228 318.09 460.783 318.384C460.346 318.678 460.018 319.116 459.799 319.697C459.587 320.278 459.481 320.999 459.481 321.86C459.481 322.694 459.59 323.398 459.809 323.973C460.028 324.54 460.353 324.971 460.783 325.265C461.214 325.552 461.744 325.695 462.373 325.695C462.995 325.695 463.552 325.62 464.044 325.47C464.536 325.319 465.001 325.125 465.439 324.885V326.977C465.008 327.223 464.547 327.404 464.054 327.521C463.562 327.644 462.957 327.705 462.239 327.705ZM478.363 321.799C478.363 322.742 478.24 323.58 477.994 324.311C477.748 325.042 477.389 325.661 476.918 326.167C476.446 326.666 475.879 327.049 475.216 327.315C474.552 327.575 473.804 327.705 472.97 327.705C472.191 327.705 471.476 327.575 470.827 327.315C470.177 327.049 469.613 326.666 469.135 326.167C468.663 325.661 468.298 325.042 468.038 324.311C467.778 323.58 467.648 322.742 467.648 321.799C467.648 320.548 467.863 319.488 468.294 318.62C468.732 317.745 469.354 317.079 470.16 316.621C470.967 316.163 471.927 315.934 473.042 315.934C474.088 315.934 475.01 316.163 475.81 316.621C476.61 317.079 477.236 317.745 477.687 318.62C478.138 319.495 478.363 320.555 478.363 321.799ZM470.13 321.799C470.13 322.626 470.229 323.333 470.427 323.921C470.632 324.509 470.946 324.96 471.37 325.275C471.794 325.583 472.341 325.736 473.011 325.736C473.681 325.736 474.228 325.583 474.652 325.275C475.075 324.96 475.386 324.509 475.585 323.921C475.783 323.333 475.882 322.626 475.882 321.799C475.882 320.972 475.783 320.271 475.585 319.697C475.386 319.116 475.075 318.675 474.652 318.374C474.228 318.066 473.677 317.913 473.001 317.913C472.003 317.913 471.275 318.248 470.817 318.917C470.359 319.587 470.13 320.548 470.13 321.799ZM487.094 315.934C487.286 315.934 487.494 315.944 487.72 315.964C487.946 315.985 488.14 316.012 488.304 316.046L488.079 318.302C487.935 318.261 487.758 318.23 487.546 318.21C487.341 318.189 487.156 318.179 486.992 318.179C486.561 318.179 486.151 318.251 485.761 318.395C485.372 318.531 485.027 318.743 484.726 319.03C484.425 319.311 484.189 319.663 484.018 320.086C483.847 320.51 483.762 321.002 483.762 321.563V327.5H481.342V316.149H483.229L483.557 318.148H483.67C483.895 317.745 484.176 317.376 484.51 317.041C484.845 316.706 485.228 316.439 485.659 316.241C486.096 316.036 486.575 315.934 487.094 315.934ZM495.138 315.934C496.15 315.934 497.018 316.142 497.743 316.559C498.468 316.976 499.025 317.567 499.414 318.333C499.804 319.099 499.999 320.015 499.999 321.081V322.373H492.421C492.449 323.474 492.742 324.321 493.303 324.916C493.87 325.511 494.663 325.808 495.682 325.808C496.407 325.808 497.056 325.74 497.63 325.603C498.211 325.459 498.809 325.251 499.425 324.978V326.936C498.857 327.203 498.28 327.397 497.692 327.521C497.104 327.644 496.4 327.705 495.579 327.705C494.465 327.705 493.484 327.49 492.637 327.059C491.796 326.622 491.136 325.972 490.658 325.111C490.186 324.25 489.95 323.18 489.95 321.901C489.95 320.63 490.165 319.55 490.596 318.661C491.027 317.772 491.632 317.096 492.411 316.631C493.19 316.166 494.099 315.934 495.138 315.934ZM495.138 317.749C494.38 317.749 493.764 317.995 493.293 318.487C492.828 318.979 492.554 319.7 492.472 320.65H497.64C497.634 320.083 497.538 319.581 497.353 319.143C497.176 318.706 496.902 318.364 496.533 318.118C496.171 317.872 495.706 317.749 495.138 317.749Z" fill="white"/>
</svg>
