<svg width="1254" height="362" viewBox="0 0 1254 362" fill="none" xmlns="http://www.w3.org/2000/svg">
<rect y="17" width="226" height="103" rx="8" fill="#020202"/>
<rect x="1" y="18" width="224" height="101" rx="7" stroke="white" stroke-opacity="0.9" stroke-width="2"/>
<path d="M102.923 61.5088V71.209C102.923 72.2549 102.701 73.1914 102.257 74.0186C101.819 74.8457 101.156 75.502 100.268 75.9873C99.3788 76.4658 98.2612 76.7051 96.9145 76.7051C94.9936 76.7051 93.5307 76.2026 92.5258 75.1978C91.5278 74.186 91.0287 72.8428 91.0287 71.168V61.5088H93.4897V70.9526C93.4897 72.2036 93.7836 73.1265 94.3715 73.7212C94.9594 74.3159 95.8378 74.6133 97.0068 74.6133C97.8134 74.6133 98.4697 74.4731 98.9755 74.1929C99.4882 73.9058 99.8642 73.4888 100.103 72.9419C100.35 72.3882 100.473 71.7217 100.473 70.9424V61.5088H102.923ZM114.351 73.2598C114.351 74.0049 114.17 74.6338 113.808 75.1465C113.445 75.6592 112.916 76.0488 112.218 76.3154C111.528 76.5752 110.68 76.7051 109.675 76.7051C108.882 76.7051 108.199 76.647 107.624 76.5308C107.057 76.4214 106.52 76.2505 106.015 76.0181V73.9365C106.555 74.1895 107.16 74.4082 107.83 74.5928C108.506 74.7773 109.145 74.8696 109.747 74.8696C110.54 74.8696 111.111 74.7466 111.459 74.5005C111.808 74.2476 111.982 73.9126 111.982 73.4956C111.982 73.2495 111.911 73.0308 111.767 72.8394C111.63 72.6411 111.371 72.4395 110.988 72.2344C110.612 72.0225 110.058 71.7695 109.327 71.4756C108.609 71.1885 108.004 70.9014 107.512 70.6143C107.02 70.3271 106.647 69.9819 106.394 69.5786C106.141 69.1685 106.015 68.6455 106.015 68.0098C106.015 67.0049 106.411 66.2427 107.204 65.7231C108.004 65.1968 109.06 64.9336 110.373 64.9336C111.07 64.9336 111.726 65.0054 112.341 65.1489C112.963 65.2856 113.572 65.4873 114.166 65.7539L113.408 67.5688C112.895 67.3433 112.379 67.1587 111.859 67.0151C111.347 66.8647 110.824 66.7896 110.291 66.7896C109.668 66.7896 109.193 66.8853 108.865 67.0767C108.544 67.2681 108.383 67.5415 108.383 67.897C108.383 68.1636 108.462 68.3892 108.619 68.5737C108.776 68.7583 109.046 68.9429 109.429 69.1274C109.819 69.312 110.359 69.541 111.049 69.8145C111.726 70.0742 112.311 70.3477 112.803 70.6348C113.302 70.915 113.685 71.2603 113.951 71.6704C114.218 72.0806 114.351 72.6104 114.351 73.2598ZM121.688 64.9336C122.699 64.9336 123.567 65.1421 124.292 65.5591C125.017 65.9761 125.574 66.5674 125.963 67.333C126.353 68.0986 126.548 69.0146 126.548 70.0811V71.373H118.97C118.998 72.4736 119.292 73.3213 119.852 73.916C120.419 74.5107 121.212 74.8081 122.231 74.8081C122.956 74.8081 123.605 74.7397 124.179 74.603C124.76 74.4595 125.358 74.251 125.974 73.9775V75.936C125.406 76.2026 124.829 76.3975 124.241 76.5205C123.653 76.6436 122.949 76.7051 122.128 76.7051C121.014 76.7051 120.033 76.4897 119.186 76.0591C118.345 75.6216 117.685 74.9722 117.207 74.1108C116.735 73.2495 116.499 72.1797 116.499 70.9014C116.499 69.6299 116.714 68.5498 117.145 67.6611C117.576 66.7725 118.181 66.0957 118.96 65.6309C119.739 65.166 120.648 64.9336 121.688 64.9336ZM121.688 66.7485C120.929 66.7485 120.313 66.9946 119.842 67.4868C119.377 67.979 119.104 68.7002 119.021 69.6504H124.189C124.183 69.083 124.087 68.5806 123.902 68.1431C123.725 67.7056 123.451 67.3638 123.082 67.1177C122.72 66.8716 122.255 66.7485 121.688 66.7485ZM135.228 64.9336C135.419 64.9336 135.628 64.9438 135.853 64.9644C136.079 64.9849 136.273 65.0122 136.438 65.0464L136.212 67.3022C136.068 67.2612 135.891 67.2305 135.679 67.21C135.474 67.1895 135.289 67.1792 135.125 67.1792C134.694 67.1792 134.284 67.251 133.895 67.3945C133.505 67.5312 133.16 67.7432 132.859 68.0303C132.558 68.3105 132.322 68.6626 132.151 69.0864C131.981 69.5103 131.895 70.0024 131.895 70.563V76.5H129.475V65.1489H131.362L131.69 67.1484H131.803C132.028 66.7451 132.309 66.376 132.644 66.041C132.979 65.7061 133.361 65.4395 133.792 65.2412C134.23 65.0361 134.708 64.9336 135.228 64.9336Z" fill="white"/>
<rect x="510" y="259" width="226" height="103" rx="8" fill="#020202"/>
<rect x="511" y="260" width="224" height="101" rx="7" stroke="white" stroke-opacity="0.9" stroke-width="2"/>
<path d="M603.656 318.5V303.509H606.117V316.408H612.485V318.5H603.656ZM615.289 318.5V303.509H617.75V316.408H624.118V318.5H615.289ZM633.392 318.5L629.075 305.98H628.983C629.003 306.26 629.027 306.643 629.055 307.128C629.082 307.614 629.106 308.133 629.127 308.687C629.147 309.241 629.157 309.771 629.157 310.276V318.5H626.922V303.509H630.377L634.53 315.475H634.592L638.888 303.509H642.334V318.5H639.985V310.153C639.985 309.695 639.992 309.2 640.006 308.667C640.026 308.133 640.047 307.627 640.067 307.149C640.095 306.67 640.115 306.288 640.129 306H640.047L635.566 318.5H633.392Z" fill="white"/>
<rect x="1028" y="17" width="226" height="103" rx="8" fill="#020202"/>
<rect x="1029" y="18" width="224" height="101" rx="7" stroke="white" stroke-opacity="0.9" stroke-width="2"/>
<path d="M1076 63.3853C1075.29 63.3853 1074.64 63.5151 1074.08 63.7749C1073.52 64.0347 1073.04 64.4106 1072.65 64.9028C1072.26 65.3882 1071.96 65.9795 1071.76 66.6768C1071.55 67.3672 1071.45 68.1465 1071.45 69.0146C1071.45 70.1768 1071.62 71.1782 1071.94 72.019C1072.27 72.853 1072.77 73.4956 1073.44 73.9468C1074.11 74.3911 1074.96 74.6133 1075.98 74.6133C1076.62 74.6133 1077.24 74.5518 1077.84 74.4287C1078.44 74.3057 1079.06 74.1382 1079.71 73.9263V76.0181C1079.1 76.2573 1078.48 76.4316 1077.86 76.541C1077.24 76.6504 1076.52 76.7051 1075.71 76.7051C1074.18 76.7051 1072.9 76.3872 1071.89 75.7515C1070.89 75.1157 1070.14 74.2202 1069.64 73.0649C1069.14 71.9097 1068.9 70.5562 1068.9 69.0044C1068.9 67.8696 1069.06 66.8306 1069.37 65.8872C1069.68 64.9438 1070.14 64.1304 1070.74 63.4468C1071.35 62.7563 1072.09 62.2266 1072.97 61.8574C1073.86 61.4814 1074.87 61.2935 1076.01 61.2935C1076.77 61.2935 1077.5 61.3789 1078.23 61.5498C1078.96 61.7139 1079.64 61.9497 1080.26 62.2573L1079.4 64.2876C1078.88 64.0415 1078.34 63.8296 1077.77 63.6519C1077.2 63.4741 1076.61 63.3853 1076 63.3853ZM1092.94 70.7988C1092.94 71.7422 1092.82 72.5796 1092.57 73.311C1092.32 74.0425 1091.96 74.6611 1091.49 75.167C1091.02 75.666 1090.45 76.0488 1089.79 76.3154C1089.13 76.5752 1088.38 76.7051 1087.54 76.7051C1086.77 76.7051 1086.05 76.5752 1085.4 76.3154C1084.75 76.0488 1084.19 75.666 1083.71 75.167C1083.24 74.6611 1082.87 74.0425 1082.61 73.311C1082.35 72.5796 1082.22 71.7422 1082.22 70.7988C1082.22 69.5479 1082.44 68.4883 1082.87 67.6201C1083.31 66.7451 1083.93 66.0786 1084.74 65.6206C1085.54 65.1626 1086.5 64.9336 1087.62 64.9336C1088.66 64.9336 1089.59 65.1626 1090.39 65.6206C1091.18 66.0786 1091.81 66.7451 1092.26 67.6201C1092.71 68.4951 1092.94 69.5547 1092.94 70.7988ZM1084.7 70.7988C1084.7 71.626 1084.8 72.3335 1085 72.9214C1085.21 73.5093 1085.52 73.9604 1085.95 74.2749C1086.37 74.5825 1086.92 74.7363 1087.59 74.7363C1088.26 74.7363 1088.8 74.5825 1089.23 74.2749C1089.65 73.9604 1089.96 73.5093 1090.16 72.9214C1090.36 72.3335 1090.46 71.626 1090.46 70.7988C1090.46 69.9717 1090.36 69.271 1090.16 68.6968C1089.96 68.1157 1089.65 67.6748 1089.23 67.374C1088.8 67.0664 1088.25 66.9126 1087.58 66.9126C1086.58 66.9126 1085.85 67.2476 1085.39 67.9175C1084.93 68.5874 1084.7 69.5479 1084.7 70.7988ZM1099.73 76.7051C1098.38 76.7051 1097.29 76.2129 1096.47 75.2285C1095.66 74.2373 1095.25 72.7778 1095.25 70.8501C1095.25 68.9019 1095.66 67.4287 1096.49 66.4307C1097.33 65.4326 1098.42 64.9336 1099.78 64.9336C1100.36 64.9336 1100.86 65.0122 1101.29 65.1694C1101.72 65.3198 1102.09 65.5249 1102.4 65.7847C1102.71 66.0444 1102.98 66.335 1103.2 66.6562H1103.31C1103.28 66.4443 1103.23 66.1401 1103.19 65.7437C1103.15 65.3403 1103.13 64.9678 1103.13 64.626V60.5449H1105.55V76.5H1103.66L1103.23 74.9517H1103.13C1102.92 75.2798 1102.66 75.5771 1102.35 75.8438C1102.04 76.1035 1101.67 76.312 1101.24 76.4692C1100.81 76.6265 1100.31 76.7051 1099.73 76.7051ZM1100.41 74.7466C1101.44 74.7466 1102.17 74.4492 1102.59 73.8545C1103.02 73.2598 1103.23 72.3677 1103.25 71.1782V70.8604C1103.25 69.5889 1103.04 68.6147 1102.63 67.938C1102.22 67.2544 1101.47 66.9126 1100.39 66.9126C1099.52 66.9126 1098.86 67.2646 1098.4 67.9688C1097.95 68.666 1097.72 69.6401 1097.72 70.8911C1097.72 72.1421 1097.95 73.0991 1098.4 73.7622C1098.86 74.4185 1099.53 74.7466 1100.41 74.7466ZM1113.73 64.9336C1114.74 64.9336 1115.61 65.1421 1116.34 65.5591C1117.06 65.9761 1117.62 66.5674 1118.01 67.333C1118.4 68.0986 1118.59 69.0146 1118.59 70.0811V71.373H1111.02C1111.04 72.4736 1111.34 73.3213 1111.9 73.916C1112.46 74.5107 1113.26 74.8081 1114.28 74.8081C1115 74.8081 1115.65 74.7397 1116.22 74.603C1116.81 74.4595 1117.4 74.251 1118.02 73.9775V75.936C1117.45 76.2026 1116.87 76.3975 1116.29 76.5205C1115.7 76.6436 1114.99 76.7051 1114.17 76.7051C1113.06 76.7051 1112.08 76.4897 1111.23 76.0591C1110.39 75.6216 1109.73 74.9722 1109.25 74.1108C1108.78 73.2495 1108.54 72.1797 1108.54 70.9014C1108.54 69.6299 1108.76 68.5498 1109.19 67.6611C1109.62 66.7725 1110.23 66.0957 1111.01 65.6309C1111.78 65.166 1112.69 64.9336 1113.73 64.9336ZM1113.73 66.7485C1112.97 66.7485 1112.36 66.9946 1111.89 67.4868C1111.42 67.979 1111.15 68.7002 1111.07 69.6504H1116.23C1116.23 69.083 1116.13 68.5806 1115.95 68.1431C1115.77 67.7056 1115.5 67.3638 1115.13 67.1177C1114.77 66.8716 1114.3 66.7485 1113.73 66.7485ZM1136.09 72.4189C1136.09 73.3076 1135.87 74.0732 1135.43 74.7158C1135 75.3584 1134.38 75.8506 1133.56 76.1924C1132.76 76.5342 1131.79 76.7051 1130.67 76.7051C1130.12 76.7051 1129.6 76.6743 1129.1 76.6128C1128.6 76.5513 1128.13 76.4624 1127.69 76.3462C1127.25 76.2231 1126.85 76.0762 1126.49 75.9053V73.5879C1127.1 73.8545 1127.78 74.0972 1128.53 74.3159C1129.28 74.5278 1130.05 74.6338 1130.83 74.6338C1131.46 74.6338 1131.99 74.5518 1132.4 74.3877C1132.83 74.2168 1133.14 73.9775 1133.35 73.6699C1133.55 73.3555 1133.66 72.9897 1133.66 72.5728C1133.66 72.1284 1133.54 71.7524 1133.3 71.4448C1133.06 71.1372 1132.7 70.8569 1132.21 70.604C1131.73 70.3442 1131.13 70.0674 1130.41 69.7734C1129.91 69.5752 1129.44 69.3496 1128.99 69.0967C1128.55 68.8438 1128.15 68.5464 1127.8 68.2046C1127.45 67.8628 1127.18 67.4595 1126.97 66.9946C1126.77 66.5229 1126.67 65.9692 1126.67 65.3335C1126.67 64.4858 1126.87 63.7612 1127.28 63.1597C1127.69 62.5581 1128.26 62.0967 1129 61.7754C1129.75 61.4541 1130.61 61.2935 1131.6 61.2935C1132.39 61.2935 1133.13 61.3755 1133.82 61.5396C1134.52 61.7036 1135.2 61.936 1135.87 62.2368L1135.09 64.2158C1134.48 63.9629 1133.88 63.7612 1133.3 63.6108C1132.72 63.4604 1132.13 63.3853 1131.53 63.3853C1131.01 63.3853 1130.57 63.4639 1130.21 63.6211C1129.85 63.7783 1129.57 64.0005 1129.38 64.2876C1129.2 64.5679 1129.1 64.9028 1129.1 65.2925C1129.1 65.73 1129.21 66.0991 1129.42 66.3999C1129.64 66.6938 1129.97 66.9639 1130.43 67.21C1130.88 67.4561 1131.47 67.7295 1132.19 68.0303C1133.02 68.3721 1133.72 68.731 1134.29 69.1069C1134.87 69.4829 1135.32 69.9341 1135.62 70.4604C1135.93 70.98 1136.09 71.6328 1136.09 72.4189ZM1143.39 64.9336C1144.83 64.9336 1145.91 65.2515 1146.64 65.8872C1147.38 66.5229 1147.75 67.5142 1147.75 68.8608V76.5H1146.04L1145.58 74.8901H1145.49C1145.17 75.3003 1144.84 75.6387 1144.5 75.9053C1144.16 76.1719 1143.76 76.3701 1143.31 76.5C1142.87 76.6367 1142.32 76.7051 1141.68 76.7051C1141 76.7051 1140.4 76.582 1139.86 76.3359C1139.33 76.083 1138.91 75.7002 1138.6 75.1875C1138.3 74.6748 1138.14 74.0254 1138.14 73.2393C1138.14 72.0703 1138.58 71.1919 1139.44 70.604C1140.32 70.0161 1141.64 69.6914 1143.4 69.6299L1145.37 69.5581V68.9634C1145.37 68.1772 1145.19 67.6167 1144.82 67.2817C1144.45 66.9468 1143.94 66.7793 1143.28 66.7793C1142.71 66.7793 1142.16 66.8613 1141.63 67.0254C1141.09 67.1895 1140.58 67.3911 1140.07 67.6304L1139.29 65.9282C1139.84 65.6343 1140.47 65.395 1141.18 65.2104C1141.89 65.0259 1142.63 64.9336 1143.39 64.9336ZM1145.36 71.0757L1143.89 71.127C1142.69 71.168 1141.85 71.373 1141.36 71.7422C1140.88 72.1113 1140.63 72.6172 1140.63 73.2598C1140.63 73.8203 1140.8 74.2305 1141.14 74.4902C1141.47 74.7432 1141.91 74.8696 1142.46 74.8696C1143.29 74.8696 1143.98 74.6338 1144.53 74.1621C1145.08 73.6836 1145.36 72.9829 1145.36 72.0601V71.0757ZM1157.25 64.9336C1158.53 64.9336 1159.52 65.2651 1160.23 65.9282C1160.95 66.5845 1161.31 67.6406 1161.31 69.0967V76.5H1158.9V69.5479C1158.9 68.666 1158.72 68.0063 1158.36 67.5688C1157.99 67.1245 1157.43 66.9023 1156.68 66.9023C1155.57 66.9023 1154.81 67.2407 1154.38 67.9175C1153.95 68.5942 1153.74 69.5752 1153.74 70.8604V76.5H1151.33V65.1489H1153.21L1153.55 66.687H1153.68C1153.93 66.2905 1154.23 65.9658 1154.59 65.7129C1154.96 65.4531 1155.37 65.2583 1155.82 65.1284C1156.28 64.9985 1156.76 64.9336 1157.25 64.9336ZM1168.71 76.7051C1167.35 76.7051 1166.27 76.2129 1165.45 75.2285C1164.63 74.2373 1164.23 72.7778 1164.23 70.8501C1164.23 68.9019 1164.64 67.4287 1165.47 66.4307C1166.3 65.4326 1167.4 64.9336 1168.76 64.9336C1169.33 64.9336 1169.84 65.0122 1170.27 65.1694C1170.7 65.3198 1171.07 65.5249 1171.37 65.7847C1171.69 66.0444 1171.96 66.335 1172.17 66.6562H1172.29C1172.25 66.4443 1172.21 66.1401 1172.16 65.7437C1172.12 65.3403 1172.1 64.9678 1172.1 64.626V60.5449H1174.52V76.5H1172.64L1172.2 74.9517H1172.1C1171.9 75.2798 1171.64 75.5771 1171.32 75.8438C1171.02 76.1035 1170.65 76.312 1170.22 76.4692C1169.79 76.6265 1169.29 76.7051 1168.71 76.7051ZM1169.38 74.7466C1170.42 74.7466 1171.15 74.4492 1171.57 73.8545C1171.99 73.2598 1172.21 72.3677 1172.23 71.1782V70.8604C1172.23 69.5889 1172.02 68.6147 1171.61 67.938C1171.2 67.2544 1170.45 66.9126 1169.36 66.9126C1168.5 66.9126 1167.83 67.2646 1167.38 67.9688C1166.92 68.666 1166.7 69.6401 1166.7 70.8911C1166.7 72.1421 1166.92 73.0991 1167.38 73.7622C1167.83 74.4185 1168.5 74.7466 1169.38 74.7466ZM1180.6 60.5449V64.3901C1180.6 64.8345 1180.58 65.272 1180.56 65.7026C1180.54 66.1265 1180.52 66.458 1180.49 66.6973H1180.6C1180.9 66.2051 1181.33 65.7915 1181.88 65.4565C1182.43 65.1147 1183.14 64.9438 1184 64.9438C1185.35 64.9438 1186.43 65.4395 1187.25 66.4307C1188.07 67.415 1188.48 68.8745 1188.48 70.8091C1188.48 72.0942 1188.29 73.1743 1187.92 74.0493C1187.54 74.9243 1187.01 75.5874 1186.33 76.0386C1185.65 76.4829 1184.86 76.7051 1183.94 76.7051C1183.08 76.7051 1182.38 76.5479 1181.85 76.2334C1181.32 75.9121 1180.91 75.5396 1180.61 75.1157H1180.43L1179.99 76.5H1178.19V60.5449H1180.6ZM1183.37 66.9023C1182.68 66.9023 1182.14 67.0391 1181.74 67.3125C1181.34 67.5859 1181.05 67.9961 1180.87 68.543C1180.7 69.083 1180.6 69.77 1180.6 70.604V70.8193C1180.6 72.084 1180.8 73.0513 1181.19 73.7212C1181.6 74.3911 1182.33 74.7261 1183.39 74.7261C1184.23 74.7261 1184.87 74.3877 1185.32 73.7109C1185.78 73.0273 1186 72.0498 1186 70.7783C1186 69.4932 1185.78 68.5259 1185.32 67.8765C1184.88 67.2271 1184.23 66.9023 1183.37 66.9023ZM1201.53 70.7988C1201.53 71.7422 1201.41 72.5796 1201.16 73.311C1200.92 74.0425 1200.56 74.6611 1200.08 75.167C1199.61 75.666 1199.05 76.0488 1198.38 76.3154C1197.72 76.5752 1196.97 76.7051 1196.14 76.7051C1195.36 76.7051 1194.64 76.5752 1193.99 76.3154C1193.34 76.0488 1192.78 75.666 1192.3 75.167C1191.83 74.6611 1191.46 74.0425 1191.2 73.311C1190.95 72.5796 1190.82 71.7422 1190.82 70.7988C1190.82 69.5479 1191.03 68.4883 1191.46 67.6201C1191.9 66.7451 1192.52 66.0786 1193.33 65.6206C1194.13 65.1626 1195.09 64.9336 1196.21 64.9336C1197.25 64.9336 1198.18 65.1626 1198.98 65.6206C1199.78 66.0786 1200.4 66.7451 1200.85 67.6201C1201.3 68.4951 1201.53 69.5547 1201.53 70.7988ZM1193.3 70.7988C1193.3 71.626 1193.4 72.3335 1193.59 72.9214C1193.8 73.5093 1194.11 73.9604 1194.54 74.2749C1194.96 74.5825 1195.51 74.7363 1196.18 74.7363C1196.85 74.7363 1197.39 74.5825 1197.82 74.2749C1198.24 73.9604 1198.55 73.5093 1198.75 72.9214C1198.95 72.3335 1199.05 71.626 1199.05 70.7988C1199.05 69.9717 1198.95 69.271 1198.75 68.6968C1198.55 68.1157 1198.24 67.6748 1197.82 67.374C1197.39 67.0664 1196.84 66.9126 1196.17 66.9126C1195.17 66.9126 1194.44 67.2476 1193.98 67.9175C1193.53 68.5874 1193.3 69.5479 1193.3 70.7988ZM1207.02 70.6963L1203.23 65.1489H1205.98L1208.57 69.1377L1211.17 65.1489H1213.91L1210.1 70.6963L1214.11 76.5H1211.35L1208.57 72.2446L1205.78 76.5H1203.04L1207.02 70.6963Z" fill="white"/>
<rect width="106" height="18" transform="translate(1087.5 8)" fill="#020202"/>
<path d="M1099.75 10.7143C1099.44 10.7143 1099.19 10.9714 1099.19 11.2857V13.5714C1099.19 13.8857 1099.44 14.1429 1099.75 14.1429H1113.25C1113.56 14.1429 1113.81 13.8857 1113.81 13.5714V11.2857C1113.81 10.9714 1113.56 10.7143 1113.25 10.7143H1099.75ZM1097.5 11.2857C1097.5 10.025 1098.51 9 1099.75 9H1113.25C1114.49 9 1115.5 10.025 1115.5 11.2857V13.5714C1115.5 14.8321 1114.49 15.8571 1113.25 15.8571H1099.75C1098.51 15.8571 1097.5 14.8321 1097.5 13.5714V11.2857ZM1099.75 19.8571C1099.44 19.8571 1099.19 20.1143 1099.19 20.4286V22.7143C1099.19 23.0286 1099.44 23.2857 1099.75 23.2857H1113.25C1113.56 23.2857 1113.81 23.0286 1113.81 22.7143V20.4286C1113.81 20.1143 1113.56 19.8571 1113.25 19.8571H1099.75ZM1097.5 20.4286C1097.5 19.1679 1098.51 18.1429 1099.75 18.1429H1113.25C1114.49 18.1429 1115.5 19.1679 1115.5 20.4286V22.7143C1115.5 23.975 1114.49 25 1113.25 25H1099.75C1098.51 25 1097.5 23.975 1097.5 22.7143V20.4286ZM1111.28 21.5714C1111.28 21.3441 1111.37 21.1261 1111.53 20.9653C1111.69 20.8046 1111.9 20.7143 1112.12 20.7143C1112.35 20.7143 1112.56 20.8046 1112.72 20.9653C1112.88 21.1261 1112.97 21.3441 1112.97 21.5714C1112.97 21.7988 1112.88 22.0168 1112.72 22.1775C1112.56 22.3383 1112.35 22.4286 1112.12 22.4286C1111.9 22.4286 1111.69 22.3383 1111.53 22.1775C1111.37 22.0168 1111.28 21.7988 1111.28 21.5714ZM1112.12 11.5714C1112.35 11.5714 1112.56 11.6617 1112.72 11.8225C1112.88 11.9832 1112.97 12.2012 1112.97 12.4286C1112.97 12.6559 1112.88 12.8739 1112.72 13.0347C1112.56 13.1954 1112.35 13.2857 1112.12 13.2857C1111.9 13.2857 1111.69 13.1954 1111.53 13.0347C1111.37 12.8739 1111.28 12.6559 1111.28 12.4286C1111.28 12.2012 1111.37 11.9832 1111.53 11.8225C1111.69 11.6617 1111.9 11.5714 1112.12 11.5714ZM1109.03 21.5714C1109.03 21.3441 1109.12 21.1261 1109.28 20.9653C1109.44 20.8046 1109.65 20.7143 1109.88 20.7143C1110.1 20.7143 1110.31 20.8046 1110.47 20.9653C1110.63 21.1261 1110.72 21.3441 1110.72 21.5714C1110.72 21.7988 1110.63 22.0168 1110.47 22.1775C1110.31 22.3383 1110.1 22.4286 1109.88 22.4286C1109.65 22.4286 1109.44 22.3383 1109.28 22.1775C1109.12 22.0168 1109.03 21.7988 1109.03 21.5714ZM1109.88 11.5714C1110.1 11.5714 1110.31 11.6617 1110.47 11.8225C1110.63 11.9832 1110.72 12.2012 1110.72 12.4286C1110.72 12.6559 1110.63 12.8739 1110.47 13.0347C1110.31 13.1954 1110.1 13.2857 1109.88 13.2857C1109.65 13.2857 1109.44 13.1954 1109.28 13.0347C1109.12 12.8739 1109.03 12.6559 1109.03 12.4286C1109.03 12.2012 1109.12 11.9832 1109.28 11.8225C1109.44 11.6617 1109.65 11.5714 1109.88 11.5714Z" fill="#FF5C00"/>
<path d="M1126.11 13.8813C1125.67 13.8813 1125.27 13.9618 1124.92 14.1226C1124.57 14.2834 1124.28 14.5161 1124.04 14.8208C1123.8 15.1213 1123.61 15.4873 1123.49 15.9189C1123.36 16.3464 1123.3 16.8288 1123.3 17.3662C1123.3 18.0856 1123.4 18.7056 1123.6 19.2261C1123.8 19.7424 1124.11 20.1401 1124.53 20.4194C1124.94 20.6945 1125.47 20.832 1126.1 20.832C1126.5 20.832 1126.88 20.7939 1127.25 20.7178C1127.62 20.6416 1128.01 20.5379 1128.41 20.4067V21.7017C1128.03 21.8498 1127.65 21.9577 1127.26 22.0254C1126.88 22.0931 1126.43 22.127 1125.93 22.127C1124.98 22.127 1124.2 21.9302 1123.57 21.5366C1122.95 21.1431 1122.48 20.5887 1122.17 19.8735C1121.87 19.1584 1121.72 18.3205 1121.72 17.3599C1121.72 16.6574 1121.81 16.0142 1122.01 15.4302C1122.2 14.8462 1122.49 14.3426 1122.86 13.9194C1123.23 13.492 1123.69 13.1641 1124.24 12.9355C1124.79 12.7028 1125.41 12.5864 1126.12 12.5864C1126.59 12.5864 1127.04 12.6393 1127.49 12.7451C1127.94 12.8467 1128.36 12.9927 1128.75 13.1831L1128.22 14.4399C1127.89 14.2876 1127.56 14.1564 1127.21 14.0464C1126.85 13.9364 1126.49 13.8813 1126.11 13.8813ZM1136.47 18.4707C1136.47 19.0547 1136.39 19.5731 1136.24 20.0259C1136.09 20.4787 1135.86 20.8617 1135.57 21.1748C1135.28 21.4837 1134.93 21.7207 1134.52 21.8857C1134.11 22.0465 1133.64 22.127 1133.13 22.127C1132.65 22.127 1132.2 22.0465 1131.8 21.8857C1131.4 21.7207 1131.05 21.4837 1130.75 21.1748C1130.46 20.8617 1130.24 20.4787 1130.08 20.0259C1129.91 19.5731 1129.83 19.0547 1129.83 18.4707C1129.83 17.6963 1129.97 17.0404 1130.23 16.5029C1130.5 15.9613 1130.89 15.5487 1131.39 15.2651C1131.89 14.9816 1132.48 14.8398 1133.17 14.8398C1133.82 14.8398 1134.39 14.9816 1134.89 15.2651C1135.38 15.5487 1135.77 15.9613 1136.05 16.5029C1136.33 17.0446 1136.47 17.7005 1136.47 18.4707ZM1131.37 18.4707C1131.37 18.9827 1131.43 19.4207 1131.55 19.7847C1131.68 20.1486 1131.88 20.4279 1132.14 20.6226C1132.4 20.813 1132.74 20.9082 1133.15 20.9082C1133.57 20.9082 1133.91 20.813 1134.17 20.6226C1134.43 20.4279 1134.62 20.1486 1134.75 19.7847C1134.87 19.4207 1134.93 18.9827 1134.93 18.4707C1134.93 17.9587 1134.87 17.5249 1134.75 17.1694C1134.62 16.8097 1134.43 16.5368 1134.17 16.3506C1133.91 16.1602 1133.57 16.0649 1133.15 16.0649C1132.53 16.0649 1132.08 16.2723 1131.8 16.687C1131.51 17.1017 1131.37 17.6963 1131.37 18.4707ZM1141.84 14.8398C1142.64 14.8398 1143.25 15.0451 1143.69 15.4556C1144.14 15.8618 1144.36 16.5156 1144.36 17.417V22H1142.87V17.6963C1142.87 17.1504 1142.75 16.742 1142.53 16.4712C1142.31 16.1961 1141.96 16.0586 1141.49 16.0586C1140.81 16.0586 1140.33 16.2681 1140.07 16.687C1139.8 17.106 1139.67 17.7132 1139.67 18.5088V22H1138.18V14.9731H1139.34L1139.55 15.9253H1139.63C1139.79 15.6799 1139.98 15.4788 1140.2 15.3223C1140.43 15.1615 1140.68 15.0409 1140.96 14.9604C1141.24 14.88 1141.54 14.8398 1141.84 14.8398ZM1149.06 20.9209C1149.26 20.9209 1149.45 20.904 1149.64 20.8701C1149.83 20.832 1150 20.7876 1150.16 20.7368V21.8667C1149.99 21.9386 1149.78 22 1149.52 22.0508C1149.26 22.1016 1148.98 22.127 1148.7 22.127C1148.3 22.127 1147.94 22.0614 1147.63 21.9302C1147.31 21.7948 1147.06 21.5641 1146.87 21.2383C1146.68 20.9124 1146.59 20.4618 1146.59 19.8862V16.1094H1145.63V15.4429L1146.66 14.916L1147.15 13.4116H1148.09V14.9731H1150.1V16.1094H1148.09V19.8672C1148.09 20.2227 1148.18 20.4871 1148.36 20.6606C1148.53 20.8341 1148.77 20.9209 1149.06 20.9209ZM1154.34 14.8398C1155.23 14.8398 1155.9 15.0366 1156.35 15.4302C1156.81 15.8237 1157.04 16.4373 1157.04 17.271V22H1155.98L1155.69 21.0034H1155.64C1155.44 21.2573 1155.24 21.4668 1155.03 21.6318C1154.82 21.7969 1154.57 21.9196 1154.29 22C1154.02 22.0846 1153.68 22.127 1153.28 22.127C1152.86 22.127 1152.49 22.0508 1152.16 21.8984C1151.83 21.7419 1151.57 21.5049 1151.38 21.1875C1151.19 20.8701 1151.09 20.4681 1151.09 19.9814C1151.09 19.2578 1151.36 18.714 1151.9 18.3501C1152.44 17.9862 1153.26 17.7852 1154.35 17.7471L1155.57 17.7026V17.3345C1155.57 16.8478 1155.45 16.5008 1155.22 16.2935C1155 16.0861 1154.68 15.9824 1154.27 15.9824C1153.92 15.9824 1153.58 16.0332 1153.25 16.1348C1152.92 16.2363 1152.6 16.3612 1152.29 16.5093L1151.8 15.4556C1152.15 15.2736 1152.54 15.1255 1152.97 15.0112C1153.41 14.897 1153.87 14.8398 1154.34 14.8398ZM1155.56 18.6421L1154.65 18.6738C1153.91 18.6992 1153.39 18.8262 1153.09 19.0547C1152.78 19.2832 1152.63 19.5964 1152.63 19.9941C1152.63 20.3411 1152.74 20.5951 1152.95 20.7559C1153.15 20.9124 1153.43 20.9907 1153.76 20.9907C1154.28 20.9907 1154.71 20.8447 1155.05 20.5527C1155.39 20.2565 1155.56 19.8228 1155.56 19.2515V18.6421ZM1160.62 14.9731V22H1159.13V14.9731H1160.62ZM1159.88 12.2817C1160.11 12.2817 1160.31 12.3431 1160.47 12.4658C1160.64 12.5885 1160.73 12.8001 1160.73 13.1006C1160.73 13.3968 1160.64 13.6084 1160.47 13.7354C1160.31 13.8581 1160.11 13.9194 1159.88 13.9194C1159.65 13.9194 1159.45 13.8581 1159.28 13.7354C1159.12 13.6084 1159.04 13.3968 1159.04 13.1006C1159.04 12.8001 1159.12 12.5885 1159.28 12.4658C1159.45 12.3431 1159.65 12.2817 1159.88 12.2817ZM1166.42 14.8398C1167.21 14.8398 1167.83 15.0451 1168.27 15.4556C1168.71 15.8618 1168.94 16.5156 1168.94 17.417V22H1167.44V17.6963C1167.44 17.1504 1167.33 16.742 1167.11 16.4712C1166.88 16.1961 1166.54 16.0586 1166.07 16.0586C1165.39 16.0586 1164.91 16.2681 1164.64 16.687C1164.38 17.106 1164.25 17.7132 1164.25 18.5088V22H1162.76V14.9731H1163.92L1164.13 15.9253H1164.21C1164.37 15.6799 1164.55 15.4788 1164.78 15.3223C1165.01 15.1615 1165.26 15.0409 1165.54 14.9604C1165.82 14.88 1166.12 14.8398 1166.42 14.8398ZM1173.82 14.8398C1174.45 14.8398 1174.99 14.9689 1175.44 15.2271C1175.88 15.4852 1176.23 15.8512 1176.47 16.3252C1176.71 16.7992 1176.83 17.3662 1176.83 18.0264V18.8262H1172.14C1172.16 19.5075 1172.34 20.0322 1172.69 20.4004C1173.04 20.7686 1173.53 20.9526 1174.16 20.9526C1174.61 20.9526 1175.01 20.9103 1175.37 20.8257C1175.73 20.7368 1176.1 20.6077 1176.48 20.4385V21.6509C1176.13 21.8159 1175.77 21.9365 1175.4 22.0127C1175.04 22.0889 1174.6 22.127 1174.1 22.127C1173.41 22.127 1172.8 21.9937 1172.27 21.7271C1171.75 21.4562 1171.35 21.0542 1171.05 20.521C1170.76 19.9878 1170.61 19.3255 1170.61 18.5342C1170.61 17.7471 1170.74 17.0785 1171.01 16.5283C1171.28 15.9782 1171.65 15.5592 1172.13 15.2715C1172.62 14.9837 1173.18 14.8398 1173.82 14.8398ZM1173.82 15.9634C1173.35 15.9634 1172.97 16.1157 1172.68 16.4204C1172.39 16.7251 1172.22 17.1715 1172.17 17.7598H1175.37C1175.37 17.4085 1175.31 17.0975 1175.19 16.8267C1175.08 16.5558 1174.92 16.3442 1174.69 16.1919C1174.46 16.0396 1174.17 15.9634 1173.82 15.9634ZM1182.08 14.8398C1182.19 14.8398 1182.32 14.8462 1182.46 14.8589C1182.6 14.8716 1182.72 14.8885 1182.82 14.9097L1182.68 16.3062C1182.6 16.2808 1182.49 16.2617 1182.35 16.249C1182.23 16.2363 1182.11 16.23 1182.01 16.23C1181.75 16.23 1181.49 16.2744 1181.25 16.3633C1181.01 16.4479 1180.8 16.5791 1180.61 16.7568C1180.42 16.9303 1180.28 17.1483 1180.17 17.4106C1180.07 17.673 1180.01 17.9777 1180.01 18.3247V22H1178.51V14.9731H1179.68L1179.89 16.2109H1179.96C1180.09 15.9613 1180.27 15.7327 1180.48 15.5254C1180.68 15.318 1180.92 15.153 1181.19 15.0303C1181.46 14.9033 1181.75 14.8398 1182.08 14.8398Z" fill="#FF5C00"/>
<path d="M497.707 73.7071C498.098 73.3166 498.098 72.6834 497.707 72.2929L491.343 65.9289C490.953 65.5384 490.319 65.5384 489.929 65.9289C489.538 66.3195 489.538 66.9526 489.929 67.3431L495.586 73L489.929 78.6569C489.538 79.0474 489.538 79.6805 489.929 80.0711C490.319 80.4616 490.953 80.4616 491.343 80.0711L497.707 73.7071ZM240 73V74H497V73V72H240V73Z" fill="white"/>
<path d="M1011.71 73.7071C1012.1 73.3166 1012.1 72.6834 1011.71 72.2929L1005.34 65.9289C1004.95 65.5384 1004.32 65.5384 1003.93 65.9289C1003.54 66.3195 1003.54 66.9526 1003.93 67.3431L1009.59 73L1003.93 78.6569C1003.54 79.0474 1003.54 79.6805 1003.93 80.0711C1004.32 80.4616 1004.95 80.4616 1005.34 80.0711L1011.71 73.7071ZM751 73V74H1011V73V72H751V73Z" fill="white"/>
<rect width="172" height="88" transform="translate(784 29)" fill="#020202"/>
<path d="M845.858 52.9189C845.858 53.8076 845.639 54.5732 845.202 55.2158C844.771 55.8584 844.149 56.3506 843.335 56.6924C842.529 57.0342 841.565 57.2051 840.444 57.2051C839.897 57.2051 839.374 57.1743 838.875 57.1128C838.376 57.0513 837.904 56.9624 837.46 56.8462C837.022 56.7231 836.622 56.5762 836.26 56.4053V54.0879C836.869 54.3545 837.549 54.5972 838.301 54.8159C839.053 55.0278 839.818 55.1338 840.598 55.1338C841.233 55.1338 841.76 55.0518 842.177 54.8877C842.6 54.7168 842.915 54.4775 843.12 54.1699C843.325 53.8555 843.428 53.4897 843.428 53.0728C843.428 52.6284 843.308 52.2524 843.069 51.9448C842.829 51.6372 842.467 51.3569 841.982 51.104C841.503 50.8442 840.902 50.5674 840.177 50.2734C839.685 50.0752 839.213 49.8496 838.762 49.5967C838.318 49.3438 837.921 49.0464 837.573 48.7046C837.224 48.3628 836.947 47.9595 836.742 47.4946C836.544 47.0229 836.445 46.4692 836.445 45.8335C836.445 44.9858 836.646 44.2612 837.05 43.6597C837.46 43.0581 838.034 42.5967 838.772 42.2754C839.517 41.9541 840.386 41.7935 841.377 41.7935C842.163 41.7935 842.901 41.8755 843.592 42.0396C844.289 42.2036 844.973 42.436 845.642 42.7368L844.863 44.7158C844.248 44.4629 843.65 44.2612 843.069 44.1108C842.495 43.9604 841.907 43.8853 841.305 43.8853C840.786 43.8853 840.345 43.9639 839.982 44.1211C839.62 44.2783 839.343 44.5005 839.152 44.7876C838.967 45.0679 838.875 45.4028 838.875 45.7925C838.875 46.23 838.981 46.5991 839.193 46.8999C839.412 47.1938 839.746 47.4639 840.198 47.71C840.656 47.9561 841.244 48.2295 841.961 48.5303C842.788 48.8721 843.489 49.231 844.063 49.6069C844.644 49.9829 845.089 50.4341 845.396 50.9604C845.704 51.48 845.858 52.1328 845.858 52.9189ZM852.938 55.2568C853.252 55.2568 853.563 55.2295 853.871 55.1748C854.179 55.1133 854.459 55.0415 854.712 54.9595V56.7847C854.445 56.9009 854.1 57 853.676 57.082C853.252 57.1641 852.811 57.2051 852.353 57.2051C851.711 57.2051 851.133 57.0991 850.621 56.8872C850.108 56.6685 849.701 56.2959 849.4 55.7695C849.1 55.2432 848.949 54.5151 848.949 53.5854V47.4844H847.401V46.4077L849.062 45.5566L849.851 43.1265H851.369V45.6489H854.62V47.4844H851.369V53.5547C851.369 54.1289 851.513 54.5562 851.8 54.8364C852.087 55.1167 852.466 55.2568 852.938 55.2568ZM861.751 45.4336C862.763 45.4336 863.631 45.6421 864.355 46.0591C865.08 46.4761 865.637 47.0674 866.027 47.833C866.416 48.5986 866.611 49.5146 866.611 50.5811V51.873H859.034C859.061 52.9736 859.355 53.8213 859.915 54.416C860.483 55.0107 861.276 55.3081 862.294 55.3081C863.019 55.3081 863.668 55.2397 864.243 55.103C864.824 54.9595 865.422 54.751 866.037 54.4775V56.436C865.47 56.7026 864.892 56.8975 864.304 57.0205C863.716 57.1436 863.012 57.2051 862.192 57.2051C861.078 57.2051 860.097 56.9897 859.249 56.5591C858.408 56.1216 857.748 55.4722 857.27 54.6108C856.798 53.7495 856.562 52.6797 856.562 51.4014C856.562 50.1299 856.778 49.0498 857.208 48.1611C857.639 47.2725 858.244 46.5957 859.023 46.1309C859.803 45.666 860.712 45.4336 861.751 45.4336ZM861.751 47.2485C860.992 47.2485 860.377 47.4946 859.905 47.9868C859.44 48.479 859.167 49.2002 859.085 50.1504H864.253C864.246 49.583 864.15 49.0806 863.966 48.6431C863.788 48.2056 863.515 47.8638 863.145 47.6177C862.783 47.3716 862.318 47.2485 861.751 47.2485ZM875.363 45.4336C876.709 45.4336 877.79 45.9258 878.603 46.9102C879.423 47.8945 879.833 49.3574 879.833 51.2988C879.833 52.584 879.642 53.6675 879.259 54.5493C878.883 55.4243 878.354 56.0874 877.67 56.5386C876.993 56.9829 876.204 57.2051 875.301 57.2051C874.727 57.2051 874.228 57.1299 873.804 56.9795C873.38 56.8291 873.018 56.6343 872.717 56.395C872.417 56.1489 872.164 55.8823 871.958 55.5952H871.815C871.849 55.8687 871.88 56.1729 871.907 56.5078C871.941 56.8359 871.958 57.1367 871.958 57.4102V62.0347H869.539V45.6489H871.507L871.846 47.2178H871.958C872.17 46.8965 872.427 46.5991 872.728 46.3257C873.035 46.0522 873.404 45.8369 873.835 45.6797C874.272 45.5156 874.782 45.4336 875.363 45.4336ZM874.717 47.4023C874.054 47.4023 873.521 47.5356 873.117 47.8022C872.721 48.062 872.43 48.4551 872.246 48.9814C872.068 49.5078 871.972 50.1675 871.958 50.9604V51.2988C871.958 52.1396 872.044 52.854 872.215 53.4419C872.393 54.0229 872.683 54.4673 873.086 54.7749C873.497 55.0757 874.05 55.2261 874.748 55.2261C875.335 55.2261 875.821 55.0654 876.204 54.7441C876.593 54.4229 876.884 53.9648 877.075 53.3701C877.267 52.7754 877.362 52.0747 877.362 51.2681C877.362 50.0444 877.144 49.0942 876.706 48.4175C876.275 47.7407 875.612 47.4023 874.717 47.4023ZM897.295 45.4336C897.295 46.1104 897.159 46.6982 896.885 47.1973C896.612 47.6963 896.236 48.1064 895.757 48.4277C895.286 48.7422 894.739 48.9678 894.117 49.1045V49.1763C895.313 49.3267 896.215 49.7026 896.824 50.3042C897.439 50.9058 897.747 51.7021 897.747 52.6934C897.747 53.5615 897.538 54.3374 897.121 55.021C896.704 55.6978 896.065 56.231 895.204 56.6206C894.342 57.0103 893.235 57.2051 891.881 57.2051C891.068 57.2051 890.313 57.1401 889.615 57.0103C888.925 56.8804 888.269 56.6719 887.647 56.3848V54.2417C888.282 54.5562 888.959 54.7988 889.677 54.9697C890.395 55.1406 891.075 55.2261 891.717 55.2261C892.968 55.2261 893.86 54.9937 894.394 54.5288C894.927 54.0571 895.193 53.4077 895.193 52.5806C895.193 52.0474 895.053 51.6099 894.773 51.2681C894.5 50.9263 894.072 50.6699 893.491 50.499C892.917 50.3281 892.175 50.2427 891.266 50.2427H889.943V48.3047H891.276C892.145 48.3047 892.842 48.2021 893.368 47.9971C893.895 47.7852 894.274 47.4946 894.506 47.1255C894.746 46.7563 894.865 46.3257 894.865 45.8335C894.865 45.1909 894.657 44.6919 894.24 44.3364C893.823 43.9741 893.204 43.793 892.384 43.793C891.878 43.793 891.417 43.8511 891 43.9673C890.589 44.0835 890.21 44.2305 889.861 44.4082C889.513 44.5859 889.181 44.7773 888.867 44.9824L887.708 43.311C888.275 42.8872 888.952 42.5283 889.738 42.2344C890.524 41.9404 891.441 41.7935 892.486 41.7935C894.024 41.7935 895.211 42.125 896.045 42.7881C896.878 43.4443 897.295 44.3262 897.295 45.4336ZM900.377 55.7285C900.377 55.168 900.52 54.7749 900.807 54.5493C901.101 54.3169 901.457 54.2007 901.874 54.2007C902.291 54.2007 902.646 54.3169 902.94 54.5493C903.241 54.7749 903.391 55.168 903.391 55.7285C903.391 56.2754 903.241 56.6719 902.94 56.918C902.646 57.1572 902.291 57.2769 901.874 57.2769C901.457 57.2769 901.101 57.1572 900.807 56.918C900.52 56.6719 900.377 56.2754 900.377 55.7285ZM900.377 46.9512C900.377 46.3838 900.52 45.9839 900.807 45.7515C901.101 45.519 901.457 45.4028 901.874 45.4028C902.291 45.4028 902.646 45.519 902.94 45.7515C903.241 45.9839 903.391 46.3838 903.391 46.9512C903.391 47.4912 903.241 47.8843 902.94 48.1304C902.646 48.3696 902.291 48.4893 901.874 48.4893C901.457 48.4893 901.101 48.3696 900.807 48.1304C900.52 47.8843 900.377 47.4912 900.377 46.9512ZM798.378 66.0088C799.67 66.0088 800.736 66.166 801.577 66.4805C802.425 66.7949 803.053 67.2734 803.464 67.916C803.881 68.5586 804.089 69.3755 804.089 70.3667C804.089 71.105 803.952 71.7339 803.679 72.2534C803.406 72.7729 803.047 73.2036 802.602 73.5454C802.158 73.8872 801.683 74.1606 801.177 74.3657L805.432 81H802.654L799.034 74.9912H796.624V81H794.163V66.0088H798.378ZM798.214 68.0596H796.624V72.9609H798.326C799.468 72.9609 800.295 72.749 800.808 72.3252C801.327 71.9014 801.587 71.2759 801.587 70.4487C801.587 69.5806 801.31 68.9653 800.757 68.603C800.21 68.2407 799.362 68.0596 798.214 68.0596ZM817.434 69.6489V81H815.537L815.209 79.4722H815.076C814.837 79.8618 814.533 80.1865 814.163 80.4463C813.794 80.6992 813.384 80.8872 812.933 81.0103C812.482 81.1401 812.007 81.2051 811.508 81.2051C810.653 81.2051 809.922 81.0615 809.313 80.7744C808.712 80.4805 808.25 80.0293 807.929 79.4209C807.608 78.8125 807.447 78.0264 807.447 77.0625V69.6489H809.867V76.6113C809.867 77.4932 810.045 78.1528 810.4 78.5903C810.762 79.0278 811.323 79.2466 812.082 79.2466C812.813 79.2466 813.394 79.0962 813.825 78.7954C814.256 78.4946 814.56 78.0503 814.738 77.4624C814.922 76.8745 815.014 76.1533 815.014 75.2988V69.6489H817.434ZM827.016 69.4336C828.295 69.4336 829.289 69.7651 830 70.4282C830.718 71.0845 831.077 72.1406 831.077 73.5967V81H828.667V74.0479C828.667 73.166 828.486 72.5063 828.124 72.0688C827.762 71.6245 827.201 71.4023 826.442 71.4023C825.342 71.4023 824.576 71.7407 824.145 72.4175C823.722 73.0942 823.51 74.0752 823.51 75.3604V81H821.1V69.6489H822.976L823.315 71.187H823.448C823.694 70.7905 823.998 70.4658 824.361 70.2129C824.73 69.9531 825.14 69.7583 825.591 69.6284C826.049 69.4985 826.524 69.4336 827.016 69.4336ZM846.622 72.8584H852.22V80.3848C851.434 80.6445 850.621 80.8462 849.78 80.9897C848.939 81.1333 847.996 81.2051 846.95 81.2051C845.425 81.2051 844.133 80.9043 843.074 80.3027C842.021 79.6943 841.221 78.8159 840.674 77.6675C840.127 76.5122 839.854 75.1211 839.854 73.4941C839.854 71.9287 840.158 70.5718 840.767 69.4233C841.375 68.2681 842.26 67.376 843.422 66.7471C844.584 66.1113 845.993 65.7935 847.647 65.7935C848.46 65.7935 849.247 65.8755 850.005 66.0396C850.771 66.1968 851.472 66.4155 852.107 66.6958L851.246 68.7261C850.74 68.4868 850.173 68.2852 849.544 68.1211C848.915 67.957 848.262 67.875 847.585 67.875C846.512 67.875 845.586 68.1074 844.807 68.5723C844.034 69.0371 843.439 69.6934 843.022 70.541C842.605 71.3818 842.397 72.3765 842.397 73.5249C842.397 74.6392 842.564 75.6167 842.899 76.4575C843.234 77.2983 843.757 77.9546 844.468 78.4263C845.186 78.8911 846.112 79.1235 847.247 79.1235C847.814 79.1235 848.296 79.0928 848.693 79.0312C849.089 78.9697 849.455 78.9014 849.79 78.8262V74.9604H846.622V72.8584ZM860.295 69.4336C861.307 69.4336 862.175 69.6421 862.899 70.0591C863.624 70.4761 864.181 71.0674 864.571 71.833C864.96 72.5986 865.155 73.5146 865.155 74.5811V75.873H857.578C857.605 76.9736 857.899 77.8213 858.459 78.416C859.027 79.0107 859.82 79.3081 860.838 79.3081C861.563 79.3081 862.212 79.2397 862.787 79.103C863.368 78.9595 863.966 78.751 864.581 78.4775V80.436C864.014 80.7026 863.436 80.8975 862.848 81.0205C862.26 81.1436 861.556 81.2051 860.736 81.2051C859.622 81.2051 858.641 80.9897 857.793 80.5591C856.952 80.1216 856.292 79.4722 855.814 78.6108C855.342 77.7495 855.106 76.6797 855.106 75.4014C855.106 74.1299 855.322 73.0498 855.752 72.1611C856.183 71.2725 856.788 70.5957 857.567 70.1309C858.347 69.666 859.256 69.4336 860.295 69.4336ZM860.295 71.2485C859.536 71.2485 858.921 71.4946 858.449 71.9868C857.984 72.479 857.711 73.2002 857.629 74.1504H862.797C862.79 73.583 862.694 73.0806 862.51 72.6431C862.332 72.2056 862.059 71.8638 861.689 71.6177C861.327 71.3716 860.862 71.2485 860.295 71.2485ZM873.999 69.4336C875.277 69.4336 876.272 69.7651 876.983 70.4282C877.701 71.0845 878.06 72.1406 878.06 73.5967V81H875.65V74.0479C875.65 73.166 875.469 72.5063 875.106 72.0688C874.744 71.6245 874.184 71.4023 873.425 71.4023C872.324 71.4023 871.559 71.7407 871.128 72.4175C870.704 73.0942 870.492 74.0752 870.492 75.3604V81H868.083V69.6489H869.959L870.297 71.187H870.431C870.677 70.7905 870.981 70.4658 871.343 70.2129C871.712 69.9531 872.123 69.7583 872.574 69.6284C873.032 69.4985 873.507 69.4336 873.999 69.4336ZM886.165 69.4336C887.177 69.4336 888.045 69.6421 888.77 70.0591C889.494 70.4761 890.051 71.0674 890.441 71.833C890.831 72.5986 891.025 73.5146 891.025 74.5811V75.873H883.448C883.475 76.9736 883.769 77.8213 884.33 78.416C884.897 79.0107 885.69 79.3081 886.709 79.3081C887.433 79.3081 888.083 79.2397 888.657 79.103C889.238 78.9595 889.836 78.751 890.451 78.4775V80.436C889.884 80.7026 889.306 80.8975 888.718 81.0205C888.13 81.1436 887.426 81.2051 886.606 81.2051C885.492 81.2051 884.511 80.9897 883.663 80.5591C882.822 80.1216 882.163 79.4722 881.684 78.6108C881.212 77.7495 880.977 76.6797 880.977 75.4014C880.977 74.1299 881.192 73.0498 881.623 72.1611C882.053 71.2725 882.658 70.5957 883.438 70.1309C884.217 69.666 885.126 69.4336 886.165 69.4336ZM886.165 71.2485C885.406 71.2485 884.791 71.4946 884.319 71.9868C883.855 72.479 883.581 73.2002 883.499 74.1504H888.667C888.66 73.583 888.564 73.0806 888.38 72.6431C888.202 72.2056 887.929 71.8638 887.56 71.6177C887.197 71.3716 886.732 71.2485 886.165 71.2485ZM899.705 69.4336C899.897 69.4336 900.105 69.4438 900.331 69.4644C900.556 69.4849 900.751 69.5122 900.915 69.5464L900.69 71.8022C900.546 71.7612 900.368 71.7305 900.156 71.71C899.951 71.6895 899.767 71.6792 899.603 71.6792C899.172 71.6792 898.762 71.751 898.372 71.8945C897.982 72.0312 897.637 72.2432 897.337 72.5303C897.036 72.8105 896.8 73.1626 896.629 73.5864C896.458 74.0103 896.373 74.5024 896.373 75.063V81H893.953V69.6489H895.839L896.168 71.6484H896.28C896.506 71.2451 896.786 70.876 897.121 70.541C897.456 70.2061 897.839 69.9395 898.27 69.7412C898.707 69.5361 899.186 69.4336 899.705 69.4336ZM907.677 69.4336C909.113 69.4336 910.196 69.7515 910.928 70.3872C911.666 71.0229 912.035 72.0142 912.035 73.3608V81H910.323L909.861 79.3901H909.779C909.458 79.8003 909.127 80.1387 908.785 80.4053C908.443 80.6719 908.047 80.8701 907.595 81C907.151 81.1367 906.608 81.2051 905.965 81.2051C905.288 81.2051 904.683 81.082 904.15 80.8359C903.617 80.583 903.196 80.2002 902.889 79.6875C902.581 79.1748 902.427 78.5254 902.427 77.7393C902.427 76.5703 902.861 75.6919 903.73 75.104C904.605 74.5161 905.924 74.1914 907.688 74.1299L909.656 74.0581V73.4634C909.656 72.6772 909.472 72.1167 909.103 71.7817C908.74 71.4468 908.228 71.2793 907.565 71.2793C906.997 71.2793 906.447 71.3613 905.914 71.5254C905.38 71.6895 904.861 71.8911 904.355 72.1304L903.576 70.4282C904.13 70.1343 904.758 69.895 905.463 69.7104C906.173 69.5259 906.912 69.4336 907.677 69.4336ZM909.646 75.5757L908.18 75.627C906.977 75.668 906.132 75.873 905.647 76.2422C905.162 76.6113 904.919 77.1172 904.919 77.7598C904.919 78.3203 905.087 78.7305 905.422 78.9902C905.756 79.2432 906.197 79.3696 906.744 79.3696C907.578 79.3696 908.269 79.1338 908.816 78.6621C909.369 78.1836 909.646 77.4829 909.646 76.5601V75.5757ZM919.843 79.2568C920.158 79.2568 920.469 79.2295 920.777 79.1748C921.084 79.1133 921.364 79.0415 921.617 78.9595V80.7847C921.351 80.9009 921.006 81 920.582 81.082C920.158 81.1641 919.717 81.2051 919.259 81.2051C918.616 81.2051 918.039 81.0991 917.526 80.8872C917.013 80.6685 916.607 80.2959 916.306 79.7695C916.005 79.2432 915.855 78.5151 915.855 77.5854V71.4844H914.306V70.4077L915.967 69.5566L916.757 67.1265H918.275V69.6489H921.525V71.4844H918.275V77.5547C918.275 78.1289 918.418 78.5562 918.705 78.8364C918.992 79.1167 919.372 79.2568 919.843 79.2568ZM928.656 69.4336C929.668 69.4336 930.536 69.6421 931.261 70.0591C931.986 70.4761 932.543 71.0674 932.932 71.833C933.322 72.5986 933.517 73.5146 933.517 74.5811V75.873H925.939C925.966 76.9736 926.26 77.8213 926.821 78.416C927.388 79.0107 928.181 79.3081 929.2 79.3081C929.924 79.3081 930.574 79.2397 931.148 79.103C931.729 78.9595 932.327 78.751 932.943 78.4775V80.436C932.375 80.7026 931.798 80.8975 931.21 81.0205C930.622 81.1436 929.918 81.2051 929.097 81.2051C927.983 81.2051 927.002 80.9897 926.154 80.5591C925.314 80.1216 924.654 79.4722 924.175 78.6108C923.704 77.7495 923.468 76.6797 923.468 75.4014C923.468 74.1299 923.683 73.0498 924.114 72.1611C924.545 71.2725 925.15 70.5957 925.929 70.1309C926.708 69.666 927.617 69.4336 928.656 69.4336ZM928.656 71.2485C927.898 71.2485 927.282 71.4946 926.811 71.9868C926.346 72.479 926.072 73.2002 925.99 74.1504H931.158C931.152 73.583 931.056 73.0806 930.871 72.6431C930.694 72.2056 930.42 71.8638 930.051 71.6177C929.689 71.3716 929.224 71.2485 928.656 71.2485ZM940.259 81.2051C938.905 81.2051 937.818 80.7129 936.998 79.7285C936.184 78.7373 935.778 77.2778 935.778 75.3501C935.778 73.4019 936.191 71.9287 937.018 70.9307C937.852 69.9326 938.949 69.4336 940.31 69.4336C940.884 69.4336 941.386 69.5122 941.817 69.6694C942.248 69.8198 942.617 70.0249 942.925 70.2847C943.239 70.5444 943.506 70.835 943.724 71.1562H943.837C943.803 70.9443 943.762 70.6401 943.714 70.2437C943.673 69.8403 943.653 69.4678 943.653 69.126V65.0449H946.073V81H944.186L943.755 79.4517H943.653C943.448 79.7798 943.188 80.0771 942.873 80.3438C942.566 80.6035 942.197 80.812 941.766 80.9692C941.342 81.1265 940.84 81.2051 940.259 81.2051ZM940.935 79.2466C941.968 79.2466 942.696 78.9492 943.119 78.3545C943.543 77.7598 943.762 76.8677 943.776 75.6782V75.3604C943.776 74.0889 943.571 73.1147 943.16 72.438C942.75 71.7544 942.002 71.4126 940.915 71.4126C940.047 71.4126 939.384 71.7646 938.926 72.4688C938.474 73.166 938.249 74.1401 938.249 75.3911C938.249 76.6421 938.474 77.5991 938.926 78.2622C939.384 78.9185 940.053 79.2466 940.935 79.2466ZM852.387 91.8853C851.669 91.8853 851.026 92.0151 850.459 92.2749C849.898 92.5347 849.423 92.9106 849.034 93.4028C848.644 93.8882 848.347 94.4795 848.142 95.1768C847.936 95.8672 847.834 96.6465 847.834 97.5146C847.834 98.6768 847.998 99.6782 848.326 100.519C848.654 101.353 849.153 101.996 849.823 102.447C850.493 102.891 851.341 103.113 852.366 103.113C853.002 103.113 853.621 103.052 854.222 102.929C854.824 102.806 855.446 102.638 856.088 102.426V104.518C855.48 104.757 854.865 104.932 854.243 105.041C853.621 105.15 852.903 105.205 852.089 105.205C850.558 105.205 849.287 104.887 848.275 104.251C847.27 103.616 846.518 102.72 846.019 101.565C845.527 100.41 845.281 99.0562 845.281 97.5044C845.281 96.3696 845.438 95.3306 845.752 94.3872C846.067 93.4438 846.525 92.6304 847.126 91.9468C847.728 91.2563 848.47 90.7266 849.352 90.3574C850.24 89.9814 851.255 89.7935 852.397 89.7935C853.149 89.7935 853.887 89.8789 854.612 90.0498C855.343 90.2139 856.02 90.4497 856.642 90.7573L855.781 92.7876C855.261 92.5415 854.718 92.3296 854.15 92.1519C853.583 91.9741 852.995 91.8853 852.387 91.8853ZM869.321 99.2988C869.321 100.242 869.198 101.08 868.952 101.811C868.706 102.542 868.347 103.161 867.875 103.667C867.403 104.166 866.836 104.549 866.173 104.815C865.51 105.075 864.761 105.205 863.927 105.205C863.148 105.205 862.434 105.075 861.784 104.815C861.135 104.549 860.571 104.166 860.092 103.667C859.621 103.161 859.255 102.542 858.995 101.811C858.735 101.08 858.605 100.242 858.605 99.2988C858.605 98.0479 858.821 96.9883 859.251 96.1201C859.689 95.2451 860.311 94.5786 861.118 94.1206C861.924 93.6626 862.885 93.4336 863.999 93.4336C865.045 93.4336 865.968 93.6626 866.768 94.1206C867.567 94.5786 868.193 95.2451 868.644 96.1201C869.095 96.9951 869.321 98.0547 869.321 99.2988ZM861.087 99.2988C861.087 100.126 861.186 100.833 861.384 101.421C861.589 102.009 861.904 102.46 862.328 102.775C862.751 103.083 863.298 103.236 863.968 103.236C864.638 103.236 865.185 103.083 865.609 102.775C866.033 102.46 866.344 102.009 866.542 101.421C866.74 100.833 866.839 100.126 866.839 99.2988C866.839 98.4717 866.74 97.771 866.542 97.1968C866.344 96.6157 866.033 96.1748 865.609 95.874C865.185 95.5664 864.635 95.4126 863.958 95.4126C862.96 95.4126 862.232 95.7476 861.774 96.4175C861.316 97.0874 861.087 98.0479 861.087 99.2988ZM876.114 105.205C874.76 105.205 873.673 104.713 872.853 103.729C872.04 102.737 871.633 101.278 871.633 99.3501C871.633 97.4019 872.046 95.9287 872.874 94.9307C873.708 93.9326 874.805 93.4336 876.165 93.4336C876.739 93.4336 877.242 93.5122 877.672 93.6694C878.103 93.8198 878.472 94.0249 878.78 94.2847C879.094 94.5444 879.361 94.835 879.58 95.1562H879.692C879.658 94.9443 879.617 94.6401 879.569 94.2437C879.528 93.8403 879.508 93.4678 879.508 93.126V89.0449H881.928V105H880.041L879.61 103.452H879.508C879.303 103.78 879.043 104.077 878.729 104.344C878.421 104.604 878.052 104.812 877.621 104.969C877.197 105.126 876.695 105.205 876.114 105.205ZM876.791 103.247C877.823 103.247 878.551 102.949 878.975 102.354C879.398 101.76 879.617 100.868 879.631 99.6782V99.3604C879.631 98.0889 879.426 97.1147 879.016 96.438C878.605 95.7544 877.857 95.4126 876.77 95.4126C875.902 95.4126 875.239 95.7646 874.781 96.4688C874.33 97.166 874.104 98.1401 874.104 99.3911C874.104 100.642 874.33 101.599 874.781 102.262C875.239 102.918 875.909 103.247 876.791 103.247ZM890.115 93.4336C891.127 93.4336 891.995 93.6421 892.72 94.0591C893.444 94.4761 894.002 95.0674 894.391 95.833C894.781 96.5986 894.976 97.5146 894.976 98.5811V99.873H887.398C887.425 100.974 887.719 101.821 888.28 102.416C888.847 103.011 889.64 103.308 890.659 103.308C891.383 103.308 892.033 103.24 892.607 103.103C893.188 102.959 893.786 102.751 894.401 102.478V104.436C893.834 104.703 893.256 104.897 892.669 105.021C892.081 105.144 891.377 105.205 890.556 105.205C889.442 105.205 888.461 104.99 887.613 104.559C886.773 104.122 886.113 103.472 885.634 102.611C885.163 101.75 884.927 100.68 884.927 99.4014C884.927 98.1299 885.142 97.0498 885.573 96.1611C886.003 95.2725 886.608 94.5957 887.388 94.1309C888.167 93.666 889.076 93.4336 890.115 93.4336ZM890.115 95.2485C889.357 95.2485 888.741 95.4946 888.27 95.9868C887.805 96.479 887.531 97.2002 887.449 98.1504H892.617C892.61 97.583 892.515 97.0806 892.33 96.6431C892.152 96.2056 891.879 95.8638 891.51 95.6177C891.148 95.3716 890.683 95.2485 890.115 95.2485Z" fill="white"/>
<rect width="94" height="64" transform="translate(311 41)" fill="#020202"/>
<path d="M333.858 64.9189C333.858 65.8076 333.639 66.5732 333.202 67.2158C332.771 67.8584 332.149 68.3506 331.335 68.6924C330.529 69.0342 329.565 69.2051 328.444 69.2051C327.897 69.2051 327.374 69.1743 326.875 69.1128C326.376 69.0513 325.904 68.9624 325.46 68.8462C325.022 68.7231 324.622 68.5762 324.26 68.4053V66.0879C324.869 66.3545 325.549 66.5972 326.301 66.8159C327.053 67.0278 327.818 67.1338 328.598 67.1338C329.233 67.1338 329.76 67.0518 330.177 66.8877C330.6 66.7168 330.915 66.4775 331.12 66.1699C331.325 65.8555 331.428 65.4897 331.428 65.0728C331.428 64.6284 331.308 64.2524 331.069 63.9448C330.829 63.6372 330.467 63.3569 329.982 63.104C329.503 62.8442 328.902 62.5674 328.177 62.2734C327.685 62.0752 327.213 61.8496 326.762 61.5967C326.318 61.3438 325.921 61.0464 325.573 60.7046C325.224 60.3628 324.947 59.9595 324.742 59.4946C324.544 59.0229 324.445 58.4692 324.445 57.8335C324.445 56.9858 324.646 56.2612 325.05 55.6597C325.46 55.0581 326.034 54.5967 326.772 54.2754C327.517 53.9541 328.386 53.7935 329.377 53.7935C330.163 53.7935 330.901 53.8755 331.592 54.0396C332.289 54.2036 332.973 54.436 333.642 54.7368L332.863 56.7158C332.248 56.4629 331.65 56.2612 331.069 56.1108C330.495 55.9604 329.907 55.8853 329.305 55.8853C328.786 55.8853 328.345 55.9639 327.982 56.1211C327.62 56.2783 327.343 56.5005 327.152 56.7876C326.967 57.0679 326.875 57.4028 326.875 57.7925C326.875 58.23 326.981 58.5991 327.193 58.8999C327.412 59.1938 327.746 59.4639 328.198 59.71C328.656 59.9561 329.244 60.2295 329.961 60.5303C330.788 60.8721 331.489 61.231 332.063 61.6069C332.644 61.9829 333.089 62.4341 333.396 62.9604C333.704 63.48 333.858 64.1328 333.858 64.9189ZM340.938 67.2568C341.252 67.2568 341.563 67.2295 341.871 67.1748C342.179 67.1133 342.459 67.0415 342.712 66.9595V68.7847C342.445 68.9009 342.1 69 341.676 69.082C341.252 69.1641 340.811 69.2051 340.353 69.2051C339.711 69.2051 339.133 69.0991 338.621 68.8872C338.108 68.6685 337.701 68.2959 337.4 67.7695C337.1 67.2432 336.949 66.5151 336.949 65.5854V59.4844H335.401V58.4077L337.062 57.5566L337.851 55.1265H339.369V57.6489H342.62V59.4844H339.369V65.5547C339.369 66.1289 339.513 66.5562 339.8 66.8364C340.087 67.1167 340.466 67.2568 340.938 67.2568ZM349.751 57.4336C350.763 57.4336 351.631 57.6421 352.355 58.0591C353.08 58.4761 353.637 59.0674 354.027 59.833C354.416 60.5986 354.611 61.5146 354.611 62.5811V63.873H347.034C347.061 64.9736 347.355 65.8213 347.915 66.416C348.483 67.0107 349.276 67.3081 350.294 67.3081C351.019 67.3081 351.668 67.2397 352.243 67.103C352.824 66.9595 353.422 66.751 354.037 66.4775V68.436C353.47 68.7026 352.892 68.8975 352.304 69.0205C351.716 69.1436 351.012 69.2051 350.192 69.2051C349.078 69.2051 348.097 68.9897 347.249 68.5591C346.408 68.1216 345.748 67.4722 345.27 66.6108C344.798 65.7495 344.562 64.6797 344.562 63.4014C344.562 62.1299 344.778 61.0498 345.208 60.1611C345.639 59.2725 346.244 58.5957 347.023 58.1309C347.803 57.666 348.712 57.4336 349.751 57.4336ZM349.751 59.2485C348.992 59.2485 348.377 59.4946 347.905 59.9868C347.44 60.479 347.167 61.2002 347.085 62.1504H352.253C352.246 61.583 352.15 61.0806 351.966 60.6431C351.788 60.2056 351.515 59.8638 351.145 59.6177C350.783 59.3716 350.318 59.2485 349.751 59.2485ZM363.363 57.4336C364.709 57.4336 365.79 57.9258 366.603 58.9102C367.423 59.8945 367.833 61.3574 367.833 63.2988C367.833 64.584 367.642 65.6675 367.259 66.5493C366.883 67.4243 366.354 68.0874 365.67 68.5386C364.993 68.9829 364.204 69.2051 363.301 69.2051C362.727 69.2051 362.228 69.1299 361.804 68.9795C361.38 68.8291 361.018 68.6343 360.717 68.395C360.417 68.1489 360.164 67.8823 359.958 67.5952H359.815C359.849 67.8687 359.88 68.1729 359.907 68.5078C359.941 68.8359 359.958 69.1367 359.958 69.4102V74.0347H357.539V57.6489H359.507L359.846 59.2178H359.958C360.17 58.8965 360.427 58.5991 360.728 58.3257C361.035 58.0522 361.404 57.8369 361.835 57.6797C362.272 57.5156 362.782 57.4336 363.363 57.4336ZM362.717 59.4023C362.054 59.4023 361.521 59.5356 361.117 59.8022C360.721 60.062 360.43 60.4551 360.246 60.9814C360.068 61.5078 359.972 62.1675 359.958 62.9604V63.2988C359.958 64.1396 360.044 64.854 360.215 65.4419C360.393 66.0229 360.683 66.4673 361.086 66.7749C361.497 67.0757 362.05 67.2261 362.748 67.2261C363.335 67.2261 363.821 67.0654 364.204 66.7441C364.593 66.4229 364.884 65.9648 365.075 65.3701C365.267 64.7754 365.362 64.0747 365.362 63.2681C365.362 62.0444 365.144 61.0942 364.706 60.4175C364.275 59.7407 363.612 59.4023 362.717 59.4023ZM382.804 69H380.384V59.3511C380.384 59.0298 380.387 58.7085 380.394 58.3872C380.401 58.0659 380.408 57.7515 380.415 57.4438C380.428 57.1362 380.445 56.8423 380.466 56.562C380.322 56.7192 380.145 56.8901 379.933 57.0747C379.728 57.2593 379.509 57.4507 379.276 57.6489L377.554 59.0229L376.344 57.4951L380.794 54.0088H382.804V69ZM388.377 67.7285C388.377 67.168 388.52 66.7749 388.807 66.5493C389.101 66.3169 389.457 66.2007 389.874 66.2007C390.291 66.2007 390.646 66.3169 390.94 66.5493C391.241 66.7749 391.391 67.168 391.391 67.7285C391.391 68.2754 391.241 68.6719 390.94 68.918C390.646 69.1572 390.291 69.2769 389.874 69.2769C389.457 69.2769 389.101 69.1572 388.807 68.918C388.52 68.6719 388.377 68.2754 388.377 67.7285ZM388.377 58.9512C388.377 58.3838 388.52 57.9839 388.807 57.7515C389.101 57.519 389.457 57.4028 389.874 57.4028C390.291 57.4028 390.646 57.519 390.94 57.7515C391.241 57.9839 391.391 58.3838 391.391 58.9512C391.391 59.4912 391.241 59.8843 390.94 60.1304C390.646 60.3696 390.291 60.4893 389.874 60.4893C389.457 60.4893 389.101 60.3696 388.807 60.1304C388.52 59.8843 388.377 59.4912 388.377 58.9512ZM325.688 78.0088C327.622 78.0088 329.034 78.4053 329.923 79.1982C330.811 79.9912 331.256 81.1021 331.256 82.5308C331.256 83.1802 331.153 83.7988 330.948 84.3867C330.75 84.9678 330.422 85.4839 329.964 85.9351C329.506 86.3794 328.901 86.7314 328.149 86.9912C327.404 87.251 326.484 87.3809 325.391 87.3809H323.791V93H321.33V78.0088H325.688ZM325.524 80.0493H323.791V85.3301H325.134C325.907 85.3301 326.563 85.2412 327.103 85.0635C327.643 84.8789 328.053 84.5884 328.333 84.1919C328.614 83.7954 328.754 83.2725 328.754 82.623C328.754 81.7549 328.491 81.1089 327.964 80.6851C327.445 80.2612 326.631 80.0493 325.524 80.0493ZM339.966 81.4336C340.158 81.4336 340.366 81.4438 340.592 81.4644C340.817 81.4849 341.012 81.5122 341.176 81.5464L340.951 83.8022C340.807 83.7612 340.629 83.7305 340.417 83.71C340.212 83.6895 340.028 83.6792 339.864 83.6792C339.433 83.6792 339.023 83.751 338.633 83.8945C338.244 84.0312 337.898 84.2432 337.598 84.5303C337.297 84.8105 337.061 85.1626 336.89 85.5864C336.719 86.0103 336.634 86.5024 336.634 87.063V93H334.214V81.6489H336.101L336.429 83.6484H336.541C336.767 83.2451 337.047 82.876 337.382 82.541C337.717 82.2061 338.1 81.9395 338.531 81.7412C338.968 81.5361 339.447 81.4336 339.966 81.4336ZM353.537 87.2988C353.537 88.2422 353.414 89.0796 353.168 89.811C352.922 90.5425 352.563 91.1611 352.091 91.667C351.62 92.166 351.052 92.5488 350.389 92.8154C349.726 93.0752 348.978 93.2051 348.144 93.2051C347.364 93.2051 346.65 93.0752 346 92.8154C345.351 92.5488 344.787 92.166 344.309 91.667C343.837 91.1611 343.471 90.5425 343.211 89.811C342.952 89.0796 342.822 88.2422 342.822 87.2988C342.822 86.0479 343.037 84.9883 343.468 84.1201C343.905 83.2451 344.527 82.5786 345.334 82.1206C346.141 81.6626 347.101 81.4336 348.215 81.4336C349.261 81.4336 350.184 81.6626 350.984 82.1206C351.784 82.5786 352.409 83.2451 352.86 84.1201C353.312 84.9951 353.537 86.0547 353.537 87.2988ZM345.303 87.2988C345.303 88.126 345.402 88.8335 345.601 89.4214C345.806 90.0093 346.12 90.4604 346.544 90.7749C346.968 91.0825 347.515 91.2363 348.185 91.2363C348.854 91.2363 349.401 91.0825 349.825 90.7749C350.249 90.4604 350.56 90.0093 350.758 89.4214C350.957 88.8335 351.056 88.126 351.056 87.2988C351.056 86.4717 350.957 85.771 350.758 85.1968C350.56 84.6157 350.249 84.1748 349.825 83.874C349.401 83.5664 348.851 83.4126 348.174 83.4126C347.176 83.4126 346.448 83.7476 345.99 84.4175C345.532 85.0874 345.303 86.0479 345.303 87.2988ZM369.343 81.4336C370.615 81.4336 371.572 81.7617 372.214 82.418C372.864 83.0742 373.188 84.127 373.188 85.5762V93H370.779V86.0068C370.779 85.1455 370.611 84.4961 370.276 84.0586C369.941 83.6211 369.432 83.4023 368.749 83.4023C367.792 83.4023 367.101 83.71 366.677 84.3252C366.26 84.9336 366.052 85.8188 366.052 86.981V93H363.642V86.0068C363.642 85.4326 363.567 84.9541 363.417 84.5713C363.273 84.1816 363.051 83.8911 362.75 83.6997C362.449 83.5015 362.07 83.4023 361.612 83.4023C360.949 83.4023 360.419 83.5527 360.022 83.8535C359.633 84.1543 359.353 84.5986 359.182 85.1865C359.011 85.7676 358.925 86.4819 358.925 87.3296V93H356.516V81.6489H358.392L358.73 83.1768H358.864C359.096 82.7803 359.383 82.4556 359.725 82.2026C360.074 81.9429 360.46 81.7515 360.884 81.6284C361.308 81.4985 361.749 81.4336 362.207 81.4336C363.054 81.4336 363.769 81.584 364.35 81.8848C364.931 82.1787 365.365 82.6299 365.652 83.2383H365.836C366.192 82.623 366.688 82.1685 367.323 81.8745C367.959 81.5806 368.632 81.4336 369.343 81.4336ZM382.586 81.4336C383.933 81.4336 385.013 81.9258 385.826 82.9102C386.647 83.8945 387.057 85.3574 387.057 87.2988C387.057 88.584 386.865 89.6675 386.482 90.5493C386.107 91.4243 385.577 92.0874 384.893 92.5386C384.216 92.9829 383.427 93.2051 382.524 93.2051C381.95 93.2051 381.451 93.1299 381.027 92.9795C380.604 92.8291 380.241 92.6343 379.94 92.395C379.64 92.1489 379.387 91.8823 379.182 91.5952H379.038C379.072 91.8687 379.103 92.1729 379.13 92.5078C379.165 92.8359 379.182 93.1367 379.182 93.4102V98.0347H376.762V81.6489H378.731L379.069 83.2178H379.182C379.394 82.8965 379.65 82.5991 379.951 82.3257C380.258 82.0522 380.627 81.8369 381.058 81.6797C381.496 81.5156 382.005 81.4336 382.586 81.4336ZM381.94 83.4023C381.277 83.4023 380.744 83.5356 380.34 83.8022C379.944 84.062 379.653 84.4551 379.469 84.9814C379.291 85.5078 379.195 86.1675 379.182 86.9604V87.2988C379.182 88.1396 379.267 88.854 379.438 89.4419C379.616 90.0229 379.906 90.4673 380.31 90.7749C380.72 91.0757 381.273 91.2261 381.971 91.2261C382.559 91.2261 383.044 91.0654 383.427 90.7441C383.816 90.4229 384.107 89.9648 384.298 89.3701C384.49 88.7754 384.586 88.0747 384.586 87.2681C384.586 86.0444 384.367 85.0942 383.929 84.4175C383.499 83.7407 382.836 83.4023 381.94 83.4023ZM394.28 91.2568C394.595 91.2568 394.906 91.2295 395.213 91.1748C395.521 91.1133 395.801 91.0415 396.054 90.9595V92.7847C395.788 92.9009 395.442 93 395.019 93.082C394.595 93.1641 394.154 93.2051 393.696 93.2051C393.053 93.2051 392.476 93.0991 391.963 92.8872C391.45 92.6685 391.044 92.2959 390.743 91.7695C390.442 91.2432 390.292 90.5151 390.292 89.5854V83.4844H388.743V82.4077L390.404 81.5566L391.194 79.1265H392.712V81.6489H395.962V83.4844H392.712V89.5547C392.712 90.1289 392.855 90.5562 393.142 90.8364C393.429 91.1167 393.809 91.2568 394.28 91.2568Z" fill="white"/>
<path d="M622.293 242.707C622.683 243.098 623.317 243.098 623.707 242.707L630.071 236.343C630.462 235.953 630.462 235.319 630.071 234.929C629.681 234.538 629.047 234.538 628.657 234.929L623 240.586L617.343 234.929C616.953 234.538 616.319 234.538 615.929 234.929C615.538 235.319 615.538 235.953 615.929 236.343L622.293 242.707ZM623 132L622 132L622 242L623 242L624 242L624 132L623 132Z" fill="white"/>
<rect x="511" y="17" width="226" height="103" rx="8" fill="#020202"/>
<rect x="512" y="18" width="224" height="101" rx="7" stroke="white" stroke-opacity="0.9" stroke-width="2"/>
<path d="M558.984 68.3481L562.542 61.5088H565.198L560.214 70.6758V76.5H557.763V70.7681L552.77 61.5088H555.446L558.984 68.3481ZM577.179 70.7988C577.179 71.7422 577.056 72.5796 576.81 73.311C576.564 74.0425 576.205 74.6611 575.733 75.167C575.262 75.666 574.694 76.0488 574.031 76.3154C573.368 76.5752 572.619 76.7051 571.785 76.7051C571.006 76.7051 570.292 76.5752 569.642 76.3154C568.993 76.0488 568.429 75.666 567.951 75.167C567.479 74.6611 567.113 74.0425 566.853 73.311C566.594 72.5796 566.464 71.7422 566.464 70.7988C566.464 69.5479 566.679 68.4883 567.11 67.6201C567.547 66.7451 568.169 66.0786 568.976 65.6206C569.783 65.1626 570.743 64.9336 571.857 64.9336C572.903 64.9336 573.826 65.1626 574.626 65.6206C575.426 66.0786 576.051 66.7451 576.502 67.6201C576.953 68.4951 577.179 69.5547 577.179 70.7988ZM568.945 70.7988C568.945 71.626 569.044 72.3335 569.243 72.9214C569.448 73.5093 569.762 73.9604 570.186 74.2749C570.61 74.5825 571.157 74.7363 571.826 74.7363C572.496 74.7363 573.043 74.5825 573.467 74.2749C573.891 73.9604 574.202 73.5093 574.4 72.9214C574.598 72.3335 574.698 71.626 574.698 70.7988C574.698 69.9717 574.598 69.271 574.4 68.6968C574.202 68.1157 573.891 67.6748 573.467 67.374C573.043 67.0664 572.493 66.9126 571.816 66.9126C570.818 66.9126 570.09 67.2476 569.632 67.9175C569.174 68.5874 568.945 69.5479 568.945 70.7988ZM590.053 65.1489V76.5H588.156L587.827 74.9722H587.694C587.455 75.3618 587.151 75.6865 586.782 75.9463C586.412 76.1992 586.002 76.3872 585.551 76.5103C585.1 76.6401 584.625 76.7051 584.126 76.7051C583.271 76.7051 582.54 76.5615 581.932 76.2744C581.33 75.9805 580.869 75.5293 580.547 74.9209C580.226 74.3125 580.065 73.5264 580.065 72.5625V65.1489H582.485V72.1113C582.485 72.9932 582.663 73.6528 583.018 74.0903C583.381 74.5278 583.941 74.7466 584.7 74.7466C585.432 74.7466 586.013 74.5962 586.443 74.2954C586.874 73.9946 587.178 73.5503 587.356 72.9624C587.54 72.3745 587.633 71.6533 587.633 70.7988V65.1489H590.053ZM599.471 64.9336C599.662 64.9336 599.871 64.9438 600.096 64.9644C600.322 64.9849 600.517 65.0122 600.681 65.0464L600.455 67.3022C600.311 67.2612 600.134 67.2305 599.922 67.21C599.717 67.1895 599.532 67.1792 599.368 67.1792C598.937 67.1792 598.527 67.251 598.138 67.3945C597.748 67.5312 597.403 67.7432 597.102 68.0303C596.801 68.3105 596.565 68.6626 596.394 69.0864C596.224 69.5103 596.138 70.0024 596.138 70.563V76.5H593.718V65.1489H595.605L595.933 67.1484H596.046C596.271 66.7451 596.552 66.376 596.887 66.041C597.222 65.7061 597.604 65.4395 598.035 65.2412C598.473 65.0361 598.951 64.9336 599.471 64.9336ZM608.904 61.5088H613.364C615.299 61.5088 616.758 61.7891 617.743 62.3496C618.727 62.9102 619.219 63.8774 619.219 65.2515C619.219 65.8257 619.117 66.3452 618.912 66.8101C618.713 67.2681 618.423 67.6475 618.04 67.9482C617.657 68.2422 617.186 68.4404 616.625 68.543V68.6455C617.206 68.748 617.722 68.9292 618.173 69.189C618.631 69.4487 618.99 69.8213 619.25 70.3066C619.517 70.792 619.65 71.4209 619.65 72.1934C619.65 73.1094 619.431 73.8887 618.994 74.5312C618.563 75.1738 617.944 75.6626 617.138 75.9976C616.338 76.3325 615.388 76.5 614.287 76.5H608.904V61.5088ZM611.365 67.6919H613.723C614.837 67.6919 615.61 67.5107 616.041 67.1484C616.471 66.7861 616.687 66.2563 616.687 65.5591C616.687 64.8481 616.43 64.3354 615.917 64.021C615.412 63.7065 614.605 63.5493 613.498 63.5493H611.365V67.6919ZM611.365 69.6812V74.439H613.959C615.107 74.439 615.914 74.2168 616.379 73.7725C616.844 73.3281 617.076 72.7266 617.076 71.9678C617.076 71.5029 616.97 71.0996 616.758 70.7578C616.553 70.416 616.215 70.1528 615.743 69.9683C615.271 69.7769 614.636 69.6812 613.836 69.6812H611.365ZM627.161 64.9336C628.596 64.9336 629.68 65.2515 630.411 65.8872C631.149 66.5229 631.519 67.5142 631.519 68.8608V76.5H629.806L629.345 74.8901H629.263C628.941 75.3003 628.61 75.6387 628.268 75.9053C627.926 76.1719 627.53 76.3701 627.079 76.5C626.634 76.6367 626.091 76.7051 625.448 76.7051C624.772 76.7051 624.167 76.582 623.633 76.3359C623.1 76.083 622.68 75.7002 622.372 75.1875C622.064 74.6748 621.911 74.0254 621.911 73.2393C621.911 72.0703 622.345 71.1919 623.213 70.604C624.088 70.0161 625.407 69.6914 627.171 69.6299L629.14 69.5581V68.9634C629.14 68.1772 628.955 67.6167 628.586 67.2817C628.224 66.9468 627.711 66.7793 627.048 66.7793C626.48 66.7793 625.93 66.8613 625.397 67.0254C624.864 67.1895 624.344 67.3911 623.838 67.6304L623.059 65.9282C623.613 65.6343 624.242 65.395 624.946 65.2104C625.657 65.0259 626.395 64.9336 627.161 64.9336ZM629.129 71.0757L627.663 71.127C626.46 71.168 625.616 71.373 625.13 71.7422C624.645 72.1113 624.402 72.6172 624.402 73.2598C624.402 73.8203 624.57 74.2305 624.905 74.4902C625.24 74.7432 625.681 74.8696 626.228 74.8696C627.062 74.8696 627.752 74.6338 628.299 74.1621C628.853 73.6836 629.129 72.9829 629.129 72.0601V71.0757ZM639.675 76.7051C638.602 76.7051 637.672 76.4966 636.886 76.0796C636.1 75.6626 635.495 75.0234 635.071 74.1621C634.648 73.3008 634.436 72.207 634.436 70.8809C634.436 69.5 634.668 68.3721 635.133 67.4971C635.598 66.6221 636.24 65.9761 637.061 65.5591C637.888 65.1421 638.835 64.9336 639.901 64.9336C640.578 64.9336 641.19 65.002 641.736 65.1387C642.29 65.2686 642.758 65.4292 643.141 65.6206L642.423 67.5483C642.006 67.3774 641.579 67.2339 641.142 67.1177C640.704 67.0015 640.284 66.9434 639.88 66.9434C639.217 66.9434 638.664 67.0903 638.219 67.3843C637.782 67.6782 637.454 68.1157 637.235 68.6968C637.023 69.2778 636.917 69.999 636.917 70.8604C636.917 71.6943 637.026 72.3984 637.245 72.9727C637.464 73.54 637.789 73.9707 638.219 74.2646C638.65 74.5518 639.18 74.6953 639.809 74.6953C640.431 74.6953 640.988 74.6201 641.48 74.4697C641.972 74.3193 642.437 74.1245 642.875 73.8853V75.9771C642.444 76.2231 641.982 76.4043 641.49 76.5205C640.998 76.6436 640.393 76.7051 639.675 76.7051ZM648.16 60.5449V68.2559C648.16 68.6045 648.147 68.9873 648.119 69.4043C648.092 69.8145 648.065 70.2007 648.037 70.563H648.088C648.266 70.3237 648.478 70.0435 648.724 69.7222C648.977 69.4009 649.216 69.1206 649.442 68.8813L652.908 65.1489H655.676L651.134 70.0298L655.974 76.5H653.144L649.514 71.5166L648.16 72.6753V76.5H645.751V60.5449H648.16ZM662.521 64.9336C663.532 64.9336 664.401 65.1421 665.125 65.5591C665.85 65.9761 666.407 66.5674 666.797 67.333C667.186 68.0986 667.381 69.0146 667.381 70.0811V71.373H659.803C659.831 72.4736 660.125 73.3213 660.685 73.916C661.253 74.5107 662.046 74.8081 663.064 74.8081C663.789 74.8081 664.438 74.7397 665.012 74.603C665.593 74.4595 666.192 74.251 666.807 73.9775V75.936C666.239 76.2026 665.662 76.3975 665.074 76.5205C664.486 76.6436 663.782 76.7051 662.962 76.7051C661.847 76.7051 660.866 76.4897 660.019 76.0591C659.178 75.6216 658.518 74.9722 658.04 74.1108C657.568 73.2495 657.332 72.1797 657.332 70.9014C657.332 69.6299 657.548 68.5498 657.978 67.6611C658.409 66.7725 659.014 66.0957 659.793 65.6309C660.572 65.166 661.482 64.9336 662.521 64.9336ZM662.521 66.7485C661.762 66.7485 661.147 66.9946 660.675 67.4868C660.21 67.979 659.937 68.7002 659.855 69.6504H665.023C665.016 69.083 664.92 68.5806 664.735 68.1431C664.558 67.7056 664.284 67.3638 663.915 67.1177C663.553 66.8716 663.088 66.7485 662.521 66.7485ZM676.225 64.9336C677.503 64.9336 678.498 65.2651 679.209 65.9282C679.926 66.5845 680.285 67.6406 680.285 69.0967V76.5H677.876V69.5479C677.876 68.666 677.695 68.0063 677.332 67.5688C676.97 67.1245 676.409 66.9023 675.651 66.9023C674.55 66.9023 673.784 67.2407 673.354 67.9175C672.93 68.5942 672.718 69.5752 672.718 70.8604V76.5H670.308V65.1489H672.185L672.523 66.687H672.656C672.903 66.2905 673.207 65.9658 673.569 65.7129C673.938 65.4531 674.348 65.2583 674.799 65.1284C675.258 64.9985 675.733 64.9336 676.225 64.9336ZM687.683 76.7051C686.33 76.7051 685.243 76.2129 684.423 75.2285C683.609 74.2373 683.202 72.7778 683.202 70.8501C683.202 68.9019 683.616 67.4287 684.443 66.4307C685.277 65.4326 686.374 64.9336 687.735 64.9336C688.309 64.9336 688.811 65.0122 689.242 65.1694C689.673 65.3198 690.042 65.5249 690.349 65.7847C690.664 66.0444 690.93 66.335 691.149 66.6562H691.262C691.228 66.4443 691.187 66.1401 691.139 65.7437C691.098 65.3403 691.077 64.9678 691.077 64.626V60.5449H693.497V76.5H691.611L691.18 74.9517H691.077C690.872 75.2798 690.613 75.5771 690.298 75.8438C689.99 76.1035 689.621 76.312 689.191 76.4692C688.767 76.6265 688.264 76.7051 687.683 76.7051ZM688.36 74.7466C689.392 74.7466 690.12 74.4492 690.544 73.8545C690.968 73.2598 691.187 72.3677 691.2 71.1782V70.8604C691.2 69.5889 690.995 68.6147 690.585 67.938C690.175 67.2544 689.426 66.9126 688.34 66.9126C687.471 66.9126 686.808 67.2646 686.35 67.9688C685.899 68.666 685.674 69.6401 685.674 70.8911C685.674 72.1421 685.899 73.0991 686.35 73.7622C686.808 74.4185 687.478 74.7466 688.36 74.7466Z" fill="white"/>
<rect width="98" height="18" transform="translate(574.5 8)" fill="#020202"/>
<path d="M586.526 13.0624C586.526 11.9234 587.634 11 589.001 11H590.126C590.5 11 590.801 11.2508 590.801 11.5625C590.801 11.8742 590.5 12.125 590.126 12.125H589.001C588.38 12.125 587.876 12.5445 587.876 13.0624V15.4999H589.226C589.6 15.4999 589.901 15.7507 589.901 16.0624C589.901 16.3741 589.6 16.6249 589.226 16.6249H587.876V20.1568C587.876 21.2068 586.929 22.0904 585.674 22.2075L585.25 22.2474C584.878 22.2825 584.547 22.0599 584.504 21.7505C584.462 21.4412 584.729 21.1646 585.101 21.1294L585.525 21.0896C586.096 21.0357 586.526 20.6349 586.526 20.1568V16.6249H585.177C584.802 16.6249 584.502 16.3741 584.502 16.0624C584.502 15.7507 584.802 15.4999 585.177 15.4999H586.526V13.0624ZM593.397 14.8624C592.612 15.9007 592.151 17.1522 592.151 18.4998C592.151 19.8474 592.612 21.099 593.397 22.1372C593.596 22.3997 593.501 22.7466 593.186 22.913C592.871 23.0794 592.455 22.9997 592.255 22.7372C591.335 21.5208 590.801 20.0631 590.801 18.4998C590.801 16.9366 591.335 15.4788 592.255 14.2624C592.455 13.9999 592.871 13.9202 593.186 14.0866C593.501 14.253 593.596 14.5999 593.397 14.8624ZM599.904 14.8624C599.705 14.5999 599.8 14.253 600.115 14.0866C600.43 13.9202 600.846 13.9999 601.046 14.2624C601.966 15.4788 602.5 16.9366 602.5 18.4998C602.5 20.0631 601.966 21.5208 601.046 22.7372C600.846 22.9997 600.43 23.0794 600.115 22.913C599.8 22.7466 599.705 22.3997 599.904 22.1372C600.689 21.099 601.15 19.8474 601.15 18.4998C601.15 17.1522 600.689 15.9007 599.904 14.8624ZM595.554 16.7889L596.651 17.703L597.747 16.7889C598.012 16.5686 598.439 16.5686 598.701 16.7889C598.962 17.0092 598.965 17.3655 598.701 17.5834L597.604 18.4975L598.701 19.4115C598.965 19.6318 598.965 19.9881 598.701 20.206C598.436 20.424 598.009 20.4263 597.747 20.206L596.651 19.292L595.554 20.206C595.289 20.4263 594.862 20.4263 594.6 20.206C594.339 19.9857 594.336 19.6295 594.6 19.4115L595.697 18.4975L594.6 17.5834C594.336 17.3631 594.336 17.0069 594.6 16.7889C594.865 16.571 595.292 16.5686 595.554 16.7889Z" fill="#FF5C00"/>
<path d="M610.282 22H608.771V12.7197H614.015V14.002H610.282V16.8965H613.773V18.1724H610.282V22ZM621.676 14.9731V22H620.502L620.299 21.0542H620.216C620.068 21.2954 619.88 21.4964 619.651 21.6572C619.423 21.8138 619.169 21.9302 618.89 22.0063C618.61 22.0868 618.316 22.127 618.007 22.127C617.478 22.127 617.026 22.0381 616.649 21.8604C616.277 21.6784 615.991 21.3991 615.792 21.0225C615.593 20.6458 615.494 20.1592 615.494 19.5625V14.9731H616.992V19.2832C616.992 19.8291 617.102 20.2375 617.322 20.5083C617.546 20.7791 617.893 20.9146 618.363 20.9146C618.816 20.9146 619.175 20.8215 619.442 20.6353C619.708 20.4491 619.897 20.174 620.007 19.8101C620.121 19.4461 620.178 18.9997 620.178 18.4707V14.9731H621.676ZM627.478 14.8398C628.269 14.8398 628.885 15.0451 629.325 15.4556C629.77 15.8618 629.992 16.5156 629.992 17.417V22H628.5V17.6963C628.5 17.1504 628.388 16.742 628.164 16.4712C627.939 16.1961 627.592 16.0586 627.123 16.0586C626.441 16.0586 625.967 16.2681 625.701 16.687C625.438 17.106 625.307 17.7132 625.307 18.5088V22H623.815V14.9731H624.977L625.187 15.9253H625.269C625.421 15.6799 625.61 15.4788 625.834 15.3223C626.062 15.1615 626.316 15.0409 626.596 14.9604C626.879 14.88 627.173 14.8398 627.478 14.8398ZM634.911 22.127C634.247 22.127 633.671 21.9979 633.185 21.7397C632.698 21.4816 632.323 21.0859 632.061 20.5527C631.799 20.0195 631.667 19.3424 631.667 18.5215C631.667 17.6667 631.811 16.9684 632.099 16.4268C632.387 15.8851 632.785 15.4852 633.292 15.2271C633.805 14.9689 634.391 14.8398 635.051 14.8398C635.47 14.8398 635.848 14.8822 636.187 14.9668C636.53 15.0472 636.82 15.1466 637.057 15.2651L636.612 16.4585C636.354 16.3527 636.09 16.2638 635.819 16.1919C635.548 16.12 635.288 16.084 635.038 16.084C634.628 16.084 634.285 16.175 634.01 16.3569C633.739 16.5389 633.536 16.8097 633.4 17.1694C633.269 17.5291 633.204 17.9756 633.204 18.5088C633.204 19.0251 633.271 19.4609 633.407 19.8164C633.542 20.1676 633.743 20.4342 634.01 20.6162C634.276 20.7939 634.604 20.8828 634.994 20.8828C635.379 20.8828 635.724 20.8363 636.028 20.7432C636.333 20.6501 636.621 20.5295 636.892 20.3813V21.6763C636.625 21.8286 636.339 21.9408 636.035 22.0127C635.73 22.0889 635.355 22.127 634.911 22.127ZM641.157 20.9209C641.352 20.9209 641.544 20.904 641.735 20.8701C641.925 20.832 642.099 20.7876 642.255 20.7368V21.8667C642.09 21.9386 641.877 22 641.614 22.0508C641.352 22.1016 641.079 22.127 640.795 22.127C640.398 22.127 640.04 22.0614 639.723 21.9302C639.405 21.7948 639.153 21.5641 638.967 21.2383C638.781 20.9124 638.688 20.4618 638.688 19.8862V16.1094H637.729V15.4429L638.758 14.916L639.247 13.4116H640.186V14.9731H642.198V16.1094H640.186V19.8672C640.186 20.2227 640.275 20.4871 640.453 20.6606C640.63 20.8341 640.865 20.9209 641.157 20.9209ZM645.175 14.9731V22H643.684V14.9731H645.175ZM644.439 12.2817C644.667 12.2817 644.864 12.3431 645.029 12.4658C645.199 12.5885 645.283 12.8001 645.283 13.1006C645.283 13.3968 645.199 13.6084 645.029 13.7354C644.864 13.8581 644.667 13.9194 644.439 13.9194C644.202 13.9194 644.001 13.8581 643.836 13.7354C643.675 13.6084 643.595 13.3968 643.595 13.1006C643.595 12.8001 643.675 12.5885 643.836 12.4658C644.001 12.3431 644.202 12.2817 644.439 12.2817ZM653.535 18.4707C653.535 19.0547 653.459 19.5731 653.307 20.0259C653.154 20.4787 652.932 20.8617 652.64 21.1748C652.348 21.4837 651.997 21.7207 651.586 21.8857C651.176 22.0465 650.713 22.127 650.196 22.127C649.714 22.127 649.272 22.0465 648.87 21.8857C648.468 21.7207 648.118 21.4837 647.822 21.1748C647.53 20.8617 647.304 20.4787 647.143 20.0259C646.982 19.5731 646.902 19.0547 646.902 18.4707C646.902 17.6963 647.035 17.0404 647.302 16.5029C647.573 15.9613 647.958 15.5487 648.457 15.2651C648.956 14.9816 649.551 14.8398 650.241 14.8398C650.888 14.8398 651.459 14.9816 651.955 15.2651C652.45 15.5487 652.837 15.9613 653.116 16.5029C653.396 17.0446 653.535 17.7005 653.535 18.4707ZM648.438 18.4707C648.438 18.9827 648.499 19.4207 648.622 19.7847C648.749 20.1486 648.944 20.4279 649.206 20.6226C649.468 20.813 649.807 20.9082 650.222 20.9082C650.636 20.9082 650.975 20.813 651.237 20.6226C651.5 20.4279 651.692 20.1486 651.815 19.7847C651.938 19.4207 651.999 18.9827 651.999 18.4707C651.999 17.9587 651.938 17.5249 651.815 17.1694C651.692 16.8097 651.5 16.5368 651.237 16.3506C650.975 16.1602 650.634 16.0649 650.215 16.0649C649.597 16.0649 649.147 16.2723 648.863 16.687C648.58 17.1017 648.438 17.6963 648.438 18.4707ZM658.912 14.8398C659.703 14.8398 660.319 15.0451 660.759 15.4556C661.203 15.8618 661.425 16.5156 661.425 17.417V22H659.934V17.6963C659.934 17.1504 659.821 16.742 659.597 16.4712C659.373 16.1961 659.026 16.0586 658.556 16.0586C657.875 16.0586 657.401 16.2681 657.134 16.687C656.872 17.106 656.741 17.7132 656.741 18.5088V22H655.249V14.9731H656.411L656.62 15.9253H656.703C656.855 15.6799 657.043 15.4788 657.268 15.3223C657.496 15.1615 657.75 15.0409 658.029 14.9604C658.313 14.88 658.607 14.8398 658.912 14.8398Z" fill="#FF5C00"/>
<rect width="170" height="64" transform="translate(538 149)" fill="#020202"/>
<path d="M598.858 172.919C598.858 173.808 598.639 174.573 598.202 175.216C597.771 175.858 597.149 176.351 596.335 176.692C595.529 177.034 594.565 177.205 593.444 177.205C592.897 177.205 592.374 177.174 591.875 177.113C591.376 177.051 590.904 176.962 590.46 176.846C590.022 176.723 589.622 176.576 589.26 176.405V174.088C589.869 174.354 590.549 174.597 591.301 174.816C592.053 175.028 592.818 175.134 593.598 175.134C594.233 175.134 594.76 175.052 595.177 174.888C595.6 174.717 595.915 174.478 596.12 174.17C596.325 173.855 596.428 173.49 596.428 173.073C596.428 172.628 596.308 172.252 596.069 171.945C595.829 171.637 595.467 171.357 594.982 171.104C594.503 170.844 593.902 170.567 593.177 170.273C592.685 170.075 592.213 169.85 591.762 169.597C591.318 169.344 590.921 169.046 590.573 168.705C590.224 168.363 589.947 167.959 589.742 167.495C589.544 167.023 589.445 166.469 589.445 165.833C589.445 164.986 589.646 164.261 590.05 163.66C590.46 163.058 591.034 162.597 591.772 162.275C592.517 161.954 593.386 161.793 594.377 161.793C595.163 161.793 595.901 161.875 596.592 162.04C597.289 162.204 597.973 162.436 598.642 162.737L597.863 164.716C597.248 164.463 596.65 164.261 596.069 164.111C595.495 163.96 594.907 163.885 594.305 163.885C593.786 163.885 593.345 163.964 592.982 164.121C592.62 164.278 592.343 164.5 592.152 164.788C591.967 165.068 591.875 165.403 591.875 165.792C591.875 166.23 591.981 166.599 592.193 166.9C592.412 167.194 592.746 167.464 593.198 167.71C593.656 167.956 594.244 168.229 594.961 168.53C595.788 168.872 596.489 169.231 597.063 169.607C597.644 169.983 598.089 170.434 598.396 170.96C598.704 171.48 598.858 172.133 598.858 172.919ZM605.938 175.257C606.252 175.257 606.563 175.229 606.871 175.175C607.179 175.113 607.459 175.042 607.712 174.959V176.785C607.445 176.901 607.1 177 606.676 177.082C606.252 177.164 605.811 177.205 605.353 177.205C604.711 177.205 604.133 177.099 603.621 176.887C603.108 176.668 602.701 176.296 602.4 175.77C602.1 175.243 601.949 174.515 601.949 173.585V167.484H600.401V166.408L602.062 165.557L602.851 163.126H604.369V165.649H607.62V167.484H604.369V173.555C604.369 174.129 604.513 174.556 604.8 174.836C605.087 175.117 605.466 175.257 605.938 175.257ZM614.751 165.434C615.763 165.434 616.631 165.642 617.355 166.059C618.08 166.476 618.637 167.067 619.027 167.833C619.416 168.599 619.611 169.515 619.611 170.581V171.873H612.034C612.061 172.974 612.355 173.821 612.915 174.416C613.483 175.011 614.276 175.308 615.294 175.308C616.019 175.308 616.668 175.24 617.243 175.103C617.824 174.959 618.422 174.751 619.037 174.478V176.436C618.47 176.703 617.892 176.897 617.304 177.021C616.716 177.144 616.012 177.205 615.192 177.205C614.078 177.205 613.097 176.99 612.249 176.559C611.408 176.122 610.748 175.472 610.27 174.611C609.798 173.75 609.562 172.68 609.562 171.401C609.562 170.13 609.778 169.05 610.208 168.161C610.639 167.272 611.244 166.596 612.023 166.131C612.803 165.666 613.712 165.434 614.751 165.434ZM614.751 167.249C613.992 167.249 613.377 167.495 612.905 167.987C612.44 168.479 612.167 169.2 612.085 170.15H617.253C617.246 169.583 617.15 169.081 616.966 168.643C616.788 168.206 616.515 167.864 616.145 167.618C615.783 167.372 615.318 167.249 614.751 167.249ZM628.363 165.434C629.709 165.434 630.79 165.926 631.603 166.91C632.423 167.895 632.833 169.357 632.833 171.299C632.833 172.584 632.642 173.667 632.259 174.549C631.883 175.424 631.354 176.087 630.67 176.539C629.993 176.983 629.204 177.205 628.301 177.205C627.727 177.205 627.228 177.13 626.804 176.979C626.38 176.829 626.018 176.634 625.717 176.395C625.417 176.149 625.164 175.882 624.958 175.595H624.815C624.849 175.869 624.88 176.173 624.907 176.508C624.941 176.836 624.958 177.137 624.958 177.41V182.035H622.539V165.649H624.507L624.846 167.218H624.958C625.17 166.896 625.427 166.599 625.728 166.326C626.035 166.052 626.404 165.837 626.835 165.68C627.272 165.516 627.782 165.434 628.363 165.434ZM627.717 167.402C627.054 167.402 626.521 167.536 626.117 167.802C625.721 168.062 625.43 168.455 625.246 168.981C625.068 169.508 624.972 170.167 624.958 170.96V171.299C624.958 172.14 625.044 172.854 625.215 173.442C625.393 174.023 625.683 174.467 626.086 174.775C626.497 175.076 627.05 175.226 627.748 175.226C628.335 175.226 628.821 175.065 629.204 174.744C629.593 174.423 629.884 173.965 630.075 173.37C630.267 172.775 630.362 172.075 630.362 171.268C630.362 170.044 630.144 169.094 629.706 168.417C629.275 167.741 628.612 167.402 627.717 167.402ZM650.87 177H640.718V175.185L644.605 171.248C645.357 170.482 645.975 169.822 646.461 169.269C646.946 168.708 647.305 168.178 647.537 167.679C647.776 167.18 647.896 166.637 647.896 166.049C647.896 165.324 647.688 164.777 647.271 164.408C646.854 164.032 646.303 163.844 645.62 163.844C644.97 163.844 644.369 163.974 643.815 164.234C643.268 164.487 642.701 164.849 642.113 165.321L640.79 163.731C641.207 163.376 641.651 163.051 642.123 162.757C642.602 162.463 643.135 162.231 643.723 162.06C644.311 161.882 644.981 161.793 645.732 161.793C646.683 161.793 647.503 161.964 648.193 162.306C648.884 162.641 649.414 163.109 649.783 163.711C650.159 164.312 650.347 165.013 650.347 165.813C650.347 166.62 650.186 167.365 649.865 168.048C649.544 168.732 649.086 169.409 648.491 170.079C647.896 170.742 647.189 171.463 646.368 172.242L643.774 174.775V174.888H650.87V177ZM653.377 175.729C653.377 175.168 653.52 174.775 653.807 174.549C654.101 174.317 654.457 174.201 654.874 174.201C655.291 174.201 655.646 174.317 655.94 174.549C656.241 174.775 656.391 175.168 656.391 175.729C656.391 176.275 656.241 176.672 655.94 176.918C655.646 177.157 655.291 177.277 654.874 177.277C654.457 177.277 654.101 177.157 653.807 176.918C653.52 176.672 653.377 176.275 653.377 175.729ZM653.377 166.951C653.377 166.384 653.52 165.984 653.807 165.751C654.101 165.519 654.457 165.403 654.874 165.403C655.291 165.403 655.646 165.519 655.94 165.751C656.241 165.984 656.391 166.384 656.391 166.951C656.391 167.491 656.241 167.884 655.94 168.13C655.646 168.37 655.291 168.489 654.874 168.489C654.457 168.489 654.101 168.37 653.807 168.13C653.52 167.884 653.377 167.491 653.377 166.951ZM554.157 192.858H559.755V200.385C558.969 200.645 558.156 200.846 557.315 200.99C556.474 201.133 555.531 201.205 554.485 201.205C552.96 201.205 551.668 200.904 550.609 200.303C549.556 199.694 548.756 198.816 548.209 197.667C547.662 196.512 547.389 195.121 547.389 193.494C547.389 191.929 547.693 190.572 548.302 189.423C548.91 188.268 549.795 187.376 550.957 186.747C552.119 186.111 553.528 185.793 555.182 185.793C555.995 185.793 556.782 185.875 557.54 186.04C558.306 186.197 559.007 186.416 559.642 186.696L558.781 188.726C558.275 188.487 557.708 188.285 557.079 188.121C556.45 187.957 555.797 187.875 555.12 187.875C554.047 187.875 553.121 188.107 552.342 188.572C551.569 189.037 550.974 189.693 550.557 190.541C550.14 191.382 549.932 192.376 549.932 193.525C549.932 194.639 550.099 195.617 550.434 196.458C550.769 197.298 551.292 197.955 552.003 198.426C552.721 198.891 553.647 199.124 554.782 199.124C555.349 199.124 555.831 199.093 556.228 199.031C556.624 198.97 556.99 198.901 557.325 198.826V194.96H554.157V192.858ZM567.83 189.434C568.842 189.434 569.71 189.642 570.434 190.059C571.159 190.476 571.716 191.067 572.106 191.833C572.495 192.599 572.69 193.515 572.69 194.581V195.873H565.113C565.14 196.974 565.434 197.821 565.994 198.416C566.562 199.011 567.355 199.308 568.373 199.308C569.098 199.308 569.747 199.24 570.322 199.103C570.903 198.959 571.501 198.751 572.116 198.478V200.436C571.549 200.703 570.971 200.897 570.383 201.021C569.795 201.144 569.091 201.205 568.271 201.205C567.157 201.205 566.176 200.99 565.328 200.559C564.487 200.122 563.827 199.472 563.349 198.611C562.877 197.75 562.641 196.68 562.641 195.401C562.641 194.13 562.857 193.05 563.287 192.161C563.718 191.272 564.323 190.596 565.102 190.131C565.882 189.666 566.791 189.434 567.83 189.434ZM567.83 191.249C567.071 191.249 566.456 191.495 565.984 191.987C565.519 192.479 565.246 193.2 565.164 194.15H570.332C570.325 193.583 570.229 193.081 570.045 192.643C569.867 192.206 569.594 191.864 569.224 191.618C568.862 191.372 568.397 191.249 567.83 191.249ZM581.534 189.434C582.812 189.434 583.807 189.765 584.518 190.428C585.236 191.084 585.595 192.141 585.595 193.597V201H583.185V194.048C583.185 193.166 583.004 192.506 582.641 192.069C582.279 191.625 581.719 191.402 580.96 191.402C579.859 191.402 579.094 191.741 578.663 192.417C578.239 193.094 578.027 194.075 578.027 195.36V201H575.618V189.649H577.494L577.832 191.187H577.966C578.212 190.791 578.516 190.466 578.878 190.213C579.247 189.953 579.658 189.758 580.109 189.628C580.567 189.499 581.042 189.434 581.534 189.434ZM593.7 189.434C594.712 189.434 595.58 189.642 596.305 190.059C597.029 190.476 597.586 191.067 597.976 191.833C598.366 192.599 598.56 193.515 598.56 194.581V195.873H590.983C591.01 196.974 591.304 197.821 591.865 198.416C592.432 199.011 593.225 199.308 594.244 199.308C594.968 199.308 595.618 199.24 596.192 199.103C596.773 198.959 597.371 198.751 597.986 198.478V200.436C597.419 200.703 596.841 200.897 596.253 201.021C595.665 201.144 594.961 201.205 594.141 201.205C593.027 201.205 592.046 200.99 591.198 200.559C590.357 200.122 589.698 199.472 589.219 198.611C588.747 197.75 588.512 196.68 588.512 195.401C588.512 194.13 588.727 193.05 589.158 192.161C589.588 191.272 590.193 190.596 590.973 190.131C591.752 189.666 592.661 189.434 593.7 189.434ZM593.7 191.249C592.941 191.249 592.326 191.495 591.854 191.987C591.39 192.479 591.116 193.2 591.034 194.15H596.202C596.195 193.583 596.099 193.081 595.915 192.643C595.737 192.206 595.464 191.864 595.095 191.618C594.732 191.372 594.267 191.249 593.7 191.249ZM607.24 189.434C607.432 189.434 607.64 189.444 607.866 189.464C608.091 189.485 608.286 189.512 608.45 189.546L608.225 191.802C608.081 191.761 607.903 191.73 607.691 191.71C607.486 191.689 607.302 191.679 607.138 191.679C606.707 191.679 606.297 191.751 605.907 191.895C605.517 192.031 605.172 192.243 604.872 192.53C604.571 192.811 604.335 193.163 604.164 193.586C603.993 194.01 603.908 194.502 603.908 195.063V201H601.488V189.649H603.374L603.703 191.648H603.815C604.041 191.245 604.321 190.876 604.656 190.541C604.991 190.206 605.374 189.939 605.805 189.741C606.242 189.536 606.721 189.434 607.24 189.434ZM615.212 189.434C616.648 189.434 617.731 189.751 618.463 190.387C619.201 191.023 619.57 192.014 619.57 193.361V201H617.858L617.396 199.39H617.314C616.993 199.8 616.662 200.139 616.32 200.405C615.978 200.672 615.582 200.87 615.13 201C614.686 201.137 614.143 201.205 613.5 201.205C612.823 201.205 612.218 201.082 611.685 200.836C611.152 200.583 610.731 200.2 610.424 199.688C610.116 199.175 609.962 198.525 609.962 197.739C609.962 196.57 610.396 195.692 611.265 195.104C612.14 194.516 613.459 194.191 615.223 194.13L617.191 194.058V193.463C617.191 192.677 617.007 192.117 616.638 191.782C616.275 191.447 615.763 191.279 615.1 191.279C614.532 191.279 613.982 191.361 613.449 191.525C612.915 191.689 612.396 191.891 611.89 192.13L611.111 190.428C611.665 190.134 612.293 189.895 612.998 189.71C613.708 189.526 614.447 189.434 615.212 189.434ZM617.181 195.576L615.715 195.627C614.512 195.668 613.667 195.873 613.182 196.242C612.697 196.611 612.454 197.117 612.454 197.76C612.454 198.32 612.622 198.73 612.957 198.99C613.291 199.243 613.732 199.37 614.279 199.37C615.113 199.37 615.804 199.134 616.351 198.662C616.904 198.184 617.181 197.483 617.181 196.56V195.576ZM627.378 199.257C627.693 199.257 628.004 199.229 628.312 199.175C628.619 199.113 628.899 199.042 629.152 198.959V200.785C628.886 200.901 628.541 201 628.117 201.082C627.693 201.164 627.252 201.205 626.794 201.205C626.151 201.205 625.574 201.099 625.061 200.887C624.548 200.668 624.142 200.296 623.841 199.77C623.54 199.243 623.39 198.515 623.39 197.585V191.484H621.841V190.408L623.502 189.557L624.292 187.126H625.81V189.649H629.06V191.484H625.81V197.555C625.81 198.129 625.953 198.556 626.24 198.836C626.527 199.117 626.907 199.257 627.378 199.257ZM636.191 189.434C637.203 189.434 638.071 189.642 638.796 190.059C639.521 190.476 640.078 191.067 640.467 191.833C640.857 192.599 641.052 193.515 641.052 194.581V195.873H633.474C633.502 196.974 633.795 197.821 634.356 198.416C634.923 199.011 635.716 199.308 636.735 199.308C637.46 199.308 638.109 199.24 638.683 199.103C639.264 198.959 639.862 198.751 640.478 198.478V200.436C639.91 200.703 639.333 200.897 638.745 201.021C638.157 201.144 637.453 201.205 636.632 201.205C635.518 201.205 634.537 200.99 633.689 200.559C632.849 200.122 632.189 199.472 631.71 198.611C631.239 197.75 631.003 196.68 631.003 195.401C631.003 194.13 631.218 193.05 631.649 192.161C632.08 191.272 632.685 190.596 633.464 190.131C634.243 189.666 635.152 189.434 636.191 189.434ZM636.191 191.249C635.433 191.249 634.817 191.495 634.346 191.987C633.881 192.479 633.607 193.2 633.525 194.15H638.693C638.687 193.583 638.591 193.081 638.406 192.643C638.229 192.206 637.955 191.864 637.586 191.618C637.224 191.372 636.759 191.249 636.191 191.249ZM656.278 187.885C655.561 187.885 654.918 188.015 654.351 188.275C653.79 188.535 653.315 188.911 652.925 189.403C652.536 189.888 652.238 190.479 652.033 191.177C651.828 191.867 651.726 192.646 651.726 193.515C651.726 194.677 651.89 195.678 652.218 196.519C652.546 197.353 653.045 197.996 653.715 198.447C654.385 198.891 655.233 199.113 656.258 199.113C656.894 199.113 657.512 199.052 658.114 198.929C658.715 198.806 659.338 198.638 659.98 198.426V200.518C659.372 200.757 658.756 200.932 658.134 201.041C657.512 201.15 656.795 201.205 655.981 201.205C654.45 201.205 653.178 200.887 652.167 200.251C651.162 199.616 650.41 198.72 649.911 197.565C649.419 196.41 649.172 195.056 649.172 193.504C649.172 192.37 649.33 191.331 649.644 190.387C649.959 189.444 650.417 188.63 651.018 187.947C651.62 187.256 652.361 186.727 653.243 186.357C654.132 185.981 655.147 185.793 656.289 185.793C657.041 185.793 657.779 185.879 658.504 186.05C659.235 186.214 659.912 186.45 660.534 186.757L659.672 188.788C659.153 188.542 658.609 188.33 658.042 188.152C657.475 187.974 656.887 187.885 656.278 187.885ZM673.213 195.299C673.213 196.242 673.09 197.08 672.843 197.811C672.597 198.542 672.238 199.161 671.767 199.667C671.295 200.166 670.728 200.549 670.065 200.815C669.402 201.075 668.653 201.205 667.819 201.205C667.04 201.205 666.325 201.075 665.676 200.815C665.027 200.549 664.463 200.166 663.984 199.667C663.512 199.161 663.147 198.542 662.887 197.811C662.627 197.08 662.497 196.242 662.497 195.299C662.497 194.048 662.713 192.988 663.143 192.12C663.581 191.245 664.203 190.579 665.009 190.121C665.816 189.663 666.777 189.434 667.891 189.434C668.937 189.434 669.86 189.663 670.659 190.121C671.459 190.579 672.085 191.245 672.536 192.12C672.987 192.995 673.213 194.055 673.213 195.299ZM664.979 195.299C664.979 196.126 665.078 196.833 665.276 197.421C665.481 198.009 665.796 198.46 666.219 198.775C666.643 199.083 667.19 199.236 667.86 199.236C668.53 199.236 669.077 199.083 669.501 198.775C669.924 198.46 670.236 198.009 670.434 197.421C670.632 196.833 670.731 196.126 670.731 195.299C670.731 194.472 670.632 193.771 670.434 193.197C670.236 192.616 669.924 192.175 669.501 191.874C669.077 191.566 668.527 191.413 667.85 191.413C666.852 191.413 666.124 191.748 665.666 192.417C665.208 193.087 664.979 194.048 664.979 195.299ZM680.006 201.205C678.652 201.205 677.565 200.713 676.745 199.729C675.931 198.737 675.525 197.278 675.525 195.35C675.525 193.402 675.938 191.929 676.765 190.931C677.599 189.933 678.696 189.434 680.057 189.434C680.631 189.434 681.133 189.512 681.564 189.669C681.995 189.82 682.364 190.025 682.672 190.285C682.986 190.544 683.253 190.835 683.471 191.156H683.584C683.55 190.944 683.509 190.64 683.461 190.244C683.42 189.84 683.4 189.468 683.4 189.126V185.045H685.82V201H683.933L683.502 199.452H683.4C683.195 199.78 682.935 200.077 682.62 200.344C682.313 200.604 681.944 200.812 681.513 200.969C681.089 201.126 680.587 201.205 680.006 201.205ZM680.682 199.247C681.715 199.247 682.443 198.949 682.866 198.354C683.29 197.76 683.509 196.868 683.523 195.678V195.36C683.523 194.089 683.318 193.115 682.907 192.438C682.497 191.754 681.749 191.413 680.662 191.413C679.794 191.413 679.131 191.765 678.673 192.469C678.221 193.166 677.996 194.14 677.996 195.391C677.996 196.642 678.221 197.599 678.673 198.262C679.131 198.918 679.8 199.247 680.682 199.247ZM694.007 189.434C695.019 189.434 695.887 189.642 696.612 190.059C697.336 190.476 697.893 191.067 698.283 191.833C698.673 192.599 698.867 193.515 698.867 194.581V195.873H691.29C691.317 196.974 691.611 197.821 692.172 198.416C692.739 199.011 693.532 199.308 694.551 199.308C695.275 199.308 695.925 199.24 696.499 199.103C697.08 198.959 697.678 198.751 698.293 198.478V200.436C697.726 200.703 697.148 200.897 696.56 201.021C695.972 201.144 695.268 201.205 694.448 201.205C693.334 201.205 692.353 200.99 691.505 200.559C690.664 200.122 690.005 199.472 689.526 198.611C689.054 197.75 688.819 196.68 688.819 195.401C688.819 194.13 689.034 193.05 689.465 192.161C689.895 191.272 690.5 190.596 691.28 190.131C692.059 189.666 692.968 189.434 694.007 189.434ZM694.007 191.249C693.248 191.249 692.633 191.495 692.161 191.987C691.697 192.479 691.423 193.2 691.341 194.15H696.509C696.502 193.583 696.406 193.081 696.222 192.643C696.044 192.206 695.771 191.864 695.402 191.618C695.039 191.372 694.574 191.249 694.007 191.249Z" fill="white"/>
</svg>
