<svg width="268" height="268" viewBox="0 0 268 268" fill="none" xmlns="http://www.w3.org/2000/svg">
<g clip-path="url(#clip0_22_2)">
<path fill-rule="evenodd" clip-rule="evenodd" d="M16 168V138C16 163.405 68.8304 184 134 184C199.17 184 252 163.405 252 138V168C252 193.405 199.17 214 134 214C68.8304 214 16 193.405 16 168Z" fill="#D9D9D9"/>
<path fill-rule="evenodd" clip-rule="evenodd" d="M16 122V92C16 117.405 68.8304 138 134 138C199.17 138 252 117.405 252 92V122C252 147.405 199.17 168 134 168C68.8304 168 16 147.405 16 122Z" fill="#D9D9D9"/>
<path fill-rule="evenodd" clip-rule="evenodd" d="M134 0C199.17 0 252 20.5949 252 46V76C252 101.405 199.17 122 134 122C68.8304 122 16 101.405 16 76V46C16 20.5949 68.8304 0 134 0ZM134 80C189.228 80 234 64.7777 234 46C234 27.2223 200 10 134 10C68 10 34 27.2223 34 46C34 64.7777 78.7715 80 134 80Z" fill="#D9D9D9"/>
<path d="M65.2463 169.913C84.5959 175.642 103.056 177.709 123.754 178.539L118.465 263.877C117.891 273.142 130.367 277.393 135.222 268.944C148.556 245.739 179.268 192.115 189.928 171.964C199.274 154.297 204.958 140.027 207.709 132.476C210.404 125.078 203.233 118.871 196.565 120.968C180.701 125.956 165.923 128.015 144.753 128.987L149.96 44.9547C150.543 35.5427 137.77 31.4232 133.059 40.0502C126.784 51.5417 116.912 69.5118 107.763 85.6957C98.4696 102.134 90.283 116.074 87.2181 120.024C80.0925 129.206 66.1328 148.394 60.5596 156.081C56.9699 161.032 59.2603 168.141 65.2463 169.913Z" fill="#F0913C" stroke="#1E1E1E" stroke-width="12"/>
</g>
<defs>
<clipPath id="clip0_22_2">
<rect width="268" height="268" fill="white"/>
</clipPath>
</defs>
</svg>
