<svg width="32" height="32" viewBox="0 0 32 32" fill="none" xmlns="http://www.w3.org/2000/svg">
<g clip-path="url(#clip0_1186_313)">
<path d="M9.69761 25.5346C14.135 28.4745 20.1725 27.9896 24.0821 24.08C26.3428 21.8194 27.4584 18.8473 27.4289 15.8845L31.4579 11.8555C32.8834 17.1934 31.5023 23.1248 27.3146 27.3125C21.0662 33.5609 10.9356 33.5609 4.68722 27.3125C4.13847 26.7638 3.63792 26.1851 3.18555 25.5817L8.5258 20.2414H14.9907L9.69761 25.5346Z" fill="white"/>
<path d="M4.68629 4.68629C0.498623 8.87396 -0.882472 14.8054 0.54301 20.1433L4.572 16.1143C4.54255 13.1515 5.65814 10.1794 7.91878 7.91878C11.8284 4.00915 17.8659 3.52429 22.3033 6.46419L17.0102 11.7574H23.4751L28.8154 6.41711C28.363 5.81373 27.8625 5.23504 27.3137 4.68629C21.0653 -1.5621 10.9347 -1.5621 4.68629 4.68629Z" fill="white"/>
</g>
<defs>
<clipPath id="clip0_1186_313">
<rect width="32" height="32" fill="white"/>
</clipPath>
</defs>
</svg>
