<svg width="680" height="680" viewBox="0 0 680 680" fill="none" xmlns="http://www.w3.org/2000/svg">
<path d="M340 617C276.083 617 214.785 608.149 169.589 592.396C124.394 576.643 99.0041 555.277 99.0047 532.999C99.0054 510.721 124.397 489.356 169.593 473.603C214.789 457.85 276.088 449 340.005 449C403.921 449 465.22 457.85 510.417 473.603C555.613 489.356 581.004 510.721 581.005 532.999C581.005 555.277 555.615 576.643 510.42 592.396C465.225 608.149 403.926 617 340.01 617H340ZM131 475C110.483 496.072 99.5159 516.122 99.1497 533.225C98.7835 550.327 109.031 563.909 128.908 572.666C148.786 581.424 177.627 585.063 212.663 583.235C247.699 581.408 287.755 574.174 328.987 562.228C370.219 550.282 411.243 534.026 448.123 515.018C485.003 496.01 516.5 474.89 539.593 453.683C562.686 432.476 576.599 411.895 579.997 393.914C583.396 375.932 576.165 361.155 559 351C532.865 372.957 499.794 394.175 462.299 413.042C424.804 431.908 383.872 447.927 342.612 459.881C301.351 471.835 260.849 479.409 224.182 482.029C187.514 484.649 155.647 482.245 131 475ZM131 335C110.483 356.072 99.5159 376.122 99.1497 393.225C98.7835 410.327 109.031 423.909 128.908 432.666C148.786 441.424 177.627 445.063 212.663 443.235C247.699 441.408 287.755 434.174 328.987 422.228C370.219 410.282 411.243 394.026 448.123 375.018C485.003 356.01 516.5 334.89 539.593 313.683C562.686 292.476 576.599 271.895 579.997 253.914C583.396 235.932 576.165 221.155 559 211C532.865 232.957 499.794 254.175 462.299 273.042C424.804 291.908 383.872 307.927 342.612 319.881C301.351 331.835 260.849 339.409 224.182 342.029C187.514 344.649 155.647 342.245 131 335ZM119 208C100.018 231.736 94.275 253.295 102.492 269.977C110.708 286.659 132.518 297.722 165.19 301.779C197.862 305.836 239.941 302.708 286.158 292.786C332.374 282.863 380.672 266.588 425 246C369.111 252.646 308.35 252.504 252.726 245.597C197.103 238.689 149.937 225.429 119 208ZM340 211C276.083 211 214.783 203.204 169.587 189.326C124.391 175.448 99.0002 156.626 99.0002 137C99.0003 117.374 124.391 98.5517 169.588 84.6741C214.784 70.7964 276.083 63 340 63C403.917 63 465.217 70.7964 510.413 84.6741C555.609 98.5517 581 117.374 581 137C581 156.626 555.609 175.448 510.413 189.326C465.217 203.204 403.918 211 340.001 211H340Z" stroke="white" stroke-width="80"/>
<path d="M131 475C110.484 496.072 99.5163 516.122 99.1501 533.225C98.7839 550.327 109.031 563.909 128.909 572.666C148.786 581.424 177.627 585.063 212.663 583.235C247.7 581.408 287.756 574.174 328.988 562.228C370.22 550.282 411.244 534.026 448.124 515.018C485.003 496.01 516.501 474.89 539.594 453.683C562.686 432.476 576.6 411.895 579.998 393.914C583.396 375.932 576.166 361.155 559 351C532.866 372.957 499.795 394.175 462.3 413.042C424.805 431.908 383.872 447.927 342.612 459.881C301.352 471.835 260.849 479.409 224.182 482.029C187.515 484.649 155.647 482.245 131 475ZM131 335C110.484 356.072 99.5163 376.122 99.1501 393.225C98.7839 410.327 109.031 423.909 128.909 432.666C148.786 441.424 177.627 445.063 212.663 443.235C247.7 441.408 287.756 434.174 328.988 422.228C370.22 410.282 411.244 394.026 448.124 375.018C485.003 356.01 516.501 334.89 539.594 313.683C562.686 292.476 576.6 271.895 579.998 253.914C583.396 235.932 576.166 221.155 559 211C532.866 232.957 499.795 254.175 462.3 273.042C424.805 291.908 383.872 307.927 342.612 319.881C301.352 331.835 260.849 339.409 224.182 342.029C187.515 344.649 155.647 342.245 131 335Z" fill="#D81B60"/>
<path d="M249 619C294.015 626.348 343.676 628.15 391.371 624.166C439.066 620.183 482.532 610.604 515.979 596.703C549.426 582.803 571.268 565.242 578.597 546.358C585.925 527.475 578.392 508.165 557 491C520.412 521.183 471.081 549.733 415.876 572.676C360.671 595.618 302.339 611.811 249 619ZM119 208C100.018 231.736 94.275 253.295 102.492 269.977C110.708 286.659 132.518 297.722 165.19 301.779C197.862 305.836 239.941 302.708 286.158 292.786C332.374 282.863 380.672 266.588 425 246C369.111 252.646 308.35 252.504 252.726 245.597C197.103 238.689 149.937 225.429 119 208ZM340 211C276.083 211 214.785 203.203 169.589 189.325C124.394 175.447 99.0041 156.625 99.0047 136.999C99.0054 117.373 124.397 98.5514 169.593 84.6738C214.789 70.7963 276.088 63 340.005 63C403.921 63 465.22 70.7963 510.417 84.6738C555.613 98.5514 581.004 117.373 581.005 136.999C581.005 156.625 555.615 175.447 510.42 189.325C465.225 203.203 403.926 211 340.01 211H340Z" fill="black"/>
</svg>
