<svg xmlns="http://www.w3.org/2000/svg" xml:space="preserve" viewBox="0 0 156.053 144"><path fill="#ff4438" d="M147.67 79.448c-10.794 13.601-22.453 29.146-45.769 29.146-20.827 0-28.586-18.37-29.131-33.293 4.563 9.649 13.484 17.462 27.404 17.1 26.77-.863 45.121-25.043 45.121-47.064C145.295 19 125.65 0 91.538 0c-24.396 0-54.62 9.283-74.483 23.964-.215 15.112 8.204 34.759 11.227 32.6 17.219-12.38 30.873-20.35 44.116-24.347C52.794 54.08 5.758 104.84 0 113.775.648 121.98 10.795 144 15.76 144c1.511 0 2.807-.864 4.318-2.375 14.18-15.932 25.74-30.217 36.021-43.986 1.444 20.18 11.367 44.85 39.11 44.85 24.827 0 49.439-17.92 60.665-58.291 1.295-4.966-4.75-8.852-8.204-4.75zm-28.282-32.6c0 12.738-12.521 19-23.964 19-6.116 0-10.814-1.607-14.53-3.694 6.837-10.352 13.605-20.968 20.876-32.332 12.82 2.17 17.618 9.297 17.618 17.027z"/></svg>
