<svg width="128" height="128" viewBox="0 0 128 128" fill="none" xmlns="http://www.w3.org/2000/svg">
<rect x="1" y="1" width="126" height="126" rx="44" fill="#0F0F0F"/>
<rect x="18.25" y="18.25" width="91.5" height="91.5" rx="25.75" stroke="#F0F0F0" stroke-width="8.5"/>
<path fill-rule="evenodd" clip-rule="evenodd" d="M57.6937 43.0982C57.6937 42.4763 57.1887 41.9717 56.5671 41.9717H48.1232C45.3017 41.9717 43.0112 44.2621 43.0112 47.0832V80.9068C43.0112 83.7279 45.3017 86.0187 48.1232 86.0187H56.5671C57.1887 86.0187 57.6937 85.5137 57.6937 84.8922V43.0982ZM82.1179 70.9667C80.8797 68.745 78.0705 66.9412 75.8488 66.9412H62.9215C62.2379 66.9412 61.9923 67.4961 62.3732 68.1798L70.0765 82.0024C71.3148 84.2245 74.1239 86.0283 76.3457 86.0283H89.2726C89.9562 86.0283 90.2022 85.4733 89.8209 84.7894L82.1179 70.9667ZM82.6564 52.2491C82.6564 46.5769 78.0512 41.9717 72.3787 41.9717H63.3103C62.6429 41.9717 62.1013 42.5133 62.1013 43.1807V61.3175C62.1013 61.9849 62.6429 62.5268 63.3103 62.5268H72.3787C78.0512 62.5268 82.6564 57.9216 82.6564 52.2491Z" fill="#F0F0F0"/>
</svg>
