<?xml version="1.0" encoding="UTF-8" standalone="no"?><!DOCTYPE svg PUBLIC "-//W3C//DTD SVG 1.1//EN" "http://www.w3.org/Graphics/SVG/1.1/DTD/svg11.dtd"><svg width="100%" height="100%" viewBox="0 0 134 134" version="1.1" xmlns="http://www.w3.org/2000/svg" xmlns:xlink="http://www.w3.org/1999/xlink" xml:space="preserve" xmlns:serif="http://www.serif.com/" style="fill-rule:evenodd;clip-rule:evenodd;stroke-linejoin:round;stroke-miterlimit:2;"><path id="Back" d="M41.667,7.364c-0,-1.765 -1.433,-3.197 -3.197,-3.197l-23.963,-0c-8.007,-0 -14.507,6.5 -14.507,14.506l0,95.987c0,8.006 6.5,14.507 14.507,14.507l23.963,-0c1.764,-0 3.197,-1.433 3.197,-3.197l-0,-118.606Z" style="fill:#fff;"/><path id="Leg" d="M110.943,86.424c-3.514,-6.305 -11.486,-11.424 -17.791,-11.424l-36.686,-0c-1.94,-0 -2.637,1.575 -1.556,3.515l21.861,39.227c3.514,6.306 11.486,11.425 17.791,11.425l36.685,-0c1.94,-0 2.638,-1.575 1.556,-3.516l-21.86,-39.227Z" style="fill:#fff;"/><path id="Head" d="M83.333,4.167c16.098,-0 29.167,13.069 29.167,29.166c0,16.098 -13.069,29.167 -29.167,29.167l-25.735,-0c-1.894,-0 -3.431,-1.538 -3.431,-3.432l-0,-51.47c-0,-1.894 1.537,-3.431 3.431,-3.431l25.735,-0Z" style="fill:#fff;"/></svg>