<?xml version="1.0" standalone="no"?>
<!DOCTYPE svg PUBLIC "-//W3C//DTD SVG 20010904//EN"
 "http://www.w3.org/TR/2001/REC-SVG-20010904/DTD/svg10.dtd">
<svg version="1.0" xmlns="http://www.w3.org/2000/svg"
 width="1024.000000pt" height="1024.000000pt" viewBox="0 0 1024.000000 1024.000000"
 preserveAspectRatio="xMidYMid meet">
<metadata>
Created by potrace 1.14, written by Peter Selinger 2001-2017
</metadata>
<g transform="translate(0.000000,1024.000000) scale(0.100000,-0.100000)"
fill="#000000" stroke="none">
<path d="M4825 9529 c-938 -63 -1829 -422 -2550 -1028 -122 -102 -366 -342
-479 -471 -482 -548 -829 -1230 -989 -1945 -133 -592 -141 -1222 -21 -1825
202 -1021 754 -1931 1567 -2585 1711 -1376 4173 -1286 5778 211 1046 976 1550
2370 1373 3794 -92 742 -394 1486 -844 2085 -173 230 -413 489 -630 679 -571
502 -1289 858 -2025 1005 -394 79 -795 106 -1180 80z m-329 -2463 l34 -34 -2
-1916 -3 -1916 -28 -27 -27 -28 -403 -3 c-236 -2 -429 1 -467 7 -175 28 -330
167 -374 336 -14 52 -16 243 -16 1635 0 1723 -3 1632 58 1743 34 63 116 145
179 180 99 53 122 56 586 56 l429 1 34 -34z m1575 7 c167 -47 295 -119 412
-232 121 -116 203 -251 254 -418 24 -80 27 -103 27 -248 0 -145 -3 -168 -27
-248 -47 -152 -117 -275 -216 -381 -151 -159 -347 -259 -562 -286 -46 -5 -275
-10 -512 -10 -361 0 -434 2 -461 15 -65 31 -61 -22 -64 890 -2 585 0 841 8
868 7 25 22 45 43 58 31 19 48 19 527 16 468 -3 499 -4 571 -24z m174 -2228
c143 -30 307 -132 406 -251 53 -64 771 -1344 777 -1386 3 -17 -3 -33 -17 -47
-21 -21 -25 -21 -628 -21 -676 0 -687 1 -815 65 -162 81 -268 190 -374 381
-39 71 -201 361 -359 644 -158 283 -291 526 -297 539 -13 34 -3 66 24 79 16 7
208 11 618 11 489 1 608 -2 665 -14z"/>
</g>
</svg>
