<svg width="1811" height="170" viewBox="0 0 1811 170" fill="none" xmlns="http://www.w3.org/2000/svg">
<rect y="42" width="226" height="103" rx="8" fill="#020202"/>
<rect x="1" y="43" width="224" height="101" rx="7" stroke="white" stroke-opacity="0.9" stroke-width="2"/>
<path d="M102.923 86.5088V96.209C102.923 97.2549 102.701 98.1914 102.257 99.0186C101.819 99.8457 101.156 100.502 100.268 100.987C99.3788 101.466 98.2612 101.705 96.9145 101.705C94.9936 101.705 93.5307 101.203 92.5258 100.198C91.5278 99.186 91.0287 97.8428 91.0287 96.168V86.5088H93.4897V95.9526C93.4897 97.2036 93.7836 98.1265 94.3715 98.7212C94.9594 99.3159 95.8378 99.6133 97.0068 99.6133C97.8134 99.6133 98.4697 99.4731 98.9755 99.1929C99.4882 98.9058 99.8642 98.4888 100.103 97.9419C100.35 97.3882 100.473 96.7217 100.473 95.9424V86.5088H102.923ZM114.351 98.2598C114.351 99.0049 114.17 99.6338 113.808 100.146C113.445 100.659 112.916 101.049 112.218 101.315C111.528 101.575 110.68 101.705 109.675 101.705C108.882 101.705 108.199 101.647 107.624 101.531C107.057 101.421 106.52 101.25 106.015 101.018V98.9365C106.555 99.1895 107.16 99.4082 107.83 99.5928C108.506 99.7773 109.145 99.8696 109.747 99.8696C110.54 99.8696 111.111 99.7466 111.459 99.5005C111.808 99.2476 111.982 98.9126 111.982 98.4956C111.982 98.2495 111.911 98.0308 111.767 97.8394C111.63 97.6411 111.371 97.4395 110.988 97.2344C110.612 97.0225 110.058 96.7695 109.327 96.4756C108.609 96.1885 108.004 95.9014 107.512 95.6143C107.02 95.3271 106.647 94.9819 106.394 94.5786C106.141 94.1685 106.015 93.6455 106.015 93.0098C106.015 92.0049 106.411 91.2427 107.204 90.7231C108.004 90.1968 109.06 89.9336 110.373 89.9336C111.07 89.9336 111.726 90.0054 112.341 90.1489C112.963 90.2856 113.572 90.4873 114.166 90.7539L113.408 92.5688C112.895 92.3433 112.379 92.1587 111.859 92.0151C111.347 91.8647 110.824 91.7896 110.291 91.7896C109.668 91.7896 109.193 91.8853 108.865 92.0767C108.544 92.2681 108.383 92.5415 108.383 92.897C108.383 93.1636 108.462 93.3892 108.619 93.5737C108.776 93.7583 109.046 93.9429 109.429 94.1274C109.819 94.312 110.359 94.541 111.049 94.8145C111.726 95.0742 112.311 95.3477 112.803 95.6348C113.302 95.915 113.685 96.2603 113.951 96.6704C114.218 97.0806 114.351 97.6104 114.351 98.2598ZM121.688 89.9336C122.699 89.9336 123.567 90.1421 124.292 90.5591C125.017 90.9761 125.574 91.5674 125.963 92.333C126.353 93.0986 126.548 94.0146 126.548 95.0811V96.373H118.97C118.998 97.4736 119.292 98.3213 119.852 98.916C120.419 99.5107 121.212 99.8081 122.231 99.8081C122.956 99.8081 123.605 99.7397 124.179 99.603C124.76 99.4595 125.358 99.251 125.974 98.9775V100.936C125.406 101.203 124.829 101.397 124.241 101.521C123.653 101.644 122.949 101.705 122.128 101.705C121.014 101.705 120.033 101.49 119.186 101.059C118.345 100.622 117.685 99.9722 117.207 99.1108C116.735 98.2495 116.499 97.1797 116.499 95.9014C116.499 94.6299 116.714 93.5498 117.145 92.6611C117.576 91.7725 118.181 91.0957 118.96 90.6309C119.739 90.166 120.648 89.9336 121.688 89.9336ZM121.688 91.7485C120.929 91.7485 120.313 91.9946 119.842 92.4868C119.377 92.979 119.104 93.7002 119.021 94.6504H124.189C124.183 94.083 124.087 93.5806 123.902 93.1431C123.725 92.7056 123.451 92.3638 123.082 92.1177C122.72 91.8716 122.255 91.7485 121.688 91.7485ZM135.228 89.9336C135.419 89.9336 135.628 89.9438 135.853 89.9644C136.079 89.9849 136.273 90.0122 136.438 90.0464L136.212 92.3022C136.068 92.2612 135.891 92.2305 135.679 92.21C135.474 92.1895 135.289 92.1792 135.125 92.1792C134.694 92.1792 134.284 92.251 133.895 92.3945C133.505 92.5312 133.16 92.7432 132.859 93.0303C132.558 93.3105 132.322 93.6626 132.151 94.0864C131.981 94.5103 131.895 95.0024 131.895 95.563V101.5H129.475V90.1489H131.362L131.69 92.1484H131.803C132.028 91.7451 132.309 91.376 132.644 91.041C132.979 90.7061 133.361 90.4395 133.792 90.2412C134.23 90.0361 134.708 89.9336 135.228 89.9336Z" fill="white"/>
<path d="M497.707 98.7071C498.098 98.3166 498.098 97.6834 497.707 97.2929L491.343 90.9289C490.953 90.5384 490.319 90.5384 489.929 90.9289C489.538 91.3195 489.538 91.9526 489.929 92.3431L495.586 98L489.929 103.657C489.538 104.047 489.538 104.681 489.929 105.071C490.319 105.462 490.953 105.462 491.343 105.071L497.707 98.7071ZM240 98V99H497V98V97H240V98Z" fill="white"/>
<path d="M1562.71 98.7071C1563.1 98.3166 1563.1 97.6834 1562.71 97.2929L1556.34 90.9289C1555.95 90.5384 1555.32 90.5384 1554.93 90.9289C1554.54 91.3195 1554.54 91.9526 1554.93 92.3431L1560.59 98L1554.93 103.657C1554.54 104.047 1554.54 104.681 1554.93 105.071C1555.32 105.462 1555.95 105.462 1556.34 105.071L1562.71 98.7071ZM1302 98V99H1562V98V97H1302V98Z" fill="white"/>
<path d="M1011.71 98.7071C1012.1 98.3166 1012.1 97.6834 1011.71 97.2929L1005.34 90.9289C1004.95 90.5384 1004.32 90.5384 1003.93 90.9289C1003.54 91.3195 1003.54 91.9526 1003.93 92.3431L1009.59 98L1003.93 103.657C1003.54 104.047 1003.54 104.681 1003.93 105.071C1004.32 105.462 1004.95 105.462 1005.34 105.071L1011.71 98.7071ZM751 98V99H1011V98V97H751V98Z" fill="white"/>
<rect width="163" height="40" transform="translate(1350 78)" fill="#020202"/>
<path d="M1364.77 91.0088C1366.7 91.0088 1368.11 91.4053 1369 92.1982C1369.89 92.9912 1370.33 94.1021 1370.33 95.5308C1370.33 96.1802 1370.23 96.7988 1370.03 97.3867C1369.83 97.9678 1369.5 98.4839 1369.04 98.9351C1368.58 99.3794 1367.98 99.7314 1367.23 99.9912C1366.48 100.251 1365.56 100.381 1364.47 100.381H1362.87V106H1360.41V91.0088H1364.77ZM1364.6 93.0493H1362.87V98.3301H1364.21C1364.99 98.3301 1365.64 98.2412 1366.18 98.0635C1366.72 97.8789 1367.13 97.5884 1367.41 97.1919C1367.69 96.7954 1367.83 96.2725 1367.83 95.623C1367.83 94.7549 1367.57 94.1089 1367.04 93.6851C1366.52 93.2612 1365.71 93.0493 1364.6 93.0493ZM1383.19 94.6489V106H1381.29L1380.96 104.472H1380.83C1380.59 104.862 1380.29 105.187 1379.92 105.446C1379.55 105.699 1379.14 105.887 1378.69 106.01C1378.23 106.14 1377.76 106.205 1377.26 106.205C1376.41 106.205 1375.67 106.062 1375.07 105.774C1374.46 105.48 1374 105.029 1373.68 104.421C1373.36 103.812 1373.2 103.026 1373.2 102.062V94.6489H1375.62V101.611C1375.62 102.493 1375.8 103.153 1376.15 103.59C1376.52 104.028 1377.08 104.247 1377.83 104.247C1378.57 104.247 1379.15 104.096 1379.58 103.795C1380.01 103.495 1380.31 103.05 1380.49 102.462C1380.68 101.875 1380.77 101.153 1380.77 100.299V94.6489H1383.19ZM1389.26 90.0449V93.8901C1389.26 94.3345 1389.25 94.772 1389.22 95.2026C1389.2 95.6265 1389.18 95.958 1389.16 96.1973H1389.26C1389.57 95.7051 1390 95.2915 1390.54 94.9565C1391.1 94.6147 1391.81 94.4438 1392.67 94.4438C1394.01 94.4438 1395.1 94.9395 1395.92 95.9307C1396.74 96.915 1397.15 98.3745 1397.15 100.309C1397.15 101.594 1396.96 102.674 1396.58 103.549C1396.21 104.424 1395.68 105.087 1394.99 105.539C1394.32 105.983 1393.52 106.205 1392.61 106.205C1391.74 106.205 1391.05 106.048 1390.51 105.733C1389.99 105.412 1389.57 105.04 1389.27 104.616H1389.1L1388.66 106H1386.85V90.0449H1389.26ZM1392.03 96.4023C1391.35 96.4023 1390.8 96.5391 1390.4 96.8125C1390 97.0859 1389.72 97.4961 1389.54 98.043C1389.36 98.583 1389.27 99.27 1389.26 100.104V100.319C1389.26 101.584 1389.46 102.551 1389.86 103.221C1390.26 103.891 1390.99 104.226 1392.05 104.226C1392.89 104.226 1393.54 103.888 1393.99 103.211C1394.44 102.527 1394.67 101.55 1394.67 100.278C1394.67 98.9932 1394.44 98.0259 1393.99 97.3765C1393.55 96.7271 1392.89 96.4023 1392.03 96.4023ZM1402.57 106H1400.15V90.0449H1402.57V106ZM1408.63 94.6489V106H1406.22V94.6489H1408.63ZM1407.44 90.3013C1407.81 90.3013 1408.13 90.4004 1408.4 90.5986C1408.67 90.7969 1408.81 91.1387 1408.81 91.624C1408.81 92.1025 1408.67 92.4443 1408.4 92.6494C1408.13 92.8477 1407.81 92.9468 1407.44 92.9468C1407.06 92.9468 1406.73 92.8477 1406.47 92.6494C1406.21 92.4443 1406.08 92.1025 1406.08 91.624C1406.08 91.1387 1406.21 90.7969 1406.47 90.5986C1406.73 90.4004 1407.06 90.3013 1407.44 90.3013ZM1419.93 102.76C1419.93 103.505 1419.75 104.134 1419.38 104.646C1419.02 105.159 1418.49 105.549 1417.79 105.815C1417.1 106.075 1416.26 106.205 1415.25 106.205C1414.46 106.205 1413.77 106.147 1413.2 106.031C1412.63 105.921 1412.1 105.75 1411.59 105.518V103.437C1412.13 103.689 1412.73 103.908 1413.4 104.093C1414.08 104.277 1414.72 104.37 1415.32 104.37C1416.12 104.37 1416.69 104.247 1417.03 104C1417.38 103.748 1417.56 103.413 1417.56 102.996C1417.56 102.75 1417.49 102.531 1417.34 102.339C1417.21 102.141 1416.95 101.939 1416.56 101.734C1416.19 101.522 1415.63 101.27 1414.9 100.976C1414.18 100.688 1413.58 100.401 1413.09 100.114C1412.59 99.8271 1412.22 99.4819 1411.97 99.0786C1411.72 98.6685 1411.59 98.1455 1411.59 97.5098C1411.59 96.5049 1411.99 95.7427 1412.78 95.2231C1413.58 94.6968 1414.64 94.4336 1415.95 94.4336C1416.64 94.4336 1417.3 94.5054 1417.92 94.6489C1418.54 94.7856 1419.15 94.9873 1419.74 95.2539L1418.98 97.0688C1418.47 96.8433 1417.95 96.6587 1417.43 96.5151C1416.92 96.3647 1416.4 96.2896 1415.87 96.2896C1415.24 96.2896 1414.77 96.3853 1414.44 96.5767C1414.12 96.7681 1413.96 97.0415 1413.96 97.397C1413.96 97.6636 1414.04 97.8892 1414.19 98.0737C1414.35 98.2583 1414.62 98.4429 1415 98.6274C1415.39 98.812 1415.93 99.041 1416.62 99.3145C1417.3 99.5742 1417.89 99.8477 1418.38 100.135C1418.88 100.415 1419.26 100.76 1419.53 101.17C1419.79 101.581 1419.93 102.11 1419.93 102.76ZM1425.15 90.0449V94.0542C1425.15 94.4712 1425.14 94.8779 1425.11 95.2744C1425.09 95.6709 1425.06 95.9785 1425.04 96.1973H1425.17C1425.41 95.8008 1425.7 95.4761 1426.05 95.2231C1426.4 94.9634 1426.79 94.7686 1427.22 94.6387C1427.66 94.5088 1428.12 94.4438 1428.62 94.4438C1429.48 94.4438 1430.22 94.5908 1430.83 94.8848C1431.44 95.1719 1431.9 95.6196 1432.23 96.228C1432.55 96.8364 1432.72 97.626 1432.72 98.5967V106H1430.31V99.0479C1430.31 98.166 1430.13 97.5063 1429.76 97.0688C1429.4 96.6245 1428.84 96.4023 1428.08 96.4023C1427.35 96.4023 1426.77 96.5562 1426.34 96.8638C1425.92 97.1646 1425.61 97.6123 1425.43 98.207C1425.24 98.7949 1425.15 99.5127 1425.15 100.36V106H1422.74V90.0449H1425.15ZM1446.43 91.0088C1447.72 91.0088 1448.79 91.166 1449.63 91.4805C1450.47 91.7949 1451.1 92.2734 1451.51 92.916C1451.93 93.5586 1452.14 94.3755 1452.14 95.3667C1452.14 96.105 1452 96.7339 1451.73 97.2534C1451.45 97.7729 1451.1 98.2036 1450.65 98.5454C1450.21 98.8872 1449.73 99.1606 1449.23 99.3657L1453.48 106H1450.7L1447.08 99.9912H1444.67V106H1442.21V91.0088H1446.43ZM1446.26 93.0596H1444.67V97.9609H1446.38C1447.52 97.9609 1448.34 97.749 1448.86 97.3252C1449.38 96.9014 1449.64 96.2759 1449.64 95.4487C1449.64 94.5806 1449.36 93.9653 1448.81 93.603C1448.26 93.2407 1447.41 93.0596 1446.26 93.0596ZM1460.11 94.4336C1461.12 94.4336 1461.99 94.6421 1462.71 95.0591C1463.44 95.4761 1464 96.0674 1464.39 96.833C1464.78 97.5986 1464.97 98.5146 1464.97 99.5811V100.873H1457.39C1457.42 101.974 1457.71 102.821 1458.28 103.416C1458.84 104.011 1459.64 104.308 1460.65 104.308C1461.38 104.308 1462.03 104.24 1462.6 104.103C1463.18 103.959 1463.78 103.751 1464.4 103.478V105.436C1463.83 105.703 1463.25 105.897 1462.66 106.021C1462.08 106.144 1461.37 106.205 1460.55 106.205C1459.44 106.205 1458.46 105.99 1457.61 105.559C1456.77 105.122 1456.11 104.472 1455.63 103.611C1455.16 102.75 1454.92 101.68 1454.92 100.401C1454.92 99.1299 1455.14 98.0498 1455.57 97.1611C1456 96.2725 1456.6 95.5957 1457.38 95.1309C1458.16 94.666 1459.07 94.4336 1460.11 94.4336ZM1460.11 96.2485C1459.35 96.2485 1458.74 96.4946 1458.26 96.9868C1457.8 97.479 1457.53 98.2002 1457.44 99.1504H1462.61C1462.61 98.583 1462.51 98.0806 1462.33 97.6431C1462.15 97.2056 1461.87 96.8638 1461.5 96.6177C1461.14 96.3716 1460.68 96.2485 1460.11 96.2485ZM1475.53 102.76C1475.53 103.505 1475.35 104.134 1474.98 104.646C1474.62 105.159 1474.09 105.549 1473.39 105.815C1472.7 106.075 1471.86 106.205 1470.85 106.205C1470.06 106.205 1469.37 106.147 1468.8 106.031C1468.23 105.921 1467.7 105.75 1467.19 105.518V103.437C1467.73 103.689 1468.34 103.908 1469.01 104.093C1469.68 104.277 1470.32 104.37 1470.92 104.37C1471.72 104.37 1472.29 104.247 1472.64 104C1472.98 103.748 1473.16 103.413 1473.16 102.996C1473.16 102.75 1473.09 102.531 1472.94 102.339C1472.81 102.141 1472.55 101.939 1472.16 101.734C1471.79 101.522 1471.23 101.27 1470.5 100.976C1469.78 100.688 1469.18 100.401 1468.69 100.114C1468.2 99.8271 1467.82 99.4819 1467.57 99.0786C1467.32 98.6685 1467.19 98.1455 1467.19 97.5098C1467.19 96.5049 1467.59 95.7427 1468.38 95.2231C1469.18 94.6968 1470.24 94.4336 1471.55 94.4336C1472.25 94.4336 1472.9 94.5054 1473.52 94.6489C1474.14 94.7856 1474.75 94.9873 1475.34 95.2539L1474.58 97.0688C1474.07 96.8433 1473.55 96.6587 1473.04 96.5151C1472.52 96.3647 1472 96.2896 1471.47 96.2896C1470.84 96.2896 1470.37 96.3853 1470.04 96.5767C1469.72 96.7681 1469.56 97.0415 1469.56 97.397C1469.56 97.6636 1469.64 97.8892 1469.8 98.0737C1469.95 98.2583 1470.22 98.4429 1470.61 98.6274C1470.99 98.812 1471.53 99.041 1472.23 99.3145C1472.9 99.5742 1473.49 99.8477 1473.98 100.135C1474.48 100.415 1474.86 100.76 1475.13 101.17C1475.39 101.581 1475.53 102.11 1475.53 102.76ZM1488.24 94.6489V106H1486.34L1486.01 104.472H1485.88C1485.64 104.862 1485.33 105.187 1484.97 105.446C1484.6 105.699 1484.19 105.887 1483.74 106.01C1483.28 106.14 1482.81 106.205 1482.31 106.205C1481.46 106.205 1480.72 106.062 1480.12 105.774C1479.51 105.48 1479.05 105.029 1478.73 104.421C1478.41 103.812 1478.25 103.026 1478.25 102.062V94.6489H1480.67V101.611C1480.67 102.493 1480.85 103.153 1481.2 103.59C1481.56 104.028 1482.13 104.247 1482.88 104.247C1483.62 104.247 1484.2 104.096 1484.63 103.795C1485.06 103.495 1485.36 103.05 1485.54 102.462C1485.72 101.875 1485.82 101.153 1485.82 100.299V94.6489H1488.24ZM1494.32 106H1491.9V90.0449H1494.32V106ZM1502.2 104.257C1502.52 104.257 1502.83 104.229 1503.14 104.175C1503.44 104.113 1503.72 104.042 1503.98 103.959V105.785C1503.71 105.901 1503.36 106 1502.94 106.082C1502.52 106.164 1502.08 106.205 1501.62 106.205C1500.97 106.205 1500.4 106.099 1499.88 105.887C1499.37 105.668 1498.97 105.296 1498.66 104.77C1498.36 104.243 1498.21 103.515 1498.21 102.585V96.4844H1496.66V95.4077L1498.33 94.5566L1499.12 92.1265H1500.63V94.6489H1503.88V96.4844H1500.63V102.555C1500.63 103.129 1500.78 103.556 1501.06 103.836C1501.35 104.117 1501.73 104.257 1502.2 104.257Z" fill="white"/>
<rect width="134" height="40" transform="translate(805 78)" fill="#020202"/>
<path d="M824.092 101.919C824.092 102.808 823.873 103.573 823.436 104.216C823.005 104.858 822.383 105.351 821.57 105.692C820.763 106.034 819.799 106.205 818.678 106.205C818.131 106.205 817.608 106.174 817.109 106.113C816.61 106.051 816.138 105.962 815.694 105.846C815.257 105.723 814.857 105.576 814.494 105.405V103.088C815.103 103.354 815.783 103.597 816.535 103.816C817.287 104.028 818.053 104.134 818.832 104.134C819.468 104.134 819.994 104.052 820.411 103.888C820.835 103.717 821.149 103.478 821.354 103.17C821.559 102.855 821.662 102.49 821.662 102.073C821.662 101.628 821.542 101.252 821.303 100.945C821.064 100.637 820.701 100.357 820.216 100.104C819.738 99.8442 819.136 99.5674 818.411 99.2734C817.919 99.0752 817.448 98.8496 816.996 98.5967C816.552 98.3438 816.156 98.0464 815.807 97.7046C815.458 97.3628 815.181 96.9595 814.976 96.4946C814.778 96.0229 814.679 95.4692 814.679 94.8335C814.679 93.9858 814.881 93.2612 815.284 92.6597C815.694 92.0581 816.268 91.5967 817.007 91.2754C817.752 90.9541 818.62 90.7935 819.611 90.7935C820.397 90.7935 821.136 90.8755 821.826 91.0396C822.523 91.2036 823.207 91.436 823.877 91.7368L823.097 93.7158C822.482 93.4629 821.884 93.2612 821.303 93.1108C820.729 92.9604 820.141 92.8853 819.539 92.8853C819.02 92.8853 818.579 92.9639 818.217 93.1211C817.854 93.2783 817.577 93.5005 817.386 93.7876C817.201 94.0679 817.109 94.4028 817.109 94.7925C817.109 95.23 817.215 95.5991 817.427 95.8999C817.646 96.1938 817.981 96.4639 818.432 96.71C818.89 96.9561 819.478 97.2295 820.196 97.5303C821.023 97.8721 821.723 98.231 822.298 98.6069C822.879 98.9829 823.323 99.4341 823.631 99.9604C823.938 100.48 824.092 101.133 824.092 101.919ZM832.772 94.4336C834.119 94.4336 835.199 94.9258 836.012 95.9102C836.832 96.8945 837.243 98.3574 837.243 100.299C837.243 101.584 837.051 102.667 836.668 103.549C836.292 104.424 835.763 105.087 835.079 105.539C834.402 105.983 833.613 106.205 832.71 106.205C832.136 106.205 831.637 106.13 831.213 105.979C830.789 105.829 830.427 105.634 830.126 105.395C829.826 105.149 829.573 104.882 829.368 104.595H829.224C829.258 104.869 829.289 105.173 829.316 105.508C829.35 105.836 829.368 106.137 829.368 106.41V111.035H826.948V94.6489H828.916L829.255 96.2178H829.368C829.579 95.8965 829.836 95.5991 830.137 95.3257C830.444 95.0522 830.813 94.8369 831.244 94.6797C831.682 94.5156 832.191 94.4336 832.772 94.4336ZM832.126 96.4023C831.463 96.4023 830.93 96.5356 830.526 96.8022C830.13 97.062 829.839 97.4551 829.655 97.9814C829.477 98.5078 829.381 99.1675 829.368 99.9604V100.299C829.368 101.14 829.453 101.854 829.624 102.442C829.802 103.023 830.092 103.467 830.495 103.775C830.906 104.076 831.459 104.226 832.157 104.226C832.744 104.226 833.23 104.065 833.613 103.744C834.002 103.423 834.293 102.965 834.484 102.37C834.676 101.775 834.771 101.075 834.771 100.268C834.771 99.0444 834.553 98.0942 834.115 97.4175C833.684 96.7407 833.021 96.4023 832.126 96.4023ZM844.692 94.4336C846.127 94.4336 847.211 94.7515 847.942 95.3872C848.681 96.0229 849.05 97.0142 849.05 98.3608V106H847.337L846.876 104.39H846.794C846.473 104.8 846.141 105.139 845.799 105.405C845.457 105.672 845.061 105.87 844.61 106C844.165 106.137 843.622 106.205 842.979 106.205C842.303 106.205 841.698 106.082 841.164 105.836C840.631 105.583 840.211 105.2 839.903 104.688C839.596 104.175 839.442 103.525 839.442 102.739C839.442 101.57 839.876 100.692 840.744 100.104C841.619 99.5161 842.938 99.1914 844.702 99.1299L846.671 99.0581V98.4634C846.671 97.6772 846.486 97.1167 846.117 96.7817C845.755 96.4468 845.242 96.2793 844.579 96.2793C844.012 96.2793 843.461 96.3613 842.928 96.5254C842.395 96.6895 841.875 96.8911 841.37 97.1304L840.59 95.4282C841.144 95.1343 841.773 94.895 842.477 94.7104C843.188 94.5259 843.926 94.4336 844.692 94.4336ZM846.661 100.576L845.194 100.627C843.991 100.668 843.147 100.873 842.662 101.242C842.176 101.611 841.933 102.117 841.933 102.76C841.933 103.32 842.101 103.73 842.436 103.99C842.771 104.243 843.212 104.37 843.759 104.37C844.593 104.37 845.283 104.134 845.83 103.662C846.384 103.184 846.661 102.483 846.661 101.56V100.576ZM861.913 105.99L860.477 100.709C860.409 100.449 860.327 100.135 860.231 99.7656C860.136 99.3965 860.04 99.0171 859.944 98.6274C859.849 98.231 859.76 97.8652 859.678 97.5303C859.602 97.1953 859.544 96.9355 859.503 96.751H859.421C859.387 96.9355 859.332 97.1953 859.257 97.5303C859.182 97.8652 859.097 98.231 859.001 98.6274C858.905 99.0239 858.81 99.4102 858.714 99.7861C858.625 100.162 858.543 100.483 858.468 100.75L856.96 105.99H854.315L851.136 94.6387H853.577L855.053 100.278C855.149 100.661 855.241 101.075 855.33 101.519C855.426 101.963 855.508 102.387 855.576 102.791C855.644 103.194 855.696 103.525 855.73 103.785H855.812C855.839 103.601 855.877 103.368 855.925 103.088C855.973 102.801 856.027 102.503 856.089 102.196C856.15 101.881 856.212 101.587 856.273 101.314C856.335 101.034 856.393 100.808 856.448 100.637L858.191 94.6387H860.826L862.498 100.637C862.573 100.897 862.655 101.225 862.744 101.622C862.832 102.011 862.911 102.404 862.979 102.801C863.055 103.19 863.102 103.515 863.123 103.775H863.205C863.232 103.542 863.28 103.228 863.349 102.832C863.424 102.428 863.509 102.001 863.605 101.55C863.701 101.092 863.8 100.668 863.902 100.278L865.41 94.6387H867.809L864.61 105.99H861.913ZM875.884 94.4336C877.162 94.4336 878.157 94.7651 878.868 95.4282C879.585 96.0845 879.944 97.1406 879.944 98.5967V106H877.535V99.0479C877.535 98.166 877.353 97.5063 876.991 97.0688C876.629 96.6245 876.068 96.4023 875.31 96.4023C874.209 96.4023 873.443 96.7407 873.013 97.4175C872.589 98.0942 872.377 99.0752 872.377 100.36V106H869.967V94.6489H871.844L872.182 96.187H872.315C872.562 95.7905 872.866 95.4658 873.228 95.2129C873.597 94.9531 874.007 94.7583 874.458 94.6284C874.916 94.4985 875.392 94.4336 875.884 94.4336ZM887.573 110.173C887.197 110.173 886.869 110.149 886.588 110.102C886.301 110.061 886.055 110.002 885.85 109.927V107.866C886.069 107.921 886.305 107.969 886.558 108.01C886.811 108.051 887.081 108.071 887.368 108.071C887.744 108.071 888.086 108 888.393 107.856C888.701 107.712 888.943 107.453 889.121 107.077C889.306 106.701 889.398 106.171 889.398 105.487V91.0088H891.859V105.405C891.859 106.52 891.681 107.425 891.326 108.123C890.97 108.827 890.471 109.343 889.829 109.671C889.186 110.006 888.434 110.173 887.573 110.173ZM905.748 100.299C905.748 101.242 905.625 102.08 905.379 102.811C905.132 103.542 904.774 104.161 904.302 104.667C903.83 105.166 903.263 105.549 902.6 105.815C901.937 106.075 901.188 106.205 900.354 106.205C899.575 106.205 898.86 106.075 898.211 105.815C897.562 105.549 896.998 105.166 896.519 104.667C896.047 104.161 895.682 103.542 895.422 102.811C895.162 102.08 895.032 101.242 895.032 100.299C895.032 99.0479 895.248 97.9883 895.678 97.1201C896.116 96.2451 896.738 95.5786 897.545 95.1206C898.351 94.6626 899.312 94.4336 900.426 94.4336C901.472 94.4336 902.395 94.6626 903.194 95.1206C903.994 95.5786 904.62 96.2451 905.071 97.1201C905.522 97.9951 905.748 99.0547 905.748 100.299ZM897.514 100.299C897.514 101.126 897.613 101.833 897.811 102.421C898.016 103.009 898.331 103.46 898.754 103.775C899.178 104.083 899.725 104.236 900.395 104.236C901.065 104.236 901.612 104.083 902.036 103.775C902.46 103.46 902.771 103.009 902.969 102.421C903.167 101.833 903.266 101.126 903.266 100.299C903.266 99.4717 903.167 98.771 902.969 98.1968C902.771 97.6157 902.46 97.1748 902.036 96.874C901.612 96.5664 901.062 96.4126 900.385 96.4126C899.387 96.4126 898.659 96.7476 898.201 97.4175C897.743 98.0874 897.514 99.0479 897.514 100.299ZM911.136 90.0449V93.8901C911.136 94.3345 911.122 94.772 911.095 95.2026C911.074 95.6265 911.054 95.958 911.033 96.1973H911.136C911.443 95.7051 911.871 95.2915 912.418 94.9565C912.971 94.6147 913.679 94.4438 914.54 94.4438C915.887 94.4438 916.97 94.9395 917.791 95.9307C918.611 96.915 919.021 98.3745 919.021 100.309C919.021 101.594 918.833 102.674 918.457 103.549C918.081 104.424 917.551 105.087 916.868 105.539C916.191 105.983 915.395 106.205 914.479 106.205C913.617 106.205 912.92 106.048 912.387 105.733C911.86 105.412 911.447 105.04 911.146 104.616H910.972L910.531 106H908.726V90.0449H911.136ZM913.904 96.4023C913.221 96.4023 912.677 96.5391 912.274 96.8125C911.878 97.0859 911.59 97.4961 911.413 98.043C911.235 98.583 911.143 99.27 911.136 100.104V100.319C911.136 101.584 911.334 102.551 911.731 103.221C912.134 103.891 912.865 104.226 913.925 104.226C914.766 104.226 915.412 103.888 915.863 103.211C916.314 102.527 916.54 101.55 916.54 100.278C916.54 98.9932 916.314 98.0259 915.863 97.3765C915.419 96.7271 914.766 96.4023 913.904 96.4023ZM929.649 102.76C929.649 103.505 929.468 104.134 929.106 104.646C928.743 105.159 928.214 105.549 927.516 105.815C926.826 106.075 925.978 106.205 924.973 106.205C924.18 106.205 923.497 106.147 922.923 106.031C922.355 105.921 921.819 105.75 921.313 105.518V103.437C921.853 103.689 922.458 103.908 923.128 104.093C923.804 104.277 924.444 104.37 925.045 104.37C925.838 104.37 926.409 104.247 926.757 104C927.106 103.748 927.28 103.413 927.28 102.996C927.28 102.75 927.209 102.531 927.065 102.339C926.928 102.141 926.669 101.939 926.286 101.734C925.91 101.522 925.356 101.27 924.625 100.976C923.907 100.688 923.302 100.401 922.81 100.114C922.318 99.8271 921.945 99.4819 921.692 99.0786C921.439 98.6685 921.313 98.1455 921.313 97.5098C921.313 96.5049 921.709 95.7427 922.502 95.2231C923.302 94.6968 924.358 94.4336 925.671 94.4336C926.368 94.4336 927.024 94.5054 927.639 94.6489C928.261 94.7856 928.87 94.9873 929.465 95.2539L928.706 97.0688C928.193 96.8433 927.677 96.6587 927.157 96.5151C926.645 96.3647 926.122 96.2896 925.589 96.2896C924.966 96.2896 924.491 96.3853 924.163 96.5767C923.842 96.7681 923.681 97.0415 923.681 97.397C923.681 97.6636 923.76 97.8892 923.917 98.0737C924.074 98.2583 924.344 98.4429 924.727 98.6274C925.117 98.812 925.657 99.041 926.347 99.3145C927.024 99.5742 927.609 99.8477 928.101 100.135C928.6 100.415 928.983 100.76 929.249 101.17C929.516 101.581 929.649 102.11 929.649 102.76Z" fill="white"/>
<rect width="156" height="40" transform="translate(279 78)" fill="#020202"/>
<path d="M301.507 98.3608C301.507 100.049 301.193 101.461 300.564 102.596C299.935 103.724 299.022 104.575 297.826 105.149C296.63 105.716 295.187 106 293.499 106H289.336V91.0088H293.95C295.502 91.0088 296.842 91.2891 297.969 91.8496C299.097 92.4033 299.969 93.2271 300.584 94.3208C301.199 95.4077 301.507 96.7544 301.507 98.3608ZM298.944 98.4326C298.944 97.2021 298.749 96.1904 298.359 95.3975C297.976 94.6045 297.409 94.0166 296.657 93.6338C295.912 93.2441 294.992 93.0493 293.899 93.0493H291.797V103.939H293.54C295.351 103.939 296.705 103.478 297.6 102.555C298.496 101.632 298.944 100.258 298.944 98.4326ZM307.111 94.6489V106H304.701V94.6489H307.111ZM305.921 90.3013C306.29 90.3013 306.608 90.4004 306.875 90.5986C307.148 90.7969 307.285 91.1387 307.285 91.624C307.285 92.1025 307.148 92.4443 306.875 92.6494C306.608 92.8477 306.29 92.9468 305.921 92.9468C305.538 92.9468 305.214 92.8477 304.947 92.6494C304.687 92.4443 304.557 92.1025 304.557 91.624C304.557 91.1387 304.687 90.7969 304.947 90.5986C305.214 90.4004 305.538 90.3013 305.921 90.3013ZM318.405 102.76C318.405 103.505 318.224 104.134 317.862 104.646C317.499 105.159 316.97 105.549 316.272 105.815C315.582 106.075 314.734 106.205 313.729 106.205C312.936 106.205 312.253 106.147 311.679 106.031C311.111 105.921 310.575 105.75 310.069 105.518V103.437C310.609 103.689 311.214 103.908 311.884 104.093C312.56 104.277 313.2 104.37 313.801 104.37C314.594 104.37 315.165 104.247 315.514 104C315.862 103.748 316.036 103.413 316.036 102.996C316.036 102.75 315.965 102.531 315.821 102.339C315.684 102.141 315.425 101.939 315.042 101.734C314.666 101.522 314.112 101.27 313.381 100.976C312.663 100.688 312.058 100.401 311.566 100.114C311.074 99.8271 310.701 99.4819 310.448 99.0786C310.195 98.6685 310.069 98.1455 310.069 97.5098C310.069 96.5049 310.465 95.7427 311.258 95.2231C312.058 94.6968 313.114 94.4336 314.427 94.4336C315.124 94.4336 315.78 94.5054 316.395 94.6489C317.017 94.7856 317.626 94.9873 318.221 95.2539L317.462 97.0688C316.949 96.8433 316.433 96.6587 315.913 96.5151C315.401 96.3647 314.878 96.2896 314.345 96.2896C313.722 96.2896 313.247 96.3853 312.919 96.5767C312.598 96.7681 312.437 97.0415 312.437 97.397C312.437 97.6636 312.516 97.8892 312.673 98.0737C312.83 98.2583 313.1 98.4429 313.483 98.6274C313.873 98.812 314.413 99.041 315.103 99.3145C315.78 99.5742 316.365 99.8477 316.857 100.135C317.356 100.415 317.739 100.76 318.005 101.17C318.272 101.581 318.405 102.11 318.405 102.76ZM327.044 94.4336C328.391 94.4336 329.471 94.9258 330.284 95.9102C331.104 96.8945 331.515 98.3574 331.515 100.299C331.515 101.584 331.323 102.667 330.94 103.549C330.564 104.424 330.035 105.087 329.351 105.539C328.674 105.983 327.885 106.205 326.982 106.205C326.408 106.205 325.909 106.13 325.485 105.979C325.061 105.829 324.699 105.634 324.398 105.395C324.098 105.149 323.845 104.882 323.64 104.595H323.496C323.53 104.869 323.561 105.173 323.588 105.508C323.622 105.836 323.64 106.137 323.64 106.41V111.035H321.22V94.6489H323.188L323.527 96.2178H323.64C323.851 95.8965 324.108 95.5991 324.409 95.3257C324.716 95.0522 325.085 94.8369 325.516 94.6797C325.953 94.5156 326.463 94.4336 327.044 94.4336ZM326.398 96.4023C325.735 96.4023 325.202 96.5356 324.798 96.8022C324.402 97.062 324.111 97.4551 323.927 97.9814C323.749 98.5078 323.653 99.1675 323.64 99.9604V100.299C323.64 101.14 323.725 101.854 323.896 102.442C324.074 103.023 324.364 103.467 324.767 103.775C325.178 104.076 325.731 104.226 326.429 104.226C327.016 104.226 327.502 104.065 327.885 103.744C328.274 103.423 328.565 102.965 328.756 102.37C328.948 101.775 329.043 101.075 329.043 100.268C329.043 99.0444 328.825 98.0942 328.387 97.4175C327.956 96.7407 327.293 96.4023 326.398 96.4023ZM338.964 94.4336C340.399 94.4336 341.483 94.7515 342.214 95.3872C342.953 96.0229 343.322 97.0142 343.322 98.3608V106H341.609L341.148 104.39H341.066C340.745 104.8 340.413 105.139 340.071 105.405C339.729 105.672 339.333 105.87 338.882 106C338.437 106.137 337.894 106.205 337.251 106.205C336.575 106.205 335.97 106.082 335.436 105.836C334.903 105.583 334.483 105.2 334.175 104.688C333.868 104.175 333.714 103.525 333.714 102.739C333.714 101.57 334.148 100.692 335.016 100.104C335.891 99.5161 337.21 99.1914 338.974 99.1299L340.943 99.0581V98.4634C340.943 97.6772 340.758 97.1167 340.389 96.7817C340.027 96.4468 339.514 96.2793 338.851 96.2793C338.284 96.2793 337.733 96.3613 337.2 96.5254C336.667 96.6895 336.147 96.8911 335.642 97.1304L334.862 95.4282C335.416 95.1343 336.045 94.895 336.749 94.7104C337.46 94.5259 338.198 94.4336 338.964 94.4336ZM340.933 100.576L339.466 100.627C338.263 100.668 337.419 100.873 336.934 101.242C336.448 101.611 336.205 102.117 336.205 102.76C336.205 103.32 336.373 103.73 336.708 103.99C337.043 104.243 337.484 104.37 338.031 104.37C338.865 104.37 339.555 104.134 340.102 103.662C340.656 103.184 340.933 102.483 340.933 101.56V100.576ZM351.13 104.257C351.444 104.257 351.755 104.229 352.063 104.175C352.371 104.113 352.651 104.042 352.904 103.959V105.785C352.637 105.901 352.292 106 351.868 106.082C351.444 106.164 351.003 106.205 350.545 106.205C349.903 106.205 349.325 106.099 348.812 105.887C348.3 105.668 347.893 105.296 347.592 104.77C347.291 104.243 347.141 103.515 347.141 102.585V96.4844H345.593V95.4077L347.254 94.5566L348.043 92.1265H349.561V94.6489H352.811V96.4844H349.561V102.555C349.561 103.129 349.705 103.556 349.992 103.836C350.279 104.117 350.658 104.257 351.13 104.257ZM359.994 106.205C358.921 106.205 357.991 105.997 357.205 105.58C356.419 105.163 355.814 104.523 355.39 103.662C354.966 102.801 354.754 101.707 354.754 100.381C354.754 99 354.987 97.8721 355.452 96.9971C355.917 96.1221 356.559 95.4761 357.379 95.0591C358.207 94.6421 359.153 94.4336 360.22 94.4336C360.896 94.4336 361.508 94.502 362.055 94.6387C362.609 94.7686 363.077 94.9292 363.46 95.1206L362.742 97.0483C362.325 96.8774 361.898 96.7339 361.46 96.6177C361.023 96.5015 360.603 96.4434 360.199 96.4434C359.536 96.4434 358.982 96.5903 358.538 96.8843C358.101 97.1782 357.772 97.6157 357.554 98.1968C357.342 98.7778 357.236 99.499 357.236 100.36C357.236 101.194 357.345 101.898 357.564 102.473C357.783 103.04 358.107 103.471 358.538 103.765C358.969 104.052 359.499 104.195 360.127 104.195C360.75 104.195 361.307 104.12 361.799 103.97C362.291 103.819 362.756 103.625 363.193 103.385V105.477C362.763 105.723 362.301 105.904 361.809 106.021C361.317 106.144 360.712 106.205 359.994 106.205ZM368.479 90.0449V94.0542C368.479 94.4712 368.465 94.8779 368.438 95.2744C368.418 95.6709 368.394 95.9785 368.366 96.1973H368.5C368.739 95.8008 369.033 95.4761 369.381 95.2231C369.73 94.9634 370.12 94.7686 370.55 94.6387C370.988 94.5088 371.453 94.4438 371.945 94.4438C372.813 94.4438 373.551 94.5908 374.16 94.8848C374.768 95.1719 375.233 95.6196 375.554 96.228C375.882 96.8364 376.046 97.626 376.046 98.5967V106H373.637V99.0479C373.637 98.166 373.456 97.5063 373.093 97.0688C372.731 96.6245 372.17 96.4023 371.412 96.4023C370.68 96.4023 370.099 96.5562 369.668 96.8638C369.245 97.1646 368.94 97.6123 368.756 98.207C368.571 98.7949 368.479 99.5127 368.479 100.36V106H366.069V90.0449H368.479ZM383.675 110.173C383.299 110.173 382.971 110.149 382.691 110.102C382.403 110.061 382.157 110.002 381.952 109.927V107.866C382.171 107.921 382.407 107.969 382.66 108.01C382.913 108.051 383.183 108.071 383.47 108.071C383.846 108.071 384.188 108 384.495 107.856C384.803 107.712 385.046 107.453 385.223 107.077C385.408 106.701 385.5 106.171 385.5 105.487V91.0088H387.961V105.405C387.961 106.52 387.783 107.425 387.428 108.123C387.072 108.827 386.573 109.343 385.931 109.671C385.288 110.006 384.536 110.173 383.675 110.173ZM401.85 100.299C401.85 101.242 401.727 102.08 401.481 102.811C401.235 103.542 400.876 104.161 400.404 104.667C399.932 105.166 399.365 105.549 398.702 105.815C398.039 106.075 397.29 106.205 396.456 106.205C395.677 106.205 394.963 106.075 394.313 105.815C393.664 105.549 393.1 105.166 392.621 104.667C392.15 104.161 391.784 103.542 391.524 102.811C391.264 102.08 391.134 101.242 391.134 100.299C391.134 99.0479 391.35 97.9883 391.78 97.1201C392.218 96.2451 392.84 95.5786 393.647 95.1206C394.453 94.6626 395.414 94.4336 396.528 94.4336C397.574 94.4336 398.497 94.6626 399.297 95.1206C400.096 95.5786 400.722 96.2451 401.173 97.1201C401.624 97.9951 401.85 99.0547 401.85 100.299ZM393.616 100.299C393.616 101.126 393.715 101.833 393.913 102.421C394.118 103.009 394.433 103.46 394.857 103.775C395.28 104.083 395.827 104.236 396.497 104.236C397.167 104.236 397.714 104.083 398.138 103.775C398.562 103.46 398.873 103.009 399.071 102.421C399.269 101.833 399.368 101.126 399.368 100.299C399.368 99.4717 399.269 98.771 399.071 98.1968C398.873 97.6157 398.562 97.1748 398.138 96.874C397.714 96.5664 397.164 96.4126 396.487 96.4126C395.489 96.4126 394.761 96.7476 394.303 97.4175C393.845 98.0874 393.616 99.0479 393.616 100.299ZM407.238 90.0449V93.8901C407.238 94.3345 407.224 94.772 407.197 95.2026C407.176 95.6265 407.156 95.958 407.135 96.1973H407.238C407.546 95.7051 407.973 95.2915 408.52 94.9565C409.073 94.6147 409.781 94.4438 410.642 94.4438C411.989 94.4438 413.072 94.9395 413.893 95.9307C414.713 96.915 415.123 98.3745 415.123 100.309C415.123 101.594 414.935 102.674 414.559 103.549C414.183 104.424 413.654 105.087 412.97 105.539C412.293 105.983 411.497 106.205 410.581 106.205C409.719 106.205 409.022 106.048 408.489 105.733C407.963 105.412 407.549 105.04 407.248 104.616H407.074L406.633 106H404.828V90.0449H407.238ZM410.007 96.4023C409.323 96.4023 408.779 96.5391 408.376 96.8125C407.98 97.0859 407.693 97.4961 407.515 98.043C407.337 98.583 407.245 99.27 407.238 100.104V100.319C407.238 101.584 407.436 102.551 407.833 103.221C408.236 103.891 408.967 104.226 410.027 104.226C410.868 104.226 411.514 103.888 411.965 103.211C412.416 102.527 412.642 101.55 412.642 100.278C412.642 98.9932 412.416 98.0259 411.965 97.3765C411.521 96.7271 410.868 96.4023 410.007 96.4023ZM425.751 102.76C425.751 103.505 425.57 104.134 425.208 104.646C424.845 105.159 424.316 105.549 423.618 105.815C422.928 106.075 422.08 106.205 421.075 106.205C420.282 106.205 419.599 106.147 419.025 106.031C418.457 105.921 417.921 105.75 417.415 105.518V103.437C417.955 103.689 418.56 103.908 419.23 104.093C419.906 104.277 420.546 104.37 421.147 104.37C421.94 104.37 422.511 104.247 422.86 104C423.208 103.748 423.383 103.413 423.383 102.996C423.383 102.75 423.311 102.531 423.167 102.339C423.031 102.141 422.771 101.939 422.388 101.734C422.012 101.522 421.458 101.27 420.727 100.976C420.009 100.688 419.404 100.401 418.912 100.114C418.42 99.8271 418.047 99.4819 417.794 99.0786C417.541 98.6685 417.415 98.1455 417.415 97.5098C417.415 96.5049 417.811 95.7427 418.604 95.2231C419.404 94.6968 420.46 94.4336 421.773 94.4336C422.47 94.4336 423.126 94.5054 423.741 94.6489C424.364 94.7856 424.972 94.9873 425.567 95.2539L424.808 97.0688C424.295 96.8433 423.779 96.6587 423.26 96.5151C422.747 96.3647 422.224 96.2896 421.691 96.2896C421.069 96.2896 420.594 96.3853 420.265 96.5767C419.944 96.7681 419.783 97.0415 419.783 97.397C419.783 97.6636 419.862 97.8892 420.019 98.0737C420.177 98.2583 420.447 98.4429 420.829 98.6274C421.219 98.812 421.759 99.041 422.449 99.3145C423.126 99.5742 423.711 99.8477 424.203 100.135C424.702 100.415 425.085 100.76 425.351 101.17C425.618 101.581 425.751 102.11 425.751 102.76Z" fill="white"/>
<rect x="1048" y="62" width="226" height="103" rx="8" fill="#020202"/>
<rect x="1049" y="63" width="224" height="101" rx="7" stroke="white" stroke-opacity="0.23" stroke-width="2"/>
<rect x="1038" y="52" width="226" height="103" rx="8" fill="#020202"/>
<rect x="1039" y="53" width="224" height="101" rx="7" stroke="white" stroke-opacity="0.23" stroke-width="2"/>
<rect x="1028" y="42" width="226" height="103" rx="8" fill="#020202"/>
<rect x="1029" y="43" width="224" height="101" rx="7" stroke="white" stroke-opacity="0.9" stroke-width="2"/>
<rect x="1028" y="42" width="226" height="103" rx="8" fill="#020202"/>
<rect x="1029" y="43" width="224" height="101" rx="7" stroke="white" stroke-opacity="0.9" stroke-width="2"/>
<path d="M1124.79 105.673C1124.42 105.673 1124.09 105.649 1123.81 105.602C1123.52 105.561 1123.28 105.502 1123.07 105.427V103.366C1123.29 103.421 1123.53 103.469 1123.78 103.51C1124.03 103.551 1124.3 103.571 1124.59 103.571C1124.96 103.571 1125.31 103.5 1125.61 103.356C1125.92 103.212 1126.16 102.953 1126.34 102.577C1126.53 102.201 1126.62 101.671 1126.62 100.987V86.5088H1129.08V100.905C1129.08 102.02 1128.9 102.925 1128.55 103.623C1128.19 104.327 1127.69 104.843 1127.05 105.171C1126.41 105.506 1125.66 105.673 1124.79 105.673ZM1142.97 95.7988C1142.97 96.7422 1142.85 97.5796 1142.6 98.311C1142.35 99.0425 1141.99 99.6611 1141.52 100.167C1141.05 100.666 1140.48 101.049 1139.82 101.315C1139.16 101.575 1138.41 101.705 1137.58 101.705C1136.8 101.705 1136.08 101.575 1135.43 101.315C1134.78 101.049 1134.22 100.666 1133.74 100.167C1133.27 99.6611 1132.9 99.0425 1132.64 98.311C1132.38 97.5796 1132.25 96.7422 1132.25 95.7988C1132.25 94.5479 1132.47 93.4883 1132.9 92.6201C1133.34 91.7451 1133.96 91.0786 1134.77 90.6206C1135.57 90.1626 1136.53 89.9336 1137.65 89.9336C1138.69 89.9336 1139.62 90.1626 1140.42 90.6206C1141.22 91.0786 1141.84 91.7451 1142.29 92.6201C1142.74 93.4951 1142.97 94.5547 1142.97 95.7988ZM1134.73 95.7988C1134.73 96.626 1134.83 97.3335 1135.03 97.9214C1135.24 98.5093 1135.55 98.9604 1135.98 99.2749C1136.4 99.5825 1136.95 99.7363 1137.62 99.7363C1138.29 99.7363 1138.83 99.5825 1139.26 99.2749C1139.68 98.9604 1139.99 98.5093 1140.19 97.9214C1140.39 97.3335 1140.49 96.626 1140.49 95.7988C1140.49 94.9717 1140.39 94.271 1140.19 93.6968C1139.99 93.1157 1139.68 92.6748 1139.26 92.374C1138.83 92.0664 1138.28 91.9126 1137.61 91.9126C1136.61 91.9126 1135.88 92.2476 1135.42 92.9175C1134.96 93.5874 1134.73 94.5479 1134.73 95.7988ZM1148.36 85.5449V89.3901C1148.36 89.8345 1148.34 90.272 1148.32 90.7026C1148.3 91.1265 1148.27 91.458 1148.25 91.6973H1148.36C1148.66 91.2051 1149.09 90.7915 1149.64 90.4565C1150.19 90.1147 1150.9 89.9438 1151.76 89.9438C1153.11 89.9438 1154.19 90.4395 1155.01 91.4307C1155.83 92.415 1156.24 93.8745 1156.24 95.8091C1156.24 97.0942 1156.05 98.1743 1155.68 99.0493C1155.3 99.9243 1154.77 100.587 1154.09 101.039C1153.41 101.483 1152.62 101.705 1151.7 101.705C1150.84 101.705 1150.14 101.548 1149.61 101.233C1149.08 100.912 1148.67 100.54 1148.37 100.116H1148.19L1147.75 101.5H1145.95V85.5449H1148.36ZM1151.13 91.9023C1150.44 91.9023 1149.9 92.0391 1149.5 92.3125C1149.1 92.5859 1148.81 92.9961 1148.63 93.543C1148.46 94.083 1148.36 94.77 1148.36 95.604V95.8193C1148.36 97.084 1148.56 98.0513 1148.95 98.7212C1149.36 99.3911 1150.09 99.7261 1151.15 99.7261C1151.99 99.7261 1152.63 99.3877 1153.08 98.7109C1153.54 98.0273 1153.76 97.0498 1153.76 95.7783C1153.76 94.4932 1153.54 93.5259 1153.08 92.8765C1152.64 92.2271 1151.99 91.9023 1151.13 91.9023Z" fill="white"/>
<rect width="77" height="18" transform="translate(1102 33)" fill="#020202"/>
<g clip-path="url(#clip0_12_1104)">
<path d="M1120.95 40.752C1121.79 40.752 1122.6 40.4226 1123.2 39.8364C1123.8 39.2501 1124.13 38.455 1124.13 37.626C1124.13 36.7969 1123.8 36.0018 1123.2 35.4156C1122.6 34.8293 1121.79 34.5 1120.95 34.5C1120.1 34.5 1119.29 34.8293 1118.7 35.4156C1118.1 36.0018 1117.76 36.7969 1117.76 37.626C1117.76 38.455 1118.1 39.2501 1118.7 39.8364C1119.29 40.4226 1120.1 40.752 1120.95 40.752ZM1118.32 42.0615L1119.91 44.7686C1120.35 45.5156 1120.09 46.4736 1119.33 46.9043L1116.57 48.4687C1115.81 48.8994 1114.84 48.6445 1114.4 47.8975L1112.81 45.1875C1112.37 44.4404 1112.63 43.4824 1113.39 43.0518L1116.15 41.4902C1116.91 41.0596 1117.88 41.3145 1118.32 42.0615ZM1123.65 41.8945C1123.69 41.6719 1123.86 41.4902 1124.08 41.4258C1124.3 41.3613 1124.54 41.4229 1124.7 41.5898C1125.81 42.75 1127.76 44.7832 1128.78 45.8525C1128.92 46.002 1128.98 46.2158 1128.92 46.415C1128.87 46.6143 1128.71 46.7725 1128.51 46.8311C1127.17 47.2236 1124.74 47.9385 1123.4 48.3311C1123.2 48.3896 1122.98 48.3428 1122.82 48.2051C1122.67 48.0674 1122.59 47.8594 1122.63 47.6572C1122.89 46.21 1123.38 43.4619 1123.65 41.8945Z" fill="#FF5C00"/>
</g>
<path d="M1142.1 47L1141.19 44.4229H1137.64L1136.73 47H1135.13L1138.58 37.6816H1140.27L1143.72 47H1142.1ZM1140.8 43.1152L1139.91 40.5762C1139.88 40.4661 1139.83 40.3117 1139.77 40.1128C1139.7 39.9097 1139.64 39.7044 1139.58 39.4971C1139.51 39.2855 1139.46 39.1077 1139.42 38.9639C1139.38 39.1374 1139.32 39.332 1139.26 39.5479C1139.2 39.7594 1139.14 39.9583 1139.08 40.1445C1139.03 40.3307 1138.99 40.4746 1138.96 40.5762L1138.07 43.1152H1140.8ZM1147.62 47.127C1146.96 47.127 1146.38 46.9979 1145.89 46.7397C1145.41 46.4816 1145.03 46.0859 1144.77 45.5527C1144.51 45.0195 1144.38 44.3424 1144.38 43.5215C1144.38 42.6667 1144.52 41.9684 1144.81 41.4268C1145.1 40.8851 1145.49 40.4852 1146 40.2271C1146.51 39.9689 1147.1 39.8398 1147.76 39.8398C1148.18 39.8398 1148.56 39.8822 1148.9 39.9668C1149.24 40.0472 1149.53 40.1466 1149.77 40.2651L1149.32 41.4585C1149.06 41.3527 1148.8 41.2638 1148.53 41.1919C1148.26 41.12 1148 41.084 1147.75 41.084C1147.34 41.084 1146.99 41.175 1146.72 41.3569C1146.45 41.5389 1146.24 41.8097 1146.11 42.1694C1145.98 42.5291 1145.91 42.9756 1145.91 43.5088C1145.91 44.0251 1145.98 44.4609 1146.12 44.8164C1146.25 45.1676 1146.45 45.4342 1146.72 45.6162C1146.99 45.7939 1147.31 45.8828 1147.7 45.8828C1148.09 45.8828 1148.43 45.8363 1148.74 45.7432C1149.04 45.6501 1149.33 45.5295 1149.6 45.3813V46.6763C1149.33 46.8286 1149.05 46.9408 1148.74 47.0127C1148.44 47.0889 1148.06 47.127 1147.62 47.127ZM1153.87 45.9209C1154.06 45.9209 1154.25 45.904 1154.44 45.8701C1154.63 45.832 1154.81 45.7876 1154.96 45.7368V46.8667C1154.8 46.9386 1154.59 47 1154.32 47.0508C1154.06 47.1016 1153.79 47.127 1153.5 47.127C1153.11 47.127 1152.75 47.0614 1152.43 46.9302C1152.11 46.7948 1151.86 46.5641 1151.68 46.2383C1151.49 45.9124 1151.4 45.4618 1151.4 44.8862V41.1094H1150.44V40.4429L1151.47 39.916L1151.96 38.4116H1152.9V39.9731H1154.91V41.1094H1152.9V44.8672C1152.9 45.2227 1152.98 45.4871 1153.16 45.6606C1153.34 45.8341 1153.57 45.9209 1153.87 45.9209ZM1162.61 43.4707C1162.61 44.0547 1162.54 44.5731 1162.38 45.0259C1162.23 45.4787 1162.01 45.8617 1161.72 46.1748C1161.43 46.4837 1161.08 46.7207 1160.66 46.8857C1160.25 47.0465 1159.79 47.127 1159.27 47.127C1158.79 47.127 1158.35 47.0465 1157.95 46.8857C1157.55 46.7207 1157.2 46.4837 1156.9 46.1748C1156.61 45.8617 1156.38 45.4787 1156.22 45.0259C1156.06 44.5731 1155.98 44.0547 1155.98 43.4707C1155.98 42.6963 1156.11 42.0404 1156.38 41.5029C1156.65 40.9613 1157.04 40.5487 1157.54 40.2651C1158.03 39.9816 1158.63 39.8398 1159.32 39.8398C1159.97 39.8398 1160.54 39.9816 1161.03 40.2651C1161.53 40.5487 1161.92 40.9613 1162.19 41.5029C1162.47 42.0446 1162.61 42.7005 1162.61 43.4707ZM1157.52 43.4707C1157.52 43.9827 1157.58 44.4207 1157.7 44.7847C1157.83 45.1486 1158.02 45.4279 1158.28 45.6226C1158.55 45.813 1158.89 45.9082 1159.3 45.9082C1159.71 45.9082 1160.05 45.813 1160.32 45.6226C1160.58 45.4279 1160.77 45.1486 1160.89 44.7847C1161.02 44.4207 1161.08 43.9827 1161.08 43.4707C1161.08 42.9587 1161.02 42.5249 1160.89 42.1694C1160.77 41.8097 1160.58 41.5368 1160.32 41.3506C1160.05 41.1602 1159.71 41.0649 1159.29 41.0649C1158.68 41.0649 1158.22 41.2723 1157.94 41.687C1157.66 42.1017 1157.52 42.6963 1157.52 43.4707ZM1167.89 39.8398C1168.01 39.8398 1168.14 39.8462 1168.28 39.8589C1168.42 39.8716 1168.54 39.8885 1168.64 39.9097L1168.5 41.3062C1168.41 41.2808 1168.3 41.2617 1168.17 41.249C1168.04 41.2363 1167.93 41.23 1167.82 41.23C1167.56 41.23 1167.3 41.2744 1167.06 41.3633C1166.82 41.4479 1166.61 41.5791 1166.42 41.7568C1166.24 41.9303 1166.09 42.1483 1165.98 42.4106C1165.88 42.673 1165.83 42.9777 1165.83 43.3247V47H1164.33V39.9731H1165.5L1165.7 41.2109H1165.77C1165.91 40.9613 1166.08 40.7327 1166.29 40.5254C1166.5 40.318 1166.73 40.153 1167 40.0303C1167.27 39.9033 1167.57 39.8398 1167.89 39.8398Z" fill="#FF5C00"/>
<rect x="511" y="42" width="226" height="103" rx="8" fill="#020202"/>
<rect x="512" y="43" width="224" height="101" rx="7" stroke="white" stroke-opacity="0.9" stroke-width="2"/>
<path d="M558.984 93.3481L562.542 86.5088H565.198L560.214 95.6758V101.5H557.763V95.7681L552.77 86.5088H555.446L558.984 93.3481ZM577.179 95.7988C577.179 96.7422 577.056 97.5796 576.81 98.311C576.564 99.0425 576.205 99.6611 575.733 100.167C575.262 100.666 574.694 101.049 574.031 101.315C573.368 101.575 572.619 101.705 571.785 101.705C571.006 101.705 570.292 101.575 569.642 101.315C568.993 101.049 568.429 100.666 567.951 100.167C567.479 99.6611 567.113 99.0425 566.853 98.311C566.594 97.5796 566.464 96.7422 566.464 95.7988C566.464 94.5479 566.679 93.4883 567.11 92.6201C567.547 91.7451 568.169 91.0786 568.976 90.6206C569.783 90.1626 570.743 89.9336 571.857 89.9336C572.903 89.9336 573.826 90.1626 574.626 90.6206C575.426 91.0786 576.051 91.7451 576.502 92.6201C576.953 93.4951 577.179 94.5547 577.179 95.7988ZM568.945 95.7988C568.945 96.626 569.044 97.3335 569.243 97.9214C569.448 98.5093 569.762 98.9604 570.186 99.2749C570.61 99.5825 571.157 99.7363 571.826 99.7363C572.496 99.7363 573.043 99.5825 573.467 99.2749C573.891 98.9604 574.202 98.5093 574.4 97.9214C574.598 97.3335 574.698 96.626 574.698 95.7988C574.698 94.9717 574.598 94.271 574.4 93.6968C574.202 93.1157 573.891 92.6748 573.467 92.374C573.043 92.0664 572.493 91.9126 571.816 91.9126C570.818 91.9126 570.09 92.2476 569.632 92.9175C569.174 93.5874 568.945 94.5479 568.945 95.7988ZM590.053 90.1489V101.5H588.156L587.827 99.9722H587.694C587.455 100.362 587.151 100.687 586.782 100.946C586.412 101.199 586.002 101.387 585.551 101.51C585.1 101.64 584.625 101.705 584.126 101.705C583.271 101.705 582.54 101.562 581.932 101.274C581.33 100.98 580.869 100.529 580.547 99.9209C580.226 99.3125 580.065 98.5264 580.065 97.5625V90.1489H582.485V97.1113C582.485 97.9932 582.663 98.6528 583.018 99.0903C583.381 99.5278 583.941 99.7466 584.7 99.7466C585.432 99.7466 586.013 99.5962 586.443 99.2954C586.874 98.9946 587.178 98.5503 587.356 97.9624C587.54 97.3745 587.633 96.6533 587.633 95.7988V90.1489H590.053ZM599.471 89.9336C599.662 89.9336 599.871 89.9438 600.096 89.9644C600.322 89.9849 600.517 90.0122 600.681 90.0464L600.455 92.3022C600.311 92.2612 600.134 92.2305 599.922 92.21C599.717 92.1895 599.532 92.1792 599.368 92.1792C598.937 92.1792 598.527 92.251 598.138 92.3945C597.748 92.5312 597.403 92.7432 597.102 93.0303C596.801 93.3105 596.565 93.6626 596.394 94.0864C596.224 94.5103 596.138 95.0024 596.138 95.563V101.5H593.718V90.1489H595.605L595.933 92.1484H596.046C596.271 91.7451 596.552 91.376 596.887 91.041C597.222 90.7061 597.604 90.4395 598.035 90.2412C598.473 90.0361 598.951 89.9336 599.471 89.9336ZM608.904 86.5088H613.364C615.299 86.5088 616.758 86.7891 617.743 87.3496C618.727 87.9102 619.219 88.8774 619.219 90.2515C619.219 90.8257 619.117 91.3452 618.912 91.8101C618.713 92.2681 618.423 92.6475 618.04 92.9482C617.657 93.2422 617.186 93.4404 616.625 93.543V93.6455C617.206 93.748 617.722 93.9292 618.173 94.189C618.631 94.4487 618.99 94.8213 619.25 95.3066C619.517 95.792 619.65 96.4209 619.65 97.1934C619.65 98.1094 619.431 98.8887 618.994 99.5312C618.563 100.174 617.944 100.663 617.138 100.998C616.338 101.333 615.388 101.5 614.287 101.5H608.904V86.5088ZM611.365 92.6919H613.723C614.837 92.6919 615.61 92.5107 616.041 92.1484C616.471 91.7861 616.687 91.2563 616.687 90.5591C616.687 89.8481 616.43 89.3354 615.917 89.021C615.412 88.7065 614.605 88.5493 613.498 88.5493H611.365V92.6919ZM611.365 94.6812V99.439H613.959C615.107 99.439 615.914 99.2168 616.379 98.7725C616.844 98.3281 617.076 97.7266 617.076 96.9678C617.076 96.5029 616.97 96.0996 616.758 95.7578C616.553 95.416 616.215 95.1528 615.743 94.9683C615.271 94.7769 614.636 94.6812 613.836 94.6812H611.365ZM627.161 89.9336C628.596 89.9336 629.68 90.2515 630.411 90.8872C631.149 91.5229 631.519 92.5142 631.519 93.8608V101.5H629.806L629.345 99.8901H629.263C628.941 100.3 628.61 100.639 628.268 100.905C627.926 101.172 627.53 101.37 627.079 101.5C626.634 101.637 626.091 101.705 625.448 101.705C624.772 101.705 624.167 101.582 623.633 101.336C623.1 101.083 622.68 100.7 622.372 100.188C622.064 99.6748 621.911 99.0254 621.911 98.2393C621.911 97.0703 622.345 96.1919 623.213 95.604C624.088 95.0161 625.407 94.6914 627.171 94.6299L629.14 94.5581V93.9634C629.14 93.1772 628.955 92.6167 628.586 92.2817C628.224 91.9468 627.711 91.7793 627.048 91.7793C626.48 91.7793 625.93 91.8613 625.397 92.0254C624.864 92.1895 624.344 92.3911 623.838 92.6304L623.059 90.9282C623.613 90.6343 624.242 90.395 624.946 90.2104C625.657 90.0259 626.395 89.9336 627.161 89.9336ZM629.129 96.0757L627.663 96.127C626.46 96.168 625.616 96.373 625.13 96.7422C624.645 97.1113 624.402 97.6172 624.402 98.2598C624.402 98.8203 624.57 99.2305 624.905 99.4902C625.24 99.7432 625.681 99.8696 626.228 99.8696C627.062 99.8696 627.752 99.6338 628.299 99.1621C628.853 98.6836 629.129 97.9829 629.129 97.0601V96.0757ZM639.675 101.705C638.602 101.705 637.672 101.497 636.886 101.08C636.1 100.663 635.495 100.023 635.071 99.1621C634.648 98.3008 634.436 97.207 634.436 95.8809C634.436 94.5 634.668 93.3721 635.133 92.4971C635.598 91.6221 636.24 90.9761 637.061 90.5591C637.888 90.1421 638.835 89.9336 639.901 89.9336C640.578 89.9336 641.19 90.002 641.736 90.1387C642.29 90.2686 642.758 90.4292 643.141 90.6206L642.423 92.5483C642.006 92.3774 641.579 92.2339 641.142 92.1177C640.704 92.0015 640.284 91.9434 639.88 91.9434C639.217 91.9434 638.664 92.0903 638.219 92.3843C637.782 92.6782 637.454 93.1157 637.235 93.6968C637.023 94.2778 636.917 94.999 636.917 95.8604C636.917 96.6943 637.026 97.3984 637.245 97.9727C637.464 98.54 637.789 98.9707 638.219 99.2646C638.65 99.5518 639.18 99.6953 639.809 99.6953C640.431 99.6953 640.988 99.6201 641.48 99.4697C641.972 99.3193 642.437 99.1245 642.875 98.8853V100.977C642.444 101.223 641.982 101.404 641.49 101.521C640.998 101.644 640.393 101.705 639.675 101.705ZM648.16 85.5449V93.2559C648.16 93.6045 648.147 93.9873 648.119 94.4043C648.092 94.8145 648.065 95.2007 648.037 95.563H648.088C648.266 95.3237 648.478 95.0435 648.724 94.7222C648.977 94.4009 649.216 94.1206 649.442 93.8813L652.908 90.1489H655.676L651.134 95.0298L655.974 101.5H653.144L649.514 96.5166L648.16 97.6753V101.5H645.751V85.5449H648.16ZM662.521 89.9336C663.532 89.9336 664.401 90.1421 665.125 90.5591C665.85 90.9761 666.407 91.5674 666.797 92.333C667.186 93.0986 667.381 94.0146 667.381 95.0811V96.373H659.803C659.831 97.4736 660.125 98.3213 660.685 98.916C661.253 99.5107 662.046 99.8081 663.064 99.8081C663.789 99.8081 664.438 99.7397 665.012 99.603C665.593 99.4595 666.192 99.251 666.807 98.9775V100.936C666.239 101.203 665.662 101.397 665.074 101.521C664.486 101.644 663.782 101.705 662.962 101.705C661.847 101.705 660.866 101.49 660.019 101.059C659.178 100.622 658.518 99.9722 658.04 99.1108C657.568 98.2495 657.332 97.1797 657.332 95.9014C657.332 94.6299 657.548 93.5498 657.978 92.6611C658.409 91.7725 659.014 91.0957 659.793 90.6309C660.572 90.166 661.482 89.9336 662.521 89.9336ZM662.521 91.7485C661.762 91.7485 661.147 91.9946 660.675 92.4868C660.21 92.979 659.937 93.7002 659.855 94.6504H665.023C665.016 94.083 664.92 93.5806 664.735 93.1431C664.558 92.7056 664.284 92.3638 663.915 92.1177C663.553 91.8716 663.088 91.7485 662.521 91.7485ZM676.225 89.9336C677.503 89.9336 678.498 90.2651 679.209 90.9282C679.926 91.5845 680.285 92.6406 680.285 94.0967V101.5H677.876V94.5479C677.876 93.666 677.695 93.0063 677.332 92.5688C676.97 92.1245 676.409 91.9023 675.651 91.9023C674.55 91.9023 673.784 92.2407 673.354 92.9175C672.93 93.5942 672.718 94.5752 672.718 95.8604V101.5H670.308V90.1489H672.185L672.523 91.687H672.656C672.903 91.2905 673.207 90.9658 673.569 90.7129C673.938 90.4531 674.348 90.2583 674.799 90.1284C675.258 89.9985 675.733 89.9336 676.225 89.9336ZM687.683 101.705C686.33 101.705 685.243 101.213 684.423 100.229C683.609 99.2373 683.202 97.7778 683.202 95.8501C683.202 93.9019 683.616 92.4287 684.443 91.4307C685.277 90.4326 686.374 89.9336 687.735 89.9336C688.309 89.9336 688.811 90.0122 689.242 90.1694C689.673 90.3198 690.042 90.5249 690.349 90.7847C690.664 91.0444 690.93 91.335 691.149 91.6562H691.262C691.228 91.4443 691.187 91.1401 691.139 90.7437C691.098 90.3403 691.077 89.9678 691.077 89.626V85.5449H693.497V101.5H691.611L691.18 99.9517H691.077C690.872 100.28 690.613 100.577 690.298 100.844C689.99 101.104 689.621 101.312 689.191 101.469C688.767 101.626 688.264 101.705 687.683 101.705ZM688.36 99.7466C689.392 99.7466 690.12 99.4492 690.544 98.8545C690.968 98.2598 691.187 97.3677 691.2 96.1782V95.8604C691.2 94.5889 690.995 93.6147 690.585 92.938C690.175 92.2544 689.426 91.9126 688.34 91.9126C687.471 91.9126 686.808 92.2646 686.35 92.9688C685.899 93.666 685.674 94.6401 685.674 95.8911C685.674 97.1421 685.899 98.0991 686.35 98.7622C686.808 99.4185 687.478 99.7466 688.36 99.7466Z" fill="white"/>
<rect width="98" height="18" transform="translate(574.5 33)" fill="#020202"/>
<path d="M586.526 38.0624C586.526 36.9234 587.634 36 589.001 36H590.126C590.5 36 590.801 36.2508 590.801 36.5625C590.801 36.8742 590.5 37.125 590.126 37.125H589.001C588.38 37.125 587.876 37.5445 587.876 38.0624V40.4999H589.226C589.6 40.4999 589.901 40.7507 589.901 41.0624C589.901 41.3741 589.6 41.6249 589.226 41.6249H587.876V45.1568C587.876 46.2068 586.929 47.0904 585.674 47.2075L585.25 47.2474C584.878 47.2825 584.547 47.0599 584.504 46.7505C584.462 46.4412 584.729 46.1646 585.101 46.1294L585.525 46.0896C586.096 46.0357 586.526 45.6349 586.526 45.1568V41.6249H585.177C584.802 41.6249 584.502 41.3741 584.502 41.0624C584.502 40.7507 584.802 40.4999 585.177 40.4999H586.526V38.0624ZM593.397 39.8624C592.612 40.9007 592.151 42.1522 592.151 43.4998C592.151 44.8474 592.612 46.099 593.397 47.1372C593.596 47.3997 593.501 47.7466 593.186 47.913C592.871 48.0794 592.455 47.9997 592.255 47.7372C591.335 46.5208 590.801 45.0631 590.801 43.4998C590.801 41.9366 591.335 40.4788 592.255 39.2624C592.455 38.9999 592.871 38.9202 593.186 39.0866C593.501 39.253 593.596 39.5999 593.397 39.8624ZM599.904 39.8624C599.705 39.5999 599.8 39.253 600.115 39.0866C600.43 38.9202 600.846 38.9999 601.046 39.2624C601.966 40.4788 602.5 41.9366 602.5 43.4998C602.5 45.0631 601.966 46.5208 601.046 47.7372C600.846 47.9997 600.43 48.0794 600.115 47.913C599.8 47.7466 599.705 47.3997 599.904 47.1372C600.689 46.099 601.15 44.8474 601.15 43.4998C601.15 42.1522 600.689 40.9007 599.904 39.8624ZM595.554 41.7889L596.651 42.703L597.747 41.7889C598.012 41.5686 598.439 41.5686 598.701 41.7889C598.962 42.0092 598.965 42.3655 598.701 42.5834L597.604 43.4975L598.701 44.4115C598.965 44.6318 598.965 44.9881 598.701 45.206C598.436 45.424 598.009 45.4263 597.747 45.206L596.651 44.292L595.554 45.206C595.289 45.4263 594.862 45.4263 594.6 45.206C594.339 44.9857 594.336 44.6295 594.6 44.4115L595.697 43.4975L594.6 42.5834C594.336 42.3631 594.336 42.0069 594.6 41.7889C594.865 41.571 595.292 41.5686 595.554 41.7889Z" fill="#FF5C00"/>
<path d="M610.282 47H608.771V37.7197H614.015V39.002H610.282V41.8965H613.773V43.1724H610.282V47ZM621.676 39.9731V47H620.502L620.299 46.0542H620.216C620.068 46.2954 619.88 46.4964 619.651 46.6572C619.423 46.8138 619.169 46.9302 618.89 47.0063C618.61 47.0868 618.316 47.127 618.007 47.127C617.478 47.127 617.026 47.0381 616.649 46.8604C616.277 46.6784 615.991 46.3991 615.792 46.0225C615.593 45.6458 615.494 45.1592 615.494 44.5625V39.9731H616.992V44.2832C616.992 44.8291 617.102 45.2375 617.322 45.5083C617.546 45.7791 617.893 45.9146 618.363 45.9146C618.816 45.9146 619.175 45.8215 619.442 45.6353C619.708 45.4491 619.897 45.174 620.007 44.8101C620.121 44.4461 620.178 43.9997 620.178 43.4707V39.9731H621.676ZM627.478 39.8398C628.269 39.8398 628.885 40.0451 629.325 40.4556C629.77 40.8618 629.992 41.5156 629.992 42.417V47H628.5V42.6963C628.5 42.1504 628.388 41.742 628.164 41.4712C627.939 41.1961 627.592 41.0586 627.123 41.0586C626.441 41.0586 625.967 41.2681 625.701 41.687C625.438 42.106 625.307 42.7132 625.307 43.5088V47H623.815V39.9731H624.977L625.187 40.9253H625.269C625.421 40.6799 625.61 40.4788 625.834 40.3223C626.062 40.1615 626.316 40.0409 626.596 39.9604C626.879 39.88 627.173 39.8398 627.478 39.8398ZM634.911 47.127C634.247 47.127 633.671 46.9979 633.185 46.7397C632.698 46.4816 632.323 46.0859 632.061 45.5527C631.799 45.0195 631.667 44.3424 631.667 43.5215C631.667 42.6667 631.811 41.9684 632.099 41.4268C632.387 40.8851 632.785 40.4852 633.292 40.2271C633.805 39.9689 634.391 39.8398 635.051 39.8398C635.47 39.8398 635.848 39.8822 636.187 39.9668C636.53 40.0472 636.82 40.1466 637.057 40.2651L636.612 41.4585C636.354 41.3527 636.09 41.2638 635.819 41.1919C635.548 41.12 635.288 41.084 635.038 41.084C634.628 41.084 634.285 41.175 634.01 41.3569C633.739 41.5389 633.536 41.8097 633.4 42.1694C633.269 42.5291 633.204 42.9756 633.204 43.5088C633.204 44.0251 633.271 44.4609 633.407 44.8164C633.542 45.1676 633.743 45.4342 634.01 45.6162C634.276 45.7939 634.604 45.8828 634.994 45.8828C635.379 45.8828 635.724 45.8363 636.028 45.7432C636.333 45.6501 636.621 45.5295 636.892 45.3813V46.6763C636.625 46.8286 636.339 46.9408 636.035 47.0127C635.73 47.0889 635.355 47.127 634.911 47.127ZM641.157 45.9209C641.352 45.9209 641.544 45.904 641.735 45.8701C641.925 45.832 642.099 45.7876 642.255 45.7368V46.8667C642.09 46.9386 641.877 47 641.614 47.0508C641.352 47.1016 641.079 47.127 640.795 47.127C640.398 47.127 640.04 47.0614 639.723 46.9302C639.405 46.7948 639.153 46.5641 638.967 46.2383C638.781 45.9124 638.688 45.4618 638.688 44.8862V41.1094H637.729V40.4429L638.758 39.916L639.247 38.4116H640.186V39.9731H642.198V41.1094H640.186V44.8672C640.186 45.2227 640.275 45.4871 640.453 45.6606C640.63 45.8341 640.865 45.9209 641.157 45.9209ZM645.175 39.9731V47H643.684V39.9731H645.175ZM644.439 37.2817C644.667 37.2817 644.864 37.3431 645.029 37.4658C645.199 37.5885 645.283 37.8001 645.283 38.1006C645.283 38.3968 645.199 38.6084 645.029 38.7354C644.864 38.8581 644.667 38.9194 644.439 38.9194C644.202 38.9194 644.001 38.8581 643.836 38.7354C643.675 38.6084 643.595 38.3968 643.595 38.1006C643.595 37.8001 643.675 37.5885 643.836 37.4658C644.001 37.3431 644.202 37.2817 644.439 37.2817ZM653.535 43.4707C653.535 44.0547 653.459 44.5731 653.307 45.0259C653.154 45.4787 652.932 45.8617 652.64 46.1748C652.348 46.4837 651.997 46.7207 651.586 46.8857C651.176 47.0465 650.713 47.127 650.196 47.127C649.714 47.127 649.272 47.0465 648.87 46.8857C648.468 46.7207 648.118 46.4837 647.822 46.1748C647.53 45.8617 647.304 45.4787 647.143 45.0259C646.982 44.5731 646.902 44.0547 646.902 43.4707C646.902 42.6963 647.035 42.0404 647.302 41.5029C647.573 40.9613 647.958 40.5487 648.457 40.2651C648.956 39.9816 649.551 39.8398 650.241 39.8398C650.888 39.8398 651.459 39.9816 651.955 40.2651C652.45 40.5487 652.837 40.9613 653.116 41.5029C653.396 42.0446 653.535 42.7005 653.535 43.4707ZM648.438 43.4707C648.438 43.9827 648.499 44.4207 648.622 44.7847C648.749 45.1486 648.944 45.4279 649.206 45.6226C649.468 45.813 649.807 45.9082 650.222 45.9082C650.636 45.9082 650.975 45.813 651.237 45.6226C651.5 45.4279 651.692 45.1486 651.815 44.7847C651.938 44.4207 651.999 43.9827 651.999 43.4707C651.999 42.9587 651.938 42.5249 651.815 42.1694C651.692 41.8097 651.5 41.5368 651.237 41.3506C650.975 41.1602 650.634 41.0649 650.215 41.0649C649.597 41.0649 649.147 41.2723 648.863 41.687C648.58 42.1017 648.438 42.6963 648.438 43.4707ZM658.912 39.8398C659.703 39.8398 660.319 40.0451 660.759 40.4556C661.203 40.8618 661.425 41.5156 661.425 42.417V47H659.934V42.6963C659.934 42.1504 659.821 41.742 659.597 41.4712C659.373 41.1961 659.026 41.0586 658.556 41.0586C657.875 41.0586 657.401 41.2681 657.134 41.687C656.872 42.106 656.741 42.7132 656.741 43.5088V47H655.249V39.9731H656.411L656.62 40.9253H656.703C656.855 40.6799 657.043 40.4788 657.268 40.3223C657.496 40.1615 657.75 40.0409 658.029 39.9604C658.313 39.88 658.607 39.8398 658.912 39.8398Z" fill="#FF5C00"/>
<rect x="1585" y="42" width="226" height="103" rx="8" fill="#020202"/>
<rect x="1586" y="43" width="224" height="101" rx="7" stroke="white" stroke-opacity="0.9" stroke-width="2"/>
<path d="M1621.73 105.673C1621.35 105.673 1621.03 105.649 1620.75 105.602C1620.46 105.561 1620.21 105.502 1620.01 105.427V103.366C1620.23 103.421 1620.46 103.469 1620.72 103.51C1620.97 103.551 1621.24 103.571 1621.53 103.571C1621.9 103.571 1622.24 103.5 1622.55 103.356C1622.86 103.212 1623.1 102.953 1623.28 102.577C1623.46 102.201 1623.56 101.671 1623.56 100.987V86.5088H1626.02V100.905C1626.02 102.02 1625.84 102.925 1625.48 103.623C1625.13 104.327 1624.63 104.843 1623.99 105.171C1623.34 105.506 1622.59 105.673 1621.73 105.673ZM1639.91 95.7988C1639.91 96.7422 1639.78 97.5796 1639.54 98.311C1639.29 99.0425 1638.93 99.6611 1638.46 100.167C1637.99 100.666 1637.42 101.049 1636.76 101.315C1636.09 101.575 1635.35 101.705 1634.51 101.705C1633.73 101.705 1633.02 101.575 1632.37 101.315C1631.72 101.049 1631.16 100.666 1630.68 100.167C1630.2 99.6611 1629.84 99.0425 1629.58 98.311C1629.32 97.5796 1629.19 96.7422 1629.19 95.7988C1629.19 94.5479 1629.41 93.4883 1629.84 92.6201C1630.27 91.7451 1630.9 91.0786 1631.7 90.6206C1632.51 90.1626 1633.47 89.9336 1634.58 89.9336C1635.63 89.9336 1636.55 90.1626 1637.35 90.6206C1638.15 91.0786 1638.78 91.7451 1639.23 92.6201C1639.68 93.4951 1639.91 94.5547 1639.91 95.7988ZM1631.67 95.7988C1631.67 96.626 1631.77 97.3335 1631.97 97.9214C1632.17 98.5093 1632.49 98.9604 1632.91 99.2749C1633.34 99.5825 1633.88 99.7363 1634.55 99.7363C1635.22 99.7363 1635.77 99.5825 1636.19 99.2749C1636.62 98.9604 1636.93 98.5093 1637.13 97.9214C1637.32 97.3335 1637.42 96.626 1637.42 95.7988C1637.42 94.9717 1637.32 94.271 1637.13 93.6968C1636.93 93.1157 1636.62 92.6748 1636.19 92.374C1635.77 92.0664 1635.22 91.9126 1634.54 91.9126C1633.54 91.9126 1632.82 92.2476 1632.36 92.9175C1631.9 93.5874 1631.67 94.5479 1631.67 95.7988ZM1645.29 85.5449V89.3901C1645.29 89.8345 1645.28 90.272 1645.25 90.7026C1645.23 91.1265 1645.21 91.458 1645.19 91.6973H1645.29C1645.6 91.2051 1646.03 90.7915 1646.58 90.4565C1647.13 90.1147 1647.84 89.9438 1648.7 89.9438C1650.04 89.9438 1651.13 90.4395 1651.95 91.4307C1652.77 92.415 1653.18 93.8745 1653.18 95.8091C1653.18 97.0942 1652.99 98.1743 1652.61 99.0493C1652.24 99.9243 1651.71 100.587 1651.03 101.039C1650.35 101.483 1649.55 101.705 1648.64 101.705C1647.77 101.705 1647.08 101.548 1646.54 101.233C1646.02 100.912 1645.6 100.54 1645.3 100.116H1645.13L1644.69 101.5H1642.88V85.5449H1645.29ZM1648.06 91.9023C1647.38 91.9023 1646.83 92.0391 1646.43 92.3125C1646.03 92.5859 1645.75 92.9961 1645.57 93.543C1645.39 94.083 1645.3 94.77 1645.29 95.604V95.8193C1645.29 97.084 1645.49 98.0513 1645.89 98.7212C1646.29 99.3911 1647.02 99.7261 1648.08 99.7261C1648.92 99.7261 1649.57 99.3877 1650.02 98.7109C1650.47 98.0273 1650.7 97.0498 1650.7 95.7783C1650.7 94.4932 1650.47 93.5259 1650.02 92.8765C1649.58 92.2271 1648.92 91.9023 1648.06 91.9023ZM1671.38 101.5L1669.91 97.3369H1664.18L1662.71 101.5H1660.12L1665.7 86.4473H1668.43L1673.99 101.5H1671.38ZM1669.28 95.2246L1667.85 91.123C1667.8 90.9453 1667.72 90.6958 1667.62 90.3745C1667.51 90.0464 1667.41 89.7148 1667.31 89.3799C1667.21 89.0381 1667.12 88.751 1667.05 88.5186C1666.98 88.7988 1666.9 89.1133 1666.8 89.4619C1666.7 89.8037 1666.6 90.125 1666.51 90.4258C1666.42 90.7266 1666.35 90.959 1666.3 91.123L1664.87 95.2246H1669.28ZM1679.18 106.545C1677.64 106.545 1676.46 106.268 1675.64 105.714C1674.82 105.161 1674.41 104.385 1674.41 103.387C1674.41 102.689 1674.63 102.098 1675.06 101.613C1675.5 101.134 1676.13 100.803 1676.94 100.618C1676.63 100.481 1676.37 100.27 1676.14 99.9824C1675.92 99.6885 1675.81 99.3638 1675.81 99.0083C1675.81 98.5845 1675.93 98.2222 1676.17 97.9214C1676.41 97.6206 1676.77 97.3301 1677.25 97.0498C1676.65 96.7969 1676.18 96.3867 1675.81 95.8193C1675.46 95.2451 1675.28 94.5718 1675.28 93.7993C1675.28 92.979 1675.45 92.2817 1675.8 91.7075C1676.15 91.1265 1676.66 90.6855 1677.33 90.3848C1678 90.0771 1678.81 89.9233 1679.76 89.9233C1679.97 89.9233 1680.19 89.937 1680.43 89.9644C1680.67 89.9849 1680.9 90.0122 1681.1 90.0464C1681.32 90.0737 1681.48 90.1045 1681.59 90.1387H1685.51V91.4819L1683.59 91.8408C1683.77 92.1006 1683.92 92.3979 1684.03 92.7329C1684.14 93.061 1684.19 93.4199 1684.19 93.8096C1684.19 94.9854 1683.78 95.9116 1682.97 96.5884C1682.16 97.2583 1681.05 97.5933 1679.63 97.5933C1679.29 97.5796 1678.95 97.5522 1678.63 97.5112C1678.39 97.6616 1678.2 97.8291 1678.07 98.0137C1677.94 98.1914 1677.87 98.3931 1677.87 98.6187C1677.87 98.8032 1677.94 98.9536 1678.07 99.0698C1678.2 99.1792 1678.39 99.2612 1678.64 99.3159C1678.9 99.3706 1679.22 99.3979 1679.59 99.3979H1681.55C1682.79 99.3979 1683.74 99.6611 1684.4 100.188C1685.05 100.714 1685.38 101.486 1685.38 102.505C1685.38 103.797 1684.85 104.792 1683.78 105.489C1682.71 106.193 1681.18 106.545 1679.18 106.545ZM1679.27 104.853C1680.11 104.853 1680.82 104.771 1681.39 104.607C1681.97 104.443 1682.4 104.207 1682.69 103.899C1682.99 103.599 1683.13 103.24 1683.13 102.823C1683.13 102.454 1683.04 102.17 1682.86 101.972C1682.67 101.773 1682.4 101.637 1682.03 101.562C1681.66 101.486 1681.2 101.449 1680.65 101.449H1678.87C1678.42 101.449 1678.03 101.517 1677.69 101.654C1677.35 101.797 1677.08 102.002 1676.89 102.269C1676.71 102.536 1676.61 102.857 1676.61 103.233C1676.61 103.752 1676.84 104.152 1677.3 104.433C1677.77 104.713 1678.42 104.853 1679.27 104.853ZM1679.74 96.0142C1680.44 96.0142 1680.97 95.8228 1681.31 95.4399C1681.65 95.0503 1681.82 94.5034 1681.82 93.7993C1681.82 93.0337 1681.64 92.4595 1681.29 92.0767C1680.94 91.6938 1680.42 91.5024 1679.73 91.5024C1679.05 91.5024 1678.54 91.6973 1678.18 92.0869C1677.83 92.4766 1677.66 93.0542 1677.66 93.8198C1677.66 94.5103 1677.83 95.0503 1678.18 95.4399C1678.54 95.8228 1679.06 96.0142 1679.74 96.0142ZM1691.04 106.545C1689.5 106.545 1688.32 106.268 1687.5 105.714C1686.68 105.161 1686.27 104.385 1686.27 103.387C1686.27 102.689 1686.49 102.098 1686.92 101.613C1687.36 101.134 1687.99 100.803 1688.8 100.618C1688.49 100.481 1688.23 100.27 1688 99.9824C1687.78 99.6885 1687.67 99.3638 1687.67 99.0083C1687.67 98.5845 1687.79 98.2222 1688.03 97.9214C1688.27 97.6206 1688.63 97.3301 1689.11 97.0498C1688.51 96.7969 1688.03 96.3867 1687.67 95.8193C1687.32 95.2451 1687.14 94.5718 1687.14 93.7993C1687.14 92.979 1687.31 92.2817 1687.66 91.7075C1688.01 91.1265 1688.52 90.6855 1689.19 90.3848C1689.86 90.0771 1690.67 89.9233 1691.62 89.9233C1691.82 89.9233 1692.05 89.937 1692.29 89.9644C1692.53 89.9849 1692.76 90.0122 1692.96 90.0464C1693.17 90.0737 1693.34 90.1045 1693.44 90.1387H1697.37V91.4819L1695.44 91.8408C1695.63 92.1006 1695.78 92.3979 1695.89 92.7329C1695.99 93.061 1696.05 93.4199 1696.05 93.8096C1696.05 94.9854 1695.64 95.9116 1694.83 96.5884C1694.02 97.2583 1692.91 97.5933 1691.49 97.5933C1691.14 97.5796 1690.81 97.5522 1690.49 97.5112C1690.25 97.6616 1690.06 97.8291 1689.93 98.0137C1689.8 98.1914 1689.73 98.3931 1689.73 98.6187C1689.73 98.8032 1689.8 98.9536 1689.93 99.0698C1690.06 99.1792 1690.25 99.2612 1690.5 99.3159C1690.76 99.3706 1691.08 99.3979 1691.45 99.3979H1693.4C1694.65 99.3979 1695.6 99.6611 1696.25 100.188C1696.91 100.714 1697.24 101.486 1697.24 102.505C1697.24 103.797 1696.71 104.792 1695.64 105.489C1694.57 106.193 1693.04 106.545 1691.04 106.545ZM1691.13 104.853C1691.97 104.853 1692.68 104.771 1693.25 104.607C1693.82 104.443 1694.26 104.207 1694.55 103.899C1694.85 103.599 1694.99 103.24 1694.99 102.823C1694.99 102.454 1694.9 102.17 1694.72 101.972C1694.53 101.773 1694.25 101.637 1693.89 101.562C1693.52 101.486 1693.06 101.449 1692.51 101.449H1690.73C1690.28 101.449 1689.89 101.517 1689.55 101.654C1689.21 101.797 1688.94 102.002 1688.75 102.269C1688.56 102.536 1688.47 102.857 1688.47 103.233C1688.47 103.752 1688.7 104.152 1689.16 104.433C1689.62 104.713 1690.28 104.853 1691.13 104.853ZM1691.6 96.0142C1692.3 96.0142 1692.83 95.8228 1693.17 95.4399C1693.51 95.0503 1693.68 94.5034 1693.68 93.7993C1693.68 93.0337 1693.5 92.4595 1693.15 92.0767C1692.8 91.6938 1692.28 91.5024 1691.59 91.5024C1690.91 91.5024 1690.4 91.6973 1690.04 92.0869C1689.69 92.4766 1689.52 93.0542 1689.52 93.8198C1689.52 94.5103 1689.69 95.0503 1690.04 95.4399C1690.4 95.8228 1690.92 96.0142 1691.6 96.0142ZM1705.41 89.9336C1705.6 89.9336 1705.81 89.9438 1706.03 89.9644C1706.26 89.9849 1706.45 90.0122 1706.62 90.0464L1706.39 92.3022C1706.25 92.2612 1706.07 92.2305 1705.86 92.21C1705.65 92.1895 1705.47 92.1792 1705.3 92.1792C1704.87 92.1792 1704.46 92.251 1704.07 92.3945C1703.68 92.5312 1703.34 92.7432 1703.04 93.0303C1702.74 93.3105 1702.5 93.6626 1702.33 94.0864C1702.16 94.5103 1702.07 95.0024 1702.07 95.563V101.5H1699.65V90.1489H1701.54L1701.87 92.1484H1701.98C1702.21 91.7451 1702.49 91.376 1702.82 91.041C1703.16 90.7061 1703.54 90.4395 1703.97 90.2412C1704.41 90.0361 1704.89 89.9336 1705.41 89.9336ZM1713.45 89.9336C1714.46 89.9336 1715.33 90.1421 1716.05 90.5591C1716.78 90.9761 1717.34 91.5674 1717.73 92.333C1718.12 93.0986 1718.31 94.0146 1718.31 95.0811V96.373H1710.73C1710.76 97.4736 1711.05 98.3213 1711.61 98.916C1712.18 99.5107 1712.97 99.8081 1713.99 99.8081C1714.72 99.8081 1715.37 99.7397 1715.94 99.603C1716.52 99.4595 1717.12 99.251 1717.74 98.9775V100.936C1717.17 101.203 1716.59 101.397 1716 101.521C1715.42 101.644 1714.71 101.705 1713.89 101.705C1712.78 101.705 1711.8 101.49 1710.95 101.059C1710.11 100.622 1709.45 99.9722 1708.97 99.1108C1708.5 98.2495 1708.26 97.1797 1708.26 95.9014C1708.26 94.6299 1708.48 93.5498 1708.91 92.6611C1709.34 91.7725 1709.94 91.0957 1710.72 90.6309C1711.5 90.166 1712.41 89.9336 1713.45 89.9336ZM1713.45 91.7485C1712.69 91.7485 1712.08 91.9946 1711.6 92.4868C1711.14 92.979 1710.87 93.7002 1710.78 94.6504H1715.95C1715.94 94.083 1715.85 93.5806 1715.66 93.1431C1715.49 92.7056 1715.21 92.3638 1714.84 92.1177C1714.48 91.8716 1714.02 91.7485 1713.45 91.7485ZM1724.48 106.545C1722.94 106.545 1721.76 106.268 1720.94 105.714C1720.12 105.161 1719.71 104.385 1719.71 103.387C1719.71 102.689 1719.93 102.098 1720.37 101.613C1720.8 101.134 1721.43 100.803 1722.24 100.618C1721.93 100.481 1721.67 100.27 1721.44 99.9824C1721.22 99.6885 1721.11 99.3638 1721.11 99.0083C1721.11 98.5845 1721.23 98.2222 1721.47 97.9214C1721.71 97.6206 1722.07 97.3301 1722.55 97.0498C1721.96 96.7969 1721.48 96.3867 1721.11 95.8193C1720.76 95.2451 1720.58 94.5718 1720.58 93.7993C1720.58 92.979 1720.76 92.2817 1721.1 91.7075C1721.45 91.1265 1721.96 90.6855 1722.63 90.3848C1723.3 90.0771 1724.11 89.9233 1725.06 89.9233C1725.27 89.9233 1725.49 89.937 1725.73 89.9644C1725.97 89.9849 1726.2 90.0122 1726.41 90.0464C1726.62 90.0737 1726.78 90.1045 1726.89 90.1387H1730.81V91.4819L1728.89 91.8408C1729.07 92.1006 1729.22 92.3979 1729.33 92.7329C1729.44 93.061 1729.49 93.4199 1729.49 93.8096C1729.49 94.9854 1729.09 95.9116 1728.27 96.5884C1727.46 97.2583 1726.35 97.5933 1724.93 97.5933C1724.59 97.5796 1724.26 97.5522 1723.93 97.5112C1723.69 97.6616 1723.5 97.8291 1723.37 98.0137C1723.24 98.1914 1723.18 98.3931 1723.18 98.6187C1723.18 98.8032 1723.24 98.9536 1723.37 99.0698C1723.5 99.1792 1723.69 99.2612 1723.94 99.3159C1724.2 99.3706 1724.52 99.3979 1724.89 99.3979H1726.85C1728.09 99.3979 1729.04 99.6611 1729.7 100.188C1730.35 100.714 1730.68 101.486 1730.68 102.505C1730.68 103.797 1730.15 104.792 1729.08 105.489C1728.02 106.193 1726.48 106.545 1724.48 106.545ZM1724.57 104.853C1725.41 104.853 1726.12 104.771 1726.69 104.607C1727.27 104.443 1727.7 104.207 1727.99 103.899C1728.29 103.599 1728.44 103.24 1728.44 102.823C1728.44 102.454 1728.34 102.17 1728.16 101.972C1727.97 101.773 1727.7 101.637 1727.33 101.562C1726.96 101.486 1726.5 101.449 1725.95 101.449H1724.17C1723.73 101.449 1723.33 101.517 1722.99 101.654C1722.65 101.797 1722.38 102.002 1722.19 102.269C1722.01 102.536 1721.91 102.857 1721.91 103.233C1721.91 103.752 1722.14 104.152 1722.6 104.433C1723.07 104.713 1723.72 104.853 1724.57 104.853ZM1725.04 96.0142C1725.75 96.0142 1726.27 95.8228 1726.61 95.4399C1726.95 95.0503 1727.12 94.5034 1727.12 93.7993C1727.12 93.0337 1726.95 92.4595 1726.59 92.0767C1726.24 91.6938 1725.72 91.5024 1725.03 91.5024C1724.35 91.5024 1723.84 91.6973 1723.48 92.0869C1723.13 92.4766 1722.96 93.0542 1722.96 93.8198C1722.96 94.5103 1723.13 95.0503 1723.48 95.4399C1723.84 95.8228 1724.36 96.0142 1725.04 96.0142ZM1737.55 89.9336C1738.98 89.9336 1740.07 90.2515 1740.8 90.8872C1741.53 91.5229 1741.9 92.5142 1741.9 93.8608V101.5H1740.19L1739.73 99.8901H1739.65C1739.33 100.3 1739 100.639 1738.65 100.905C1738.31 101.172 1737.92 101.37 1737.46 101.5C1737.02 101.637 1736.48 101.705 1735.83 101.705C1735.16 101.705 1734.55 101.582 1734.02 101.336C1733.49 101.083 1733.07 100.7 1732.76 100.188C1732.45 99.6748 1732.3 99.0254 1732.3 98.2393C1732.3 97.0703 1732.73 96.1919 1733.6 95.604C1734.47 95.0161 1735.79 94.6914 1737.56 94.6299L1739.53 94.5581V93.9634C1739.53 93.1772 1739.34 92.6167 1738.97 92.2817C1738.61 91.9468 1738.1 91.7793 1737.43 91.7793C1736.87 91.7793 1736.32 91.8613 1735.78 92.0254C1735.25 92.1895 1734.73 92.3911 1734.22 92.6304L1733.44 90.9282C1734 90.6343 1734.63 90.395 1735.33 90.2104C1736.04 90.0259 1736.78 89.9336 1737.55 89.9336ZM1739.51 96.0757L1738.05 96.127C1736.85 96.168 1736 96.373 1735.52 96.7422C1735.03 97.1113 1734.79 97.6172 1734.79 98.2598C1734.79 98.8203 1734.96 99.2305 1735.29 99.4902C1735.63 99.7432 1736.07 99.8696 1736.61 99.8696C1737.45 99.8696 1738.14 99.6338 1738.68 99.1621C1739.24 98.6836 1739.51 97.9829 1739.51 97.0601V96.0757ZM1749.71 99.7568C1750.03 99.7568 1750.34 99.7295 1750.65 99.6748C1750.95 99.6133 1751.23 99.5415 1751.49 99.4595V101.285C1751.22 101.401 1750.87 101.5 1750.45 101.582C1750.03 101.664 1749.59 101.705 1749.13 101.705C1748.49 101.705 1747.91 101.599 1747.39 101.387C1746.88 101.168 1746.48 100.796 1746.17 100.27C1745.87 99.7432 1745.72 99.0151 1745.72 98.0854V91.9844H1744.17V90.9077L1745.84 90.0566L1746.63 87.6265H1748.14V90.1489H1751.39V91.9844H1748.14V98.0547C1748.14 98.6289 1748.29 99.0562 1748.57 99.3364C1748.86 99.6167 1749.24 99.7568 1749.71 99.7568ZM1764.05 95.7988C1764.05 96.7422 1763.93 97.5796 1763.68 98.311C1763.44 99.0425 1763.08 99.6611 1762.61 100.167C1762.13 100.666 1761.57 101.049 1760.9 101.315C1760.24 101.575 1759.49 101.705 1758.66 101.705C1757.88 101.705 1757.16 101.575 1756.52 101.315C1755.87 101.049 1755.3 100.666 1754.82 100.167C1754.35 99.6611 1753.99 99.0425 1753.73 98.311C1753.47 97.5796 1753.34 96.7422 1753.34 95.7988C1753.34 94.5479 1753.55 93.4883 1753.98 92.6201C1754.42 91.7451 1755.04 91.0786 1755.85 90.6206C1756.66 90.1626 1757.62 89.9336 1758.73 89.9336C1759.78 89.9336 1760.7 90.1626 1761.5 90.6206C1762.3 91.0786 1762.92 91.7451 1763.38 92.6201C1763.83 93.4951 1764.05 94.5547 1764.05 95.7988ZM1755.82 95.7988C1755.82 96.626 1755.92 97.3335 1756.12 97.9214C1756.32 98.5093 1756.63 98.9604 1757.06 99.2749C1757.48 99.5825 1758.03 99.7363 1758.7 99.7363C1759.37 99.7363 1759.92 99.5825 1760.34 99.2749C1760.76 98.9604 1761.07 98.5093 1761.27 97.9214C1761.47 97.3335 1761.57 96.626 1761.57 95.7988C1761.57 94.9717 1761.47 94.271 1761.27 93.6968C1761.07 93.1157 1760.76 92.6748 1760.34 92.374C1759.92 92.0664 1759.37 91.9126 1758.69 91.9126C1757.69 91.9126 1756.96 92.2476 1756.51 92.9175C1756.05 93.5874 1755.82 94.5479 1755.82 95.7988ZM1772.78 89.9336C1772.97 89.9336 1773.18 89.9438 1773.41 89.9644C1773.63 89.9849 1773.83 90.0122 1773.99 90.0464L1773.77 92.3022C1773.62 92.2612 1773.45 92.2305 1773.23 92.21C1773.03 92.1895 1772.84 92.1792 1772.68 92.1792C1772.25 92.1792 1771.84 92.251 1771.45 92.3945C1771.06 92.5312 1770.72 92.7432 1770.41 93.0303C1770.11 93.3105 1769.88 93.6626 1769.71 94.0864C1769.54 94.5103 1769.45 95.0024 1769.45 95.563V101.5H1767.03V90.1489H1768.92L1769.25 92.1484H1769.36C1769.58 91.7451 1769.86 91.376 1770.2 91.041C1770.53 90.7061 1770.92 90.4395 1771.35 90.2412C1771.78 90.0361 1772.26 89.9336 1772.78 89.9336Z" fill="white"/>
<rect width="77" height="18" transform="translate(1659 33)" fill="#020202"/>
<g clip-path="url(#clip1_12_1104)">
<path d="M1677.95 40.752C1678.79 40.752 1679.6 40.4226 1680.2 39.8364C1680.8 39.2501 1681.13 38.455 1681.13 37.626C1681.13 36.7969 1680.8 36.0018 1680.2 35.4156C1679.6 34.8293 1678.79 34.5 1677.95 34.5C1677.1 34.5 1676.29 34.8293 1675.7 35.4156C1675.1 36.0018 1674.76 36.7969 1674.76 37.626C1674.76 38.455 1675.1 39.2501 1675.7 39.8364C1676.29 40.4226 1677.1 40.752 1677.95 40.752ZM1675.32 42.0615L1676.91 44.7686C1677.35 45.5156 1677.09 46.4736 1676.33 46.9043L1673.57 48.4687C1672.81 48.8994 1671.84 48.6445 1671.4 47.8975L1669.81 45.1875C1669.37 44.4404 1669.63 43.4824 1670.39 43.0518L1673.15 41.4902C1673.91 41.0596 1674.88 41.3145 1675.32 42.0615ZM1680.65 41.8945C1680.69 41.6719 1680.86 41.4902 1681.08 41.4258C1681.3 41.3613 1681.54 41.4229 1681.7 41.5898C1682.81 42.75 1684.76 44.7832 1685.78 45.8525C1685.92 46.002 1685.98 46.2158 1685.92 46.415C1685.87 46.6143 1685.71 46.7725 1685.51 46.8311C1684.17 47.2236 1681.74 47.9385 1680.4 48.3311C1680.2 48.3896 1679.98 48.3428 1679.82 48.2051C1679.67 48.0674 1679.59 47.8594 1679.63 47.6572C1679.89 46.21 1680.38 43.4619 1680.65 41.8945Z" fill="#FF5C00"/>
</g>
<path d="M1699.1 47L1698.19 44.4229H1694.64L1693.73 47H1692.13L1695.58 37.6816H1697.27L1700.72 47H1699.1ZM1697.8 43.1152L1696.91 40.5762C1696.88 40.4661 1696.83 40.3117 1696.77 40.1128C1696.7 39.9097 1696.64 39.7044 1696.58 39.4971C1696.51 39.2855 1696.46 39.1077 1696.42 38.9639C1696.38 39.1374 1696.32 39.332 1696.26 39.5479C1696.2 39.7594 1696.14 39.9583 1696.08 40.1445C1696.03 40.3307 1695.99 40.4746 1695.96 40.5762L1695.07 43.1152H1697.8ZM1704.62 47.127C1703.96 47.127 1703.38 46.9979 1702.89 46.7397C1702.41 46.4816 1702.03 46.0859 1701.77 45.5527C1701.51 45.0195 1701.38 44.3424 1701.38 43.5215C1701.38 42.6667 1701.52 41.9684 1701.81 41.4268C1702.1 40.8851 1702.49 40.4852 1703 40.2271C1703.51 39.9689 1704.1 39.8398 1704.76 39.8398C1705.18 39.8398 1705.56 39.8822 1705.9 39.9668C1706.24 40.0472 1706.53 40.1466 1706.77 40.2651L1706.32 41.4585C1706.06 41.3527 1705.8 41.2638 1705.53 41.1919C1705.26 41.12 1705 41.084 1704.75 41.084C1704.34 41.084 1703.99 41.175 1703.72 41.3569C1703.45 41.5389 1703.24 41.8097 1703.11 42.1694C1702.98 42.5291 1702.91 42.9756 1702.91 43.5088C1702.91 44.0251 1702.98 44.4609 1703.12 44.8164C1703.25 45.1676 1703.45 45.4342 1703.72 45.6162C1703.99 45.7939 1704.31 45.8828 1704.7 45.8828C1705.09 45.8828 1705.43 45.8363 1705.74 45.7432C1706.04 45.6501 1706.33 45.5295 1706.6 45.3813V46.6763C1706.33 46.8286 1706.05 46.9408 1705.74 47.0127C1705.44 47.0889 1705.06 47.127 1704.62 47.127ZM1710.87 45.9209C1711.06 45.9209 1711.25 45.904 1711.44 45.8701C1711.63 45.832 1711.81 45.7876 1711.96 45.7368V46.8667C1711.8 46.9386 1711.59 47 1711.32 47.0508C1711.06 47.1016 1710.79 47.127 1710.5 47.127C1710.11 47.127 1709.75 47.0614 1709.43 46.9302C1709.11 46.7948 1708.86 46.5641 1708.68 46.2383C1708.49 45.9124 1708.4 45.4618 1708.4 44.8862V41.1094H1707.44V40.4429L1708.47 39.916L1708.96 38.4116H1709.9V39.9731H1711.91V41.1094H1709.9V44.8672C1709.9 45.2227 1709.98 45.4871 1710.16 45.6606C1710.34 45.8341 1710.57 45.9209 1710.87 45.9209ZM1719.61 43.4707C1719.61 44.0547 1719.54 44.5731 1719.38 45.0259C1719.23 45.4787 1719.01 45.8617 1718.72 46.1748C1718.43 46.4837 1718.08 46.7207 1717.66 46.8857C1717.25 47.0465 1716.79 47.127 1716.27 47.127C1715.79 47.127 1715.35 47.0465 1714.95 46.8857C1714.55 46.7207 1714.2 46.4837 1713.9 46.1748C1713.61 45.8617 1713.38 45.4787 1713.22 45.0259C1713.06 44.5731 1712.98 44.0547 1712.98 43.4707C1712.98 42.6963 1713.11 42.0404 1713.38 41.5029C1713.65 40.9613 1714.04 40.5487 1714.54 40.2651C1715.03 39.9816 1715.63 39.8398 1716.32 39.8398C1716.97 39.8398 1717.54 39.9816 1718.03 40.2651C1718.53 40.5487 1718.92 40.9613 1719.19 41.5029C1719.47 42.0446 1719.61 42.7005 1719.61 43.4707ZM1714.52 43.4707C1714.52 43.9827 1714.58 44.4207 1714.7 44.7847C1714.83 45.1486 1715.02 45.4279 1715.28 45.6226C1715.55 45.813 1715.89 45.9082 1716.3 45.9082C1716.71 45.9082 1717.05 45.813 1717.32 45.6226C1717.58 45.4279 1717.77 45.1486 1717.89 44.7847C1718.02 44.4207 1718.08 43.9827 1718.08 43.4707C1718.08 42.9587 1718.02 42.5249 1717.89 42.1694C1717.77 41.8097 1717.58 41.5368 1717.32 41.3506C1717.05 41.1602 1716.71 41.0649 1716.29 41.0649C1715.68 41.0649 1715.22 41.2723 1714.94 41.687C1714.66 42.1017 1714.52 42.6963 1714.52 43.4707ZM1724.89 39.8398C1725.01 39.8398 1725.14 39.8462 1725.28 39.8589C1725.42 39.8716 1725.54 39.8885 1725.64 39.9097L1725.5 41.3062C1725.41 41.2808 1725.3 41.2617 1725.17 41.249C1725.04 41.2363 1724.93 41.23 1724.82 41.23C1724.56 41.23 1724.3 41.2744 1724.06 41.3633C1723.82 41.4479 1723.61 41.5791 1723.42 41.7568C1723.24 41.9303 1723.09 42.1483 1722.98 42.4106C1722.88 42.673 1722.83 42.9777 1722.83 43.3247V47H1721.33V39.9731H1722.5L1722.7 41.2109H1722.77C1722.91 40.9613 1723.08 40.7327 1723.29 40.5254C1723.5 40.318 1723.73 40.153 1724 40.0303C1724.27 39.9033 1724.57 39.8398 1724.89 39.8398Z" fill="#FF5C00"/>
<defs>
<clipPath id="clip0_12_1104">
<rect width="18" height="15" fill="white" transform="translate(1112 34.5)"/>
</clipPath>
<clipPath id="clip1_12_1104">
<rect width="18" height="15" fill="white" transform="translate(1669 34.5)"/>
</clipPath>
</defs>
</svg>
