<svg width="1166" height="518" viewBox="0 0 1166 518" fill="none" xmlns="http://www.w3.org/2000/svg">
<rect y="17" width="226" height="103" rx="8" fill="#020202"/>
<rect x="1" y="18" width="224" height="101" rx="7" stroke="white" stroke-opacity="0.9" stroke-width="2"/>
<path d="M102.923 61.5088V71.209C102.923 72.2549 102.701 73.1914 102.257 74.0186C101.819 74.8457 101.156 75.502 100.268 75.9873C99.3788 76.4658 98.2612 76.7051 96.9145 76.7051C94.9936 76.7051 93.5307 76.2026 92.5258 75.1978C91.5278 74.186 91.0287 72.8428 91.0287 71.168V61.5088H93.4897V70.9526C93.4897 72.2036 93.7836 73.1265 94.3715 73.7212C94.9594 74.3159 95.8378 74.6133 97.0068 74.6133C97.8134 74.6133 98.4697 74.4731 98.9755 74.1929C99.4882 73.9058 99.8642 73.4888 100.103 72.9419C100.35 72.3882 100.473 71.7217 100.473 70.9424V61.5088H102.923ZM114.351 73.2598C114.351 74.0049 114.17 74.6338 113.808 75.1465C113.445 75.6592 112.916 76.0488 112.218 76.3154C111.528 76.5752 110.68 76.7051 109.675 76.7051C108.882 76.7051 108.199 76.647 107.624 76.5308C107.057 76.4214 106.52 76.2505 106.015 76.0181V73.9365C106.555 74.1895 107.16 74.4082 107.83 74.5928C108.506 74.7773 109.145 74.8696 109.747 74.8696C110.54 74.8696 111.111 74.7466 111.459 74.5005C111.808 74.2476 111.982 73.9126 111.982 73.4956C111.982 73.2495 111.911 73.0308 111.767 72.8394C111.63 72.6411 111.371 72.4395 110.988 72.2344C110.612 72.0225 110.058 71.7695 109.327 71.4756C108.609 71.1885 108.004 70.9014 107.512 70.6143C107.02 70.3271 106.647 69.9819 106.394 69.5786C106.141 69.1685 106.015 68.6455 106.015 68.0098C106.015 67.0049 106.411 66.2427 107.204 65.7231C108.004 65.1968 109.06 64.9336 110.373 64.9336C111.07 64.9336 111.726 65.0054 112.341 65.1489C112.963 65.2856 113.572 65.4873 114.166 65.7539L113.408 67.5688C112.895 67.3433 112.379 67.1587 111.859 67.0151C111.347 66.8647 110.824 66.7896 110.291 66.7896C109.668 66.7896 109.193 66.8853 108.865 67.0767C108.544 67.2681 108.383 67.5415 108.383 67.897C108.383 68.1636 108.462 68.3892 108.619 68.5737C108.776 68.7583 109.046 68.9429 109.429 69.1274C109.819 69.312 110.359 69.541 111.049 69.8145C111.726 70.0742 112.311 70.3477 112.803 70.6348C113.302 70.915 113.685 71.2603 113.951 71.6704C114.218 72.0806 114.351 72.6104 114.351 73.2598ZM121.688 64.9336C122.699 64.9336 123.567 65.1421 124.292 65.5591C125.017 65.9761 125.574 66.5674 125.963 67.333C126.353 68.0986 126.548 69.0146 126.548 70.0811V71.373H118.97C118.998 72.4736 119.292 73.3213 119.852 73.916C120.419 74.5107 121.212 74.8081 122.231 74.8081C122.956 74.8081 123.605 74.7397 124.179 74.603C124.76 74.4595 125.358 74.251 125.974 73.9775V75.936C125.406 76.2026 124.829 76.3975 124.241 76.5205C123.653 76.6436 122.949 76.7051 122.128 76.7051C121.014 76.7051 120.033 76.4897 119.186 76.0591C118.345 75.6216 117.685 74.9722 117.207 74.1108C116.735 73.2495 116.499 72.1797 116.499 70.9014C116.499 69.6299 116.714 68.5498 117.145 67.6611C117.576 66.7725 118.181 66.0957 118.96 65.6309C119.739 65.166 120.648 64.9336 121.688 64.9336ZM121.688 66.7485C120.929 66.7485 120.313 66.9946 119.842 67.4868C119.377 67.979 119.104 68.7002 119.021 69.6504H124.189C124.183 69.083 124.087 68.5806 123.902 68.1431C123.725 67.7056 123.451 67.3638 123.082 67.1177C122.72 66.8716 122.255 66.7485 121.688 66.7485ZM135.228 64.9336C135.419 64.9336 135.628 64.9438 135.853 64.9644C136.079 64.9849 136.273 65.0122 136.438 65.0464L136.212 67.3022C136.068 67.2612 135.891 67.2305 135.679 67.21C135.474 67.1895 135.289 67.1792 135.125 67.1792C134.694 67.1792 134.284 67.251 133.895 67.3945C133.505 67.5312 133.16 67.7432 132.859 68.0303C132.558 68.3105 132.322 68.6626 132.151 69.0864C131.981 69.5103 131.895 70.0024 131.895 70.563V76.5H129.475V65.1489H131.362L131.69 67.1484H131.803C132.028 66.7451 132.309 66.376 132.644 66.041C132.979 65.7061 133.361 65.4395 133.792 65.2412C134.23 65.0361 134.708 64.9336 135.228 64.9336Z" fill="white"/>
<rect x="940" y="208" width="226" height="103" rx="8" fill="#020202"/>
<rect x="941" y="209" width="224" height="101" rx="7" stroke="white" stroke-opacity="0.9" stroke-width="2"/>
<path d="M1030.73 267.5L1029.26 263.337H1023.53L1022.06 267.5H1019.47L1025.05 252.447H1027.78L1033.34 267.5H1030.73ZM1028.63 261.225L1027.2 257.123C1027.15 256.945 1027.07 256.696 1026.97 256.375C1026.86 256.046 1026.76 255.715 1026.66 255.38C1026.56 255.038 1026.47 254.751 1026.4 254.519C1026.33 254.799 1026.25 255.113 1026.15 255.462C1026.05 255.804 1025.95 256.125 1025.86 256.426C1025.77 256.727 1025.7 256.959 1025.65 257.123L1024.22 261.225H1028.63ZM1039.1 267.705C1037.75 267.705 1036.66 267.213 1035.84 266.229C1035.03 265.237 1034.62 263.778 1034.62 261.85C1034.62 259.902 1035.03 258.429 1035.86 257.431C1036.69 256.433 1037.79 255.934 1039.15 255.934C1039.73 255.934 1040.23 256.012 1040.66 256.169C1041.09 256.32 1041.46 256.525 1041.77 256.785C1042.08 257.044 1042.35 257.335 1042.57 257.656H1042.68C1042.65 257.444 1042.6 257.14 1042.56 256.744C1042.52 256.34 1042.5 255.968 1042.5 255.626V251.545H1044.92V267.5H1043.03L1042.6 265.952H1042.5C1042.29 266.28 1042.03 266.577 1041.72 266.844C1041.41 267.104 1041.04 267.312 1040.61 267.469C1040.18 267.626 1039.68 267.705 1039.1 267.705ZM1039.78 265.747C1040.81 265.747 1041.54 265.449 1041.96 264.854C1042.39 264.26 1042.6 263.368 1042.62 262.178V261.86C1042.62 260.589 1042.41 259.615 1042 258.938C1041.59 258.254 1040.84 257.913 1039.76 257.913C1038.89 257.913 1038.23 258.265 1037.77 258.969C1037.32 259.666 1037.09 260.64 1037.09 261.891C1037.09 263.142 1037.32 264.099 1037.77 264.762C1038.23 265.418 1038.9 265.747 1039.78 265.747ZM1061.41 255.934C1062.68 255.934 1063.64 256.262 1064.28 256.918C1064.93 257.574 1065.25 258.627 1065.25 260.076V267.5H1062.84V260.507C1062.84 259.646 1062.68 258.996 1062.34 258.559C1062.01 258.121 1061.5 257.902 1060.81 257.902C1059.86 257.902 1059.17 258.21 1058.74 258.825C1058.33 259.434 1058.12 260.319 1058.12 261.481V267.5H1055.71V260.507C1055.71 259.933 1055.63 259.454 1055.48 259.071C1055.34 258.682 1055.12 258.391 1054.81 258.2C1054.51 258.001 1054.13 257.902 1053.68 257.902C1053.01 257.902 1052.48 258.053 1052.09 258.354C1051.7 258.654 1051.42 259.099 1051.25 259.687C1051.08 260.268 1050.99 260.982 1050.99 261.83V267.5H1048.58V256.149H1050.46L1050.8 257.677H1050.93C1051.16 257.28 1051.45 256.956 1051.79 256.703C1052.14 256.443 1052.52 256.251 1052.95 256.128C1053.37 255.999 1053.81 255.934 1054.27 255.934C1055.12 255.934 1055.83 256.084 1056.41 256.385C1057 256.679 1057.43 257.13 1057.72 257.738H1057.9C1058.26 257.123 1058.75 256.668 1059.39 256.375C1060.02 256.081 1060.7 255.934 1061.41 255.934ZM1071.24 256.149V267.5H1068.83V256.149H1071.24ZM1070.05 251.801C1070.42 251.801 1070.73 251.9 1071 252.099C1071.27 252.297 1071.41 252.639 1071.41 253.124C1071.41 253.603 1071.27 253.944 1071 254.149C1070.73 254.348 1070.42 254.447 1070.05 254.447C1069.66 254.447 1069.34 254.348 1069.07 254.149C1068.81 253.944 1068.68 253.603 1068.68 253.124C1068.68 252.639 1068.81 252.297 1069.07 252.099C1069.34 251.9 1069.66 251.801 1070.05 251.801ZM1080.82 255.934C1082.1 255.934 1083.09 256.265 1083.8 256.928C1084.52 257.584 1084.88 258.641 1084.88 260.097V267.5H1082.47V260.548C1082.47 259.666 1082.29 259.006 1081.93 258.569C1081.56 258.125 1081 257.902 1080.24 257.902C1079.14 257.902 1078.38 258.241 1077.95 258.917C1077.52 259.594 1077.31 260.575 1077.31 261.86V267.5H1074.9V256.149H1076.78L1077.12 257.687H1077.25C1077.5 257.291 1077.8 256.966 1078.16 256.713C1078.53 256.453 1078.94 256.258 1079.39 256.128C1079.85 255.999 1080.33 255.934 1080.82 255.934Z" fill="white"/>
<rect y="216" width="226" height="103" rx="8" fill="#020202"/>
<rect x="1" y="217" width="224" height="101" rx="7" stroke="white" stroke-opacity="0.9" stroke-width="2"/>
<path d="M102.923 260.509V270.209C102.923 271.255 102.701 272.191 102.257 273.019C101.819 273.846 101.156 274.502 100.268 274.987C99.3788 275.466 98.2612 275.705 96.9145 275.705C94.9936 275.705 93.5307 275.203 92.5258 274.198C91.5278 273.186 91.0287 271.843 91.0287 270.168V260.509H93.4897V269.953C93.4897 271.204 93.7836 272.126 94.3715 272.721C94.9594 273.316 95.8378 273.613 97.0068 273.613C97.8134 273.613 98.4697 273.473 98.9755 273.193C99.4882 272.906 99.8642 272.489 100.103 271.942C100.35 271.388 100.473 270.722 100.473 269.942V260.509H102.923ZM114.351 272.26C114.351 273.005 114.17 273.634 113.808 274.146C113.445 274.659 112.916 275.049 112.218 275.315C111.528 275.575 110.68 275.705 109.675 275.705C108.882 275.705 108.199 275.647 107.624 275.531C107.057 275.421 106.52 275.25 106.015 275.018V272.937C106.555 273.189 107.16 273.408 107.83 273.593C108.506 273.777 109.145 273.87 109.747 273.87C110.54 273.87 111.111 273.747 111.459 273.5C111.808 273.248 111.982 272.913 111.982 272.496C111.982 272.25 111.911 272.031 111.767 271.839C111.63 271.641 111.371 271.439 110.988 271.234C110.612 271.022 110.058 270.77 109.327 270.476C108.609 270.188 108.004 269.901 107.512 269.614C107.02 269.327 106.647 268.982 106.394 268.579C106.141 268.168 106.015 267.646 106.015 267.01C106.015 266.005 106.411 265.243 107.204 264.723C108.004 264.197 109.06 263.934 110.373 263.934C111.07 263.934 111.726 264.005 112.341 264.149C112.963 264.286 113.572 264.487 114.166 264.754L113.408 266.569C112.895 266.343 112.379 266.159 111.859 266.015C111.347 265.865 110.824 265.79 110.291 265.79C109.668 265.79 109.193 265.885 108.865 266.077C108.544 266.268 108.383 266.542 108.383 266.897C108.383 267.164 108.462 267.389 108.619 267.574C108.776 267.758 109.046 267.943 109.429 268.127C109.819 268.312 110.359 268.541 111.049 268.814C111.726 269.074 112.311 269.348 112.803 269.635C113.302 269.915 113.685 270.26 113.951 270.67C114.218 271.081 114.351 271.61 114.351 272.26ZM121.688 263.934C122.699 263.934 123.567 264.142 124.292 264.559C125.017 264.976 125.574 265.567 125.963 266.333C126.353 267.099 126.548 268.015 126.548 269.081V270.373H118.97C118.998 271.474 119.292 272.321 119.852 272.916C120.419 273.511 121.212 273.808 122.231 273.808C122.956 273.808 123.605 273.74 124.179 273.603C124.76 273.459 125.358 273.251 125.974 272.978V274.936C125.406 275.203 124.829 275.397 124.241 275.521C123.653 275.644 122.949 275.705 122.128 275.705C121.014 275.705 120.033 275.49 119.186 275.059C118.345 274.622 117.685 273.972 117.207 273.111C116.735 272.25 116.499 271.18 116.499 269.901C116.499 268.63 116.714 267.55 117.145 266.661C117.576 265.772 118.181 265.096 118.96 264.631C119.739 264.166 120.648 263.934 121.688 263.934ZM121.688 265.749C120.929 265.749 120.313 265.995 119.842 266.487C119.377 266.979 119.104 267.7 119.021 268.65H124.189C124.183 268.083 124.087 267.581 123.902 267.143C123.725 266.706 123.451 266.364 123.082 266.118C122.72 265.872 122.255 265.749 121.688 265.749ZM135.228 263.934C135.419 263.934 135.628 263.944 135.853 263.964C136.079 263.985 136.273 264.012 136.438 264.046L136.212 266.302C136.068 266.261 135.891 266.23 135.679 266.21C135.474 266.189 135.289 266.179 135.125 266.179C134.694 266.179 134.284 266.251 133.895 266.395C133.505 266.531 133.16 266.743 132.859 267.03C132.558 267.311 132.322 267.663 132.151 268.086C131.981 268.51 131.895 269.002 131.895 269.563V275.5H129.475V264.149H131.362L131.69 266.148H131.803C132.028 265.745 132.309 265.376 132.644 265.041C132.979 264.706 133.361 264.439 133.792 264.241C134.23 264.036 134.708 263.934 135.228 263.934Z" fill="white"/>
<rect y="415" width="226" height="103" rx="8" fill="#020202"/>
<rect x="1" y="416" width="224" height="101" rx="7" stroke="white" stroke-opacity="0.9" stroke-width="2"/>
<path d="M102.923 459.509V469.209C102.923 470.255 102.701 471.191 102.257 472.019C101.819 472.846 101.156 473.502 100.268 473.987C99.3788 474.466 98.2612 474.705 96.9145 474.705C94.9936 474.705 93.5307 474.203 92.5258 473.198C91.5278 472.186 91.0287 470.843 91.0287 469.168V459.509H93.4897V468.953C93.4897 470.204 93.7836 471.126 94.3715 471.721C94.9594 472.316 95.8378 472.613 97.0068 472.613C97.8134 472.613 98.4697 472.473 98.9755 472.193C99.4882 471.906 99.8642 471.489 100.103 470.942C100.35 470.388 100.473 469.722 100.473 468.942V459.509H102.923ZM114.351 471.26C114.351 472.005 114.17 472.634 113.808 473.146C113.445 473.659 112.916 474.049 112.218 474.315C111.528 474.575 110.68 474.705 109.675 474.705C108.882 474.705 108.199 474.647 107.624 474.531C107.057 474.421 106.52 474.25 106.015 474.018V471.937C106.555 472.189 107.16 472.408 107.83 472.593C108.506 472.777 109.145 472.87 109.747 472.87C110.54 472.87 111.111 472.747 111.459 472.5C111.808 472.248 111.982 471.913 111.982 471.496C111.982 471.25 111.911 471.031 111.767 470.839C111.63 470.641 111.371 470.439 110.988 470.234C110.612 470.022 110.058 469.77 109.327 469.476C108.609 469.188 108.004 468.901 107.512 468.614C107.02 468.327 106.647 467.982 106.394 467.579C106.141 467.168 106.015 466.646 106.015 466.01C106.015 465.005 106.411 464.243 107.204 463.723C108.004 463.197 109.06 462.934 110.373 462.934C111.07 462.934 111.726 463.005 112.341 463.149C112.963 463.286 113.572 463.487 114.166 463.754L113.408 465.569C112.895 465.343 112.379 465.159 111.859 465.015C111.347 464.865 110.824 464.79 110.291 464.79C109.668 464.79 109.193 464.885 108.865 465.077C108.544 465.268 108.383 465.542 108.383 465.897C108.383 466.164 108.462 466.389 108.619 466.574C108.776 466.758 109.046 466.943 109.429 467.127C109.819 467.312 110.359 467.541 111.049 467.814C111.726 468.074 112.311 468.348 112.803 468.635C113.302 468.915 113.685 469.26 113.951 469.67C114.218 470.081 114.351 470.61 114.351 471.26ZM121.688 462.934C122.699 462.934 123.567 463.142 124.292 463.559C125.017 463.976 125.574 464.567 125.963 465.333C126.353 466.099 126.548 467.015 126.548 468.081V469.373H118.97C118.998 470.474 119.292 471.321 119.852 471.916C120.419 472.511 121.212 472.808 122.231 472.808C122.956 472.808 123.605 472.74 124.179 472.603C124.76 472.459 125.358 472.251 125.974 471.978V473.936C125.406 474.203 124.829 474.397 124.241 474.521C123.653 474.644 122.949 474.705 122.128 474.705C121.014 474.705 120.033 474.49 119.186 474.059C118.345 473.622 117.685 472.972 117.207 472.111C116.735 471.25 116.499 470.18 116.499 468.901C116.499 467.63 116.714 466.55 117.145 465.661C117.576 464.772 118.181 464.096 118.96 463.631C119.739 463.166 120.648 462.934 121.688 462.934ZM121.688 464.749C120.929 464.749 120.313 464.995 119.842 465.487C119.377 465.979 119.104 466.7 119.021 467.65H124.189C124.183 467.083 124.087 466.581 123.902 466.143C123.725 465.706 123.451 465.364 123.082 465.118C122.72 464.872 122.255 464.749 121.688 464.749ZM135.228 462.934C135.419 462.934 135.628 462.944 135.853 462.964C136.079 462.985 136.273 463.012 136.438 463.046L136.212 465.302C136.068 465.261 135.891 465.23 135.679 465.21C135.474 465.189 135.289 465.179 135.125 465.179C134.694 465.179 134.284 465.251 133.895 465.395C133.505 465.531 133.16 465.743 132.859 466.03C132.558 466.311 132.322 466.663 132.151 467.086C131.981 467.51 131.895 468.002 131.895 468.563V474.5H129.475V463.149H131.362L131.69 465.148H131.803C132.028 464.745 132.309 464.376 132.644 464.041C132.979 463.706 133.361 463.439 133.792 463.241C134.23 463.036 134.708 462.934 135.228 462.934Z" fill="white"/>
<rect x="501" y="208" width="226" height="103" rx="8" fill="#020202"/>
<rect x="502" y="209" width="224" height="101" rx="7" stroke="white" stroke-opacity="0.9" stroke-width="2"/>
<path d="M563.641 267.5V252.509H566.102V265.408H572.47V267.5H563.641ZM577.438 256.149V267.5H575.028V256.149H577.438ZM576.248 251.801C576.618 251.801 576.935 251.9 577.202 252.099C577.475 252.297 577.612 252.639 577.612 253.124C577.612 253.603 577.475 253.944 577.202 254.149C576.935 254.348 576.618 254.447 576.248 254.447C575.866 254.447 575.541 254.348 575.274 254.149C575.015 253.944 574.885 253.603 574.885 253.124C574.885 252.639 575.015 252.297 575.274 252.099C575.541 251.9 575.866 251.801 576.248 251.801ZM583.698 267.5L579.381 256.149H581.934L584.272 262.814C584.422 263.238 584.559 263.696 584.682 264.188C584.805 264.68 584.891 265.094 584.938 265.429H585.02C585.068 265.08 585.161 264.663 585.297 264.178C585.434 263.686 585.574 263.231 585.718 262.814L588.056 256.149H590.599L586.282 267.5H583.698ZM597.053 255.934C598.065 255.934 598.933 256.142 599.658 256.559C600.382 256.976 600.939 257.567 601.329 258.333C601.719 259.099 601.914 260.015 601.914 261.081V262.373H594.336C594.363 263.474 594.657 264.321 595.218 264.916C595.785 265.511 596.578 265.808 597.597 265.808C598.321 265.808 598.971 265.74 599.545 265.603C600.126 265.459 600.724 265.251 601.339 264.978V266.936C600.772 267.203 600.194 267.397 599.606 267.521C599.018 267.644 598.314 267.705 597.494 267.705C596.38 267.705 595.399 267.49 594.551 267.059C593.71 266.622 593.051 265.972 592.572 265.111C592.101 264.25 591.865 263.18 591.865 261.901C591.865 260.63 592.08 259.55 592.511 258.661C592.941 257.772 593.546 257.096 594.326 256.631C595.105 256.166 596.014 255.934 597.053 255.934ZM597.053 257.749C596.294 257.749 595.679 257.995 595.207 258.487C594.743 258.979 594.469 259.7 594.387 260.65H599.555C599.548 260.083 599.453 259.581 599.268 259.143C599.09 258.706 598.817 258.364 598.448 258.118C598.085 257.872 597.621 257.749 597.053 257.749ZM619.242 267.5H610.752V252.509H619.242V254.58H613.213V258.651H618.863V260.712H613.213V265.418H619.242V267.5ZM625.041 267.5L620.724 256.149H623.277L625.615 262.814C625.765 263.238 625.902 263.696 626.025 264.188C626.148 264.68 626.233 265.094 626.281 265.429H626.363C626.411 265.08 626.503 264.663 626.64 264.178C626.777 263.686 626.917 263.231 627.061 262.814L629.398 256.149H631.941L627.625 267.5H625.041ZM638.396 255.934C639.408 255.934 640.276 256.142 641.001 256.559C641.725 256.976 642.282 257.567 642.672 258.333C643.062 259.099 643.256 260.015 643.256 261.081V262.373H635.679C635.706 263.474 636 264.321 636.561 264.916C637.128 265.511 637.921 265.808 638.94 265.808C639.664 265.808 640.314 265.74 640.888 265.603C641.469 265.459 642.067 265.251 642.682 264.978V266.936C642.115 267.203 641.537 267.397 640.949 267.521C640.361 267.644 639.657 267.705 638.837 267.705C637.723 267.705 636.742 267.49 635.894 267.059C635.053 266.622 634.394 265.972 633.915 265.111C633.443 264.25 633.208 263.18 633.208 261.901C633.208 260.63 633.423 259.55 633.854 258.661C634.284 257.772 634.889 257.096 635.669 256.631C636.448 256.166 637.357 255.934 638.396 255.934ZM638.396 257.749C637.637 257.749 637.022 257.995 636.55 258.487C636.086 258.979 635.812 259.7 635.73 260.65H640.898C640.891 260.083 640.796 259.581 640.611 259.143C640.433 258.706 640.16 258.364 639.791 258.118C639.428 257.872 638.963 257.749 638.396 257.749ZM652.1 255.934C653.379 255.934 654.373 256.265 655.084 256.928C655.802 257.584 656.161 258.641 656.161 260.097V267.5H653.751V260.548C653.751 259.666 653.57 259.006 653.208 258.569C652.845 258.125 652.285 257.902 651.526 257.902C650.425 257.902 649.66 258.241 649.229 258.917C648.805 259.594 648.593 260.575 648.593 261.86V267.5H646.184V256.149H648.06L648.399 257.687H648.532C648.778 257.291 649.082 256.966 649.444 256.713C649.814 256.453 650.224 256.258 650.675 256.128C651.133 255.999 651.608 255.934 652.1 255.934ZM663.969 265.757C664.283 265.757 664.594 265.729 664.902 265.675C665.21 265.613 665.49 265.542 665.743 265.459V267.285C665.476 267.401 665.131 267.5 664.707 267.582C664.283 267.664 663.842 267.705 663.384 267.705C662.742 267.705 662.164 267.599 661.652 267.387C661.139 267.168 660.732 266.796 660.431 266.27C660.131 265.743 659.98 265.015 659.98 264.085V257.984H658.432V256.908L660.093 256.057L660.883 253.626H662.4V256.149H665.651V257.984H662.4V264.055C662.4 264.629 662.544 265.056 662.831 265.336C663.118 265.617 663.497 265.757 663.969 265.757Z" fill="white"/>
<rect width="77" height="18" transform="translate(575 199)" fill="#020202"/>
<g clip-path="url(#clip0_12_1101)">
<path d="M593.949 206.752C594.794 206.752 595.604 206.423 596.202 205.836C596.799 205.25 597.134 204.455 597.134 203.626C597.134 202.797 596.799 202.002 596.202 201.416C595.604 200.829 594.794 200.5 593.949 200.5C593.105 200.5 592.294 200.829 591.697 201.416C591.1 202.002 590.764 202.797 590.764 203.626C590.764 204.455 591.1 205.25 591.697 205.836C592.294 206.423 593.105 206.752 593.949 206.752ZM591.322 208.062L592.914 210.769C593.352 211.516 593.093 212.474 592.331 212.904L589.573 214.469C588.812 214.899 587.836 214.645 587.397 213.897L585.806 211.187C585.367 210.44 585.627 209.482 586.388 209.052L589.146 207.49C589.908 207.06 590.884 207.314 591.322 208.062ZM596.654 207.895C596.693 207.672 596.857 207.49 597.078 207.426C597.299 207.361 597.537 207.423 597.696 207.59C598.806 208.75 600.755 210.783 601.779 211.853C601.922 212.002 601.979 212.216 601.922 212.415C601.866 212.614 601.711 212.772 601.511 212.831C600.173 213.224 597.74 213.938 596.403 214.331C596.2 214.39 595.982 214.343 595.824 214.205C595.666 214.067 595.591 213.859 595.63 213.657C595.887 212.21 596.376 209.462 596.654 207.895Z" fill="#FF5C00"/>
</g>
<path d="M615.098 213L614.19 210.423H610.642L609.734 213H608.128L611.581 203.682H613.27L616.716 213H615.098ZM613.796 209.115L612.914 206.576C612.88 206.466 612.832 206.312 612.768 206.113C612.705 205.91 612.641 205.704 612.578 205.497C612.514 205.285 612.461 205.108 612.419 204.964C612.377 205.137 612.324 205.332 612.26 205.548C612.201 205.759 612.142 205.958 612.083 206.145C612.028 206.331 611.985 206.475 611.956 206.576L611.067 209.115H613.796ZM620.62 213.127C619.956 213.127 619.38 212.998 618.894 212.74C618.407 212.482 618.032 212.086 617.77 211.553C617.508 211.02 617.376 210.342 617.376 209.521C617.376 208.667 617.52 207.968 617.808 207.427C618.096 206.885 618.494 206.485 619.001 206.227C619.514 205.969 620.1 205.84 620.76 205.84C621.179 205.84 621.557 205.882 621.896 205.967C622.239 206.047 622.529 206.147 622.766 206.265L622.321 207.458C622.063 207.353 621.799 207.264 621.528 207.192C621.257 207.12 620.997 207.084 620.747 207.084C620.337 207.084 619.994 207.175 619.719 207.357C619.448 207.539 619.245 207.81 619.109 208.169C618.978 208.529 618.913 208.976 618.913 209.509C618.913 210.025 618.98 210.461 619.116 210.816C619.251 211.168 619.452 211.434 619.719 211.616C619.985 211.794 620.313 211.883 620.703 211.883C621.088 211.883 621.433 211.836 621.737 211.743C622.042 211.65 622.33 211.529 622.601 211.381V212.676C622.334 212.829 622.048 212.941 621.744 213.013C621.439 213.089 621.064 213.127 620.62 213.127ZM626.866 211.921C627.061 211.921 627.253 211.904 627.444 211.87C627.634 211.832 627.808 211.788 627.964 211.737V212.867C627.799 212.939 627.586 213 627.323 213.051C627.061 213.102 626.788 213.127 626.504 213.127C626.107 213.127 625.749 213.061 625.432 212.93C625.114 212.795 624.862 212.564 624.676 212.238C624.49 211.912 624.397 211.462 624.397 210.886V207.109H623.438V206.443L624.467 205.916L624.956 204.412H625.895V205.973H627.907V207.109H625.895V210.867C625.895 211.223 625.984 211.487 626.162 211.661C626.339 211.834 626.574 211.921 626.866 211.921ZM635.613 209.471C635.613 210.055 635.537 210.573 635.385 211.026C635.232 211.479 635.01 211.862 634.718 212.175C634.426 212.484 634.075 212.721 633.665 212.886C633.254 213.047 632.791 213.127 632.274 213.127C631.792 213.127 631.35 213.047 630.948 212.886C630.546 212.721 630.197 212.484 629.9 212.175C629.608 211.862 629.382 211.479 629.221 211.026C629.06 210.573 628.98 210.055 628.98 209.471C628.98 208.696 629.113 208.04 629.38 207.503C629.651 206.961 630.036 206.549 630.535 206.265C631.035 205.982 631.629 205.84 632.319 205.84C632.966 205.84 633.538 205.982 634.033 206.265C634.528 206.549 634.915 206.961 635.194 207.503C635.474 208.045 635.613 208.701 635.613 209.471ZM630.516 209.471C630.516 209.983 630.577 210.421 630.7 210.785C630.827 211.149 631.022 211.428 631.284 211.623C631.547 211.813 631.885 211.908 632.3 211.908C632.715 211.908 633.053 211.813 633.315 211.623C633.578 211.428 633.77 211.149 633.893 210.785C634.016 210.421 634.077 209.983 634.077 209.471C634.077 208.959 634.016 208.525 633.893 208.169C633.77 207.81 633.578 207.537 633.315 207.351C633.053 207.16 632.712 207.065 632.293 207.065C631.676 207.065 631.225 207.272 630.941 207.687C630.658 208.102 630.516 208.696 630.516 209.471ZM640.888 205.84C641.007 205.84 641.136 205.846 641.275 205.859C641.415 205.872 641.536 205.889 641.637 205.91L641.498 207.306C641.409 207.281 641.299 207.262 641.167 207.249C641.041 207.236 640.926 207.23 640.825 207.23C640.558 207.23 640.304 207.274 640.063 207.363C639.822 207.448 639.608 207.579 639.422 207.757C639.236 207.93 639.09 208.148 638.984 208.411C638.878 208.673 638.825 208.978 638.825 209.325V213H637.327V205.973H638.495L638.698 207.211H638.768C638.908 206.961 639.081 206.733 639.289 206.525C639.496 206.318 639.733 206.153 640 206.03C640.27 205.903 640.567 205.84 640.888 205.84Z" fill="#FF5C00"/>
<path d="M241.021 446.794C240.908 447.335 241.254 447.865 241.794 447.979L250.602 449.828C251.143 449.942 251.673 449.596 251.787 449.055C251.9 448.515 251.554 447.985 251.013 447.871L243.184 446.227L244.828 438.398C244.942 437.857 244.596 437.327 244.055 437.213C243.515 437.1 242.985 437.446 242.871 437.987L241.021 446.794ZM484 289L483.453 288.163L241.453 446.163L242 447L242.547 447.837L484.547 289.837L484 289Z" fill="white"/>
<path d="M484.979 228.794C485.092 229.335 484.746 229.865 484.206 229.979L475.398 231.828C474.857 231.942 474.327 231.596 474.213 231.055C474.1 230.515 474.446 229.985 474.987 229.871L482.816 228.227L481.172 220.398C481.058 219.857 481.404 219.327 481.945 219.213C482.485 219.1 483.015 219.446 483.129 219.987L484.979 228.794ZM242 71L242.547 70.1627L484.547 228.163L484 229L483.453 229.837L241.453 71.8373L242 71Z" fill="white"/>
<rect width="156" height="40" transform="translate(301 137)" fill="#020202"/>
<path d="M315.653 150.009C317.587 150.009 318.999 150.405 319.887 151.198C320.776 151.991 321.22 153.102 321.22 154.531C321.22 155.18 321.118 155.799 320.913 156.387C320.715 156.968 320.386 157.484 319.928 157.935C319.47 158.379 318.865 158.731 318.114 158.991C317.368 159.251 316.449 159.381 315.355 159.381H313.756V165H311.295V150.009H315.653ZM315.489 152.049H313.756V157.33H315.099C315.871 157.33 316.528 157.241 317.068 157.063C317.608 156.879 318.018 156.588 318.298 156.192C318.578 155.795 318.719 155.272 318.719 154.623C318.719 153.755 318.455 153.109 317.929 152.685C317.409 152.261 316.596 152.049 315.489 152.049ZM334.074 153.649V165H332.177L331.848 163.472H331.715C331.476 163.862 331.172 164.187 330.803 164.446C330.433 164.699 330.023 164.887 329.572 165.01C329.121 165.14 328.646 165.205 328.147 165.205C327.292 165.205 326.561 165.062 325.952 164.774C325.351 164.48 324.889 164.029 324.568 163.421C324.247 162.812 324.086 162.026 324.086 161.062V153.649H326.506V160.611C326.506 161.493 326.684 162.153 327.039 162.59C327.402 163.028 327.962 163.247 328.721 163.247C329.452 163.247 330.033 163.096 330.464 162.795C330.895 162.495 331.199 162.05 331.377 161.462C331.561 160.875 331.654 160.153 331.654 159.299V153.649H334.074ZM340.149 149.045V152.89C340.149 153.334 340.135 153.772 340.108 154.203C340.087 154.626 340.067 154.958 340.046 155.197H340.149C340.456 154.705 340.884 154.292 341.431 153.957C341.984 153.615 342.692 153.444 343.553 153.444C344.9 153.444 345.983 153.939 346.804 154.931C347.624 155.915 348.034 157.375 348.034 159.309C348.034 160.594 347.846 161.674 347.47 162.549C347.094 163.424 346.564 164.087 345.881 164.539C345.204 164.983 344.408 165.205 343.492 165.205C342.63 165.205 341.933 165.048 341.4 164.733C340.873 164.412 340.46 164.04 340.159 163.616H339.985L339.544 165H337.739V149.045H340.149ZM342.917 155.402C342.234 155.402 341.69 155.539 341.287 155.812C340.89 156.086 340.603 156.496 340.426 157.043C340.248 157.583 340.156 158.27 340.149 159.104V159.319C340.149 160.584 340.347 161.551 340.743 162.221C341.147 162.891 341.878 163.226 342.938 163.226C343.779 163.226 344.425 162.888 344.876 162.211C345.327 161.527 345.553 160.55 345.553 159.278C345.553 157.993 345.327 157.026 344.876 156.376C344.431 155.727 343.779 155.402 342.917 155.402ZM353.453 165H351.033V149.045H353.453V165ZM359.518 153.649V165H357.108V153.649H359.518ZM358.329 149.301C358.698 149.301 359.016 149.4 359.282 149.599C359.556 149.797 359.692 150.139 359.692 150.624C359.692 151.103 359.556 151.444 359.282 151.649C359.016 151.848 358.698 151.947 358.329 151.947C357.946 151.947 357.621 151.848 357.354 151.649C357.095 151.444 356.965 151.103 356.965 150.624C356.965 150.139 357.095 149.797 357.354 149.599C357.621 149.4 357.946 149.301 358.329 149.301ZM370.812 161.76C370.812 162.505 370.631 163.134 370.269 163.646C369.907 164.159 369.377 164.549 368.68 164.815C367.989 165.075 367.142 165.205 366.137 165.205C365.344 165.205 364.66 165.147 364.086 165.031C363.519 164.921 362.982 164.75 362.476 164.518V162.437C363.016 162.689 363.621 162.908 364.291 163.093C364.968 163.277 365.607 163.37 366.208 163.37C367.001 163.37 367.572 163.247 367.921 163C368.269 162.748 368.444 162.413 368.444 161.996C368.444 161.75 368.372 161.531 368.228 161.339C368.092 161.141 367.832 160.939 367.449 160.734C367.073 160.522 366.519 160.27 365.788 159.976C365.07 159.688 364.465 159.401 363.973 159.114C363.481 158.827 363.108 158.482 362.855 158.079C362.602 157.668 362.476 157.146 362.476 156.51C362.476 155.505 362.873 154.743 363.665 154.223C364.465 153.697 365.521 153.434 366.834 153.434C367.531 153.434 368.187 153.505 368.803 153.649C369.425 153.786 370.033 153.987 370.628 154.254L369.869 156.069C369.356 155.843 368.84 155.659 368.321 155.515C367.808 155.365 367.285 155.29 366.752 155.29C366.13 155.29 365.655 155.385 365.327 155.577C365.005 155.768 364.845 156.042 364.845 156.397C364.845 156.664 364.923 156.889 365.081 157.074C365.238 157.258 365.508 157.443 365.891 157.627C366.28 157.812 366.82 158.041 367.511 158.314C368.187 158.574 368.772 158.848 369.264 159.135C369.763 159.415 370.146 159.76 370.413 160.17C370.679 160.581 370.812 161.11 370.812 161.76ZM376.037 149.045V153.054C376.037 153.471 376.023 153.878 375.996 154.274C375.975 154.671 375.951 154.979 375.924 155.197H376.057C376.296 154.801 376.59 154.476 376.939 154.223C377.288 153.963 377.677 153.769 378.108 153.639C378.545 153.509 379.01 153.444 379.502 153.444C380.371 153.444 381.109 153.591 381.717 153.885C382.326 154.172 382.791 154.62 383.112 155.228C383.44 155.836 383.604 156.626 383.604 157.597V165H381.194V158.048C381.194 157.166 381.013 156.506 380.651 156.069C380.289 155.625 379.728 155.402 378.969 155.402C378.238 155.402 377.657 155.556 377.226 155.864C376.802 156.165 376.498 156.612 376.313 157.207C376.129 157.795 376.037 158.513 376.037 159.36V165H373.627V149.045H376.037ZM401.589 165H393.099V150.009H401.589V152.08H395.56V156.151H401.21V158.212H395.56V162.918H401.589V165ZM407.387 165L403.07 153.649H405.624L407.962 160.314C408.112 160.738 408.249 161.196 408.372 161.688C408.495 162.18 408.58 162.594 408.628 162.929H408.71C408.758 162.58 408.85 162.163 408.987 161.678C409.124 161.186 409.264 160.731 409.407 160.314L411.745 153.649H414.288L409.971 165H407.387ZM420.743 153.434C421.755 153.434 422.623 153.642 423.347 154.059C424.072 154.476 424.629 155.067 425.019 155.833C425.408 156.599 425.603 157.515 425.603 158.581V159.873H418.026C418.053 160.974 418.347 161.821 418.907 162.416C419.475 163.011 420.268 163.308 421.286 163.308C422.011 163.308 422.66 163.24 423.235 163.103C423.816 162.959 424.414 162.751 425.029 162.478V164.436C424.462 164.703 423.884 164.897 423.296 165.021C422.708 165.144 422.004 165.205 421.184 165.205C420.069 165.205 419.089 164.99 418.241 164.559C417.4 164.122 416.74 163.472 416.262 162.611C415.79 161.75 415.554 160.68 415.554 159.401C415.554 158.13 415.77 157.05 416.2 156.161C416.631 155.272 417.236 154.596 418.015 154.131C418.795 153.666 419.704 153.434 420.743 153.434ZM420.743 155.249C419.984 155.249 419.369 155.495 418.897 155.987C418.432 156.479 418.159 157.2 418.077 158.15H423.245C423.238 157.583 423.142 157.081 422.958 156.643C422.78 156.206 422.507 155.864 422.137 155.618C421.775 155.372 421.31 155.249 420.743 155.249ZM434.447 153.434C435.725 153.434 436.72 153.765 437.431 154.428C438.149 155.084 438.508 156.141 438.508 157.597V165H436.098V158.048C436.098 157.166 435.917 156.506 435.554 156.069C435.192 155.625 434.632 155.402 433.873 155.402C432.772 155.402 432.007 155.741 431.576 156.417C431.152 157.094 430.94 158.075 430.94 159.36V165H428.53V153.649H430.407L430.745 155.187H430.879C431.125 154.791 431.429 154.466 431.791 154.213C432.16 153.953 432.571 153.758 433.022 153.628C433.48 153.499 433.955 153.434 434.447 153.434ZM446.316 163.257C446.63 163.257 446.941 163.229 447.249 163.175C447.556 163.113 447.837 163.042 448.09 162.959V164.785C447.823 164.901 447.478 165 447.054 165.082C446.63 165.164 446.189 165.205 445.731 165.205C445.089 165.205 444.511 165.099 443.998 164.887C443.486 164.668 443.079 164.296 442.778 163.77C442.477 163.243 442.327 162.515 442.327 161.585V155.484H440.779V154.408L442.44 153.557L443.229 151.126H444.747V153.649H447.997V155.484H444.747V161.555C444.747 162.129 444.89 162.556 445.177 162.836C445.465 163.117 445.844 163.257 446.316 163.257Z" fill="white"/>
<rect width="179" height="40" transform="translate(293 358)" fill="#020202"/>
<path d="M302.977 371.009H307.438C309.372 371.009 310.832 371.289 311.816 371.85C312.801 372.41 313.293 373.377 313.293 374.751C313.293 375.326 313.19 375.845 312.985 376.31C312.787 376.768 312.496 377.147 312.113 377.448C311.731 377.742 311.259 377.94 310.698 378.043V378.146C311.28 378.248 311.796 378.429 312.247 378.689C312.705 378.949 313.064 379.321 313.323 379.807C313.59 380.292 313.723 380.921 313.723 381.693C313.723 382.609 313.505 383.389 313.067 384.031C312.636 384.674 312.018 385.163 311.211 385.498C310.411 385.833 309.461 386 308.361 386H302.977V371.009ZM305.438 377.192H307.797C308.911 377.192 309.683 377.011 310.114 376.648C310.545 376.286 310.76 375.756 310.76 375.059C310.76 374.348 310.504 373.835 309.991 373.521C309.485 373.207 308.678 373.049 307.571 373.049H305.438V377.192ZM305.438 379.181V383.939H308.032C309.181 383.939 309.988 383.717 310.452 383.272C310.917 382.828 311.15 382.227 311.15 381.468C311.15 381.003 311.044 380.6 310.832 380.258C310.627 379.916 310.288 379.653 309.817 379.468C309.345 379.277 308.709 379.181 307.909 379.181H305.438ZM322.536 374.434C322.728 374.434 322.936 374.444 323.162 374.464C323.387 374.485 323.582 374.512 323.746 374.546L323.521 376.802C323.377 376.761 323.199 376.73 322.988 376.71C322.782 376.689 322.598 376.679 322.434 376.679C322.003 376.679 321.593 376.751 321.203 376.895C320.814 377.031 320.469 377.243 320.168 377.53C319.867 377.811 319.631 378.163 319.46 378.586C319.289 379.01 319.204 379.502 319.204 380.063V386H316.784V374.649H318.671L318.999 376.648H319.112C319.337 376.245 319.617 375.876 319.952 375.541C320.287 375.206 320.67 374.939 321.101 374.741C321.538 374.536 322.017 374.434 322.536 374.434ZM336.107 380.299C336.107 381.242 335.984 382.08 335.738 382.811C335.492 383.542 335.133 384.161 334.661 384.667C334.19 385.166 333.622 385.549 332.959 385.815C332.296 386.075 331.548 386.205 330.714 386.205C329.934 386.205 329.22 386.075 328.571 385.815C327.921 385.549 327.357 385.166 326.879 384.667C326.407 384.161 326.041 383.542 325.782 382.811C325.522 382.08 325.392 381.242 325.392 380.299C325.392 379.048 325.607 377.988 326.038 377.12C326.475 376.245 327.097 375.579 327.904 375.121C328.711 374.663 329.671 374.434 330.785 374.434C331.831 374.434 332.754 374.663 333.554 375.121C334.354 375.579 334.979 376.245 335.43 377.12C335.882 377.995 336.107 379.055 336.107 380.299ZM327.873 380.299C327.873 381.126 327.972 381.833 328.171 382.421C328.376 383.009 328.69 383.46 329.114 383.775C329.538 384.083 330.085 384.236 330.755 384.236C331.425 384.236 331.971 384.083 332.395 383.775C332.819 383.46 333.13 383.009 333.328 382.421C333.527 381.833 333.626 381.126 333.626 380.299C333.626 379.472 333.527 378.771 333.328 378.197C333.13 377.616 332.819 377.175 332.395 376.874C331.971 376.566 331.421 376.413 330.744 376.413C329.746 376.413 329.018 376.748 328.56 377.417C328.102 378.087 327.873 379.048 327.873 380.299ZM343.536 374.434C344.972 374.434 346.055 374.751 346.786 375.387C347.525 376.023 347.894 377.014 347.894 378.361V386H346.181L345.72 384.39H345.638C345.317 384.8 344.985 385.139 344.643 385.405C344.302 385.672 343.905 385.87 343.454 386C343.01 386.137 342.466 386.205 341.824 386.205C341.147 386.205 340.542 386.082 340.009 385.836C339.475 385.583 339.055 385.2 338.747 384.688C338.44 384.175 338.286 383.525 338.286 382.739C338.286 381.57 338.72 380.692 339.588 380.104C340.463 379.516 341.783 379.191 343.546 379.13L345.515 379.058V378.463C345.515 377.677 345.33 377.117 344.961 376.782C344.599 376.447 344.086 376.279 343.423 376.279C342.856 376.279 342.306 376.361 341.772 376.525C341.239 376.689 340.72 376.891 340.214 377.13L339.434 375.428C339.988 375.134 340.617 374.895 341.321 374.71C342.032 374.526 342.77 374.434 343.536 374.434ZM345.505 380.576L344.038 380.627C342.835 380.668 341.991 380.873 341.506 381.242C341.02 381.611 340.778 382.117 340.778 382.76C340.778 383.32 340.945 383.73 341.28 383.99C341.615 384.243 342.056 384.37 342.603 384.37C343.437 384.37 344.127 384.134 344.674 383.662C345.228 383.184 345.505 382.483 345.505 381.56V380.576ZM355.292 386.205C353.938 386.205 352.851 385.713 352.031 384.729C351.218 383.737 350.811 382.278 350.811 380.35C350.811 378.402 351.224 376.929 352.052 375.931C352.886 374.933 353.983 374.434 355.343 374.434C355.917 374.434 356.42 374.512 356.85 374.669C357.281 374.82 357.65 375.025 357.958 375.285C358.272 375.544 358.539 375.835 358.758 376.156H358.87C358.836 375.944 358.795 375.64 358.747 375.244C358.706 374.84 358.686 374.468 358.686 374.126V370.045H361.106V386H359.219L358.788 384.452H358.686C358.481 384.78 358.221 385.077 357.907 385.344C357.599 385.604 357.23 385.812 356.799 385.969C356.375 386.126 355.873 386.205 355.292 386.205ZM355.969 384.247C357.001 384.247 357.729 383.949 358.153 383.354C358.577 382.76 358.795 381.868 358.809 380.678V380.36C358.809 379.089 358.604 378.115 358.194 377.438C357.784 376.754 357.035 376.413 355.948 376.413C355.08 376.413 354.417 376.765 353.959 377.469C353.508 378.166 353.282 379.14 353.282 380.391C353.282 381.642 353.508 382.599 353.959 383.262C354.417 383.918 355.087 384.247 355.969 384.247ZM369.345 386.205C368.271 386.205 367.342 385.997 366.556 385.58C365.769 385.163 365.164 384.523 364.741 383.662C364.317 382.801 364.105 381.707 364.105 380.381C364.105 379 364.337 377.872 364.802 376.997C365.267 376.122 365.91 375.476 366.73 375.059C367.557 374.642 368.504 374.434 369.57 374.434C370.247 374.434 370.859 374.502 371.406 374.639C371.959 374.769 372.428 374.929 372.81 375.121L372.093 377.048C371.676 376.877 371.248 376.734 370.811 376.618C370.373 376.501 369.953 376.443 369.55 376.443C368.887 376.443 368.333 376.59 367.889 376.884C367.451 377.178 367.123 377.616 366.904 378.197C366.692 378.778 366.586 379.499 366.586 380.36C366.586 381.194 366.696 381.898 366.914 382.473C367.133 383.04 367.458 383.471 367.889 383.765C368.319 384.052 368.849 384.195 369.478 384.195C370.1 384.195 370.657 384.12 371.149 383.97C371.642 383.819 372.106 383.625 372.544 383.385V385.477C372.113 385.723 371.652 385.904 371.16 386.021C370.667 386.144 370.062 386.205 369.345 386.205ZM379.87 374.434C381.306 374.434 382.389 374.751 383.121 375.387C383.859 376.023 384.228 377.014 384.228 378.361V386H382.516L382.054 384.39H381.972C381.651 384.8 381.319 385.139 380.978 385.405C380.636 385.672 380.239 385.87 379.788 386C379.344 386.137 378.8 386.205 378.158 386.205C377.481 386.205 376.876 386.082 376.343 385.836C375.81 385.583 375.389 385.2 375.082 384.688C374.774 384.175 374.62 383.525 374.62 382.739C374.62 381.57 375.054 380.692 375.922 380.104C376.797 379.516 378.117 379.191 379.88 379.13L381.849 379.058V378.463C381.849 377.677 381.665 377.117 381.295 376.782C380.933 376.447 380.42 376.279 379.757 376.279C379.19 376.279 378.64 376.361 378.106 376.525C377.573 376.689 377.054 376.891 376.548 377.13L375.769 375.428C376.322 375.134 376.951 374.895 377.655 374.71C378.366 374.526 379.104 374.434 379.87 374.434ZM381.839 380.576L380.373 380.627C379.169 380.668 378.325 380.873 377.84 381.242C377.354 381.611 377.112 382.117 377.112 382.76C377.112 383.32 377.279 383.73 377.614 383.99C377.949 384.243 378.39 384.37 378.937 384.37C379.771 384.37 380.461 384.134 381.008 383.662C381.562 383.184 381.839 382.483 381.839 381.56V380.576ZM395.44 382.76C395.44 383.505 395.259 384.134 394.897 384.646C394.535 385.159 394.005 385.549 393.308 385.815C392.617 386.075 391.77 386.205 390.765 386.205C389.972 386.205 389.288 386.147 388.714 386.031C388.146 385.921 387.61 385.75 387.104 385.518V383.437C387.644 383.689 388.249 383.908 388.919 384.093C389.596 384.277 390.235 384.37 390.836 384.37C391.629 384.37 392.2 384.247 392.549 384C392.897 383.748 393.072 383.413 393.072 382.996C393.072 382.75 393 382.531 392.856 382.339C392.72 382.141 392.46 381.939 392.077 381.734C391.701 381.522 391.147 381.27 390.416 380.976C389.698 380.688 389.093 380.401 388.601 380.114C388.109 379.827 387.736 379.482 387.483 379.079C387.23 378.668 387.104 378.146 387.104 377.51C387.104 376.505 387.5 375.743 388.293 375.223C389.093 374.697 390.149 374.434 391.462 374.434C392.159 374.434 392.815 374.505 393.431 374.649C394.053 374.786 394.661 374.987 395.256 375.254L394.497 377.069C393.984 376.843 393.468 376.659 392.949 376.515C392.436 376.365 391.913 376.29 391.38 376.29C390.758 376.29 390.283 376.385 389.955 376.577C389.633 376.768 389.473 377.042 389.473 377.397C389.473 377.664 389.551 377.889 389.708 378.074C389.866 378.258 390.136 378.443 390.519 378.627C390.908 378.812 391.448 379.041 392.139 379.314C392.815 379.574 393.4 379.848 393.892 380.135C394.391 380.415 394.774 380.76 395.041 381.17C395.307 381.581 395.44 382.11 395.44 382.76ZM402.48 384.257C402.794 384.257 403.105 384.229 403.413 384.175C403.72 384.113 404.001 384.042 404.253 383.959V385.785C403.987 385.901 403.642 386 403.218 386.082C402.794 386.164 402.353 386.205 401.895 386.205C401.252 386.205 400.675 386.099 400.162 385.887C399.649 385.668 399.243 385.296 398.942 384.77C398.641 384.243 398.491 383.515 398.491 382.585V376.484H396.942V375.408L398.604 374.557L399.393 372.126H400.911V374.649H404.161V376.484H400.911V382.555C400.911 383.129 401.054 383.556 401.341 383.836C401.628 384.117 402.008 384.257 402.48 384.257ZM421.336 381.919C421.336 382.808 421.117 383.573 420.68 384.216C420.249 384.858 419.627 385.351 418.814 385.692C418.007 386.034 417.043 386.205 415.922 386.205C415.375 386.205 414.852 386.174 414.353 386.113C413.854 386.051 413.382 385.962 412.938 385.846C412.501 385.723 412.101 385.576 411.738 385.405V383.088C412.347 383.354 413.027 383.597 413.779 383.816C414.531 384.028 415.297 384.134 416.076 384.134C416.712 384.134 417.238 384.052 417.655 383.888C418.079 383.717 418.393 383.478 418.598 383.17C418.803 382.855 418.906 382.49 418.906 382.073C418.906 381.628 418.786 381.252 418.547 380.945C418.308 380.637 417.945 380.357 417.46 380.104C416.982 379.844 416.38 379.567 415.655 379.273C415.163 379.075 414.692 378.85 414.24 378.597C413.796 378.344 413.4 378.046 413.051 377.705C412.702 377.363 412.425 376.959 412.22 376.495C412.022 376.023 411.923 375.469 411.923 374.833C411.923 373.986 412.125 373.261 412.528 372.66C412.938 372.058 413.512 371.597 414.251 371.275C414.996 370.954 415.864 370.793 416.855 370.793C417.641 370.793 418.38 370.875 419.07 371.04C419.767 371.204 420.451 371.436 421.121 371.737L420.341 373.716C419.726 373.463 419.128 373.261 418.547 373.111C417.973 372.96 417.385 372.885 416.783 372.885C416.264 372.885 415.823 372.964 415.461 373.121C415.098 373.278 414.821 373.5 414.63 373.788C414.445 374.068 414.353 374.403 414.353 374.792C414.353 375.23 414.459 375.599 414.671 375.9C414.89 376.194 415.225 376.464 415.676 376.71C416.134 376.956 416.722 377.229 417.44 377.53C418.267 377.872 418.967 378.231 419.542 378.607C420.123 378.983 420.567 379.434 420.875 379.96C421.182 380.48 421.336 381.133 421.336 381.919ZM428.416 384.257C428.731 384.257 429.042 384.229 429.349 384.175C429.657 384.113 429.937 384.042 430.19 383.959V385.785C429.923 385.901 429.578 386 429.154 386.082C428.731 386.164 428.29 386.205 427.832 386.205C427.189 386.205 426.611 386.099 426.099 385.887C425.586 385.668 425.179 385.296 424.879 384.77C424.578 384.243 424.427 383.515 424.427 382.585V376.484H422.879V375.408L424.54 374.557L425.33 372.126H426.847V374.649H430.098V376.484H426.847V382.555C426.847 383.129 426.991 383.556 427.278 383.836C427.565 384.117 427.944 384.257 428.416 384.257ZM437.157 374.434C438.593 374.434 439.676 374.751 440.408 375.387C441.146 376.023 441.515 377.014 441.515 378.361V386H439.803L439.342 384.39H439.259C438.938 384.8 438.607 385.139 438.265 385.405C437.923 385.672 437.527 385.87 437.075 386C436.631 386.137 436.088 386.205 435.445 386.205C434.768 386.205 434.163 386.082 433.63 385.836C433.097 385.583 432.676 385.2 432.369 384.688C432.061 384.175 431.907 383.525 431.907 382.739C431.907 381.57 432.342 380.692 433.21 380.104C434.085 379.516 435.404 379.191 437.168 379.13L439.136 379.058V378.463C439.136 377.677 438.952 377.117 438.583 376.782C438.22 376.447 437.708 376.279 437.045 376.279C436.477 376.279 435.927 376.361 435.394 376.525C434.861 376.689 434.341 376.891 433.835 377.13L433.056 375.428C433.61 375.134 434.238 374.895 434.943 374.71C435.654 374.526 436.392 374.434 437.157 374.434ZM439.126 380.576L437.66 380.627C436.457 380.668 435.613 380.873 435.127 381.242C434.642 381.611 434.399 382.117 434.399 382.76C434.399 383.32 434.567 383.73 434.902 383.99C435.237 384.243 435.677 384.37 436.224 384.37C437.058 384.37 437.749 384.134 438.296 383.662C438.849 383.184 439.126 382.483 439.126 381.56V380.576ZM449.323 384.257C449.638 384.257 449.949 384.229 450.257 384.175C450.564 384.113 450.844 384.042 451.097 383.959V385.785C450.831 385.901 450.486 386 450.062 386.082C449.638 386.164 449.197 386.205 448.739 386.205C448.096 386.205 447.519 386.099 447.006 385.887C446.493 385.668 446.087 385.296 445.786 384.77C445.485 384.243 445.335 383.515 445.335 382.585V376.484H443.786V375.408L445.447 374.557L446.237 372.126H447.755V374.649H451.005V376.484H447.755V382.555C447.755 383.129 447.898 383.556 448.185 383.836C448.472 384.117 448.852 384.257 449.323 384.257ZM458.137 374.434C459.148 374.434 460.016 374.642 460.741 375.059C461.466 375.476 462.023 376.067 462.412 376.833C462.802 377.599 462.997 378.515 462.997 379.581V380.873H455.419C455.447 381.974 455.741 382.821 456.301 383.416C456.868 384.011 457.661 384.308 458.68 384.308C459.405 384.308 460.054 384.24 460.628 384.103C461.209 383.959 461.807 383.751 462.423 383.478V385.436C461.855 385.703 461.278 385.897 460.69 386.021C460.102 386.144 459.398 386.205 458.577 386.205C457.463 386.205 456.482 385.99 455.635 385.559C454.794 385.122 454.134 384.472 453.656 383.611C453.184 382.75 452.948 381.68 452.948 380.401C452.948 379.13 453.163 378.05 453.594 377.161C454.025 376.272 454.63 375.596 455.409 375.131C456.188 374.666 457.097 374.434 458.137 374.434ZM458.137 376.249C457.378 376.249 456.762 376.495 456.291 376.987C455.826 377.479 455.553 378.2 455.47 379.15H460.638C460.632 378.583 460.536 378.081 460.351 377.643C460.174 377.206 459.9 376.864 459.531 376.618C459.169 376.372 458.704 376.249 458.137 376.249Z" fill="white"/>
<path d="M241.293 258.293C240.902 258.683 240.902 259.317 241.293 259.707L247.657 266.071C248.047 266.462 248.681 266.462 249.071 266.071C249.462 265.681 249.462 265.047 249.071 264.657L243.414 259L249.071 253.343C249.462 252.953 249.462 252.319 249.071 251.929C248.681 251.538 248.047 251.538 247.657 251.929L241.293 258.293ZM484 259V258L242 258V259V260L484 260V259Z" fill="white"/>
<path d="M742.293 258.293C741.902 258.683 741.902 259.317 742.293 259.707L748.657 266.071C749.047 266.462 749.681 266.462 750.071 266.071C750.462 265.681 750.462 265.047 750.071 264.657L744.414 259L750.071 253.343C750.462 252.953 750.462 252.319 750.071 251.929C749.681 251.538 749.047 251.538 748.657 251.929L742.293 258.293ZM930 259V258H743V259V260H930V259Z" fill="white"/>
<rect width="179" height="40" transform="translate(293 239)" fill="#020202"/>
<path d="M302.977 252.009H307.438C309.372 252.009 310.832 252.289 311.816 252.85C312.801 253.41 313.293 254.377 313.293 255.751C313.293 256.326 313.19 256.845 312.985 257.31C312.787 257.768 312.496 258.147 312.113 258.448C311.731 258.742 311.259 258.94 310.698 259.043V259.146C311.28 259.248 311.796 259.429 312.247 259.689C312.705 259.949 313.064 260.321 313.323 260.807C313.59 261.292 313.723 261.921 313.723 262.693C313.723 263.609 313.505 264.389 313.067 265.031C312.636 265.674 312.018 266.163 311.211 266.498C310.411 266.833 309.461 267 308.361 267H302.977V252.009ZM305.438 258.192H307.797C308.911 258.192 309.683 258.011 310.114 257.648C310.545 257.286 310.76 256.756 310.76 256.059C310.76 255.348 310.504 254.835 309.991 254.521C309.485 254.207 308.678 254.049 307.571 254.049H305.438V258.192ZM305.438 260.181V264.939H308.032C309.181 264.939 309.988 264.717 310.452 264.272C310.917 263.828 311.15 263.227 311.15 262.468C311.15 262.003 311.044 261.6 310.832 261.258C310.627 260.916 310.288 260.653 309.817 260.468C309.345 260.277 308.709 260.181 307.909 260.181H305.438ZM322.536 255.434C322.728 255.434 322.936 255.444 323.162 255.464C323.387 255.485 323.582 255.512 323.746 255.546L323.521 257.802C323.377 257.761 323.199 257.73 322.988 257.71C322.782 257.689 322.598 257.679 322.434 257.679C322.003 257.679 321.593 257.751 321.203 257.895C320.814 258.031 320.469 258.243 320.168 258.53C319.867 258.811 319.631 259.163 319.46 259.586C319.289 260.01 319.204 260.502 319.204 261.063V267H316.784V255.649H318.671L318.999 257.648H319.112C319.337 257.245 319.617 256.876 319.952 256.541C320.287 256.206 320.67 255.939 321.101 255.741C321.538 255.536 322.017 255.434 322.536 255.434ZM336.107 261.299C336.107 262.242 335.984 263.08 335.738 263.811C335.492 264.542 335.133 265.161 334.661 265.667C334.19 266.166 333.622 266.549 332.959 266.815C332.296 267.075 331.548 267.205 330.714 267.205C329.934 267.205 329.22 267.075 328.571 266.815C327.921 266.549 327.357 266.166 326.879 265.667C326.407 265.161 326.041 264.542 325.782 263.811C325.522 263.08 325.392 262.242 325.392 261.299C325.392 260.048 325.607 258.988 326.038 258.12C326.475 257.245 327.097 256.579 327.904 256.121C328.711 255.663 329.671 255.434 330.785 255.434C331.831 255.434 332.754 255.663 333.554 256.121C334.354 256.579 334.979 257.245 335.43 258.12C335.882 258.995 336.107 260.055 336.107 261.299ZM327.873 261.299C327.873 262.126 327.972 262.833 328.171 263.421C328.376 264.009 328.69 264.46 329.114 264.775C329.538 265.083 330.085 265.236 330.755 265.236C331.425 265.236 331.971 265.083 332.395 264.775C332.819 264.46 333.13 264.009 333.328 263.421C333.527 262.833 333.626 262.126 333.626 261.299C333.626 260.472 333.527 259.771 333.328 259.197C333.13 258.616 332.819 258.175 332.395 257.874C331.971 257.566 331.421 257.413 330.744 257.413C329.746 257.413 329.018 257.748 328.56 258.417C328.102 259.087 327.873 260.048 327.873 261.299ZM343.536 255.434C344.972 255.434 346.055 255.751 346.786 256.387C347.525 257.023 347.894 258.014 347.894 259.361V267H346.181L345.72 265.39H345.638C345.317 265.8 344.985 266.139 344.643 266.405C344.302 266.672 343.905 266.87 343.454 267C343.01 267.137 342.466 267.205 341.824 267.205C341.147 267.205 340.542 267.082 340.009 266.836C339.475 266.583 339.055 266.2 338.747 265.688C338.44 265.175 338.286 264.525 338.286 263.739C338.286 262.57 338.72 261.692 339.588 261.104C340.463 260.516 341.783 260.191 343.546 260.13L345.515 260.058V259.463C345.515 258.677 345.33 258.117 344.961 257.782C344.599 257.447 344.086 257.279 343.423 257.279C342.856 257.279 342.306 257.361 341.772 257.525C341.239 257.689 340.72 257.891 340.214 258.13L339.434 256.428C339.988 256.134 340.617 255.895 341.321 255.71C342.032 255.526 342.77 255.434 343.536 255.434ZM345.505 261.576L344.038 261.627C342.835 261.668 341.991 261.873 341.506 262.242C341.02 262.611 340.778 263.117 340.778 263.76C340.778 264.32 340.945 264.73 341.28 264.99C341.615 265.243 342.056 265.37 342.603 265.37C343.437 265.37 344.127 265.134 344.674 264.662C345.228 264.184 345.505 263.483 345.505 262.56V261.576ZM355.292 267.205C353.938 267.205 352.851 266.713 352.031 265.729C351.218 264.737 350.811 263.278 350.811 261.35C350.811 259.402 351.224 257.929 352.052 256.931C352.886 255.933 353.983 255.434 355.343 255.434C355.917 255.434 356.42 255.512 356.85 255.669C357.281 255.82 357.65 256.025 357.958 256.285C358.272 256.544 358.539 256.835 358.758 257.156H358.87C358.836 256.944 358.795 256.64 358.747 256.244C358.706 255.84 358.686 255.468 358.686 255.126V251.045H361.106V267H359.219L358.788 265.452H358.686C358.481 265.78 358.221 266.077 357.907 266.344C357.599 266.604 357.23 266.812 356.799 266.969C356.375 267.126 355.873 267.205 355.292 267.205ZM355.969 265.247C357.001 265.247 357.729 264.949 358.153 264.354C358.577 263.76 358.795 262.868 358.809 261.678V261.36C358.809 260.089 358.604 259.115 358.194 258.438C357.784 257.754 357.035 257.413 355.948 257.413C355.08 257.413 354.417 257.765 353.959 258.469C353.508 259.166 353.282 260.14 353.282 261.391C353.282 262.642 353.508 263.599 353.959 264.262C354.417 264.918 355.087 265.247 355.969 265.247ZM369.345 267.205C368.271 267.205 367.342 266.997 366.556 266.58C365.769 266.163 365.164 265.523 364.741 264.662C364.317 263.801 364.105 262.707 364.105 261.381C364.105 260 364.337 258.872 364.802 257.997C365.267 257.122 365.91 256.476 366.73 256.059C367.557 255.642 368.504 255.434 369.57 255.434C370.247 255.434 370.859 255.502 371.406 255.639C371.959 255.769 372.428 255.929 372.81 256.121L372.093 258.048C371.676 257.877 371.248 257.734 370.811 257.618C370.373 257.501 369.953 257.443 369.55 257.443C368.887 257.443 368.333 257.59 367.889 257.884C367.451 258.178 367.123 258.616 366.904 259.197C366.692 259.778 366.586 260.499 366.586 261.36C366.586 262.194 366.696 262.898 366.914 263.473C367.133 264.04 367.458 264.471 367.889 264.765C368.319 265.052 368.849 265.195 369.478 265.195C370.1 265.195 370.657 265.12 371.149 264.97C371.642 264.819 372.106 264.625 372.544 264.385V266.477C372.113 266.723 371.652 266.904 371.16 267.021C370.667 267.144 370.062 267.205 369.345 267.205ZM379.87 255.434C381.306 255.434 382.389 255.751 383.121 256.387C383.859 257.023 384.228 258.014 384.228 259.361V267H382.516L382.054 265.39H381.972C381.651 265.8 381.319 266.139 380.978 266.405C380.636 266.672 380.239 266.87 379.788 267C379.344 267.137 378.8 267.205 378.158 267.205C377.481 267.205 376.876 267.082 376.343 266.836C375.81 266.583 375.389 266.2 375.082 265.688C374.774 265.175 374.62 264.525 374.62 263.739C374.62 262.57 375.054 261.692 375.922 261.104C376.797 260.516 378.117 260.191 379.88 260.13L381.849 260.058V259.463C381.849 258.677 381.665 258.117 381.295 257.782C380.933 257.447 380.42 257.279 379.757 257.279C379.19 257.279 378.64 257.361 378.106 257.525C377.573 257.689 377.054 257.891 376.548 258.13L375.769 256.428C376.322 256.134 376.951 255.895 377.655 255.71C378.366 255.526 379.104 255.434 379.87 255.434ZM381.839 261.576L380.373 261.627C379.169 261.668 378.325 261.873 377.84 262.242C377.354 262.611 377.112 263.117 377.112 263.76C377.112 264.32 377.279 264.73 377.614 264.99C377.949 265.243 378.39 265.37 378.937 265.37C379.771 265.37 380.461 265.134 381.008 264.662C381.562 264.184 381.839 263.483 381.839 262.56V261.576ZM395.44 263.76C395.44 264.505 395.259 265.134 394.897 265.646C394.535 266.159 394.005 266.549 393.308 266.815C392.617 267.075 391.77 267.205 390.765 267.205C389.972 267.205 389.288 267.147 388.714 267.031C388.146 266.921 387.61 266.75 387.104 266.518V264.437C387.644 264.689 388.249 264.908 388.919 265.093C389.596 265.277 390.235 265.37 390.836 265.37C391.629 265.37 392.2 265.247 392.549 265C392.897 264.748 393.072 264.413 393.072 263.996C393.072 263.75 393 263.531 392.856 263.339C392.72 263.141 392.46 262.939 392.077 262.734C391.701 262.522 391.147 262.27 390.416 261.976C389.698 261.688 389.093 261.401 388.601 261.114C388.109 260.827 387.736 260.482 387.483 260.079C387.23 259.668 387.104 259.146 387.104 258.51C387.104 257.505 387.5 256.743 388.293 256.223C389.093 255.697 390.149 255.434 391.462 255.434C392.159 255.434 392.815 255.505 393.431 255.649C394.053 255.786 394.661 255.987 395.256 256.254L394.497 258.069C393.984 257.843 393.468 257.659 392.949 257.515C392.436 257.365 391.913 257.29 391.38 257.29C390.758 257.29 390.283 257.385 389.955 257.577C389.633 257.768 389.473 258.042 389.473 258.397C389.473 258.664 389.551 258.889 389.708 259.074C389.866 259.258 390.136 259.443 390.519 259.627C390.908 259.812 391.448 260.041 392.139 260.314C392.815 260.574 393.4 260.848 393.892 261.135C394.391 261.415 394.774 261.76 395.041 262.17C395.307 262.581 395.44 263.11 395.44 263.76ZM402.48 265.257C402.794 265.257 403.105 265.229 403.413 265.175C403.72 265.113 404.001 265.042 404.253 264.959V266.785C403.987 266.901 403.642 267 403.218 267.082C402.794 267.164 402.353 267.205 401.895 267.205C401.252 267.205 400.675 267.099 400.162 266.887C399.649 266.668 399.243 266.296 398.942 265.77C398.641 265.243 398.491 264.515 398.491 263.585V257.484H396.942V256.408L398.604 255.557L399.393 253.126H400.911V255.649H404.161V257.484H400.911V263.555C400.911 264.129 401.054 264.556 401.341 264.836C401.628 265.117 402.008 265.257 402.48 265.257ZM421.336 262.919C421.336 263.808 421.117 264.573 420.68 265.216C420.249 265.858 419.627 266.351 418.814 266.692C418.007 267.034 417.043 267.205 415.922 267.205C415.375 267.205 414.852 267.174 414.353 267.113C413.854 267.051 413.382 266.962 412.938 266.846C412.501 266.723 412.101 266.576 411.738 266.405V264.088C412.347 264.354 413.027 264.597 413.779 264.816C414.531 265.028 415.297 265.134 416.076 265.134C416.712 265.134 417.238 265.052 417.655 264.888C418.079 264.717 418.393 264.478 418.598 264.17C418.803 263.855 418.906 263.49 418.906 263.073C418.906 262.628 418.786 262.252 418.547 261.945C418.308 261.637 417.945 261.357 417.46 261.104C416.982 260.844 416.38 260.567 415.655 260.273C415.163 260.075 414.692 259.85 414.24 259.597C413.796 259.344 413.4 259.046 413.051 258.705C412.702 258.363 412.425 257.959 412.22 257.495C412.022 257.023 411.923 256.469 411.923 255.833C411.923 254.986 412.125 254.261 412.528 253.66C412.938 253.058 413.512 252.597 414.251 252.275C414.996 251.954 415.864 251.793 416.855 251.793C417.641 251.793 418.38 251.875 419.07 252.04C419.767 252.204 420.451 252.436 421.121 252.737L420.341 254.716C419.726 254.463 419.128 254.261 418.547 254.111C417.973 253.96 417.385 253.885 416.783 253.885C416.264 253.885 415.823 253.964 415.461 254.121C415.098 254.278 414.821 254.5 414.63 254.788C414.445 255.068 414.353 255.403 414.353 255.792C414.353 256.23 414.459 256.599 414.671 256.9C414.89 257.194 415.225 257.464 415.676 257.71C416.134 257.956 416.722 258.229 417.44 258.53C418.267 258.872 418.967 259.231 419.542 259.607C420.123 259.983 420.567 260.434 420.875 260.96C421.182 261.48 421.336 262.133 421.336 262.919ZM428.416 265.257C428.731 265.257 429.042 265.229 429.349 265.175C429.657 265.113 429.937 265.042 430.19 264.959V266.785C429.923 266.901 429.578 267 429.154 267.082C428.731 267.164 428.29 267.205 427.832 267.205C427.189 267.205 426.611 267.099 426.099 266.887C425.586 266.668 425.179 266.296 424.879 265.77C424.578 265.243 424.427 264.515 424.427 263.585V257.484H422.879V256.408L424.54 255.557L425.33 253.126H426.847V255.649H430.098V257.484H426.847V263.555C426.847 264.129 426.991 264.556 427.278 264.836C427.565 265.117 427.944 265.257 428.416 265.257ZM437.157 255.434C438.593 255.434 439.676 255.751 440.408 256.387C441.146 257.023 441.515 258.014 441.515 259.361V267H439.803L439.342 265.39H439.259C438.938 265.8 438.607 266.139 438.265 266.405C437.923 266.672 437.527 266.87 437.075 267C436.631 267.137 436.088 267.205 435.445 267.205C434.768 267.205 434.163 267.082 433.63 266.836C433.097 266.583 432.676 266.2 432.369 265.688C432.061 265.175 431.907 264.525 431.907 263.739C431.907 262.57 432.342 261.692 433.21 261.104C434.085 260.516 435.404 260.191 437.168 260.13L439.136 260.058V259.463C439.136 258.677 438.952 258.117 438.583 257.782C438.22 257.447 437.708 257.279 437.045 257.279C436.477 257.279 435.927 257.361 435.394 257.525C434.861 257.689 434.341 257.891 433.835 258.13L433.056 256.428C433.61 256.134 434.238 255.895 434.943 255.71C435.654 255.526 436.392 255.434 437.157 255.434ZM439.126 261.576L437.66 261.627C436.457 261.668 435.613 261.873 435.127 262.242C434.642 262.611 434.399 263.117 434.399 263.76C434.399 264.32 434.567 264.73 434.902 264.99C435.237 265.243 435.677 265.37 436.224 265.37C437.058 265.37 437.749 265.134 438.296 264.662C438.849 264.184 439.126 263.483 439.126 262.56V261.576ZM449.323 265.257C449.638 265.257 449.949 265.229 450.257 265.175C450.564 265.113 450.844 265.042 451.097 264.959V266.785C450.831 266.901 450.486 267 450.062 267.082C449.638 267.164 449.197 267.205 448.739 267.205C448.096 267.205 447.519 267.099 447.006 266.887C446.493 266.668 446.087 266.296 445.786 265.77C445.485 265.243 445.335 264.515 445.335 263.585V257.484H443.786V256.408L445.447 255.557L446.237 253.126H447.755V255.649H451.005V257.484H447.755V263.555C447.755 264.129 447.898 264.556 448.185 264.836C448.472 265.117 448.852 265.257 449.323 265.257ZM458.137 255.434C459.148 255.434 460.016 255.642 460.741 256.059C461.466 256.476 462.023 257.067 462.412 257.833C462.802 258.599 462.997 259.515 462.997 260.581V261.873H455.419C455.447 262.974 455.741 263.821 456.301 264.416C456.868 265.011 457.661 265.308 458.68 265.308C459.405 265.308 460.054 265.24 460.628 265.103C461.209 264.959 461.807 264.751 462.423 264.478V266.436C461.855 266.703 461.278 266.897 460.69 267.021C460.102 267.144 459.398 267.205 458.577 267.205C457.463 267.205 456.482 266.99 455.635 266.559C454.794 266.122 454.134 265.472 453.656 264.611C453.184 263.75 452.948 262.68 452.948 261.401C452.948 260.13 453.163 259.05 453.594 258.161C454.025 257.272 454.63 256.596 455.409 256.131C456.188 255.666 457.097 255.434 458.137 255.434ZM458.137 257.249C457.378 257.249 456.762 257.495 456.291 257.987C455.826 258.479 455.553 259.2 455.47 260.15H460.638C460.632 259.583 460.536 259.081 460.351 258.643C460.174 258.206 459.9 257.864 459.531 257.618C459.169 257.372 458.704 257.249 458.137 257.249Z" fill="white"/>
<rect width="98" height="40" transform="translate(788 239)" fill="#020202"/>
<path d="M804.503 267L800.186 254.48H800.094C800.115 254.76 800.139 255.143 800.166 255.628C800.193 256.114 800.217 256.633 800.238 257.187C800.258 257.741 800.268 258.271 800.268 258.776V267H798.033V252.009H801.489L805.642 263.975H805.703L809.999 252.009H813.445V267H811.097V258.653C811.097 258.195 811.103 257.7 811.117 257.167C811.138 256.633 811.158 256.127 811.179 255.649C811.206 255.17 811.226 254.788 811.24 254.5H811.158L806.677 267H804.503ZM821.807 255.434C823.242 255.434 824.326 255.751 825.057 256.387C825.795 257.023 826.164 258.014 826.164 259.361V267H824.452L823.991 265.39H823.909C823.587 265.8 823.256 266.139 822.914 266.405C822.572 266.672 822.176 266.87 821.725 267C821.28 267.137 820.737 267.205 820.094 267.205C819.417 267.205 818.812 267.082 818.279 266.836C817.746 266.583 817.326 266.2 817.018 265.688C816.71 265.175 816.557 264.525 816.557 263.739C816.557 262.57 816.991 261.692 817.859 261.104C818.734 260.516 820.053 260.191 821.817 260.13L823.786 260.058V259.463C823.786 258.677 823.601 258.117 823.232 257.782C822.87 257.447 822.357 257.279 821.694 257.279C821.126 257.279 820.576 257.361 820.043 257.525C819.51 257.689 818.99 257.891 818.484 258.13L817.705 256.428C818.259 256.134 818.888 255.895 819.592 255.71C820.303 255.526 821.041 255.434 821.807 255.434ZM823.775 261.576L822.309 261.627C821.106 261.668 820.262 261.873 819.776 262.242C819.291 262.611 819.048 263.117 819.048 263.76C819.048 264.32 819.216 264.73 819.551 264.99C819.886 265.243 820.327 265.37 820.873 265.37C821.707 265.37 822.398 265.134 822.945 264.662C823.498 264.184 823.775 263.483 823.775 262.56V261.576ZM835.665 255.434C836.943 255.434 837.937 255.765 838.648 256.428C839.366 257.084 839.725 258.141 839.725 259.597V267H837.315V260.048C837.315 259.166 837.134 258.506 836.772 258.069C836.41 257.625 835.849 257.402 835.09 257.402C833.99 257.402 833.224 257.741 832.793 258.417C832.37 259.094 832.158 260.075 832.158 261.36V267H829.748V255.649H831.624L831.963 257.187H832.096C832.342 256.791 832.646 256.466 833.009 256.213C833.378 255.953 833.788 255.758 834.239 255.628C834.697 255.499 835.172 255.434 835.665 255.434ZM847.759 255.434C849.194 255.434 850.278 255.751 851.009 256.387C851.748 257.023 852.117 258.014 852.117 259.361V267H850.404L849.943 265.39H849.861C849.54 265.8 849.208 266.139 848.866 266.405C848.524 266.672 848.128 266.87 847.677 267C847.232 267.137 846.689 267.205 846.046 267.205C845.37 267.205 844.765 267.082 844.231 266.836C843.698 266.583 843.278 266.2 842.97 265.688C842.663 265.175 842.509 264.525 842.509 263.739C842.509 262.57 842.943 261.692 843.811 261.104C844.686 260.516 846.005 260.191 847.769 260.13L849.738 260.058V259.463C849.738 258.677 849.553 258.117 849.184 257.782C848.822 257.447 848.309 257.279 847.646 257.279C847.079 257.279 846.528 257.361 845.995 257.525C845.462 257.689 844.942 257.891 844.437 258.13L843.657 256.428C844.211 256.134 844.84 255.895 845.544 255.71C846.255 255.526 846.993 255.434 847.759 255.434ZM849.728 261.576L848.261 261.627C847.058 261.668 846.214 261.873 845.729 262.242C845.243 262.611 845.001 263.117 845.001 263.76C845.001 264.32 845.168 264.73 845.503 264.99C845.838 265.243 846.279 265.37 846.826 265.37C847.66 265.37 848.35 265.134 848.897 264.662C849.451 264.184 849.728 263.483 849.728 262.56V261.576ZM858.94 272.045C857.402 272.045 856.223 271.768 855.403 271.214C854.583 270.661 854.172 269.885 854.172 268.887C854.172 268.189 854.391 267.598 854.829 267.113C855.266 266.634 855.892 266.303 856.705 266.118C856.398 265.981 856.131 265.77 855.905 265.482C855.687 265.188 855.577 264.864 855.577 264.508C855.577 264.084 855.697 263.722 855.936 263.421C856.175 263.121 856.534 262.83 857.013 262.55C856.418 262.297 855.94 261.887 855.577 261.319C855.222 260.745 855.044 260.072 855.044 259.299C855.044 258.479 855.218 257.782 855.567 257.208C855.916 256.626 856.425 256.186 857.095 255.885C857.765 255.577 858.575 255.423 859.525 255.423C859.73 255.423 859.952 255.437 860.191 255.464C860.438 255.485 860.663 255.512 860.868 255.546C861.08 255.574 861.241 255.604 861.35 255.639H865.277V256.982L863.35 257.341C863.534 257.601 863.681 257.898 863.791 258.233C863.9 258.561 863.955 258.92 863.955 259.31C863.955 260.485 863.548 261.412 862.734 262.088C861.928 262.758 860.814 263.093 859.392 263.093C859.05 263.08 858.718 263.052 858.397 263.011C858.151 263.162 857.963 263.329 857.833 263.514C857.703 263.691 857.638 263.893 857.638 264.119C857.638 264.303 857.703 264.454 857.833 264.57C857.963 264.679 858.154 264.761 858.407 264.816C858.667 264.871 858.982 264.898 859.351 264.898H861.309C862.553 264.898 863.503 265.161 864.16 265.688C864.816 266.214 865.144 266.986 865.144 268.005C865.144 269.297 864.611 270.292 863.544 270.989C862.478 271.693 860.943 272.045 858.94 272.045ZM859.033 270.353C859.874 270.353 860.581 270.271 861.155 270.107C861.73 269.943 862.164 269.707 862.458 269.399C862.752 269.099 862.898 268.74 862.898 268.323C862.898 267.954 862.806 267.67 862.622 267.472C862.437 267.273 862.16 267.137 861.791 267.062C861.422 266.986 860.964 266.949 860.417 266.949H858.633C858.189 266.949 857.795 267.017 857.454 267.154C857.112 267.297 856.845 267.502 856.654 267.769C856.469 268.036 856.377 268.357 856.377 268.733C856.377 269.252 856.606 269.652 857.064 269.933C857.529 270.213 858.185 270.353 859.033 270.353ZM859.504 261.514C860.209 261.514 860.732 261.323 861.073 260.94C861.415 260.55 861.586 260.003 861.586 259.299C861.586 258.534 861.408 257.959 861.053 257.577C860.704 257.194 860.185 257.002 859.494 257.002C858.817 257.002 858.301 257.197 857.946 257.587C857.597 257.977 857.423 258.554 857.423 259.32C857.423 260.01 857.597 260.55 857.946 260.94C858.301 261.323 858.821 261.514 859.504 261.514ZM872.081 255.434C873.092 255.434 873.961 255.642 874.685 256.059C875.41 256.476 875.967 257.067 876.357 257.833C876.746 258.599 876.941 259.515 876.941 260.581V261.873H869.363C869.391 262.974 869.685 263.821 870.245 264.416C870.813 265.011 871.606 265.308 872.624 265.308C873.349 265.308 873.998 265.24 874.572 265.103C875.153 264.959 875.752 264.751 876.367 264.478V266.436C875.799 266.703 875.222 266.897 874.634 267.021C874.046 267.144 873.342 267.205 872.522 267.205C871.407 267.205 870.426 266.99 869.579 266.559C868.738 266.122 868.078 265.472 867.6 264.611C867.128 263.75 866.892 262.68 866.892 261.401C866.892 260.13 867.108 259.05 867.538 258.161C867.969 257.272 868.574 256.596 869.353 256.131C870.132 255.666 871.042 255.434 872.081 255.434ZM872.081 257.249C871.322 257.249 870.707 257.495 870.235 257.987C869.77 258.479 869.497 259.2 869.415 260.15H874.583C874.576 259.583 874.48 259.081 874.296 258.643C874.118 258.206 873.844 257.864 873.475 257.618C873.113 257.372 872.648 257.249 872.081 257.249Z" fill="white"/>
<defs>
<clipPath id="clip0_12_1101">
<rect width="18" height="15" fill="white" transform="translate(585 200.5)"/>
</clipPath>
</defs>
</svg>
