<svg width="694" height="509" viewBox="0 0 694 509" fill="none" xmlns="http://www.w3.org/2000/svg">
<rect y="17" width="226" height="103" rx="8" fill="#020202"/>
<rect x="1" y="18" width="224" height="101" rx="7" stroke="white" stroke-opacity="0.9" stroke-width="2"/>
<path d="M102.923 61.5088V71.209C102.923 72.2549 102.701 73.1914 102.257 74.0186C101.819 74.8457 101.156 75.502 100.268 75.9873C99.3788 76.4658 98.2612 76.7051 96.9145 76.7051C94.9936 76.7051 93.5307 76.2026 92.5258 75.1978C91.5278 74.186 91.0287 72.8428 91.0287 71.168V61.5088H93.4897V70.9526C93.4897 72.2036 93.7836 73.1265 94.3715 73.7212C94.9594 74.3159 95.8378 74.6133 97.0068 74.6133C97.8134 74.6133 98.4697 74.4731 98.9755 74.1929C99.4882 73.9058 99.8642 73.4888 100.103 72.9419C100.35 72.3882 100.473 71.7217 100.473 70.9424V61.5088H102.923ZM114.351 73.2598C114.351 74.0049 114.17 74.6338 113.808 75.1465C113.445 75.6592 112.916 76.0488 112.218 76.3154C111.528 76.5752 110.68 76.7051 109.675 76.7051C108.882 76.7051 108.199 76.647 107.624 76.5308C107.057 76.4214 106.52 76.2505 106.015 76.0181V73.9365C106.555 74.1895 107.16 74.4082 107.83 74.5928C108.506 74.7773 109.145 74.8696 109.747 74.8696C110.54 74.8696 111.111 74.7466 111.459 74.5005C111.808 74.2476 111.982 73.9126 111.982 73.4956C111.982 73.2495 111.911 73.0308 111.767 72.8394C111.63 72.6411 111.371 72.4395 110.988 72.2344C110.612 72.0225 110.058 71.7695 109.327 71.4756C108.609 71.1885 108.004 70.9014 107.512 70.6143C107.02 70.3271 106.647 69.9819 106.394 69.5786C106.141 69.1685 106.015 68.6455 106.015 68.0098C106.015 67.0049 106.411 66.2427 107.204 65.7231C108.004 65.1968 109.06 64.9336 110.373 64.9336C111.07 64.9336 111.726 65.0054 112.341 65.1489C112.963 65.2856 113.572 65.4873 114.166 65.7539L113.408 67.5688C112.895 67.3433 112.379 67.1587 111.859 67.0151C111.347 66.8647 110.824 66.7896 110.291 66.7896C109.668 66.7896 109.193 66.8853 108.865 67.0767C108.544 67.2681 108.383 67.5415 108.383 67.897C108.383 68.1636 108.462 68.3892 108.619 68.5737C108.776 68.7583 109.046 68.9429 109.429 69.1274C109.819 69.312 110.359 69.541 111.049 69.8145C111.726 70.0742 112.311 70.3477 112.803 70.6348C113.302 70.915 113.685 71.2603 113.951 71.6704C114.218 72.0806 114.351 72.6104 114.351 73.2598ZM121.688 64.9336C122.699 64.9336 123.567 65.1421 124.292 65.5591C125.017 65.9761 125.574 66.5674 125.963 67.333C126.353 68.0986 126.548 69.0146 126.548 70.0811V71.373H118.97C118.998 72.4736 119.292 73.3213 119.852 73.916C120.419 74.5107 121.212 74.8081 122.231 74.8081C122.956 74.8081 123.605 74.7397 124.179 74.603C124.76 74.4595 125.358 74.251 125.974 73.9775V75.936C125.406 76.2026 124.829 76.3975 124.241 76.5205C123.653 76.6436 122.949 76.7051 122.128 76.7051C121.014 76.7051 120.033 76.4897 119.186 76.0591C118.345 75.6216 117.685 74.9722 117.207 74.1108C116.735 73.2495 116.499 72.1797 116.499 70.9014C116.499 69.6299 116.714 68.5498 117.145 67.6611C117.576 66.7725 118.181 66.0957 118.96 65.6309C119.739 65.166 120.648 64.9336 121.688 64.9336ZM121.688 66.7485C120.929 66.7485 120.313 66.9946 119.842 67.4868C119.377 67.979 119.104 68.7002 119.021 69.6504H124.189C124.183 69.083 124.087 68.5806 123.902 68.1431C123.725 67.7056 123.451 67.3638 123.082 67.1177C122.72 66.8716 122.255 66.7485 121.688 66.7485ZM135.228 64.9336C135.419 64.9336 135.628 64.9438 135.853 64.9644C136.079 64.9849 136.273 65.0122 136.438 65.0464L136.212 67.3022C136.068 67.2612 135.891 67.2305 135.679 67.21C135.474 67.1895 135.289 67.1792 135.125 67.1792C134.694 67.1792 134.284 67.251 133.895 67.3945C133.505 67.5312 133.16 67.7432 132.859 68.0303C132.558 68.3105 132.322 68.6626 132.151 69.0864C131.981 69.5103 131.895 70.0024 131.895 70.563V76.5H129.475V65.1489H131.362L131.69 67.1484H131.803C132.028 66.7451 132.309 66.376 132.644 66.041C132.979 65.7061 133.361 65.4395 133.792 65.2412C134.23 65.0361 134.708 64.9336 135.228 64.9336Z" fill="white"/>
<rect y="216" width="226" height="103" rx="8" fill="#020202"/>
<rect x="1" y="217" width="224" height="101" rx="7" stroke="white" stroke-opacity="0.9" stroke-width="2"/>
<path d="M102.923 260.509V270.209C102.923 271.255 102.701 272.191 102.257 273.019C101.819 273.846 101.156 274.502 100.268 274.987C99.3788 275.466 98.2612 275.705 96.9145 275.705C94.9936 275.705 93.5307 275.203 92.5258 274.198C91.5278 273.186 91.0287 271.843 91.0287 270.168V260.509H93.4897V269.953C93.4897 271.204 93.7836 272.126 94.3715 272.721C94.9594 273.316 95.8378 273.613 97.0068 273.613C97.8134 273.613 98.4697 273.473 98.9755 273.193C99.4882 272.906 99.8642 272.489 100.103 271.942C100.35 271.388 100.473 270.722 100.473 269.942V260.509H102.923ZM114.351 272.26C114.351 273.005 114.17 273.634 113.808 274.146C113.445 274.659 112.916 275.049 112.218 275.315C111.528 275.575 110.68 275.705 109.675 275.705C108.882 275.705 108.199 275.647 107.624 275.531C107.057 275.421 106.52 275.25 106.015 275.018V272.937C106.555 273.189 107.16 273.408 107.83 273.593C108.506 273.777 109.145 273.87 109.747 273.87C110.54 273.87 111.111 273.747 111.459 273.5C111.808 273.248 111.982 272.913 111.982 272.496C111.982 272.25 111.911 272.031 111.767 271.839C111.63 271.641 111.371 271.439 110.988 271.234C110.612 271.022 110.058 270.77 109.327 270.476C108.609 270.188 108.004 269.901 107.512 269.614C107.02 269.327 106.647 268.982 106.394 268.579C106.141 268.168 106.015 267.646 106.015 267.01C106.015 266.005 106.411 265.243 107.204 264.723C108.004 264.197 109.06 263.934 110.373 263.934C111.07 263.934 111.726 264.005 112.341 264.149C112.963 264.286 113.572 264.487 114.166 264.754L113.408 266.569C112.895 266.343 112.379 266.159 111.859 266.015C111.347 265.865 110.824 265.79 110.291 265.79C109.668 265.79 109.193 265.885 108.865 266.077C108.544 266.268 108.383 266.542 108.383 266.897C108.383 267.164 108.462 267.389 108.619 267.574C108.776 267.758 109.046 267.943 109.429 268.127C109.819 268.312 110.359 268.541 111.049 268.814C111.726 269.074 112.311 269.348 112.803 269.635C113.302 269.915 113.685 270.26 113.951 270.67C114.218 271.081 114.351 271.61 114.351 272.26ZM121.688 263.934C122.699 263.934 123.567 264.142 124.292 264.559C125.017 264.976 125.574 265.567 125.963 266.333C126.353 267.099 126.548 268.015 126.548 269.081V270.373H118.97C118.998 271.474 119.292 272.321 119.852 272.916C120.419 273.511 121.212 273.808 122.231 273.808C122.956 273.808 123.605 273.74 124.179 273.603C124.76 273.459 125.358 273.251 125.974 272.978V274.936C125.406 275.203 124.829 275.397 124.241 275.521C123.653 275.644 122.949 275.705 122.128 275.705C121.014 275.705 120.033 275.49 119.186 275.059C118.345 274.622 117.685 273.972 117.207 273.111C116.735 272.25 116.499 271.18 116.499 269.901C116.499 268.63 116.714 267.55 117.145 266.661C117.576 265.772 118.181 265.096 118.96 264.631C119.739 264.166 120.648 263.934 121.688 263.934ZM121.688 265.749C120.929 265.749 120.313 265.995 119.842 266.487C119.377 266.979 119.104 267.7 119.021 268.65H124.189C124.183 268.083 124.087 267.581 123.902 267.143C123.725 266.706 123.451 266.364 123.082 266.118C122.72 265.872 122.255 265.749 121.688 265.749ZM135.228 263.934C135.419 263.934 135.628 263.944 135.853 263.964C136.079 263.985 136.273 264.012 136.438 264.046L136.212 266.302C136.068 266.261 135.891 266.23 135.679 266.21C135.474 266.189 135.289 266.179 135.125 266.179C134.694 266.179 134.284 266.251 133.895 266.395C133.505 266.531 133.16 266.743 132.859 267.03C132.558 267.311 132.322 267.663 132.151 268.086C131.981 268.51 131.895 269.002 131.895 269.563V275.5H129.475V264.149H131.362L131.69 266.148H131.803C132.028 265.745 132.309 265.376 132.644 265.041C132.979 264.706 133.361 264.439 133.792 264.241C134.23 264.036 134.708 263.934 135.228 263.934Z" fill="white"/>
<rect x="448" y="117" width="226" height="103" rx="8" fill="#020202"/>
<rect x="449" y="118" width="224" height="101" rx="7" stroke="white" stroke-opacity="0.9" stroke-width="2"/>
<path d="M526.571 168.861C526.571 170.549 526.256 171.961 525.627 173.096C524.998 174.224 524.086 175.075 522.89 175.649C521.693 176.216 520.251 176.5 518.562 176.5H514.399V161.509H519.014C520.565 161.509 521.905 161.789 523.033 162.35C524.161 162.903 525.033 163.727 525.648 164.821C526.263 165.908 526.571 167.254 526.571 168.861ZM524.007 168.933C524.007 167.702 523.812 166.69 523.423 165.897C523.04 165.104 522.473 164.517 521.721 164.134C520.975 163.744 520.056 163.549 518.962 163.549H516.86V174.439H518.603C520.415 174.439 521.768 173.978 522.664 173.055C523.559 172.132 524.007 170.758 524.007 168.933ZM534.215 164.934C535.65 164.934 536.734 165.251 537.465 165.887C538.204 166.523 538.573 167.514 538.573 168.861V176.5H536.86L536.399 174.89H536.317C535.996 175.3 535.664 175.639 535.322 175.905C534.98 176.172 534.584 176.37 534.133 176.5C533.688 176.637 533.145 176.705 532.502 176.705C531.826 176.705 531.221 176.582 530.687 176.336C530.154 176.083 529.734 175.7 529.426 175.188C529.119 174.675 528.965 174.025 528.965 173.239C528.965 172.07 529.399 171.192 530.267 170.604C531.142 170.016 532.461 169.691 534.225 169.63L536.194 169.558V168.963C536.194 168.177 536.009 167.617 535.64 167.282C535.278 166.947 534.765 166.779 534.102 166.779C533.535 166.779 532.984 166.861 532.451 167.025C531.918 167.189 531.398 167.391 530.892 167.63L530.113 165.928C530.667 165.634 531.296 165.395 532 165.21C532.711 165.026 533.449 164.934 534.215 164.934ZM536.183 171.076L534.717 171.127C533.514 171.168 532.67 171.373 532.184 171.742C531.699 172.111 531.456 172.617 531.456 173.26C531.456 173.82 531.624 174.23 531.959 174.49C532.294 174.743 532.735 174.87 533.282 174.87C534.116 174.87 534.806 174.634 535.353 174.162C535.907 173.684 536.183 172.983 536.183 172.06V171.076ZM546.381 174.757C546.695 174.757 547.006 174.729 547.314 174.675C547.622 174.613 547.902 174.542 548.155 174.459V176.285C547.888 176.401 547.543 176.5 547.119 176.582C546.695 176.664 546.254 176.705 545.796 176.705C545.154 176.705 544.576 176.599 544.063 176.387C543.551 176.168 543.144 175.796 542.843 175.27C542.542 174.743 542.392 174.015 542.392 173.085V166.984H540.844V165.908L542.505 165.057L543.294 162.626H544.812V165.149H548.062V166.984H544.812V173.055C544.812 173.629 544.956 174.056 545.243 174.336C545.53 174.617 545.909 174.757 546.381 174.757ZM555.122 164.934C556.558 164.934 557.641 165.251 558.373 165.887C559.111 166.523 559.48 167.514 559.48 168.861V176.5H557.768L557.306 174.89H557.224C556.903 175.3 556.571 175.639 556.229 175.905C555.888 176.172 555.491 176.37 555.04 176.5C554.596 176.637 554.052 176.705 553.41 176.705C552.733 176.705 552.128 176.582 551.595 176.336C551.062 176.083 550.641 175.7 550.333 175.188C550.026 174.675 549.872 174.025 549.872 173.239C549.872 172.07 550.306 171.192 551.174 170.604C552.049 170.016 553.369 169.691 555.132 169.63L557.101 169.558V168.963C557.101 168.177 556.916 167.617 556.547 167.282C556.185 166.947 555.672 166.779 555.009 166.779C554.442 166.779 553.892 166.861 553.358 167.025C552.825 167.189 552.306 167.391 551.8 167.63L551.02 165.928C551.574 165.634 552.203 165.395 552.907 165.21C553.618 165.026 554.356 164.934 555.122 164.934ZM557.091 171.076L555.624 171.127C554.421 171.168 553.577 171.373 553.092 171.742C552.606 172.111 552.364 172.617 552.364 173.26C552.364 173.82 552.531 174.23 552.866 174.49C553.201 174.743 553.642 174.87 554.189 174.87C555.023 174.87 555.713 174.634 556.26 174.162C556.814 173.684 557.091 172.983 557.091 172.06V171.076ZM565.473 160.545V164.39C565.473 164.834 565.459 165.272 565.432 165.703C565.412 166.126 565.391 166.458 565.371 166.697H565.473C565.781 166.205 566.208 165.792 566.755 165.457C567.309 165.115 568.016 164.944 568.877 164.944C570.224 164.944 571.308 165.439 572.128 166.431C572.948 167.415 573.358 168.875 573.358 170.809C573.358 172.094 573.17 173.174 572.794 174.049C572.418 174.924 571.889 175.587 571.205 176.039C570.528 176.483 569.732 176.705 568.816 176.705C567.955 176.705 567.257 176.548 566.724 176.233C566.198 175.912 565.784 175.54 565.483 175.116H565.309L564.868 176.5H563.063V160.545H565.473ZM568.242 166.902C567.558 166.902 567.015 167.039 566.611 167.312C566.215 167.586 565.928 167.996 565.75 168.543C565.572 169.083 565.48 169.77 565.473 170.604V170.819C565.473 172.084 565.671 173.051 566.068 173.721C566.471 174.391 567.203 174.726 568.262 174.726C569.103 174.726 569.749 174.388 570.2 173.711C570.651 173.027 570.877 172.05 570.877 170.778C570.877 169.493 570.651 168.526 570.2 167.876C569.756 167.227 569.103 166.902 568.242 166.902ZM580.808 164.934C582.243 164.934 583.327 165.251 584.058 165.887C584.796 166.523 585.166 167.514 585.166 168.861V176.5H583.453L582.992 174.89H582.91C582.588 175.3 582.257 175.639 581.915 175.905C581.573 176.172 581.177 176.37 580.726 176.5C580.281 176.637 579.738 176.705 579.095 176.705C578.419 176.705 577.814 176.582 577.28 176.336C576.747 176.083 576.327 175.7 576.019 175.188C575.711 174.675 575.558 174.025 575.558 173.239C575.558 172.07 575.992 171.192 576.86 170.604C577.735 170.016 579.054 169.691 580.818 169.63L582.787 169.558V168.963C582.787 168.177 582.602 167.617 582.233 167.282C581.871 166.947 581.358 166.779 580.695 166.779C580.128 166.779 579.577 166.861 579.044 167.025C578.511 167.189 577.991 167.391 577.485 167.63L576.706 165.928C577.26 165.634 577.889 165.395 578.593 165.21C579.304 165.026 580.042 164.934 580.808 164.934ZM582.776 171.076L581.31 171.127C580.107 171.168 579.263 171.373 578.777 171.742C578.292 172.111 578.049 172.617 578.049 173.26C578.049 173.82 578.217 174.23 578.552 174.49C578.887 174.743 579.328 174.87 579.875 174.87C580.709 174.87 581.399 174.634 581.946 174.162C582.5 173.684 582.776 172.983 582.776 172.06V171.076ZM596.378 173.26C596.378 174.005 596.197 174.634 595.835 175.146C595.472 175.659 594.942 176.049 594.245 176.315C593.555 176.575 592.707 176.705 591.702 176.705C590.909 176.705 590.226 176.647 589.651 176.531C589.084 176.421 588.547 176.25 588.042 176.018V173.937C588.582 174.189 589.187 174.408 589.857 174.593C590.533 174.777 591.172 174.87 591.774 174.87C592.567 174.87 593.138 174.747 593.486 174.5C593.835 174.248 594.009 173.913 594.009 173.496C594.009 173.25 593.938 173.031 593.794 172.839C593.657 172.641 593.398 172.439 593.015 172.234C592.639 172.022 592.085 171.77 591.354 171.476C590.636 171.188 590.031 170.901 589.539 170.614C589.046 170.327 588.674 169.982 588.421 169.579C588.168 169.168 588.042 168.646 588.042 168.01C588.042 167.005 588.438 166.243 589.231 165.723C590.031 165.197 591.087 164.934 592.4 164.934C593.097 164.934 593.753 165.005 594.368 165.149C594.99 165.286 595.599 165.487 596.193 165.754L595.435 167.569C594.922 167.343 594.406 167.159 593.886 167.015C593.374 166.865 592.851 166.79 592.317 166.79C591.695 166.79 591.22 166.885 590.892 167.077C590.571 167.268 590.41 167.542 590.41 167.897C590.41 168.164 590.489 168.389 590.646 168.574C590.803 168.758 591.073 168.943 591.456 169.127C591.846 169.312 592.386 169.541 593.076 169.814C593.753 170.074 594.338 170.348 594.83 170.635C595.329 170.915 595.712 171.26 595.978 171.67C596.245 172.081 596.378 172.61 596.378 173.26ZM603.714 164.934C604.726 164.934 605.594 165.142 606.319 165.559C607.044 165.976 607.601 166.567 607.99 167.333C608.38 168.099 608.575 169.015 608.575 170.081V171.373H600.997C601.025 172.474 601.318 173.321 601.879 173.916C602.446 174.511 603.239 174.808 604.258 174.808C604.983 174.808 605.632 174.74 606.206 174.603C606.787 174.459 607.385 174.251 608.001 173.978V175.936C607.433 176.203 606.856 176.397 606.268 176.521C605.68 176.644 604.976 176.705 604.155 176.705C603.041 176.705 602.06 176.49 601.213 176.059C600.372 175.622 599.712 174.972 599.234 174.111C598.762 173.25 598.526 172.18 598.526 170.901C598.526 169.63 598.741 168.55 599.172 167.661C599.603 166.772 600.208 166.096 600.987 165.631C601.766 165.166 602.675 164.934 603.714 164.934ZM603.714 166.749C602.956 166.749 602.34 166.995 601.869 167.487C601.404 167.979 601.131 168.7 601.048 169.65H606.216C606.21 169.083 606.114 168.581 605.929 168.143C605.752 167.706 605.478 167.364 605.109 167.118C604.747 166.872 604.282 166.749 603.714 166.749Z" fill="white"/>
<rect width="77" height="18" transform="translate(522 108)" fill="#020202"/>
<g clip-path="url(#clip0_12_1098)">
<path d="M540.949 115.752C541.794 115.752 542.604 115.423 543.202 114.836C543.799 114.25 544.134 113.455 544.134 112.626C544.134 111.797 543.799 111.002 543.202 110.416C542.604 109.829 541.794 109.5 540.949 109.5C540.105 109.5 539.294 109.829 538.697 110.416C538.1 111.002 537.764 111.797 537.764 112.626C537.764 113.455 538.1 114.25 538.697 114.836C539.294 115.423 540.105 115.752 540.949 115.752ZM538.322 117.062L539.914 119.769C540.352 120.516 540.093 121.474 539.331 121.904L536.573 123.469C535.812 123.899 534.836 123.645 534.397 122.897L532.806 120.188C532.367 119.44 532.627 118.482 533.388 118.052L536.146 116.49C536.908 116.06 537.884 116.314 538.322 117.062ZM543.654 116.895C543.693 116.672 543.857 116.49 544.078 116.426C544.299 116.361 544.537 116.423 544.696 116.59C545.806 117.75 547.755 119.783 548.779 120.853C548.922 121.002 548.979 121.216 548.922 121.415C548.866 121.614 548.711 121.772 548.511 121.831C547.173 122.224 544.74 122.938 543.403 123.331C543.2 123.39 542.982 123.343 542.824 123.205C542.666 123.067 542.591 122.859 542.63 122.657C542.887 121.21 543.376 118.462 543.654 116.895Z" fill="#FF5C00"/>
</g>
<path d="M562.098 122L561.19 119.423H557.642L556.734 122H555.128L558.581 112.682H560.27L563.716 122H562.098ZM560.796 118.115L559.914 115.576C559.88 115.466 559.832 115.312 559.768 115.113C559.705 114.91 559.641 114.704 559.578 114.497C559.514 114.285 559.461 114.108 559.419 113.964C559.377 114.137 559.324 114.332 559.26 114.548C559.201 114.759 559.142 114.958 559.083 115.145C559.028 115.331 558.985 115.475 558.956 115.576L558.067 118.115H560.796ZM567.62 122.127C566.956 122.127 566.38 121.998 565.894 121.74C565.407 121.482 565.032 121.086 564.77 120.553C564.508 120.02 564.376 119.342 564.376 118.521C564.376 117.667 564.52 116.968 564.808 116.427C565.096 115.885 565.494 115.485 566.001 115.227C566.514 114.969 567.1 114.84 567.76 114.84C568.179 114.84 568.557 114.882 568.896 114.967C569.239 115.047 569.529 115.147 569.766 115.265L569.321 116.458C569.063 116.353 568.799 116.264 568.528 116.192C568.257 116.12 567.997 116.084 567.747 116.084C567.337 116.084 566.994 116.175 566.719 116.357C566.448 116.539 566.245 116.81 566.109 117.169C565.978 117.529 565.913 117.976 565.913 118.509C565.913 119.025 565.98 119.461 566.116 119.816C566.251 120.168 566.452 120.434 566.719 120.616C566.985 120.794 567.313 120.883 567.703 120.883C568.088 120.883 568.433 120.836 568.737 120.743C569.042 120.65 569.33 120.529 569.601 120.381V121.676C569.334 121.829 569.048 121.941 568.744 122.013C568.439 122.089 568.064 122.127 567.62 122.127ZM573.866 120.921C574.061 120.921 574.253 120.904 574.444 120.87C574.634 120.832 574.808 120.788 574.964 120.737V121.867C574.799 121.939 574.586 122 574.323 122.051C574.061 122.102 573.788 122.127 573.504 122.127C573.107 122.127 572.749 122.061 572.432 121.93C572.114 121.795 571.862 121.564 571.676 121.238C571.49 120.912 571.397 120.462 571.397 119.886V116.109H570.438V115.443L571.467 114.916L571.956 113.412H572.895V114.973H574.907V116.109H572.895V119.867C572.895 120.223 572.984 120.487 573.162 120.661C573.339 120.834 573.574 120.921 573.866 120.921ZM582.613 118.471C582.613 119.055 582.537 119.573 582.385 120.026C582.232 120.479 582.01 120.862 581.718 121.175C581.426 121.484 581.075 121.721 580.665 121.886C580.254 122.047 579.791 122.127 579.274 122.127C578.792 122.127 578.35 122.047 577.948 121.886C577.546 121.721 577.197 121.484 576.9 121.175C576.608 120.862 576.382 120.479 576.221 120.026C576.06 119.573 575.98 119.055 575.98 118.471C575.98 117.696 576.113 117.04 576.38 116.503C576.651 115.961 577.036 115.549 577.535 115.265C578.035 114.982 578.629 114.84 579.319 114.84C579.966 114.84 580.538 114.982 581.033 115.265C581.528 115.549 581.915 115.961 582.194 116.503C582.474 117.045 582.613 117.701 582.613 118.471ZM577.516 118.471C577.516 118.983 577.577 119.421 577.7 119.785C577.827 120.149 578.022 120.428 578.284 120.623C578.547 120.813 578.885 120.908 579.3 120.908C579.715 120.908 580.053 120.813 580.315 120.623C580.578 120.428 580.77 120.149 580.893 119.785C581.016 119.421 581.077 118.983 581.077 118.471C581.077 117.959 581.016 117.525 580.893 117.169C580.77 116.81 580.578 116.537 580.315 116.351C580.053 116.16 579.712 116.065 579.293 116.065C578.676 116.065 578.225 116.272 577.941 116.687C577.658 117.102 577.516 117.696 577.516 118.471ZM587.888 114.84C588.007 114.84 588.136 114.846 588.275 114.859C588.415 114.872 588.536 114.889 588.637 114.91L588.498 116.306C588.409 116.281 588.299 116.262 588.167 116.249C588.041 116.236 587.926 116.23 587.825 116.23C587.558 116.23 587.304 116.274 587.063 116.363C586.822 116.448 586.608 116.579 586.422 116.757C586.236 116.93 586.09 117.148 585.984 117.411C585.878 117.673 585.825 117.978 585.825 118.325V122H584.327V114.973H585.495L585.698 116.211H585.768C585.908 115.961 586.081 115.733 586.289 115.525C586.496 115.318 586.733 115.153 587 115.03C587.27 114.903 587.567 114.84 587.888 114.84Z" fill="#FF5C00"/>
<rect x="448" y="380" width="226" height="103" rx="8" fill="#020202"/>
<rect x="449" y="381" width="224" height="101" rx="7" stroke="white" stroke-opacity="0.9" stroke-width="2"/>
<path d="M526.571 431.861C526.571 433.549 526.256 434.961 525.627 436.096C524.998 437.224 524.086 438.075 522.89 438.649C521.693 439.216 520.251 439.5 518.562 439.5H514.399V424.509H519.014C520.565 424.509 521.905 424.789 523.033 425.35C524.161 425.903 525.033 426.727 525.648 427.821C526.263 428.908 526.571 430.254 526.571 431.861ZM524.007 431.933C524.007 430.702 523.812 429.69 523.423 428.897C523.04 428.104 522.473 427.517 521.721 427.134C520.975 426.744 520.056 426.549 518.962 426.549H516.86V437.439H518.603C520.415 437.439 521.768 436.978 522.664 436.055C523.559 435.132 524.007 433.758 524.007 431.933ZM534.215 427.934C535.65 427.934 536.734 428.251 537.465 428.887C538.204 429.523 538.573 430.514 538.573 431.861V439.5H536.86L536.399 437.89H536.317C535.996 438.3 535.664 438.639 535.322 438.905C534.98 439.172 534.584 439.37 534.133 439.5C533.688 439.637 533.145 439.705 532.502 439.705C531.826 439.705 531.221 439.582 530.687 439.336C530.154 439.083 529.734 438.7 529.426 438.188C529.119 437.675 528.965 437.025 528.965 436.239C528.965 435.07 529.399 434.192 530.267 433.604C531.142 433.016 532.461 432.691 534.225 432.63L536.194 432.558V431.963C536.194 431.177 536.009 430.617 535.64 430.282C535.278 429.947 534.765 429.779 534.102 429.779C533.535 429.779 532.984 429.861 532.451 430.025C531.918 430.189 531.398 430.391 530.892 430.63L530.113 428.928C530.667 428.634 531.296 428.395 532 428.21C532.711 428.026 533.449 427.934 534.215 427.934ZM536.183 434.076L534.717 434.127C533.514 434.168 532.67 434.373 532.184 434.742C531.699 435.111 531.456 435.617 531.456 436.26C531.456 436.82 531.624 437.23 531.959 437.49C532.294 437.743 532.735 437.87 533.282 437.87C534.116 437.87 534.806 437.634 535.353 437.162C535.907 436.684 536.183 435.983 536.183 435.06V434.076ZM546.381 437.757C546.695 437.757 547.006 437.729 547.314 437.675C547.622 437.613 547.902 437.542 548.155 437.459V439.285C547.888 439.401 547.543 439.5 547.119 439.582C546.695 439.664 546.254 439.705 545.796 439.705C545.154 439.705 544.576 439.599 544.063 439.387C543.551 439.168 543.144 438.796 542.843 438.27C542.542 437.743 542.392 437.015 542.392 436.085V429.984H540.844V428.908L542.505 428.057L543.294 425.626H544.812V428.149H548.062V429.984H544.812V436.055C544.812 436.629 544.956 437.056 545.243 437.336C545.53 437.617 545.909 437.757 546.381 437.757ZM555.122 427.934C556.558 427.934 557.641 428.251 558.373 428.887C559.111 429.523 559.48 430.514 559.48 431.861V439.5H557.768L557.306 437.89H557.224C556.903 438.3 556.571 438.639 556.229 438.905C555.888 439.172 555.491 439.37 555.04 439.5C554.596 439.637 554.052 439.705 553.41 439.705C552.733 439.705 552.128 439.582 551.595 439.336C551.062 439.083 550.641 438.7 550.333 438.188C550.026 437.675 549.872 437.025 549.872 436.239C549.872 435.07 550.306 434.192 551.174 433.604C552.049 433.016 553.369 432.691 555.132 432.63L557.101 432.558V431.963C557.101 431.177 556.916 430.617 556.547 430.282C556.185 429.947 555.672 429.779 555.009 429.779C554.442 429.779 553.892 429.861 553.358 430.025C552.825 430.189 552.306 430.391 551.8 430.63L551.02 428.928C551.574 428.634 552.203 428.395 552.907 428.21C553.618 428.026 554.356 427.934 555.122 427.934ZM557.091 434.076L555.624 434.127C554.421 434.168 553.577 434.373 553.092 434.742C552.606 435.111 552.364 435.617 552.364 436.26C552.364 436.82 552.531 437.23 552.866 437.49C553.201 437.743 553.642 437.87 554.189 437.87C555.023 437.87 555.713 437.634 556.26 437.162C556.814 436.684 557.091 435.983 557.091 435.06V434.076ZM565.473 423.545V427.39C565.473 427.834 565.459 428.272 565.432 428.703C565.412 429.126 565.391 429.458 565.371 429.697H565.473C565.781 429.205 566.208 428.792 566.755 428.457C567.309 428.115 568.016 427.944 568.877 427.944C570.224 427.944 571.308 428.439 572.128 429.431C572.948 430.415 573.358 431.875 573.358 433.809C573.358 435.094 573.17 436.174 572.794 437.049C572.418 437.924 571.889 438.587 571.205 439.039C570.528 439.483 569.732 439.705 568.816 439.705C567.955 439.705 567.257 439.548 566.724 439.233C566.198 438.912 565.784 438.54 565.483 438.116H565.309L564.868 439.5H563.063V423.545H565.473ZM568.242 429.902C567.558 429.902 567.015 430.039 566.611 430.312C566.215 430.586 565.928 430.996 565.75 431.543C565.572 432.083 565.48 432.77 565.473 433.604V433.819C565.473 435.084 565.671 436.051 566.068 436.721C566.471 437.391 567.203 437.726 568.262 437.726C569.103 437.726 569.749 437.388 570.2 436.711C570.651 436.027 570.877 435.05 570.877 433.778C570.877 432.493 570.651 431.526 570.2 430.876C569.756 430.227 569.103 429.902 568.242 429.902ZM580.808 427.934C582.243 427.934 583.327 428.251 584.058 428.887C584.796 429.523 585.166 430.514 585.166 431.861V439.5H583.453L582.992 437.89H582.91C582.588 438.3 582.257 438.639 581.915 438.905C581.573 439.172 581.177 439.37 580.726 439.5C580.281 439.637 579.738 439.705 579.095 439.705C578.419 439.705 577.814 439.582 577.28 439.336C576.747 439.083 576.327 438.7 576.019 438.188C575.711 437.675 575.558 437.025 575.558 436.239C575.558 435.07 575.992 434.192 576.86 433.604C577.735 433.016 579.054 432.691 580.818 432.63L582.787 432.558V431.963C582.787 431.177 582.602 430.617 582.233 430.282C581.871 429.947 581.358 429.779 580.695 429.779C580.128 429.779 579.577 429.861 579.044 430.025C578.511 430.189 577.991 430.391 577.485 430.63L576.706 428.928C577.26 428.634 577.889 428.395 578.593 428.21C579.304 428.026 580.042 427.934 580.808 427.934ZM582.776 434.076L581.31 434.127C580.107 434.168 579.263 434.373 578.777 434.742C578.292 435.111 578.049 435.617 578.049 436.26C578.049 436.82 578.217 437.23 578.552 437.49C578.887 437.743 579.328 437.87 579.875 437.87C580.709 437.87 581.399 437.634 581.946 437.162C582.5 436.684 582.776 435.983 582.776 435.06V434.076ZM596.378 436.26C596.378 437.005 596.197 437.634 595.835 438.146C595.472 438.659 594.942 439.049 594.245 439.315C593.555 439.575 592.707 439.705 591.702 439.705C590.909 439.705 590.226 439.647 589.651 439.531C589.084 439.421 588.547 439.25 588.042 439.018V436.937C588.582 437.189 589.187 437.408 589.857 437.593C590.533 437.777 591.172 437.87 591.774 437.87C592.567 437.87 593.138 437.747 593.486 437.5C593.835 437.248 594.009 436.913 594.009 436.496C594.009 436.25 593.938 436.031 593.794 435.839C593.657 435.641 593.398 435.439 593.015 435.234C592.639 435.022 592.085 434.77 591.354 434.476C590.636 434.188 590.031 433.901 589.539 433.614C589.046 433.327 588.674 432.982 588.421 432.579C588.168 432.168 588.042 431.646 588.042 431.01C588.042 430.005 588.438 429.243 589.231 428.723C590.031 428.197 591.087 427.934 592.4 427.934C593.097 427.934 593.753 428.005 594.368 428.149C594.99 428.286 595.599 428.487 596.193 428.754L595.435 430.569C594.922 430.343 594.406 430.159 593.886 430.015C593.374 429.865 592.851 429.79 592.317 429.79C591.695 429.79 591.22 429.885 590.892 430.077C590.571 430.268 590.41 430.542 590.41 430.897C590.41 431.164 590.489 431.389 590.646 431.574C590.803 431.758 591.073 431.943 591.456 432.127C591.846 432.312 592.386 432.541 593.076 432.814C593.753 433.074 594.338 433.348 594.83 433.635C595.329 433.915 595.712 434.26 595.978 434.67C596.245 435.081 596.378 435.61 596.378 436.26ZM603.714 427.934C604.726 427.934 605.594 428.142 606.319 428.559C607.044 428.976 607.601 429.567 607.99 430.333C608.38 431.099 608.575 432.015 608.575 433.081V434.373H600.997C601.025 435.474 601.318 436.321 601.879 436.916C602.446 437.511 603.239 437.808 604.258 437.808C604.983 437.808 605.632 437.74 606.206 437.603C606.787 437.459 607.385 437.251 608.001 436.978V438.936C607.433 439.203 606.856 439.397 606.268 439.521C605.68 439.644 604.976 439.705 604.155 439.705C603.041 439.705 602.06 439.49 601.213 439.059C600.372 438.622 599.712 437.972 599.234 437.111C598.762 436.25 598.526 435.18 598.526 433.901C598.526 432.63 598.741 431.55 599.172 430.661C599.603 429.772 600.208 429.096 600.987 428.631C601.766 428.166 602.675 427.934 603.714 427.934ZM603.714 429.749C602.956 429.749 602.34 429.995 601.869 430.487C601.404 430.979 601.131 431.7 601.048 432.65H606.216C606.21 432.083 606.114 431.581 605.929 431.143C605.752 430.706 605.478 430.364 605.109 430.118C604.747 429.872 604.282 429.749 603.714 429.749Z" fill="white"/>
<rect width="77" height="18" transform="translate(522 371)" fill="#020202"/>
<g clip-path="url(#clip1_12_1098)">
<path d="M540.949 378.752C541.794 378.752 542.604 378.423 543.202 377.836C543.799 377.25 544.134 376.455 544.134 375.626C544.134 374.797 543.799 374.002 543.202 373.416C542.604 372.829 541.794 372.5 540.949 372.5C540.105 372.5 539.294 372.829 538.697 373.416C538.1 374.002 537.764 374.797 537.764 375.626C537.764 376.455 538.1 377.25 538.697 377.836C539.294 378.423 540.105 378.752 540.949 378.752ZM538.322 380.062L539.914 382.769C540.352 383.516 540.093 384.474 539.331 384.904L536.573 386.469C535.812 386.899 534.836 386.645 534.397 385.897L532.806 383.188C532.367 382.44 532.627 381.482 533.388 381.052L536.146 379.49C536.908 379.06 537.884 379.314 538.322 380.062ZM543.654 379.895C543.693 379.672 543.857 379.49 544.078 379.426C544.299 379.361 544.537 379.423 544.696 379.59C545.806 380.75 547.755 382.783 548.779 383.853C548.922 384.002 548.979 384.216 548.922 384.415C548.866 384.614 548.711 384.772 548.511 384.831C547.173 385.224 544.74 385.938 543.403 386.331C543.2 386.39 542.982 386.343 542.824 386.205C542.666 386.067 542.591 385.859 542.63 385.657C542.887 384.21 543.376 381.462 543.654 379.895Z" fill="#FF5C00"/>
</g>
<path d="M562.098 385L561.19 382.423H557.642L556.734 385H555.128L558.581 375.682H560.27L563.716 385H562.098ZM560.796 381.115L559.914 378.576C559.88 378.466 559.832 378.312 559.768 378.113C559.705 377.91 559.641 377.704 559.578 377.497C559.514 377.285 559.461 377.108 559.419 376.964C559.377 377.137 559.324 377.332 559.26 377.548C559.201 377.759 559.142 377.958 559.083 378.145C559.028 378.331 558.985 378.475 558.956 378.576L558.067 381.115H560.796ZM567.62 385.127C566.956 385.127 566.38 384.998 565.894 384.74C565.407 384.482 565.032 384.086 564.77 383.553C564.508 383.02 564.376 382.342 564.376 381.521C564.376 380.667 564.52 379.968 564.808 379.427C565.096 378.885 565.494 378.485 566.001 378.227C566.514 377.969 567.1 377.84 567.76 377.84C568.179 377.84 568.557 377.882 568.896 377.967C569.239 378.047 569.529 378.147 569.766 378.265L569.321 379.458C569.063 379.353 568.799 379.264 568.528 379.192C568.257 379.12 567.997 379.084 567.747 379.084C567.337 379.084 566.994 379.175 566.719 379.357C566.448 379.539 566.245 379.81 566.109 380.169C565.978 380.529 565.913 380.976 565.913 381.509C565.913 382.025 565.98 382.461 566.116 382.816C566.251 383.168 566.452 383.434 566.719 383.616C566.985 383.794 567.313 383.883 567.703 383.883C568.088 383.883 568.433 383.836 568.737 383.743C569.042 383.65 569.33 383.529 569.601 383.381V384.676C569.334 384.829 569.048 384.941 568.744 385.013C568.439 385.089 568.064 385.127 567.62 385.127ZM573.866 383.921C574.061 383.921 574.253 383.904 574.444 383.87C574.634 383.832 574.808 383.788 574.964 383.737V384.867C574.799 384.939 574.586 385 574.323 385.051C574.061 385.102 573.788 385.127 573.504 385.127C573.107 385.127 572.749 385.061 572.432 384.93C572.114 384.795 571.862 384.564 571.676 384.238C571.49 383.912 571.397 383.462 571.397 382.886V379.109H570.438V378.443L571.467 377.916L571.956 376.412H572.895V377.973H574.907V379.109H572.895V382.867C572.895 383.223 572.984 383.487 573.162 383.661C573.339 383.834 573.574 383.921 573.866 383.921ZM582.613 381.471C582.613 382.055 582.537 382.573 582.385 383.026C582.232 383.479 582.01 383.862 581.718 384.175C581.426 384.484 581.075 384.721 580.665 384.886C580.254 385.047 579.791 385.127 579.274 385.127C578.792 385.127 578.35 385.047 577.948 384.886C577.546 384.721 577.197 384.484 576.9 384.175C576.608 383.862 576.382 383.479 576.221 383.026C576.06 382.573 575.98 382.055 575.98 381.471C575.98 380.696 576.113 380.04 576.38 379.503C576.651 378.961 577.036 378.549 577.535 378.265C578.035 377.982 578.629 377.84 579.319 377.84C579.966 377.84 580.538 377.982 581.033 378.265C581.528 378.549 581.915 378.961 582.194 379.503C582.474 380.045 582.613 380.701 582.613 381.471ZM577.516 381.471C577.516 381.983 577.577 382.421 577.7 382.785C577.827 383.149 578.022 383.428 578.284 383.623C578.547 383.813 578.885 383.908 579.3 383.908C579.715 383.908 580.053 383.813 580.315 383.623C580.578 383.428 580.77 383.149 580.893 382.785C581.016 382.421 581.077 381.983 581.077 381.471C581.077 380.959 581.016 380.525 580.893 380.169C580.77 379.81 580.578 379.537 580.315 379.351C580.053 379.16 579.712 379.065 579.293 379.065C578.676 379.065 578.225 379.272 577.941 379.687C577.658 380.102 577.516 380.696 577.516 381.471ZM587.888 377.84C588.007 377.84 588.136 377.846 588.275 377.859C588.415 377.872 588.536 377.889 588.637 377.91L588.498 379.306C588.409 379.281 588.299 379.262 588.167 379.249C588.041 379.236 587.926 379.23 587.825 379.23C587.558 379.23 587.304 379.274 587.063 379.363C586.822 379.448 586.608 379.579 586.422 379.757C586.236 379.93 586.09 380.148 585.984 380.411C585.878 380.673 585.825 380.978 585.825 381.325V385H584.327V377.973H585.495L585.698 379.211H585.768C585.908 378.961 586.081 378.733 586.289 378.525C586.496 378.318 586.733 378.153 587 378.03C587.27 377.903 587.567 377.84 587.888 377.84Z" fill="#FF5C00"/>
<path d="M420.338 160.941C420.858 160.755 421.128 160.182 420.941 159.662L417.902 151.191C417.715 150.671 417.143 150.401 416.623 150.587C416.103 150.774 415.833 151.347 416.019 151.866L418.721 159.396L411.191 162.098C410.671 162.285 410.401 162.857 410.587 163.377C410.774 163.897 411.347 164.167 411.866 163.981L420.338 160.941ZM242 76L241.573 76.9044L419.573 160.904L420 160L420.427 159.096L242.427 75.0956L242 76Z" fill="white"/>
<path d="M241.662 267.941C241.142 267.755 240.872 267.182 241.059 266.662L244.098 258.191C244.285 257.671 244.857 257.401 245.377 257.587C245.897 257.774 246.167 258.347 245.981 258.866L243.279 266.396L250.809 269.098C251.329 269.285 251.599 269.857 251.413 270.377C251.226 270.897 250.653 271.167 250.134 270.981L241.662 267.941ZM420 183L420.427 183.904L242.427 267.904L242 267L241.573 266.096L419.573 182.096L420 183Z" fill="white"/>
<rect width="157" height="40" transform="translate(259 98)" fill="#020202"/>
<path d="M278.328 126L276.862 121.837H271.13L269.664 126H267.07L272.648 110.947H275.375L280.943 126H278.328ZM276.226 119.725L274.801 115.623C274.746 115.445 274.668 115.196 274.565 114.875C274.463 114.546 274.36 114.215 274.258 113.88C274.155 113.538 274.07 113.251 274.001 113.019C273.933 113.299 273.847 113.613 273.745 113.962C273.649 114.304 273.553 114.625 273.458 114.926C273.369 115.227 273.301 115.459 273.253 115.623L271.817 119.725H276.226ZM288.71 114.434C290.057 114.434 291.137 114.926 291.951 115.91C292.771 116.895 293.181 118.357 293.181 120.299C293.181 121.584 292.99 122.667 292.607 123.549C292.231 124.424 291.701 125.087 291.017 125.539C290.341 125.983 289.551 126.205 288.649 126.205C288.075 126.205 287.576 126.13 287.152 125.979C286.728 125.829 286.366 125.634 286.065 125.395C285.764 125.149 285.511 124.882 285.306 124.595H285.162C285.197 124.869 285.227 125.173 285.255 125.508C285.289 125.836 285.306 126.137 285.306 126.41V131.035H282.886V114.649H284.855L285.193 116.218H285.306C285.518 115.896 285.774 115.599 286.075 115.326C286.383 115.052 286.752 114.837 287.182 114.68C287.62 114.516 288.129 114.434 288.71 114.434ZM288.064 116.402C287.401 116.402 286.868 116.536 286.465 116.802C286.068 117.062 285.778 117.455 285.593 117.981C285.415 118.508 285.32 119.167 285.306 119.96V120.299C285.306 121.14 285.391 121.854 285.562 122.442C285.74 123.023 286.031 123.467 286.434 123.775C286.844 124.076 287.398 124.226 288.095 124.226C288.683 124.226 289.168 124.065 289.551 123.744C289.941 123.423 290.231 122.965 290.423 122.37C290.614 121.775 290.71 121.075 290.71 120.268C290.71 119.044 290.491 118.094 290.054 117.417C289.623 116.741 288.96 116.402 288.064 116.402ZM302.004 114.434C303.351 114.434 304.431 114.926 305.244 115.91C306.065 116.895 306.475 118.357 306.475 120.299C306.475 121.584 306.284 122.667 305.901 123.549C305.525 124.424 304.995 125.087 304.311 125.539C303.635 125.983 302.845 126.205 301.943 126.205C301.369 126.205 300.869 126.13 300.446 125.979C300.022 125.829 299.66 125.634 299.359 125.395C299.058 125.149 298.805 124.882 298.6 124.595H298.456C298.491 124.869 298.521 125.173 298.549 125.508C298.583 125.836 298.6 126.137 298.6 126.41V131.035H296.18V114.649H298.149L298.487 116.218H298.6C298.812 115.896 299.068 115.599 299.369 115.326C299.677 115.052 300.046 114.837 300.476 114.68C300.914 114.516 301.423 114.434 302.004 114.434ZM301.358 116.402C300.695 116.402 300.162 116.536 299.759 116.802C299.362 117.062 299.072 117.455 298.887 117.981C298.709 118.508 298.614 119.167 298.6 119.96V120.299C298.6 121.14 298.685 121.854 298.856 122.442C299.034 123.023 299.325 123.467 299.728 123.775C300.138 124.076 300.692 124.226 301.389 124.226C301.977 124.226 302.462 124.065 302.845 123.744C303.235 123.423 303.525 122.965 303.717 122.37C303.908 121.775 304.004 121.075 304.004 120.268C304.004 119.044 303.785 118.094 303.348 117.417C302.917 116.741 302.254 116.402 301.358 116.402ZM311.894 126H309.474V110.045H311.894V126ZM313.837 114.649H316.462L318.789 121.129C318.892 121.423 318.984 121.714 319.066 122.001C319.155 122.281 319.23 122.558 319.292 122.832C319.36 123.105 319.415 123.378 319.456 123.652H319.518C319.586 123.296 319.682 122.9 319.805 122.462C319.935 122.018 320.078 121.574 320.235 121.129L322.471 114.649H325.065L320.194 127.559C319.914 128.297 319.569 128.926 319.159 129.445C318.755 129.972 318.277 130.368 317.723 130.635C317.169 130.908 316.537 131.045 315.826 131.045C315.484 131.045 315.187 131.024 314.934 130.983C314.681 130.949 314.466 130.912 314.288 130.871V128.943C314.432 128.977 314.613 129.008 314.831 129.035C315.05 129.062 315.276 129.076 315.508 129.076C315.939 129.076 316.311 128.991 316.626 128.82C316.94 128.649 317.207 128.406 317.426 128.092C317.644 127.784 317.826 127.432 317.969 127.036L318.369 125.969L313.837 114.649ZM339.297 112.885C338.579 112.885 337.937 113.015 337.369 113.275C336.809 113.535 336.334 113.911 335.944 114.403C335.554 114.888 335.257 115.479 335.052 116.177C334.847 116.867 334.744 117.646 334.744 118.515C334.744 119.677 334.908 120.678 335.236 121.519C335.564 122.353 336.063 122.996 336.733 123.447C337.403 123.891 338.251 124.113 339.276 124.113C339.912 124.113 340.531 124.052 341.132 123.929C341.734 123.806 342.356 123.638 342.999 123.426V125.518C342.39 125.757 341.775 125.932 341.153 126.041C340.531 126.15 339.813 126.205 339 126.205C337.468 126.205 336.197 125.887 335.185 125.251C334.18 124.616 333.428 123.72 332.929 122.565C332.437 121.41 332.191 120.056 332.191 118.504C332.191 117.37 332.348 116.331 332.663 115.387C332.977 114.444 333.435 113.63 334.037 112.947C334.638 112.256 335.38 111.727 336.262 111.357C337.15 110.981 338.166 110.793 339.307 110.793C340.059 110.793 340.797 110.879 341.522 111.05C342.253 111.214 342.93 111.45 343.552 111.757L342.691 113.788C342.171 113.542 341.628 113.33 341.061 113.152C340.493 112.974 339.905 112.885 339.297 112.885ZM348.592 110.045V114.054C348.592 114.471 348.578 114.878 348.551 115.274C348.53 115.671 348.506 115.979 348.479 116.197H348.612C348.852 115.801 349.146 115.476 349.494 115.223C349.843 114.963 350.232 114.769 350.663 114.639C351.101 114.509 351.565 114.444 352.058 114.444C352.926 114.444 353.664 114.591 354.273 114.885C354.881 115.172 355.346 115.62 355.667 116.228C355.995 116.836 356.159 117.626 356.159 118.597V126H353.75V119.048C353.75 118.166 353.568 117.506 353.206 117.069C352.844 116.625 352.283 116.402 351.524 116.402C350.793 116.402 350.212 116.556 349.781 116.864C349.357 117.165 349.053 117.612 348.869 118.207C348.684 118.795 348.592 119.513 348.592 120.36V126H346.182V110.045H348.592ZM364.193 114.434C365.629 114.434 366.712 114.751 367.443 115.387C368.182 116.023 368.551 117.014 368.551 118.361V126H366.838L366.377 124.39H366.295C365.974 124.8 365.642 125.139 365.3 125.405C364.959 125.672 364.562 125.87 364.111 126C363.667 126.137 363.123 126.205 362.481 126.205C361.804 126.205 361.199 126.082 360.666 125.836C360.132 125.583 359.712 125.2 359.404 124.688C359.097 124.175 358.943 123.525 358.943 122.739C358.943 121.57 359.377 120.692 360.245 120.104C361.12 119.516 362.44 119.191 364.203 119.13L366.172 119.058V118.463C366.172 117.677 365.987 117.117 365.618 116.782C365.256 116.447 364.743 116.279 364.08 116.279C363.513 116.279 362.963 116.361 362.429 116.525C361.896 116.689 361.377 116.891 360.871 117.13L360.091 115.428C360.645 115.134 361.274 114.895 361.978 114.71C362.689 114.526 363.427 114.434 364.193 114.434ZM366.162 120.576L364.695 120.627C363.492 120.668 362.648 120.873 362.163 121.242C361.677 121.611 361.435 122.117 361.435 122.76C361.435 123.32 361.602 123.73 361.937 123.99C362.272 124.243 362.713 124.37 363.26 124.37C364.094 124.37 364.784 124.134 365.331 123.662C365.885 123.184 366.162 122.483 366.162 121.56V120.576ZM378.051 114.434C379.329 114.434 380.324 114.765 381.035 115.428C381.753 116.084 382.111 117.141 382.111 118.597V126H379.702V119.048C379.702 118.166 379.521 117.506 379.158 117.069C378.796 116.625 378.235 116.402 377.477 116.402C376.376 116.402 375.61 116.741 375.18 117.417C374.756 118.094 374.544 119.075 374.544 120.36V126H372.134V114.649H374.011L374.349 116.187H374.483C374.729 115.791 375.033 115.466 375.395 115.213C375.764 114.953 376.174 114.758 376.626 114.628C377.084 114.499 377.559 114.434 378.051 114.434ZM388.935 131.045C387.397 131.045 386.218 130.768 385.398 130.214C384.577 129.661 384.167 128.885 384.167 127.887C384.167 127.189 384.386 126.598 384.823 126.113C385.261 125.634 385.886 125.303 386.7 125.118C386.392 124.981 386.126 124.77 385.9 124.482C385.681 124.188 385.572 123.864 385.572 123.508C385.572 123.084 385.692 122.722 385.931 122.421C386.17 122.121 386.529 121.83 387.007 121.55C386.413 121.297 385.934 120.887 385.572 120.319C385.216 119.745 385.039 119.072 385.039 118.299C385.039 117.479 385.213 116.782 385.562 116.208C385.91 115.626 386.42 115.186 387.09 114.885C387.759 114.577 388.57 114.423 389.52 114.423C389.725 114.423 389.947 114.437 390.186 114.464C390.432 114.485 390.658 114.512 390.863 114.546C391.075 114.574 391.236 114.604 391.345 114.639H395.272V115.982L393.344 116.341C393.529 116.601 393.676 116.898 393.785 117.233C393.895 117.561 393.949 117.92 393.949 118.31C393.949 119.485 393.543 120.412 392.729 121.088C391.923 121.758 390.808 122.093 389.386 122.093C389.045 122.08 388.713 122.052 388.392 122.011C388.146 122.162 387.958 122.329 387.828 122.514C387.698 122.691 387.633 122.893 387.633 123.119C387.633 123.303 387.698 123.454 387.828 123.57C387.958 123.679 388.149 123.761 388.402 123.816C388.662 123.871 388.976 123.898 389.345 123.898H391.304C392.548 123.898 393.498 124.161 394.154 124.688C394.811 125.214 395.139 125.986 395.139 127.005C395.139 128.297 394.606 129.292 393.539 129.989C392.473 130.693 390.938 131.045 388.935 131.045ZM389.028 129.353C389.868 129.353 390.576 129.271 391.15 129.107C391.724 128.943 392.158 128.707 392.452 128.399C392.746 128.099 392.893 127.74 392.893 127.323C392.893 126.954 392.801 126.67 392.616 126.472C392.432 126.273 392.155 126.137 391.786 126.062C391.417 125.986 390.959 125.949 390.412 125.949H388.628C388.183 125.949 387.79 126.017 387.448 126.154C387.107 126.297 386.84 126.502 386.649 126.769C386.464 127.036 386.372 127.357 386.372 127.733C386.372 128.252 386.601 128.652 387.059 128.933C387.524 129.213 388.18 129.353 389.028 129.353ZM389.499 120.514C390.203 120.514 390.726 120.323 391.068 119.94C391.41 119.55 391.581 119.003 391.581 118.299C391.581 117.534 391.403 116.959 391.048 116.577C390.699 116.194 390.179 116.002 389.489 116.002C388.812 116.002 388.296 116.197 387.941 116.587C387.592 116.977 387.418 117.554 387.418 118.32C387.418 119.01 387.592 119.55 387.941 119.94C388.296 120.323 388.816 120.514 389.499 120.514ZM402.075 114.434C403.087 114.434 403.955 114.642 404.68 115.059C405.405 115.476 405.962 116.067 406.351 116.833C406.741 117.599 406.936 118.515 406.936 119.581V120.873H399.358C399.385 121.974 399.679 122.821 400.24 123.416C400.807 124.011 401.6 124.308 402.619 124.308C403.343 124.308 403.993 124.24 404.567 124.103C405.148 123.959 405.746 123.751 406.362 123.478V125.436C405.794 125.703 405.217 125.897 404.629 126.021C404.041 126.144 403.337 126.205 402.516 126.205C401.402 126.205 400.421 125.99 399.573 125.559C398.733 125.122 398.073 124.472 397.594 123.611C397.123 122.75 396.887 121.68 396.887 120.401C396.887 119.13 397.102 118.05 397.533 117.161C397.964 116.272 398.569 115.596 399.348 115.131C400.127 114.666 401.036 114.434 402.075 114.434ZM402.075 116.249C401.317 116.249 400.701 116.495 400.23 116.987C399.765 117.479 399.491 118.2 399.409 119.15H404.577C404.571 118.583 404.475 118.081 404.29 117.643C404.113 117.206 403.839 116.864 403.47 116.618C403.108 116.372 402.643 116.249 402.075 116.249Z" fill="white"/>
<rect width="163" height="40" transform="translate(259 199)" fill="#020202"/>
<path d="M281.88 227H278.855L271.513 215.034H271.421C271.448 215.437 271.472 215.864 271.492 216.315C271.52 216.767 271.54 217.231 271.554 217.71C271.574 218.188 271.592 218.674 271.605 219.166V227H269.37V212.009H272.374L279.706 223.893H279.778C279.764 223.544 279.747 223.145 279.726 222.693C279.706 222.242 279.685 221.777 279.665 221.299C279.651 220.813 279.641 220.345 279.634 219.894V212.009H281.88V227ZM295.83 221.299C295.83 222.242 295.707 223.08 295.461 223.811C295.215 224.542 294.856 225.161 294.384 225.667C293.912 226.166 293.345 226.549 292.682 226.815C292.019 227.075 291.27 227.205 290.436 227.205C289.657 227.205 288.943 227.075 288.293 226.815C287.644 226.549 287.08 226.166 286.601 225.667C286.13 225.161 285.764 224.542 285.504 223.811C285.244 223.08 285.115 222.242 285.115 221.299C285.115 220.048 285.33 218.988 285.761 218.12C286.198 217.245 286.82 216.579 287.627 216.121C288.433 215.663 289.394 215.434 290.508 215.434C291.554 215.434 292.477 215.663 293.277 216.121C294.076 216.579 294.702 217.245 295.153 218.12C295.604 218.995 295.83 220.055 295.83 221.299ZM287.596 221.299C287.596 222.126 287.695 222.833 287.893 223.421C288.098 224.009 288.413 224.46 288.837 224.775C289.261 225.083 289.807 225.236 290.477 225.236C291.147 225.236 291.694 225.083 292.118 224.775C292.542 224.46 292.853 224.009 293.051 223.421C293.249 222.833 293.348 222.126 293.348 221.299C293.348 220.472 293.249 219.771 293.051 219.197C292.853 218.616 292.542 218.175 292.118 217.874C291.694 217.566 291.144 217.413 290.467 217.413C289.469 217.413 288.741 217.748 288.283 218.417C287.825 219.087 287.596 220.048 287.596 221.299ZM303.033 225.257C303.347 225.257 303.659 225.229 303.966 225.175C304.274 225.113 304.554 225.042 304.807 224.959V226.785C304.54 226.901 304.195 227 303.771 227.082C303.347 227.164 302.907 227.205 302.449 227.205C301.806 227.205 301.228 227.099 300.716 226.887C300.203 226.668 299.796 226.296 299.495 225.77C299.195 225.243 299.044 224.515 299.044 223.585V217.484H297.496V216.408L299.157 215.557L299.947 213.126H301.464V215.649H304.715V217.484H301.464V223.555C301.464 224.129 301.608 224.556 301.895 224.836C302.182 225.117 302.561 225.257 303.033 225.257ZM309.734 215.649V227H307.324V215.649H309.734ZM308.544 211.301C308.913 211.301 309.231 211.4 309.498 211.599C309.771 211.797 309.908 212.139 309.908 212.624C309.908 213.103 309.771 213.444 309.498 213.649C309.231 213.848 308.913 213.947 308.544 213.947C308.162 213.947 307.837 213.848 307.57 213.649C307.31 213.444 307.181 213.103 307.181 212.624C307.181 212.139 307.31 211.797 307.57 211.599C307.837 211.4 308.162 211.301 308.544 211.301ZM319.07 217.484H316.311V227H313.902V217.484H312.046V216.326L313.902 215.618V214.829C313.902 213.865 314.052 213.099 314.353 212.532C314.661 211.964 315.098 211.558 315.665 211.312C316.24 211.059 316.923 210.932 317.716 210.932C318.236 210.932 318.711 210.977 319.142 211.065C319.572 211.147 319.934 211.243 320.228 211.353L319.603 213.178C319.371 213.103 319.111 213.034 318.824 212.973C318.537 212.904 318.229 212.87 317.901 212.87C317.354 212.87 316.951 213.041 316.691 213.383C316.438 213.725 316.311 214.224 316.311 214.88V215.649H319.07V217.484ZM319.505 215.649H322.13L324.458 222.129C324.561 222.423 324.653 222.714 324.735 223.001C324.824 223.281 324.899 223.558 324.96 223.832C325.029 224.105 325.083 224.378 325.124 224.652H325.186C325.254 224.296 325.35 223.9 325.473 223.462C325.603 223.018 325.747 222.574 325.904 222.129L328.139 215.649H330.733L325.863 228.559C325.582 229.297 325.237 229.926 324.827 230.445C324.424 230.972 323.945 231.368 323.392 231.635C322.838 231.908 322.206 232.045 321.495 232.045C321.153 232.045 320.855 232.024 320.602 231.983C320.35 231.949 320.134 231.912 319.957 231.871V229.943C320.1 229.977 320.281 230.008 320.5 230.035C320.719 230.062 320.944 230.076 321.177 230.076C321.607 230.076 321.98 229.991 322.294 229.82C322.609 229.649 322.875 229.406 323.094 229.092C323.313 228.784 323.494 228.432 323.638 228.036L324.038 226.969L319.505 215.649ZM344.965 213.885C344.248 213.885 343.605 214.015 343.038 214.275C342.477 214.535 342.002 214.911 341.612 215.403C341.223 215.888 340.925 216.479 340.72 217.177C340.515 217.867 340.413 218.646 340.413 219.515C340.413 220.677 340.577 221.678 340.905 222.519C341.233 223.353 341.732 223.996 342.402 224.447C343.072 224.891 343.919 225.113 344.945 225.113C345.581 225.113 346.199 225.052 346.801 224.929C347.402 224.806 348.024 224.638 348.667 224.426V226.518C348.059 226.757 347.443 226.932 346.821 227.041C346.199 227.15 345.481 227.205 344.668 227.205C343.137 227.205 341.865 226.887 340.854 226.251C339.849 225.616 339.097 224.72 338.598 223.565C338.106 222.41 337.859 221.056 337.859 219.504C337.859 218.37 338.017 217.331 338.331 216.387C338.646 215.444 339.104 214.63 339.705 213.947C340.307 213.256 341.048 212.727 341.93 212.357C342.819 211.981 343.834 211.793 344.976 211.793C345.728 211.793 346.466 211.879 347.19 212.05C347.922 212.214 348.599 212.45 349.221 212.757L348.359 214.788C347.84 214.542 347.296 214.33 346.729 214.152C346.162 213.974 345.574 213.885 344.965 213.885ZM354.26 211.045V215.054C354.26 215.471 354.247 215.878 354.219 216.274C354.199 216.671 354.175 216.979 354.148 217.197H354.281C354.52 216.801 354.814 216.476 355.163 216.223C355.511 215.963 355.901 215.769 356.332 215.639C356.769 215.509 357.234 215.444 357.726 215.444C358.594 215.444 359.333 215.591 359.941 215.885C360.549 216.172 361.014 216.62 361.336 217.228C361.664 217.836 361.828 218.626 361.828 219.597V227H359.418V220.048C359.418 219.166 359.237 218.506 358.875 218.069C358.512 217.625 357.952 217.402 357.193 217.402C356.462 217.402 355.88 217.556 355.45 217.864C355.026 218.165 354.722 218.612 354.537 219.207C354.353 219.795 354.26 220.513 354.26 221.36V227H351.851V211.045H354.26ZM369.861 215.434C371.297 215.434 372.38 215.751 373.112 216.387C373.85 217.023 374.219 218.014 374.219 219.361V227H372.507L372.046 225.39H371.963C371.642 225.8 371.311 226.139 370.969 226.405C370.627 226.672 370.231 226.87 369.779 227C369.335 227.137 368.792 227.205 368.149 227.205C367.472 227.205 366.867 227.082 366.334 226.836C365.801 226.583 365.38 226.2 365.073 225.688C364.765 225.175 364.611 224.525 364.611 223.739C364.611 222.57 365.046 221.692 365.914 221.104C366.789 220.516 368.108 220.191 369.872 220.13L371.84 220.058V219.463C371.84 218.677 371.656 218.117 371.287 217.782C370.924 217.447 370.412 217.279 369.749 217.279C369.181 217.279 368.631 217.361 368.098 217.525C367.565 217.689 367.045 217.891 366.539 218.13L365.76 216.428C366.314 216.134 366.942 215.895 367.647 215.71C368.358 215.526 369.096 215.434 369.861 215.434ZM371.83 221.576L370.364 221.627C369.161 221.668 368.317 221.873 367.831 222.242C367.346 222.611 367.103 223.117 367.103 223.76C367.103 224.32 367.271 224.73 367.606 224.99C367.941 225.243 368.381 225.37 368.928 225.37C369.762 225.37 370.453 225.134 371 224.662C371.553 224.184 371.83 223.483 371.83 222.56V221.576ZM383.719 215.434C384.998 215.434 385.992 215.765 386.703 216.428C387.421 217.084 387.78 218.141 387.78 219.597V227H385.37V220.048C385.37 219.166 385.189 218.506 384.827 218.069C384.465 217.625 383.904 217.402 383.145 217.402C382.045 217.402 381.279 217.741 380.848 218.417C380.424 219.094 380.213 220.075 380.213 221.36V227H377.803V215.649H379.679L380.018 217.187H380.151C380.397 216.791 380.701 216.466 381.064 216.213C381.433 215.953 381.843 215.758 382.294 215.628C382.752 215.499 383.227 215.434 383.719 215.434ZM394.604 232.045C393.066 232.045 391.886 231.768 391.066 231.214C390.246 230.661 389.836 229.885 389.836 228.887C389.836 228.189 390.054 227.598 390.492 227.113C390.929 226.634 391.555 226.303 392.368 226.118C392.061 225.981 391.794 225.77 391.569 225.482C391.35 225.188 391.24 224.864 391.24 224.508C391.24 224.084 391.36 223.722 391.599 223.421C391.839 223.121 392.197 222.83 392.676 222.55C392.081 222.297 391.603 221.887 391.24 221.319C390.885 220.745 390.707 220.072 390.707 219.299C390.707 218.479 390.882 217.782 391.23 217.208C391.579 216.626 392.088 216.186 392.758 215.885C393.428 215.577 394.238 215.423 395.188 215.423C395.393 215.423 395.615 215.437 395.855 215.464C396.101 215.485 396.326 215.512 396.531 215.546C396.743 215.574 396.904 215.604 397.013 215.639H400.941V216.982L399.013 217.341C399.197 217.601 399.344 217.898 399.454 218.233C399.563 218.561 399.618 218.92 399.618 219.31C399.618 220.485 399.211 221.412 398.398 222.088C397.591 222.758 396.477 223.093 395.055 223.093C394.713 223.08 394.382 223.052 394.06 223.011C393.814 223.162 393.626 223.329 393.496 223.514C393.366 223.691 393.301 223.893 393.301 224.119C393.301 224.303 393.366 224.454 393.496 224.57C393.626 224.679 393.818 224.761 394.071 224.816C394.33 224.871 394.645 224.898 395.014 224.898H396.972C398.216 224.898 399.167 225.161 399.823 225.688C400.479 226.214 400.807 226.986 400.807 228.005C400.807 229.297 400.274 230.292 399.208 230.989C398.141 231.693 396.607 232.045 394.604 232.045ZM394.696 230.353C395.537 230.353 396.244 230.271 396.819 230.107C397.393 229.943 397.827 229.707 398.121 229.399C398.415 229.099 398.562 228.74 398.562 228.323C398.562 227.954 398.469 227.67 398.285 227.472C398.1 227.273 397.823 227.137 397.454 227.062C397.085 226.986 396.627 226.949 396.08 226.949H394.296C393.852 226.949 393.459 227.017 393.117 227.154C392.775 227.297 392.508 227.502 392.317 227.769C392.133 228.036 392.04 228.357 392.04 228.733C392.04 229.252 392.269 229.652 392.727 229.933C393.192 230.213 393.848 230.353 394.696 230.353ZM395.168 221.514C395.872 221.514 396.395 221.323 396.737 220.94C397.078 220.55 397.249 220.003 397.249 219.299C397.249 218.534 397.071 217.959 396.716 217.577C396.367 217.194 395.848 217.002 395.157 217.002C394.481 217.002 393.965 217.197 393.609 217.587C393.26 217.977 393.086 218.554 393.086 219.32C393.086 220.01 393.26 220.55 393.609 220.94C393.965 221.323 394.484 221.514 395.168 221.514ZM407.744 215.434C408.756 215.434 409.624 215.642 410.348 216.059C411.073 216.476 411.63 217.067 412.02 217.833C412.409 218.599 412.604 219.515 412.604 220.581V221.873H405.027C405.054 222.974 405.348 223.821 405.908 224.416C406.476 225.011 407.269 225.308 408.287 225.308C409.012 225.308 409.661 225.24 410.236 225.103C410.817 224.959 411.415 224.751 412.03 224.478V226.436C411.463 226.703 410.885 226.897 410.297 227.021C409.709 227.144 409.005 227.205 408.185 227.205C407.071 227.205 406.09 226.99 405.242 226.559C404.401 226.122 403.741 225.472 403.263 224.611C402.791 223.75 402.555 222.68 402.555 221.401C402.555 220.13 402.771 219.05 403.201 218.161C403.632 217.272 404.237 216.596 405.016 216.131C405.796 215.666 406.705 215.434 407.744 215.434ZM407.744 217.249C406.985 217.249 406.37 217.495 405.898 217.987C405.433 218.479 405.16 219.2 405.078 220.15H410.246C410.239 219.583 410.143 219.081 409.959 218.643C409.781 218.206 409.508 217.864 409.138 217.618C408.776 217.372 408.311 217.249 407.744 217.249Z" fill="white"/>
<rect x="428" y="94" width="265" height="151" rx="7" stroke="white" stroke-width="2" stroke-dasharray="12 12"/>
<path d="M449.14 67.3608C449.14 69.0493 448.826 70.4609 448.197 71.5957C447.568 72.7236 446.655 73.5747 445.459 74.1489C444.263 74.7163 442.82 75 441.132 75H436.969V60.0088H441.583C443.135 60.0088 444.475 60.2891 445.603 60.8496C446.73 61.4033 447.602 62.2271 448.217 63.3208C448.833 64.4077 449.14 65.7544 449.14 67.3608ZM446.577 67.4326C446.577 66.2021 446.382 65.1904 445.992 64.3975C445.609 63.6045 445.042 63.0166 444.29 62.6338C443.545 62.2441 442.625 62.0493 441.532 62.0493H439.43V72.939H441.173C442.984 72.939 444.338 72.4775 445.233 71.5547C446.129 70.6318 446.577 69.2578 446.577 67.4326ZM456.784 63.4336C458.22 63.4336 459.303 63.7515 460.035 64.3872C460.773 65.0229 461.142 66.0142 461.142 67.3608V75H459.43L458.968 73.3901H458.886C458.565 73.8003 458.233 74.1387 457.892 74.4053C457.55 74.6719 457.153 74.8701 456.702 75C456.258 75.1367 455.714 75.2051 455.072 75.2051C454.395 75.2051 453.79 75.082 453.257 74.8359C452.724 74.583 452.303 74.2002 451.996 73.6875C451.688 73.1748 451.534 72.5254 451.534 71.7393C451.534 70.5703 451.968 69.6919 452.836 69.104C453.711 68.5161 455.031 68.1914 456.794 68.1299L458.763 68.0581V67.4634C458.763 66.6772 458.579 66.1167 458.21 65.7817C457.847 65.4468 457.335 65.2793 456.671 65.2793C456.104 65.2793 455.554 65.3613 455.021 65.5254C454.487 65.6895 453.968 65.8911 453.462 66.1304L452.683 64.4282C453.236 64.1343 453.865 63.895 454.569 63.7104C455.28 63.5259 456.019 63.4336 456.784 63.4336ZM458.753 69.5757L457.287 69.627C456.084 69.668 455.239 69.873 454.754 70.2422C454.269 70.6113 454.026 71.1172 454.026 71.7598C454.026 72.3203 454.193 72.7305 454.528 72.9902C454.863 73.2432 455.304 73.3696 455.851 73.3696C456.685 73.3696 457.376 73.1338 457.922 72.6621C458.476 72.1836 458.753 71.4829 458.753 70.5601V69.5757ZM468.95 73.2568C469.265 73.2568 469.576 73.2295 469.883 73.1748C470.191 73.1133 470.471 73.0415 470.724 72.9595V74.7847C470.458 74.9009 470.112 75 469.689 75.082C469.265 75.1641 468.824 75.2051 468.366 75.2051C467.723 75.2051 467.146 75.0991 466.633 74.8872C466.12 74.6685 465.713 74.2959 465.413 73.7695C465.112 73.2432 464.962 72.5151 464.962 71.5854V65.4844H463.413V64.4077L465.074 63.5566L465.864 61.1265H467.381V63.6489H470.632V65.4844H467.381V71.5547C467.381 72.1289 467.525 72.5562 467.812 72.8364C468.099 73.1167 468.479 73.2568 468.95 73.2568ZM477.692 63.4336C479.127 63.4336 480.211 63.7515 480.942 64.3872C481.68 65.0229 482.049 66.0142 482.049 67.3608V75H480.337L479.876 73.3901H479.794C479.472 73.8003 479.141 74.1387 478.799 74.4053C478.457 74.6719 478.061 74.8701 477.609 75C477.165 75.1367 476.622 75.2051 475.979 75.2051C475.302 75.2051 474.697 75.082 474.164 74.8359C473.631 74.583 473.211 74.2002 472.903 73.6875C472.595 73.1748 472.442 72.5254 472.442 71.7393C472.442 70.5703 472.876 69.6919 473.744 69.104C474.619 68.5161 475.938 68.1914 477.702 68.1299L479.671 68.0581V67.4634C479.671 66.6772 479.486 66.1167 479.117 65.7817C478.755 65.4468 478.242 65.2793 477.579 65.2793C477.011 65.2793 476.461 65.3613 475.928 65.5254C475.395 65.6895 474.875 65.8911 474.369 66.1304L473.59 64.4282C474.144 64.1343 474.773 63.895 475.477 63.7104C476.188 63.5259 476.926 63.4336 477.692 63.4336ZM479.66 69.5757L478.194 69.627C476.991 69.668 476.147 69.873 475.661 70.2422C475.176 70.6113 474.933 71.1172 474.933 71.7598C474.933 72.3203 475.101 72.7305 475.436 72.9902C475.771 73.2432 476.212 73.3696 476.758 73.3696C477.592 73.3696 478.283 73.1338 478.83 72.6621C479.383 72.1836 479.66 71.4829 479.66 70.5601V69.5757ZM488.043 59.0449V62.8901C488.043 63.3345 488.029 63.772 488.002 64.2026C487.981 64.6265 487.961 64.958 487.94 65.1973H488.043C488.35 64.7051 488.778 64.2915 489.324 63.9565C489.878 63.6147 490.586 63.4438 491.447 63.4438C492.794 63.4438 493.877 63.9395 494.697 64.9307C495.518 65.915 495.928 67.3745 495.928 69.3091C495.928 70.5942 495.74 71.6743 495.364 72.5493C494.988 73.4243 494.458 74.0874 493.775 74.5386C493.098 74.9829 492.301 75.2051 491.385 75.2051C490.524 75.2051 489.827 75.0479 489.294 74.7334C488.767 74.4121 488.354 74.0396 488.053 73.6157H487.879L487.438 75H485.633V59.0449H488.043ZM490.811 65.4023C490.128 65.4023 489.584 65.5391 489.181 65.8125C488.784 66.0859 488.497 66.4961 488.319 67.043C488.142 67.583 488.049 68.27 488.043 69.104V69.3193C488.043 70.584 488.241 71.5513 488.637 72.2212C489.041 72.8911 489.772 73.2261 490.832 73.2261C491.673 73.2261 492.319 72.8877 492.77 72.2109C493.221 71.5273 493.446 70.5498 493.446 69.2783C493.446 67.9932 493.221 67.0259 492.77 66.3765C492.325 65.7271 491.673 65.4023 490.811 65.4023ZM503.377 63.4336C504.813 63.4336 505.896 63.7515 506.628 64.3872C507.366 65.0229 507.735 66.0142 507.735 67.3608V75H506.023L505.561 73.3901H505.479C505.158 73.8003 504.826 74.1387 504.485 74.4053C504.143 74.6719 503.746 74.8701 503.295 75C502.851 75.1367 502.307 75.2051 501.665 75.2051C500.988 75.2051 500.383 75.082 499.85 74.8359C499.317 74.583 498.896 74.2002 498.589 73.6875C498.281 73.1748 498.127 72.5254 498.127 71.7393C498.127 70.5703 498.561 69.6919 499.429 69.104C500.304 68.5161 501.624 68.1914 503.387 68.1299L505.356 68.0581V67.4634C505.356 66.6772 505.172 66.1167 504.802 65.7817C504.44 65.4468 503.927 65.2793 503.264 65.2793C502.697 65.2793 502.147 65.3613 501.613 65.5254C501.08 65.6895 500.561 65.8911 500.055 66.1304L499.276 64.4282C499.829 64.1343 500.458 63.895 501.162 63.7104C501.873 63.5259 502.612 63.4336 503.377 63.4336ZM505.346 69.5757L503.88 69.627C502.676 69.668 501.832 69.873 501.347 70.2422C500.862 70.6113 500.619 71.1172 500.619 71.7598C500.619 72.3203 500.786 72.7305 501.121 72.9902C501.456 73.2432 501.897 73.3696 502.444 73.3696C503.278 73.3696 503.968 73.1338 504.515 72.6621C505.069 72.1836 505.346 71.4829 505.346 70.5601V69.5757ZM518.948 71.7598C518.948 72.5049 518.766 73.1338 518.404 73.6465C518.042 74.1592 517.512 74.5488 516.815 74.8154C516.124 75.0752 515.277 75.2051 514.272 75.2051C513.479 75.2051 512.795 75.147 512.221 75.0308C511.654 74.9214 511.117 74.7505 510.611 74.5181V72.4365C511.151 72.6895 511.756 72.9082 512.426 73.0928C513.103 73.2773 513.742 73.3696 514.343 73.3696C515.136 73.3696 515.707 73.2466 516.056 73.0005C516.405 72.7476 516.579 72.4126 516.579 71.9956C516.579 71.7495 516.507 71.5308 516.364 71.3394C516.227 71.1411 515.967 70.9395 515.584 70.7344C515.208 70.5225 514.655 70.2695 513.923 69.9756C513.205 69.6885 512.6 69.4014 512.108 69.1143C511.616 68.8271 511.243 68.4819 510.99 68.0786C510.738 67.6685 510.611 67.1455 510.611 66.5098C510.611 65.5049 511.008 64.7427 511.801 64.2231C512.6 63.6968 513.656 63.4336 514.969 63.4336C515.666 63.4336 516.323 63.5054 516.938 63.6489C517.56 63.7856 518.168 63.9873 518.763 64.2539L518.004 66.0688C517.491 65.8433 516.975 65.6587 516.456 65.5151C515.943 65.3647 515.42 65.2896 514.887 65.2896C514.265 65.2896 513.79 65.3853 513.462 65.5767C513.14 65.7681 512.98 66.0415 512.98 66.397C512.98 66.6636 513.058 66.8892 513.216 67.0737C513.373 67.2583 513.643 67.4429 514.026 67.6274C514.415 67.812 514.955 68.041 515.646 68.3145C516.323 68.5742 516.907 68.8477 517.399 69.1348C517.898 69.415 518.281 69.7603 518.548 70.1704C518.814 70.5806 518.948 71.1104 518.948 71.7598ZM526.284 63.4336C527.296 63.4336 528.164 63.6421 528.888 64.0591C529.613 64.4761 530.17 65.0674 530.56 65.833C530.949 66.5986 531.144 67.5146 531.144 68.5811V69.873H523.567C523.594 70.9736 523.888 71.8213 524.449 72.416C525.016 73.0107 525.809 73.3081 526.827 73.3081C527.552 73.3081 528.201 73.2397 528.776 73.103C529.357 72.9595 529.955 72.751 530.57 72.4775V74.436C530.003 74.7026 529.425 74.8975 528.837 75.0205C528.249 75.1436 527.545 75.2051 526.725 75.2051C525.611 75.2051 524.63 74.9897 523.782 74.5591C522.941 74.1216 522.282 73.4722 521.803 72.6108C521.331 71.7495 521.095 70.6797 521.095 69.4014C521.095 68.1299 521.311 67.0498 521.741 66.1611C522.172 65.2725 522.777 64.5957 523.556 64.1309C524.336 63.666 525.245 63.4336 526.284 63.4336ZM526.284 65.2485C525.525 65.2485 524.91 65.4946 524.438 65.9868C523.973 66.479 523.7 67.2002 523.618 68.1504H528.786C528.779 67.583 528.683 67.0806 528.499 66.6431C528.321 66.2056 528.048 65.8638 527.678 65.6177C527.316 65.3716 526.851 65.2485 526.284 65.2485ZM549.273 75L547.807 70.8369H542.075L540.608 75H538.014L543.592 59.9473H546.32L551.888 75H549.273ZM547.171 68.7246L545.745 64.623C545.691 64.4453 545.612 64.1958 545.51 63.8745C545.407 63.5464 545.305 63.2148 545.202 62.8799C545.099 62.5381 545.014 62.251 544.946 62.0186C544.877 62.2988 544.792 62.6133 544.689 62.9619C544.594 63.3037 544.498 63.625 544.402 63.9258C544.313 64.2266 544.245 64.459 544.197 64.623L542.762 68.7246H547.171Z" fill="white"/>
<rect x="428" y="357" width="265" height="151" rx="7" stroke="white" stroke-width="2" stroke-dasharray="12 12"/>
<path d="M449.14 330.361C449.14 332.049 448.826 333.461 448.197 334.596C447.568 335.724 446.655 336.575 445.459 337.149C444.263 337.716 442.82 338 441.132 338H436.969V323.009H441.583C443.135 323.009 444.475 323.289 445.603 323.85C446.73 324.403 447.602 325.227 448.217 326.321C448.833 327.408 449.14 328.754 449.14 330.361ZM446.577 330.433C446.577 329.202 446.382 328.19 445.992 327.397C445.609 326.604 445.042 326.017 444.29 325.634C443.545 325.244 442.625 325.049 441.532 325.049H439.43V335.939H441.173C442.984 335.939 444.338 335.478 445.233 334.555C446.129 333.632 446.577 332.258 446.577 330.433ZM456.784 326.434C458.22 326.434 459.303 326.751 460.035 327.387C460.773 328.023 461.142 329.014 461.142 330.361V338H459.43L458.968 336.39H458.886C458.565 336.8 458.233 337.139 457.892 337.405C457.55 337.672 457.153 337.87 456.702 338C456.258 338.137 455.714 338.205 455.072 338.205C454.395 338.205 453.79 338.082 453.257 337.836C452.724 337.583 452.303 337.2 451.996 336.688C451.688 336.175 451.534 335.525 451.534 334.739C451.534 333.57 451.968 332.692 452.836 332.104C453.711 331.516 455.031 331.191 456.794 331.13L458.763 331.058V330.463C458.763 329.677 458.579 329.117 458.21 328.782C457.847 328.447 457.335 328.279 456.671 328.279C456.104 328.279 455.554 328.361 455.021 328.525C454.487 328.689 453.968 328.891 453.462 329.13L452.683 327.428C453.236 327.134 453.865 326.895 454.569 326.71C455.28 326.526 456.019 326.434 456.784 326.434ZM458.753 332.576L457.287 332.627C456.084 332.668 455.239 332.873 454.754 333.242C454.269 333.611 454.026 334.117 454.026 334.76C454.026 335.32 454.193 335.73 454.528 335.99C454.863 336.243 455.304 336.37 455.851 336.37C456.685 336.37 457.376 336.134 457.922 335.662C458.476 335.184 458.753 334.483 458.753 333.56V332.576ZM468.95 336.257C469.265 336.257 469.576 336.229 469.883 336.175C470.191 336.113 470.471 336.042 470.724 335.959V337.785C470.458 337.901 470.112 338 469.689 338.082C469.265 338.164 468.824 338.205 468.366 338.205C467.723 338.205 467.146 338.099 466.633 337.887C466.12 337.668 465.713 337.296 465.413 336.77C465.112 336.243 464.962 335.515 464.962 334.585V328.484H463.413V327.408L465.074 326.557L465.864 324.126H467.381V326.649H470.632V328.484H467.381V334.555C467.381 335.129 467.525 335.556 467.812 335.836C468.099 336.117 468.479 336.257 468.95 336.257ZM477.692 326.434C479.127 326.434 480.211 326.751 480.942 327.387C481.68 328.023 482.049 329.014 482.049 330.361V338H480.337L479.876 336.39H479.794C479.472 336.8 479.141 337.139 478.799 337.405C478.457 337.672 478.061 337.87 477.609 338C477.165 338.137 476.622 338.205 475.979 338.205C475.302 338.205 474.697 338.082 474.164 337.836C473.631 337.583 473.211 337.2 472.903 336.688C472.595 336.175 472.442 335.525 472.442 334.739C472.442 333.57 472.876 332.692 473.744 332.104C474.619 331.516 475.938 331.191 477.702 331.13L479.671 331.058V330.463C479.671 329.677 479.486 329.117 479.117 328.782C478.755 328.447 478.242 328.279 477.579 328.279C477.011 328.279 476.461 328.361 475.928 328.525C475.395 328.689 474.875 328.891 474.369 329.13L473.59 327.428C474.144 327.134 474.773 326.895 475.477 326.71C476.188 326.526 476.926 326.434 477.692 326.434ZM479.66 332.576L478.194 332.627C476.991 332.668 476.147 332.873 475.661 333.242C475.176 333.611 474.933 334.117 474.933 334.76C474.933 335.32 475.101 335.73 475.436 335.99C475.771 336.243 476.212 336.37 476.758 336.37C477.592 336.37 478.283 336.134 478.83 335.662C479.383 335.184 479.66 334.483 479.66 333.56V332.576ZM488.043 322.045V325.89C488.043 326.334 488.029 326.772 488.002 327.203C487.981 327.626 487.961 327.958 487.94 328.197H488.043C488.35 327.705 488.778 327.292 489.324 326.957C489.878 326.615 490.586 326.444 491.447 326.444C492.794 326.444 493.877 326.939 494.697 327.931C495.518 328.915 495.928 330.375 495.928 332.309C495.928 333.594 495.74 334.674 495.364 335.549C494.988 336.424 494.458 337.087 493.775 337.539C493.098 337.983 492.301 338.205 491.385 338.205C490.524 338.205 489.827 338.048 489.294 337.733C488.767 337.412 488.354 337.04 488.053 336.616H487.879L487.438 338H485.633V322.045H488.043ZM490.811 328.402C490.128 328.402 489.584 328.539 489.181 328.812C488.784 329.086 488.497 329.496 488.319 330.043C488.142 330.583 488.049 331.27 488.043 332.104V332.319C488.043 333.584 488.241 334.551 488.637 335.221C489.041 335.891 489.772 336.226 490.832 336.226C491.673 336.226 492.319 335.888 492.77 335.211C493.221 334.527 493.446 333.55 493.446 332.278C493.446 330.993 493.221 330.026 492.77 329.376C492.325 328.727 491.673 328.402 490.811 328.402ZM503.377 326.434C504.813 326.434 505.896 326.751 506.628 327.387C507.366 328.023 507.735 329.014 507.735 330.361V338H506.023L505.561 336.39H505.479C505.158 336.8 504.826 337.139 504.485 337.405C504.143 337.672 503.746 337.87 503.295 338C502.851 338.137 502.307 338.205 501.665 338.205C500.988 338.205 500.383 338.082 499.85 337.836C499.317 337.583 498.896 337.2 498.589 336.688C498.281 336.175 498.127 335.525 498.127 334.739C498.127 333.57 498.561 332.692 499.429 332.104C500.304 331.516 501.624 331.191 503.387 331.13L505.356 331.058V330.463C505.356 329.677 505.172 329.117 504.802 328.782C504.44 328.447 503.927 328.279 503.264 328.279C502.697 328.279 502.147 328.361 501.613 328.525C501.08 328.689 500.561 328.891 500.055 329.13L499.276 327.428C499.829 327.134 500.458 326.895 501.162 326.71C501.873 326.526 502.612 326.434 503.377 326.434ZM505.346 332.576L503.88 332.627C502.676 332.668 501.832 332.873 501.347 333.242C500.862 333.611 500.619 334.117 500.619 334.76C500.619 335.32 500.786 335.73 501.121 335.99C501.456 336.243 501.897 336.37 502.444 336.37C503.278 336.37 503.968 336.134 504.515 335.662C505.069 335.184 505.346 334.483 505.346 333.56V332.576ZM518.948 334.76C518.948 335.505 518.766 336.134 518.404 336.646C518.042 337.159 517.512 337.549 516.815 337.815C516.124 338.075 515.277 338.205 514.272 338.205C513.479 338.205 512.795 338.147 512.221 338.031C511.654 337.921 511.117 337.75 510.611 337.518V335.437C511.151 335.689 511.756 335.908 512.426 336.093C513.103 336.277 513.742 336.37 514.343 336.37C515.136 336.37 515.707 336.247 516.056 336C516.405 335.748 516.579 335.413 516.579 334.996C516.579 334.75 516.507 334.531 516.364 334.339C516.227 334.141 515.967 333.939 515.584 333.734C515.208 333.522 514.655 333.27 513.923 332.976C513.205 332.688 512.6 332.401 512.108 332.114C511.616 331.827 511.243 331.482 510.99 331.079C510.738 330.668 510.611 330.146 510.611 329.51C510.611 328.505 511.008 327.743 511.801 327.223C512.6 326.697 513.656 326.434 514.969 326.434C515.666 326.434 516.323 326.505 516.938 326.649C517.56 326.786 518.168 326.987 518.763 327.254L518.004 329.069C517.491 328.843 516.975 328.659 516.456 328.515C515.943 328.365 515.42 328.29 514.887 328.29C514.265 328.29 513.79 328.385 513.462 328.577C513.14 328.768 512.98 329.042 512.98 329.397C512.98 329.664 513.058 329.889 513.216 330.074C513.373 330.258 513.643 330.443 514.026 330.627C514.415 330.812 514.955 331.041 515.646 331.314C516.323 331.574 516.907 331.848 517.399 332.135C517.898 332.415 518.281 332.76 518.548 333.17C518.814 333.581 518.948 334.11 518.948 334.76ZM526.284 326.434C527.296 326.434 528.164 326.642 528.888 327.059C529.613 327.476 530.17 328.067 530.56 328.833C530.949 329.599 531.144 330.515 531.144 331.581V332.873H523.567C523.594 333.974 523.888 334.821 524.449 335.416C525.016 336.011 525.809 336.308 526.827 336.308C527.552 336.308 528.201 336.24 528.776 336.103C529.357 335.959 529.955 335.751 530.57 335.478V337.436C530.003 337.703 529.425 337.897 528.837 338.021C528.249 338.144 527.545 338.205 526.725 338.205C525.611 338.205 524.63 337.99 523.782 337.559C522.941 337.122 522.282 336.472 521.803 335.611C521.331 334.75 521.095 333.68 521.095 332.401C521.095 331.13 521.311 330.05 521.741 329.161C522.172 328.272 522.777 327.596 523.556 327.131C524.336 326.666 525.245 326.434 526.284 326.434ZM526.284 328.249C525.525 328.249 524.91 328.495 524.438 328.987C523.973 329.479 523.7 330.2 523.618 331.15H528.786C528.779 330.583 528.683 330.081 528.499 329.643C528.321 329.206 528.048 328.864 527.678 328.618C527.316 328.372 526.851 328.249 526.284 328.249ZM539.983 323.009H544.443C546.378 323.009 547.837 323.289 548.822 323.85C549.806 324.41 550.298 325.377 550.298 326.751C550.298 327.326 550.196 327.845 549.991 328.31C549.792 328.768 549.502 329.147 549.119 329.448C548.736 329.742 548.265 329.94 547.704 330.043V330.146C548.285 330.248 548.801 330.429 549.252 330.689C549.71 330.949 550.069 331.321 550.329 331.807C550.596 332.292 550.729 332.921 550.729 333.693C550.729 334.609 550.51 335.389 550.073 336.031C549.642 336.674 549.023 337.163 548.217 337.498C547.417 337.833 546.467 338 545.366 338H539.983V323.009ZM542.444 329.192H544.802C545.916 329.192 546.689 329.011 547.119 328.648C547.55 328.286 547.765 327.756 547.765 327.059C547.765 326.348 547.509 325.835 546.996 325.521C546.491 325.207 545.684 325.049 544.577 325.049H542.444V329.192ZM542.444 331.181V335.939H545.038C546.186 335.939 546.993 335.717 547.458 335.272C547.923 334.828 548.155 334.227 548.155 333.468C548.155 333.003 548.049 332.6 547.837 332.258C547.632 331.916 547.294 331.653 546.822 331.468C546.35 331.277 545.715 331.181 544.915 331.181H542.444Z" fill="white"/>
<defs>
<clipPath id="clip0_12_1098">
<rect width="18" height="15" fill="white" transform="translate(532 109.5)"/>
</clipPath>
<clipPath id="clip1_12_1098">
<rect width="18" height="15" fill="white" transform="translate(532 372.5)"/>
</clipPath>
</defs>
</svg>
