<svg width="1686" height="120" viewBox="0 0 1686 120" fill="none" xmlns="http://www.w3.org/2000/svg">
<rect x="1460" y="17" width="226" height="103" rx="8" fill="#020202"/>
<rect x="1461" y="18" width="224" height="101" rx="7" stroke="white" stroke-opacity="0.9" stroke-width="2"/>
<path d="M1571.74 72.4189C1571.74 73.3076 1571.52 74.0732 1571.08 74.7158C1570.65 75.3584 1570.03 75.8506 1569.21 76.1924C1568.41 76.5342 1567.44 76.7051 1566.32 76.7051C1565.78 76.7051 1565.25 76.6743 1564.75 76.6128C1564.25 76.5513 1563.78 76.4624 1563.34 76.3462C1562.9 76.2231 1562.5 76.0762 1562.14 75.9053V73.5879C1562.75 73.8545 1563.43 74.0972 1564.18 74.3159C1564.93 74.5278 1565.7 74.6338 1566.48 74.6338C1567.11 74.6338 1567.64 74.5518 1568.06 74.3877C1568.48 74.2168 1568.79 73.9775 1569 73.6699C1569.2 73.3555 1569.31 72.9897 1569.31 72.5728C1569.31 72.1284 1569.19 71.7524 1568.95 71.4448C1568.71 71.1372 1568.35 70.8569 1567.86 70.604C1567.38 70.3442 1566.78 70.0674 1566.06 69.7734C1565.56 69.5752 1565.09 69.3496 1564.64 69.0967C1564.2 68.8438 1563.8 68.5464 1563.45 68.2046C1563.1 67.8628 1562.83 67.4595 1562.62 66.9946C1562.42 66.5229 1562.32 65.9692 1562.32 65.3335C1562.32 64.4858 1562.52 63.7612 1562.93 63.1597C1563.34 62.5581 1563.91 62.0967 1564.65 61.7754C1565.4 61.4541 1566.26 61.2935 1567.26 61.2935C1568.04 61.2935 1568.78 61.3755 1569.47 61.5396C1570.17 61.7036 1570.85 61.936 1571.52 62.2368L1570.74 64.2158C1570.13 63.9629 1569.53 63.7612 1568.95 63.6108C1568.37 63.4604 1567.79 63.3853 1567.18 63.3853C1566.66 63.3853 1566.22 63.4639 1565.86 63.6211C1565.5 63.7783 1565.22 64.0005 1565.03 64.2876C1564.85 64.5679 1564.75 64.9028 1564.75 65.2925C1564.75 65.73 1564.86 66.0991 1565.07 66.3999C1565.29 66.6938 1565.62 66.9639 1566.08 67.21C1566.53 67.4561 1567.12 67.7295 1567.84 68.0303C1568.67 68.3721 1569.37 68.731 1569.94 69.1069C1570.52 69.4829 1570.97 69.9341 1571.27 70.4604C1571.58 70.98 1571.74 71.6328 1571.74 72.4189ZM1583.39 64.9336C1583.39 65.6104 1583.25 66.1982 1582.98 66.6973C1582.71 67.1963 1582.33 67.6064 1581.85 67.9277C1581.38 68.2422 1580.83 68.4678 1580.21 68.6045V68.6763C1581.41 68.8267 1582.31 69.2026 1582.92 69.8042C1583.53 70.4058 1583.84 71.2021 1583.84 72.1934C1583.84 73.0615 1583.63 73.8374 1583.22 74.521C1582.8 75.1978 1582.16 75.731 1581.3 76.1206C1580.44 76.5103 1579.33 76.7051 1577.98 76.7051C1577.16 76.7051 1576.41 76.6401 1575.71 76.5103C1575.02 76.3804 1574.36 76.1719 1573.74 75.8848V73.7417C1574.38 74.0562 1575.05 74.2988 1575.77 74.4697C1576.49 74.6406 1577.17 74.7261 1577.81 74.7261C1579.06 74.7261 1579.95 74.4937 1580.49 74.0288C1581.02 73.5571 1581.29 72.9077 1581.29 72.0806C1581.29 71.5474 1581.15 71.1099 1580.87 70.7681C1580.59 70.4263 1580.17 70.1699 1579.59 69.999C1579.01 69.8281 1578.27 69.7427 1577.36 69.7427H1576.04V67.8047H1577.37C1578.24 67.8047 1578.94 67.7021 1579.46 67.4971C1579.99 67.2852 1580.37 66.9946 1580.6 66.6255C1580.84 66.2563 1580.96 65.8257 1580.96 65.3335C1580.96 64.6909 1580.75 64.1919 1580.33 63.8364C1579.92 63.4741 1579.3 63.293 1578.48 63.293C1577.97 63.293 1577.51 63.3511 1577.09 63.4673C1576.68 63.5835 1576.3 63.7305 1575.96 63.9082C1575.61 64.0859 1575.28 64.2773 1574.96 64.4824L1573.8 62.811C1574.37 62.3872 1575.05 62.0283 1575.83 61.7344C1576.62 61.4404 1577.53 61.2935 1578.58 61.2935C1580.12 61.2935 1581.3 61.625 1582.14 62.2881C1582.97 62.9443 1583.39 63.8262 1583.39 64.9336Z" fill="white"/>
<rect y="17" width="226" height="103" rx="8" fill="#020202"/>
<rect x="1" y="18" width="224" height="101" rx="7" stroke="white" stroke-opacity="0.9" stroke-width="2"/>
<path d="M102.923 61.5088V71.209C102.923 72.2549 102.701 73.1914 102.257 74.0186C101.819 74.8457 101.156 75.502 100.268 75.9873C99.3788 76.4658 98.2612 76.7051 96.9145 76.7051C94.9936 76.7051 93.5307 76.2026 92.5258 75.1978C91.5278 74.186 91.0287 72.8428 91.0287 71.168V61.5088H93.4897V70.9526C93.4897 72.2036 93.7836 73.1265 94.3715 73.7212C94.9594 74.3159 95.8378 74.6133 97.0068 74.6133C97.8134 74.6133 98.4697 74.4731 98.9755 74.1929C99.4882 73.9058 99.8642 73.4888 100.103 72.9419C100.35 72.3882 100.473 71.7217 100.473 70.9424V61.5088H102.923ZM114.351 73.2598C114.351 74.0049 114.17 74.6338 113.808 75.1465C113.445 75.6592 112.916 76.0488 112.218 76.3154C111.528 76.5752 110.68 76.7051 109.675 76.7051C108.882 76.7051 108.199 76.647 107.624 76.5308C107.057 76.4214 106.52 76.2505 106.015 76.0181V73.9365C106.555 74.1895 107.16 74.4082 107.83 74.5928C108.506 74.7773 109.145 74.8696 109.747 74.8696C110.54 74.8696 111.111 74.7466 111.459 74.5005C111.808 74.2476 111.982 73.9126 111.982 73.4956C111.982 73.2495 111.911 73.0308 111.767 72.8394C111.63 72.6411 111.371 72.4395 110.988 72.2344C110.612 72.0225 110.058 71.7695 109.327 71.4756C108.609 71.1885 108.004 70.9014 107.512 70.6143C107.02 70.3271 106.647 69.9819 106.394 69.5786C106.141 69.1685 106.015 68.6455 106.015 68.0098C106.015 67.0049 106.411 66.2427 107.204 65.7231C108.004 65.1968 109.06 64.9336 110.373 64.9336C111.07 64.9336 111.726 65.0054 112.341 65.1489C112.963 65.2856 113.572 65.4873 114.166 65.7539L113.408 67.5688C112.895 67.3433 112.379 67.1587 111.859 67.0151C111.347 66.8647 110.824 66.7896 110.291 66.7896C109.668 66.7896 109.193 66.8853 108.865 67.0767C108.544 67.2681 108.383 67.5415 108.383 67.897C108.383 68.1636 108.462 68.3892 108.619 68.5737C108.776 68.7583 109.046 68.9429 109.429 69.1274C109.819 69.312 110.359 69.541 111.049 69.8145C111.726 70.0742 112.311 70.3477 112.803 70.6348C113.302 70.915 113.685 71.2603 113.951 71.6704C114.218 72.0806 114.351 72.6104 114.351 73.2598ZM121.688 64.9336C122.699 64.9336 123.567 65.1421 124.292 65.5591C125.017 65.9761 125.574 66.5674 125.963 67.333C126.353 68.0986 126.548 69.0146 126.548 70.0811V71.373H118.97C118.998 72.4736 119.292 73.3213 119.852 73.916C120.419 74.5107 121.212 74.8081 122.231 74.8081C122.956 74.8081 123.605 74.7397 124.179 74.603C124.76 74.4595 125.358 74.251 125.974 73.9775V75.936C125.406 76.2026 124.829 76.3975 124.241 76.5205C123.653 76.6436 122.949 76.7051 122.128 76.7051C121.014 76.7051 120.033 76.4897 119.186 76.0591C118.345 75.6216 117.685 74.9722 117.207 74.1108C116.735 73.2495 116.499 72.1797 116.499 70.9014C116.499 69.6299 116.714 68.5498 117.145 67.6611C117.576 66.7725 118.181 66.0957 118.96 65.6309C119.739 65.166 120.648 64.9336 121.688 64.9336ZM121.688 66.7485C120.929 66.7485 120.313 66.9946 119.842 67.4868C119.377 67.979 119.104 68.7002 119.021 69.6504H124.189C124.183 69.083 124.087 68.5806 123.902 68.1431C123.725 67.7056 123.451 67.3638 123.082 67.1177C122.72 66.8716 122.255 66.7485 121.688 66.7485ZM135.228 64.9336C135.419 64.9336 135.628 64.9438 135.853 64.9644C136.079 64.9849 136.273 65.0122 136.438 65.0464L136.212 67.3022C136.068 67.2612 135.891 67.2305 135.679 67.21C135.474 67.1895 135.289 67.1792 135.125 67.1792C134.694 67.1792 134.284 67.251 133.895 67.3945C133.505 67.5312 133.16 67.7432 132.859 68.0303C132.558 68.3105 132.322 68.6626 132.151 69.0864C131.981 69.5103 131.895 70.0024 131.895 70.563V76.5H129.475V65.1489H131.362L131.69 67.1484H131.803C132.028 66.7451 132.309 66.376 132.644 66.041C132.979 65.7061 133.361 65.4395 133.792 65.2412C134.23 65.0361 134.708 64.9336 135.228 64.9336Z" fill="white"/>
<path d="M497.707 73.7071C498.098 73.3166 498.098 72.6834 497.707 72.2929L491.343 65.9289C490.953 65.5384 490.319 65.5384 489.929 65.9289C489.538 66.3195 489.538 66.9526 489.929 67.3431L495.586 73L489.929 78.6569C489.538 79.0474 489.538 79.6805 489.929 80.0711C490.319 80.4616 490.953 80.4616 491.343 80.0711L497.707 73.7071ZM240 73V74H497V73V72H240V73Z" fill="white"/>
<path d="M1011.71 73.7071C1012.1 73.3166 1012.1 72.6834 1011.71 72.2929L1005.34 65.9289C1004.95 65.5384 1004.32 65.5384 1003.93 65.9289C1003.54 66.3195 1003.54 66.9526 1003.93 67.3431L1009.59 73L1003.93 78.6569C1003.54 79.0474 1003.54 79.6805 1003.93 80.0711C1004.32 80.4616 1004.95 80.4616 1005.34 80.0711L1011.71 73.7071ZM751 73V74H1011V73V72H751V73Z" fill="white"/>
<path d="M1443.71 73.7071C1444.1 73.3166 1444.1 72.6834 1443.71 72.2929L1437.34 65.9289C1436.95 65.5384 1436.32 65.5384 1435.93 65.9289C1435.54 66.3195 1435.54 66.9526 1435.93 67.3431L1441.59 73L1435.93 78.6569C1435.54 79.0474 1435.54 79.6805 1435.93 80.0711C1436.32 80.4616 1436.95 80.4616 1437.34 80.0711L1443.71 73.7071ZM1268 73V74H1443V73V72H1268V73Z" fill="white"/>
<rect width="193" height="40" transform="translate(784 53)" fill="#020202"/>
<path d="M800.852 67.8853C800.134 67.8853 799.491 68.0151 798.924 68.2749C798.363 68.5347 797.888 68.9106 797.499 69.4028C797.109 69.8882 796.812 70.4795 796.607 71.1768C796.402 71.8672 796.299 72.6465 796.299 73.5146C796.299 74.6768 796.463 75.6782 796.791 76.519C797.119 77.353 797.618 77.9956 798.288 78.4468C798.958 78.8911 799.806 79.1133 800.831 79.1133C801.467 79.1133 802.086 79.0518 802.687 78.9287C803.289 78.8057 803.911 78.6382 804.553 78.4263V80.5181C803.945 80.7573 803.33 80.9316 802.708 81.041C802.086 81.1504 801.368 81.2051 800.554 81.2051C799.023 81.2051 797.752 80.8872 796.74 80.2515C795.735 79.6157 794.983 78.7202 794.484 77.5649C793.992 76.4097 793.746 75.0562 793.746 73.5044C793.746 72.3696 793.903 71.3306 794.217 70.3872C794.532 69.4438 794.99 68.6304 795.592 67.9468C796.193 67.2563 796.935 66.7266 797.817 66.3574C798.705 65.9814 799.72 65.7935 800.862 65.7935C801.614 65.7935 802.352 65.8789 803.077 66.0498C803.808 66.2139 804.485 66.4497 805.107 66.7573L804.246 68.7876C803.726 68.5415 803.183 68.3296 802.615 68.1519C802.048 67.9741 801.46 67.8853 800.852 67.8853ZM813.489 69.4336C813.681 69.4336 813.889 69.4438 814.115 69.4644C814.341 69.4849 814.535 69.5122 814.699 69.5464L814.474 71.8022C814.33 71.7612 814.153 71.7305 813.941 71.71C813.736 71.6895 813.551 71.6792 813.387 71.6792C812.956 71.6792 812.546 71.751 812.156 71.8945C811.767 72.0312 811.422 72.2432 811.121 72.5303C810.82 72.8105 810.584 73.1626 810.413 73.5864C810.242 74.0103 810.157 74.5024 810.157 75.063V81H807.737V69.6489H809.624L809.952 71.6484H810.065C810.29 71.2451 810.571 70.876 810.906 70.541C811.24 70.2061 811.623 69.9395 812.054 69.7412C812.491 69.5361 812.97 69.4336 813.489 69.4336ZM821.533 69.4336C822.545 69.4336 823.413 69.6421 824.138 70.0591C824.863 70.4761 825.42 71.0674 825.809 71.833C826.199 72.5986 826.394 73.5146 826.394 74.5811V75.873H818.816C818.844 76.9736 819.137 77.8213 819.698 78.416C820.265 79.0107 821.058 79.3081 822.077 79.3081C822.802 79.3081 823.451 79.2397 824.025 79.103C824.606 78.9595 825.204 78.751 825.82 78.4775V80.436C825.252 80.7026 824.675 80.8975 824.087 81.0205C823.499 81.1436 822.795 81.2051 821.974 81.2051C820.86 81.2051 819.879 80.9897 819.032 80.5591C818.191 80.1216 817.531 79.4722 817.053 78.6108C816.581 77.7495 816.345 76.6797 816.345 75.4014C816.345 74.1299 816.56 73.0498 816.991 72.1611C817.422 71.2725 818.027 70.5957 818.806 70.1309C819.585 69.666 820.494 69.4336 821.533 69.4336ZM821.533 71.2485C820.775 71.2485 820.159 71.4946 819.688 71.9868C819.223 72.479 818.949 73.2002 818.867 74.1504H824.035C824.029 73.583 823.933 73.0806 823.748 72.6431C823.571 72.2056 823.297 71.8638 822.928 71.6177C822.566 71.3716 822.101 71.2485 821.533 71.2485ZM833.771 69.4336C835.207 69.4336 836.29 69.7515 837.022 70.3872C837.76 71.0229 838.129 72.0142 838.129 73.3608V81H836.417L835.955 79.3901H835.873C835.552 79.8003 835.221 80.1387 834.879 80.4053C834.537 80.6719 834.14 80.8701 833.689 81C833.245 81.1367 832.701 81.2051 832.059 81.2051C831.382 81.2051 830.777 81.082 830.244 80.8359C829.711 80.583 829.29 80.2002 828.983 79.6875C828.675 79.1748 828.521 78.5254 828.521 77.7393C828.521 76.5703 828.955 75.6919 829.824 75.104C830.699 74.5161 832.018 74.1914 833.782 74.1299L835.75 74.0581V73.4634C835.75 72.6772 835.566 72.1167 835.197 71.7817C834.834 71.4468 834.322 71.2793 833.659 71.2793C833.091 71.2793 832.541 71.3613 832.008 71.5254C831.474 71.6895 830.955 71.8911 830.449 72.1304L829.67 70.4282C830.223 70.1343 830.852 69.895 831.556 69.7104C832.267 69.5259 833.006 69.4336 833.771 69.4336ZM835.74 75.5757L834.274 75.627C833.071 75.668 832.226 75.873 831.741 76.2422C831.256 76.6113 831.013 77.1172 831.013 77.7598C831.013 78.3203 831.18 78.7305 831.515 78.9902C831.85 79.2432 832.291 79.3696 832.838 79.3696C833.672 79.3696 834.363 79.1338 834.909 78.6621C835.463 78.1836 835.74 77.4829 835.74 76.5601V75.5757ZM845.937 79.2568C846.252 79.2568 846.563 79.2295 846.87 79.1748C847.178 79.1133 847.458 79.0415 847.711 78.9595V80.7847C847.445 80.9009 847.099 81 846.676 81.082C846.252 81.1641 845.811 81.2051 845.353 81.2051C844.71 81.2051 844.133 81.0991 843.62 80.8872C843.107 80.6685 842.701 80.2959 842.4 79.7695C842.099 79.2432 841.949 78.5151 841.949 77.5854V71.4844H840.4V70.4077L842.061 69.5566L842.851 67.1265H844.369V69.6489H847.619V71.4844H844.369V77.5547C844.369 78.1289 844.512 78.5562 844.799 78.8364C845.086 79.1167 845.466 79.2568 845.937 79.2568ZM854.75 69.4336C855.762 69.4336 856.63 69.6421 857.355 70.0591C858.079 70.4761 858.637 71.0674 859.026 71.833C859.416 72.5986 859.611 73.5146 859.611 74.5811V75.873H852.033C852.06 76.9736 852.354 77.8213 852.915 78.416C853.482 79.0107 854.275 79.3081 855.294 79.3081C856.018 79.3081 856.668 79.2397 857.242 79.103C857.823 78.9595 858.421 78.751 859.037 78.4775V80.436C858.469 80.7026 857.892 80.8975 857.304 81.0205C856.716 81.1436 856.012 81.2051 855.191 81.2051C854.077 81.2051 853.096 80.9897 852.248 80.5591C851.408 80.1216 850.748 79.4722 850.269 78.6108C849.798 77.7495 849.562 76.6797 849.562 75.4014C849.562 74.1299 849.777 73.0498 850.208 72.1611C850.639 71.2725 851.244 70.5957 852.023 70.1309C852.802 69.666 853.711 69.4336 854.75 69.4336ZM854.75 71.2485C853.992 71.2485 853.376 71.4946 852.905 71.9868C852.44 72.479 852.166 73.2002 852.084 74.1504H857.252C857.246 73.583 857.15 73.0806 856.965 72.6431C856.788 72.2056 856.514 71.8638 856.145 71.6177C855.783 71.3716 855.318 71.2485 854.75 71.2485ZM874.837 67.8853C874.12 67.8853 873.477 68.0151 872.91 68.2749C872.349 68.5347 871.874 68.9106 871.484 69.4028C871.095 69.8882 870.797 70.4795 870.592 71.1768C870.387 71.8672 870.285 72.6465 870.285 73.5146C870.285 74.6768 870.449 75.6782 870.777 76.519C871.105 77.353 871.604 77.9956 872.274 78.4468C872.944 78.8911 873.791 79.1133 874.817 79.1133C875.453 79.1133 876.071 79.0518 876.673 78.9287C877.274 78.8057 877.896 78.6382 878.539 78.4263V80.5181C877.931 80.7573 877.315 80.9316 876.693 81.041C876.071 81.1504 875.354 81.2051 874.54 81.2051C873.009 81.2051 871.737 80.8872 870.726 80.2515C869.721 79.6157 868.969 78.7202 868.47 77.5649C867.978 76.4097 867.731 75.0562 867.731 73.5044C867.731 72.3696 867.889 71.3306 868.203 70.3872C868.518 69.4438 868.976 68.6304 869.577 67.9468C870.179 67.2563 870.92 66.7266 871.802 66.3574C872.691 65.9814 873.706 65.7935 874.848 65.7935C875.6 65.7935 876.338 65.8789 877.062 66.0498C877.794 66.2139 878.471 66.4497 879.093 66.7573L878.231 68.7876C877.712 68.5415 877.168 68.3296 876.601 68.1519C876.034 67.9741 875.446 67.8853 874.837 67.8853ZM891.772 75.2988C891.772 76.2422 891.648 77.0796 891.402 77.811C891.156 78.5425 890.797 79.1611 890.326 79.667C889.854 80.166 889.287 80.5488 888.624 80.8154C887.96 81.0752 887.212 81.2051 886.378 81.2051C885.599 81.2051 884.884 81.0752 884.235 80.8154C883.585 80.5488 883.022 80.166 882.543 79.667C882.071 79.1611 881.706 78.5425 881.446 77.811C881.186 77.0796 881.056 76.2422 881.056 75.2988C881.056 74.0479 881.272 72.9883 881.702 72.1201C882.14 71.2451 882.762 70.5786 883.568 70.1206C884.375 69.6626 885.335 69.4336 886.45 69.4336C887.496 69.4336 888.418 69.6626 889.218 70.1206C890.018 70.5786 890.644 71.2451 891.095 72.1201C891.546 72.9951 891.772 74.0547 891.772 75.2988ZM883.538 75.2988C883.538 76.126 883.637 76.8335 883.835 77.4214C884.04 78.0093 884.355 78.4604 884.778 78.7749C885.202 79.0825 885.749 79.2363 886.419 79.2363C887.089 79.2363 887.636 79.0825 888.06 78.7749C888.483 78.4604 888.794 78.0093 888.993 77.4214C889.191 76.8335 889.29 76.126 889.29 75.2988C889.29 74.4717 889.191 73.771 888.993 73.1968C888.794 72.6157 888.483 72.1748 888.06 71.874C887.636 71.5664 887.085 71.4126 886.409 71.4126C885.411 71.4126 884.683 71.7476 884.225 72.4175C883.767 73.0874 883.538 74.0479 883.538 75.2988ZM900.667 69.4336C901.945 69.4336 902.94 69.7651 903.65 70.4282C904.368 71.0845 904.727 72.1406 904.727 73.5967V81H902.317V74.0479C902.317 73.166 902.136 72.5063 901.774 72.0688C901.412 71.6245 900.851 71.4023 900.092 71.4023C898.992 71.4023 898.226 71.7407 897.795 72.4175C897.372 73.0942 897.16 74.0752 897.16 75.3604V81H894.75V69.6489H896.627L896.965 71.187H897.098C897.344 70.7905 897.648 70.4658 898.011 70.2129C898.38 69.9531 898.79 69.7583 899.241 69.6284C899.699 69.4985 900.174 69.4336 900.667 69.4336ZM912.535 79.2568C912.85 79.2568 913.161 79.2295 913.468 79.1748C913.776 79.1133 914.056 79.0415 914.309 78.9595V80.7847C914.043 80.9009 913.697 81 913.274 81.082C912.85 81.1641 912.409 81.2051 911.951 81.2051C911.308 81.2051 910.731 81.0991 910.218 80.8872C909.705 80.6685 909.298 80.2959 908.998 79.7695C908.697 79.2432 908.546 78.5151 908.546 77.5854V71.4844H906.998V70.4077L908.659 69.5566L909.449 67.1265H910.966V69.6489H914.217V71.4844H910.966V77.5547C910.966 78.1289 911.11 78.5562 911.397 78.8364C911.684 79.1167 912.064 79.2568 912.535 79.2568ZM921.277 69.4336C922.712 69.4336 923.796 69.7515 924.527 70.3872C925.265 71.0229 925.634 72.0142 925.634 73.3608V81H923.922L923.461 79.3901H923.379C923.057 79.8003 922.726 80.1387 922.384 80.4053C922.042 80.6719 921.646 80.8701 921.194 81C920.75 81.1367 920.207 81.2051 919.564 81.2051C918.887 81.2051 918.282 81.082 917.749 80.8359C917.216 80.583 916.796 80.2002 916.488 79.6875C916.18 79.1748 916.027 78.5254 916.027 77.7393C916.027 76.5703 916.461 75.6919 917.329 75.104C918.204 74.5161 919.523 74.1914 921.287 74.1299L923.256 74.0581V73.4634C923.256 72.6772 923.071 72.1167 922.702 71.7817C922.339 71.4468 921.827 71.2793 921.164 71.2793C920.596 71.2793 920.046 71.3613 919.513 71.5254C918.98 71.6895 918.46 71.8911 917.954 72.1304L917.175 70.4282C917.729 70.1343 918.358 69.895 919.062 69.7104C919.773 69.5259 920.511 69.4336 921.277 69.4336ZM923.245 75.5757L921.779 75.627C920.576 75.668 919.732 75.873 919.246 76.2422C918.761 76.6113 918.518 77.1172 918.518 77.7598C918.518 78.3203 918.686 78.7305 919.021 78.9902C919.356 79.2432 919.797 79.3696 920.343 79.3696C921.177 79.3696 921.868 79.1338 922.415 78.6621C922.968 78.1836 923.245 77.4829 923.245 76.5601V75.5757ZM931.628 69.6489V81H929.218V69.6489H931.628ZM930.438 65.3013C930.807 65.3013 931.125 65.4004 931.392 65.5986C931.665 65.7969 931.802 66.1387 931.802 66.624C931.802 67.1025 931.665 67.4443 931.392 67.6494C931.125 67.8477 930.807 67.9468 930.438 67.9468C930.055 67.9468 929.731 67.8477 929.464 67.6494C929.204 67.4443 929.074 67.1025 929.074 66.624C929.074 66.1387 929.204 65.7969 929.464 65.5986C929.731 65.4004 930.055 65.3013 930.438 65.3013ZM941.21 69.4336C942.488 69.4336 943.483 69.7651 944.194 70.4282C944.911 71.0845 945.27 72.1406 945.27 73.5967V81H942.861V74.0479C942.861 73.166 942.679 72.5063 942.317 72.0688C941.955 71.6245 941.394 71.4023 940.635 71.4023C939.535 71.4023 938.769 71.7407 938.339 72.4175C937.915 73.0942 937.703 74.0752 937.703 75.3604V81H935.293V69.6489H937.17L937.508 71.187H937.641C937.887 70.7905 938.192 70.4658 938.554 70.2129C938.923 69.9531 939.333 69.7583 939.784 69.6284C940.242 69.4985 940.717 69.4336 941.21 69.4336ZM953.376 69.4336C954.387 69.4336 955.256 69.6421 955.98 70.0591C956.705 70.4761 957.262 71.0674 957.652 71.833C958.041 72.5986 958.236 73.5146 958.236 74.5811V75.873H950.658C950.686 76.9736 950.98 77.8213 951.54 78.416C952.108 79.0107 952.901 79.3081 953.919 79.3081C954.644 79.3081 955.293 79.2397 955.867 79.103C956.449 78.9595 957.047 78.751 957.662 78.4775V80.436C957.094 80.7026 956.517 80.8975 955.929 81.0205C955.341 81.1436 954.637 81.2051 953.817 81.2051C952.702 81.2051 951.721 80.9897 950.874 80.5591C950.033 80.1216 949.373 79.4722 948.895 78.6108C948.423 77.7495 948.187 76.6797 948.187 75.4014C948.187 74.1299 948.403 73.0498 948.833 72.1611C949.264 71.2725 949.869 70.5957 950.648 70.1309C951.428 69.666 952.337 69.4336 953.376 69.4336ZM953.376 71.2485C952.617 71.2485 952.002 71.4946 951.53 71.9868C951.065 72.479 950.792 73.2002 950.71 74.1504H955.878C955.871 73.583 955.775 73.0806 955.591 72.6431C955.413 72.2056 955.139 71.8638 954.77 71.6177C954.408 71.3716 953.943 71.2485 953.376 71.2485ZM966.916 69.4336C967.107 69.4336 967.316 69.4438 967.541 69.4644C967.767 69.4849 967.962 69.5122 968.126 69.5464L967.9 71.8022C967.757 71.7612 967.579 71.7305 967.367 71.71C967.162 71.6895 966.977 71.6792 966.813 71.6792C966.383 71.6792 965.972 71.751 965.583 71.8945C965.193 72.0312 964.848 72.2432 964.547 72.5303C964.246 72.8105 964.011 73.1626 963.84 73.5864C963.669 74.0103 963.583 74.5024 963.583 75.063V81H961.163V69.6489H963.05L963.378 71.6484H963.491C963.717 71.2451 963.997 70.876 964.332 70.541C964.667 70.2061 965.05 69.9395 965.48 69.7412C965.918 69.5361 966.396 69.4336 966.916 69.4336Z" fill="white"/>
<rect width="104" height="40" transform="translate(1301 53)" fill="#020202"/>
<path d="M1320.48 81L1319.01 76.8369H1313.28L1311.81 81H1309.22L1314.79 65.9473H1317.52L1323.09 81H1320.48ZM1318.37 74.7246L1316.95 70.623C1316.89 70.4453 1316.81 70.1958 1316.71 69.8745C1316.61 69.5464 1316.51 69.2148 1316.4 68.8799C1316.3 68.5381 1316.22 68.251 1316.15 68.0186C1316.08 68.2988 1315.99 68.6133 1315.89 68.9619C1315.8 69.3037 1315.7 69.625 1315.6 69.9258C1315.52 70.2266 1315.45 70.459 1315.4 70.623L1313.96 74.7246H1318.37ZM1330.79 69.4336C1330.98 69.4336 1331.19 69.4438 1331.41 69.4644C1331.64 69.4849 1331.83 69.5122 1332 69.5464L1331.77 71.8022C1331.63 71.7612 1331.45 71.7305 1331.24 71.71C1331.03 71.6895 1330.85 71.6792 1330.68 71.6792C1330.25 71.6792 1329.84 71.751 1329.45 71.8945C1329.06 72.0312 1328.72 72.2432 1328.42 72.5303C1328.12 72.8105 1327.88 73.1626 1327.71 73.5864C1327.54 74.0103 1327.45 74.5024 1327.45 75.063V81H1325.03V69.6489H1326.92L1327.25 71.6484H1327.36C1327.59 71.2451 1327.87 70.876 1328.2 70.541C1328.54 70.2061 1328.92 69.9395 1329.35 69.7412C1329.79 69.5361 1330.27 69.4336 1330.79 69.4336ZM1338.53 79.2568C1338.85 79.2568 1339.16 79.2295 1339.47 79.1748C1339.77 79.1133 1340.05 79.0415 1340.31 78.9595V80.7847C1340.04 80.9009 1339.69 81 1339.27 81.082C1338.85 81.1641 1338.41 81.2051 1337.95 81.2051C1337.31 81.2051 1336.73 81.0991 1336.21 80.8872C1335.7 80.6685 1335.3 80.2959 1334.99 79.7695C1334.69 79.2432 1334.54 78.5151 1334.54 77.5854V71.4844H1333V70.4077L1334.66 69.5566L1335.45 67.1265H1336.96V69.6489H1340.21V71.4844H1336.96V77.5547C1336.96 78.1289 1337.11 78.5562 1337.39 78.8364C1337.68 79.1167 1338.06 79.2568 1338.53 79.2568ZM1345.23 69.6489V81H1342.82V69.6489H1345.23ZM1344.04 65.3013C1344.41 65.3013 1344.73 65.4004 1345 65.5986C1345.27 65.7969 1345.41 66.1387 1345.41 66.624C1345.41 67.1025 1345.27 67.4443 1345 67.6494C1344.73 67.8477 1344.41 67.9468 1344.04 67.9468C1343.66 67.9468 1343.34 67.8477 1343.07 67.6494C1342.81 67.4443 1342.68 67.1025 1342.68 66.624C1342.68 66.1387 1342.81 65.7969 1343.07 65.5986C1343.34 65.4004 1343.66 65.3013 1344.04 65.3013ZM1354.57 71.4844H1351.81V81H1349.4V71.4844H1347.54V70.3257L1349.4 69.6182V68.8286C1349.4 67.8647 1349.55 67.0991 1349.85 66.5317C1350.16 65.9644 1350.6 65.5576 1351.16 65.3115C1351.74 65.0586 1352.42 64.9321 1353.22 64.9321C1353.73 64.9321 1354.21 64.9766 1354.64 65.0654C1355.07 65.1475 1355.43 65.2432 1355.73 65.3525L1355.1 67.1777C1354.87 67.1025 1354.61 67.0342 1354.32 66.9727C1354.04 66.9043 1353.73 66.8701 1353.4 66.8701C1352.85 66.8701 1352.45 67.041 1352.19 67.3828C1351.94 67.7246 1351.81 68.2236 1351.81 68.8799V69.6489H1354.57V71.4844ZM1361.17 69.4336C1362.6 69.4336 1363.69 69.7515 1364.42 70.3872C1365.16 71.0229 1365.52 72.0142 1365.52 73.3608V81H1363.81L1363.35 79.3901H1363.27C1362.95 79.8003 1362.62 80.1387 1362.27 80.4053C1361.93 80.6719 1361.54 80.8701 1361.08 81C1360.64 81.1367 1360.1 81.2051 1359.45 81.2051C1358.78 81.2051 1358.17 81.082 1357.64 80.8359C1357.11 80.583 1356.69 80.2002 1356.38 79.6875C1356.07 79.1748 1355.92 78.5254 1355.92 77.7393C1355.92 76.5703 1356.35 75.6919 1357.22 75.104C1358.09 74.5161 1359.41 74.1914 1361.18 74.1299L1363.15 74.0581V73.4634C1363.15 72.6772 1362.96 72.1167 1362.59 71.7817C1362.23 71.4468 1361.72 71.2793 1361.05 71.2793C1360.49 71.2793 1359.94 71.3613 1359.4 71.5254C1358.87 71.6895 1358.35 71.8911 1357.84 72.1304L1357.07 70.4282C1357.62 70.1343 1358.25 69.895 1358.95 69.7104C1359.66 69.5259 1360.4 69.4336 1361.17 69.4336ZM1363.14 75.5757L1361.67 75.627C1360.47 75.668 1359.62 75.873 1359.14 76.2422C1358.65 76.6113 1358.41 77.1172 1358.41 77.7598C1358.41 78.3203 1358.58 78.7305 1358.91 78.9902C1359.25 79.2432 1359.69 79.3696 1360.23 79.3696C1361.07 79.3696 1361.76 79.1338 1362.31 78.6621C1362.86 78.1836 1363.14 77.4829 1363.14 76.5601V75.5757ZM1373.68 81.2051C1372.61 81.2051 1371.68 80.9966 1370.89 80.5796C1370.11 80.1626 1369.5 79.5234 1369.08 78.6621C1368.65 77.8008 1368.44 76.707 1368.44 75.3809C1368.44 74 1368.67 72.8721 1369.14 71.9971C1369.6 71.1221 1370.25 70.4761 1371.07 70.0591C1371.89 69.6421 1372.84 69.4336 1373.91 69.4336C1374.58 69.4336 1375.2 69.502 1375.74 69.6387C1376.3 69.7686 1376.76 69.9292 1377.15 70.1206L1376.43 72.0483C1376.01 71.8774 1375.59 71.7339 1375.15 71.6177C1374.71 71.5015 1374.29 71.4434 1373.89 71.4434C1373.22 71.4434 1372.67 71.5903 1372.23 71.8843C1371.79 72.1782 1371.46 72.6157 1371.24 73.1968C1371.03 73.7778 1370.92 74.499 1370.92 75.3604C1370.92 76.1943 1371.03 76.8984 1371.25 77.4727C1371.47 78.04 1371.79 78.4707 1372.23 78.7646C1372.66 79.0518 1373.19 79.1953 1373.82 79.1953C1374.44 79.1953 1374.99 79.1201 1375.49 78.9697C1375.98 78.8193 1376.44 78.6245 1376.88 78.3853V80.4771C1376.45 80.7231 1375.99 80.9043 1375.5 81.0205C1375 81.1436 1374.4 81.2051 1373.68 81.2051ZM1383.98 79.2568C1384.3 79.2568 1384.61 79.2295 1384.91 79.1748C1385.22 79.1133 1385.5 79.0415 1385.76 78.9595V80.7847C1385.49 80.9009 1385.14 81 1384.72 81.082C1384.3 81.1641 1383.86 81.2051 1383.4 81.2051C1382.75 81.2051 1382.18 81.0991 1381.66 80.8872C1381.15 80.6685 1380.74 80.2959 1380.44 79.7695C1380.14 79.2432 1379.99 78.5151 1379.99 77.5854V71.4844H1378.44V70.4077L1380.11 69.5566L1380.9 67.1265H1382.41V69.6489H1385.66V71.4844H1382.41V77.5547C1382.41 78.1289 1382.56 78.5562 1382.84 78.8364C1383.13 79.1167 1383.51 79.2568 1383.98 79.2568ZM1395.9 77.7598C1395.9 78.5049 1395.72 79.1338 1395.36 79.6465C1395 80.1592 1394.47 80.5488 1393.77 80.8154C1393.08 81.0752 1392.23 81.2051 1391.23 81.2051C1390.43 81.2051 1389.75 81.147 1389.17 81.0308C1388.61 80.9214 1388.07 80.7505 1387.57 80.5181V78.4365C1388.11 78.6895 1388.71 78.9082 1389.38 79.0928C1390.06 79.2773 1390.7 79.3696 1391.3 79.3696C1392.09 79.3696 1392.66 79.2466 1393.01 79.0005C1393.36 78.7476 1393.53 78.4126 1393.53 77.9956C1393.53 77.7495 1393.46 77.5308 1393.32 77.3394C1393.18 77.1411 1392.92 76.9395 1392.54 76.7344C1392.16 76.5225 1391.61 76.2695 1390.88 75.9756C1390.16 75.6885 1389.55 75.4014 1389.06 75.1143C1388.57 74.8271 1388.2 74.4819 1387.94 74.0786C1387.69 73.6685 1387.57 73.1455 1387.57 72.5098C1387.57 71.5049 1387.96 70.7427 1388.75 70.2231C1389.55 69.6968 1390.61 69.4336 1391.92 69.4336C1392.62 69.4336 1393.28 69.5054 1393.89 69.6489C1394.51 69.7856 1395.12 69.9873 1395.72 70.2539L1394.96 72.0688C1394.45 71.8433 1393.93 71.6587 1393.41 71.5151C1392.9 71.3647 1392.37 71.2896 1391.84 71.2896C1391.22 71.2896 1390.74 71.3853 1390.42 71.5767C1390.09 71.7681 1389.93 72.0415 1389.93 72.397C1389.93 72.6636 1390.01 72.8892 1390.17 73.0737C1390.33 73.2583 1390.6 73.4429 1390.98 73.6274C1391.37 73.812 1391.91 74.041 1392.6 74.3145C1393.28 74.5742 1393.86 74.8477 1394.35 75.1348C1394.85 75.415 1395.24 75.7603 1395.5 76.1704C1395.77 76.5806 1395.9 77.1104 1395.9 77.7598Z" fill="white"/>
<rect width="131" height="40" transform="translate(303 53)" fill="#020202"/>
<path d="M321.848 76.9189C321.848 77.8076 321.63 78.5732 321.192 79.2158C320.762 79.8584 320.139 80.3506 319.326 80.6924C318.519 81.0342 317.555 81.2051 316.434 81.2051C315.887 81.2051 315.365 81.1743 314.866 81.1128C314.366 81.0513 313.895 80.9624 313.45 80.8462C313.013 80.7231 312.613 80.5762 312.251 80.4053V78.0879C312.859 78.3545 313.539 78.5972 314.291 78.8159C315.043 79.0278 315.809 79.1338 316.588 79.1338C317.224 79.1338 317.75 79.0518 318.167 78.8877C318.591 78.7168 318.906 78.4775 319.111 78.1699C319.316 77.8555 319.418 77.4897 319.418 77.0728C319.418 76.6284 319.299 76.2524 319.059 75.9448C318.82 75.6372 318.458 75.3569 317.972 75.104C317.494 74.8442 316.892 74.5674 316.168 74.2734C315.676 74.0752 315.204 73.8496 314.753 73.5967C314.308 73.3438 313.912 73.0464 313.563 72.7046C313.215 72.3628 312.938 71.9595 312.733 71.4946C312.534 71.0229 312.435 70.4692 312.435 69.8335C312.435 68.9858 312.637 68.2612 313.04 67.6597C313.45 67.0581 314.025 66.5967 314.763 66.2754C315.508 65.9541 316.376 65.7935 317.367 65.7935C318.154 65.7935 318.892 65.8755 319.582 66.0396C320.28 66.2036 320.963 66.436 321.633 66.7368L320.854 68.7158C320.239 68.4629 319.64 68.2612 319.059 68.1108C318.485 67.9604 317.897 67.8853 317.296 67.8853C316.776 67.8853 316.335 67.9639 315.973 68.1211C315.611 68.2783 315.334 68.5005 315.142 68.7876C314.958 69.0679 314.866 69.4028 314.866 69.7925C314.866 70.23 314.971 70.5991 315.183 70.8999C315.402 71.1938 315.737 71.4639 316.188 71.71C316.646 71.9561 317.234 72.2295 317.952 72.5303C318.779 72.8721 319.48 73.231 320.054 73.6069C320.635 73.9829 321.079 74.4341 321.387 74.9604C321.695 75.48 321.848 76.1328 321.848 76.9189ZM328.929 79.2568C329.243 79.2568 329.554 79.2295 329.862 79.1748C330.169 79.1133 330.45 79.0415 330.702 78.9595V80.7847C330.436 80.9009 330.091 81 329.667 81.082C329.243 81.1641 328.802 81.2051 328.344 81.2051C327.701 81.2051 327.124 81.0991 326.611 80.8872C326.098 80.6685 325.692 80.2959 325.391 79.7695C325.09 79.2432 324.94 78.5151 324.94 77.5854V71.4844H323.391V70.4077L325.053 69.5566L325.842 67.1265H327.36V69.6489H330.61V71.4844H327.36V77.5547C327.36 78.1289 327.503 78.5562 327.79 78.8364C328.077 79.1167 328.457 79.2568 328.929 79.2568ZM337.67 69.4336C339.105 69.4336 340.189 69.7515 340.92 70.3872C341.659 71.0229 342.028 72.0142 342.028 73.3608V81H340.315L339.854 79.3901H339.772C339.451 79.8003 339.119 80.1387 338.777 80.4053C338.435 80.6719 338.039 80.8701 337.588 81C337.143 81.1367 336.6 81.2051 335.957 81.2051C335.281 81.2051 334.676 81.082 334.142 80.8359C333.609 80.583 333.189 80.2002 332.881 79.6875C332.574 79.1748 332.42 78.5254 332.42 77.7393C332.42 76.5703 332.854 75.6919 333.722 75.104C334.597 74.5161 335.916 74.1914 337.68 74.1299L339.649 74.0581V73.4634C339.649 72.6772 339.464 72.1167 339.095 71.7817C338.733 71.4468 338.22 71.2793 337.557 71.2793C336.99 71.2793 336.439 71.3613 335.906 71.5254C335.373 71.6895 334.853 71.8911 334.348 72.1304L333.568 70.4282C334.122 70.1343 334.751 69.895 335.455 69.7104C336.166 69.5259 336.904 69.4336 337.67 69.4336ZM339.639 75.5757L338.172 75.627C336.969 75.668 336.125 75.873 335.64 76.2422C335.154 76.6113 334.911 77.1172 334.911 77.7598C334.911 78.3203 335.079 78.7305 335.414 78.9902C335.749 79.2432 336.19 79.3696 336.737 79.3696C337.571 79.3696 338.261 79.1338 338.808 78.6621C339.362 78.1836 339.639 77.4829 339.639 76.5601V75.5757ZM351.364 69.4336C351.555 69.4336 351.764 69.4438 351.989 69.4644C352.215 69.4849 352.41 69.5122 352.574 69.5464L352.348 71.8022C352.204 71.7612 352.027 71.7305 351.815 71.71C351.61 71.6895 351.425 71.6792 351.261 71.6792C350.83 71.6792 350.42 71.751 350.031 71.8945C349.641 72.0312 349.296 72.2432 348.995 72.5303C348.694 72.8105 348.458 73.1626 348.288 73.5864C348.117 74.0103 348.031 74.5024 348.031 75.063V81H345.611V69.6489H347.498L347.826 71.6484H347.939C348.164 71.2451 348.445 70.876 348.78 70.541C349.115 70.2061 349.497 69.9395 349.928 69.7412C350.366 69.5361 350.844 69.4336 351.364 69.4336ZM359.11 79.2568C359.425 79.2568 359.736 79.2295 360.043 79.1748C360.351 79.1133 360.631 79.0415 360.884 78.9595V80.7847C360.618 80.9009 360.272 81 359.849 81.082C359.425 81.1641 358.984 81.2051 358.526 81.2051C357.883 81.2051 357.306 81.0991 356.793 80.8872C356.28 80.6685 355.873 80.2959 355.573 79.7695C355.272 79.2432 355.122 78.5151 355.122 77.5854V71.4844H353.573V70.4077L355.234 69.5566L356.024 67.1265H357.541V69.6489H360.792V71.4844H357.541V77.5547C357.541 78.1289 357.685 78.5562 357.972 78.8364C358.259 79.1167 358.639 79.2568 359.11 79.2568ZM375.701 67.8853C374.983 67.8853 374.34 68.0151 373.773 68.2749C373.212 68.5347 372.737 68.9106 372.348 69.4028C371.958 69.8882 371.661 70.4795 371.456 71.1768C371.251 71.8672 371.148 72.6465 371.148 73.5146C371.148 74.6768 371.312 75.6782 371.64 76.519C371.968 77.353 372.467 77.9956 373.137 78.4468C373.807 78.8911 374.655 79.1133 375.68 79.1133C376.316 79.1133 376.935 79.0518 377.536 78.9287C378.138 78.8057 378.76 78.6382 379.402 78.4263V80.5181C378.794 80.7573 378.179 80.9316 377.557 81.041C376.935 81.1504 376.217 81.2051 375.403 81.2051C373.872 81.2051 372.601 80.8872 371.589 80.2515C370.584 79.6157 369.832 78.7202 369.333 77.5649C368.841 76.4097 368.595 75.0562 368.595 73.5044C368.595 72.3696 368.752 71.3306 369.066 70.3872C369.381 69.4438 369.839 68.6304 370.44 67.9468C371.042 67.2563 371.784 66.7266 372.666 66.3574C373.554 65.9814 374.569 65.7935 375.711 65.7935C376.463 65.7935 377.201 65.8789 377.926 66.0498C378.657 66.2139 379.334 66.4497 379.956 66.7573L379.095 68.7876C378.575 68.5415 378.032 68.3296 377.464 68.1519C376.897 67.9741 376.309 67.8853 375.701 67.8853ZM382.832 81V66.0088H385.293V81H382.832ZM393.26 85.1733C392.884 85.1733 392.556 85.1494 392.276 85.1016C391.988 85.0605 391.742 85.0024 391.537 84.9272V82.8662C391.756 82.9209 391.992 82.9688 392.245 83.0098C392.498 83.0508 392.768 83.0713 393.055 83.0713C393.431 83.0713 393.773 82.9995 394.08 82.856C394.388 82.7124 394.631 82.4526 394.808 82.0767C394.993 81.7007 395.085 81.1709 395.085 80.4873V66.0088H397.546V80.4053C397.546 81.5195 397.368 82.4253 397.013 83.1226C396.657 83.8267 396.158 84.3428 395.516 84.6709C394.873 85.0059 394.121 85.1733 393.26 85.1733ZM411.435 75.2988C411.435 76.2422 411.312 77.0796 411.066 77.811C410.82 78.5425 410.461 79.1611 409.989 79.667C409.517 80.166 408.95 80.5488 408.287 80.8154C407.624 81.0752 406.875 81.2051 406.041 81.2051C405.262 81.2051 404.548 81.0752 403.898 80.8154C403.249 80.5488 402.685 80.166 402.206 79.667C401.735 79.1611 401.369 78.5425 401.109 77.811C400.849 77.0796 400.719 76.2422 400.719 75.2988C400.719 74.0479 400.935 72.9883 401.365 72.1201C401.803 71.2451 402.425 70.5786 403.232 70.1206C404.038 69.6626 404.999 69.4336 406.113 69.4336C407.159 69.4336 408.082 69.6626 408.882 70.1206C409.681 70.5786 410.307 71.2451 410.758 72.1201C411.209 72.9951 411.435 74.0547 411.435 75.2988ZM403.201 75.2988C403.201 76.126 403.3 76.8335 403.498 77.4214C403.703 78.0093 404.018 78.4604 404.442 78.7749C404.865 79.0825 405.412 79.2363 406.082 79.2363C406.752 79.2363 407.299 79.0825 407.723 78.7749C408.147 78.4604 408.458 78.0093 408.656 77.4214C408.854 76.8335 408.953 76.126 408.953 75.2988C408.953 74.4717 408.854 73.771 408.656 73.1968C408.458 72.6157 408.147 72.1748 407.723 71.874C407.299 71.5664 406.749 71.4126 406.072 71.4126C405.074 71.4126 404.346 71.7476 403.888 72.4175C403.43 73.0874 403.201 74.0479 403.201 75.2988ZM416.823 65.0449V68.8901C416.823 69.3345 416.809 69.772 416.782 70.2026C416.761 70.6265 416.741 70.958 416.72 71.1973H416.823C417.131 70.7051 417.558 70.2915 418.105 69.9565C418.658 69.6147 419.366 69.4438 420.227 69.4438C421.574 69.4438 422.657 69.9395 423.478 70.9307C424.298 71.915 424.708 73.3745 424.708 75.3091C424.708 76.5942 424.52 77.6743 424.144 78.5493C423.768 79.4243 423.238 80.0874 422.555 80.5386C421.878 80.9829 421.082 81.2051 420.166 81.2051C419.304 81.2051 418.607 81.0479 418.074 80.7334C417.548 80.4121 417.134 80.0396 416.833 79.6157H416.659L416.218 81H414.413V65.0449H416.823ZM419.592 71.4023C418.908 71.4023 418.364 71.5391 417.961 71.8125C417.565 72.0859 417.278 72.4961 417.1 73.043C416.922 73.583 416.83 74.27 416.823 75.104V75.3193C416.823 76.584 417.021 77.5513 417.418 78.2212C417.821 78.8911 418.552 79.2261 419.612 79.2261C420.453 79.2261 421.099 78.8877 421.55 78.2109C422.001 77.5273 422.227 76.5498 422.227 75.2783C422.227 73.9932 422.001 73.0259 421.55 72.3765C421.106 71.7271 420.453 71.4023 419.592 71.4023Z" fill="white"/>
<rect x="511" y="17" width="226" height="103" rx="8" fill="#020202"/>
<rect x="512" y="18" width="224" height="101" rx="7" stroke="white" stroke-opacity="0.9" stroke-width="2"/>
<path d="M558.984 68.3481L562.542 61.5088H565.198L560.214 70.6758V76.5H557.763V70.7681L552.77 61.5088H555.446L558.984 68.3481ZM577.179 70.7988C577.179 71.7422 577.056 72.5796 576.81 73.311C576.564 74.0425 576.205 74.6611 575.733 75.167C575.262 75.666 574.694 76.0488 574.031 76.3154C573.368 76.5752 572.619 76.7051 571.785 76.7051C571.006 76.7051 570.292 76.5752 569.642 76.3154C568.993 76.0488 568.429 75.666 567.951 75.167C567.479 74.6611 567.113 74.0425 566.853 73.311C566.594 72.5796 566.464 71.7422 566.464 70.7988C566.464 69.5479 566.679 68.4883 567.11 67.6201C567.547 66.7451 568.169 66.0786 568.976 65.6206C569.783 65.1626 570.743 64.9336 571.857 64.9336C572.903 64.9336 573.826 65.1626 574.626 65.6206C575.426 66.0786 576.051 66.7451 576.502 67.6201C576.953 68.4951 577.179 69.5547 577.179 70.7988ZM568.945 70.7988C568.945 71.626 569.044 72.3335 569.243 72.9214C569.448 73.5093 569.762 73.9604 570.186 74.2749C570.61 74.5825 571.157 74.7363 571.826 74.7363C572.496 74.7363 573.043 74.5825 573.467 74.2749C573.891 73.9604 574.202 73.5093 574.4 72.9214C574.598 72.3335 574.698 71.626 574.698 70.7988C574.698 69.9717 574.598 69.271 574.4 68.6968C574.202 68.1157 573.891 67.6748 573.467 67.374C573.043 67.0664 572.493 66.9126 571.816 66.9126C570.818 66.9126 570.09 67.2476 569.632 67.9175C569.174 68.5874 568.945 69.5479 568.945 70.7988ZM590.053 65.1489V76.5H588.156L587.827 74.9722H587.694C587.455 75.3618 587.151 75.6865 586.782 75.9463C586.412 76.1992 586.002 76.3872 585.551 76.5103C585.1 76.6401 584.625 76.7051 584.126 76.7051C583.271 76.7051 582.54 76.5615 581.932 76.2744C581.33 75.9805 580.869 75.5293 580.547 74.9209C580.226 74.3125 580.065 73.5264 580.065 72.5625V65.1489H582.485V72.1113C582.485 72.9932 582.663 73.6528 583.018 74.0903C583.381 74.5278 583.941 74.7466 584.7 74.7466C585.432 74.7466 586.013 74.5962 586.443 74.2954C586.874 73.9946 587.178 73.5503 587.356 72.9624C587.54 72.3745 587.633 71.6533 587.633 70.7988V65.1489H590.053ZM599.471 64.9336C599.662 64.9336 599.871 64.9438 600.096 64.9644C600.322 64.9849 600.517 65.0122 600.681 65.0464L600.455 67.3022C600.311 67.2612 600.134 67.2305 599.922 67.21C599.717 67.1895 599.532 67.1792 599.368 67.1792C598.937 67.1792 598.527 67.251 598.138 67.3945C597.748 67.5312 597.403 67.7432 597.102 68.0303C596.801 68.3105 596.565 68.6626 596.394 69.0864C596.224 69.5103 596.138 70.0024 596.138 70.563V76.5H593.718V65.1489H595.605L595.933 67.1484H596.046C596.271 66.7451 596.552 66.376 596.887 66.041C597.222 65.7061 597.604 65.4395 598.035 65.2412C598.473 65.0361 598.951 64.9336 599.471 64.9336ZM608.904 61.5088H613.364C615.299 61.5088 616.758 61.7891 617.743 62.3496C618.727 62.9102 619.219 63.8774 619.219 65.2515C619.219 65.8257 619.117 66.3452 618.912 66.8101C618.713 67.2681 618.423 67.6475 618.04 67.9482C617.657 68.2422 617.186 68.4404 616.625 68.543V68.6455C617.206 68.748 617.722 68.9292 618.173 69.189C618.631 69.4487 618.99 69.8213 619.25 70.3066C619.517 70.792 619.65 71.4209 619.65 72.1934C619.65 73.1094 619.431 73.8887 618.994 74.5312C618.563 75.1738 617.944 75.6626 617.138 75.9976C616.338 76.3325 615.388 76.5 614.287 76.5H608.904V61.5088ZM611.365 67.6919H613.723C614.837 67.6919 615.61 67.5107 616.041 67.1484C616.471 66.7861 616.687 66.2563 616.687 65.5591C616.687 64.8481 616.43 64.3354 615.917 64.021C615.412 63.7065 614.605 63.5493 613.498 63.5493H611.365V67.6919ZM611.365 69.6812V74.439H613.959C615.107 74.439 615.914 74.2168 616.379 73.7725C616.844 73.3281 617.076 72.7266 617.076 71.9678C617.076 71.5029 616.97 71.0996 616.758 70.7578C616.553 70.416 616.215 70.1528 615.743 69.9683C615.271 69.7769 614.636 69.6812 613.836 69.6812H611.365ZM627.161 64.9336C628.596 64.9336 629.68 65.2515 630.411 65.8872C631.149 66.5229 631.519 67.5142 631.519 68.8608V76.5H629.806L629.345 74.8901H629.263C628.941 75.3003 628.61 75.6387 628.268 75.9053C627.926 76.1719 627.53 76.3701 627.079 76.5C626.634 76.6367 626.091 76.7051 625.448 76.7051C624.772 76.7051 624.167 76.582 623.633 76.3359C623.1 76.083 622.68 75.7002 622.372 75.1875C622.064 74.6748 621.911 74.0254 621.911 73.2393C621.911 72.0703 622.345 71.1919 623.213 70.604C624.088 70.0161 625.407 69.6914 627.171 69.6299L629.14 69.5581V68.9634C629.14 68.1772 628.955 67.6167 628.586 67.2817C628.224 66.9468 627.711 66.7793 627.048 66.7793C626.48 66.7793 625.93 66.8613 625.397 67.0254C624.864 67.1895 624.344 67.3911 623.838 67.6304L623.059 65.9282C623.613 65.6343 624.242 65.395 624.946 65.2104C625.657 65.0259 626.395 64.9336 627.161 64.9336ZM629.129 71.0757L627.663 71.127C626.46 71.168 625.616 71.373 625.13 71.7422C624.645 72.1113 624.402 72.6172 624.402 73.2598C624.402 73.8203 624.57 74.2305 624.905 74.4902C625.24 74.7432 625.681 74.8696 626.228 74.8696C627.062 74.8696 627.752 74.6338 628.299 74.1621C628.853 73.6836 629.129 72.9829 629.129 72.0601V71.0757ZM639.675 76.7051C638.602 76.7051 637.672 76.4966 636.886 76.0796C636.1 75.6626 635.495 75.0234 635.071 74.1621C634.648 73.3008 634.436 72.207 634.436 70.8809C634.436 69.5 634.668 68.3721 635.133 67.4971C635.598 66.6221 636.24 65.9761 637.061 65.5591C637.888 65.1421 638.835 64.9336 639.901 64.9336C640.578 64.9336 641.19 65.002 641.736 65.1387C642.29 65.2686 642.758 65.4292 643.141 65.6206L642.423 67.5483C642.006 67.3774 641.579 67.2339 641.142 67.1177C640.704 67.0015 640.284 66.9434 639.88 66.9434C639.217 66.9434 638.664 67.0903 638.219 67.3843C637.782 67.6782 637.454 68.1157 637.235 68.6968C637.023 69.2778 636.917 69.999 636.917 70.8604C636.917 71.6943 637.026 72.3984 637.245 72.9727C637.464 73.54 637.789 73.9707 638.219 74.2646C638.65 74.5518 639.18 74.6953 639.809 74.6953C640.431 74.6953 640.988 74.6201 641.48 74.4697C641.972 74.3193 642.437 74.1245 642.875 73.8853V75.9771C642.444 76.2231 641.982 76.4043 641.49 76.5205C640.998 76.6436 640.393 76.7051 639.675 76.7051ZM648.16 60.5449V68.2559C648.16 68.6045 648.147 68.9873 648.119 69.4043C648.092 69.8145 648.065 70.2007 648.037 70.563H648.088C648.266 70.3237 648.478 70.0435 648.724 69.7222C648.977 69.4009 649.216 69.1206 649.442 68.8813L652.908 65.1489H655.676L651.134 70.0298L655.974 76.5H653.144L649.514 71.5166L648.16 72.6753V76.5H645.751V60.5449H648.16ZM662.521 64.9336C663.532 64.9336 664.401 65.1421 665.125 65.5591C665.85 65.9761 666.407 66.5674 666.797 67.333C667.186 68.0986 667.381 69.0146 667.381 70.0811V71.373H659.803C659.831 72.4736 660.125 73.3213 660.685 73.916C661.253 74.5107 662.046 74.8081 663.064 74.8081C663.789 74.8081 664.438 74.7397 665.012 74.603C665.593 74.4595 666.192 74.251 666.807 73.9775V75.936C666.239 76.2026 665.662 76.3975 665.074 76.5205C664.486 76.6436 663.782 76.7051 662.962 76.7051C661.847 76.7051 660.866 76.4897 660.019 76.0591C659.178 75.6216 658.518 74.9722 658.04 74.1108C657.568 73.2495 657.332 72.1797 657.332 70.9014C657.332 69.6299 657.548 68.5498 657.978 67.6611C658.409 66.7725 659.014 66.0957 659.793 65.6309C660.572 65.166 661.482 64.9336 662.521 64.9336ZM662.521 66.7485C661.762 66.7485 661.147 66.9946 660.675 67.4868C660.21 67.979 659.937 68.7002 659.855 69.6504H665.023C665.016 69.083 664.92 68.5806 664.735 68.1431C664.558 67.7056 664.284 67.3638 663.915 67.1177C663.553 66.8716 663.088 66.7485 662.521 66.7485ZM676.225 64.9336C677.503 64.9336 678.498 65.2651 679.209 65.9282C679.926 66.5845 680.285 67.6406 680.285 69.0967V76.5H677.876V69.5479C677.876 68.666 677.695 68.0063 677.332 67.5688C676.97 67.1245 676.409 66.9023 675.651 66.9023C674.55 66.9023 673.784 67.2407 673.354 67.9175C672.93 68.5942 672.718 69.5752 672.718 70.8604V76.5H670.308V65.1489H672.185L672.523 66.687H672.656C672.903 66.2905 673.207 65.9658 673.569 65.7129C673.938 65.4531 674.348 65.2583 674.799 65.1284C675.258 64.9985 675.733 64.9336 676.225 64.9336ZM687.683 76.7051C686.33 76.7051 685.243 76.2129 684.423 75.2285C683.609 74.2373 683.202 72.7778 683.202 70.8501C683.202 68.9019 683.616 67.4287 684.443 66.4307C685.277 65.4326 686.374 64.9336 687.735 64.9336C688.309 64.9336 688.811 65.0122 689.242 65.1694C689.673 65.3198 690.042 65.5249 690.349 65.7847C690.664 66.0444 690.93 66.335 691.149 66.6562H691.262C691.228 66.4443 691.187 66.1401 691.139 65.7437C691.098 65.3403 691.077 64.9678 691.077 64.626V60.5449H693.497V76.5H691.611L691.18 74.9517H691.077C690.872 75.2798 690.613 75.5771 690.298 75.8438C689.99 76.1035 689.621 76.312 689.191 76.4692C688.767 76.6265 688.264 76.7051 687.683 76.7051ZM688.36 74.7466C689.392 74.7466 690.12 74.4492 690.544 73.8545C690.968 73.2598 691.187 72.3677 691.2 71.1782V70.8604C691.2 69.5889 690.995 68.6147 690.585 67.938C690.175 67.2544 689.426 66.9126 688.34 66.9126C687.471 66.9126 686.808 67.2646 686.35 67.9688C685.899 68.666 685.674 69.6401 685.674 70.8911C685.674 72.1421 685.899 73.0991 686.35 73.7622C686.808 74.4185 687.478 74.7466 688.36 74.7466Z" fill="white"/>
<rect width="98" height="18" transform="translate(574.5 8)" fill="#020202"/>
<path d="M586.526 13.0624C586.526 11.9234 587.634 11 589.001 11H590.126C590.5 11 590.801 11.2508 590.801 11.5625C590.801 11.8742 590.5 12.125 590.126 12.125H589.001C588.38 12.125 587.876 12.5445 587.876 13.0624V15.4999H589.226C589.6 15.4999 589.901 15.7507 589.901 16.0624C589.901 16.3741 589.6 16.6249 589.226 16.6249H587.876V20.1568C587.876 21.2068 586.929 22.0904 585.674 22.2075L585.25 22.2474C584.878 22.2825 584.547 22.0599 584.504 21.7505C584.462 21.4412 584.729 21.1646 585.101 21.1294L585.525 21.0896C586.096 21.0357 586.526 20.6349 586.526 20.1568V16.6249H585.177C584.802 16.6249 584.502 16.3741 584.502 16.0624C584.502 15.7507 584.802 15.4999 585.177 15.4999H586.526V13.0624ZM593.397 14.8624C592.612 15.9007 592.151 17.1522 592.151 18.4998C592.151 19.8474 592.612 21.099 593.397 22.1372C593.596 22.3997 593.501 22.7466 593.186 22.913C592.871 23.0794 592.455 22.9997 592.255 22.7372C591.335 21.5208 590.801 20.0631 590.801 18.4998C590.801 16.9366 591.335 15.4788 592.255 14.2624C592.455 13.9999 592.871 13.9202 593.186 14.0866C593.501 14.253 593.596 14.5999 593.397 14.8624ZM599.904 14.8624C599.705 14.5999 599.8 14.253 600.115 14.0866C600.43 13.9202 600.846 13.9999 601.046 14.2624C601.966 15.4788 602.5 16.9366 602.5 18.4998C602.5 20.0631 601.966 21.5208 601.046 22.7372C600.846 22.9997 600.43 23.0794 600.115 22.913C599.8 22.7466 599.705 22.3997 599.904 22.1372C600.689 21.099 601.15 19.8474 601.15 18.4998C601.15 17.1522 600.689 15.9007 599.904 14.8624ZM595.554 16.7889L596.651 17.703L597.747 16.7889C598.012 16.5686 598.439 16.5686 598.701 16.7889C598.962 17.0092 598.965 17.3655 598.701 17.5834L597.604 18.4975L598.701 19.4115C598.965 19.6318 598.965 19.9881 598.701 20.206C598.436 20.424 598.009 20.4263 597.747 20.206L596.651 19.292L595.554 20.206C595.289 20.4263 594.862 20.4263 594.6 20.206C594.339 19.9857 594.336 19.6295 594.6 19.4115L595.697 18.4975L594.6 17.5834C594.336 17.3631 594.336 17.0069 594.6 16.7889C594.865 16.571 595.292 16.5686 595.554 16.7889Z" fill="#FF5C00"/>
<path d="M610.282 22H608.771V12.7197H614.015V14.002H610.282V16.8965H613.773V18.1724H610.282V22ZM621.676 14.9731V22H620.502L620.299 21.0542H620.216C620.068 21.2954 619.88 21.4964 619.651 21.6572C619.423 21.8138 619.169 21.9302 618.89 22.0063C618.61 22.0868 618.316 22.127 618.007 22.127C617.478 22.127 617.026 22.0381 616.649 21.8604C616.277 21.6784 615.991 21.3991 615.792 21.0225C615.593 20.6458 615.494 20.1592 615.494 19.5625V14.9731H616.992V19.2832C616.992 19.8291 617.102 20.2375 617.322 20.5083C617.546 20.7791 617.893 20.9146 618.363 20.9146C618.816 20.9146 619.175 20.8215 619.442 20.6353C619.708 20.4491 619.897 20.174 620.007 19.8101C620.121 19.4461 620.178 18.9997 620.178 18.4707V14.9731H621.676ZM627.478 14.8398C628.269 14.8398 628.885 15.0451 629.325 15.4556C629.77 15.8618 629.992 16.5156 629.992 17.417V22H628.5V17.6963C628.5 17.1504 628.388 16.742 628.164 16.4712C627.939 16.1961 627.592 16.0586 627.123 16.0586C626.441 16.0586 625.967 16.2681 625.701 16.687C625.438 17.106 625.307 17.7132 625.307 18.5088V22H623.815V14.9731H624.977L625.187 15.9253H625.269C625.421 15.6799 625.61 15.4788 625.834 15.3223C626.062 15.1615 626.316 15.0409 626.596 14.9604C626.879 14.88 627.173 14.8398 627.478 14.8398ZM634.911 22.127C634.247 22.127 633.671 21.9979 633.185 21.7397C632.698 21.4816 632.323 21.0859 632.061 20.5527C631.799 20.0195 631.667 19.3424 631.667 18.5215C631.667 17.6667 631.811 16.9684 632.099 16.4268C632.387 15.8851 632.785 15.4852 633.292 15.2271C633.805 14.9689 634.391 14.8398 635.051 14.8398C635.47 14.8398 635.848 14.8822 636.187 14.9668C636.53 15.0472 636.82 15.1466 637.057 15.2651L636.612 16.4585C636.354 16.3527 636.09 16.2638 635.819 16.1919C635.548 16.12 635.288 16.084 635.038 16.084C634.628 16.084 634.285 16.175 634.01 16.3569C633.739 16.5389 633.536 16.8097 633.4 17.1694C633.269 17.5291 633.204 17.9756 633.204 18.5088C633.204 19.0251 633.271 19.4609 633.407 19.8164C633.542 20.1676 633.743 20.4342 634.01 20.6162C634.276 20.7939 634.604 20.8828 634.994 20.8828C635.379 20.8828 635.724 20.8363 636.028 20.7432C636.333 20.6501 636.621 20.5295 636.892 20.3813V21.6763C636.625 21.8286 636.339 21.9408 636.035 22.0127C635.73 22.0889 635.355 22.127 634.911 22.127ZM641.157 20.9209C641.352 20.9209 641.544 20.904 641.735 20.8701C641.925 20.832 642.099 20.7876 642.255 20.7368V21.8667C642.09 21.9386 641.877 22 641.614 22.0508C641.352 22.1016 641.079 22.127 640.795 22.127C640.398 22.127 640.04 22.0614 639.723 21.9302C639.405 21.7948 639.153 21.5641 638.967 21.2383C638.781 20.9124 638.688 20.4618 638.688 19.8862V16.1094H637.729V15.4429L638.758 14.916L639.247 13.4116H640.186V14.9731H642.198V16.1094H640.186V19.8672C640.186 20.2227 640.275 20.4871 640.453 20.6606C640.63 20.8341 640.865 20.9209 641.157 20.9209ZM645.175 14.9731V22H643.684V14.9731H645.175ZM644.439 12.2817C644.667 12.2817 644.864 12.3431 645.029 12.4658C645.199 12.5885 645.283 12.8001 645.283 13.1006C645.283 13.3968 645.199 13.6084 645.029 13.7354C644.864 13.8581 644.667 13.9194 644.439 13.9194C644.202 13.9194 644.001 13.8581 643.836 13.7354C643.675 13.6084 643.595 13.3968 643.595 13.1006C643.595 12.8001 643.675 12.5885 643.836 12.4658C644.001 12.3431 644.202 12.2817 644.439 12.2817ZM653.535 18.4707C653.535 19.0547 653.459 19.5731 653.307 20.0259C653.154 20.4787 652.932 20.8617 652.64 21.1748C652.348 21.4837 651.997 21.7207 651.586 21.8857C651.176 22.0465 650.713 22.127 650.196 22.127C649.714 22.127 649.272 22.0465 648.87 21.8857C648.468 21.7207 648.118 21.4837 647.822 21.1748C647.53 20.8617 647.304 20.4787 647.143 20.0259C646.982 19.5731 646.902 19.0547 646.902 18.4707C646.902 17.6963 647.035 17.0404 647.302 16.5029C647.573 15.9613 647.958 15.5487 648.457 15.2651C648.956 14.9816 649.551 14.8398 650.241 14.8398C650.888 14.8398 651.459 14.9816 651.955 15.2651C652.45 15.5487 652.837 15.9613 653.116 16.5029C653.396 17.0446 653.535 17.7005 653.535 18.4707ZM648.438 18.4707C648.438 18.9827 648.499 19.4207 648.622 19.7847C648.749 20.1486 648.944 20.4279 649.206 20.6226C649.468 20.813 649.807 20.9082 650.222 20.9082C650.636 20.9082 650.975 20.813 651.237 20.6226C651.5 20.4279 651.692 20.1486 651.815 19.7847C651.938 19.4207 651.999 18.9827 651.999 18.4707C651.999 17.9587 651.938 17.5249 651.815 17.1694C651.692 16.8097 651.5 16.5368 651.237 16.3506C650.975 16.1602 650.634 16.0649 650.215 16.0649C649.597 16.0649 649.147 16.2723 648.863 16.687C648.58 17.1017 648.438 17.6963 648.438 18.4707ZM658.912 14.8398C659.703 14.8398 660.319 15.0451 660.759 15.4556C661.203 15.8618 661.425 16.5156 661.425 17.417V22H659.934V17.6963C659.934 17.1504 659.821 16.742 659.597 16.4712C659.373 16.1961 659.026 16.0586 658.556 16.0586C657.875 16.0586 657.401 16.2681 657.134 16.687C656.872 17.106 656.741 17.7132 656.741 18.5088V22H655.249V14.9731H656.411L656.62 15.9253H656.703C656.855 15.6799 657.043 15.4788 657.268 15.3223C657.496 15.1615 657.75 15.0409 658.029 14.9604C658.313 14.88 658.607 14.8398 658.912 14.8398Z" fill="#FF5C00"/>
<rect x="1028" y="17" width="226" height="103" rx="8" fill="#020202"/>
<rect x="1029" y="18" width="224" height="101" rx="7" stroke="white" stroke-opacity="0.9" stroke-width="2"/>
<path d="M1120.14 63.3853C1119.42 63.3853 1118.78 63.5151 1118.21 63.7749C1117.65 64.0347 1117.18 64.4106 1116.79 64.9028C1116.4 65.3882 1116.1 65.9795 1115.9 66.6768C1115.69 67.3672 1115.59 68.1465 1115.59 69.0146C1115.59 70.1768 1115.75 71.1782 1116.08 72.019C1116.41 72.853 1116.91 73.4956 1117.58 73.9468C1118.25 74.3911 1119.1 74.6133 1120.12 74.6133C1120.76 74.6133 1121.38 74.5518 1121.98 74.4287C1122.58 74.3057 1123.2 74.1382 1123.84 73.9263V76.0181C1123.23 76.2573 1122.62 76.4316 1122 76.541C1121.38 76.6504 1120.66 76.7051 1119.84 76.7051C1118.31 76.7051 1117.04 76.3872 1116.03 75.7515C1115.02 75.1157 1114.27 74.2202 1113.77 73.0649C1113.28 71.9097 1113.04 70.5562 1113.04 69.0044C1113.04 67.8696 1113.19 66.8306 1113.51 65.8872C1113.82 64.9438 1114.28 64.1304 1114.88 63.4468C1115.48 62.7563 1116.22 62.2266 1117.11 61.8574C1118 61.4814 1119.01 61.2935 1120.15 61.2935C1120.9 61.2935 1121.64 61.3789 1122.37 61.5498C1123.1 61.7139 1123.77 61.9497 1124.4 62.2573L1123.54 64.2876C1123.02 64.0415 1122.47 63.8296 1121.91 63.6519C1121.34 63.4741 1120.75 63.3853 1120.14 63.3853ZM1127.27 76.5V61.5088H1129.73V76.5H1127.27ZM1137.7 80.6733C1137.32 80.6733 1137 80.6494 1136.72 80.6016C1136.43 80.5605 1136.18 80.5024 1135.98 80.4272V78.3662C1136.2 78.4209 1136.43 78.4688 1136.69 78.5098C1136.94 78.5508 1137.21 78.5713 1137.5 78.5713C1137.87 78.5713 1138.21 78.4995 1138.52 78.356C1138.83 78.2124 1139.07 77.9526 1139.25 77.5767C1139.43 77.2007 1139.53 76.6709 1139.53 75.9873V61.5088H1141.99V75.9053C1141.99 77.0195 1141.81 77.9253 1141.45 78.6226C1141.1 79.3267 1140.6 79.8428 1139.96 80.1709C1139.31 80.5059 1138.56 80.6733 1137.7 80.6733ZM1155.88 70.7988C1155.88 71.7422 1155.75 72.5796 1155.51 73.311C1155.26 74.0425 1154.9 74.6611 1154.43 75.167C1153.96 75.666 1153.39 76.0488 1152.73 76.3154C1152.06 76.5752 1151.32 76.7051 1150.48 76.7051C1149.7 76.7051 1148.99 76.5752 1148.34 76.3154C1147.69 76.0488 1147.13 75.666 1146.65 75.167C1146.18 74.6611 1145.81 74.0425 1145.55 73.311C1145.29 72.5796 1145.16 71.7422 1145.16 70.7988C1145.16 69.5479 1145.38 68.4883 1145.81 67.6201C1146.24 66.7451 1146.87 66.0786 1147.67 65.6206C1148.48 65.1626 1149.44 64.9336 1150.55 64.9336C1151.6 64.9336 1152.52 65.1626 1153.32 65.6206C1154.12 66.0786 1154.75 66.7451 1155.2 67.6201C1155.65 68.4951 1155.88 69.5547 1155.88 70.7988ZM1147.64 70.7988C1147.64 71.626 1147.74 72.3335 1147.94 72.9214C1148.14 73.5093 1148.46 73.9604 1148.88 74.2749C1149.31 74.5825 1149.85 74.7363 1150.52 74.7363C1151.19 74.7363 1151.74 74.5825 1152.16 74.2749C1152.59 73.9604 1152.9 73.5093 1153.1 72.9214C1153.29 72.3335 1153.39 71.626 1153.39 70.7988C1153.39 69.9717 1153.29 69.271 1153.1 68.6968C1152.9 68.1157 1152.59 67.6748 1152.16 67.374C1151.74 67.0664 1151.19 66.9126 1150.51 66.9126C1149.51 66.9126 1148.79 67.2476 1148.33 67.9175C1147.87 68.5874 1147.64 69.5479 1147.64 70.7988ZM1161.26 60.5449V64.3901C1161.26 64.8345 1161.25 65.272 1161.22 65.7026C1161.2 66.1265 1161.18 66.458 1161.16 66.6973H1161.26C1161.57 66.2051 1162 65.7915 1162.55 65.4565C1163.1 65.1147 1163.81 64.9438 1164.67 64.9438C1166.01 64.9438 1167.1 65.4395 1167.92 66.4307C1168.74 67.415 1169.15 68.8745 1169.15 70.8091C1169.15 72.0942 1168.96 73.1743 1168.59 74.0493C1168.21 74.9243 1167.68 75.5874 1167 76.0386C1166.32 76.4829 1165.52 76.7051 1164.61 76.7051C1163.75 76.7051 1163.05 76.5479 1162.51 76.2334C1161.99 75.9121 1161.57 75.5396 1161.27 75.1157H1161.1L1160.66 76.5H1158.85V60.5449H1161.26ZM1164.03 66.9023C1163.35 66.9023 1162.81 67.0391 1162.4 67.3125C1162.01 67.5859 1161.72 67.9961 1161.54 68.543C1161.36 69.083 1161.27 69.77 1161.26 70.604V70.8193C1161.26 72.084 1161.46 73.0513 1161.86 73.7212C1162.26 74.3911 1162.99 74.7261 1164.05 74.7261C1164.89 74.7261 1165.54 74.3877 1165.99 73.7109C1166.44 73.0273 1166.67 72.0498 1166.67 70.7783C1166.67 69.4932 1166.44 68.5259 1165.99 67.8765C1165.55 67.2271 1164.89 66.9023 1164.03 66.9023Z" fill="white"/>
<rect width="106" height="18" transform="translate(1087.5 8)" fill="#020202"/>
<path d="M1099.75 10.7143C1099.44 10.7143 1099.19 10.9714 1099.19 11.2857V13.5714C1099.19 13.8857 1099.44 14.1429 1099.75 14.1429H1113.25C1113.56 14.1429 1113.81 13.8857 1113.81 13.5714V11.2857C1113.81 10.9714 1113.56 10.7143 1113.25 10.7143H1099.75ZM1097.5 11.2857C1097.5 10.025 1098.51 9 1099.75 9H1113.25C1114.49 9 1115.5 10.025 1115.5 11.2857V13.5714C1115.5 14.8321 1114.49 15.8571 1113.25 15.8571H1099.75C1098.51 15.8571 1097.5 14.8321 1097.5 13.5714V11.2857ZM1099.75 19.8571C1099.44 19.8571 1099.19 20.1143 1099.19 20.4286V22.7143C1099.19 23.0286 1099.44 23.2857 1099.75 23.2857H1113.25C1113.56 23.2857 1113.81 23.0286 1113.81 22.7143V20.4286C1113.81 20.1143 1113.56 19.8571 1113.25 19.8571H1099.75ZM1097.5 20.4286C1097.5 19.1679 1098.51 18.1429 1099.75 18.1429H1113.25C1114.49 18.1429 1115.5 19.1679 1115.5 20.4286V22.7143C1115.5 23.975 1114.49 25 1113.25 25H1099.75C1098.51 25 1097.5 23.975 1097.5 22.7143V20.4286ZM1111.28 21.5714C1111.28 21.3441 1111.37 21.1261 1111.53 20.9653C1111.69 20.8046 1111.9 20.7143 1112.12 20.7143C1112.35 20.7143 1112.56 20.8046 1112.72 20.9653C1112.88 21.1261 1112.97 21.3441 1112.97 21.5714C1112.97 21.7988 1112.88 22.0168 1112.72 22.1775C1112.56 22.3383 1112.35 22.4286 1112.12 22.4286C1111.9 22.4286 1111.69 22.3383 1111.53 22.1775C1111.37 22.0168 1111.28 21.7988 1111.28 21.5714ZM1112.12 11.5714C1112.35 11.5714 1112.56 11.6617 1112.72 11.8225C1112.88 11.9832 1112.97 12.2012 1112.97 12.4286C1112.97 12.6559 1112.88 12.8739 1112.72 13.0347C1112.56 13.1954 1112.35 13.2857 1112.12 13.2857C1111.9 13.2857 1111.69 13.1954 1111.53 13.0347C1111.37 12.8739 1111.28 12.6559 1111.28 12.4286C1111.28 12.2012 1111.37 11.9832 1111.53 11.8225C1111.69 11.6617 1111.9 11.5714 1112.12 11.5714ZM1109.03 21.5714C1109.03 21.3441 1109.12 21.1261 1109.28 20.9653C1109.44 20.8046 1109.65 20.7143 1109.88 20.7143C1110.1 20.7143 1110.31 20.8046 1110.47 20.9653C1110.63 21.1261 1110.72 21.3441 1110.72 21.5714C1110.72 21.7988 1110.63 22.0168 1110.47 22.1775C1110.31 22.3383 1110.1 22.4286 1109.88 22.4286C1109.65 22.4286 1109.44 22.3383 1109.28 22.1775C1109.12 22.0168 1109.03 21.7988 1109.03 21.5714ZM1109.88 11.5714C1110.1 11.5714 1110.31 11.6617 1110.47 11.8225C1110.63 11.9832 1110.72 12.2012 1110.72 12.4286C1110.72 12.6559 1110.63 12.8739 1110.47 13.0347C1110.31 13.1954 1110.1 13.2857 1109.88 13.2857C1109.65 13.2857 1109.44 13.1954 1109.28 13.0347C1109.12 12.8739 1109.03 12.6559 1109.03 12.4286C1109.03 12.2012 1109.12 11.9832 1109.28 11.8225C1109.44 11.6617 1109.65 11.5714 1109.88 11.5714Z" fill="#FF5C00"/>
<path d="M1126.11 13.8813C1125.67 13.8813 1125.27 13.9618 1124.92 14.1226C1124.57 14.2834 1124.28 14.5161 1124.04 14.8208C1123.8 15.1213 1123.61 15.4873 1123.49 15.9189C1123.36 16.3464 1123.3 16.8288 1123.3 17.3662C1123.3 18.0856 1123.4 18.7056 1123.6 19.2261C1123.8 19.7424 1124.11 20.1401 1124.53 20.4194C1124.94 20.6945 1125.47 20.832 1126.1 20.832C1126.5 20.832 1126.88 20.7939 1127.25 20.7178C1127.62 20.6416 1128.01 20.5379 1128.41 20.4067V21.7017C1128.03 21.8498 1127.65 21.9577 1127.26 22.0254C1126.88 22.0931 1126.43 22.127 1125.93 22.127C1124.98 22.127 1124.2 21.9302 1123.57 21.5366C1122.95 21.1431 1122.48 20.5887 1122.17 19.8735C1121.87 19.1584 1121.72 18.3205 1121.72 17.3599C1121.72 16.6574 1121.81 16.0142 1122.01 15.4302C1122.2 14.8462 1122.49 14.3426 1122.86 13.9194C1123.23 13.492 1123.69 13.1641 1124.24 12.9355C1124.79 12.7028 1125.41 12.5864 1126.12 12.5864C1126.59 12.5864 1127.04 12.6393 1127.49 12.7451C1127.94 12.8467 1128.36 12.9927 1128.75 13.1831L1128.22 14.4399C1127.89 14.2876 1127.56 14.1564 1127.21 14.0464C1126.85 13.9364 1126.49 13.8813 1126.11 13.8813ZM1136.47 18.4707C1136.47 19.0547 1136.39 19.5731 1136.24 20.0259C1136.09 20.4787 1135.86 20.8617 1135.57 21.1748C1135.28 21.4837 1134.93 21.7207 1134.52 21.8857C1134.11 22.0465 1133.64 22.127 1133.13 22.127C1132.65 22.127 1132.2 22.0465 1131.8 21.8857C1131.4 21.7207 1131.05 21.4837 1130.75 21.1748C1130.46 20.8617 1130.24 20.4787 1130.08 20.0259C1129.91 19.5731 1129.83 19.0547 1129.83 18.4707C1129.83 17.6963 1129.97 17.0404 1130.23 16.5029C1130.5 15.9613 1130.89 15.5487 1131.39 15.2651C1131.89 14.9816 1132.48 14.8398 1133.17 14.8398C1133.82 14.8398 1134.39 14.9816 1134.89 15.2651C1135.38 15.5487 1135.77 15.9613 1136.05 16.5029C1136.33 17.0446 1136.47 17.7005 1136.47 18.4707ZM1131.37 18.4707C1131.37 18.9827 1131.43 19.4207 1131.55 19.7847C1131.68 20.1486 1131.88 20.4279 1132.14 20.6226C1132.4 20.813 1132.74 20.9082 1133.15 20.9082C1133.57 20.9082 1133.91 20.813 1134.17 20.6226C1134.43 20.4279 1134.62 20.1486 1134.75 19.7847C1134.87 19.4207 1134.93 18.9827 1134.93 18.4707C1134.93 17.9587 1134.87 17.5249 1134.75 17.1694C1134.62 16.8097 1134.43 16.5368 1134.17 16.3506C1133.91 16.1602 1133.57 16.0649 1133.15 16.0649C1132.53 16.0649 1132.08 16.2723 1131.8 16.687C1131.51 17.1017 1131.37 17.6963 1131.37 18.4707ZM1141.84 14.8398C1142.64 14.8398 1143.25 15.0451 1143.69 15.4556C1144.14 15.8618 1144.36 16.5156 1144.36 17.417V22H1142.87V17.6963C1142.87 17.1504 1142.75 16.742 1142.53 16.4712C1142.31 16.1961 1141.96 16.0586 1141.49 16.0586C1140.81 16.0586 1140.33 16.2681 1140.07 16.687C1139.8 17.106 1139.67 17.7132 1139.67 18.5088V22H1138.18V14.9731H1139.34L1139.55 15.9253H1139.63C1139.79 15.6799 1139.98 15.4788 1140.2 15.3223C1140.43 15.1615 1140.68 15.0409 1140.96 14.9604C1141.24 14.88 1141.54 14.8398 1141.84 14.8398ZM1149.06 20.9209C1149.26 20.9209 1149.45 20.904 1149.64 20.8701C1149.83 20.832 1150 20.7876 1150.16 20.7368V21.8667C1149.99 21.9386 1149.78 22 1149.52 22.0508C1149.26 22.1016 1148.98 22.127 1148.7 22.127C1148.3 22.127 1147.94 22.0614 1147.63 21.9302C1147.31 21.7948 1147.06 21.5641 1146.87 21.2383C1146.68 20.9124 1146.59 20.4618 1146.59 19.8862V16.1094H1145.63V15.4429L1146.66 14.916L1147.15 13.4116H1148.09V14.9731H1150.1V16.1094H1148.09V19.8672C1148.09 20.2227 1148.18 20.4871 1148.36 20.6606C1148.53 20.8341 1148.77 20.9209 1149.06 20.9209ZM1154.34 14.8398C1155.23 14.8398 1155.9 15.0366 1156.35 15.4302C1156.81 15.8237 1157.04 16.4373 1157.04 17.271V22H1155.98L1155.69 21.0034H1155.64C1155.44 21.2573 1155.24 21.4668 1155.03 21.6318C1154.82 21.7969 1154.57 21.9196 1154.29 22C1154.02 22.0846 1153.68 22.127 1153.28 22.127C1152.86 22.127 1152.49 22.0508 1152.16 21.8984C1151.83 21.7419 1151.57 21.5049 1151.38 21.1875C1151.19 20.8701 1151.09 20.4681 1151.09 19.9814C1151.09 19.2578 1151.36 18.714 1151.9 18.3501C1152.44 17.9862 1153.26 17.7852 1154.35 17.7471L1155.57 17.7026V17.3345C1155.57 16.8478 1155.45 16.5008 1155.22 16.2935C1155 16.0861 1154.68 15.9824 1154.27 15.9824C1153.92 15.9824 1153.58 16.0332 1153.25 16.1348C1152.92 16.2363 1152.6 16.3612 1152.29 16.5093L1151.8 15.4556C1152.15 15.2736 1152.54 15.1255 1152.97 15.0112C1153.41 14.897 1153.87 14.8398 1154.34 14.8398ZM1155.56 18.6421L1154.65 18.6738C1153.91 18.6992 1153.39 18.8262 1153.09 19.0547C1152.78 19.2832 1152.63 19.5964 1152.63 19.9941C1152.63 20.3411 1152.74 20.5951 1152.95 20.7559C1153.15 20.9124 1153.43 20.9907 1153.76 20.9907C1154.28 20.9907 1154.71 20.8447 1155.05 20.5527C1155.39 20.2565 1155.56 19.8228 1155.56 19.2515V18.6421ZM1160.62 14.9731V22H1159.13V14.9731H1160.62ZM1159.88 12.2817C1160.11 12.2817 1160.31 12.3431 1160.47 12.4658C1160.64 12.5885 1160.73 12.8001 1160.73 13.1006C1160.73 13.3968 1160.64 13.6084 1160.47 13.7354C1160.31 13.8581 1160.11 13.9194 1159.88 13.9194C1159.65 13.9194 1159.45 13.8581 1159.28 13.7354C1159.12 13.6084 1159.04 13.3968 1159.04 13.1006C1159.04 12.8001 1159.12 12.5885 1159.28 12.4658C1159.45 12.3431 1159.65 12.2817 1159.88 12.2817ZM1166.42 14.8398C1167.21 14.8398 1167.83 15.0451 1168.27 15.4556C1168.71 15.8618 1168.94 16.5156 1168.94 17.417V22H1167.44V17.6963C1167.44 17.1504 1167.33 16.742 1167.11 16.4712C1166.88 16.1961 1166.54 16.0586 1166.07 16.0586C1165.39 16.0586 1164.91 16.2681 1164.64 16.687C1164.38 17.106 1164.25 17.7132 1164.25 18.5088V22H1162.76V14.9731H1163.92L1164.13 15.9253H1164.21C1164.37 15.6799 1164.55 15.4788 1164.78 15.3223C1165.01 15.1615 1165.26 15.0409 1165.54 14.9604C1165.82 14.88 1166.12 14.8398 1166.42 14.8398ZM1173.82 14.8398C1174.45 14.8398 1174.99 14.9689 1175.44 15.2271C1175.88 15.4852 1176.23 15.8512 1176.47 16.3252C1176.71 16.7992 1176.83 17.3662 1176.83 18.0264V18.8262H1172.14C1172.16 19.5075 1172.34 20.0322 1172.69 20.4004C1173.04 20.7686 1173.53 20.9526 1174.16 20.9526C1174.61 20.9526 1175.01 20.9103 1175.37 20.8257C1175.73 20.7368 1176.1 20.6077 1176.48 20.4385V21.6509C1176.13 21.8159 1175.77 21.9365 1175.4 22.0127C1175.04 22.0889 1174.6 22.127 1174.1 22.127C1173.41 22.127 1172.8 21.9937 1172.27 21.7271C1171.75 21.4562 1171.35 21.0542 1171.05 20.521C1170.76 19.9878 1170.61 19.3255 1170.61 18.5342C1170.61 17.7471 1170.74 17.0785 1171.01 16.5283C1171.28 15.9782 1171.65 15.5592 1172.13 15.2715C1172.62 14.9837 1173.18 14.8398 1173.82 14.8398ZM1173.82 15.9634C1173.35 15.9634 1172.97 16.1157 1172.68 16.4204C1172.39 16.7251 1172.22 17.1715 1172.17 17.7598H1175.37C1175.37 17.4085 1175.31 17.0975 1175.19 16.8267C1175.08 16.5558 1174.92 16.3442 1174.69 16.1919C1174.46 16.0396 1174.17 15.9634 1173.82 15.9634ZM1182.08 14.8398C1182.19 14.8398 1182.32 14.8462 1182.46 14.8589C1182.6 14.8716 1182.72 14.8885 1182.82 14.9097L1182.68 16.3062C1182.6 16.2808 1182.49 16.2617 1182.35 16.249C1182.23 16.2363 1182.11 16.23 1182.01 16.23C1181.75 16.23 1181.49 16.2744 1181.25 16.3633C1181.01 16.4479 1180.8 16.5791 1180.61 16.7568C1180.42 16.9303 1180.28 17.1483 1180.17 17.4106C1180.07 17.673 1180.01 17.9777 1180.01 18.3247V22H1178.51V14.9731H1179.68L1179.89 16.2109H1179.96C1180.09 15.9613 1180.27 15.7327 1180.48 15.5254C1180.68 15.318 1180.92 15.153 1181.19 15.0303C1181.46 14.9033 1181.75 14.8398 1182.08 14.8398Z" fill="#FF5C00"/>
</svg>
