<svg width="1166" height="433" viewBox="0 0 1166 433" fill="none" xmlns="http://www.w3.org/2000/svg">
<rect y="191" width="226" height="103" rx="8" fill="#020202"/>
<rect x="1" y="192" width="224" height="101" rx="7" stroke="white" stroke-opacity="0.9" stroke-width="2"/>
<path d="M82.4516 250.5V235.509H84.9125V248.408H91.2802V250.5H82.4516ZM96.248 239.149V250.5H93.8383V239.149H96.248ZM95.0585 234.801C95.4277 234.801 95.7455 234.9 96.0121 235.099C96.2856 235.297 96.4223 235.639 96.4223 236.124C96.4223 236.603 96.2856 236.944 96.0121 237.149C95.7455 237.348 95.4277 237.447 95.0585 237.447C94.6757 237.447 94.351 237.348 94.0844 237.149C93.8246 236.944 93.6948 236.603 93.6948 236.124C93.6948 235.639 93.8246 235.297 94.0844 235.099C94.351 234.9 94.6757 234.801 95.0585 234.801ZM105.83 238.934C107.108 238.934 108.103 239.265 108.814 239.928C109.532 240.584 109.891 241.641 109.891 243.097V250.5H107.481V243.548C107.481 242.666 107.3 242.006 106.937 241.569C106.575 241.125 106.015 240.902 105.256 240.902C104.155 240.902 103.39 241.241 102.959 241.917C102.535 242.594 102.323 243.575 102.323 244.86V250.5H99.9136V239.149H101.79L102.128 240.687H102.262C102.508 240.291 102.812 239.966 103.174 239.713C103.543 239.453 103.954 239.258 104.405 239.128C104.863 238.999 105.338 238.934 105.83 238.934ZM117.996 238.934C119.008 238.934 119.876 239.142 120.601 239.559C121.325 239.976 121.882 240.567 122.272 241.333C122.662 242.099 122.856 243.015 122.856 244.081V245.373H115.279C115.306 246.474 115.6 247.321 116.161 247.916C116.728 248.511 117.521 248.808 118.54 248.808C119.264 248.808 119.914 248.74 120.488 248.603C121.069 248.459 121.667 248.251 122.282 247.978V249.936C121.715 250.203 121.137 250.397 120.549 250.521C119.961 250.644 119.257 250.705 118.437 250.705C117.323 250.705 116.342 250.49 115.494 250.059C114.653 249.622 113.994 248.972 113.515 248.111C113.043 247.25 112.808 246.18 112.808 244.901C112.808 243.63 113.023 242.55 113.454 241.661C113.884 240.772 114.489 240.096 115.269 239.631C116.048 239.166 116.957 238.934 117.996 238.934ZM117.996 240.749C117.237 240.749 116.622 240.995 116.15 241.487C115.686 241.979 115.412 242.7 115.33 243.65H120.498C120.491 243.083 120.396 242.581 120.211 242.143C120.033 241.706 119.76 241.364 119.391 241.118C119.028 240.872 118.563 240.749 117.996 240.749ZM130.234 238.934C131.669 238.934 132.753 239.251 133.484 239.887C134.223 240.523 134.592 241.514 134.592 242.861V250.5H132.879L132.418 248.89H132.336C132.015 249.3 131.683 249.639 131.341 249.905C131 250.172 130.603 250.37 130.152 250.5C129.708 250.637 129.164 250.705 128.522 250.705C127.845 250.705 127.24 250.582 126.707 250.336C126.173 250.083 125.753 249.7 125.445 249.188C125.138 248.675 124.984 248.025 124.984 247.239C124.984 246.07 125.418 245.192 126.286 244.604C127.161 244.016 128.481 243.691 130.244 243.63L132.213 243.558V242.963C132.213 242.177 132.028 241.617 131.659 241.282C131.297 240.947 130.784 240.779 130.121 240.779C129.554 240.779 129.003 240.861 128.47 241.025C127.937 241.189 127.418 241.391 126.912 241.63L126.132 239.928C126.686 239.634 127.315 239.395 128.019 239.21C128.73 239.026 129.468 238.934 130.234 238.934ZM132.203 245.076L130.736 245.127C129.533 245.168 128.689 245.373 128.204 245.742C127.718 246.111 127.476 246.617 127.476 247.26C127.476 247.82 127.643 248.23 127.978 248.49C128.313 248.743 128.754 248.87 129.301 248.87C130.135 248.87 130.825 248.634 131.372 248.162C131.926 247.684 132.203 246.983 132.203 246.06V245.076ZM143.928 238.934C144.119 238.934 144.328 238.944 144.553 238.964C144.779 238.985 144.974 239.012 145.138 239.046L144.912 241.302C144.769 241.261 144.591 241.23 144.379 241.21C144.174 241.189 143.989 241.179 143.825 241.179C143.395 241.179 142.984 241.251 142.595 241.395C142.205 241.531 141.86 241.743 141.559 242.03C141.258 242.311 141.023 242.663 140.852 243.086C140.681 243.51 140.595 244.002 140.595 244.563V250.5H138.175V239.149H140.062L140.39 241.148H140.503C140.729 240.745 141.009 240.376 141.344 240.041C141.679 239.706 142.062 239.439 142.492 239.241C142.93 239.036 143.408 238.934 143.928 238.934Z" fill="white"/>
<rect x="510" y="191" width="226" height="103" rx="8" fill="#020202"/>
<rect x="511" y="192" width="224" height="101" rx="7" stroke="white" stroke-opacity="0.9" stroke-width="2"/>
<path d="M594.038 223.509L590.121 238.5H587.435L584.933 229.518C584.871 229.299 584.803 229.039 584.728 228.738C584.653 228.438 584.578 228.13 584.502 227.815C584.434 227.501 584.372 227.214 584.318 226.954C584.27 226.688 584.236 226.482 584.215 226.339C584.202 226.482 584.171 226.684 584.123 226.944C584.075 227.204 584.017 227.491 583.949 227.805C583.887 228.113 583.819 228.42 583.744 228.728C583.668 229.029 583.6 229.295 583.538 229.528L581.078 238.5H578.401L574.495 223.509H576.966L579.129 232.296C579.198 232.577 579.266 232.881 579.334 233.209C579.41 233.53 579.478 233.855 579.539 234.183C579.608 234.511 579.669 234.833 579.724 235.147C579.779 235.455 579.823 235.735 579.857 235.988C579.891 235.728 579.936 235.441 579.991 235.126C580.045 234.805 580.103 234.48 580.165 234.152C580.233 233.817 580.302 233.496 580.37 233.188C580.445 232.881 580.52 232.604 580.596 232.358L583.036 223.509H585.435L587.927 232.389C588.002 232.642 588.074 232.925 588.142 233.24C588.218 233.554 588.289 233.875 588.358 234.204C588.426 234.532 588.488 234.85 588.542 235.157C588.597 235.465 588.641 235.742 588.676 235.988C588.724 235.653 588.785 235.27 588.86 234.839C588.935 234.409 589.021 233.971 589.117 233.527C589.212 233.083 589.308 232.672 589.404 232.296L591.557 223.509H594.038ZM600.647 226.934C601.659 226.934 602.527 227.142 603.251 227.559C603.976 227.976 604.533 228.567 604.923 229.333C605.312 230.099 605.507 231.015 605.507 232.081V233.373H597.93C597.957 234.474 598.251 235.321 598.811 235.916C599.379 236.511 600.172 236.808 601.19 236.808C601.915 236.808 602.564 236.74 603.139 236.603C603.72 236.459 604.318 236.251 604.933 235.978V237.936C604.366 238.203 603.788 238.397 603.2 238.521C602.612 238.644 601.908 238.705 601.088 238.705C599.974 238.705 598.993 238.49 598.145 238.059C597.304 237.622 596.644 236.972 596.166 236.111C595.694 235.25 595.458 234.18 595.458 232.901C595.458 231.63 595.674 230.55 596.104 229.661C596.535 228.772 597.14 228.096 597.919 227.631C598.699 227.166 599.608 226.934 600.647 226.934ZM600.647 228.749C599.888 228.749 599.273 228.995 598.801 229.487C598.336 229.979 598.063 230.7 597.981 231.65H603.149C603.142 231.083 603.046 230.581 602.862 230.143C602.684 229.706 602.411 229.364 602.041 229.118C601.679 228.872 601.214 228.749 600.647 228.749ZM610.844 222.545V226.39C610.844 226.834 610.831 227.272 610.803 227.703C610.783 228.126 610.762 228.458 610.742 228.697H610.844C611.152 228.205 611.579 227.792 612.126 227.457C612.68 227.115 613.387 226.944 614.248 226.944C615.595 226.944 616.679 227.439 617.499 228.431C618.319 229.415 618.729 230.875 618.729 232.809C618.729 234.094 618.541 235.174 618.165 236.049C617.79 236.924 617.26 237.587 616.576 238.039C615.899 238.483 615.103 238.705 614.187 238.705C613.326 238.705 612.628 238.548 612.095 238.233C611.569 237.912 611.155 237.54 610.854 237.116H610.68L610.239 238.5H608.435V222.545H610.844ZM613.613 228.902C612.929 228.902 612.386 229.039 611.982 229.312C611.586 229.586 611.299 229.996 611.121 230.543C610.943 231.083 610.851 231.77 610.844 232.604V232.819C610.844 234.084 611.042 235.051 611.439 235.721C611.842 236.391 612.574 236.726 613.633 236.726C614.474 236.726 615.12 236.388 615.571 235.711C616.022 235.027 616.248 234.05 616.248 232.778C616.248 231.493 616.022 230.526 615.571 229.876C615.127 229.227 614.474 228.902 613.613 228.902ZM624.138 222.545V226.554C624.138 226.971 624.125 227.378 624.097 227.774C624.077 228.171 624.053 228.479 624.025 228.697H624.159C624.398 228.301 624.692 227.976 625.041 227.723C625.389 227.463 625.779 227.269 626.209 227.139C626.647 227.009 627.112 226.944 627.604 226.944C628.472 226.944 629.21 227.091 629.819 227.385C630.427 227.672 630.892 228.12 631.213 228.728C631.542 229.336 631.706 230.126 631.706 231.097V238.5H629.296V231.548C629.296 230.666 629.115 230.006 628.752 229.569C628.39 229.125 627.83 228.902 627.071 228.902C626.339 228.902 625.758 229.056 625.328 229.364C624.904 229.665 624.6 230.112 624.415 230.707C624.23 231.295 624.138 232.013 624.138 232.86V238.5H621.729V222.545H624.138ZM645.338 232.799C645.338 233.742 645.215 234.58 644.969 235.311C644.723 236.042 644.364 236.661 643.892 237.167C643.42 237.666 642.853 238.049 642.19 238.315C641.527 238.575 640.778 238.705 639.944 238.705C639.165 238.705 638.451 238.575 637.801 238.315C637.152 238.049 636.588 237.666 636.109 237.167C635.638 236.661 635.272 236.042 635.012 235.311C634.752 234.58 634.623 233.742 634.623 232.799C634.623 231.548 634.838 230.488 635.269 229.62C635.706 228.745 636.328 228.079 637.135 227.621C637.941 227.163 638.902 226.934 640.016 226.934C641.062 226.934 641.985 227.163 642.785 227.621C643.585 228.079 644.21 228.745 644.661 229.62C645.112 230.495 645.338 231.555 645.338 232.799ZM637.104 232.799C637.104 233.626 637.203 234.333 637.401 234.921C637.606 235.509 637.921 235.96 638.345 236.275C638.769 236.583 639.315 236.736 639.985 236.736C640.655 236.736 641.202 236.583 641.626 236.275C642.05 235.96 642.361 235.509 642.559 234.921C642.757 234.333 642.856 233.626 642.856 232.799C642.856 231.972 642.757 231.271 642.559 230.697C642.361 230.116 642.05 229.675 641.626 229.374C641.202 229.066 640.652 228.913 639.975 228.913C638.977 228.913 638.249 229.248 637.791 229.917C637.333 230.587 637.104 231.548 637.104 232.799ZM658.365 232.799C658.365 233.742 658.242 234.58 657.996 235.311C657.75 236.042 657.391 236.661 656.92 237.167C656.448 237.666 655.88 238.049 655.217 238.315C654.554 238.575 653.806 238.705 652.972 238.705C652.192 238.705 651.478 238.575 650.829 238.315C650.179 238.049 649.615 237.666 649.137 237.167C648.665 236.661 648.299 236.042 648.04 235.311C647.78 234.58 647.65 233.742 647.65 232.799C647.65 231.548 647.865 230.488 648.296 229.62C648.733 228.745 649.356 228.079 650.162 227.621C650.969 227.163 651.929 226.934 653.044 226.934C654.089 226.934 655.012 227.163 655.812 227.621C656.612 228.079 657.237 228.745 657.689 229.62C658.14 230.495 658.365 231.555 658.365 232.799ZM650.131 232.799C650.131 233.626 650.231 234.333 650.429 234.921C650.634 235.509 650.948 235.96 651.372 236.275C651.796 236.583 652.343 236.736 653.013 236.736C653.683 236.736 654.23 236.583 654.653 236.275C655.077 235.96 655.388 235.509 655.587 234.921C655.785 234.333 655.884 233.626 655.884 232.799C655.884 231.972 655.785 231.271 655.587 230.697C655.388 230.116 655.077 229.675 654.653 229.374C654.23 229.066 653.679 228.913 653.003 228.913C652.004 228.913 651.276 229.248 650.818 229.917C650.36 230.587 650.131 231.548 650.131 232.799ZM663.754 222.545V230.256C663.754 230.604 663.74 230.987 663.713 231.404C663.685 231.814 663.658 232.201 663.63 232.563H663.682C663.859 232.324 664.071 232.043 664.318 231.722C664.57 231.401 664.81 231.121 665.035 230.881L668.501 227.149H671.27L666.727 232.03L671.567 238.5H668.737L665.107 233.517L663.754 234.675V238.5H661.344V222.545H663.754ZM595.443 262.5H592.993V255.732H586.081V262.5H583.62V247.509H586.081V253.641H592.993V247.509H595.443V262.5ZM603.826 250.934C605.261 250.934 606.345 251.251 607.076 251.887C607.814 252.523 608.184 253.514 608.184 254.861V262.5H606.471L606.01 260.89H605.928C605.606 261.3 605.275 261.639 604.933 261.905C604.591 262.172 604.195 262.37 603.744 262.5C603.299 262.637 602.756 262.705 602.113 262.705C601.436 262.705 600.831 262.582 600.298 262.336C599.765 262.083 599.345 261.7 599.037 261.188C598.729 260.675 598.576 260.025 598.576 259.239C598.576 258.07 599.01 257.192 599.878 256.604C600.753 256.016 602.072 255.691 603.836 255.63L605.805 255.558V254.963C605.805 254.177 605.62 253.617 605.251 253.282C604.889 252.947 604.376 252.779 603.713 252.779C603.145 252.779 602.595 252.861 602.062 253.025C601.529 253.189 601.009 253.391 600.503 253.63L599.724 251.928C600.278 251.634 600.907 251.395 601.611 251.21C602.322 251.026 603.06 250.934 603.826 250.934ZM605.794 257.076L604.328 257.127C603.125 257.168 602.281 257.373 601.795 257.742C601.31 258.111 601.067 258.617 601.067 259.26C601.067 259.82 601.235 260.23 601.57 260.49C601.905 260.743 602.346 260.87 602.893 260.87C603.726 260.87 604.417 260.634 604.964 260.162C605.518 259.684 605.794 258.983 605.794 258.06V257.076ZM617.684 250.934C618.962 250.934 619.957 251.265 620.667 251.928C621.385 252.584 621.744 253.641 621.744 255.097V262.5H619.334V255.548C619.334 254.666 619.153 254.006 618.791 253.569C618.429 253.125 617.868 252.902 617.109 252.902C616.009 252.902 615.243 253.241 614.812 253.917C614.389 254.594 614.177 255.575 614.177 256.86V262.5H611.767V251.149H613.644L613.982 252.687H614.115C614.361 252.291 614.665 251.966 615.028 251.713C615.397 251.453 615.807 251.258 616.258 251.128C616.716 250.999 617.191 250.934 617.684 250.934ZM629.142 262.705C627.789 262.705 626.702 262.213 625.881 261.229C625.068 260.237 624.661 258.778 624.661 256.85C624.661 254.902 625.075 253.429 625.902 252.431C626.736 251.433 627.833 250.934 629.193 250.934C629.768 250.934 630.27 251.012 630.701 251.169C631.131 251.32 631.5 251.525 631.808 251.785C632.123 252.044 632.389 252.335 632.608 252.656H632.721C632.687 252.444 632.646 252.14 632.598 251.744C632.557 251.34 632.536 250.968 632.536 250.626V246.545H634.956V262.5H633.069L632.639 260.952H632.536C632.331 261.28 632.071 261.577 631.757 261.844C631.449 262.104 631.08 262.312 630.649 262.469C630.226 262.626 629.723 262.705 629.142 262.705ZM629.819 260.747C630.851 260.747 631.579 260.449 632.003 259.854C632.427 259.26 632.646 258.368 632.659 257.178V256.86C632.659 255.589 632.454 254.615 632.044 253.938C631.634 253.254 630.885 252.913 629.798 252.913C628.93 252.913 628.267 253.265 627.809 253.969C627.358 254.666 627.132 255.64 627.132 256.891C627.132 258.142 627.358 259.099 627.809 259.762C628.267 260.418 628.937 260.747 629.819 260.747ZM641.042 262.5H638.622V246.545H641.042V262.5ZM649.219 250.934C650.231 250.934 651.099 251.142 651.823 251.559C652.548 251.976 653.105 252.567 653.495 253.333C653.884 254.099 654.079 255.015 654.079 256.081V257.373H646.502C646.529 258.474 646.823 259.321 647.383 259.916C647.951 260.511 648.744 260.808 649.762 260.808C650.487 260.808 651.136 260.74 651.711 260.603C652.292 260.459 652.89 260.251 653.505 259.978V261.936C652.938 262.203 652.36 262.397 651.772 262.521C651.184 262.644 650.48 262.705 649.66 262.705C648.545 262.705 647.565 262.49 646.717 262.059C645.876 261.622 645.216 260.972 644.738 260.111C644.266 259.25 644.03 258.18 644.03 256.901C644.03 255.63 644.246 254.55 644.676 253.661C645.107 252.772 645.712 252.096 646.491 251.631C647.271 251.166 648.18 250.934 649.219 250.934ZM649.219 252.749C648.46 252.749 647.845 252.995 647.373 253.487C646.908 253.979 646.635 254.7 646.553 255.65H651.721C651.714 255.083 651.618 254.581 651.434 254.143C651.256 253.706 650.982 253.364 650.613 253.118C650.251 252.872 649.786 252.749 649.219 252.749ZM662.759 250.934C662.95 250.934 663.159 250.944 663.384 250.964C663.61 250.985 663.805 251.012 663.969 251.046L663.743 253.302C663.6 253.261 663.422 253.23 663.21 253.21C663.005 253.189 662.82 253.179 662.656 253.179C662.226 253.179 661.816 253.251 661.426 253.395C661.036 253.531 660.691 253.743 660.39 254.03C660.089 254.311 659.854 254.663 659.683 255.086C659.512 255.51 659.426 256.002 659.426 256.563V262.5H657.006V251.149H658.893L659.221 253.148H659.334C659.56 252.745 659.84 252.376 660.175 252.041C660.51 251.706 660.893 251.439 661.323 251.241C661.761 251.036 662.239 250.934 662.759 250.934Z" fill="white"/>
<rect width="98" height="18" transform="translate(573.5 182)" fill="#020202"/>
<path d="M585.526 187.062C585.526 185.923 586.634 185 588.001 185H589.126C589.5 185 589.801 185.251 589.801 185.562C589.801 185.874 589.5 186.125 589.126 186.125H588.001C587.38 186.125 586.876 186.544 586.876 187.062V189.5H588.226C588.6 189.5 588.901 189.751 588.901 190.062C588.901 190.374 588.6 190.625 588.226 190.625H586.876V194.157C586.876 195.207 585.929 196.09 584.674 196.208L584.25 196.247C583.878 196.283 583.547 196.06 583.504 195.751C583.462 195.441 583.729 195.165 584.101 195.129L584.525 195.09C585.096 195.036 585.526 194.635 585.526 194.157V190.625H584.177C583.802 190.625 583.502 190.374 583.502 190.062C583.502 189.751 583.802 189.5 584.177 189.5H585.526V187.062ZM592.397 188.862C591.612 189.901 591.151 191.152 591.151 192.5C591.151 193.847 591.612 195.099 592.397 196.137C592.596 196.4 592.501 196.747 592.186 196.913C591.871 197.079 591.455 197 591.255 196.737C590.335 195.521 589.801 194.063 589.801 192.5C589.801 190.937 590.335 189.479 591.255 188.262C591.455 188 591.871 187.92 592.186 188.087C592.501 188.253 592.596 188.6 592.397 188.862ZM598.904 188.862C598.705 188.6 598.8 188.253 599.115 188.087C599.43 187.92 599.846 188 600.046 188.262C600.966 189.479 601.5 190.937 601.5 192.5C601.5 194.063 600.966 195.521 600.046 196.737C599.846 197 599.43 197.079 599.115 196.913C598.8 196.747 598.705 196.4 598.904 196.137C599.689 195.099 600.15 193.847 600.15 192.5C600.15 191.152 599.689 189.901 598.904 188.862ZM594.554 190.789L595.651 191.703L596.747 190.789C597.012 190.569 597.439 190.569 597.701 190.789C597.962 191.009 597.965 191.365 597.701 191.583L596.604 192.497L597.701 193.412C597.965 193.632 597.965 193.988 597.701 194.206C597.436 194.424 597.009 194.426 596.747 194.206L595.651 193.292L594.554 194.206C594.289 194.426 593.862 194.426 593.6 194.206C593.339 193.986 593.336 193.629 593.6 193.412L594.697 192.497L593.6 191.583C593.336 191.363 593.336 191.007 593.6 190.789C593.865 190.571 594.292 190.569 594.554 190.789Z" fill="#FF5C00"/>
<path d="M609.282 196H607.771V186.72H613.015V188.002H609.282V190.896H612.773V192.172H609.282V196ZM620.676 188.973V196H619.502L619.299 195.054H619.216C619.068 195.295 618.88 195.496 618.651 195.657C618.423 195.814 618.169 195.93 617.89 196.006C617.61 196.087 617.316 196.127 617.007 196.127C616.478 196.127 616.026 196.038 615.649 195.86C615.277 195.678 614.991 195.399 614.792 195.022C614.593 194.646 614.494 194.159 614.494 193.562V188.973H615.992V193.283C615.992 193.829 616.102 194.237 616.322 194.508C616.546 194.779 616.893 194.915 617.363 194.915C617.816 194.915 618.175 194.821 618.442 194.635C618.708 194.449 618.897 194.174 619.007 193.81C619.121 193.446 619.178 193 619.178 192.471V188.973H620.676ZM626.478 188.84C627.269 188.84 627.885 189.045 628.325 189.456C628.77 189.862 628.992 190.516 628.992 191.417V196H627.5V191.696C627.5 191.15 627.388 190.742 627.164 190.471C626.939 190.196 626.592 190.059 626.123 190.059C625.441 190.059 624.967 190.268 624.701 190.687C624.438 191.106 624.307 191.713 624.307 192.509V196H622.815V188.973H623.977L624.187 189.925H624.269C624.421 189.68 624.61 189.479 624.834 189.322C625.062 189.161 625.316 189.041 625.596 188.96C625.879 188.88 626.173 188.84 626.478 188.84ZM633.911 196.127C633.247 196.127 632.671 195.998 632.185 195.74C631.698 195.482 631.323 195.086 631.061 194.553C630.799 194.02 630.667 193.342 630.667 192.521C630.667 191.667 630.811 190.968 631.099 190.427C631.387 189.885 631.785 189.485 632.292 189.227C632.805 188.969 633.391 188.84 634.051 188.84C634.47 188.84 634.848 188.882 635.187 188.967C635.53 189.047 635.82 189.147 636.057 189.265L635.612 190.458C635.354 190.353 635.09 190.264 634.819 190.192C634.548 190.12 634.288 190.084 634.038 190.084C633.628 190.084 633.285 190.175 633.01 190.357C632.739 190.539 632.536 190.81 632.4 191.169C632.269 191.529 632.204 191.976 632.204 192.509C632.204 193.025 632.271 193.461 632.407 193.816C632.542 194.168 632.743 194.434 633.01 194.616C633.276 194.794 633.604 194.883 633.994 194.883C634.379 194.883 634.724 194.836 635.028 194.743C635.333 194.65 635.621 194.529 635.892 194.381V195.676C635.625 195.829 635.339 195.941 635.035 196.013C634.73 196.089 634.355 196.127 633.911 196.127ZM640.157 194.921C640.352 194.921 640.544 194.904 640.735 194.87C640.925 194.832 641.099 194.788 641.255 194.737V195.867C641.09 195.939 640.877 196 640.614 196.051C640.352 196.102 640.079 196.127 639.795 196.127C639.398 196.127 639.04 196.061 638.723 195.93C638.405 195.795 638.153 195.564 637.967 195.238C637.781 194.912 637.688 194.462 637.688 193.886V190.109H636.729V189.443L637.758 188.916L638.247 187.412H639.186V188.973H641.198V190.109H639.186V193.867C639.186 194.223 639.275 194.487 639.453 194.661C639.63 194.834 639.865 194.921 640.157 194.921ZM644.175 188.973V196H642.684V188.973H644.175ZM643.439 186.282C643.667 186.282 643.864 186.343 644.029 186.466C644.199 186.589 644.283 186.8 644.283 187.101C644.283 187.397 644.199 187.608 644.029 187.735C643.864 187.858 643.667 187.919 643.439 187.919C643.202 187.919 643.001 187.858 642.836 187.735C642.675 187.608 642.595 187.397 642.595 187.101C642.595 186.8 642.675 186.589 642.836 186.466C643.001 186.343 643.202 186.282 643.439 186.282ZM652.535 192.471C652.535 193.055 652.459 193.573 652.307 194.026C652.154 194.479 651.932 194.862 651.64 195.175C651.348 195.484 650.997 195.721 650.586 195.886C650.176 196.047 649.713 196.127 649.196 196.127C648.714 196.127 648.272 196.047 647.87 195.886C647.468 195.721 647.118 195.484 646.822 195.175C646.53 194.862 646.304 194.479 646.143 194.026C645.982 193.573 645.902 193.055 645.902 192.471C645.902 191.696 646.035 191.04 646.302 190.503C646.573 189.961 646.958 189.549 647.457 189.265C647.956 188.982 648.551 188.84 649.241 188.84C649.888 188.84 650.459 188.982 650.955 189.265C651.45 189.549 651.837 189.961 652.116 190.503C652.396 191.045 652.535 191.701 652.535 192.471ZM647.438 192.471C647.438 192.983 647.499 193.421 647.622 193.785C647.749 194.149 647.944 194.428 648.206 194.623C648.468 194.813 648.807 194.908 649.222 194.908C649.636 194.908 649.975 194.813 650.237 194.623C650.5 194.428 650.692 194.149 650.815 193.785C650.938 193.421 650.999 192.983 650.999 192.471C650.999 191.959 650.938 191.525 650.815 191.169C650.692 190.81 650.5 190.537 650.237 190.351C649.975 190.16 649.634 190.065 649.215 190.065C648.597 190.065 648.147 190.272 647.863 190.687C647.58 191.102 647.438 191.696 647.438 192.471ZM657.912 188.84C658.703 188.84 659.319 189.045 659.759 189.456C660.203 189.862 660.425 190.516 660.425 191.417V196H658.934V191.696C658.934 191.15 658.821 190.742 658.597 190.471C658.373 190.196 658.026 190.059 657.556 190.059C656.875 190.059 656.401 190.268 656.134 190.687C655.872 191.106 655.741 191.713 655.741 192.509V196H654.249V188.973H655.411L655.62 189.925H655.703C655.855 189.68 656.043 189.479 656.268 189.322C656.496 189.161 656.75 189.041 657.029 188.96C657.313 188.88 657.607 188.84 657.912 188.84Z" fill="#FF5C00"/>
<rect x="920" y="71" width="226" height="103" rx="8" fill="#020202"/>
<rect x="921" y="72" width="224" height="101" rx="7" stroke="white" stroke-opacity="0.9" stroke-width="2"/>
<path d="M1014.19 130.5L1012.73 126.337H1007L1005.53 130.5H1002.94L1008.51 115.447H1011.24L1016.81 130.5H1014.19ZM1012.09 124.225L1010.67 120.123C1010.61 119.945 1010.53 119.696 1010.43 119.375C1010.33 119.046 1010.23 118.715 1010.12 118.38C1010.02 118.038 1009.94 117.751 1009.87 117.519C1009.8 117.799 1009.71 118.113 1009.61 118.462C1009.52 118.804 1009.42 119.125 1009.32 119.426C1009.24 119.727 1009.17 119.959 1009.12 120.123L1007.68 124.225H1012.09ZM1021.99 135.545C1020.45 135.545 1019.28 135.268 1018.46 134.714C1017.63 134.161 1017.22 133.385 1017.22 132.387C1017.22 131.689 1017.44 131.098 1017.88 130.613C1018.32 130.134 1018.94 129.803 1019.76 129.618C1019.45 129.481 1019.18 129.27 1018.96 128.982C1018.74 128.688 1018.63 128.364 1018.63 128.008C1018.63 127.584 1018.75 127.222 1018.99 126.921C1019.23 126.621 1019.59 126.33 1020.06 126.05C1019.47 125.797 1018.99 125.387 1018.63 124.819C1018.27 124.245 1018.1 123.572 1018.1 122.799C1018.1 121.979 1018.27 121.282 1018.62 120.708C1018.97 120.126 1019.48 119.686 1020.15 119.385C1020.82 119.077 1021.63 118.923 1022.58 118.923C1022.78 118.923 1023 118.937 1023.24 118.964C1023.49 118.985 1023.72 119.012 1023.92 119.046C1024.13 119.074 1024.29 119.104 1024.4 119.139H1028.33V120.482L1026.4 120.841C1026.59 121.101 1026.73 121.398 1026.84 121.733C1026.95 122.061 1027.01 122.42 1027.01 122.81C1027.01 123.985 1026.6 124.912 1025.79 125.588C1024.98 126.258 1023.87 126.593 1022.44 126.593C1022.1 126.58 1021.77 126.552 1021.45 126.511C1021.2 126.662 1021.02 126.829 1020.89 127.014C1020.76 127.191 1020.69 127.393 1020.69 127.619C1020.69 127.803 1020.76 127.954 1020.89 128.07C1021.02 128.179 1021.21 128.261 1021.46 128.316C1021.72 128.371 1022.03 128.398 1022.4 128.398H1024.36C1025.61 128.398 1026.56 128.661 1027.21 129.188C1027.87 129.714 1028.2 130.486 1028.2 131.505C1028.2 132.797 1027.66 133.792 1026.6 134.489C1025.53 135.193 1024 135.545 1021.99 135.545ZM1022.08 133.853C1022.93 133.853 1023.63 133.771 1024.21 133.607C1024.78 133.443 1025.22 133.207 1025.51 132.899C1025.8 132.599 1025.95 132.24 1025.95 131.823C1025.95 131.454 1025.86 131.17 1025.67 130.972C1025.49 130.773 1025.21 130.637 1024.84 130.562C1024.47 130.486 1024.02 130.449 1023.47 130.449H1021.69C1021.24 130.449 1020.85 130.517 1020.51 130.654C1020.16 130.797 1019.9 131.002 1019.71 131.269C1019.52 131.536 1019.43 131.857 1019.43 132.233C1019.43 132.752 1019.66 133.152 1020.12 133.433C1020.58 133.713 1021.24 133.853 1022.08 133.853ZM1022.56 125.014C1023.26 125.014 1023.78 124.823 1024.13 124.44C1024.47 124.05 1024.64 123.503 1024.64 122.799C1024.64 122.034 1024.46 121.459 1024.1 121.077C1023.76 120.694 1023.24 120.502 1022.55 120.502C1021.87 120.502 1021.35 120.697 1021 121.087C1020.65 121.477 1020.48 122.054 1020.48 122.82C1020.48 123.51 1020.65 124.05 1021 124.44C1021.35 124.823 1021.87 125.014 1022.56 125.014ZM1035.13 118.934C1036.14 118.934 1037.01 119.142 1037.74 119.559C1038.46 119.976 1039.02 120.567 1039.41 121.333C1039.8 122.099 1039.99 123.015 1039.99 124.081V125.373H1032.42C1032.44 126.474 1032.74 127.321 1033.3 127.916C1033.86 128.511 1034.66 128.808 1035.68 128.808C1036.4 128.808 1037.05 128.74 1037.62 128.603C1038.21 128.459 1038.8 128.251 1039.42 127.978V129.936C1038.85 130.203 1038.27 130.397 1037.69 130.521C1037.1 130.644 1036.39 130.705 1035.57 130.705C1034.46 130.705 1033.48 130.49 1032.63 130.059C1031.79 129.622 1031.13 128.972 1030.65 128.111C1030.18 127.25 1029.94 126.18 1029.94 124.901C1029.94 123.63 1030.16 122.55 1030.59 121.661C1031.02 120.772 1031.63 120.096 1032.41 119.631C1033.18 119.166 1034.09 118.934 1035.13 118.934ZM1035.13 120.749C1034.37 120.749 1033.76 120.995 1033.29 121.487C1032.82 121.979 1032.55 122.7 1032.47 123.65H1037.63C1037.63 123.083 1037.53 122.581 1037.35 122.143C1037.17 121.706 1036.9 121.364 1036.53 121.118C1036.17 120.872 1035.7 120.749 1035.13 120.749ZM1048.84 118.934C1050.12 118.934 1051.11 119.265 1051.82 119.928C1052.54 120.584 1052.9 121.641 1052.9 123.097V130.5H1050.49V123.548C1050.49 122.666 1050.31 122.006 1049.94 121.569C1049.58 121.125 1049.02 120.902 1048.26 120.902C1047.16 120.902 1046.4 121.241 1045.97 121.917C1045.54 122.594 1045.33 123.575 1045.33 124.86V130.5H1042.92V119.149H1044.8L1045.14 120.687H1045.27C1045.51 120.291 1045.82 119.966 1046.18 119.713C1046.55 119.453 1046.96 119.258 1047.41 119.128C1047.87 118.999 1048.34 118.934 1048.84 118.934ZM1060.71 128.757C1061.02 128.757 1061.33 128.729 1061.64 128.675C1061.95 128.613 1062.23 128.542 1062.48 128.459V130.285C1062.21 130.401 1061.87 130.5 1061.44 130.582C1061.02 130.664 1060.58 130.705 1060.12 130.705C1059.48 130.705 1058.9 130.599 1058.39 130.387C1057.88 130.168 1057.47 129.796 1057.17 129.27C1056.87 128.743 1056.72 128.015 1056.72 127.085V120.984H1055.17V119.908L1056.83 119.057L1057.62 116.626H1059.14V119.149H1062.39V120.984H1059.14V127.055C1059.14 127.629 1059.28 128.056 1059.57 128.336C1059.85 128.617 1060.23 128.757 1060.71 128.757Z" fill="white"/>
<rect width="77" height="18" transform="translate(994 62)" fill="#020202"/>
<g clip-path="url(#clip0_12_1110)">
<path d="M1012.95 69.752C1013.79 69.752 1014.6 69.4226 1015.2 68.8364C1015.8 68.2501 1016.13 67.455 1016.13 66.626C1016.13 65.7969 1015.8 65.0018 1015.2 64.4156C1014.6 63.8293 1013.79 63.5 1012.95 63.5C1012.1 63.5 1011.29 63.8293 1010.7 64.4156C1010.1 65.0018 1009.76 65.7969 1009.76 66.626C1009.76 67.455 1010.1 68.2501 1010.7 68.8364C1011.29 69.4226 1012.1 69.752 1012.95 69.752ZM1010.32 71.0615L1011.91 73.7686C1012.35 74.5156 1012.09 75.4736 1011.33 75.9043L1008.57 77.4688C1007.81 77.8994 1006.84 77.6445 1006.4 76.8975L1004.81 74.1875C1004.37 73.4404 1004.63 72.4824 1005.39 72.0518L1008.15 70.4902C1008.91 70.0596 1009.88 70.3145 1010.32 71.0615ZM1015.65 70.8945C1015.69 70.6719 1015.86 70.4902 1016.08 70.4258C1016.3 70.3613 1016.54 70.4229 1016.7 70.5898C1017.81 71.75 1019.76 73.7832 1020.78 74.8525C1020.92 75.002 1020.98 75.2158 1020.92 75.415C1020.87 75.6143 1020.71 75.7725 1020.51 75.8311C1019.17 76.2236 1016.74 76.9385 1015.4 77.3311C1015.2 77.3896 1014.98 77.3428 1014.82 77.2051C1014.67 77.0674 1014.59 76.8594 1014.63 76.6572C1014.89 75.21 1015.38 72.4619 1015.65 70.8945Z" fill="#FF5C00"/>
</g>
<path d="M1034.1 76L1033.19 73.4229H1029.64L1028.73 76H1027.13L1030.58 66.6816H1032.27L1035.72 76H1034.1ZM1032.8 72.1152L1031.91 69.5762C1031.88 69.4661 1031.83 69.3117 1031.77 69.1128C1031.7 68.9097 1031.64 68.7044 1031.58 68.4971C1031.51 68.2855 1031.46 68.1077 1031.42 67.9639C1031.38 68.1374 1031.32 68.332 1031.26 68.5479C1031.2 68.7594 1031.14 68.9583 1031.08 69.1445C1031.03 69.3307 1030.99 69.4746 1030.96 69.5762L1030.07 72.1152H1032.8ZM1039.62 76.127C1038.96 76.127 1038.38 75.9979 1037.89 75.7397C1037.41 75.4816 1037.03 75.0859 1036.77 74.5527C1036.51 74.0195 1036.38 73.3424 1036.38 72.5215C1036.38 71.6667 1036.52 70.9684 1036.81 70.4268C1037.1 69.8851 1037.49 69.4852 1038 69.2271C1038.51 68.9689 1039.1 68.8398 1039.76 68.8398C1040.18 68.8398 1040.56 68.8822 1040.9 68.9668C1041.24 69.0472 1041.53 69.1466 1041.77 69.2651L1041.32 70.4585C1041.06 70.3527 1040.8 70.2638 1040.53 70.1919C1040.26 70.12 1040 70.084 1039.75 70.084C1039.34 70.084 1038.99 70.175 1038.72 70.3569C1038.45 70.5389 1038.24 70.8097 1038.11 71.1694C1037.98 71.5291 1037.91 71.9756 1037.91 72.5088C1037.91 73.0251 1037.98 73.4609 1038.12 73.8164C1038.25 74.1676 1038.45 74.4342 1038.72 74.6162C1038.99 74.7939 1039.31 74.8828 1039.7 74.8828C1040.09 74.8828 1040.43 74.8363 1040.74 74.7432C1041.04 74.6501 1041.33 74.5295 1041.6 74.3813V75.6763C1041.33 75.8286 1041.05 75.9408 1040.74 76.0127C1040.44 76.0889 1040.06 76.127 1039.62 76.127ZM1045.87 74.9209C1046.06 74.9209 1046.25 74.904 1046.44 74.8701C1046.63 74.832 1046.81 74.7876 1046.96 74.7368V75.8667C1046.8 75.9386 1046.59 76 1046.32 76.0508C1046.06 76.1016 1045.79 76.127 1045.5 76.127C1045.11 76.127 1044.75 76.0614 1044.43 75.9302C1044.11 75.7948 1043.86 75.5641 1043.68 75.2383C1043.49 74.9124 1043.4 74.4618 1043.4 73.8862V70.1094H1042.44V69.4429L1043.47 68.916L1043.96 67.4116H1044.9V68.9731H1046.91V70.1094H1044.9V73.8672C1044.9 74.2227 1044.98 74.4871 1045.16 74.6606C1045.34 74.8341 1045.57 74.9209 1045.87 74.9209ZM1054.61 72.4707C1054.61 73.0547 1054.54 73.5731 1054.38 74.0259C1054.23 74.4787 1054.01 74.8617 1053.72 75.1748C1053.43 75.4837 1053.08 75.7207 1052.66 75.8857C1052.25 76.0465 1051.79 76.127 1051.27 76.127C1050.79 76.127 1050.35 76.0465 1049.95 75.8857C1049.55 75.7207 1049.2 75.4837 1048.9 75.1748C1048.61 74.8617 1048.38 74.4787 1048.22 74.0259C1048.06 73.5731 1047.98 73.0547 1047.98 72.4707C1047.98 71.6963 1048.11 71.0404 1048.38 70.5029C1048.65 69.9613 1049.04 69.5487 1049.54 69.2651C1050.03 68.9816 1050.63 68.8398 1051.32 68.8398C1051.97 68.8398 1052.54 68.9816 1053.03 69.2651C1053.53 69.5487 1053.92 69.9613 1054.19 70.5029C1054.47 71.0446 1054.61 71.7005 1054.61 72.4707ZM1049.52 72.4707C1049.52 72.9827 1049.58 73.4207 1049.7 73.7847C1049.83 74.1486 1050.02 74.4279 1050.28 74.6226C1050.55 74.813 1050.89 74.9082 1051.3 74.9082C1051.71 74.9082 1052.05 74.813 1052.32 74.6226C1052.58 74.4279 1052.77 74.1486 1052.89 73.7847C1053.02 73.4207 1053.08 72.9827 1053.08 72.4707C1053.08 71.9587 1053.02 71.5249 1052.89 71.1694C1052.77 70.8097 1052.58 70.5368 1052.32 70.3506C1052.05 70.1602 1051.71 70.0649 1051.29 70.0649C1050.68 70.0649 1050.22 70.2723 1049.94 70.687C1049.66 71.1017 1049.52 71.6963 1049.52 72.4707ZM1059.89 68.8398C1060.01 68.8398 1060.14 68.8462 1060.28 68.8589C1060.42 68.8716 1060.54 68.8885 1060.64 68.9097L1060.5 70.3062C1060.41 70.2808 1060.3 70.2617 1060.17 70.249C1060.04 70.2363 1059.93 70.23 1059.82 70.23C1059.56 70.23 1059.3 70.2744 1059.06 70.3633C1058.82 70.4479 1058.61 70.5791 1058.42 70.7568C1058.24 70.9303 1058.09 71.1483 1057.98 71.4106C1057.88 71.673 1057.83 71.9777 1057.83 72.3247V76H1056.33V68.9731H1057.5L1057.7 70.2109H1057.77C1057.91 69.9613 1058.08 69.7327 1058.29 69.5254C1058.5 69.318 1058.73 69.153 1059 69.0303C1059.27 68.9033 1059.57 68.8398 1059.89 68.8398Z" fill="#FF5C00"/>
<rect x="920" y="305" width="226" height="103" rx="8" fill="#020202"/>
<rect x="921" y="306" width="224" height="101" rx="7" stroke="white" stroke-opacity="0.9" stroke-width="2"/>
<path d="M1014.19 364.5L1012.73 360.337H1007L1005.53 364.5H1002.94L1008.51 349.447H1011.24L1016.81 364.5H1014.19ZM1012.09 358.225L1010.67 354.123C1010.61 353.945 1010.53 353.696 1010.43 353.375C1010.33 353.046 1010.23 352.715 1010.12 352.38C1010.02 352.038 1009.94 351.751 1009.87 351.519C1009.8 351.799 1009.71 352.113 1009.61 352.462C1009.52 352.804 1009.42 353.125 1009.32 353.426C1009.24 353.727 1009.17 353.959 1009.12 354.123L1007.68 358.225H1012.09ZM1021.99 369.545C1020.45 369.545 1019.28 369.268 1018.46 368.714C1017.63 368.161 1017.22 367.385 1017.22 366.387C1017.22 365.689 1017.44 365.098 1017.88 364.613C1018.32 364.134 1018.94 363.803 1019.76 363.618C1019.45 363.481 1019.18 363.27 1018.96 362.982C1018.74 362.688 1018.63 362.364 1018.63 362.008C1018.63 361.584 1018.75 361.222 1018.99 360.921C1019.23 360.621 1019.59 360.33 1020.06 360.05C1019.47 359.797 1018.99 359.387 1018.63 358.819C1018.27 358.245 1018.1 357.572 1018.1 356.799C1018.1 355.979 1018.27 355.282 1018.62 354.708C1018.97 354.126 1019.48 353.686 1020.15 353.385C1020.82 353.077 1021.63 352.923 1022.58 352.923C1022.78 352.923 1023 352.937 1023.24 352.964C1023.49 352.985 1023.72 353.012 1023.92 353.046C1024.13 353.074 1024.29 353.104 1024.4 353.139H1028.33V354.482L1026.4 354.841C1026.59 355.101 1026.73 355.398 1026.84 355.733C1026.95 356.061 1027.01 356.42 1027.01 356.81C1027.01 357.985 1026.6 358.912 1025.79 359.588C1024.98 360.258 1023.87 360.593 1022.44 360.593C1022.1 360.58 1021.77 360.552 1021.45 360.511C1021.2 360.662 1021.02 360.829 1020.89 361.014C1020.76 361.191 1020.69 361.393 1020.69 361.619C1020.69 361.803 1020.76 361.954 1020.89 362.07C1021.02 362.179 1021.21 362.261 1021.46 362.316C1021.72 362.371 1022.03 362.398 1022.4 362.398H1024.36C1025.61 362.398 1026.56 362.661 1027.21 363.188C1027.87 363.714 1028.2 364.486 1028.2 365.505C1028.2 366.797 1027.66 367.792 1026.6 368.489C1025.53 369.193 1024 369.545 1021.99 369.545ZM1022.08 367.853C1022.93 367.853 1023.63 367.771 1024.21 367.607C1024.78 367.443 1025.22 367.207 1025.51 366.899C1025.8 366.599 1025.95 366.24 1025.95 365.823C1025.95 365.454 1025.86 365.17 1025.67 364.972C1025.49 364.773 1025.21 364.637 1024.84 364.562C1024.47 364.486 1024.02 364.449 1023.47 364.449H1021.69C1021.24 364.449 1020.85 364.517 1020.51 364.654C1020.16 364.797 1019.9 365.002 1019.71 365.269C1019.52 365.536 1019.43 365.857 1019.43 366.233C1019.43 366.752 1019.66 367.152 1020.12 367.433C1020.58 367.713 1021.24 367.853 1022.08 367.853ZM1022.56 359.014C1023.26 359.014 1023.78 358.823 1024.13 358.44C1024.47 358.05 1024.64 357.503 1024.64 356.799C1024.64 356.034 1024.46 355.459 1024.1 355.077C1023.76 354.694 1023.24 354.502 1022.55 354.502C1021.87 354.502 1021.35 354.697 1021 355.087C1020.65 355.477 1020.48 356.054 1020.48 356.82C1020.48 357.51 1020.65 358.05 1021 358.44C1021.35 358.823 1021.87 359.014 1022.56 359.014ZM1035.13 352.934C1036.14 352.934 1037.01 353.142 1037.74 353.559C1038.46 353.976 1039.02 354.567 1039.41 355.333C1039.8 356.099 1039.99 357.015 1039.99 358.081V359.373H1032.42C1032.44 360.474 1032.74 361.321 1033.3 361.916C1033.86 362.511 1034.66 362.808 1035.68 362.808C1036.4 362.808 1037.05 362.74 1037.62 362.603C1038.21 362.459 1038.8 362.251 1039.42 361.978V363.936C1038.85 364.203 1038.27 364.397 1037.69 364.521C1037.1 364.644 1036.39 364.705 1035.57 364.705C1034.46 364.705 1033.48 364.49 1032.63 364.059C1031.79 363.622 1031.13 362.972 1030.65 362.111C1030.18 361.25 1029.94 360.18 1029.94 358.901C1029.94 357.63 1030.16 356.55 1030.59 355.661C1031.02 354.772 1031.63 354.096 1032.41 353.631C1033.18 353.166 1034.09 352.934 1035.13 352.934ZM1035.13 354.749C1034.37 354.749 1033.76 354.995 1033.29 355.487C1032.82 355.979 1032.55 356.7 1032.47 357.65H1037.63C1037.63 357.083 1037.53 356.581 1037.35 356.143C1037.17 355.706 1036.9 355.364 1036.53 355.118C1036.17 354.872 1035.7 354.749 1035.13 354.749ZM1048.84 352.934C1050.12 352.934 1051.11 353.265 1051.82 353.928C1052.54 354.584 1052.9 355.641 1052.9 357.097V364.5H1050.49V357.548C1050.49 356.666 1050.31 356.006 1049.94 355.569C1049.58 355.125 1049.02 354.902 1048.26 354.902C1047.16 354.902 1046.4 355.241 1045.97 355.917C1045.54 356.594 1045.33 357.575 1045.33 358.86V364.5H1042.92V353.149H1044.8L1045.14 354.687H1045.27C1045.51 354.291 1045.82 353.966 1046.18 353.713C1046.55 353.453 1046.96 353.258 1047.41 353.128C1047.87 352.999 1048.34 352.934 1048.84 352.934ZM1060.71 362.757C1061.02 362.757 1061.33 362.729 1061.64 362.675C1061.95 362.613 1062.23 362.542 1062.48 362.459V364.285C1062.21 364.401 1061.87 364.5 1061.44 364.582C1061.02 364.664 1060.58 364.705 1060.12 364.705C1059.48 364.705 1058.9 364.599 1058.39 364.387C1057.88 364.168 1057.47 363.796 1057.17 363.27C1056.87 362.743 1056.72 362.015 1056.72 361.085V354.984H1055.17V353.908L1056.83 353.057L1057.62 350.626H1059.14V353.149H1062.39V354.984H1059.14V361.055C1059.14 361.629 1059.28 362.056 1059.57 362.336C1059.85 362.617 1060.23 362.757 1060.71 362.757Z" fill="white"/>
<rect width="77" height="18" transform="translate(994 296)" fill="#020202"/>
<g clip-path="url(#clip1_12_1110)">
<path d="M1012.95 303.752C1013.79 303.752 1014.6 303.423 1015.2 302.836C1015.8 302.25 1016.13 301.455 1016.13 300.626C1016.13 299.797 1015.8 299.002 1015.2 298.416C1014.6 297.829 1013.79 297.5 1012.95 297.5C1012.1 297.5 1011.29 297.829 1010.7 298.416C1010.1 299.002 1009.76 299.797 1009.76 300.626C1009.76 301.455 1010.1 302.25 1010.7 302.836C1011.29 303.423 1012.1 303.752 1012.95 303.752ZM1010.32 305.062L1011.91 307.769C1012.35 308.516 1012.09 309.474 1011.33 309.904L1008.57 311.469C1007.81 311.899 1006.84 311.645 1006.4 310.897L1004.81 308.188C1004.37 307.44 1004.63 306.482 1005.39 306.052L1008.15 304.49C1008.91 304.06 1009.88 304.314 1010.32 305.062ZM1015.65 304.895C1015.69 304.672 1015.86 304.49 1016.08 304.426C1016.3 304.361 1016.54 304.423 1016.7 304.59C1017.81 305.75 1019.76 307.783 1020.78 308.853C1020.92 309.002 1020.98 309.216 1020.92 309.415C1020.87 309.614 1020.71 309.772 1020.51 309.831C1019.17 310.224 1016.74 310.938 1015.4 311.331C1015.2 311.39 1014.98 311.343 1014.82 311.205C1014.67 311.067 1014.59 310.859 1014.63 310.657C1014.89 309.21 1015.38 306.462 1015.65 304.895Z" fill="#FF5C00"/>
</g>
<path d="M1034.1 310L1033.19 307.423H1029.64L1028.73 310H1027.13L1030.58 300.682H1032.27L1035.72 310H1034.1ZM1032.8 306.115L1031.91 303.576C1031.88 303.466 1031.83 303.312 1031.77 303.113C1031.7 302.91 1031.64 302.704 1031.58 302.497C1031.51 302.285 1031.46 302.108 1031.42 301.964C1031.38 302.137 1031.32 302.332 1031.26 302.548C1031.2 302.759 1031.14 302.958 1031.08 303.145C1031.03 303.331 1030.99 303.475 1030.96 303.576L1030.07 306.115H1032.8ZM1039.62 310.127C1038.96 310.127 1038.38 309.998 1037.89 309.74C1037.41 309.482 1037.03 309.086 1036.77 308.553C1036.51 308.02 1036.38 307.342 1036.38 306.521C1036.38 305.667 1036.52 304.968 1036.81 304.427C1037.1 303.885 1037.49 303.485 1038 303.227C1038.51 302.969 1039.1 302.84 1039.76 302.84C1040.18 302.84 1040.56 302.882 1040.9 302.967C1041.24 303.047 1041.53 303.147 1041.77 303.265L1041.32 304.458C1041.06 304.353 1040.8 304.264 1040.53 304.192C1040.26 304.12 1040 304.084 1039.75 304.084C1039.34 304.084 1038.99 304.175 1038.72 304.357C1038.45 304.539 1038.24 304.81 1038.11 305.169C1037.98 305.529 1037.91 305.976 1037.91 306.509C1037.91 307.025 1037.98 307.461 1038.12 307.816C1038.25 308.168 1038.45 308.434 1038.72 308.616C1038.99 308.794 1039.31 308.883 1039.7 308.883C1040.09 308.883 1040.43 308.836 1040.74 308.743C1041.04 308.65 1041.33 308.529 1041.6 308.381V309.676C1041.33 309.829 1041.05 309.941 1040.74 310.013C1040.44 310.089 1040.06 310.127 1039.62 310.127ZM1045.87 308.921C1046.06 308.921 1046.25 308.904 1046.44 308.87C1046.63 308.832 1046.81 308.788 1046.96 308.737V309.867C1046.8 309.939 1046.59 310 1046.32 310.051C1046.06 310.102 1045.79 310.127 1045.5 310.127C1045.11 310.127 1044.75 310.061 1044.43 309.93C1044.11 309.795 1043.86 309.564 1043.68 309.238C1043.49 308.912 1043.4 308.462 1043.4 307.886V304.109H1042.44V303.443L1043.47 302.916L1043.96 301.412H1044.9V302.973H1046.91V304.109H1044.9V307.867C1044.9 308.223 1044.98 308.487 1045.16 308.661C1045.34 308.834 1045.57 308.921 1045.87 308.921ZM1054.61 306.471C1054.61 307.055 1054.54 307.573 1054.38 308.026C1054.23 308.479 1054.01 308.862 1053.72 309.175C1053.43 309.484 1053.08 309.721 1052.66 309.886C1052.25 310.047 1051.79 310.127 1051.27 310.127C1050.79 310.127 1050.35 310.047 1049.95 309.886C1049.55 309.721 1049.2 309.484 1048.9 309.175C1048.61 308.862 1048.38 308.479 1048.22 308.026C1048.06 307.573 1047.98 307.055 1047.98 306.471C1047.98 305.696 1048.11 305.04 1048.38 304.503C1048.65 303.961 1049.04 303.549 1049.54 303.265C1050.03 302.982 1050.63 302.84 1051.32 302.84C1051.97 302.84 1052.54 302.982 1053.03 303.265C1053.53 303.549 1053.92 303.961 1054.19 304.503C1054.47 305.045 1054.61 305.701 1054.61 306.471ZM1049.52 306.471C1049.52 306.983 1049.58 307.421 1049.7 307.785C1049.83 308.149 1050.02 308.428 1050.28 308.623C1050.55 308.813 1050.89 308.908 1051.3 308.908C1051.71 308.908 1052.05 308.813 1052.32 308.623C1052.58 308.428 1052.77 308.149 1052.89 307.785C1053.02 307.421 1053.08 306.983 1053.08 306.471C1053.08 305.959 1053.02 305.525 1052.89 305.169C1052.77 304.81 1052.58 304.537 1052.32 304.351C1052.05 304.16 1051.71 304.065 1051.29 304.065C1050.68 304.065 1050.22 304.272 1049.94 304.687C1049.66 305.102 1049.52 305.696 1049.52 306.471ZM1059.89 302.84C1060.01 302.84 1060.14 302.846 1060.28 302.859C1060.42 302.872 1060.54 302.889 1060.64 302.91L1060.5 304.306C1060.41 304.281 1060.3 304.262 1060.17 304.249C1060.04 304.236 1059.93 304.23 1059.82 304.23C1059.56 304.23 1059.3 304.274 1059.06 304.363C1058.82 304.448 1058.61 304.579 1058.42 304.757C1058.24 304.93 1058.09 305.148 1057.98 305.411C1057.88 305.673 1057.83 305.978 1057.83 306.325V310H1056.33V302.973H1057.5L1057.7 304.211H1057.77C1057.91 303.961 1058.08 303.733 1058.29 303.525C1058.5 303.318 1058.73 303.153 1059 303.03C1059.27 302.903 1059.57 302.84 1059.89 302.84Z" fill="#FF5C00"/>
<path d="M497.707 244.707C498.098 244.317 498.098 243.683 497.707 243.293L491.343 236.929C490.953 236.538 490.319 236.538 489.929 236.929C489.538 237.319 489.538 237.953 489.929 238.343L495.586 244L489.929 249.657C489.538 250.047 489.538 250.681 489.929 251.071C490.319 251.462 490.953 251.462 491.343 251.071L497.707 244.707ZM240 244V245H497V244V243H240V244Z" fill="white"/>
<rect width="114" height="64" transform="translate(311 212)" fill="#020202"/>
<path d="M339.038 225.009L335.121 240H332.435L329.933 231.018C329.871 230.799 329.803 230.539 329.728 230.238C329.653 229.938 329.578 229.63 329.502 229.315C329.434 229.001 329.372 228.714 329.318 228.454C329.27 228.188 329.236 227.982 329.215 227.839C329.202 227.982 329.171 228.184 329.123 228.444C329.075 228.704 329.017 228.991 328.949 229.305C328.887 229.613 328.819 229.92 328.744 230.228C328.668 230.529 328.6 230.795 328.538 231.028L326.078 240H323.401L319.495 225.009H321.966L324.129 233.796C324.198 234.077 324.266 234.381 324.334 234.709C324.41 235.03 324.478 235.355 324.539 235.683C324.608 236.011 324.669 236.333 324.724 236.647C324.779 236.955 324.823 237.235 324.857 237.488C324.891 237.228 324.936 236.941 324.991 236.626C325.045 236.305 325.103 235.98 325.165 235.652C325.233 235.317 325.302 234.996 325.37 234.688C325.445 234.381 325.52 234.104 325.596 233.858L328.036 225.009H330.435L332.927 233.889C333.002 234.142 333.074 234.425 333.142 234.74C333.218 235.054 333.289 235.375 333.358 235.704C333.426 236.032 333.488 236.35 333.542 236.657C333.597 236.965 333.641 237.242 333.676 237.488C333.724 237.153 333.785 236.77 333.86 236.339C333.935 235.909 334.021 235.471 334.117 235.027C334.212 234.583 334.308 234.172 334.404 233.796L336.557 225.009H339.038ZM345.647 228.434C346.659 228.434 347.527 228.642 348.251 229.059C348.976 229.476 349.533 230.067 349.923 230.833C350.312 231.599 350.507 232.515 350.507 233.581V234.873H342.93C342.957 235.974 343.251 236.821 343.811 237.416C344.379 238.011 345.172 238.308 346.19 238.308C346.915 238.308 347.564 238.24 348.139 238.103C348.72 237.959 349.318 237.751 349.933 237.478V239.436C349.366 239.703 348.788 239.897 348.2 240.021C347.612 240.144 346.908 240.205 346.088 240.205C344.974 240.205 343.993 239.99 343.145 239.559C342.304 239.122 341.644 238.472 341.166 237.611C340.694 236.75 340.458 235.68 340.458 234.401C340.458 233.13 340.674 232.05 341.104 231.161C341.535 230.272 342.14 229.596 342.919 229.131C343.699 228.666 344.608 228.434 345.647 228.434ZM345.647 230.249C344.888 230.249 344.273 230.495 343.801 230.987C343.336 231.479 343.063 232.2 342.981 233.15H348.149C348.142 232.583 348.046 232.081 347.862 231.643C347.684 231.206 347.411 230.864 347.041 230.618C346.679 230.372 346.214 230.249 345.647 230.249ZM355.844 224.045V227.89C355.844 228.334 355.831 228.772 355.803 229.203C355.783 229.626 355.762 229.958 355.742 230.197H355.844C356.152 229.705 356.579 229.292 357.126 228.957C357.68 228.615 358.387 228.444 359.248 228.444C360.595 228.444 361.679 228.939 362.499 229.931C363.319 230.915 363.729 232.375 363.729 234.309C363.729 235.594 363.541 236.674 363.165 237.549C362.79 238.424 362.26 239.087 361.576 239.539C360.899 239.983 360.103 240.205 359.187 240.205C358.326 240.205 357.628 240.048 357.095 239.733C356.569 239.412 356.155 239.04 355.854 238.616H355.68L355.239 240H353.435V224.045H355.844ZM358.613 230.402C357.929 230.402 357.386 230.539 356.982 230.812C356.586 231.086 356.299 231.496 356.121 232.043C355.943 232.583 355.851 233.27 355.844 234.104V234.319C355.844 235.584 356.042 236.551 356.439 237.221C356.842 237.891 357.574 238.226 358.633 238.226C359.474 238.226 360.12 237.888 360.571 237.211C361.022 236.527 361.248 235.55 361.248 234.278C361.248 232.993 361.022 232.026 360.571 231.376C360.127 230.727 359.474 230.402 358.613 230.402ZM369.138 224.045V228.054C369.138 228.471 369.125 228.878 369.097 229.274C369.077 229.671 369.053 229.979 369.025 230.197H369.159C369.398 229.801 369.692 229.476 370.041 229.223C370.389 228.963 370.779 228.769 371.209 228.639C371.647 228.509 372.112 228.444 372.604 228.444C373.472 228.444 374.21 228.591 374.819 228.885C375.427 229.172 375.892 229.62 376.213 230.228C376.542 230.836 376.706 231.626 376.706 232.597V240H374.296V233.048C374.296 232.166 374.115 231.506 373.752 231.069C373.39 230.625 372.83 230.402 372.071 230.402C371.339 230.402 370.758 230.556 370.328 230.864C369.904 231.165 369.6 231.612 369.415 232.207C369.23 232.795 369.138 233.513 369.138 234.36V240H366.729V224.045H369.138ZM390.338 234.299C390.338 235.242 390.215 236.08 389.969 236.811C389.723 237.542 389.364 238.161 388.892 238.667C388.42 239.166 387.853 239.549 387.19 239.815C386.527 240.075 385.778 240.205 384.944 240.205C384.165 240.205 383.451 240.075 382.801 239.815C382.152 239.549 381.588 239.166 381.109 238.667C380.638 238.161 380.272 237.542 380.012 236.811C379.752 236.08 379.623 235.242 379.623 234.299C379.623 233.048 379.838 231.988 380.269 231.12C380.706 230.245 381.328 229.579 382.135 229.121C382.941 228.663 383.902 228.434 385.016 228.434C386.062 228.434 386.985 228.663 387.785 229.121C388.585 229.579 389.21 230.245 389.661 231.12C390.112 231.995 390.338 233.055 390.338 234.299ZM382.104 234.299C382.104 235.126 382.203 235.833 382.401 236.421C382.606 237.009 382.921 237.46 383.345 237.775C383.769 238.083 384.315 238.236 384.985 238.236C385.655 238.236 386.202 238.083 386.626 237.775C387.05 237.46 387.361 237.009 387.559 236.421C387.757 235.833 387.856 235.126 387.856 234.299C387.856 233.472 387.757 232.771 387.559 232.197C387.361 231.616 387.05 231.175 386.626 230.874C386.202 230.566 385.652 230.413 384.975 230.413C383.977 230.413 383.249 230.748 382.791 231.417C382.333 232.087 382.104 233.048 382.104 234.299ZM403.365 234.299C403.365 235.242 403.242 236.08 402.996 236.811C402.75 237.542 402.391 238.161 401.92 238.667C401.448 239.166 400.88 239.549 400.217 239.815C399.554 240.075 398.806 240.205 397.972 240.205C397.192 240.205 396.478 240.075 395.829 239.815C395.179 239.549 394.615 239.166 394.137 238.667C393.665 238.161 393.299 237.542 393.04 236.811C392.78 236.08 392.65 235.242 392.65 234.299C392.65 233.048 392.865 231.988 393.296 231.12C393.733 230.245 394.356 229.579 395.162 229.121C395.969 228.663 396.929 228.434 398.044 228.434C399.089 228.434 400.012 228.663 400.812 229.121C401.612 229.579 402.237 230.245 402.689 231.12C403.14 231.995 403.365 233.055 403.365 234.299ZM395.131 234.299C395.131 235.126 395.231 235.833 395.429 236.421C395.634 237.009 395.948 237.46 396.372 237.775C396.796 238.083 397.343 238.236 398.013 238.236C398.683 238.236 399.23 238.083 399.653 237.775C400.077 237.46 400.388 237.009 400.587 236.421C400.785 235.833 400.884 235.126 400.884 234.299C400.884 233.472 400.785 232.771 400.587 232.197C400.388 231.616 400.077 231.175 399.653 230.874C399.23 230.566 398.679 230.413 398.003 230.413C397.004 230.413 396.276 230.748 395.818 231.417C395.36 232.087 395.131 233.048 395.131 234.299ZM408.754 224.045V231.756C408.754 232.104 408.74 232.487 408.713 232.904C408.685 233.314 408.658 233.701 408.63 234.063H408.682C408.859 233.824 409.071 233.543 409.318 233.222C409.57 232.901 409.81 232.621 410.035 232.381L413.501 228.649H416.27L411.727 233.53L416.567 240H413.737L410.107 235.017L408.754 236.175V240H406.344V224.045H408.754ZM344.465 264H335.975V249.009H344.465V251.08H338.436V255.151H344.086V257.212H338.436V261.918H344.465V264ZM350.264 264L345.947 252.649H348.5L350.838 259.314C350.988 259.738 351.125 260.196 351.248 260.688C351.371 261.18 351.456 261.594 351.504 261.929H351.586C351.634 261.58 351.727 261.163 351.863 260.678C352 260.186 352.14 259.731 352.284 259.314L354.622 252.649H357.164L352.848 264H350.264ZM363.619 252.434C364.631 252.434 365.499 252.642 366.224 253.059C366.948 253.476 367.505 254.067 367.895 254.833C368.285 255.599 368.479 256.515 368.479 257.581V258.873H360.902C360.929 259.974 361.223 260.821 361.784 261.416C362.351 262.011 363.144 262.308 364.163 262.308C364.887 262.308 365.537 262.24 366.111 262.103C366.692 261.959 367.29 261.751 367.905 261.478V263.436C367.338 263.703 366.76 263.897 366.172 264.021C365.584 264.144 364.88 264.205 364.06 264.205C362.946 264.205 361.965 263.99 361.117 263.559C360.276 263.122 359.617 262.472 359.138 261.611C358.666 260.75 358.431 259.68 358.431 258.401C358.431 257.13 358.646 256.05 359.077 255.161C359.507 254.272 360.112 253.596 360.892 253.131C361.671 252.666 362.58 252.434 363.619 252.434ZM363.619 254.249C362.86 254.249 362.245 254.495 361.773 254.987C361.309 255.479 361.035 256.2 360.953 257.15H366.121C366.114 256.583 366.019 256.081 365.834 255.643C365.656 255.206 365.383 254.864 365.014 254.618C364.651 254.372 364.187 254.249 363.619 254.249ZM377.323 252.434C378.602 252.434 379.596 252.765 380.307 253.428C381.025 254.084 381.384 255.141 381.384 256.597V264H378.974V257.048C378.974 256.166 378.793 255.506 378.431 255.069C378.068 254.625 377.508 254.402 376.749 254.402C375.648 254.402 374.883 254.741 374.452 255.417C374.028 256.094 373.816 257.075 373.816 258.36V264H371.407V252.649H373.283L373.622 254.187H373.755C374.001 253.791 374.305 253.466 374.667 253.213C375.037 252.953 375.447 252.758 375.898 252.628C376.356 252.499 376.831 252.434 377.323 252.434ZM389.192 262.257C389.506 262.257 389.817 262.229 390.125 262.175C390.433 262.113 390.713 262.042 390.966 261.959V263.785C390.699 263.901 390.354 264 389.93 264.082C389.506 264.164 389.065 264.205 388.607 264.205C387.965 264.205 387.387 264.099 386.875 263.887C386.362 263.668 385.955 263.296 385.654 262.77C385.354 262.243 385.203 261.515 385.203 260.585V254.484H383.655V253.408L385.316 252.557L386.106 250.126H387.623V252.649H390.874V254.484H387.623V260.555C387.623 261.129 387.767 261.556 388.054 261.836C388.341 262.117 388.72 262.257 389.192 262.257ZM401.112 260.76C401.112 261.505 400.931 262.134 400.568 262.646C400.206 263.159 399.676 263.549 398.979 263.815C398.289 264.075 397.441 264.205 396.436 264.205C395.643 264.205 394.96 264.147 394.385 264.031C393.818 263.921 393.281 263.75 392.775 263.518V261.437C393.316 261.689 393.921 261.908 394.59 262.093C395.267 262.277 395.906 262.37 396.508 262.37C397.301 262.37 397.872 262.247 398.22 262C398.569 261.748 398.743 261.413 398.743 260.996C398.743 260.75 398.671 260.531 398.528 260.339C398.391 260.141 398.131 259.939 397.749 259.734C397.373 259.522 396.819 259.27 396.087 258.976C395.37 258.688 394.765 258.401 394.273 258.114C393.78 257.827 393.408 257.482 393.155 257.079C392.902 256.668 392.775 256.146 392.775 255.51C392.775 254.505 393.172 253.743 393.965 253.223C394.765 252.697 395.821 252.434 397.133 252.434C397.831 252.434 398.487 252.505 399.102 252.649C399.724 252.786 400.333 252.987 400.927 253.254L400.169 255.069C399.656 254.843 399.14 254.659 398.62 254.515C398.108 254.365 397.585 254.29 397.051 254.29C396.429 254.29 395.954 254.385 395.626 254.577C395.305 254.768 395.144 255.042 395.144 255.397C395.144 255.664 395.223 255.889 395.38 256.074C395.537 256.258 395.807 256.443 396.19 256.627C396.58 256.812 397.12 257.041 397.81 257.314C398.487 257.574 399.071 257.848 399.564 258.135C400.063 258.415 400.445 258.76 400.712 259.17C400.979 259.581 401.112 260.11 401.112 260.76Z" fill="white"/>
<rect x="900" y="47" width="265" height="151" rx="7" stroke="white" stroke-width="2" stroke-dasharray="12 12"/>
<path d="M914.167 28H911.696V15.1006H907.308V13.0088H918.546V15.1006H914.167V28ZM923.216 16.6489V28H920.807V16.6489H923.216ZM922.027 12.3013C922.396 12.3013 922.714 12.4004 922.981 12.5986C923.254 12.7969 923.391 13.1387 923.391 13.624C923.391 14.1025 923.254 14.4443 922.981 14.6494C922.714 14.8477 922.396 14.9468 922.027 14.9468C921.644 14.9468 921.319 14.8477 921.053 14.6494C920.793 14.4443 920.663 14.1025 920.663 13.624C920.663 13.1387 920.793 12.7969 921.053 12.5986C921.319 12.4004 921.644 12.3013 922.027 12.3013ZM931.455 28.2051C930.382 28.2051 929.452 27.9966 928.666 27.5796C927.88 27.1626 927.275 26.5234 926.851 25.6621C926.427 24.8008 926.215 23.707 926.215 22.3809C926.215 21 926.448 19.8721 926.913 18.9971C927.378 18.1221 928.02 17.4761 928.84 17.0591C929.668 16.6421 930.614 16.4336 931.681 16.4336C932.358 16.4336 932.969 16.502 933.516 16.6387C934.07 16.7686 934.538 16.9292 934.921 17.1206L934.203 19.0483C933.786 18.8774 933.359 18.7339 932.921 18.6177C932.484 18.5015 932.064 18.4434 931.66 18.4434C930.997 18.4434 930.443 18.5903 929.999 18.8843C929.562 19.1782 929.233 19.6157 929.015 20.1968C928.803 20.7778 928.697 21.499 928.697 22.3604C928.697 23.1943 928.806 23.8984 929.025 24.4727C929.244 25.04 929.568 25.4707 929.999 25.7646C930.43 26.0518 930.96 26.1953 931.588 26.1953C932.211 26.1953 932.768 26.1201 933.26 25.9697C933.752 25.8193 934.217 25.6245 934.654 25.3853V27.4771C934.224 27.7231 933.762 27.9043 933.27 28.0205C932.778 28.1436 932.173 28.2051 931.455 28.2051ZM939.94 12.0449V19.7559C939.94 20.1045 939.926 20.4873 939.899 20.9043C939.872 21.3145 939.844 21.7007 939.817 22.063H939.868C940.046 21.8237 940.258 21.5435 940.504 21.2222C940.757 20.9009 940.996 20.6206 941.222 20.3813L944.688 16.6489H947.456L942.914 21.5298L947.754 28H944.923L941.294 23.0166L939.94 24.1753V28H937.53V12.0449H939.94ZM954.3 16.4336C955.312 16.4336 956.18 16.6421 956.905 17.0591C957.63 17.4761 958.187 18.0674 958.576 18.833C958.966 19.5986 959.161 20.5146 959.161 21.5811V22.873H951.583C951.611 23.9736 951.904 24.8213 952.465 25.416C953.032 26.0107 953.825 26.3081 954.844 26.3081C955.569 26.3081 956.218 26.2397 956.792 26.103C957.373 25.9595 957.971 25.751 958.587 25.4775V27.436C958.019 27.7026 957.442 27.8975 956.854 28.0205C956.266 28.1436 955.562 28.2051 954.741 28.2051C953.627 28.2051 952.646 27.9897 951.798 27.5591C950.958 27.1216 950.298 26.4722 949.819 25.6108C949.348 24.7495 949.112 23.6797 949.112 22.4014C949.112 21.1299 949.327 20.0498 949.758 19.1611C950.189 18.2725 950.794 17.5957 951.573 17.1309C952.352 16.666 953.261 16.4336 954.3 16.4336ZM954.3 18.2485C953.542 18.2485 952.926 18.4946 952.455 18.9868C951.99 19.479 951.716 20.2002 951.634 21.1504H956.802C956.796 20.583 956.7 20.0806 956.515 19.6431C956.338 19.2056 956.064 18.8638 955.695 18.6177C955.333 18.3716 954.868 18.2485 954.3 18.2485ZM966.313 26.2568C966.627 26.2568 966.938 26.2295 967.246 26.1748C967.553 26.1133 967.834 26.0415 968.087 25.9595V27.7847C967.82 27.9009 967.475 28 967.051 28.082C966.627 28.1641 966.186 28.2051 965.728 28.2051C965.086 28.2051 964.508 28.0991 963.995 27.8872C963.483 27.6685 963.076 27.2959 962.775 26.7695C962.474 26.2432 962.324 25.5151 962.324 24.5854V18.4844H960.776V17.4077L962.437 16.5566L963.226 14.1265H964.744V16.6489H967.994V18.4844H964.744V24.5547C964.744 25.1289 964.887 25.5562 965.175 25.8364C965.462 26.1167 965.841 26.2568 966.313 26.2568ZM985.805 28L984.339 23.8369H978.607L977.14 28H974.546L980.124 12.9473H982.852L988.42 28H985.805ZM983.703 21.7246L982.278 17.623C982.223 17.4453 982.144 17.1958 982.042 16.8745C981.939 16.5464 981.837 16.2148 981.734 15.8799C981.632 15.5381 981.546 15.251 981.478 15.0186C981.409 15.2988 981.324 15.6133 981.221 15.9619C981.126 16.3037 981.03 16.625 980.934 16.9258C980.845 17.2266 980.777 17.459 980.729 17.623L979.294 21.7246H983.703Z" fill="white"/>
<rect x="900" y="281" width="265" height="151" rx="7" stroke="white" stroke-width="2" stroke-dasharray="12 12"/>
<path d="M914.167 262H911.696V249.101H907.308V247.009H918.546V249.101H914.167V262ZM923.216 250.649V262H920.807V250.649H923.216ZM922.027 246.301C922.396 246.301 922.714 246.4 922.981 246.599C923.254 246.797 923.391 247.139 923.391 247.624C923.391 248.103 923.254 248.444 922.981 248.649C922.714 248.848 922.396 248.947 922.027 248.947C921.644 248.947 921.319 248.848 921.053 248.649C920.793 248.444 920.663 248.103 920.663 247.624C920.663 247.139 920.793 246.797 921.053 246.599C921.319 246.4 921.644 246.301 922.027 246.301ZM931.455 262.205C930.382 262.205 929.452 261.997 928.666 261.58C927.88 261.163 927.275 260.523 926.851 259.662C926.427 258.801 926.215 257.707 926.215 256.381C926.215 255 926.448 253.872 926.913 252.997C927.378 252.122 928.02 251.476 928.84 251.059C929.668 250.642 930.614 250.434 931.681 250.434C932.358 250.434 932.969 250.502 933.516 250.639C934.07 250.769 934.538 250.929 934.921 251.121L934.203 253.048C933.786 252.877 933.359 252.734 932.921 252.618C932.484 252.501 932.064 252.443 931.66 252.443C930.997 252.443 930.443 252.59 929.999 252.884C929.562 253.178 929.233 253.616 929.015 254.197C928.803 254.778 928.697 255.499 928.697 256.36C928.697 257.194 928.806 257.898 929.025 258.473C929.244 259.04 929.568 259.471 929.999 259.765C930.43 260.052 930.96 260.195 931.588 260.195C932.211 260.195 932.768 260.12 933.26 259.97C933.752 259.819 934.217 259.625 934.654 259.385V261.477C934.224 261.723 933.762 261.904 933.27 262.021C932.778 262.144 932.173 262.205 931.455 262.205ZM939.94 246.045V253.756C939.94 254.104 939.926 254.487 939.899 254.904C939.872 255.314 939.844 255.701 939.817 256.063H939.868C940.046 255.824 940.258 255.543 940.504 255.222C940.757 254.901 940.996 254.621 941.222 254.381L944.688 250.649H947.456L942.914 255.53L947.754 262H944.923L941.294 257.017L939.94 258.175V262H937.53V246.045H939.94ZM954.3 250.434C955.312 250.434 956.18 250.642 956.905 251.059C957.63 251.476 958.187 252.067 958.576 252.833C958.966 253.599 959.161 254.515 959.161 255.581V256.873H951.583C951.611 257.974 951.904 258.821 952.465 259.416C953.032 260.011 953.825 260.308 954.844 260.308C955.569 260.308 956.218 260.24 956.792 260.103C957.373 259.959 957.971 259.751 958.587 259.478V261.436C958.019 261.703 957.442 261.897 956.854 262.021C956.266 262.144 955.562 262.205 954.741 262.205C953.627 262.205 952.646 261.99 951.798 261.559C950.958 261.122 950.298 260.472 949.819 259.611C949.348 258.75 949.112 257.68 949.112 256.401C949.112 255.13 949.327 254.05 949.758 253.161C950.189 252.272 950.794 251.596 951.573 251.131C952.352 250.666 953.261 250.434 954.3 250.434ZM954.3 252.249C953.542 252.249 952.926 252.495 952.455 252.987C951.99 253.479 951.716 254.2 951.634 255.15H956.802C956.796 254.583 956.7 254.081 956.515 253.643C956.338 253.206 956.064 252.864 955.695 252.618C955.333 252.372 954.868 252.249 954.3 252.249ZM966.313 260.257C966.627 260.257 966.938 260.229 967.246 260.175C967.553 260.113 967.834 260.042 968.087 259.959V261.785C967.82 261.901 967.475 262 967.051 262.082C966.627 262.164 966.186 262.205 965.728 262.205C965.086 262.205 964.508 262.099 963.995 261.887C963.483 261.668 963.076 261.296 962.775 260.77C962.474 260.243 962.324 259.515 962.324 258.585V252.484H960.776V251.408L962.437 250.557L963.226 248.126H964.744V250.649H967.994V252.484H964.744V258.555C964.744 259.129 964.887 259.556 965.175 259.836C965.462 260.117 965.841 260.257 966.313 260.257ZM976.515 247.009H980.975C982.91 247.009 984.369 247.289 985.354 247.85C986.338 248.41 986.83 249.377 986.83 250.751C986.83 251.326 986.728 251.845 986.523 252.31C986.324 252.768 986.034 253.147 985.651 253.448C985.268 253.742 984.797 253.94 984.236 254.043V254.146C984.817 254.248 985.333 254.429 985.784 254.689C986.242 254.949 986.601 255.321 986.861 255.807C987.128 256.292 987.261 256.921 987.261 257.693C987.261 258.609 987.042 259.389 986.605 260.031C986.174 260.674 985.555 261.163 984.749 261.498C983.949 261.833 982.999 262 981.898 262H976.515V247.009ZM978.976 253.192H981.334C982.449 253.192 983.221 253.011 983.652 252.648C984.082 252.286 984.298 251.756 984.298 251.059C984.298 250.348 984.041 249.835 983.529 249.521C983.023 249.207 982.216 249.049 981.109 249.049H978.976V253.192ZM978.976 255.181V259.939H981.57C982.719 259.939 983.525 259.717 983.99 259.272C984.455 258.828 984.687 258.227 984.687 257.468C984.687 257.003 984.581 256.6 984.369 256.258C984.164 255.916 983.826 255.653 983.354 255.468C982.883 255.277 982.247 255.181 981.447 255.181H978.976Z" fill="white"/>
<path d="M888.985 136.174C889.081 135.63 888.718 135.111 888.174 135.015L879.311 133.451C878.767 133.355 878.248 133.718 878.152 134.262C878.056 134.806 878.419 135.325 878.963 135.421L886.841 136.811L885.451 144.689C885.355 145.233 885.718 145.752 886.262 145.848C886.806 145.944 887.325 145.581 887.421 145.037L888.985 136.174ZM748 234L748.573 234.819L888.573 136.819L888 136L887.427 135.181L747.427 233.181L748 234Z" fill="white"/>
<path d="M888.985 347.826C889.081 348.37 888.718 348.889 888.174 348.985L879.311 350.549C878.767 350.645 878.248 350.282 878.152 349.738C878.056 349.194 878.419 348.675 878.963 348.579L886.841 347.189L885.451 339.311C885.355 338.767 885.718 338.248 886.262 338.152C886.806 338.056 887.325 338.419 887.421 338.963L888.985 347.826ZM748 250L748.573 249.181L888.573 347.181L888 348L887.427 348.819L747.427 250.819L748 250Z" fill="white"/>
<defs>
<clipPath id="clip0_12_1110">
<rect width="18" height="15" fill="white" transform="translate(1004 63.5)"/>
</clipPath>
<clipPath id="clip1_12_1110">
<rect width="18" height="15" fill="white" transform="translate(1004 297.5)"/>
</clipPath>
</defs>
</svg>
