<?xml version="1.0" encoding="UTF-8" standalone="no"?>
<!DOCTYPE svg PUBLIC "-//W3C//DTD SVG 1.1//EN" "http://www.w3.org/Graphics/SVG/1.1/DTD/svg11.dtd">
<svg width="100%" height="100%" viewBox="0 0 1025 1025" version="1.1" xmlns="http://www.w3.org/2000/svg" xmlns:xlink="http://www.w3.org/1999/xlink" xml:space="preserve" xmlns:serif="http://www.serif.com/" style="fill-rule:evenodd;clip-rule:evenodd;">
    <g transform="matrix(0.480096,0,0,0.480096,228.414,-3.3288)">
        <path d="M44.553,334.255L1138.9,334.255C1245.49,334.255 1331.9,420.664 1331.9,527.255L1331.9,1621.6C1331.9,1728.19 1245.49,1814.6 1138.9,1814.6L44.553,1814.6C-62.038,1814.6 -148.447,1728.19 -148.447,1621.6L-148.447,527.255C-148.447,420.664 -62.038,334.255 44.553,334.255Z" style="fill:none;fill-rule:nonzero;stroke:white;stroke-width:14px;"/>
    </g>
    <g transform="matrix(0.605067,0,0,0.605067,154.466,-137.601)">
        <path d="M44.553,334.255L1138.9,334.255C1245.49,334.255 1331.9,420.664 1331.9,527.255L1331.9,1621.6C1331.9,1728.19 1245.49,1814.6 1138.9,1814.6L44.553,1814.6C-62.038,1814.6 -148.447,1728.19 -148.447,1621.6L-148.447,527.255C-148.447,420.664 -62.038,334.255 44.553,334.255Z" style="fill:none;fill-rule:nonzero;stroke:white;stroke-width:16.53px;stroke-dasharray:16.53,16.53;"/>
    </g>
</svg>
