<?xml version="1.0" encoding="UTF-8" standalone="no"?>
<!DOCTYPE svg PUBLIC "-//W3C//DTD SVG 1.1//EN" "http://www.w3.org/Graphics/SVG/1.1/DTD/svg11.dtd">
<svg width="100%" height="100%" viewBox="0 0 1025 1025" version="1.1" xmlns="http://www.w3.org/2000/svg" xmlns:xlink="http://www.w3.org/1999/xlink" xml:space="preserve" xmlns:serif="http://www.serif.com/" style="fill-rule:evenodd;clip-rule:evenodd;">
    <g transform="matrix(0.906549,-0.4221,0.4221,0.906549,-169.949,265.01)">
        <g transform="matrix(0.335165,0.156057,-0.156057,0.335165,521.22,97.7636)">
            <path d="M446.86,7.755C699.001,7.755 926.984,41.273 1091.69,95.275C1174.08,122.289 1240.25,154.304 1285.68,189.517C1331.2,224.801 1354.87,262.451 1354.87,300.759C1354.87,339.066 1331.2,376.718 1285.68,412.002C1240.25,447.214 1174.08,479.229 1091.69,506.242C926.984,560.245 699.001,593.764 446.86,593.764C194.72,593.764 -33.264,560.245 -197.972,506.242C-280.363,479.229 -346.532,447.214 -391.958,412.002C-437.476,376.718 -461.153,339.066 -461.153,300.759C-461.153,262.451 -437.476,224.801 -391.958,189.517C-346.532,154.304 -280.363,122.289 -197.972,95.275C-33.264,41.273 194.72,7.755 446.86,7.755Z" style="fill:none;fill-rule:nonzero;stroke:white;stroke-width:14px;"/>
        </g>
        <g transform="matrix(0.335165,0.156057,-0.156057,0.335165,521.223,97.7585)">
            <path d="M446.86,1455.77C699.001,1455.77 926.984,1489.29 1091.69,1543.29C1174.08,1570.31 1240.25,1602.32 1285.68,1637.54C1331.2,1672.82 1354.87,1710.47 1354.87,1748.78C1354.87,1787.09 1331.2,1824.74 1285.68,1860.02C1240.25,1895.23 1174.08,1927.25 1091.69,1954.26C926.984,2008.26 699.001,2041.78 446.86,2041.78C194.72,2041.78 -33.264,2008.26 -197.972,1954.26C-280.363,1927.25 -346.532,1895.23 -391.958,1860.02C-437.476,1824.74 -461.153,1787.09 -461.153,1748.78C-461.153,1710.47 -437.476,1672.82 -391.958,1637.54C-346.532,1602.32 -280.363,1570.31 -197.972,1543.29C-33.264,1489.29 194.72,1455.77 446.86,1455.77Z" style="fill:none;fill-rule:nonzero;stroke:white;stroke-width:14px;"/>
        </g>
        <g transform="matrix(0.335165,0.156057,-0.156057,0.335165,521.318,97.7521)">
            <path d="M1355.62,295.895L1355.62,1748.42" style="fill:none;fill-rule:nonzero;stroke:white;stroke-width:14px;"/>
        </g>
    </g>
</svg>
