<?xml version="1.0" encoding="UTF-8" standalone="no"?>
<!DOCTYPE svg PUBLIC "-//W3C//DTD SVG 1.1//EN" "http://www.w3.org/Graphics/SVG/1.1/DTD/svg11.dtd">
<svg width="100%" height="100%" viewBox="0 0 1025 1025" version="1.1" xmlns="http://www.w3.org/2000/svg" xmlns:xlink="http://www.w3.org/1999/xlink" xml:space="preserve" xmlns:serif="http://www.serif.com/" style="fill-rule:evenodd;clip-rule:evenodd;stroke-linecap:round;stroke-linejoin:round;">
    <g transform="matrix(0.906549,-0.4221,0.4221,0.906549,-169.949,265.01)">
        <path d="M493.701,981.516C441.741,978.256 392.794,966.799 345.597,946.849C333.463,941.719 309.863,929.901 297.701,922.863C285.214,915.637 284.267,915.045 274.937,908.623C239.283,884.087 210.933,859.035 182.969,827.353C170.724,813.48 150.191,786.558 139.879,770.853C123.493,745.899 106.057,711.901 92.181,677.853C75.077,635.881 64.026,591.257 59.492,545.853C57.33,524.2 56.405,494.456 57.456,480.37C57.733,476.649 58.295,468.315 58.705,461.853C59.673,446.573 60.681,436.479 62.224,426.603C70.789,371.801 89.482,317.681 114.033,276.603C129.26,251.127 137.503,238.899 151.78,220.603C177.68,187.413 208.379,158.037 242.451,133.843C277.019,109.295 303.647,94.634 338.323,81.056C350.969,76.104 370.651,69.62 382.451,66.519C411.347,58.925 426.919,55.973 451.701,53.389C472.796,51.191 478.781,50.863 497.951,50.861C540.451,50.855 575.837,55.117 616.269,65.115C667.483,77.779 707.563,95.187 758.201,126.765C772.272,135.539 772.977,136.03 792.503,150.625C797.965,154.709 807.723,162.549 808.951,163.84C809.089,163.985 811.226,165.897 813.701,168.089C828.331,181.049 849.115,202.749 860.168,216.603C862.581,219.628 866.76,224.812 869.454,228.123C879.749,240.777 886.819,250.186 893.298,259.853C918.13,296.907 938.111,340.345 949.989,383.103C951.135,387.228 953.274,394.917 954.743,400.19C959.703,417.996 963.772,438.034 966.909,460.103C970.242,483.552 971.005,520.113 968.724,547.103C966.243,576.461 960.123,612.379 954.412,631.103C953.573,633.853 952.689,636.778 952.447,637.603C952.205,638.428 951.679,640.115 951.276,641.353C950.873,642.591 949.479,646.978 948.177,651.103C945.957,658.135 941.429,671.673 938.645,679.603C937.969,681.528 937.116,684.003 936.749,685.103C928.564,709.664 908.093,750.091 890.291,776.853C879.011,793.81 869.193,806.669 856.503,821.103C849.408,829.173 830.116,848.411 822.701,854.809C791.894,881.393 781.321,889.889 764.951,901.211C749.432,911.946 734.537,921.147 720.451,928.701C663.205,959.399 607.623,975.875 544.515,980.853C534.603,981.634 527.933,981.833 514.014,981.763C504.217,981.713 495.076,981.602 493.701,981.516ZM534.388,978.421C535.073,978.229 531.473,977.709 525.888,977.194C515.365,976.223 499.018,974.065 496.847,973.359C495.841,973.033 493.733,973.363 488.676,974.636C484.927,975.581 481.331,976.353 480.685,976.353C480.039,976.353 479.389,976.548 479.243,976.786C479.095,977.025 482.851,977.479 487.588,977.797C492.325,978.114 497.101,978.444 498.201,978.529C502.177,978.839 533.231,978.745 534.388,978.421ZM572.201,974.372C590.413,971.961 600.307,969.125 618.515,961.095C635.087,953.787 649.927,945.381 661.042,937.005C667.909,931.829 680.52,921.255 680.203,920.939C680.082,920.817 676.319,921.029 671.842,921.411C661.379,922.301 623.891,922.309 612.701,921.424C604.806,920.799 584.297,918.606 578.951,917.815C577.439,917.591 574.851,917.277 573.201,917.117L570.201,916.826L567.451,920.148C563.847,924.502 551.971,936.456 545.681,942.061C534.839,951.723 519.609,962.018 508.194,967.403C505.337,968.751 502.791,969.853 503.015,971.356C504.217,971.357 506.486,971.569 508.057,971.827C510.383,972.207 529.445,974.193 538.951,975.043C543.091,975.414 568.151,974.908 572.201,974.372ZM479.443,973.381C485.437,972.33 486.367,972.083 485.909,971.661C485.795,971.555 481.651,970.645 476.701,969.639C450.275,964.267 422.518,956.376 398.095,947.292L391.489,944.835L387.845,947.663C384.357,950.369 377.111,954.311 375.477,954.391C374.409,954.443 381.443,956.858 392.201,960.133C409.865,965.512 433.023,970.864 450.451,973.595C460.168,975.119 469.939,975.046 479.443,973.381ZM502.951,966.115C516.145,960.434 530.236,951.101 544.457,938.623C549.753,933.975 566.451,917.083 566.451,916.371C566.451,916.136 564.82,915.685 562.826,915.369C557.482,914.521 555.177,914.067 544.701,911.79C539.476,910.655 534.301,909.543 533.201,909.321C522.445,907.143 498.639,900.785 482.529,895.786C474.197,893.201 447.971,884.165 439.667,881.018C439.373,880.907 437.709,883.243 435.971,886.209C422.799,908.686 410.769,925.61 399.648,937.306C396.991,940.1 394.917,942.485 395.038,942.607C396.061,943.629 425.303,953.296 438.951,957.123C453.931,961.323 484.115,968.229 492.951,969.477C494.285,969.666 496.193,969.024 502.951,966.115ZM651.451,955.611C655.989,954.067 661.107,952.252 662.826,951.578C664.545,950.904 667.469,949.761 669.326,949.039C692.119,940.161 717.785,927.23 740.359,913.251C748.709,908.079 768.303,894.997 768.728,894.309C769.309,893.369 767.807,893.935 762.049,896.824C741.281,907.243 716.485,915.29 695.701,918.353C686.103,919.768 686.536,919.616 683.245,922.732C671.909,933.467 659.17,943.209 646.965,950.475C640.327,954.428 623.496,962.882 618.826,964.61C608.127,968.569 635.833,960.927 651.451,955.611ZM373.201,951.797C376.869,950.787 387.451,944.917 387.451,943.893C387.451,943.704 383.569,942.009 378.826,940.127C354.045,930.291 325.675,916.387 299.951,901.469C295.413,898.837 291.098,896.268 290.361,895.759C289.624,895.251 288.933,895.008 288.824,895.219C288.715,895.43 288.783,898.089 288.973,901.127C289.369,907.461 290.753,914.211 291.91,915.451C293.846,917.528 317.026,930.091 331.087,936.683C347.918,944.576 367.018,952.319 369.701,952.337C370.526,952.343 372.101,952.1 373.201,951.797ZM396.368,935.978C403.202,929.203 410.703,919.596 419.691,906.103C426.663,895.637 436.229,879.951 435.853,879.597C435.651,879.407 428.21,876.277 417.571,871.908C385.453,858.719 340.683,835.753 311.019,817.251C309.269,816.159 307.657,815.455 307.436,815.685C306.567,816.589 297.306,847.465 294.263,859.603C291.759,869.587 288.951,885.095 288.951,888.934C288.951,890.808 289.159,891.469 289.834,891.744C290.319,891.941 293.773,893.953 297.509,896.213C320.562,910.165 351.873,925.788 376.701,935.725C388.193,940.324 389.381,940.759 390.576,940.813C391.057,940.835 393.663,938.659 396.368,935.978ZM660.032,918.857C665.439,918.595 673.311,918.034 677.525,917.611C684.249,916.937 685.319,916.706 686.253,915.723C700.229,901.031 702.472,898.482 710.771,887.853C723.747,871.232 737.013,850.396 747.379,830.353C752.179,821.073 761.081,801.817 760.733,801.469C760.619,801.355 754.941,801.837 748.113,802.541C728.451,804.569 719.483,805.02 705.451,804.684C685.211,804.199 664.521,802.507 644.283,799.682C639.828,799.06 639.337,799.071 639.075,799.799C638.915,800.241 636.343,806.293 633.361,813.247C625.639,831.253 618.401,845.438 607.796,863.353C600.054,876.433 583.915,900.112 576.275,909.603C574.503,911.803 573.115,913.668 573.189,913.748C573.264,913.828 578.247,914.542 584.263,915.335C609.456,918.655 637.425,919.955 660.032,918.857ZM698.477,914.605C702.175,913.919 706.101,913.155 707.201,912.907C708.301,912.659 709.989,912.295 710.951,912.099C711.913,911.903 715.063,911.081 717.951,910.271C737.781,904.716 755.979,897.011 774.701,886.244C793.659,875.341 803.926,866.996 813.797,854.469C832.677,830.511 848.533,802.952 861.98,770.728C863.558,766.947 864.695,763.853 864.507,763.853C864.319,763.853 861.135,765.667 857.433,767.883C842.742,776.679 822.667,785.5 804.511,791.137C794.966,794.101 787.371,796.007 774.959,798.553L764.718,800.655L760.831,809.629C744.331,847.719 718.947,887.009 695.326,911.017C692.92,913.463 690.951,915.551 690.951,915.658C690.951,915.978 691.466,915.907 698.477,914.605ZM287.225,911.983C286.509,910.119 285.457,901.389 285.454,897.295L285.451,892.986L278.826,888.828C253.309,872.813 224.801,851.279 200.576,829.719C197.207,826.721 194.451,824.429 194.451,824.627C194.451,825.473 203.007,841.471 205.559,845.395C212.323,855.797 246.529,885.101 273.461,903.567C277.443,906.297 282.051,909.484 283.701,910.649C287.04,913.006 287.715,913.261 287.225,911.983ZM572.024,909.728C578.94,901.445 593.921,880.002 601.944,866.901C610.053,853.659 620.631,834.071 625.731,822.853C629.078,815.492 635.951,799.39 635.951,798.911C635.951,798.727 632.969,798.052 629.326,797.409C604.791,793.083 583.216,788.079 558.785,781.049C539.719,775.564 514.678,767.226 498.826,761.085C498.333,760.894 497.951,760.975 497.951,761.271C497.951,761.885 483.264,794.926 477.801,806.603C466.241,831.31 456.143,850.859 442.51,874.931L440.908,877.761L446.196,879.828C476.695,891.753 513.409,902.311 549.479,909.531C570.432,913.726 568.698,913.711 572.024,909.728ZM285.958,886.978C285.977,881.676 290.284,861.271 294.705,845.535C296.334,839.737 301.635,822.718 303.917,815.955L304.811,813.307L303.256,812.507C301.555,811.633 290.033,803.959 280.951,797.652C250.645,776.607 226.957,757.261 198.076,729.971L191.057,723.339L190.255,727.721C189.815,730.131 189.115,734.679 188.701,737.827C185.399,762.969 185.185,781.191 187.977,799.353C189.727,810.734 190.937,815.791 192.335,817.569C194.533,820.363 215.829,838.769 228.451,848.782C241.205,858.901 242.252,859.703 252.451,867.182C261.434,873.769 284.451,888.853 285.52,888.853C285.757,888.853 285.954,888.009 285.958,886.978ZM441.645,870.099C457.727,842.097 473.011,810.953 492.439,766.591L495.348,759.947L489.525,757.575C461.531,746.175 447.185,739.693 423.701,727.832C406.91,719.351 404.265,717.945 392.453,711.203C383.706,706.21 363.531,693.977 359.635,691.304L357.57,689.887L355.945,693.495C348.504,710.013 332.739,747.757 323.213,771.853C316.705,788.319 308.945,809.919 308.955,811.543C308.958,812.143 310.301,813.11 315.471,816.237C318.439,818.031 321.339,819.72 336.451,828.455C360.713,842.479 392.801,858.211 420.701,869.762C434.789,875.595 436.669,876.318 437.451,876.204C437.863,876.144 439.751,873.397 441.645,870.099ZM832.161,841.271C862.677,811.567 885.031,782.157 905.733,744.473C913.286,730.726 929.367,697.602 928.775,697.011C928.663,696.899 927.953,697.865 927.195,699.159C920.751,710.153 906.395,728.047 894.982,739.307C887.033,747.149 874.549,757.499 870.576,759.543C869.683,760.003 868.951,760.673 868.951,761.033C868.951,763.071 860.535,782.947 854.418,795.353C843.677,817.137 830.254,839.287 821.413,849.817C815.256,857.15 818.484,854.583 832.161,841.271ZM194.457,832.157C192.869,829.025 191.065,824.918 190.449,823.032C189.363,819.708 189.08,819.358 181.191,811.603C171.777,802.348 160.156,789.873 153.991,782.405C147.752,774.845 147.485,774.547 147.467,775.17C147.421,776.822 166.653,802.849 177.897,816.353C179.386,818.141 182.896,822.191 185.697,825.353C188.499,828.515 192.121,832.605 193.746,834.439C195.371,836.273 196.847,837.793 197.024,837.814C197.201,837.835 196.047,835.29 194.457,832.157ZM185.94,807.353C182.595,789.863 182.044,766.361 184.499,745.853C185.611,736.555 187.517,723.525 187.961,722.183C188.409,720.827 188.092,720.415 180.815,712.907C161.598,693.077 144.471,672.559 128.391,650.103C123.593,643.403 111.458,625.125 109.053,620.978C107.897,618.984 105.995,615.726 104.826,613.737L102.701,610.121L102.27,614.363C102.033,616.695 101.819,626.478 101.793,636.103C101.746,653.903 101.995,657.731 104.231,673.603C106.725,691.308 113.133,716.265 117.325,724.603C120.159,730.238 131.851,748.385 138.103,756.853C145.158,766.407 157.695,781.786 165.617,790.603C170.701,796.262 186.515,812.463 186.729,812.233C186.795,812.161 186.439,809.965 185.94,807.353ZM308.414,802.478C315.519,782.764 321.565,767.187 331.947,741.853C335.474,733.246 344.203,712.519 345.95,708.603C348.907,701.974 354.45,688.869 354.445,688.518C354.439,688.083 352.609,686.761 339.951,678.047C331.441,672.19 329.361,670.695 318.537,662.652C289.673,641.205 265.666,621.032 242.812,599.024C239.573,595.905 236.729,593.353 236.492,593.353C236.255,593.353 235.605,594.309 235.049,595.478C234.493,596.647 232.536,600.753 230.701,604.603C222.505,621.801 211.707,648.098 206.399,663.785C202.589,675.047 197.055,694.384 194.789,704.353C191.723,717.847 191.568,718.687 192.002,719.461C192.364,720.109 196.296,723.871 211.201,737.832C215.294,741.666 228.895,753.543 236.201,759.665C252.607,773.411 274.705,789.838 291.951,801.108C296.489,804.073 301.326,807.24 302.701,808.145C304.076,809.05 305.326,809.804 305.479,809.821C305.631,809.839 306.952,806.535 308.414,802.478ZM732.201,800.805C744.379,799.984 761.503,797.975 762.18,797.288C762.599,796.863 766.559,785.967 769.425,777.355C776.485,756.143 782.405,733.248 786.944,709.603C790.152,692.893 793.907,665.275 794.755,652.159L795.099,646.853L793.445,646.853C792.535,646.853 788.396,647.245 784.246,647.723C777.998,648.443 772.231,648.589 750.701,648.579C723.355,648.565 712.926,647.988 692.481,645.355C688.477,644.839 685.065,644.571 684.898,644.76C684.731,644.949 683.858,648.928 682.957,653.603C679.427,671.934 673.106,698.661 667.467,719.103C661.629,740.271 653.921,763.011 645.111,785.067C642.811,790.823 641.103,795.682 641.315,795.865C641.941,796.405 661.357,798.793 673.995,799.885C695.963,801.781 713.604,802.06 732.201,800.805ZM773.979,795.639C805.363,789.597 834.381,778.342 861.271,761.783L866.843,758.353L868.627,753.228C869.608,750.409 871.535,744.278 872.909,739.603C882.136,708.204 887.345,679.064 889.443,647.103C889.915,639.906 890.161,612.853 889.754,612.853C889.645,612.853 886.889,614.439 883.629,616.377C870.571,624.141 851.944,632.377 836.913,637.033C827.275,640.019 821.803,641.371 809.201,643.878C803.426,645.027 798.659,646.001 798.608,646.045C798.557,646.087 798.043,651.068 797.467,657.113C796.055,671.937 794.318,685.371 792.201,697.853C791.757,700.465 791.205,703.728 790.972,705.103C789.686,712.705 786.511,727.737 783.791,739.103C782.513,744.44 778.939,757.416 776.699,764.853C774.787,771.198 767.253,793.575 766.22,795.978C765.719,797.142 766.303,797.117 773.979,795.639ZM641.572,785.728C654.431,753.509 662.739,727.078 671.707,689.853C675.611,673.65 676.98,667.463 680.356,650.79L681.735,643.977L676.969,643.153C636.941,636.23 604.248,627.587 567.951,614.335C562.589,612.377 557.751,610.669 557.201,610.539C556.297,610.325 555.657,611.873 550.518,626.703C538.895,660.247 525.659,695.087 512.185,727.603C509.792,733.378 506.062,742.378 503.896,747.603C501.73,752.828 499.957,757.328 499.957,757.603C499.957,757.878 504.175,759.659 509.329,761.562C548.271,775.935 590.085,787.305 629.701,794.297C638.491,795.849 637.145,796.821 641.572,785.728ZM497.193,755.369C498.246,753.333 510.929,722.811 516.939,707.855C528.366,679.411 540.373,647.072 550.447,617.603C551.763,613.753 552.991,610.241 553.173,609.797C553.431,609.169 552.863,608.736 550.603,607.837C549.007,607.203 541.747,604.11 534.469,600.963C499.373,585.791 464.773,567.626 434.996,548.739C430.308,545.765 428.686,544.962 428.361,545.453C426.76,547.876 400.228,600.271 392.839,615.603C390.453,620.553 385.659,630.453 382.185,637.603C372.778,656.965 362.271,679.103 360.473,683.353C359.019,686.787 358.957,687.145 359.735,687.603C360.203,687.878 362.299,689.207 364.393,690.557C366.487,691.907 369.213,693.617 370.451,694.357C371.689,695.097 375.176,697.225 378.201,699.087C407.559,717.161 445.723,736.217 482.951,751.393C490.239,754.363 496.251,756.807 496.313,756.823C496.375,756.839 496.771,756.185 497.193,755.369ZM877.354,750.495C898.175,733.923 918.725,708.993 931.054,685.353C938.401,671.267 944.879,650.765 947.645,632.853C951.414,608.443 951.975,582.171 949.377,551.749C948.769,544.635 948.388,543.189 947.697,545.368C946.885,547.923 939.941,560.271 935.753,566.603C925.185,582.584 912.181,596.366 897.325,607.331L892.951,610.559L892.947,626.331C892.939,659.285 889.128,689.823 880.963,722.353C879.495,728.205 872.855,751.719 872.159,753.531C871.986,753.983 871.993,754.353 872.175,754.353C872.358,754.353 874.688,752.617 877.354,750.495ZM189.441,713.478C192.377,698.441 199.717,672.645 206.051,655.103C211.357,640.407 220.639,618.382 228.651,601.475C231.291,595.905 233.451,591.023 233.451,590.627C233.451,590.231 231.019,587.363 228.045,584.255C208.117,563.417 196.541,549.729 180.133,527.603C170.585,514.729 157.491,494.007 147.661,476.218C143.639,468.941 143.568,468.85 142.801,470.02C140.644,473.313 132.476,492.551 126.267,508.965C114.799,539.281 106.375,573.721 103.65,601.431L103.323,604.758L106.219,609.681C107.813,612.388 110.246,616.515 111.626,618.853C123.521,638.999 145.745,669.071 164.651,690.603C170.411,697.163 188.391,716.353 188.777,716.353C188.834,716.353 189.133,715.059 189.441,713.478ZM105.499,697.531C103.739,690.61 101.049,675.387 99.857,665.603C98.813,657.028 98.705,654.107 98.741,635.603C98.763,623.725 99.021,612.97 99.355,610.032L99.929,604.961L97.103,599.782C78.823,566.273 66.425,529.554 61.191,493.429C60.53,488.867 60.503,489.533 60.7,505.603C60.815,514.953 61.143,525.978 61.43,530.103C61.979,538.005 63.315,552.235 63.706,554.353C63.833,555.041 64.401,559.203 64.968,563.603C70.496,606.525 84.387,654.374 103.073,694.864C104.022,696.921 105.109,699.463 105.488,700.513C106.585,703.553 106.591,701.821 105.499,697.531ZM360.178,676.478C363.74,668.929 377.735,639.791 388.815,616.853C394.443,605.2 414.571,565.043 420.836,552.964L425.835,543.325L423.769,541.674C422.631,540.766 418.776,538.033 415.201,535.601C392.149,519.92 366.913,500.357 347.201,482.889C338.791,475.435 324.258,462.041 321.725,459.407C320.637,458.277 319.513,457.363 319.225,457.376C318.461,457.409 312.646,465.663 298.282,487.103C275.232,521.508 258.167,550.207 242.936,580.185L238.067,589.767L244.384,595.944C247.859,599.341 252.389,603.67 254.451,605.563C256.513,607.456 259.326,610.044 260.701,611.315C278.673,627.919 307.747,651.207 332.951,669.185C341.642,675.385 355.546,684.853 355.957,684.853C356.105,684.853 358.005,681.085 360.178,676.478ZM773.809,645.329C782.403,644.821 794.938,643.533 795.358,643.113C796.577,641.893 797.431,581.611 796.508,561.853C795.43,538.763 792.451,508.807 788.924,485.603C787.357,475.298 786.877,472.853 786.421,472.853C786.187,472.853 782.487,473.419 778.199,474.111C764.224,476.367 757.261,476.877 739.951,476.916C728.486,476.941 720.715,476.697 713.559,476.086C707.981,475.609 703.334,475.305 703.231,475.411C703.128,475.517 702.788,481.115 702.475,487.853C700.595,528.353 697.623,563.11 694.182,584.853C693.769,587.465 692.416,596.578 691.177,605.103C689.937,613.628 688.121,625.175 687.141,630.765C686.16,636.353 685.473,641.041 685.613,641.181C686.297,641.865 708.446,644.181 722.886,645.079C735.877,645.887 762.156,646.016 773.809,645.329ZM822.451,637.879C841.532,633.065 861.882,625.053 877.565,616.181C881.215,614.116 885.421,611.567 886.911,610.515L889.621,608.603L889.521,604.603C889.151,589.805 885.837,558.15 882.901,541.353C880.57,528.018 874.462,499.585 873.645,498.263C873.529,498.074 873.228,496.949 872.977,495.761C870.742,485.183 858.067,444.496 856.443,442.687C856.237,442.459 854.711,443.304 853.052,444.566C849.634,447.165 836.941,454.839 831.655,457.501C822.417,462.152 808.922,467.078 796.971,470.16C793.27,471.115 790.155,471.981 790.051,472.087C789.945,472.191 790.431,475.726 791.131,479.941C794.068,497.652 796.243,515.598 798.301,539.103C799.689,554.959 799.701,555.45 799.677,593.853C799.663,615.603 799.437,634.752 799.159,637.501C798.886,640.195 798.731,642.467 798.813,642.549C799.099,642.835 816.218,639.453 822.451,637.879ZM682.805,637.069C686.672,616.444 692.622,575.149 694.686,554.603C697.326,528.329 700.431,476.418 699.436,475.208C699.257,474.991 694.519,474.045 688.906,473.107C674.515,470.702 663.522,468.473 651.951,465.611C640.95,462.891 617.009,455.361 608.329,451.889C607.023,451.367 605.871,451.09 605.769,451.272C605.667,451.454 604.86,454.191 603.977,457.353C591.738,501.189 582.789,530.224 564.861,584.258C560.727,596.718 557.425,606.984 557.523,607.071C557.621,607.159 561.751,608.751 566.701,610.611C596.492,621.801 634.643,632.369 664.951,637.826C668.113,638.395 673.063,639.287 675.951,639.807C678.839,640.328 681.416,640.705 681.678,640.645C681.941,640.585 682.447,638.975 682.805,637.069ZM956.619,607.353C966.421,560.993 969.215,515.514 964.969,471.413C964.43,465.809 963.902,461.137 963.797,461.032C963.691,460.927 963.465,465.961 963.295,472.221C962.671,495.151 959.911,511.229 952.895,532.791C950.96,538.741 950.902,539.109 951.397,542.291C952.071,546.629 952.819,554.347 953.445,563.447C954.111,573.109 954.093,602.878 953.417,611.305C952.887,617.914 953.059,620.435 953.932,618.853C954.159,618.441 955.369,613.265 956.619,607.353ZM895.555,604.527C907.127,596.033 921.901,580.743 930.613,568.248C935.247,561.601 940.451,552.736 944.043,545.366L947.083,539.129L946.787,535.116C945.956,523.869 940.084,496.739 934.231,477.103C927.245,453.665 915.697,425.153 903.651,401.603C898.902,392.317 897.814,390.361 897.399,390.356C897.232,390.355 895.967,392.677 894.585,395.517C887.151,410.81 875.751,425.641 862.85,436.805L859.15,440.007L863.466,452.805C872.355,479.161 878.587,502.402 883.659,528.103C887.993,550.066 892.451,587.382 892.451,601.703C892.451,604.261 892.589,606.353 892.759,606.353C892.929,606.353 894.187,605.531 895.555,604.527ZM560.874,586.592C570.805,556.822 576.929,537.827 583.437,516.603C585.123,511.103 586.924,505.253 587.439,503.603C589.149,498.119 594.823,478.731 597.464,469.353C598.897,464.265 600.687,457.965 601.445,455.353C602.64,451.226 602.725,450.525 602.088,450.013C601.685,449.688 598.508,448.263 595.028,446.845C567.796,435.751 534.324,418.208 512.707,403.699C510.785,402.409 508.985,401.359 508.707,401.367C508.191,401.381 506.29,404.474 495.969,422.103C478.501,451.938 458.675,487.461 444.063,515.103C433.138,535.773 430.445,541.115 430.663,541.685C430.944,542.416 434.956,545.045 446.951,552.357C475.172,569.559 509.888,587.244 542.451,601.004C551.687,604.907 554.191,605.769 554.537,605.165C554.722,604.844 557.573,596.486 560.874,586.592ZM101.121,594.728C101.698,587.227 104.403,572.585 108.025,557.353C114.768,528.999 125.591,498.553 138.815,470.737L141.605,464.87L137.463,455.987C132.615,445.583 127.989,433.942 124.767,424.037C116.355,398.17 110.163,366.29 109.121,343.478C108.942,339.559 108.606,336.353 108.373,336.353C108.141,336.353 107.951,336.602 107.951,336.907C107.951,337.211 106.445,340.081 104.605,343.282C93.093,363.315 79.982,394.825 72.225,421.103C69.257,431.157 65.462,447.262 63.951,456.209C61.111,473.031 64.182,500.932 71.99,529.252C74.108,536.935 77.923,548.999 79.453,552.853C79.945,554.091 81.527,558.141 82.971,561.853C86.248,570.285 89.437,577.351 94.589,587.603C96.801,592.003 98.959,596.335 99.385,597.228C99.811,598.121 100.305,598.853 100.481,598.853C100.659,598.853 100.947,596.997 101.121,594.728ZM238.877,581.044C254.498,549.305 286.899,496.125 311.225,462.299L316.955,454.331L311.305,448.467C303.283,440.141 295.177,431.181 291.925,427.046C291.252,426.189 288.238,422.477 285.227,418.796C268.261,398.047 249.653,369.452 237.596,345.595L234.213,338.902L233.016,340.003C231.344,341.539 216.121,358.967 210.655,365.603C194.836,384.803 175.676,411.961 162.857,433.353C158.091,441.305 148.279,458.995 146.203,463.377L145.363,465.151L150.087,473.877C167.637,506.285 191.899,540.369 216.431,567.074C225.293,576.722 235.564,587.407 235.774,587.197C235.855,587.115 237.251,584.347 238.877,581.044ZM429.417,536.478C430.347,534.621 434.031,527.591 437.601,520.853C441.171,514.115 445.321,506.241 446.823,503.353C456.057,485.592 483.751,436.387 499.127,410.426C502.605,404.553 505.449,399.603 505.446,399.426C505.443,399.249 503.154,397.528 500.358,395.603C484.009,384.347 472.879,375.915 460.473,365.388C453.062,359.1 436.513,343.797 430.211,337.407C427.742,334.902 425.455,332.853 425.127,332.853C424.475,332.853 405.155,352.675 394.104,364.682C387.977,371.339 379.072,381.515 366.173,396.603C355.317,409.301 329.937,441.88 322.979,452.049L321.305,454.495L326.007,459.049C353.031,485.223 386.573,512.387 418.915,534.29C423.433,537.349 427.264,539.853 427.427,539.853C427.591,539.853 428.487,538.335 429.417,536.478ZM952.085,524.723C955.531,513.534 958.345,498.557 959.435,485.603C960.184,476.713 960.059,453.97 959.201,443.103C958.191,430.297 957.413,425.799 954.378,415.219C950.81,402.785 943.54,384.491 936.91,371.266C930.493,358.466 917.313,337.153 907.057,322.993C906.515,322.244 906.457,322.619 906.691,325.353C908.507,346.515 906.483,365.373 900.675,381.421L898.931,386.239L901.495,390.671C910.927,406.968 924.804,438.739 933.025,462.853C939.666,482.331 946.085,507.959 949.025,526.728C949.381,528.997 949.791,530.851 949.937,530.847C950.082,530.845 951.049,528.088 952.085,524.723ZM762.201,473.095C769.019,472.453 773.417,471.825 783.869,469.999C784.787,469.839 785.653,469.411 785.792,469.047C786.127,468.174 784.861,460.619 782.117,447.103C776.267,418.294 771.409,398.895 762.224,367.665C758.037,353.429 743.982,314.424 742.4,312.651C742.162,312.385 740.377,312.549 738.05,313.051C728.866,315.035 724.621,315.44 710.461,315.678C702.628,315.809 696.175,315.963 696.119,316.018C696.064,316.073 696.663,322.109 697.451,329.43C701.478,366.863 702.493,386.62 702.809,433.685L703.063,471.765L707.133,472.322C719.231,473.975 748.504,474.387 762.201,473.095ZM699.803,435.728C699.545,400.983 699.267,392.033 697.689,367.853C696.425,348.501 693.214,316.466 692.459,315.678C692.235,315.445 688.26,314.628 683.626,313.864C673.249,312.153 662.203,309.301 651.766,305.638C647.401,304.107 643.657,302.853 643.445,302.853C643.233,302.853 642.944,303.359 642.803,303.978C642.662,304.597 641.154,311.291 639.451,318.853C633.462,345.451 621.551,392.781 609.893,436.299C608.101,442.988 607.077,447.679 607.347,447.949C608.84,449.442 636.068,458.189 652.201,462.359C666.094,465.95 692.907,471.143 698.383,471.303L700.066,471.353L699.803,435.728ZM794.201,467.583C805.815,464.858 819.277,459.973 830.069,454.565C839.009,450.087 852.353,441.631 854.43,439.128C855.171,438.235 850.297,425.789 841.232,405.423C825.021,369.007 807.447,337.657 780.733,297.503L778.338,293.903L774.161,297.091C767.043,302.521 758.439,307.013 750.201,309.598C747.726,310.375 745.631,311.063 745.545,311.129C745.459,311.195 747.287,316.053 749.607,321.926C756.233,338.697 762.967,358.655 768.681,378.464C772.341,391.147 779.137,417.889 781.423,428.603C785.391,447.193 786.893,454.645 787.929,460.853C789.288,469.009 789.255,468.889 790.057,468.621C790.411,468.502 792.276,468.035 794.201,467.583ZM144.801,458.978C165.173,418.964 193.745,378.363 229.064,339.242L232.427,335.517L230.136,330.06C228.876,327.059 227.549,323.703 227.189,322.603C226.827,321.503 225.95,319.028 225.239,317.103C223.686,312.903 219.935,300.663 218.496,295.103C213.266,274.893 211.047,258.567 210.597,236.971L210.313,223.339L208.507,224.685C204.277,227.836 194.174,236.061 187.205,242.027C154.971,269.618 134.715,293.215 114.291,326.969C111.975,330.797 111.951,330.88 111.956,335.219C111.987,362.167 120.509,404.597 131.97,434.853C135.652,444.573 142.968,460.853 143.655,460.853C143.76,460.853 144.276,460.009 144.801,458.978ZM321.951,447.719C323.463,445.738 326.593,441.527 328.906,438.36C331.219,435.193 334.269,431.141 335.683,429.353C337.099,427.565 340.263,423.515 342.718,420.353C362.408,394.981 389.497,364.051 412.805,340.329L422.908,330.045L418.123,324.574C396.245,299.557 378.294,271.969 366.411,245.103C364.951,241.803 363.703,239.023 363.636,238.927C363.423,238.617 354.017,243.803 343.965,249.772C318.292,265.015 292.781,283.601 271.451,302.604C260.236,312.595 236.951,335.294 236.951,336.235C236.951,338.123 244.967,353.246 253.578,367.603C267.491,390.801 281.497,410.036 299.995,431.351C306.577,438.935 318.321,451.365 318.877,451.337C319.055,451.327 320.439,449.699 321.951,447.719ZM604.679,444.104C605.119,442.592 607.492,433.649 609.953,424.229C612.415,414.809 615.669,402.378 617.183,396.603C623.091,374.087 631.023,341.827 635.687,321.353C639.842,303.115 640.101,301.802 639.635,301.349C639.397,301.117 636.726,299.875 633.701,298.589C627.365,295.897 611.613,288.095 607.201,285.465C600.055,281.203 591.139,275.667 590.416,275.041C589.728,274.445 589.227,274.901 586.357,278.732C574.129,295.053 554.323,325.567 528.993,367.103C512.359,394.379 510.449,397.577 510.461,398.137C510.472,398.617 511.467,399.281 522.951,406.473C544.969,420.26 571.5,433.82 596.201,443.909C600.051,445.482 603.353,446.788 603.541,446.811C603.727,446.834 604.239,445.616 604.679,444.104ZM862.83,432.379C875.175,421.472 887.575,404.415 893.484,390.212C895.385,385.642 895.917,387.299 888.597,374.983C873.24,349.141 850.565,318.737 827.909,293.608C818.935,283.655 797.921,262.657 797.479,263.2C797.299,263.421 796.62,264.953 795.971,266.603C792.833,274.585 788.609,281.925 783.804,287.738C781.137,290.965 780.863,291.499 781.359,292.488C781.667,293.101 784.163,296.978 786.907,301.103C796.475,315.487 807.594,333.396 814.845,346.103C829.005,370.917 844.861,403.934 855.245,430.228C856.575,433.597 857.814,436.353 857.998,436.353C858.182,436.353 860.356,434.565 862.83,432.379ZM67.194,426.381C69.307,418.045 76.466,397.073 81.408,384.742C88.553,366.911 95.365,352.567 102.725,339.853C104.874,336.141 107.151,332.203 107.785,331.103C108.833,329.288 108.94,328.479 108.951,322.353C108.964,314.436 109.981,304.073 111.461,296.785C112.696,290.702 114.783,283.178 115.777,281.228C116.589,279.634 116.002,279.356 115.049,280.883C113.617,283.175 98.429,313.965 96.318,318.853C87.851,338.465 79.395,363.483 74.265,384.103C68.979,405.353 63.894,433.577 65.673,431.798C65.782,431.689 66.467,429.251 67.194,426.381ZM513.245,386.853C542.549,337.981 570.623,294.178 584.037,276.403C585.365,274.643 586.451,273.007 586.451,272.768C586.451,272.529 585.399,271.605 584.113,270.717C571.657,262.117 558.241,251.039 548.637,241.424C545.302,238.085 542.357,235.353 542.094,235.353C540.063,235.353 500.593,264.32 485.201,277.107C467.733,291.617 447.215,310.217 434.048,323.474L427.395,330.173L436.323,338.896C458.506,360.571 482.645,380.206 505.19,394.915L507.201,396.227L508.05,395.165C508.517,394.581 510.855,390.841 513.245,386.853ZM898.635,377.269C900.463,371.649 902.309,362.966 903.183,355.868C904.459,345.5 904.081,326.887 902.425,318.581C901.837,315.631 899.402,312.241 890.233,301.609C867.604,275.373 838.716,250.765 806.023,229.877C802.076,227.355 798.791,225.361 798.724,225.447C798.657,225.533 798.891,227.741 799.243,230.353C800.4,238.923 799.853,254.159 798.253,257.881C798.012,258.441 800.034,260.668 805.519,265.881C831.777,290.837 858.533,323.088 880.785,356.603C885.517,363.731 894.615,378.257 895.93,380.781C896.745,382.348 897.155,381.817 898.635,377.269ZM945.451,379.597C945.451,378.865 941.57,366.591 939.129,359.603C928.689,329.721 917.757,306.191 902.539,280.853C895.757,269.562 884.993,253.145 884.617,253.521C884.457,253.681 886.141,257.927 888.361,262.957C895.772,279.755 899.26,289.733 902.693,303.959C903.935,309.105 904.951,313.667 904.951,314.099C904.951,314.529 906.027,316.281 907.343,317.993C918.761,332.841 936.848,362.399 942.978,376.228C943.862,378.221 944.78,379.853 945.018,379.853C945.256,379.853 945.451,379.738 945.451,379.597ZM245.611,322.441C261.137,307.188 272.683,296.661 283.201,288.17C286.501,285.506 290.137,282.547 291.279,281.595C295.673,277.935 311.191,266.897 322.201,259.597C334.607,251.373 344.817,245.143 355.37,239.359C361.141,236.196 362.005,235.563 361.788,234.653C361.65,234.076 360.149,229.665 358.453,224.853C353.483,210.755 350.279,197.02 348.932,184.045C348.621,181.051 348.442,173.709 348.534,167.727C348.671,158.845 348.577,156.852 348.025,156.853C345.453,156.855 321.513,164.928 307.992,170.353C288.512,178.169 265.897,189.138 247.701,199.596C240.45,203.763 217.791,217.883 214.701,220.159C213.741,220.866 213.703,221.45 213.741,234.499C213.827,262.979 218.725,289.931 228.891,317.853C231.081,323.869 231.849,325.801 234.097,330.978C234.426,331.735 234.881,332.353 235.109,332.353C235.336,332.353 240.062,327.893 245.611,322.441ZM437.701,315.335C467.001,286.667 498.355,260.953 532.451,237.625C535.613,235.462 538.572,233.377 539.025,232.991C539.771,232.357 539.425,231.761 535.373,226.697C525.521,214.385 515.209,197.501 510.803,186.469C510.085,184.669 509.775,184.374 508.826,184.59C508.207,184.731 505.563,185.31 502.951,185.877C470.223,192.972 431.987,205.709 401.634,219.628C392.443,223.843 371.309,234.369 368.099,236.331L366.496,237.311L368.665,242.207C375.733,258.159 383.103,271.545 393.103,286.603C401.709,299.559 409.047,309.128 419.878,321.511L425.055,327.43L426.378,326.274C427.106,325.638 432.201,320.715 437.701,315.335ZM113.954,321.021C116.185,317.069 126.168,302.328 131.171,295.601C141.475,281.743 156.889,264.857 171.878,251.005C182.335,241.342 202.939,224.25 210.121,219.282C210.376,219.105 211.107,215.451 211.747,211.162C214.021,195.891 216.286,186.853 220.843,174.853C225.079,163.694 231.143,152.453 237.417,144.125C239.065,141.938 240.327,140.062 240.221,139.957C240.011,139.747 229.057,148.076 222.701,153.279C195.421,175.61 173.231,198.443 152.377,225.637C140.043,241.722 130.275,256.058 125.315,265.353C120.863,273.697 116.597,287.15 114.219,300.353C112.736,308.583 111.394,323.853 112.153,323.853C112.265,323.853 113.075,322.579 113.954,321.021ZM726.701,311.889C731.169,311.217 740.091,309.288 740.558,308.892C740.886,308.614 737.061,299.383 731.218,286.353C724.345,271.024 709.377,242.254 702.599,231.344C701.492,229.561 698.501,224.728 695.952,220.603C689.543,210.229 670.427,181.711 670.101,182.037C670.015,182.123 671.085,186.561 672.479,191.898C677.191,209.931 678.469,215.073 680.925,225.853C686.549,250.549 691.307,277.553 694.183,301.103C694.889,306.878 695.463,311.757 695.459,311.947C695.455,312.135 696.183,312.395 697.076,312.525C699.907,312.933 723.051,312.437 726.701,311.889ZM692.248,310.478C692.093,309.721 691.391,304.491 690.687,298.853C687.953,276.926 684.483,257.006 678.739,230.249C677.391,223.97 669.257,191.361 667.299,184.38C666.647,182.057 665.88,180.079 665.594,179.984C665.291,179.883 664.97,181.023 664.825,182.707C664.688,184.3 664.223,187.628 663.791,190.103C663.361,192.578 662.303,198.991 661.444,204.353C658.927,220.049 655.939,237.175 653.939,247.353C653.427,249.965 652.303,256.041 651.442,260.853C650.582,265.665 649.195,272.865 648.361,276.853C645.353,291.227 643.952,299.054 644.323,299.404C644.967,300.012 656.879,304.173 663.451,306.087C671.126,308.321 686.826,311.551 691.115,311.778C692.405,311.847 692.505,311.732 692.248,310.478ZM899.175,302.809C897.429,295.707 892.13,280.045 888.701,271.853C884.709,262.317 876.713,246.249 872.172,238.64C867.844,231.389 862.901,225.841 855.213,219.607C840.981,208.069 820.553,196.423 800.201,188.245C794.437,185.929 779.781,180.857 779.542,181.095C779.453,181.183 780.329,182.797 781.487,184.679C788.194,195.583 792.027,203.555 795.369,213.557L797.837,220.941L803.809,224.577C821.91,235.597 845.249,253.044 861.701,267.856C872.561,277.633 886.467,291.928 894.679,301.757C897.692,305.363 900.225,308.246 900.306,308.165C900.387,308.083 899.879,305.673 899.175,302.809ZM749.394,306.399C758.13,303.471 768.219,297.911 774.137,292.763L776.073,291.078L775.137,289.578C770.487,282.127 756.326,263.749 745.491,251.103C730.859,234.027 710.237,213.206 691.201,196.293C681.099,187.318 674.123,181.353 673.727,181.353C673.539,181.353 674.157,182.309 675.102,183.478C677.992,187.052 694.494,212.083 701.597,223.666C714.785,245.173 725.957,266.687 737.719,293.225C741.285,301.268 744.393,307.849 744.627,307.851C744.862,307.852 747.007,307.199 749.394,306.399ZM641.629,294.228C647.559,266.631 660.494,194.433 661.717,182.103C661.965,179.605 661.911,179.267 661.399,180.083C661.061,180.623 653.565,190.073 644.741,201.083C627.966,222.019 617.517,235.663 604.139,254.103C593.999,268.079 591.951,271.027 591.951,271.649C591.951,272.922 608.379,282.749 621.451,289.295C629.521,293.337 639.131,297.626 640.526,297.81C640.705,297.833 641.201,296.221 641.629,294.228ZM785.125,280.415C788.183,275.775 791.567,268.971 793.241,264.103L794.615,260.103L791.158,256.795C781.523,247.577 764.848,234.187 748.201,222.3C736.61,214.023 712.411,198.695 701.701,192.846C700.051,191.945 695.889,189.632 692.451,187.707C681.933,181.815 678.909,180.228 678.663,180.474C678.533,180.604 679.947,182.036 681.803,183.657C697.715,197.545 716.529,214.913 722.181,220.93C723.82,222.675 727.311,226.353 729.939,229.103C744.267,244.095 757.989,260.393 769.934,276.603C772.771,280.453 775.904,284.69 776.897,286.018L778.701,288.433L780.777,286.149C781.919,284.892 783.876,282.313 785.125,280.415ZM598.501,256.484C614.278,234.307 628.984,215.145 652.815,185.71C660.822,175.82 661.624,174.479 658.623,175.999C657.841,176.395 656.301,177.009 655.201,177.363C651.388,178.589 620.159,191.771 611.451,195.829C600.011,201.162 587.759,207.491 577.129,213.557C565.286,220.317 545.701,232.609 545.701,233.282C545.701,234.153 556.583,244.913 563.101,250.489C572.336,258.387 588.173,270.035 589.019,269.547C589.194,269.447 593.461,263.569 598.501,256.484ZM796.483,247.672C797.099,241.129 796.609,231.975 795.306,225.679L794.701,222.755L788.451,219.265C764.189,205.715 741.244,195.627 713.451,186.293C705.869,183.747 699.865,181.979 683.207,177.386C681.286,176.856 679.599,176.551 679.457,176.707C679.317,176.863 679.426,177.073 679.701,177.175C680.523,177.481 693.197,184.359 700.701,188.573C734.106,207.332 762.849,227.455 789.201,250.531C794.336,255.027 795.251,255.65 795.549,254.849C795.741,254.333 796.161,251.104 796.483,247.672ZM374.451,229.379C403.259,214.673 421.929,206.716 448.32,197.899C467.655,191.439 478.869,188.233 497.421,183.858C503.317,182.467 508.223,181.247 508.325,181.145C508.427,181.044 507.7,178.518 506.71,175.532C503.505,165.864 502.325,158.821 502.259,148.979L502.201,140.356L500.701,140.131C493.545,139.055 459.365,139.043 444.135,140.112C415.582,142.116 388.774,146.265 363.431,152.605C351.089,155.691 352.167,155.041 351.778,159.637C350.217,178.103 353.331,199.791 360.605,221.103C363.707,230.193 365.283,234.013 365.826,233.763C366.032,233.669 369.913,231.696 374.451,229.379ZM553.016,224.299C576.139,209.843 594.459,199.913 615.451,190.458C623.475,186.843 624.114,186.571 643.201,178.624C649.526,175.991 655.151,173.613 655.701,173.341C656.959,172.717 605.724,173.112 594.201,173.815C562.306,175.759 547.51,177.371 525.701,181.277C522.676,181.819 518.683,182.531 516.826,182.859C514.492,183.271 513.451,183.679 513.451,184.178C513.451,186.202 521.808,201.91 527.112,209.853C532.674,218.183 542.077,230.353 542.952,230.353C543.161,230.353 547.689,227.629 553.016,224.299ZM793.451,217.627C793.451,216.545 788.298,203.879 785.944,199.175C782.809,192.912 775.891,181.405 774.503,180.151C772.229,178.093 748.742,174.219 728.787,172.611C717.703,171.719 675.951,171.515 675.951,172.353C675.951,172.628 676.457,172.854 677.076,172.855C678.671,172.857 692.869,176.499 701.451,179.107C717.888,184.1 737.512,191.25 752.204,197.597C759.912,200.927 779.545,210.563 786.701,214.527C792.367,217.667 793.451,218.164 793.451,217.627ZM233.451,204.261C270.346,181.759 305.476,165.953 344.963,154.087L349.225,152.805L350.307,146.455C352.339,134.541 356.162,123.507 361.953,112.853C364.821,107.577 370.125,99.519 372.453,96.902C373.285,95.967 373.893,95.127 373.803,95.039C373.276,94.511 356.207,97.119 343.451,99.677C311.813,106.019 276.901,118.203 256.491,130.026C250.261,133.635 247.051,136.672 241.349,144.353C229.78,159.935 221.855,177.715 217.279,198.353C216.09,203.715 214.451,213.685 214.451,215.555C214.451,216.159 215.617,215.597 218.826,213.445C221.232,211.832 227.813,207.699 233.451,204.261ZM845.88,205.009C830.421,188.079 819.185,177.117 803.951,164.106C789.52,151.78 784.973,149.141 772.951,146.116C766.307,144.444 761.382,143.853 754.089,143.853L747.798,143.853L754.759,150.978C762.14,158.531 766.459,163.521 772.56,171.541L776.316,176.477L785.803,179.605C807.757,186.843 831.485,198.401 847.316,209.568C850.553,211.851 853.281,213.651 853.378,213.567C853.475,213.483 850.101,209.633 845.88,205.009ZM517.451,179.545C535.921,175.967 554.273,173.514 572.951,172.125C593.225,170.617 601.058,170.303 624.201,170.066C654.511,169.757 657.913,169.463 649.451,167.888C647.663,167.555 643.501,166.525 640.201,165.597C636.901,164.671 630.151,162.869 625.201,161.593C620.251,160.319 612.826,158.391 608.701,157.309C573.433,148.064 542.975,142.884 510.326,140.579L505.451,140.234L505.451,147.507C505.451,151.508 505.693,156.525 505.99,158.657C506.563,162.772 509.462,174.514 510.615,177.387C510.993,178.331 511.451,179.52 511.631,180.03C511.857,180.667 512.232,180.849 512.83,180.615C513.309,180.426 515.389,179.945 517.451,179.545ZM767.407,170.228C761.771,163.085 754.347,154.835 748.541,149.263L743.62,144.539L739.791,144.905C735.185,145.345 734.547,145.47 725.951,147.616C717.798,149.651 709.425,152.493 700.701,156.185C691.997,159.869 675.375,167.943 675.741,168.31C675.903,168.471 686.197,168.629 698.617,168.661C711.082,168.693 724.449,168.985 728.451,169.313C741.287,170.365 760.056,172.987 767.951,174.829C771.604,175.682 771.585,175.521 767.407,170.228ZM641.951,148.181C621.671,128.085 613.855,121.097 598.451,109.295C592.893,105.037 579.891,96.219 574.201,92.851C571.726,91.385 568.563,89.443 567.174,88.536L564.647,86.886L558.174,88.573C545.14,91.97 536.939,95.455 528.326,101.257C526.469,102.507 524.951,103.695 524.951,103.899C524.951,104.101 529.62,105.781 535.326,107.631C566.145,117.62 589.163,127.499 617.923,143.081C636.632,153.217 646.975,158.979 652.951,162.597C656.663,164.844 659.813,166.589 659.951,166.475C660.089,166.361 651.989,158.129 641.951,148.181ZM683.382,160.609C702.973,150.885 718.103,145.538 736.799,141.733L739.898,141.103L733.799,136.309C724.903,129.314 718.021,124.446 710.951,120.143L704.701,116.341L703.201,118.136C701.625,120.023 691.823,134.68 685.451,144.679C683.389,147.915 679.486,153.927 676.779,158.038C670.853,167.039 670.676,167.413 673.021,165.965C673.983,165.369 678.646,162.959 683.382,160.609ZM649.951,164.657C649.951,164.549 647.195,162.938 643.826,161.076C640.457,159.214 636.689,157.131 635.451,156.448C634.213,155.765 630.203,153.534 626.538,151.491C596.143,134.546 573.639,124.222 546.701,114.865C543.401,113.719 540.223,112.589 539.638,112.356C539.053,112.123 534.781,110.763 530.145,109.336L521.715,106.741L519.501,109.171C516.706,112.241 512.289,118.965 510.682,122.597C509.293,125.737 506.755,133.307 506.304,135.655L506.005,137.206L511.534,137.542C517.185,137.885 534.941,139.745 545.701,141.123C554.511,142.25 568.393,144.661 579.178,146.937C590.925,149.417 638.379,161.443 645.701,163.797C648.725,164.769 649.951,165.017 649.951,164.657ZM665.768,137.103C665.594,122.001 665.311,114.629 664.761,110.853C663.853,104.619 662.605,98.006 662.217,97.38C661.785,96.679 649.851,92.857 640.201,90.328C633.717,88.629 619.397,85.803 619.013,86.145C618.909,86.238 620.664,88.281 622.913,90.684C630.473,98.765 640.099,112.473 647.433,125.603C653.801,137.003 658.895,148.05 664.725,163.103C665.653,165.501 665.997,156.945 665.768,137.103ZM679.157,148.251C683.533,141.569 690.17,131.491 693.906,125.853C697.642,120.215 700.881,115.319 701.103,114.971C701.397,114.512 698.863,113.04 691.855,109.601C683.487,105.494 666.466,98.171 666.111,98.525C666.045,98.593 666.413,100.999 666.931,103.875C668.576,113.007 668.947,120.059 668.957,142.353L668.967,164.103L670.084,162.251C670.698,161.233 674.781,154.933 679.157,148.251ZM657.697,154.001C645.634,126.302 633.191,106.408 616.803,88.623L613.597,85.141L609.649,84.783C602.327,84.117 585.981,84.321 577.826,85.179C573.495,85.635 569.955,86.141 569.961,86.305C569.965,86.469 571.485,87.484 573.335,88.561C589.095,97.726 609.31,112.743 624.307,126.425C629.968,131.591 658.863,160.355 660.051,162.007C662.121,164.887 661.464,162.652 657.697,154.001ZM357.083,150.839C374.355,145.995 405.419,140.523 429.201,138.135C448.243,136.223 474.074,135.571 494.267,136.494L502.833,136.885L503.187,134.994C503.837,131.507 506.555,123.637 508.329,120.103C510.575,115.627 512.689,112.327 515.596,108.758L517.914,105.913L515.169,105.115C505.091,102.185 483.963,97.945 467.951,95.639C439.073,91.481 415.147,90.921 382.859,93.651L379.016,93.977L375.542,98.289C366.779,109.17 359.989,122.191 356.182,135.419C354.193,142.329 352.361,151.853 353.021,151.853C353.264,151.853 355.092,151.397 357.083,150.839ZM776.469,142.952C775.791,142.485 772.977,140.528 770.217,138.603C765.409,135.251 763.111,133.758 754.201,128.197C740.858,119.868 714.357,104.853 713.001,104.853C712.801,104.853 711.221,106.794 709.491,109.166C706.123,113.787 706.133,113.557 709.201,115.186C713.716,117.583 728.811,128.147 736.161,134.054L744.62,140.853L753.725,140.853C762.501,140.853 770.383,141.747 775.201,143.287C777.443,144.005 777.843,143.899 776.469,142.952ZM272.953,118.352C276.609,116.487 292.155,110.471 300.659,107.632C318.745,101.592 336.855,97.141 356.451,93.92C364.125,92.659 373.795,91.345 375.371,91.349C376.162,91.352 378.111,89.876 381.371,86.805C393.448,75.431 407.329,67.163 423.122,61.935C426.161,60.929 428.274,60.035 427.817,59.947C425.716,59.542 396.435,66.074 381.049,70.381C346.949,79.924 312.685,94.047 286.201,109.477C279.017,113.663 270.451,118.939 270.451,119.18C270.451,119.525 271.028,119.335 272.953,118.352ZM706.595,107.459C708.165,105.277 709.451,103.279 709.451,103.021C709.451,102.763 708.383,102.079 707.076,101.503C705.769,100.925 700.989,98.729 696.451,96.62C683.029,90.383 677.302,87.943 667.947,84.475C657.913,80.757 658.709,80.703 660.883,84.955C661.908,86.961 663.374,90.023 664.141,91.76C664.908,93.497 665.911,95.035 666.369,95.179C672.443,97.093 686.643,103.241 695.701,107.879C699.826,109.991 703.322,111.653 703.469,111.572C703.617,111.491 705.023,109.641 706.595,107.459ZM524.803,99.785C532.693,94.036 546.041,88.106 557.326,85.336C558.495,85.049 559.451,84.654 559.449,84.459C559.447,83.967 536.621,72.745 531.701,70.816C514.376,64.023 501.593,60.637 484.308,58.259C477.867,57.373 473.838,57.143 464.701,57.143C454.059,57.142 452.716,57.245 446.701,58.518C428.568,62.357 409.969,69.685 397.713,77.817C393.657,80.509 382.329,89.897 382.695,90.264C382.789,90.357 385.64,90.175 389.033,89.859C398.745,88.956 425.881,88.643 437.201,89.304C458.199,90.53 482.842,94.165 505.091,99.317C511.811,100.873 518.608,102.715 519.803,103.303C519.858,103.331 522.108,101.747 524.803,99.785ZM659.796,89.769C659.137,88.281 657.627,85.523 656.439,83.642C654.613,80.753 653.879,80.045 651.707,79.085C646.413,76.743 624.501,70.349 612.451,67.629C610.389,67.163 606.901,66.35 604.701,65.823C602.501,65.295 598.001,64.295 594.701,63.599C591.401,62.903 588.195,62.221 587.576,62.083C585.611,61.648 586.335,62.209 590.794,64.581C597.675,68.242 607.778,75.393 612.331,79.826L614.461,81.9L622.836,83.347C632.057,84.941 647.917,88.845 655.701,91.437C658.451,92.353 660.767,92.962 660.847,92.79C660.927,92.618 660.455,91.259 659.796,89.769ZM571.951,82.57C580.867,81.366 594.139,80.757 601.826,81.199C605.745,81.423 608.951,81.477 608.951,81.318C608.951,80.762 602.663,75.936 597.254,72.34C591.211,68.323 578.51,61.955 573.383,60.373C565.522,57.945 541.755,55.379 517.505,54.34C504.501,53.783 478.167,53.84 480.451,54.421C481.139,54.596 485.295,55.224 489.687,55.817C504.4,57.802 521.363,62.811 538.451,70.216C544.985,73.047 558.215,79.637 562.207,82.048C563.853,83.043 565.539,83.726 565.951,83.567C566.363,83.409 569.063,82.96 571.951,82.57Z" style="fill:white;fill-rule:nonzero;stroke:white;stroke-width:1px;"/>
    </g>
</svg>
