<?xml version="1.0" encoding="UTF-8" standalone="no"?>
<!DOCTYPE svg PUBLIC "-//W3C//DTD SVG 1.1//EN" "http://www.w3.org/Graphics/SVG/1.1/DTD/svg11.dtd">
<svg width="100%" height="100%" viewBox="0 0 1025 1025" version="1.1" xmlns="http://www.w3.org/2000/svg" xmlns:xlink="http://www.w3.org/1999/xlink" xml:space="preserve" xmlns:serif="http://www.serif.com/" style="fill-rule:evenodd;clip-rule:evenodd;">
    <g transform="matrix(0.458282,0,0,0.458282,146.013,200.129)">
        <path d="M859.486,68.742L859.486,316.483C859.486,350.204 832.109,377.581 798.388,377.581L-152.996,377.581C-186.717,377.581 -214.094,350.204 -214.094,316.483L-214.094,68.742C-214.094,35.021 -186.717,7.645 -152.996,7.645L798.388,7.645C832.109,7.645 859.486,35.021 859.486,68.742Z" style="fill:none;stroke:white;stroke-width:14px;"/>
    </g>
    <g transform="matrix(0.458282,0,0,0.458282,146.013,200.137)">
        <path d="M859.486,1046.72L859.486,1294.46C859.486,1328.19 832.109,1355.56 798.388,1355.56L-152.996,1355.56C-186.717,1355.56 -214.094,1328.19 -214.094,1294.46L-214.094,1046.72C-214.094,1013 -186.717,985.627 -152.996,985.627L798.388,985.627C832.109,985.627 859.486,1013 859.486,1046.72Z" style="fill:none;stroke:white;stroke-width:14px;"/>
    </g>
    <rect x="658" y="437" width="221" height="151" style="fill:rgb(255,181,181);fill-opacity:0;"/>
    <g transform="matrix(0.458282,0,0,0.458282,146.034,200.029)">
        <path d="M1282.86,499.65C1211.27,324.257 1043.49,207.142 854.169,200.416C1043.49,207.142 1211.27,324.257 1282.86,499.65Z" style="fill:none;stroke:white;stroke-width:15px;stroke-dasharray:30,30;"/>
    </g>
    <g transform="matrix(0.458282,0,0,-0.458282,145.215,824.198)">
        <path d="M1282.86,499.65C1211.27,324.257 1043.49,207.142 854.169,200.416C1043.49,207.142 1211.27,324.257 1282.86,499.65Z" style="fill:none;stroke:white;stroke-width:15px;stroke-dasharray:30,30;"/>
    </g>
    <g transform="matrix(0.458282,0,0,0.458282,146.048,200.133)">
        <path d="M1813.41,557.734L1813.41,805.474C1813.41,839.195 1786.03,866.572 1752.31,866.572L800.928,866.572C767.207,866.572 739.83,839.195 739.83,805.474L739.83,557.734C739.83,524.013 767.207,496.636 800.928,496.636L1752.31,496.636C1786.03,496.636 1813.41,524.013 1813.41,557.734Z" style="fill:white;fill-opacity:0;stroke:white;stroke-width:14px;"/>
    </g>
</svg>
