<svg width="1120" height="120" viewBox="0 0 1120 120" fill="none" xmlns="http://www.w3.org/2000/svg">
<rect y="17" width="226" height="103" rx="8" fill="#020202"/>
<rect x="1" y="18" width="224" height="101" rx="7" stroke="white" stroke-opacity="0.9" stroke-width="2"/>
<path d="M68.6912 68.8608C68.6912 70.5493 68.3768 71.9609 67.7479 73.0957C67.119 74.2236 66.2064 75.0747 65.0101 75.6489C63.8138 76.2163 62.3714 76.5 60.6829 76.5H56.5198V61.5088H61.1341C62.6859 61.5088 64.0257 61.7891 65.1536 62.3496C66.2816 62.9033 67.1531 63.7271 67.7684 64.8208C68.3836 65.9077 68.6912 67.2544 68.6912 68.8608ZM66.1278 68.9326C66.1278 67.7021 65.9329 66.6904 65.5433 65.8975C65.1605 65.1045 64.5931 64.5166 63.8411 64.1338C63.096 63.7441 62.1766 63.5493 61.0828 63.5493H58.9808V74.439H60.7239C62.5355 74.439 63.889 73.9775 64.7845 73.0547C65.68 72.1318 66.1278 70.7578 66.1278 68.9326ZM76.3353 64.9336C77.7709 64.9336 78.8544 65.2515 79.5858 65.8872C80.3241 66.5229 80.6932 67.5142 80.6932 68.8608V76.5H78.9808L78.5194 74.8901H78.4374C78.1161 75.3003 77.7845 75.6387 77.4427 75.9053C77.1009 76.1719 76.7045 76.3701 76.2533 76.5C75.8089 76.6367 75.2655 76.7051 74.6229 76.7051C73.9462 76.7051 73.3412 76.582 72.808 76.3359C72.2748 76.083 71.8544 75.7002 71.5467 75.1875C71.2391 74.6748 71.0853 74.0254 71.0853 73.2393C71.0853 72.0703 71.5194 71.1919 72.3876 70.604C73.2626 70.0161 74.5819 69.6914 76.3456 69.6299L78.3143 69.5581V68.9634C78.3143 68.1772 78.1297 67.6167 77.7606 67.2817C77.3983 66.9468 76.8856 66.7793 76.2225 66.7793C75.6551 66.7793 75.1048 66.8613 74.5716 67.0254C74.0384 67.1895 73.5189 67.3911 73.013 67.6304L72.2337 65.9282C72.7875 65.6343 73.4164 65.395 74.1205 65.2104C74.8314 65.0259 75.5697 64.9336 76.3353 64.9336ZM78.3041 71.0757L76.8378 71.127C75.6346 71.168 74.7904 71.373 74.305 71.7422C73.8197 72.1113 73.577 72.6172 73.577 73.2598C73.577 73.8203 73.7445 74.2305 74.0795 74.4902C74.4144 74.7432 74.8553 74.8696 75.4022 74.8696C76.2362 74.8696 76.9266 74.6338 77.4735 74.1621C78.0272 73.6836 78.3041 72.9829 78.3041 72.0601V71.0757ZM88.5014 74.7568C88.8158 74.7568 89.1269 74.7295 89.4345 74.6748C89.7421 74.6133 90.0224 74.5415 90.2753 74.4595V76.2847C90.0087 76.4009 89.6635 76.5 89.2396 76.582C88.8158 76.6641 88.3749 76.7051 87.9169 76.7051C87.2743 76.7051 86.6967 76.5991 86.184 76.3872C85.6713 76.1685 85.2645 75.7959 84.9638 75.2695C84.663 74.7432 84.5126 74.0151 84.5126 73.0854V66.9844H82.9643V65.9077L84.6254 65.0566L85.4149 62.6265H86.9325V65.1489H90.183V66.9844H86.9325V73.0547C86.9325 73.6289 87.0761 74.0562 87.3632 74.3364C87.6503 74.6167 88.0297 74.7568 88.5014 74.7568ZM97.2426 64.9336C98.6782 64.9336 99.7617 65.2515 100.493 65.8872C101.231 66.5229 101.601 67.5142 101.601 68.8608V76.5H99.8881L99.4267 74.8901H99.3447C99.0234 75.3003 98.6918 75.6387 98.35 75.9053C98.0082 76.1719 97.6118 76.3701 97.1606 76.5C96.7162 76.6367 96.1728 76.7051 95.5302 76.7051C94.8535 76.7051 94.2485 76.582 93.7153 76.3359C93.1821 76.083 92.7617 75.7002 92.454 75.1875C92.1464 74.6748 91.9926 74.0254 91.9926 73.2393C91.9926 72.0703 92.4267 71.1919 93.2949 70.604C94.1699 70.0161 95.4892 69.6914 97.2529 69.6299L99.2216 69.5581V68.9634C99.2216 68.1772 99.037 67.6167 98.6679 67.2817C98.3056 66.9468 97.7929 66.7793 97.1298 66.7793C96.5624 66.7793 96.0121 66.8613 95.4789 67.0254C94.9457 67.1895 94.4262 67.3911 93.9203 67.6304L93.1411 65.9282C93.6948 65.6343 94.3237 65.395 95.0278 65.2104C95.7387 65.0259 96.477 64.9336 97.2426 64.9336ZM99.2114 71.0757L97.7451 71.127C96.5419 71.168 95.6977 71.373 95.2123 71.7422C94.727 72.1113 94.4843 72.6172 94.4843 73.2598C94.4843 73.8203 94.6518 74.2305 94.9868 74.4902C95.3217 74.7432 95.7626 74.8696 96.3095 74.8696C97.1435 74.8696 97.8339 74.6338 98.3808 74.1621C98.9345 73.6836 99.2114 72.9829 99.2114 72.0601V71.0757ZM107.594 60.5449V64.3901C107.594 64.8345 107.58 65.272 107.553 65.7026C107.532 66.1265 107.512 66.458 107.491 66.6973H107.594C107.901 66.2051 108.329 65.7915 108.875 65.4565C109.429 65.1147 110.137 64.9438 110.998 64.9438C112.345 64.9438 113.428 65.4395 114.249 66.4307C115.069 67.415 115.479 68.8745 115.479 70.8091C115.479 72.0942 115.291 73.1743 114.915 74.0493C114.539 74.9243 114.009 75.5874 113.326 76.0386C112.649 76.4829 111.853 76.7051 110.937 76.7051C110.075 76.7051 109.378 76.5479 108.845 76.2334C108.318 75.9121 107.905 75.5396 107.604 75.1157H107.43L106.989 76.5H105.184V60.5449H107.594ZM110.362 66.9023C109.679 66.9023 109.135 67.0391 108.732 67.3125C108.335 67.5859 108.048 67.9961 107.871 68.543C107.693 69.083 107.601 69.77 107.594 70.604V70.8193C107.594 72.084 107.792 73.0513 108.188 73.7212C108.592 74.3911 109.323 74.7261 110.383 74.7261C111.224 74.7261 111.87 74.3877 112.321 73.7109C112.772 73.0273 112.998 72.0498 112.998 70.7783C112.998 69.4932 112.772 68.5259 112.321 67.8765C111.876 67.2271 111.224 66.9023 110.362 66.9023ZM122.928 64.9336C124.364 64.9336 125.447 65.2515 126.179 65.8872C126.917 66.5229 127.286 67.5142 127.286 68.8608V76.5H125.574L125.112 74.8901H125.03C124.709 75.3003 124.377 75.6387 124.036 75.9053C123.694 76.1719 123.297 76.3701 122.846 76.5C122.402 76.6367 121.858 76.7051 121.216 76.7051C120.539 76.7051 119.934 76.582 119.401 76.3359C118.868 76.083 118.447 75.7002 118.14 75.1875C117.832 74.6748 117.678 74.0254 117.678 73.2393C117.678 72.0703 118.112 71.1919 118.98 70.604C119.855 70.0161 121.175 69.6914 122.938 69.6299L124.907 69.5581V68.9634C124.907 68.1772 124.723 67.6167 124.354 67.2817C123.991 66.9468 123.479 66.7793 122.815 66.7793C122.248 66.7793 121.698 66.8613 121.165 67.0254C120.631 67.1895 120.112 67.3911 119.606 67.6304L118.827 65.9282C119.38 65.6343 120.009 65.395 120.713 65.2104C121.424 65.0259 122.163 64.9336 122.928 64.9336ZM124.897 71.0757L123.431 71.127C122.228 71.168 121.383 71.373 120.898 71.7422C120.413 72.1113 120.17 72.6172 120.17 73.2598C120.17 73.8203 120.337 74.2305 120.672 74.4902C121.007 74.7432 121.448 74.8696 121.995 74.8696C122.829 74.8696 123.52 74.6338 124.066 74.1621C124.62 73.6836 124.897 72.9829 124.897 72.0601V71.0757ZM138.499 73.2598C138.499 74.0049 138.317 74.6338 137.955 75.1465C137.593 75.6592 137.063 76.0488 136.366 76.3154C135.675 76.5752 134.828 76.7051 133.823 76.7051C133.03 76.7051 132.346 76.647 131.772 76.5308C131.205 76.4214 130.668 76.2505 130.162 76.0181V73.9365C130.702 74.1895 131.307 74.4082 131.977 74.5928C132.654 74.7773 133.293 74.8696 133.895 74.8696C134.688 74.8696 135.258 74.7466 135.607 74.5005C135.956 74.2476 136.13 73.9126 136.13 73.4956C136.13 73.2495 136.058 73.0308 135.915 72.8394C135.778 72.6411 135.518 72.4395 135.135 72.2344C134.759 72.0225 134.206 71.7695 133.474 71.4756C132.756 71.1885 132.151 70.9014 131.659 70.6143C131.167 70.3271 130.794 69.9819 130.542 69.5786C130.289 69.1685 130.162 68.6455 130.162 68.0098C130.162 67.0049 130.559 66.2427 131.352 65.7231C132.151 65.1968 133.208 64.9336 134.52 64.9336C135.217 64.9336 135.874 65.0054 136.489 65.1489C137.111 65.2856 137.719 65.4873 138.314 65.7539L137.555 67.5688C137.043 67.3433 136.526 67.1587 136.007 67.0151C135.494 66.8647 134.971 66.7896 134.438 66.7896C133.816 66.7896 133.341 66.8853 133.013 67.0767C132.691 67.2681 132.531 67.5415 132.531 67.897C132.531 68.1636 132.609 68.3892 132.767 68.5737C132.924 68.7583 133.194 68.9429 133.577 69.1274C133.966 69.312 134.506 69.541 135.197 69.8145C135.874 70.0742 136.458 70.3477 136.95 70.6348C137.449 70.915 137.832 71.2603 138.099 71.6704C138.365 72.0806 138.499 72.6104 138.499 73.2598ZM145.835 64.9336C146.847 64.9336 147.715 65.1421 148.44 65.5591C149.164 65.9761 149.721 66.5674 150.111 67.333C150.501 68.0986 150.695 69.0146 150.695 70.0811V71.373H143.118C143.145 72.4736 143.439 73.3213 144 73.916C144.567 74.5107 145.36 74.8081 146.379 74.8081C147.103 74.8081 147.753 74.7397 148.327 74.603C148.908 74.4595 149.506 74.251 150.121 73.9775V75.936C149.554 76.2026 148.976 76.3975 148.388 76.5205C147.8 76.6436 147.096 76.7051 146.276 76.7051C145.162 76.7051 144.181 76.4897 143.333 76.0591C142.492 75.6216 141.833 74.9722 141.354 74.1108C140.882 73.2495 140.647 72.1797 140.647 70.9014C140.647 69.6299 140.862 68.5498 141.293 67.6611C141.723 66.7725 142.328 66.0957 143.108 65.6309C143.887 65.166 144.796 64.9336 145.835 64.9336ZM145.835 66.7485C145.076 66.7485 144.461 66.9946 143.989 67.4868C143.525 67.979 143.251 68.7002 143.169 69.6504H148.337C148.33 69.083 148.234 68.5806 148.05 68.1431C147.872 67.7056 147.599 67.3638 147.23 67.1177C146.867 66.8716 146.402 66.7485 145.835 66.7485ZM168.824 76.5L167.358 72.3369H161.626L160.159 76.5H157.565L163.143 61.4473H165.871L171.439 76.5H168.824ZM166.722 70.2246L165.297 66.123C165.242 65.9453 165.163 65.6958 165.061 65.3745C164.958 65.0464 164.856 64.7148 164.753 64.3799C164.651 64.0381 164.565 63.751 164.497 63.5186C164.428 63.7988 164.343 64.1133 164.24 64.4619C164.145 64.8037 164.049 65.125 163.953 65.4258C163.864 65.7266 163.796 65.959 163.748 66.123L162.313 70.2246H166.722Z" fill="white"/>
<rect x="894" y="17" width="226" height="103" rx="8" fill="#020202"/>
<rect x="895" y="18" width="224" height="101" rx="7" stroke="white" stroke-opacity="0.9" stroke-width="2"/>
<path d="M962.712 68.8608C962.712 70.5493 962.397 71.9609 961.768 73.0957C961.139 74.2236 960.227 75.0747 959.031 75.6489C957.834 76.2163 956.392 76.5 954.703 76.5H950.54V61.5088H955.155C956.706 61.5088 958.046 61.7891 959.174 62.3496C960.302 62.9033 961.174 63.7271 961.789 64.8208C962.404 65.9077 962.712 67.2544 962.712 68.8608ZM960.148 68.9326C960.148 67.7021 959.953 66.6904 959.564 65.8975C959.181 65.1045 958.614 64.5166 957.862 64.1338C957.117 63.7441 956.197 63.5493 955.103 63.5493H953.001V74.439H954.744C956.556 74.439 957.909 73.9775 958.805 73.0547C959.701 72.1318 960.148 70.7578 960.148 68.9326ZM970.356 64.9336C971.791 64.9336 972.875 65.2515 973.606 65.8872C974.345 66.5229 974.714 67.5142 974.714 68.8608V76.5H973.001L972.54 74.8901H972.458C972.137 75.3003 971.805 75.6387 971.463 75.9053C971.121 76.1719 970.725 76.3701 970.274 76.5C969.829 76.6367 969.286 76.7051 968.643 76.7051C967.967 76.7051 967.362 76.582 966.828 76.3359C966.295 76.083 965.875 75.7002 965.567 75.1875C965.26 74.6748 965.106 74.0254 965.106 73.2393C965.106 72.0703 965.54 71.1919 966.408 70.604C967.283 70.0161 968.602 69.6914 970.366 69.6299L972.335 69.5581V68.9634C972.335 68.1772 972.15 67.6167 971.781 67.2817C971.419 66.9468 970.906 66.7793 970.243 66.7793C969.676 66.7793 969.125 66.8613 968.592 67.0254C968.059 67.1895 967.539 67.3911 967.034 67.6304L966.254 65.9282C966.808 65.6343 967.437 65.395 968.141 65.2104C968.852 65.0259 969.59 64.9336 970.356 64.9336ZM972.325 71.0757L970.858 71.127C969.655 71.168 968.811 71.373 968.326 71.7422C967.84 72.1113 967.598 72.6172 967.598 73.2598C967.598 73.8203 967.765 74.2305 968.1 74.4902C968.435 74.7432 968.876 74.8696 969.423 74.8696C970.257 74.8696 970.947 74.6338 971.494 74.1621C972.048 73.6836 972.325 72.9829 972.325 72.0601V71.0757ZM982.522 74.7568C982.836 74.7568 983.147 74.7295 983.455 74.6748C983.763 74.6133 984.043 74.5415 984.296 74.4595V76.2847C984.029 76.4009 983.684 76.5 983.26 76.582C982.836 76.6641 982.395 76.7051 981.937 76.7051C981.295 76.7051 980.717 76.5991 980.204 76.3872C979.692 76.1685 979.285 75.7959 978.984 75.2695C978.683 74.7432 978.533 74.0151 978.533 73.0854V66.9844H976.985V65.9077L978.646 65.0566L979.435 62.6265H980.953V65.1489H984.204V66.9844H980.953V73.0547C980.953 73.6289 981.097 74.0562 981.384 74.3364C981.671 74.6167 982.05 74.7568 982.522 74.7568ZM991.263 64.9336C992.699 64.9336 993.782 65.2515 994.514 65.8872C995.252 66.5229 995.621 67.5142 995.621 68.8608V76.5H993.909L993.447 74.8901H993.365C993.044 75.3003 992.712 75.6387 992.371 75.9053C992.029 76.1719 991.632 76.3701 991.181 76.5C990.737 76.6367 990.193 76.7051 989.551 76.7051C988.874 76.7051 988.269 76.582 987.736 76.3359C987.203 76.083 986.782 75.7002 986.475 75.1875C986.167 74.6748 986.013 74.0254 986.013 73.2393C986.013 72.0703 986.447 71.1919 987.315 70.604C988.19 70.0161 989.51 69.6914 991.273 69.6299L993.242 69.5581V68.9634C993.242 68.1772 993.058 67.6167 992.688 67.2817C992.326 66.9468 991.813 66.7793 991.15 66.7793C990.583 66.7793 990.033 66.8613 989.499 67.0254C988.966 67.1895 988.447 67.3911 987.941 67.6304L987.162 65.9282C987.715 65.6343 988.344 65.395 989.048 65.2104C989.759 65.0259 990.497 64.9336 991.263 64.9336ZM993.232 71.0757L991.766 71.127C990.562 71.168 989.718 71.373 989.233 71.7422C988.747 72.1113 988.505 72.6172 988.505 73.2598C988.505 73.8203 988.672 74.2305 989.007 74.4902C989.342 74.7432 989.783 74.8696 990.33 74.8696C991.164 74.8696 991.854 74.6338 992.401 74.1621C992.955 73.6836 993.232 72.9829 993.232 72.0601V71.0757ZM1001.61 60.5449V64.3901C1001.61 64.8345 1001.6 65.272 1001.57 65.7026C1001.55 66.1265 1001.53 66.458 1001.51 66.6973H1001.61C1001.92 66.2051 1002.35 65.7915 1002.9 65.4565C1003.45 65.1147 1004.16 64.9438 1005.02 64.9438C1006.37 64.9438 1007.45 65.4395 1008.27 66.4307C1009.09 67.415 1009.5 68.8745 1009.5 70.8091C1009.5 72.0942 1009.31 73.1743 1008.94 74.0493C1008.56 74.9243 1008.03 75.5874 1007.35 76.0386C1006.67 76.4829 1005.87 76.7051 1004.96 76.7051C1004.1 76.7051 1003.4 76.5479 1002.87 76.2334C1002.34 75.9121 1001.93 75.5396 1001.62 75.1157H1001.45L1001.01 76.5H999.205V60.5449H1001.61ZM1004.38 66.9023C1003.7 66.9023 1003.16 67.0391 1002.75 67.3125C1002.36 67.5859 1002.07 67.9961 1001.89 68.543C1001.71 69.083 1001.62 69.77 1001.61 70.604V70.8193C1001.61 72.084 1001.81 73.0513 1002.21 73.7212C1002.61 74.3911 1003.34 74.7261 1004.4 74.7261C1005.24 74.7261 1005.89 74.3877 1006.34 73.7109C1006.79 73.0273 1007.02 72.0498 1007.02 70.7783C1007.02 69.4932 1006.79 68.5259 1006.34 67.8765C1005.9 67.2271 1005.24 66.9023 1004.38 66.9023ZM1016.95 64.9336C1018.38 64.9336 1019.47 65.2515 1020.2 65.8872C1020.94 66.5229 1021.31 67.5142 1021.31 68.8608V76.5H1019.59L1019.13 74.8901H1019.05C1018.73 75.3003 1018.4 75.6387 1018.06 75.9053C1017.71 76.1719 1017.32 76.3701 1016.87 76.5C1016.42 76.6367 1015.88 76.7051 1015.24 76.7051C1014.56 76.7051 1013.95 76.582 1013.42 76.3359C1012.89 76.083 1012.47 75.7002 1012.16 75.1875C1011.85 74.6748 1011.7 74.0254 1011.7 73.2393C1011.7 72.0703 1012.13 71.1919 1013 70.604C1013.88 70.0161 1015.2 69.6914 1016.96 69.6299L1018.93 69.5581V68.9634C1018.93 68.1772 1018.74 67.6167 1018.37 67.2817C1018.01 66.9468 1017.5 66.7793 1016.84 66.7793C1016.27 66.7793 1015.72 66.8613 1015.19 67.0254C1014.65 67.1895 1014.13 67.3911 1013.63 67.6304L1012.85 65.9282C1013.4 65.6343 1014.03 65.395 1014.73 65.2104C1015.44 65.0259 1016.18 64.9336 1016.95 64.9336ZM1018.92 71.0757L1017.45 71.127C1016.25 71.168 1015.4 71.373 1014.92 71.7422C1014.43 72.1113 1014.19 72.6172 1014.19 73.2598C1014.19 73.8203 1014.36 74.2305 1014.69 74.4902C1015.03 74.7432 1015.47 74.8696 1016.02 74.8696C1016.85 74.8696 1017.54 74.6338 1018.09 74.1621C1018.64 73.6836 1018.92 72.9829 1018.92 72.0601V71.0757ZM1032.52 73.2598C1032.52 74.0049 1032.34 74.6338 1031.98 75.1465C1031.61 75.6592 1031.08 76.0488 1030.39 76.3154C1029.7 76.5752 1028.85 76.7051 1027.84 76.7051C1027.05 76.7051 1026.37 76.647 1025.79 76.5308C1025.23 76.4214 1024.69 76.2505 1024.18 76.0181V73.9365C1024.72 74.1895 1025.33 74.4082 1026 74.5928C1026.67 74.7773 1027.31 74.8696 1027.92 74.8696C1028.71 74.8696 1029.28 74.7466 1029.63 74.5005C1029.98 74.2476 1030.15 73.9126 1030.15 73.4956C1030.15 73.2495 1030.08 73.0308 1029.94 72.8394C1029.8 72.6411 1029.54 72.4395 1029.16 72.2344C1028.78 72.0225 1028.23 71.7695 1027.49 71.4756C1026.78 71.1885 1026.17 70.9014 1025.68 70.6143C1025.19 70.3271 1024.82 69.9819 1024.56 69.5786C1024.31 69.1685 1024.18 68.6455 1024.18 68.0098C1024.18 67.0049 1024.58 66.2427 1025.37 65.7231C1026.17 65.1968 1027.23 64.9336 1028.54 64.9336C1029.24 64.9336 1029.89 65.0054 1030.51 65.1489C1031.13 65.2856 1031.74 65.4873 1032.33 65.7539L1031.58 67.5688C1031.06 67.3433 1030.55 67.1587 1030.03 67.0151C1029.51 66.8647 1028.99 66.7896 1028.46 66.7896C1027.84 66.7896 1027.36 66.8853 1027.03 67.0767C1026.71 67.2681 1026.55 67.5415 1026.55 67.897C1026.55 68.1636 1026.63 68.3892 1026.79 68.5737C1026.94 68.7583 1027.21 68.9429 1027.6 69.1274C1027.99 69.312 1028.53 69.541 1029.22 69.8145C1029.89 70.0742 1030.48 70.3477 1030.97 70.6348C1031.47 70.915 1031.85 71.2603 1032.12 71.6704C1032.39 72.0806 1032.52 72.6104 1032.52 73.2598ZM1039.86 64.9336C1040.87 64.9336 1041.74 65.1421 1042.46 65.5591C1043.18 65.9761 1043.74 66.5674 1044.13 67.333C1044.52 68.0986 1044.72 69.0146 1044.72 70.0811V71.373H1037.14C1037.17 72.4736 1037.46 73.3213 1038.02 73.916C1038.59 74.5107 1039.38 74.8081 1040.4 74.8081C1041.12 74.8081 1041.77 74.7397 1042.35 74.603C1042.93 74.4595 1043.53 74.251 1044.14 73.9775V75.936C1043.57 76.2026 1043 76.3975 1042.41 76.5205C1041.82 76.6436 1041.12 76.7051 1040.3 76.7051C1039.18 76.7051 1038.2 76.4897 1037.35 76.0591C1036.51 75.6216 1035.85 74.9722 1035.37 74.1108C1034.9 73.2495 1034.67 72.1797 1034.67 70.9014C1034.67 69.6299 1034.88 68.5498 1035.31 67.6611C1035.74 66.7725 1036.35 66.0957 1037.13 65.6309C1037.91 65.166 1038.82 64.9336 1039.86 64.9336ZM1039.86 66.7485C1039.1 66.7485 1038.48 66.9946 1038.01 67.4868C1037.55 67.979 1037.27 68.7002 1037.19 69.6504H1042.36C1042.35 69.083 1042.25 68.5806 1042.07 68.1431C1041.89 67.7056 1041.62 67.3638 1041.25 67.1177C1040.89 66.8716 1040.42 66.7485 1039.86 66.7485ZM1053.55 61.5088H1058.01C1059.95 61.5088 1061.41 61.7891 1062.39 62.3496C1063.38 62.9102 1063.87 63.8774 1063.87 65.2515C1063.87 65.8257 1063.77 66.3452 1063.56 66.8101C1063.36 67.2681 1063.07 67.6475 1062.69 67.9482C1062.31 68.2422 1061.84 68.4404 1061.28 68.543V68.6455C1061.86 68.748 1062.37 68.9292 1062.82 69.189C1063.28 69.4487 1063.64 69.8213 1063.9 70.3066C1064.17 70.792 1064.3 71.4209 1064.3 72.1934C1064.3 73.1094 1064.08 73.8887 1063.64 74.5312C1063.21 75.1738 1062.59 75.6626 1061.79 75.9976C1060.99 76.3325 1060.04 76.5 1058.94 76.5H1053.55V61.5088ZM1056.02 67.6919H1058.37C1059.49 67.6919 1060.26 67.5107 1060.69 67.1484C1061.12 66.7861 1061.34 66.2563 1061.34 65.5591C1061.34 64.8481 1061.08 64.3354 1060.57 64.021C1060.06 63.7065 1059.26 63.5493 1058.15 63.5493H1056.02V67.6919ZM1056.02 69.6812V74.439H1058.61C1059.76 74.439 1060.56 74.2168 1061.03 73.7725C1061.49 73.3281 1061.73 72.7266 1061.73 71.9678C1061.73 71.5029 1061.62 71.0996 1061.41 70.7578C1061.2 70.416 1060.87 70.1528 1060.39 69.9683C1059.92 69.7769 1059.29 69.6812 1058.49 69.6812H1056.02Z" fill="white"/>
<rect x="447" y="17" width="226" height="103" rx="8" fill="#020202"/>
<rect x="448" y="18" width="224" height="101" rx="7" stroke="white" stroke-opacity="0.9" stroke-width="2"/>
<path d="M515.642 61.5088C517.577 61.5088 518.989 61.9053 519.877 62.6982C520.766 63.4912 521.21 64.6021 521.21 66.0308C521.21 66.6802 521.108 67.2988 520.903 67.8867C520.704 68.4678 520.376 68.9839 519.918 69.4351C519.46 69.8794 518.855 70.2314 518.103 70.4912C517.358 70.751 516.439 70.8809 515.345 70.8809H513.745V76.5H511.285V61.5088H515.642ZM515.478 63.5493H513.745V68.8301H515.089C515.861 68.8301 516.517 68.7412 517.057 68.5635C517.597 68.3789 518.008 68.0884 518.288 67.6919C518.568 67.2954 518.708 66.7725 518.708 66.123C518.708 65.2549 518.445 64.6089 517.919 64.1851C517.399 63.7612 516.586 63.5493 515.478 63.5493ZM529.921 64.9336C530.112 64.9336 530.321 64.9438 530.546 64.9644C530.772 64.9849 530.967 65.0122 531.131 65.0464L530.905 67.3022C530.762 67.2612 530.584 67.2305 530.372 67.21C530.167 67.1895 529.982 67.1792 529.818 67.1792C529.388 67.1792 528.977 67.251 528.588 67.3945C528.198 67.5312 527.853 67.7432 527.552 68.0303C527.251 68.3105 527.016 68.6626 526.845 69.0864C526.674 69.5103 526.588 70.0024 526.588 70.563V76.5H524.168V65.1489H526.055L526.383 67.1484H526.496C526.722 66.7451 527.002 66.376 527.337 66.041C527.672 65.7061 528.055 65.4395 528.485 65.2412C528.923 65.0361 529.401 64.9336 529.921 64.9336ZM543.492 70.7988C543.492 71.7422 543.369 72.5796 543.122 73.311C542.876 74.0425 542.518 74.6611 542.046 75.167C541.574 75.666 541.007 76.0488 540.344 76.3154C539.681 76.5752 538.932 76.7051 538.098 76.7051C537.319 76.7051 536.604 76.5752 535.955 76.3154C535.306 76.0488 534.742 75.666 534.263 75.167C533.791 74.6611 533.426 74.0425 533.166 73.311C532.906 72.5796 532.776 71.7422 532.776 70.7988C532.776 69.5479 532.992 68.4883 533.422 67.6201C533.86 66.7451 534.482 66.0786 535.288 65.6206C536.095 65.1626 537.056 64.9336 538.17 64.9336C539.216 64.9336 540.139 65.1626 540.938 65.6206C541.738 66.0786 542.364 66.7451 542.815 67.6201C543.266 68.4951 543.492 69.5547 543.492 70.7988ZM535.258 70.7988C535.258 71.626 535.357 72.3335 535.555 72.9214C535.76 73.5093 536.075 73.9604 536.498 74.2749C536.922 74.5825 537.469 74.7363 538.139 74.7363C538.809 74.7363 539.356 74.5825 539.78 74.2749C540.204 73.9604 540.515 73.5093 540.713 72.9214C540.911 72.3335 541.01 71.626 541.01 70.7988C541.01 69.9717 540.911 69.271 540.713 68.6968C540.515 68.1157 540.204 67.6748 539.78 67.374C539.356 67.0664 538.806 66.9126 538.129 66.9126C537.131 66.9126 536.403 67.2476 535.945 67.9175C535.487 68.5874 535.258 69.5479 535.258 70.7988ZM551.043 76.7051C549.97 76.7051 549.04 76.4966 548.254 76.0796C547.468 75.6626 546.863 75.0234 546.439 74.1621C546.016 73.3008 545.804 72.207 545.804 70.8809C545.804 69.5 546.036 68.3721 546.501 67.4971C546.966 66.6221 547.608 65.9761 548.429 65.5591C549.256 65.1421 550.203 64.9336 551.269 64.9336C551.946 64.9336 552.558 65.002 553.104 65.1387C553.658 65.2686 554.126 65.4292 554.509 65.6206L553.791 67.5483C553.374 67.3774 552.947 67.2339 552.51 67.1177C552.072 67.0015 551.652 66.9434 551.248 66.9434C550.585 66.9434 550.032 67.0903 549.587 67.3843C549.15 67.6782 548.822 68.1157 548.603 68.6968C548.391 69.2778 548.285 69.999 548.285 70.8604C548.285 71.6943 548.394 72.3984 548.613 72.9727C548.832 73.54 549.157 73.9707 549.587 74.2646C550.018 74.5518 550.548 74.6953 551.177 74.6953C551.799 74.6953 552.356 74.6201 552.848 74.4697C553.34 74.3193 553.805 74.1245 554.243 73.8853V75.9771C553.812 76.2231 553.351 76.4043 552.858 76.5205C552.366 76.6436 551.761 76.7051 551.043 76.7051ZM561.641 64.9336C562.652 64.9336 563.521 65.1421 564.245 65.5591C564.97 65.9761 565.527 66.5674 565.917 67.333C566.306 68.0986 566.501 69.0146 566.501 70.0811V71.373H558.923C558.951 72.4736 559.245 73.3213 559.805 73.916C560.373 74.5107 561.166 74.8081 562.184 74.8081C562.909 74.8081 563.558 74.7397 564.132 74.603C564.713 74.4595 565.312 74.251 565.927 73.9775V75.936C565.359 76.2026 564.782 76.3975 564.194 76.5205C563.606 76.6436 562.902 76.7051 562.082 76.7051C560.967 76.7051 559.986 76.4897 559.139 76.0591C558.298 75.6216 557.638 74.9722 557.16 74.1108C556.688 73.2495 556.452 72.1797 556.452 70.9014C556.452 69.6299 556.667 68.5498 557.098 67.6611C557.529 66.7725 558.134 66.0957 558.913 65.6309C559.692 65.166 560.602 64.9336 561.641 64.9336ZM561.641 66.7485C560.882 66.7485 560.267 66.9946 559.795 67.4868C559.33 67.979 559.057 68.7002 558.975 69.6504H564.143C564.136 69.083 564.04 68.5806 563.855 68.1431C563.678 67.7056 563.404 67.3638 563.035 67.1177C562.673 66.8716 562.208 66.7485 561.641 66.7485ZM577.057 73.2598C577.057 74.0049 576.876 74.6338 576.514 75.1465C576.151 75.6592 575.622 76.0488 574.924 76.3154C574.234 76.5752 573.386 76.7051 572.381 76.7051C571.588 76.7051 570.905 76.647 570.331 76.5308C569.763 76.4214 569.227 76.2505 568.721 76.0181V73.9365C569.261 74.1895 569.866 74.4082 570.536 74.5928C571.212 74.7773 571.852 74.8696 572.453 74.8696C573.246 74.8696 573.817 74.7466 574.166 74.5005C574.514 74.2476 574.689 73.9126 574.689 73.4956C574.689 73.2495 574.617 73.0308 574.473 72.8394C574.336 72.6411 574.077 72.4395 573.694 72.2344C573.318 72.0225 572.764 71.7695 572.033 71.4756C571.315 71.1885 570.71 70.9014 570.218 70.6143C569.726 70.3271 569.353 69.9819 569.1 69.5786C568.847 69.1685 568.721 68.6455 568.721 68.0098C568.721 67.0049 569.117 66.2427 569.91 65.7231C570.71 65.1968 571.766 64.9336 573.079 64.9336C573.776 64.9336 574.432 65.0054 575.047 65.1489C575.669 65.2856 576.278 65.4873 576.873 65.7539L576.114 67.5688C575.601 67.3433 575.085 67.1587 574.565 67.0151C574.053 66.8647 573.53 66.7896 572.997 66.7896C572.375 66.7896 571.899 66.8853 571.571 67.0767C571.25 67.2681 571.089 67.5415 571.089 67.897C571.089 68.1636 571.168 68.3892 571.325 68.5737C571.482 68.7583 571.752 68.9429 572.135 69.1274C572.525 69.312 573.065 69.541 573.755 69.8145C574.432 70.0742 575.017 70.3477 575.509 70.6348C576.008 70.915 576.391 71.2603 576.657 71.6704C576.924 72.0806 577.057 72.6104 577.057 73.2598ZM587.501 73.2598C587.501 74.0049 587.319 74.6338 586.957 75.1465C586.595 75.6592 586.065 76.0488 585.368 76.3154C584.677 76.5752 583.83 76.7051 582.825 76.7051C582.032 76.7051 581.348 76.647 580.774 76.5308C580.207 76.4214 579.67 76.2505 579.164 76.0181V73.9365C579.704 74.1895 580.309 74.4082 580.979 74.5928C581.656 74.7773 582.295 74.8696 582.897 74.8696C583.69 74.8696 584.26 74.7466 584.609 74.5005C584.958 74.2476 585.132 73.9126 585.132 73.4956C585.132 73.2495 585.06 73.0308 584.917 72.8394C584.78 72.6411 584.52 72.4395 584.137 72.2344C583.761 72.0225 583.208 71.7695 582.476 71.4756C581.758 71.1885 581.153 70.9014 580.661 70.6143C580.169 70.3271 579.796 69.9819 579.544 69.5786C579.291 69.1685 579.164 68.6455 579.164 68.0098C579.164 67.0049 579.561 66.2427 580.354 65.7231C581.153 65.1968 582.21 64.9336 583.522 64.9336C584.219 64.9336 584.876 65.0054 585.491 65.1489C586.113 65.2856 586.721 65.4873 587.316 65.7539L586.557 67.5688C586.045 67.3433 585.528 67.1587 585.009 67.0151C584.496 66.8647 583.973 66.7896 583.44 66.7896C582.818 66.7896 582.343 66.8853 582.015 67.0767C581.693 67.2681 581.533 67.5415 581.533 67.897C581.533 68.1636 581.611 68.3892 581.769 68.5737C581.926 68.7583 582.196 68.9429 582.579 69.1274C582.968 69.312 583.508 69.541 584.199 69.8145C584.876 70.0742 585.46 70.3477 585.952 70.6348C586.451 70.915 586.834 71.2603 587.101 71.6704C587.367 72.0806 587.501 72.6104 587.501 73.2598ZM600.364 70.7988C600.364 71.7422 600.241 72.5796 599.995 73.311C599.749 74.0425 599.39 74.6611 598.918 75.167C598.446 75.666 597.879 76.0488 597.216 76.3154C596.553 76.5752 595.804 76.7051 594.97 76.7051C594.191 76.7051 593.477 76.5752 592.827 76.3154C592.178 76.0488 591.614 75.666 591.135 75.167C590.664 74.6611 590.298 74.0425 590.038 73.311C589.778 72.5796 589.649 71.7422 589.649 70.7988C589.649 69.5479 589.864 68.4883 590.295 67.6201C590.732 66.7451 591.354 66.0786 592.161 65.6206C592.967 65.1626 593.928 64.9336 595.042 64.9336C596.088 64.9336 597.011 65.1626 597.811 65.6206C598.61 66.0786 599.236 66.7451 599.687 67.6201C600.138 68.4951 600.364 69.5547 600.364 70.7988ZM592.13 70.7988C592.13 71.626 592.229 72.3335 592.427 72.9214C592.632 73.5093 592.947 73.9604 593.371 74.2749C593.795 74.5825 594.341 74.7363 595.011 74.7363C595.681 74.7363 596.228 74.5825 596.652 74.2749C597.076 73.9604 597.387 73.5093 597.585 72.9214C597.783 72.3335 597.882 71.626 597.882 70.7988C597.882 69.9717 597.783 69.271 597.585 68.6968C597.387 68.1157 597.076 67.6748 596.652 67.374C596.228 67.0664 595.678 66.9126 595.001 66.9126C594.003 66.9126 593.275 67.2476 592.817 67.9175C592.359 68.5874 592.13 69.5479 592.13 70.7988ZM609.095 64.9336C609.286 64.9336 609.495 64.9438 609.72 64.9644C609.946 64.9849 610.141 65.0122 610.305 65.0464L610.079 67.3022C609.936 67.2612 609.758 67.2305 609.546 67.21C609.341 67.1895 609.156 67.1792 608.992 67.1792C608.562 67.1792 608.152 67.251 607.762 67.3945C607.372 67.5312 607.027 67.7432 606.726 68.0303C606.425 68.3105 606.19 68.6626 606.019 69.0864C605.848 69.5103 605.762 70.0024 605.762 70.563V76.5H603.342V65.1489H605.229L605.557 67.1484H605.67C605.896 66.7451 606.176 66.376 606.511 66.041C606.846 65.7061 607.229 65.4395 607.659 65.2412C608.097 65.0361 608.575 64.9336 609.095 64.9336Z" fill="white"/>
<rect width="77" height="18" transform="translate(521 8)" fill="#020202"/>
<g clip-path="url(#clip0_12_1109)">
<path d="M539.949 15.752C540.794 15.752 541.604 15.4226 542.202 14.8364C542.799 14.2501 543.134 13.455 543.134 12.626C543.134 11.7969 542.799 11.0018 542.202 10.4156C541.604 9.82934 540.794 9.5 539.949 9.5C539.105 9.5 538.294 9.82934 537.697 10.4156C537.1 11.0018 536.764 11.7969 536.764 12.626C536.764 13.455 537.1 14.2501 537.697 14.8364C538.294 15.4226 539.105 15.752 539.949 15.752ZM537.322 17.0615L538.914 19.7686C539.352 20.5156 539.093 21.4736 538.331 21.9043L535.573 23.4687C534.812 23.8994 533.836 23.6445 533.397 22.8975L531.806 20.1875C531.367 19.4404 531.627 18.4824 532.388 18.0518L535.146 16.4902C535.908 16.0596 536.884 16.3145 537.322 17.0615ZM542.654 16.8945C542.693 16.6719 542.857 16.4902 543.078 16.4258C543.299 16.3613 543.537 16.4229 543.696 16.5898C544.806 17.75 546.755 19.7832 547.779 20.8525C547.922 21.002 547.979 21.2158 547.922 21.415C547.866 21.6143 547.711 21.7725 547.511 21.8311C546.173 22.2236 543.74 22.9385 542.403 23.3311C542.2 23.3896 541.982 23.3428 541.824 23.2051C541.666 23.0674 541.591 22.8594 541.63 22.6572C541.887 21.21 542.376 18.4619 542.654 16.8945Z" fill="#FF5C00"/>
</g>
<path d="M561.098 22L560.19 19.4229H556.642L555.734 22H554.128L557.581 12.6816H559.27L562.716 22H561.098ZM559.796 18.1152L558.914 15.5762C558.88 15.4661 558.832 15.3117 558.768 15.1128C558.705 14.9097 558.641 14.7044 558.578 14.4971C558.514 14.2855 558.461 14.1077 558.419 13.9639C558.377 14.1374 558.324 14.332 558.26 14.5479C558.201 14.7594 558.142 14.9583 558.083 15.1445C558.028 15.3307 557.985 15.4746 557.956 15.5762L557.067 18.1152H559.796ZM566.62 22.127C565.956 22.127 565.38 21.9979 564.894 21.7397C564.407 21.4816 564.032 21.0859 563.77 20.5527C563.508 20.0195 563.376 19.3424 563.376 18.5215C563.376 17.6667 563.52 16.9684 563.808 16.4268C564.096 15.8851 564.494 15.4852 565.001 15.2271C565.514 14.9689 566.1 14.8398 566.76 14.8398C567.179 14.8398 567.557 14.8822 567.896 14.9668C568.239 15.0472 568.529 15.1466 568.766 15.2651L568.321 16.4585C568.063 16.3527 567.799 16.2638 567.528 16.1919C567.257 16.12 566.997 16.084 566.747 16.084C566.337 16.084 565.994 16.175 565.719 16.3569C565.448 16.5389 565.245 16.8097 565.109 17.1694C564.978 17.5291 564.913 17.9756 564.913 18.5088C564.913 19.0251 564.98 19.4609 565.116 19.8164C565.251 20.1676 565.452 20.4342 565.719 20.6162C565.985 20.7939 566.313 20.8828 566.703 20.8828C567.088 20.8828 567.433 20.8363 567.737 20.7432C568.042 20.6501 568.33 20.5295 568.601 20.3813V21.6763C568.334 21.8286 568.048 21.9408 567.744 22.0127C567.439 22.0889 567.064 22.127 566.62 22.127ZM572.866 20.9209C573.061 20.9209 573.253 20.904 573.444 20.8701C573.634 20.832 573.808 20.7876 573.964 20.7368V21.8667C573.799 21.9386 573.586 22 573.323 22.0508C573.061 22.1016 572.788 22.127 572.504 22.127C572.107 22.127 571.749 22.0614 571.432 21.9302C571.114 21.7948 570.862 21.5641 570.676 21.2383C570.49 20.9124 570.397 20.4618 570.397 19.8862V16.1094H569.438V15.4429L570.467 14.916L570.956 13.4116H571.895V14.9731H573.907V16.1094H571.895V19.8672C571.895 20.2227 571.984 20.4871 572.162 20.6606C572.339 20.8341 572.574 20.9209 572.866 20.9209ZM581.613 18.4707C581.613 19.0547 581.537 19.5731 581.385 20.0259C581.232 20.4787 581.01 20.8617 580.718 21.1748C580.426 21.4837 580.075 21.7207 579.665 21.8857C579.254 22.0465 578.791 22.127 578.274 22.127C577.792 22.127 577.35 22.0465 576.948 21.8857C576.546 21.7207 576.197 21.4837 575.9 21.1748C575.608 20.8617 575.382 20.4787 575.221 20.0259C575.06 19.5731 574.98 19.0547 574.98 18.4707C574.98 17.6963 575.113 17.0404 575.38 16.5029C575.651 15.9613 576.036 15.5487 576.535 15.2651C577.035 14.9816 577.629 14.8398 578.319 14.8398C578.966 14.8398 579.538 14.9816 580.033 15.2651C580.528 15.5487 580.915 15.9613 581.194 16.5029C581.474 17.0446 581.613 17.7005 581.613 18.4707ZM576.516 18.4707C576.516 18.9827 576.577 19.4207 576.7 19.7847C576.827 20.1486 577.022 20.4279 577.284 20.6226C577.547 20.813 577.885 20.9082 578.3 20.9082C578.715 20.9082 579.053 20.813 579.315 20.6226C579.578 20.4279 579.77 20.1486 579.893 19.7847C580.016 19.4207 580.077 18.9827 580.077 18.4707C580.077 17.9587 580.016 17.5249 579.893 17.1694C579.77 16.8097 579.578 16.5368 579.315 16.3506C579.053 16.1602 578.712 16.0649 578.293 16.0649C577.676 16.0649 577.225 16.2723 576.941 16.687C576.658 17.1017 576.516 17.6963 576.516 18.4707ZM586.888 14.8398C587.007 14.8398 587.136 14.8462 587.275 14.8589C587.415 14.8716 587.536 14.8885 587.637 14.9097L587.498 16.3062C587.409 16.2808 587.299 16.2617 587.167 16.249C587.041 16.2363 586.926 16.23 586.825 16.23C586.558 16.23 586.304 16.2744 586.063 16.3633C585.822 16.4479 585.608 16.5791 585.422 16.7568C585.236 16.9303 585.09 17.1483 584.984 17.4106C584.878 17.673 584.825 17.9777 584.825 18.3247V22H583.327V14.9731H584.495L584.698 16.2109H584.768C584.908 15.9613 585.081 15.7327 585.289 15.5254C585.496 15.318 585.733 15.153 586 15.0303C586.27 14.9033 586.567 14.8398 586.888 14.8398Z" fill="#FF5C00"/>
<path d="M433.707 70.7071C434.098 70.3166 434.098 69.6834 433.707 69.2929L427.343 62.9289C426.953 62.5384 426.319 62.5384 425.929 62.9289C425.538 63.3195 425.538 63.9526 425.929 64.3431L431.586 70L425.929 75.6569C425.538 76.0474 425.538 76.6805 425.929 77.0711C426.319 77.4616 426.953 77.4616 427.343 77.0711L433.707 70.7071ZM240 70V71H433V70V69H240V70Z" fill="white"/>
<path d="M880.707 70.7071C881.098 70.3166 881.098 69.6834 880.707 69.2929L874.343 62.9289C873.953 62.5384 873.319 62.5384 872.929 62.9289C872.538 63.3195 872.538 63.9526 872.929 64.3431L878.586 70L872.929 75.6569C872.538 76.0474 872.538 76.6805 872.929 77.0711C873.319 77.4616 873.953 77.4616 874.343 77.0711L880.707 70.7071ZM687 70V71H880V70V69H687V70Z" fill="white"/>
<rect width="122" height="40" transform="translate(275 51)" fill="#020202"/>
<path d="M291.427 65.8853C290.709 65.8853 290.067 66.0151 289.499 66.2749C288.939 66.5347 288.464 66.9106 288.074 67.4028C287.684 67.8882 287.387 68.4795 287.182 69.1768C286.977 69.8672 286.874 70.6465 286.874 71.5146C286.874 72.6768 287.038 73.6782 287.367 74.519C287.695 75.353 288.194 75.9956 288.864 76.4468C289.534 76.8911 290.381 77.1133 291.407 77.1133C292.042 77.1133 292.661 77.0518 293.263 76.9287C293.864 76.8057 294.486 76.6382 295.129 76.4263V78.5181C294.52 78.7573 293.905 78.9316 293.283 79.041C292.661 79.1504 291.943 79.2051 291.13 79.2051C289.598 79.2051 288.327 78.8872 287.315 78.2515C286.31 77.6157 285.558 76.7202 285.059 75.5649C284.567 74.4097 284.321 73.0562 284.321 71.5044C284.321 70.3696 284.478 69.3306 284.793 68.3872C285.107 67.4438 285.565 66.6304 286.167 65.9468C286.768 65.2563 287.51 64.7266 288.392 64.3574C289.281 63.9814 290.296 63.7935 291.437 63.7935C292.189 63.7935 292.928 63.8789 293.652 64.0498C294.384 64.2139 295.06 64.4497 295.682 64.7573L294.821 66.7876C294.302 66.5415 293.758 66.3296 293.191 66.1519C292.623 65.9741 292.035 65.8853 291.427 65.8853ZM310.73 71.3608C310.73 73.0493 310.415 74.4609 309.787 75.5957C309.158 76.7236 308.245 77.5747 307.049 78.1489C305.852 78.7163 304.41 79 302.722 79H298.558V64.0088H303.173C304.724 64.0088 306.064 64.2891 307.192 64.8496C308.32 65.4033 309.192 66.2271 309.807 67.3208C310.422 68.4077 310.73 69.7544 310.73 71.3608ZM308.166 71.4326C308.166 70.2021 307.972 69.1904 307.582 68.3975C307.199 67.6045 306.632 67.0166 305.88 66.6338C305.135 66.2441 304.215 66.0493 303.121 66.0493H301.019V76.939H302.763C304.574 76.939 305.928 76.4775 306.823 75.5547C307.719 74.6318 308.166 73.2578 308.166 71.4326ZM320.558 65.8853C319.84 65.8853 319.198 66.0151 318.63 66.2749C318.07 66.5347 317.595 66.9106 317.205 67.4028C316.815 67.8882 316.518 68.4795 316.313 69.1768C316.108 69.8672 316.005 70.6465 316.005 71.5146C316.005 72.6768 316.169 73.6782 316.497 74.519C316.826 75.353 317.325 75.9956 317.995 76.4468C318.664 76.8911 319.512 77.1133 320.538 77.1133C321.173 77.1133 321.792 77.0518 322.393 76.9287C322.995 76.8057 323.617 76.6382 324.26 76.4263V78.5181C323.651 78.7573 323.036 78.9316 322.414 79.041C321.792 79.1504 321.074 79.2051 320.261 79.2051C318.729 79.2051 317.458 78.8872 316.446 78.2515C315.441 77.6157 314.689 76.7202 314.19 75.5649C313.698 74.4097 313.452 73.0562 313.452 71.5044C313.452 70.3696 313.609 69.3306 313.924 68.3872C314.238 67.4438 314.696 66.6304 315.298 65.9468C315.899 65.2563 316.641 64.7266 317.523 64.3574C318.412 63.9814 319.427 63.7935 320.568 63.7935C321.32 63.7935 322.059 63.8789 322.783 64.0498C323.515 64.2139 324.191 64.4497 324.813 64.7573L323.952 66.7876C323.433 66.5415 322.889 66.3296 322.322 66.1519C321.754 65.9741 321.166 65.8853 320.558 65.8853ZM341.845 79H333.354V64.0088H341.845V66.0801H335.815V70.1509H341.465V72.2119H335.815V76.9185H341.845V79ZM347.643 79L343.326 67.6489H345.879L348.217 74.314C348.368 74.7378 348.504 75.1958 348.627 75.688C348.751 76.1802 348.836 76.5938 348.884 76.9287H348.966C349.014 76.5801 349.106 76.1631 349.243 75.6777C349.379 75.1855 349.52 74.731 349.663 74.314L352.001 67.6489H354.544L350.227 79H347.643ZM360.999 67.4336C362.01 67.4336 362.878 67.6421 363.603 68.0591C364.328 68.4761 364.885 69.0674 365.274 69.833C365.664 70.5986 365.859 71.5146 365.859 72.5811V73.873H358.281C358.309 74.9736 358.603 75.8213 359.163 76.416C359.731 77.0107 360.524 77.3081 361.542 77.3081C362.267 77.3081 362.916 77.2397 363.49 77.103C364.071 76.9595 364.67 76.751 365.285 76.4775V78.436C364.717 78.7026 364.14 78.8975 363.552 79.0205C362.964 79.1436 362.26 79.2051 361.44 79.2051C360.325 79.2051 359.344 78.9897 358.497 78.5591C357.656 78.1216 356.996 77.4722 356.518 76.6108C356.046 75.7495 355.81 74.6797 355.81 73.4014C355.81 72.1299 356.025 71.0498 356.456 70.1611C356.887 69.2725 357.492 68.5957 358.271 68.1309C359.05 67.666 359.96 67.4336 360.999 67.4336ZM360.999 69.2485C360.24 69.2485 359.625 69.4946 359.153 69.9868C358.688 70.479 358.415 71.2002 358.333 72.1504H363.501C363.494 71.583 363.398 71.0806 363.213 70.6431C363.036 70.2056 362.762 69.8638 362.393 69.6177C362.031 69.3716 361.566 69.2485 360.999 69.2485ZM374.703 67.4336C375.981 67.4336 376.976 67.7651 377.687 68.4282C378.404 69.0845 378.763 70.1406 378.763 71.5967V79H376.354V72.0479C376.354 71.166 376.172 70.5063 375.81 70.0688C375.448 69.6245 374.887 69.4023 374.129 69.4023C373.028 69.4023 372.262 69.7407 371.832 70.4175C371.408 71.0942 371.196 72.0752 371.196 73.3604V79H368.786V67.6489H370.663L371.001 69.187H371.134C371.38 68.7905 371.685 68.4658 372.047 68.2129C372.416 67.9531 372.826 67.7583 373.277 67.6284C373.735 67.4985 374.211 67.4336 374.703 67.4336ZM386.571 77.2568C386.886 77.2568 387.197 77.2295 387.505 77.1748C387.812 77.1133 388.092 77.0415 388.345 76.9595V78.7847C388.079 78.9009 387.734 79 387.31 79.082C386.886 79.1641 386.445 79.2051 385.987 79.2051C385.344 79.2051 384.767 79.0991 384.254 78.8872C383.741 78.6685 383.335 78.2959 383.034 77.7695C382.733 77.2432 382.583 76.5151 382.583 75.5854V69.4844H381.034V68.4077L382.695 67.5566L383.485 65.1265H385.003V67.6489H388.253V69.4844H385.003V75.5547C385.003 76.1289 385.146 76.5562 385.433 76.8364C385.72 77.1167 386.1 77.2568 386.571 77.2568Z" fill="white"/>
<rect width="67" height="40" transform="translate(750 51)" fill="#020202"/>
<path d="M760.401 79V64.0088H762.862V76.9082H769.229V79H760.401ZM781.836 73.2988C781.836 74.2422 781.713 75.0796 781.467 75.811C781.221 76.5425 780.862 77.1611 780.391 77.667C779.919 78.166 779.352 78.5488 778.688 78.8154C778.025 79.0752 777.277 79.2051 776.443 79.2051C775.664 79.2051 774.949 79.0752 774.3 78.8154C773.65 78.5488 773.086 78.166 772.608 77.667C772.136 77.1611 771.77 76.5425 771.511 75.811C771.251 75.0796 771.121 74.2422 771.121 73.2988C771.121 72.0479 771.336 70.9883 771.767 70.1201C772.205 69.2451 772.827 68.5786 773.633 68.1206C774.44 67.6626 775.4 67.4336 776.515 67.4336C777.561 67.4336 778.483 67.6626 779.283 68.1206C780.083 68.5786 780.708 69.2451 781.16 70.1201C781.611 70.9951 781.836 72.0547 781.836 73.2988ZM773.603 73.2988C773.603 74.126 773.702 74.8335 773.9 75.4214C774.105 76.0093 774.419 76.4604 774.843 76.7749C775.267 77.0825 775.814 77.2363 776.484 77.2363C777.154 77.2363 777.701 77.0825 778.124 76.7749C778.548 76.4604 778.859 76.0093 779.058 75.4214C779.256 74.8335 779.355 74.126 779.355 73.2988C779.355 72.4717 779.256 71.771 779.058 71.1968C778.859 70.6157 778.548 70.1748 778.124 69.874C777.701 69.5664 777.15 69.4126 776.474 69.4126C775.476 69.4126 774.748 69.7476 774.29 70.4175C773.832 71.0874 773.603 72.0479 773.603 73.2988ZM789.265 67.4336C790.701 67.4336 791.784 67.7515 792.516 68.3872C793.254 69.0229 793.623 70.0142 793.623 71.3608V79H791.911L791.449 77.3901H791.367C791.046 77.8003 790.714 78.1387 790.373 78.4053C790.031 78.6719 789.634 78.8701 789.183 79C788.739 79.1367 788.195 79.2051 787.553 79.2051C786.876 79.2051 786.271 79.082 785.738 78.8359C785.205 78.583 784.784 78.2002 784.477 77.6875C784.169 77.1748 784.015 76.5254 784.015 75.7393C784.015 74.5703 784.449 73.6919 785.317 73.104C786.192 72.5161 787.512 72.1914 789.275 72.1299L791.244 72.0581V71.4634C791.244 70.6772 791.06 70.1167 790.69 69.7817C790.328 69.4468 789.815 69.2793 789.152 69.2793C788.585 69.2793 788.035 69.3613 787.501 69.5254C786.968 69.6895 786.449 69.8911 785.943 70.1304L785.164 68.4282C785.717 68.1343 786.346 67.895 787.05 67.7104C787.761 67.5259 788.5 67.4336 789.265 67.4336ZM791.234 73.5757L789.768 73.627C788.564 73.668 787.72 73.873 787.235 74.2422C786.75 74.6113 786.507 75.1172 786.507 75.7598C786.507 76.3203 786.674 76.7305 787.009 76.9902C787.344 77.2432 787.785 77.3696 788.332 77.3696C789.166 77.3696 789.856 77.1338 790.403 76.6621C790.957 76.1836 791.234 75.4829 791.234 74.5601V73.5757ZM801.021 79.2051C799.668 79.2051 798.581 78.7129 797.76 77.7285C796.947 76.7373 796.54 75.2778 796.54 73.3501C796.54 71.4019 796.954 69.9287 797.781 68.9307C798.615 67.9326 799.712 67.4336 801.072 67.4336C801.647 67.4336 802.149 67.5122 802.58 67.6694C803.01 67.8198 803.379 68.0249 803.687 68.2847C804.002 68.5444 804.268 68.835 804.487 69.1562H804.6C804.565 68.9443 804.524 68.6401 804.477 68.2437C804.436 67.8403 804.415 67.4678 804.415 67.126V63.0449H806.835V79H804.948L804.518 77.4517H804.415C804.21 77.7798 803.95 78.0771 803.636 78.3438C803.328 78.6035 802.959 78.812 802.528 78.9692C802.105 79.1265 801.602 79.2051 801.021 79.2051ZM801.698 77.2466C802.73 77.2466 803.458 76.9492 803.882 76.3545C804.306 75.7598 804.524 74.8677 804.538 73.6782V73.3604C804.538 72.0889 804.333 71.1147 803.923 70.438C803.513 69.7544 802.764 69.4126 801.677 69.4126C800.809 69.4126 800.146 69.7646 799.688 70.4688C799.237 71.166 799.011 72.1401 799.011 73.3911C799.011 74.6421 799.237 75.5991 799.688 76.2622C800.146 76.9185 800.816 77.2466 801.698 77.2466Z" fill="white"/>
<defs>
<clipPath id="clip0_12_1109">
<rect width="18" height="15" fill="white" transform="translate(531 9.5)"/>
</clipPath>
</defs>
</svg>
