<svg width="963" height="464" viewBox="0 0 963 464" fill="none" xmlns="http://www.w3.org/2000/svg">
<rect y="17" width="226" height="103" rx="8" fill="#020202"/>
<rect x="1" y="18" width="224" height="101" rx="7" stroke="white" stroke-opacity="0.9" stroke-width="2"/>
<path d="M102.923 61.5088V71.209C102.923 72.2549 102.701 73.1914 102.257 74.0186C101.819 74.8457 101.156 75.502 100.268 75.9873C99.3788 76.4658 98.2612 76.7051 96.9145 76.7051C94.9936 76.7051 93.5307 76.2026 92.5258 75.1978C91.5278 74.186 91.0287 72.8428 91.0287 71.168V61.5088H93.4897V70.9526C93.4897 72.2036 93.7836 73.1265 94.3715 73.7212C94.9594 74.3159 95.8378 74.6133 97.0068 74.6133C97.8134 74.6133 98.4697 74.4731 98.9755 74.1929C99.4882 73.9058 99.8642 73.4888 100.103 72.9419C100.35 72.3882 100.473 71.7217 100.473 70.9424V61.5088H102.923ZM114.351 73.2598C114.351 74.0049 114.17 74.6338 113.808 75.1465C113.445 75.6592 112.916 76.0488 112.218 76.3154C111.528 76.5752 110.68 76.7051 109.675 76.7051C108.882 76.7051 108.199 76.647 107.624 76.5308C107.057 76.4214 106.52 76.2505 106.015 76.0181V73.9365C106.555 74.1895 107.16 74.4082 107.83 74.5928C108.506 74.7773 109.145 74.8696 109.747 74.8696C110.54 74.8696 111.111 74.7466 111.459 74.5005C111.808 74.2476 111.982 73.9126 111.982 73.4956C111.982 73.2495 111.911 73.0308 111.767 72.8394C111.63 72.6411 111.371 72.4395 110.988 72.2344C110.612 72.0225 110.058 71.7695 109.327 71.4756C108.609 71.1885 108.004 70.9014 107.512 70.6143C107.02 70.3271 106.647 69.9819 106.394 69.5786C106.141 69.1685 106.015 68.6455 106.015 68.0098C106.015 67.0049 106.411 66.2427 107.204 65.7231C108.004 65.1968 109.06 64.9336 110.373 64.9336C111.07 64.9336 111.726 65.0054 112.341 65.1489C112.963 65.2856 113.572 65.4873 114.166 65.7539L113.408 67.5688C112.895 67.3433 112.379 67.1587 111.859 67.0151C111.347 66.8647 110.824 66.7896 110.291 66.7896C109.668 66.7896 109.193 66.8853 108.865 67.0767C108.544 67.2681 108.383 67.5415 108.383 67.897C108.383 68.1636 108.462 68.3892 108.619 68.5737C108.776 68.7583 109.046 68.9429 109.429 69.1274C109.819 69.312 110.359 69.541 111.049 69.8145C111.726 70.0742 112.311 70.3477 112.803 70.6348C113.302 70.915 113.685 71.2603 113.951 71.6704C114.218 72.0806 114.351 72.6104 114.351 73.2598ZM121.688 64.9336C122.699 64.9336 123.567 65.1421 124.292 65.5591C125.017 65.9761 125.574 66.5674 125.963 67.333C126.353 68.0986 126.548 69.0146 126.548 70.0811V71.373H118.97C118.998 72.4736 119.292 73.3213 119.852 73.916C120.419 74.5107 121.212 74.8081 122.231 74.8081C122.956 74.8081 123.605 74.7397 124.179 74.603C124.76 74.4595 125.358 74.251 125.974 73.9775V75.936C125.406 76.2026 124.829 76.3975 124.241 76.5205C123.653 76.6436 122.949 76.7051 122.128 76.7051C121.014 76.7051 120.033 76.4897 119.186 76.0591C118.345 75.6216 117.685 74.9722 117.207 74.1108C116.735 73.2495 116.499 72.1797 116.499 70.9014C116.499 69.6299 116.714 68.5498 117.145 67.6611C117.576 66.7725 118.181 66.0957 118.96 65.6309C119.739 65.166 120.648 64.9336 121.688 64.9336ZM121.688 66.7485C120.929 66.7485 120.313 66.9946 119.842 67.4868C119.377 67.979 119.104 68.7002 119.021 69.6504H124.189C124.183 69.083 124.087 68.5806 123.902 68.1431C123.725 67.7056 123.451 67.3638 123.082 67.1177C122.72 66.8716 122.255 66.7485 121.688 66.7485ZM135.228 64.9336C135.419 64.9336 135.628 64.9438 135.853 64.9644C136.079 64.9849 136.273 65.0122 136.438 65.0464L136.212 67.3022C136.068 67.2612 135.891 67.2305 135.679 67.21C135.474 67.1895 135.289 67.1792 135.125 67.1792C134.694 67.1792 134.284 67.251 133.895 67.3945C133.505 67.5312 133.16 67.7432 132.859 68.0303C132.558 68.3105 132.322 68.6626 132.151 69.0864C131.981 69.5103 131.895 70.0024 131.895 70.563V76.5H129.475V65.1489H131.362L131.69 67.1484H131.803C132.028 66.7451 132.309 66.376 132.644 66.041C132.979 65.7061 133.361 65.4395 133.792 65.2412C134.23 65.0361 134.708 64.9336 135.228 64.9336Z" fill="white"/>
<rect x="510" y="17" width="226" height="103" rx="8" fill="#020202"/>
<rect x="511" y="18" width="224" height="101" rx="7" stroke="white" stroke-opacity="0.9" stroke-width="2"/>
<path d="M565.966 76.5L561.649 63.98H561.557C561.577 64.2603 561.601 64.6431 561.629 65.1284C561.656 65.6138 561.68 66.1333 561.701 66.687C561.721 67.2407 561.731 67.7705 561.731 68.2764V76.5H559.496V61.5088H562.951L567.104 73.4751H567.166L571.462 61.5088H574.908V76.5H572.559V68.1533C572.559 67.6953 572.566 67.1997 572.58 66.6665C572.6 66.1333 572.621 65.6274 572.641 65.1489C572.669 64.6704 572.689 64.2876 572.703 64.0005H572.621L568.14 76.5H565.966ZM583.269 64.9336C584.705 64.9336 585.788 65.2515 586.52 65.8872C587.258 66.5229 587.627 67.5142 587.627 68.8608V76.5H585.915L585.453 74.8901H585.371C585.05 75.3003 584.719 75.6387 584.377 75.9053C584.035 76.1719 583.639 76.3701 583.187 76.5C582.743 76.6367 582.2 76.7051 581.557 76.7051C580.88 76.7051 580.275 76.582 579.742 76.3359C579.209 76.083 578.788 75.7002 578.481 75.1875C578.173 74.6748 578.019 74.0254 578.019 73.2393C578.019 72.0703 578.453 71.1919 579.322 70.604C580.197 70.0161 581.516 69.6914 583.28 69.6299L585.248 69.5581V68.9634C585.248 68.1772 585.064 67.6167 584.695 67.2817C584.332 66.9468 583.82 66.7793 583.157 66.7793C582.589 66.7793 582.039 66.8613 581.506 67.0254C580.973 67.1895 580.453 67.3911 579.947 67.6304L579.168 65.9282C579.722 65.6343 580.35 65.395 581.055 65.2104C581.765 65.0259 582.504 64.9336 583.269 64.9336ZM585.238 71.0757L583.772 71.127C582.569 71.168 581.724 71.373 581.239 71.7422C580.754 72.1113 580.511 72.6172 580.511 73.2598C580.511 73.8203 580.679 74.2305 581.014 74.4902C581.348 74.7432 581.789 74.8696 582.336 74.8696C583.17 74.8696 583.861 74.6338 584.408 74.1621C584.961 73.6836 585.238 72.9829 585.238 72.0601V71.0757ZM595.435 74.7568C595.75 74.7568 596.061 74.7295 596.369 74.6748C596.676 74.6133 596.956 74.5415 597.209 74.4595V76.2847C596.943 76.4009 596.598 76.5 596.174 76.582C595.75 76.6641 595.309 76.7051 594.851 76.7051C594.208 76.7051 593.631 76.5991 593.118 76.3872C592.605 76.1685 592.199 75.7959 591.898 75.2695C591.597 74.7432 591.447 74.0151 591.447 73.0854V66.9844H589.898V65.9077L591.559 65.0566L592.349 62.6265H593.867V65.1489H597.117V66.9844H593.867V73.0547C593.867 73.6289 594.01 74.0562 594.297 74.3364C594.584 74.6167 594.964 74.7568 595.435 74.7568ZM604.3 76.7051C603.227 76.7051 602.297 76.4966 601.511 76.0796C600.725 75.6626 600.12 75.0234 599.696 74.1621C599.272 73.3008 599.06 72.207 599.06 70.8809C599.06 69.5 599.292 68.3721 599.757 67.4971C600.222 66.6221 600.865 65.9761 601.685 65.5591C602.512 65.1421 603.459 64.9336 604.525 64.9336C605.202 64.9336 605.814 65.002 606.361 65.1387C606.914 65.2686 607.383 65.4292 607.766 65.6206L607.048 67.5483C606.631 67.3774 606.204 67.2339 605.766 67.1177C605.329 67.0015 604.908 66.9434 604.505 66.9434C603.842 66.9434 603.288 67.0903 602.844 67.3843C602.406 67.6782 602.078 68.1157 601.859 68.6968C601.647 69.2778 601.541 69.999 601.541 70.8604C601.541 71.6943 601.651 72.3984 601.87 72.9727C602.088 73.54 602.413 73.9707 602.844 74.2646C603.274 74.5518 603.804 74.6953 604.433 74.6953C605.055 74.6953 605.612 74.6201 606.104 74.4697C606.597 74.3193 607.061 74.1245 607.499 73.8853V75.9771C607.068 76.2231 606.607 76.4043 606.115 76.5205C605.622 76.6436 605.018 76.7051 604.3 76.7051ZM612.785 60.5449V64.5542C612.785 64.9712 612.771 65.3779 612.744 65.7744C612.723 66.1709 612.699 66.4785 612.672 66.6973H612.805C613.044 66.3008 613.338 65.9761 613.687 65.7231C614.036 65.4634 614.425 65.2686 614.856 65.1387C615.293 65.0088 615.758 64.9438 616.25 64.9438C617.119 64.9438 617.857 65.0908 618.465 65.3848C619.074 65.6719 619.539 66.1196 619.86 66.728C620.188 67.3364 620.352 68.126 620.352 69.0967V76.5H617.942V69.5479C617.942 68.666 617.761 68.0063 617.399 67.5688C617.037 67.1245 616.476 66.9023 615.717 66.9023C614.986 66.9023 614.405 67.0562 613.974 67.3638C613.55 67.6646 613.246 68.1123 613.062 68.707C612.877 69.2949 612.785 70.0127 612.785 70.8604V76.5H610.375V60.5449H612.785ZM636.763 64.9336C638.035 64.9336 638.992 65.2617 639.634 65.918C640.284 66.5742 640.608 67.627 640.608 69.0762V76.5H638.199V69.5068C638.199 68.6455 638.031 67.9961 637.696 67.5586C637.361 67.1211 636.852 66.9023 636.168 66.9023C635.211 66.9023 634.521 67.21 634.097 67.8252C633.68 68.4336 633.472 69.3188 633.472 70.481V76.5H631.062V69.5068C631.062 68.9326 630.987 68.4541 630.836 68.0713C630.693 67.6816 630.471 67.3911 630.17 67.1997C629.869 67.0015 629.49 66.9023 629.032 66.9023C628.369 66.9023 627.839 67.0527 627.442 67.3535C627.053 67.6543 626.772 68.0986 626.602 68.6865C626.431 69.2676 626.345 69.9819 626.345 70.8296V76.5H623.936V65.1489H625.812L626.15 66.6768H626.284C626.516 66.2803 626.803 65.9556 627.145 65.7026C627.494 65.4429 627.88 65.2515 628.304 65.1284C628.728 64.9985 629.168 64.9336 629.626 64.9336C630.474 64.9336 631.188 65.084 631.77 65.3848C632.351 65.6787 632.785 66.1299 633.072 66.7383H633.256C633.612 66.123 634.107 65.6685 634.743 65.3745C635.379 65.0806 636.052 64.9336 636.763 64.9336ZM648.632 64.9336C650.067 64.9336 651.151 65.2515 651.882 65.8872C652.621 66.5229 652.99 67.5142 652.99 68.8608V76.5H651.277L650.816 74.8901H650.734C650.413 75.3003 650.081 75.6387 649.739 75.9053C649.398 76.1719 649.001 76.3701 648.55 76.5C648.106 76.6367 647.562 76.7051 646.919 76.7051C646.243 76.7051 645.638 76.582 645.105 76.3359C644.571 76.083 644.151 75.7002 643.843 75.1875C643.536 74.6748 643.382 74.0254 643.382 73.2393C643.382 72.0703 643.816 71.1919 644.684 70.604C645.559 70.0161 646.878 69.6914 648.642 69.6299L650.611 69.5581V68.9634C650.611 68.1772 650.426 67.6167 650.057 67.2817C649.695 66.9468 649.182 66.7793 648.519 66.7793C647.952 66.7793 647.401 66.8613 646.868 67.0254C646.335 67.1895 645.815 67.3911 645.31 67.6304L644.53 65.9282C645.084 65.6343 645.713 65.395 646.417 65.2104C647.128 65.0259 647.866 64.9336 648.632 64.9336ZM650.601 71.0757L649.134 71.127C647.931 71.168 647.087 71.373 646.602 71.7422C646.116 72.1113 645.874 72.6172 645.874 73.2598C645.874 73.8203 646.041 74.2305 646.376 74.4902C646.711 74.7432 647.152 74.8696 647.699 74.8696C648.533 74.8696 649.223 74.6338 649.77 74.1621C650.324 73.6836 650.601 72.9829 650.601 72.0601V71.0757ZM658.983 60.5449V68.2559C658.983 68.6045 658.969 68.9873 658.942 69.4043C658.915 69.8145 658.887 70.2007 658.86 70.563H658.911C659.089 70.3237 659.301 70.0435 659.547 69.7222C659.8 69.4009 660.039 69.1206 660.265 68.8813L663.731 65.1489H666.499L661.957 70.0298L666.796 76.5H663.966L660.337 71.5166L658.983 72.6753V76.5H656.573V60.5449H658.983ZM673.343 64.9336C674.355 64.9336 675.223 65.1421 675.948 65.5591C676.673 65.9761 677.23 66.5674 677.619 67.333C678.009 68.0986 678.204 69.0146 678.204 70.0811V71.373H670.626C670.653 72.4736 670.947 73.3213 671.508 73.916C672.075 74.5107 672.868 74.8081 673.887 74.8081C674.611 74.8081 675.261 74.7397 675.835 74.603C676.416 74.4595 677.014 74.251 677.63 73.9775V75.936C677.062 76.2026 676.485 76.3975 675.897 76.5205C675.309 76.6436 674.605 76.7051 673.784 76.7051C672.67 76.7051 671.689 76.4897 670.841 76.0591C670.001 75.6216 669.341 74.9722 668.862 74.1108C668.391 73.2495 668.155 72.1797 668.155 70.9014C668.155 69.6299 668.37 68.5498 668.801 67.6611C669.232 66.7725 669.837 66.0957 670.616 65.6309C671.395 65.166 672.304 64.9336 673.343 64.9336ZM673.343 66.7485C672.585 66.7485 671.969 66.9946 671.498 67.4868C671.033 67.979 670.759 68.7002 670.677 69.6504H675.845C675.839 69.083 675.743 68.5806 675.558 68.1431C675.381 67.7056 675.107 67.3638 674.738 67.1177C674.376 66.8716 673.911 66.7485 673.343 66.7485ZM686.883 64.9336C687.075 64.9336 687.283 64.9438 687.509 64.9644C687.735 64.9849 687.929 65.0122 688.093 65.0464L687.868 67.3022C687.724 67.2612 687.547 67.2305 687.335 67.21C687.13 67.1895 686.945 67.1792 686.781 67.1792C686.35 67.1792 685.94 67.251 685.55 67.3945C685.161 67.5312 684.816 67.7432 684.515 68.0303C684.214 68.3105 683.978 68.6626 683.807 69.0864C683.636 69.5103 683.551 70.0024 683.551 70.563V76.5H681.131V65.1489H683.018L683.346 67.1484H683.459C683.684 66.7451 683.965 66.376 684.299 66.041C684.634 65.7061 685.017 65.4395 685.448 65.2412C685.885 65.0361 686.364 64.9336 686.883 64.9336Z" fill="white"/>
<rect width="77" height="18" transform="translate(584 8)" fill="#020202"/>
<g clip-path="url(#clip0_12_1100)">
<path d="M602.949 15.752C603.794 15.752 604.604 15.4226 605.202 14.8364C605.799 14.2501 606.134 13.455 606.134 12.626C606.134 11.7969 605.799 11.0018 605.202 10.4156C604.604 9.82934 603.794 9.5 602.949 9.5C602.105 9.5 601.294 9.82934 600.697 10.4156C600.1 11.0018 599.764 11.7969 599.764 12.626C599.764 13.455 600.1 14.2501 600.697 14.8364C601.294 15.4226 602.105 15.752 602.949 15.752ZM600.322 17.0615L601.914 19.7686C602.352 20.5156 602.093 21.4736 601.331 21.9043L598.573 23.4688C597.812 23.8994 596.836 23.6445 596.397 22.8975L594.806 20.1875C594.367 19.4404 594.627 18.4824 595.388 18.0518L598.146 16.4902C598.908 16.0596 599.884 16.3145 600.322 17.0615ZM605.654 16.8945C605.693 16.6719 605.857 16.4902 606.078 16.4258C606.299 16.3613 606.537 16.4229 606.696 16.5898C607.806 17.75 609.755 19.7832 610.779 20.8525C610.922 21.002 610.979 21.2158 610.922 21.415C610.866 21.6143 610.711 21.7725 610.511 21.8311C609.173 22.2236 606.74 22.9385 605.403 23.3311C605.2 23.3896 604.982 23.3428 604.824 23.2051C604.666 23.0674 604.591 22.8594 604.63 22.6572C604.887 21.21 605.376 18.4619 605.654 16.8945Z" fill="#FF5C00"/>
</g>
<path d="M624.098 22L623.19 19.4229H619.642L618.734 22H617.128L620.581 12.6816H622.27L625.716 22H624.098ZM622.796 18.1152L621.914 15.5762C621.88 15.4661 621.832 15.3117 621.768 15.1128C621.705 14.9097 621.641 14.7044 621.578 14.4971C621.514 14.2855 621.461 14.1077 621.419 13.9639C621.377 14.1374 621.324 14.332 621.26 14.5479C621.201 14.7594 621.142 14.9583 621.083 15.1445C621.028 15.3307 620.985 15.4746 620.956 15.5762L620.067 18.1152H622.796ZM629.62 22.127C628.956 22.127 628.38 21.9979 627.894 21.7397C627.407 21.4816 627.032 21.0859 626.77 20.5527C626.508 20.0195 626.376 19.3424 626.376 18.5215C626.376 17.6667 626.52 16.9684 626.808 16.4268C627.096 15.8851 627.494 15.4852 628.001 15.2271C628.514 14.9689 629.1 14.8398 629.76 14.8398C630.179 14.8398 630.557 14.8822 630.896 14.9668C631.239 15.0472 631.529 15.1466 631.766 15.2651L631.321 16.4585C631.063 16.3527 630.799 16.2638 630.528 16.1919C630.257 16.12 629.997 16.084 629.747 16.084C629.337 16.084 628.994 16.175 628.719 16.3569C628.448 16.5389 628.245 16.8097 628.109 17.1694C627.978 17.5291 627.913 17.9756 627.913 18.5088C627.913 19.0251 627.98 19.4609 628.116 19.8164C628.251 20.1676 628.452 20.4342 628.719 20.6162C628.985 20.7939 629.313 20.8828 629.703 20.8828C630.088 20.8828 630.433 20.8363 630.737 20.7432C631.042 20.6501 631.33 20.5295 631.601 20.3813V21.6763C631.334 21.8286 631.048 21.9408 630.744 22.0127C630.439 22.0889 630.064 22.127 629.62 22.127ZM635.866 20.9209C636.061 20.9209 636.253 20.904 636.444 20.8701C636.634 20.832 636.808 20.7876 636.964 20.7368V21.8667C636.799 21.9386 636.586 22 636.323 22.0508C636.061 22.1016 635.788 22.127 635.504 22.127C635.107 22.127 634.749 22.0614 634.432 21.9302C634.114 21.7948 633.862 21.5641 633.676 21.2383C633.49 20.9124 633.397 20.4618 633.397 19.8862V16.1094H632.438V15.4429L633.467 14.916L633.956 13.4116H634.895V14.9731H636.907V16.1094H634.895V19.8672C634.895 20.2227 634.984 20.4871 635.162 20.6606C635.339 20.8341 635.574 20.9209 635.866 20.9209ZM644.613 18.4707C644.613 19.0547 644.537 19.5731 644.385 20.0259C644.232 20.4787 644.01 20.8617 643.718 21.1748C643.426 21.4837 643.075 21.7207 642.665 21.8857C642.254 22.0465 641.791 22.127 641.274 22.127C640.792 22.127 640.35 22.0465 639.948 21.8857C639.546 21.7207 639.197 21.4837 638.9 21.1748C638.608 20.8617 638.382 20.4787 638.221 20.0259C638.06 19.5731 637.98 19.0547 637.98 18.4707C637.98 17.6963 638.113 17.0404 638.38 16.5029C638.651 15.9613 639.036 15.5487 639.535 15.2651C640.035 14.9816 640.629 14.8398 641.319 14.8398C641.966 14.8398 642.538 14.9816 643.033 15.2651C643.528 15.5487 643.915 15.9613 644.194 16.5029C644.474 17.0446 644.613 17.7005 644.613 18.4707ZM639.516 18.4707C639.516 18.9827 639.577 19.4207 639.7 19.7847C639.827 20.1486 640.022 20.4279 640.284 20.6226C640.547 20.813 640.885 20.9082 641.3 20.9082C641.715 20.9082 642.053 20.813 642.315 20.6226C642.578 20.4279 642.77 20.1486 642.893 19.7847C643.016 19.4207 643.077 18.9827 643.077 18.4707C643.077 17.9587 643.016 17.5249 642.893 17.1694C642.77 16.8097 642.578 16.5368 642.315 16.3506C642.053 16.1602 641.712 16.0649 641.293 16.0649C640.676 16.0649 640.225 16.2723 639.941 16.687C639.658 17.1017 639.516 17.6963 639.516 18.4707ZM649.888 14.8398C650.007 14.8398 650.136 14.8462 650.275 14.8589C650.415 14.8716 650.536 14.8885 650.637 14.9097L650.498 16.3062C650.409 16.2808 650.299 16.2617 650.167 16.249C650.041 16.2363 649.926 16.23 649.825 16.23C649.558 16.23 649.304 16.2744 649.063 16.3633C648.822 16.4479 648.608 16.5791 648.422 16.7568C648.236 16.9303 648.09 17.1483 647.984 17.4106C647.878 17.673 647.825 17.9777 647.825 18.3247V22H646.327V14.9731H647.495L647.698 16.2109H647.768C647.908 15.9613 648.081 15.7327 648.289 15.5254C648.496 15.318 648.733 15.153 649 15.0303C649.27 14.9033 649.567 14.8398 649.888 14.8398Z" fill="#FF5C00"/>
<path d="M497.707 73.7071C498.098 73.3166 498.098 72.6834 497.707 72.2929L491.343 65.9289C490.953 65.5384 490.319 65.5384 489.929 65.9289C489.538 66.3195 489.538 66.9526 489.929 67.3431L495.586 73L489.929 78.6569C489.538 79.0474 489.538 79.6805 489.929 80.0711C490.319 80.4616 490.953 80.4616 491.343 80.0711L497.707 73.7071ZM240 73V74H497V73V72H240V73Z" fill="white"/>
<rect width="152" height="64" transform="translate(292 53)" fill="#020202"/>
<path d="M343.858 76.9189C343.858 77.8076 343.639 78.5732 343.202 79.2158C342.771 79.8584 342.149 80.3506 341.335 80.6924C340.529 81.0342 339.565 81.2051 338.444 81.2051C337.897 81.2051 337.374 81.1743 336.875 81.1128C336.376 81.0513 335.904 80.9624 335.46 80.8462C335.022 80.7231 334.622 80.5762 334.26 80.4053V78.0879C334.869 78.3545 335.549 78.5972 336.301 78.8159C337.053 79.0278 337.818 79.1338 338.598 79.1338C339.233 79.1338 339.76 79.0518 340.177 78.8877C340.6 78.7168 340.915 78.4775 341.12 78.1699C341.325 77.8555 341.428 77.4897 341.428 77.0728C341.428 76.6284 341.308 76.2524 341.069 75.9448C340.829 75.6372 340.467 75.3569 339.982 75.104C339.503 74.8442 338.902 74.5674 338.177 74.2734C337.685 74.0752 337.213 73.8496 336.762 73.5967C336.318 73.3438 335.921 73.0464 335.573 72.7046C335.224 72.3628 334.947 71.9595 334.742 71.4946C334.544 71.0229 334.445 70.4692 334.445 69.8335C334.445 68.9858 334.646 68.2612 335.05 67.6597C335.46 67.0581 336.034 66.5967 336.772 66.2754C337.517 65.9541 338.386 65.7935 339.377 65.7935C340.163 65.7935 340.901 65.8755 341.592 66.0396C342.289 66.2036 342.973 66.436 343.642 66.7368L342.863 68.7158C342.248 68.4629 341.65 68.2612 341.069 68.1108C340.495 67.9604 339.907 67.8853 339.305 67.8853C338.786 67.8853 338.345 67.9639 337.982 68.1211C337.62 68.2783 337.343 68.5005 337.152 68.7876C336.967 69.0679 336.875 69.4028 336.875 69.7925C336.875 70.23 336.981 70.5991 337.193 70.8999C337.412 71.1938 337.746 71.4639 338.198 71.71C338.656 71.9561 339.244 72.2295 339.961 72.5303C340.788 72.8721 341.489 73.231 342.063 73.6069C342.644 73.9829 343.089 74.4341 343.396 74.9604C343.704 75.48 343.858 76.1328 343.858 76.9189ZM350.938 79.2568C351.252 79.2568 351.563 79.2295 351.871 79.1748C352.179 79.1133 352.459 79.0415 352.712 78.9595V80.7847C352.445 80.9009 352.1 81 351.676 81.082C351.252 81.1641 350.811 81.2051 350.353 81.2051C349.711 81.2051 349.133 81.0991 348.621 80.8872C348.108 80.6685 347.701 80.2959 347.4 79.7695C347.1 79.2432 346.949 78.5151 346.949 77.5854V71.4844H345.401V70.4077L347.062 69.5566L347.851 67.1265H349.369V69.6489H352.62V71.4844H349.369V77.5547C349.369 78.1289 349.513 78.5562 349.8 78.8364C350.087 79.1167 350.466 79.2568 350.938 79.2568ZM359.751 69.4336C360.763 69.4336 361.631 69.6421 362.355 70.0591C363.08 70.4761 363.637 71.0674 364.027 71.833C364.416 72.5986 364.611 73.5146 364.611 74.5811V75.873H357.034C357.061 76.9736 357.355 77.8213 357.915 78.416C358.483 79.0107 359.276 79.3081 360.294 79.3081C361.019 79.3081 361.668 79.2397 362.243 79.103C362.824 78.9595 363.422 78.751 364.037 78.4775V80.436C363.47 80.7026 362.892 80.8975 362.304 81.0205C361.716 81.1436 361.012 81.2051 360.192 81.2051C359.078 81.2051 358.097 80.9897 357.249 80.5591C356.408 80.1216 355.748 79.4722 355.27 78.6108C354.798 77.7495 354.562 76.6797 354.562 75.4014C354.562 74.1299 354.778 73.0498 355.208 72.1611C355.639 71.2725 356.244 70.5957 357.023 70.1309C357.803 69.666 358.712 69.4336 359.751 69.4336ZM359.751 71.2485C358.992 71.2485 358.377 71.4946 357.905 71.9868C357.44 72.479 357.167 73.2002 357.085 74.1504H362.253C362.246 73.583 362.15 73.0806 361.966 72.6431C361.788 72.2056 361.515 71.8638 361.145 71.6177C360.783 71.3716 360.318 71.2485 359.751 71.2485ZM373.363 69.4336C374.709 69.4336 375.79 69.9258 376.603 70.9102C377.423 71.8945 377.833 73.3574 377.833 75.2988C377.833 76.584 377.642 77.6675 377.259 78.5493C376.883 79.4243 376.354 80.0874 375.67 80.5386C374.993 80.9829 374.204 81.2051 373.301 81.2051C372.727 81.2051 372.228 81.1299 371.804 80.9795C371.38 80.8291 371.018 80.6343 370.717 80.395C370.417 80.1489 370.164 79.8823 369.958 79.5952H369.815C369.849 79.8687 369.88 80.1729 369.907 80.5078C369.941 80.8359 369.958 81.1367 369.958 81.4102V86.0347H367.539V69.6489H369.507L369.846 71.2178H369.958C370.17 70.8965 370.427 70.5991 370.728 70.3257C371.035 70.0522 371.404 69.8369 371.835 69.6797C372.272 69.5156 372.782 69.4336 373.363 69.4336ZM372.717 71.4023C372.054 71.4023 371.521 71.5356 371.117 71.8022C370.721 72.062 370.43 72.4551 370.246 72.9814C370.068 73.5078 369.972 74.1675 369.958 74.9604V75.2988C369.958 76.1396 370.044 76.854 370.215 77.4419C370.393 78.0229 370.683 78.4673 371.086 78.7749C371.497 79.0757 372.05 79.2261 372.748 79.2261C373.335 79.2261 373.821 79.0654 374.204 78.7441C374.593 78.4229 374.884 77.9648 375.075 77.3701C375.267 76.7754 375.362 76.0747 375.362 75.2681C375.362 74.0444 375.144 73.0942 374.706 72.4175C374.275 71.7407 373.612 71.4023 372.717 71.4023ZM392.804 81H390.384V71.3511C390.384 71.0298 390.387 70.7085 390.394 70.3872C390.401 70.0659 390.408 69.7515 390.415 69.4438C390.428 69.1362 390.445 68.8423 390.466 68.562C390.322 68.7192 390.145 68.8901 389.933 69.0747C389.728 69.2593 389.509 69.4507 389.276 69.6489L387.554 71.0229L386.344 69.4951L390.794 66.0088H392.804V81ZM398.377 79.7285C398.377 79.168 398.52 78.7749 398.807 78.5493C399.101 78.3169 399.457 78.2007 399.874 78.2007C400.291 78.2007 400.646 78.3169 400.94 78.5493C401.241 78.7749 401.391 79.168 401.391 79.7285C401.391 80.2754 401.241 80.6719 400.94 80.918C400.646 81.1572 400.291 81.2769 399.874 81.2769C399.457 81.2769 399.101 81.1572 398.807 80.918C398.52 80.6719 398.377 80.2754 398.377 79.7285ZM398.377 70.9512C398.377 70.3838 398.52 69.9839 398.807 69.7515C399.101 69.519 399.457 69.4028 399.874 69.4028C400.291 69.4028 400.646 69.519 400.94 69.7515C401.241 69.9839 401.391 70.3838 401.391 70.9512C401.391 71.4912 401.241 71.8843 400.94 72.1304C400.646 72.3696 400.291 72.4893 399.874 72.4893C399.457 72.4893 399.101 72.3696 398.807 72.1304C398.52 71.8843 398.377 71.4912 398.377 70.9512ZM308.529 91.8853C307.811 91.8853 307.168 92.0151 306.601 92.2749C306.04 92.5347 305.565 92.9106 305.176 93.4028C304.786 93.8882 304.489 94.4795 304.283 95.1768C304.078 95.8672 303.976 96.6465 303.976 97.5146C303.976 98.6768 304.14 99.6782 304.468 100.519C304.796 101.353 305.295 101.996 305.965 102.447C306.635 102.891 307.483 103.113 308.508 103.113C309.144 103.113 309.762 103.052 310.364 102.929C310.966 102.806 311.588 102.638 312.23 102.426V104.518C311.622 104.757 311.007 104.932 310.385 105.041C309.762 105.15 309.045 105.205 308.231 105.205C306.7 105.205 305.428 104.887 304.417 104.251C303.412 103.616 302.66 102.72 302.161 101.565C301.669 100.41 301.423 99.0562 301.423 97.5044C301.423 96.3696 301.58 95.3306 301.894 94.3872C302.209 93.4438 302.667 92.6304 303.268 91.9468C303.87 91.2563 304.612 90.7266 305.493 90.3574C306.382 89.9814 307.397 89.7935 308.539 89.7935C309.291 89.7935 310.029 89.8789 310.754 90.0498C311.485 90.2139 312.162 90.4497 312.784 90.7573L311.923 92.7876C311.403 92.5415 310.86 92.3296 310.292 92.1519C309.725 91.9741 309.137 91.8853 308.529 91.8853ZM321.166 93.4336C321.358 93.4336 321.566 93.4438 321.792 93.4644C322.017 93.4849 322.212 93.5122 322.376 93.5464L322.151 95.8022C322.007 95.7612 321.829 95.7305 321.617 95.71C321.412 95.6895 321.228 95.6792 321.064 95.6792C320.633 95.6792 320.223 95.751 319.833 95.8945C319.444 96.0312 319.098 96.2432 318.798 96.5303C318.497 96.8105 318.261 97.1626 318.09 97.5864C317.919 98.0103 317.834 98.5024 317.834 99.063V105H315.414V93.6489H317.301L317.629 95.6484H317.742C317.967 95.2451 318.247 94.876 318.582 94.541C318.917 94.2061 319.3 93.9395 319.731 93.7412C320.168 93.5361 320.647 93.4336 321.166 93.4336ZM329.21 93.4336C330.222 93.4336 331.09 93.6421 331.815 94.0591C332.539 94.4761 333.097 95.0674 333.486 95.833C333.876 96.5986 334.071 97.5146 334.071 98.5811V99.873H326.493C326.52 100.974 326.814 101.821 327.375 102.416C327.942 103.011 328.735 103.308 329.754 103.308C330.478 103.308 331.128 103.24 331.702 103.103C332.283 102.959 332.881 102.751 333.496 102.478V104.436C332.929 104.703 332.351 104.897 331.764 105.021C331.176 105.144 330.472 105.205 329.651 105.205C328.537 105.205 327.556 104.99 326.708 104.559C325.868 104.122 325.208 103.472 324.729 102.611C324.258 101.75 324.022 100.68 324.022 99.4014C324.022 98.1299 324.237 97.0498 324.668 96.1611C325.098 95.2725 325.703 94.5957 326.483 94.1309C327.262 93.666 328.171 93.4336 329.21 93.4336ZM329.21 95.2485C328.452 95.2485 327.836 95.4946 327.365 95.9868C326.9 96.479 326.626 97.2002 326.544 98.1504H331.712C331.705 97.583 331.61 97.0806 331.425 96.6431C331.247 96.2056 330.974 95.8638 330.605 95.6177C330.243 95.3716 329.778 95.2485 329.21 95.2485ZM341.448 93.4336C342.884 93.4336 343.967 93.7515 344.699 94.3872C345.437 95.0229 345.806 96.0142 345.806 97.3608V105H344.094L343.632 103.39H343.55C343.229 103.8 342.897 104.139 342.556 104.405C342.214 104.672 341.817 104.87 341.366 105C340.922 105.137 340.378 105.205 339.736 105.205C339.059 105.205 338.454 105.082 337.921 104.836C337.388 104.583 336.967 104.2 336.66 103.688C336.352 103.175 336.198 102.525 336.198 101.739C336.198 100.57 336.632 99.6919 337.5 99.104C338.375 98.5161 339.695 98.1914 341.458 98.1299L343.427 98.0581V97.4634C343.427 96.6772 343.243 96.1167 342.873 95.7817C342.511 95.4468 341.998 95.2793 341.335 95.2793C340.768 95.2793 340.218 95.3613 339.684 95.5254C339.151 95.6895 338.632 95.8911 338.126 96.1304L337.347 94.4282C337.9 94.1343 338.529 93.895 339.233 93.7104C339.944 93.5259 340.682 93.4336 341.448 93.4336ZM343.417 99.5757L341.951 99.627C340.747 99.668 339.903 99.873 339.418 100.242C338.932 100.611 338.69 101.117 338.69 101.76C338.69 102.32 338.857 102.73 339.192 102.99C339.527 103.243 339.968 103.37 340.515 103.37C341.349 103.37 342.039 103.134 342.586 102.662C343.14 102.184 343.417 101.483 343.417 100.56V99.5757ZM353.614 103.257C353.929 103.257 354.24 103.229 354.547 103.175C354.855 103.113 355.135 103.042 355.388 102.959V104.785C355.122 104.901 354.776 105 354.352 105.082C353.929 105.164 353.488 105.205 353.03 105.205C352.387 105.205 351.809 105.099 351.297 104.887C350.784 104.668 350.377 104.296 350.077 103.77C349.776 103.243 349.625 102.515 349.625 101.585V95.4844H348.077V94.4077L349.738 93.5566L350.528 91.1265H352.045V93.6489H355.296V95.4844H352.045V101.555C352.045 102.129 352.189 102.556 352.476 102.836C352.763 103.117 353.142 103.257 353.614 103.257ZM362.427 93.4336C363.439 93.4336 364.307 93.6421 365.032 94.0591C365.756 94.4761 366.313 95.0674 366.703 95.833C367.093 96.5986 367.288 97.5146 367.288 98.5811V99.873H359.71C359.737 100.974 360.031 101.821 360.592 102.416C361.159 103.011 361.952 103.308 362.971 103.308C363.695 103.308 364.345 103.24 364.919 103.103C365.5 102.959 366.098 102.751 366.713 102.478V104.436C366.146 104.703 365.568 104.897 364.98 105.021C364.393 105.144 363.688 105.205 362.868 105.205C361.754 105.205 360.773 104.99 359.925 104.559C359.084 104.122 358.425 103.472 357.946 102.611C357.475 101.75 357.239 100.68 357.239 99.4014C357.239 98.1299 357.454 97.0498 357.885 96.1611C358.315 95.2725 358.92 94.5957 359.7 94.1309C360.479 93.666 361.388 93.4336 362.427 93.4336ZM362.427 95.2485C361.668 95.2485 361.053 95.4946 360.582 95.9868C360.117 96.479 359.843 97.2002 359.761 98.1504H364.929C364.922 97.583 364.827 97.0806 364.642 96.6431C364.464 96.2056 364.191 95.8638 363.822 95.6177C363.459 95.3716 362.995 95.2485 362.427 95.2485ZM381.325 105H378.854V92.1006H374.465V90.0088H385.703V92.1006H381.325V105ZM390.374 93.6489V105H387.964V93.6489H390.374ZM389.184 89.3013C389.553 89.3013 389.871 89.4004 390.138 89.5986C390.411 89.7969 390.548 90.1387 390.548 90.624C390.548 91.1025 390.411 91.4443 390.138 91.6494C389.871 91.8477 389.553 91.9468 389.184 91.9468C388.801 91.9468 388.477 91.8477 388.21 91.6494C387.95 91.4443 387.82 91.1025 387.82 90.624C387.82 90.1387 387.95 89.7969 388.21 89.5986C388.477 89.4004 388.801 89.3013 389.184 89.3013ZM398.612 105.205C397.539 105.205 396.609 104.997 395.823 104.58C395.037 104.163 394.432 103.523 394.008 102.662C393.585 101.801 393.373 100.707 393.373 99.3809C393.373 98 393.605 96.8721 394.07 95.9971C394.535 95.1221 395.177 94.4761 395.998 94.0591C396.825 93.6421 397.772 93.4336 398.838 93.4336C399.515 93.4336 400.127 93.502 400.673 93.6387C401.227 93.7686 401.695 93.9292 402.078 94.1206L401.36 96.0483C400.943 95.8774 400.516 95.7339 400.079 95.6177C399.641 95.5015 399.221 95.4434 398.817 95.4434C398.154 95.4434 397.601 95.5903 397.156 95.8843C396.719 96.1782 396.391 96.6157 396.172 97.1968C395.96 97.7778 395.854 98.499 395.854 99.3604C395.854 100.194 395.963 100.898 396.182 101.473C396.401 102.04 396.726 102.471 397.156 102.765C397.587 103.052 398.117 103.195 398.746 103.195C399.368 103.195 399.925 103.12 400.417 102.97C400.909 102.819 401.374 102.625 401.812 102.385V104.477C401.381 104.723 400.92 104.904 400.427 105.021C399.935 105.144 399.33 105.205 398.612 105.205ZM407.097 89.0449V96.7559C407.097 97.1045 407.084 97.4873 407.056 97.9043C407.029 98.3145 407.002 98.7007 406.974 99.063H407.026C407.203 98.8237 407.415 98.5435 407.661 98.2222C407.914 97.9009 408.153 97.6206 408.379 97.3813L411.845 93.6489H414.613L410.071 98.5298L414.911 105H412.081L408.451 100.017L407.097 101.175V105H404.688V89.0449H407.097ZM421.458 93.4336C422.469 93.4336 423.338 93.6421 424.062 94.0591C424.787 94.4761 425.344 95.0674 425.734 95.833C426.123 96.5986 426.318 97.5146 426.318 98.5811V99.873H418.74C418.768 100.974 419.062 101.821 419.622 102.416C420.19 103.011 420.983 103.308 422.001 103.308C422.726 103.308 423.375 103.24 423.949 103.103C424.53 102.959 425.129 102.751 425.744 102.478V104.436C425.176 104.703 424.599 104.897 424.011 105.021C423.423 105.144 422.719 105.205 421.899 105.205C420.784 105.205 419.803 104.99 418.956 104.559C418.115 104.122 417.455 103.472 416.977 102.611C416.505 101.75 416.269 100.68 416.269 99.4014C416.269 98.1299 416.485 97.0498 416.915 96.1611C417.346 95.2725 417.951 94.5957 418.73 94.1309C419.509 93.666 420.419 93.4336 421.458 93.4336ZM421.458 95.2485C420.699 95.2485 420.084 95.4946 419.612 95.9868C419.147 96.479 418.874 97.2002 418.792 98.1504H423.96C423.953 97.583 423.857 97.0806 423.673 96.6431C423.495 96.2056 423.221 95.8638 422.852 95.6177C422.49 95.3716 422.025 95.2485 421.458 95.2485ZM433.47 103.257C433.784 103.257 434.095 103.229 434.403 103.175C434.711 103.113 434.991 103.042 435.244 102.959V104.785C434.977 104.901 434.632 105 434.208 105.082C433.784 105.164 433.343 105.205 432.885 105.205C432.243 105.205 431.665 105.099 431.153 104.887C430.64 104.668 430.233 104.296 429.932 103.77C429.632 103.243 429.481 102.515 429.481 101.585V95.4844H427.933V94.4077L429.594 93.5566L430.384 91.1265H431.901V93.6489H435.152V95.4844H431.901V101.555C431.901 102.129 432.045 102.556 432.332 102.836C432.619 103.117 432.998 103.257 433.47 103.257Z" fill="white"/>
<rect x="285" y="312" width="265" height="151" rx="7" stroke="white" stroke-width="2" stroke-dasharray="12 12"/>
<path d="M293.969 293V278.009H296.43V290.908H302.797V293H293.969ZM315.404 287.299C315.404 288.242 315.281 289.08 315.035 289.811C314.789 290.542 314.43 291.161 313.959 291.667C313.487 292.166 312.919 292.549 312.256 292.815C311.593 293.075 310.845 293.205 310.011 293.205C309.231 293.205 308.517 293.075 307.868 292.815C307.218 292.549 306.654 292.166 306.176 291.667C305.704 291.161 305.338 290.542 305.079 289.811C304.819 289.08 304.689 288.242 304.689 287.299C304.689 286.048 304.904 284.988 305.335 284.12C305.773 283.245 306.395 282.579 307.201 282.121C308.008 281.663 308.968 281.434 310.083 281.434C311.128 281.434 312.051 281.663 312.851 282.121C313.651 282.579 314.276 283.245 314.728 284.12C315.179 284.995 315.404 286.055 315.404 287.299ZM307.17 287.299C307.17 288.126 307.27 288.833 307.468 289.421C307.673 290.009 307.987 290.46 308.411 290.775C308.835 291.083 309.382 291.236 310.052 291.236C310.722 291.236 311.269 291.083 311.692 290.775C312.116 290.46 312.427 290.009 312.626 289.421C312.824 288.833 312.923 288.126 312.923 287.299C312.923 286.472 312.824 285.771 312.626 285.197C312.427 284.616 312.116 284.175 311.692 283.874C311.269 283.566 310.718 283.413 310.042 283.413C309.043 283.413 308.315 283.748 307.857 284.417C307.399 285.087 307.17 286.048 307.17 287.299ZM320.793 277.045V280.89C320.793 281.334 320.779 281.772 320.752 282.203C320.731 282.626 320.711 282.958 320.69 283.197H320.793C321.1 282.705 321.527 282.292 322.074 281.957C322.628 281.615 323.336 281.444 324.197 281.444C325.544 281.444 326.627 281.939 327.447 282.931C328.268 283.915 328.678 285.375 328.678 287.309C328.678 288.594 328.49 289.674 328.114 290.549C327.738 291.424 327.208 292.087 326.524 292.539C325.848 292.983 325.051 293.205 324.135 293.205C323.274 293.205 322.577 293.048 322.044 292.733C321.517 292.412 321.104 292.04 320.803 291.616H320.628L320.188 293H318.383V277.045H320.793ZM323.561 283.402C322.878 283.402 322.334 283.539 321.931 283.812C321.534 284.086 321.247 284.496 321.069 285.043C320.892 285.583 320.799 286.27 320.793 287.104V287.319C320.793 288.584 320.991 289.551 321.387 290.221C321.791 290.891 322.522 291.226 323.582 291.226C324.422 291.226 325.068 290.888 325.52 290.211C325.971 289.527 326.196 288.55 326.196 287.278C326.196 285.993 325.971 285.026 325.52 284.376C325.075 283.727 324.422 283.402 323.561 283.402ZM334.087 277.045V280.89C334.087 281.334 334.073 281.772 334.046 282.203C334.025 282.626 334.005 282.958 333.984 283.197H334.087C334.394 282.705 334.821 282.292 335.368 281.957C335.922 281.615 336.63 281.444 337.491 281.444C338.838 281.444 339.921 281.939 340.741 282.931C341.562 283.915 341.972 285.375 341.972 287.309C341.972 288.594 341.784 289.674 341.408 290.549C341.032 291.424 340.502 292.087 339.818 292.539C339.142 292.983 338.345 293.205 337.429 293.205C336.568 293.205 335.871 293.048 335.338 292.733C334.811 292.412 334.398 292.04 334.097 291.616H333.922L333.482 293H331.677V277.045H334.087ZM336.855 283.402C336.172 283.402 335.628 283.539 335.225 283.812C334.828 284.086 334.541 284.496 334.363 285.043C334.186 285.583 334.093 286.27 334.087 287.104V287.319C334.087 288.584 334.285 289.551 334.681 290.221C335.085 290.891 335.816 291.226 336.876 291.226C337.716 291.226 338.362 290.888 338.814 290.211C339.265 289.527 339.49 288.55 339.49 287.278C339.49 285.993 339.265 285.026 338.814 284.376C338.369 283.727 337.716 283.402 336.855 283.402ZM343.258 281.649H345.883L348.211 288.129C348.314 288.423 348.406 288.714 348.488 289.001C348.577 289.281 348.652 289.558 348.714 289.832C348.782 290.105 348.837 290.378 348.878 290.652H348.939C349.007 290.296 349.103 289.9 349.226 289.462C349.356 289.018 349.5 288.574 349.657 288.129L351.892 281.649H354.486L349.616 294.559C349.336 295.297 348.99 295.926 348.58 296.445C348.177 296.972 347.698 297.368 347.145 297.635C346.591 297.908 345.959 298.045 345.248 298.045C344.906 298.045 344.609 298.024 344.356 297.983C344.103 297.949 343.887 297.912 343.71 297.871V295.943C343.853 295.977 344.034 296.008 344.253 296.035C344.472 296.062 344.697 296.076 344.93 296.076C345.361 296.076 345.733 295.991 346.048 295.82C346.362 295.649 346.629 295.406 346.847 295.092C347.066 294.784 347.247 294.432 347.391 294.036L347.791 292.969L343.258 281.649ZM371.62 293L370.154 288.837H364.422L362.956 293H360.362L365.94 277.947H368.667L374.235 293H371.62ZM369.518 286.725L368.093 282.623C368.038 282.445 367.96 282.196 367.857 281.875C367.755 281.546 367.652 281.215 367.55 280.88C367.447 280.538 367.362 280.251 367.293 280.019C367.225 280.299 367.139 280.613 367.037 280.962C366.941 281.304 366.845 281.625 366.75 281.926C366.661 282.227 366.593 282.459 366.545 282.623L365.109 286.725H369.518Z" fill="white"/>
<rect x="697" y="312" width="265" height="151" rx="7" stroke="white" stroke-width="2" stroke-dasharray="12 12"/>
<path d="M705.969 293V278.009H708.43V290.908H714.797V293H705.969ZM727.404 287.299C727.404 288.242 727.281 289.08 727.035 289.811C726.789 290.542 726.43 291.161 725.959 291.667C725.487 292.166 724.919 292.549 724.256 292.815C723.593 293.075 722.845 293.205 722.011 293.205C721.231 293.205 720.517 293.075 719.868 292.815C719.218 292.549 718.654 292.166 718.176 291.667C717.704 291.161 717.338 290.542 717.079 289.811C716.819 289.08 716.689 288.242 716.689 287.299C716.689 286.048 716.904 284.988 717.335 284.12C717.773 283.245 718.395 282.579 719.201 282.121C720.008 281.663 720.968 281.434 722.083 281.434C723.128 281.434 724.051 281.663 724.851 282.121C725.651 282.579 726.276 283.245 726.728 284.12C727.179 284.995 727.404 286.055 727.404 287.299ZM719.17 287.299C719.17 288.126 719.27 288.833 719.468 289.421C719.673 290.009 719.987 290.46 720.411 290.775C720.835 291.083 721.382 291.236 722.052 291.236C722.722 291.236 723.269 291.083 723.692 290.775C724.116 290.46 724.427 290.009 724.626 289.421C724.824 288.833 724.923 288.126 724.923 287.299C724.923 286.472 724.824 285.771 724.626 285.197C724.427 284.616 724.116 284.175 723.692 283.874C723.269 283.566 722.718 283.413 722.042 283.413C721.043 283.413 720.315 283.748 719.857 284.417C719.399 285.087 719.17 286.048 719.17 287.299ZM732.793 277.045V280.89C732.793 281.334 732.779 281.772 732.752 282.203C732.731 282.626 732.711 282.958 732.69 283.197H732.793C733.1 282.705 733.527 282.292 734.074 281.957C734.628 281.615 735.336 281.444 736.197 281.444C737.544 281.444 738.627 281.939 739.447 282.931C740.268 283.915 740.678 285.375 740.678 287.309C740.678 288.594 740.49 289.674 740.114 290.549C739.738 291.424 739.208 292.087 738.524 292.539C737.848 292.983 737.051 293.205 736.135 293.205C735.274 293.205 734.577 293.048 734.044 292.733C733.517 292.412 733.104 292.04 732.803 291.616H732.628L732.188 293H730.383V277.045H732.793ZM735.561 283.402C734.878 283.402 734.334 283.539 733.931 283.812C733.534 284.086 733.247 284.496 733.069 285.043C732.892 285.583 732.799 286.27 732.793 287.104V287.319C732.793 288.584 732.991 289.551 733.387 290.221C733.791 290.891 734.522 291.226 735.582 291.226C736.422 291.226 737.068 290.888 737.52 290.211C737.971 289.527 738.196 288.55 738.196 287.278C738.196 285.993 737.971 285.026 737.52 284.376C737.075 283.727 736.422 283.402 735.561 283.402ZM746.087 277.045V280.89C746.087 281.334 746.073 281.772 746.046 282.203C746.025 282.626 746.005 282.958 745.984 283.197H746.087C746.394 282.705 746.821 282.292 747.368 281.957C747.922 281.615 748.63 281.444 749.491 281.444C750.838 281.444 751.921 281.939 752.741 282.931C753.562 283.915 753.972 285.375 753.972 287.309C753.972 288.594 753.784 289.674 753.408 290.549C753.032 291.424 752.502 292.087 751.818 292.539C751.142 292.983 750.345 293.205 749.429 293.205C748.568 293.205 747.871 293.048 747.338 292.733C746.811 292.412 746.398 292.04 746.097 291.616H745.922L745.482 293H743.677V277.045H746.087ZM748.855 283.402C748.172 283.402 747.628 283.539 747.225 283.812C746.828 284.086 746.541 284.496 746.363 285.043C746.186 285.583 746.093 286.27 746.087 287.104V287.319C746.087 288.584 746.285 289.551 746.681 290.221C747.085 290.891 747.816 291.226 748.876 291.226C749.716 291.226 750.362 290.888 750.814 290.211C751.265 289.527 751.49 288.55 751.49 287.278C751.49 285.993 751.265 285.026 750.814 284.376C750.369 283.727 749.716 283.402 748.855 283.402ZM755.258 281.649H757.883L760.211 288.129C760.314 288.423 760.406 288.714 760.488 289.001C760.577 289.281 760.652 289.558 760.714 289.832C760.782 290.105 760.837 290.378 760.878 290.652H760.939C761.007 290.296 761.103 289.9 761.226 289.462C761.356 289.018 761.5 288.574 761.657 288.129L763.892 281.649H766.486L761.616 294.559C761.336 295.297 760.99 295.926 760.58 296.445C760.177 296.972 759.698 297.368 759.145 297.635C758.591 297.908 757.959 298.045 757.248 298.045C756.906 298.045 756.609 298.024 756.356 297.983C756.103 297.949 755.887 297.912 755.71 297.871V295.943C755.853 295.977 756.034 296.008 756.253 296.035C756.472 296.062 756.697 296.076 756.93 296.076C757.361 296.076 757.733 295.991 758.048 295.82C758.362 295.649 758.629 295.406 758.847 295.092C759.066 294.784 759.247 294.432 759.391 294.036L759.791 292.969L755.258 281.649ZM774.33 278.009H778.791C780.725 278.009 782.185 278.289 783.169 278.85C784.154 279.41 784.646 280.377 784.646 281.751C784.646 282.326 784.543 282.845 784.338 283.31C784.14 283.768 783.849 284.147 783.467 284.448C783.084 284.742 782.612 284.94 782.052 285.043V285.146C782.633 285.248 783.149 285.429 783.6 285.689C784.058 285.949 784.417 286.321 784.677 286.807C784.943 287.292 785.076 287.921 785.076 288.693C785.076 289.609 784.858 290.389 784.42 291.031C783.989 291.674 783.371 292.163 782.564 292.498C781.764 292.833 780.814 293 779.714 293H774.33V278.009ZM776.791 284.192H779.15C780.264 284.192 781.036 284.011 781.467 283.648C781.898 283.286 782.113 282.756 782.113 282.059C782.113 281.348 781.857 280.835 781.344 280.521C780.838 280.207 780.031 280.049 778.924 280.049H776.791V284.192ZM776.791 286.181V290.939H779.385C780.534 290.939 781.341 290.717 781.805 290.272C782.27 289.828 782.503 289.227 782.503 288.468C782.503 288.003 782.397 287.6 782.185 287.258C781.98 286.916 781.641 286.653 781.17 286.468C780.698 286.277 780.062 286.181 779.262 286.181H776.791Z" fill="white"/>
<rect x="302" y="338" width="226" height="103" rx="8" fill="#020202"/>
<rect x="303" y="339" width="224" height="101" rx="7" stroke="white" stroke-opacity="0.9" stroke-width="2"/>
<path d="M385.726 397.5V382.509H388.186V395.408H394.554V397.5H385.726ZM407.161 391.799C407.161 392.742 407.038 393.58 406.792 394.311C406.546 395.042 406.187 395.661 405.715 396.167C405.244 396.666 404.676 397.049 404.013 397.315C403.35 397.575 402.602 397.705 401.768 397.705C400.988 397.705 400.274 397.575 399.624 397.315C398.975 397.049 398.411 396.666 397.933 396.167C397.461 395.661 397.095 395.042 396.835 394.311C396.576 393.58 396.446 392.742 396.446 391.799C396.446 390.548 396.661 389.488 397.092 388.62C397.529 387.745 398.151 387.079 398.958 386.621C399.765 386.163 400.725 385.934 401.839 385.934C402.885 385.934 403.808 386.163 404.608 386.621C405.408 387.079 406.033 387.745 406.484 388.62C406.936 389.495 407.161 390.555 407.161 391.799ZM398.927 391.799C398.927 392.626 399.026 393.333 399.225 393.921C399.43 394.509 399.744 394.96 400.168 395.275C400.592 395.583 401.139 395.736 401.809 395.736C402.478 395.736 403.025 395.583 403.449 395.275C403.873 394.96 404.184 394.509 404.382 393.921C404.581 393.333 404.68 392.626 404.68 391.799C404.68 390.972 404.581 390.271 404.382 389.697C404.184 389.116 403.873 388.675 403.449 388.374C403.025 388.066 402.475 387.913 401.798 387.913C400.8 387.913 400.072 388.248 399.614 388.917C399.156 389.587 398.927 390.548 398.927 391.799ZM412.549 381.545V385.39C412.549 385.834 412.536 386.272 412.508 386.703C412.488 387.126 412.467 387.458 412.447 387.697H412.549C412.857 387.205 413.284 386.792 413.831 386.457C414.385 386.115 415.092 385.944 415.954 385.944C417.3 385.944 418.384 386.439 419.204 387.431C420.024 388.415 420.435 389.875 420.435 391.809C420.435 393.094 420.247 394.174 419.871 395.049C419.495 395.924 418.965 396.587 418.281 397.039C417.604 397.483 416.808 397.705 415.892 397.705C415.031 397.705 414.333 397.548 413.8 397.233C413.274 396.912 412.86 396.54 412.56 396.116H412.385L411.944 397.5H410.14V381.545H412.549ZM415.318 387.902C414.634 387.902 414.091 388.039 413.688 388.312C413.291 388.586 413.004 388.996 412.826 389.543C412.648 390.083 412.556 390.77 412.549 391.604V391.819C412.549 393.084 412.748 394.051 413.144 394.721C413.547 395.391 414.279 395.726 415.338 395.726C416.179 395.726 416.825 395.388 417.276 394.711C417.728 394.027 417.953 393.05 417.953 391.778C417.953 390.493 417.728 389.526 417.276 388.876C416.832 388.227 416.179 387.902 415.318 387.902ZM425.843 381.545V385.39C425.843 385.834 425.83 386.272 425.802 386.703C425.782 387.126 425.761 387.458 425.741 387.697H425.843C426.151 387.205 426.578 386.792 427.125 386.457C427.679 386.115 428.386 385.944 429.248 385.944C430.594 385.944 431.678 386.439 432.498 387.431C433.318 388.415 433.729 389.875 433.729 391.809C433.729 393.094 433.541 394.174 433.165 395.049C432.789 395.924 432.259 396.587 431.575 397.039C430.898 397.483 430.102 397.705 429.186 397.705C428.325 397.705 427.627 397.548 427.094 397.233C426.568 396.912 426.154 396.54 425.854 396.116H425.679L425.238 397.5H423.434V381.545H425.843ZM428.612 387.902C427.928 387.902 427.385 388.039 426.981 388.312C426.585 388.586 426.298 388.996 426.12 389.543C425.942 390.083 425.85 390.77 425.843 391.604V391.819C425.843 393.084 426.042 394.051 426.438 394.721C426.841 395.391 427.573 395.726 428.632 395.726C429.473 395.726 430.119 395.388 430.57 394.711C431.022 394.027 431.247 393.05 431.247 391.778C431.247 390.493 431.022 389.526 430.57 388.876C430.126 388.227 429.473 387.902 428.612 387.902ZM435.015 386.149H437.64L439.968 392.629C440.07 392.923 440.163 393.214 440.245 393.501C440.334 393.781 440.409 394.058 440.47 394.332C440.539 394.605 440.593 394.878 440.634 395.152H440.696C440.764 394.796 440.86 394.4 440.983 393.962C441.113 393.518 441.256 393.074 441.414 392.629L443.649 386.149H446.243L441.373 399.059C441.092 399.797 440.747 400.426 440.337 400.945C439.934 401.472 439.455 401.868 438.901 402.135C438.348 402.408 437.715 402.545 437.004 402.545C436.663 402.545 436.365 402.524 436.112 402.483C435.859 402.449 435.644 402.412 435.466 402.371V400.443C435.61 400.477 435.791 400.508 436.01 400.535C436.229 400.562 436.454 400.576 436.687 400.576C437.117 400.576 437.49 400.491 437.804 400.32C438.119 400.149 438.385 399.906 438.604 399.592C438.823 399.284 439.004 398.932 439.148 398.536L439.547 397.469L435.015 386.149Z" fill="white"/>
<rect width="106" height="18" transform="translate(361.5 329)" fill="#020202"/>
<path d="M373.75 331.714C373.441 331.714 373.188 331.971 373.188 332.286V334.571C373.188 334.886 373.441 335.143 373.75 335.143H387.25C387.559 335.143 387.812 334.886 387.812 334.571V332.286C387.812 331.971 387.559 331.714 387.25 331.714H373.75ZM371.5 332.286C371.5 331.025 372.509 330 373.75 330H387.25C388.491 330 389.5 331.025 389.5 332.286V334.571C389.5 335.832 388.491 336.857 387.25 336.857H373.75C372.509 336.857 371.5 335.832 371.5 334.571V332.286ZM373.75 340.857C373.441 340.857 373.188 341.114 373.188 341.429V343.714C373.188 344.029 373.441 344.286 373.75 344.286H387.25C387.559 344.286 387.812 344.029 387.812 343.714V341.429C387.812 341.114 387.559 340.857 387.25 340.857H373.75ZM371.5 341.429C371.5 340.168 372.509 339.143 373.75 339.143H387.25C388.491 339.143 389.5 340.168 389.5 341.429V343.714C389.5 344.975 388.491 346 387.25 346H373.75C372.509 346 371.5 344.975 371.5 343.714V341.429ZM385.281 342.571C385.281 342.344 385.37 342.126 385.528 341.965C385.687 341.805 385.901 341.714 386.125 341.714C386.349 341.714 386.563 341.805 386.722 341.965C386.88 342.126 386.969 342.344 386.969 342.571C386.969 342.799 386.88 343.017 386.722 343.178C386.563 343.338 386.349 343.429 386.125 343.429C385.901 343.429 385.687 343.338 385.528 343.178C385.37 343.017 385.281 342.799 385.281 342.571ZM386.125 332.571C386.349 332.571 386.563 332.662 386.722 332.822C386.88 332.983 386.969 333.201 386.969 333.429C386.969 333.656 386.88 333.874 386.722 334.035C386.563 334.195 386.349 334.286 386.125 334.286C385.901 334.286 385.687 334.195 385.528 334.035C385.37 333.874 385.281 333.656 385.281 333.429C385.281 333.201 385.37 332.983 385.528 332.822C385.687 332.662 385.901 332.571 386.125 332.571ZM383.031 342.571C383.031 342.344 383.12 342.126 383.278 341.965C383.437 341.805 383.651 341.714 383.875 341.714C384.099 341.714 384.313 341.805 384.472 341.965C384.63 342.126 384.719 342.344 384.719 342.571C384.719 342.799 384.63 343.017 384.472 343.178C384.313 343.338 384.099 343.429 383.875 343.429C383.651 343.429 383.437 343.338 383.278 343.178C383.12 343.017 383.031 342.799 383.031 342.571ZM383.875 332.571C384.099 332.571 384.313 332.662 384.472 332.822C384.63 332.983 384.719 333.201 384.719 333.429C384.719 333.656 384.63 333.874 384.472 334.035C384.313 334.195 384.099 334.286 383.875 334.286C383.651 334.286 383.437 334.195 383.278 334.035C383.12 333.874 383.031 333.656 383.031 333.429C383.031 333.201 383.12 332.983 383.278 332.822C383.437 332.662 383.651 332.571 383.875 332.571Z" fill="#FF5C00"/>
<path d="M400.114 334.881C399.67 334.881 399.272 334.962 398.921 335.123C398.574 335.283 398.28 335.516 398.039 335.821C397.797 336.121 397.613 336.487 397.486 336.919C397.359 337.346 397.296 337.829 397.296 338.366C397.296 339.086 397.397 339.706 397.601 340.226C397.804 340.742 398.113 341.14 398.527 341.419C398.942 341.694 399.467 341.832 400.102 341.832C400.495 341.832 400.878 341.794 401.25 341.718C401.623 341.642 402.008 341.538 402.406 341.407V342.702C402.029 342.85 401.648 342.958 401.263 343.025C400.878 343.093 400.434 343.127 399.93 343.127C398.982 343.127 398.195 342.93 397.569 342.537C396.947 342.143 396.481 341.589 396.172 340.874C395.868 340.158 395.715 339.32 395.715 338.36C395.715 337.657 395.813 337.014 396.007 336.43C396.202 335.846 396.486 335.343 396.858 334.919C397.23 334.492 397.689 334.164 398.235 333.936C398.785 333.703 399.414 333.586 400.121 333.586C400.586 333.586 401.043 333.639 401.492 333.745C401.944 333.847 402.363 333.993 402.749 334.183L402.215 335.44C401.894 335.288 401.557 335.156 401.206 335.046C400.855 334.936 400.491 334.881 400.114 334.881ZM410.467 339.471C410.467 340.055 410.391 340.573 410.239 341.026C410.086 341.479 409.864 341.862 409.572 342.175C409.28 342.484 408.929 342.721 408.519 342.886C408.108 343.047 407.645 343.127 407.128 343.127C406.646 343.127 406.204 343.047 405.802 342.886C405.4 342.721 405.051 342.484 404.754 342.175C404.462 341.862 404.236 341.479 404.075 341.026C403.914 340.573 403.834 340.055 403.834 339.471C403.834 338.696 403.967 338.04 404.234 337.503C404.505 336.961 404.89 336.549 405.389 336.265C405.889 335.982 406.483 335.84 407.173 335.84C407.82 335.84 408.392 335.982 408.887 336.265C409.382 336.549 409.769 336.961 410.048 337.503C410.328 338.045 410.467 338.701 410.467 339.471ZM405.37 339.471C405.37 339.983 405.431 340.421 405.554 340.785C405.681 341.149 405.876 341.428 406.138 341.623C406.401 341.813 406.739 341.908 407.154 341.908C407.569 341.908 407.907 341.813 408.169 341.623C408.432 341.428 408.624 341.149 408.747 340.785C408.87 340.421 408.931 339.983 408.931 339.471C408.931 338.959 408.87 338.525 408.747 338.169C408.624 337.81 408.432 337.537 408.169 337.351C407.907 337.16 407.566 337.065 407.147 337.065C406.53 337.065 406.079 337.272 405.795 337.687C405.512 338.102 405.37 338.696 405.37 339.471ZM415.844 335.84C416.635 335.84 417.251 336.045 417.691 336.456C418.135 336.862 418.357 337.516 418.357 338.417V343H416.866V338.696C416.866 338.15 416.754 337.742 416.529 337.471C416.305 337.196 415.958 337.059 415.488 337.059C414.807 337.059 414.333 337.268 414.066 337.687C413.804 338.106 413.673 338.713 413.673 339.509V343H412.181V335.973H413.343L413.552 336.925H413.635C413.787 336.68 413.975 336.479 414.2 336.322C414.428 336.161 414.682 336.041 414.961 335.96C415.245 335.88 415.539 335.84 415.844 335.84ZM423.061 341.921C423.256 341.921 423.448 341.904 423.639 341.87C423.829 341.832 424.003 341.788 424.159 341.737V342.867C423.994 342.939 423.78 343 423.518 343.051C423.256 343.102 422.983 343.127 422.699 343.127C422.301 343.127 421.944 343.061 421.626 342.93C421.309 342.795 421.057 342.564 420.871 342.238C420.685 341.912 420.592 341.462 420.592 340.886V337.109H419.633V336.443L420.662 335.916L421.15 334.412H422.09V335.973H424.102V337.109H422.09V340.867C422.09 341.223 422.179 341.487 422.356 341.661C422.534 341.834 422.769 341.921 423.061 341.921ZM428.342 335.84C429.231 335.84 429.902 336.037 430.354 336.43C430.812 336.824 431.04 337.437 431.04 338.271V343H429.98L429.694 342.003H429.644C429.445 342.257 429.239 342.467 429.028 342.632C428.816 342.797 428.571 342.92 428.292 343C428.016 343.085 427.68 343.127 427.282 343.127C426.863 343.127 426.489 343.051 426.159 342.898C425.829 342.742 425.568 342.505 425.378 342.188C425.188 341.87 425.092 341.468 425.092 340.981C425.092 340.258 425.361 339.714 425.898 339.35C426.44 338.986 427.257 338.785 428.349 338.747L429.567 338.703V338.334C429.567 337.848 429.453 337.501 429.225 337.293C429 337.086 428.683 336.982 428.272 336.982C427.921 336.982 427.581 337.033 427.25 337.135C426.92 337.236 426.599 337.361 426.286 337.509L425.803 336.456C426.146 336.274 426.535 336.125 426.971 336.011C427.411 335.897 427.868 335.84 428.342 335.84ZM429.561 339.642L428.653 339.674C427.909 339.699 427.386 339.826 427.085 340.055C426.785 340.283 426.635 340.596 426.635 340.994C426.635 341.341 426.738 341.595 426.946 341.756C427.153 341.912 427.426 341.991 427.765 341.991C428.281 341.991 428.708 341.845 429.047 341.553C429.39 341.257 429.561 340.823 429.561 340.251V339.642ZM434.62 335.973V343H433.128V335.973H434.62ZM433.884 333.282C434.112 333.282 434.309 333.343 434.474 333.466C434.643 333.589 434.728 333.8 434.728 334.101C434.728 334.397 434.643 334.608 434.474 334.735C434.309 334.858 434.112 334.919 433.884 334.919C433.647 334.919 433.446 334.858 433.281 334.735C433.12 334.608 433.04 334.397 433.04 334.101C433.04 333.8 433.12 333.589 433.281 333.466C433.446 333.343 433.647 333.282 433.884 333.282ZM440.422 335.84C441.213 335.84 441.829 336.045 442.269 336.456C442.713 336.862 442.936 337.516 442.936 338.417V343H441.444V338.696C441.444 338.15 441.332 337.742 441.107 337.471C440.883 337.196 440.536 337.059 440.066 337.059C439.385 337.059 438.911 337.268 438.645 337.687C438.382 338.106 438.251 338.713 438.251 339.509V343H436.759V335.973H437.921L438.13 336.925H438.213C438.365 336.68 438.554 336.479 438.778 336.322C439.006 336.161 439.26 336.041 439.54 335.96C439.823 335.88 440.117 335.84 440.422 335.84ZM447.823 335.84C448.45 335.84 448.987 335.969 449.436 336.227C449.884 336.485 450.229 336.851 450.47 337.325C450.711 337.799 450.832 338.366 450.832 339.026V339.826H446.141C446.158 340.507 446.34 341.032 446.687 341.4C447.038 341.769 447.529 341.953 448.16 341.953C448.608 341.953 449.01 341.91 449.366 341.826C449.725 341.737 450.096 341.608 450.477 341.438V342.651C450.125 342.816 449.768 342.937 449.404 343.013C449.04 343.089 448.604 343.127 448.096 343.127C447.406 343.127 446.799 342.994 446.274 342.727C445.754 342.456 445.346 342.054 445.049 341.521C444.757 340.988 444.611 340.326 444.611 339.534C444.611 338.747 444.745 338.078 445.011 337.528C445.278 336.978 445.652 336.559 446.135 336.271C446.617 335.984 447.18 335.84 447.823 335.84ZM447.823 336.963C447.354 336.963 446.973 337.116 446.681 337.42C446.393 337.725 446.224 338.172 446.173 338.76H449.372C449.368 338.409 449.309 338.097 449.194 337.827C449.084 337.556 448.915 337.344 448.687 337.192C448.462 337.04 448.174 336.963 447.823 336.963ZM456.075 335.84C456.194 335.84 456.323 335.846 456.462 335.859C456.602 335.872 456.723 335.889 456.824 335.91L456.685 337.306C456.596 337.281 456.486 337.262 456.354 337.249C456.228 337.236 456.113 337.23 456.012 337.23C455.745 337.23 455.491 337.274 455.25 337.363C455.009 337.448 454.795 337.579 454.609 337.757C454.423 337.93 454.277 338.148 454.171 338.411C454.065 338.673 454.012 338.978 454.012 339.325V343H452.514V335.973H453.682L453.885 337.211H453.955C454.095 336.961 454.268 336.733 454.476 336.525C454.683 336.318 454.92 336.153 455.187 336.03C455.457 335.903 455.754 335.84 456.075 335.84Z" fill="#FF5C00"/>
<rect x="714" y="338" width="226" height="103" rx="8" fill="#020202"/>
<rect x="715" y="339" width="224" height="101" rx="7" stroke="white" stroke-opacity="0.9" stroke-width="2"/>
<path d="M797.726 397.5V382.509H800.186V395.408H806.554V397.5H797.726ZM819.161 391.799C819.161 392.742 819.038 393.58 818.792 394.311C818.546 395.042 818.187 395.661 817.715 396.167C817.244 396.666 816.676 397.049 816.013 397.315C815.35 397.575 814.602 397.705 813.768 397.705C812.988 397.705 812.274 397.575 811.624 397.315C810.975 397.049 810.411 396.666 809.933 396.167C809.461 395.661 809.095 395.042 808.835 394.311C808.576 393.58 808.446 392.742 808.446 391.799C808.446 390.548 808.661 389.488 809.092 388.62C809.529 387.745 810.151 387.079 810.958 386.621C811.765 386.163 812.725 385.934 813.839 385.934C814.885 385.934 815.808 386.163 816.608 386.621C817.408 387.079 818.033 387.745 818.484 388.62C818.936 389.495 819.161 390.555 819.161 391.799ZM810.927 391.799C810.927 392.626 811.026 393.333 811.225 393.921C811.43 394.509 811.744 394.96 812.168 395.275C812.592 395.583 813.139 395.736 813.809 395.736C814.478 395.736 815.025 395.583 815.449 395.275C815.873 394.96 816.184 394.509 816.382 393.921C816.581 393.333 816.68 392.626 816.68 391.799C816.68 390.972 816.581 390.271 816.382 389.697C816.184 389.116 815.873 388.675 815.449 388.374C815.025 388.066 814.475 387.913 813.798 387.913C812.8 387.913 812.072 388.248 811.614 388.917C811.156 389.587 810.927 390.548 810.927 391.799ZM824.549 381.545V385.39C824.549 385.834 824.536 386.272 824.508 386.703C824.488 387.126 824.467 387.458 824.447 387.697H824.549C824.857 387.205 825.284 386.792 825.831 386.457C826.385 386.115 827.092 385.944 827.954 385.944C829.3 385.944 830.384 386.439 831.204 387.431C832.024 388.415 832.435 389.875 832.435 391.809C832.435 393.094 832.247 394.174 831.871 395.049C831.495 395.924 830.965 396.587 830.281 397.039C829.604 397.483 828.808 397.705 827.892 397.705C827.031 397.705 826.333 397.548 825.8 397.233C825.274 396.912 824.86 396.54 824.56 396.116H824.385L823.944 397.5H822.14V381.545H824.549ZM827.318 387.902C826.634 387.902 826.091 388.039 825.688 388.312C825.291 388.586 825.004 388.996 824.826 389.543C824.648 390.083 824.556 390.77 824.549 391.604V391.819C824.549 393.084 824.748 394.051 825.144 394.721C825.547 395.391 826.279 395.726 827.338 395.726C828.179 395.726 828.825 395.388 829.276 394.711C829.728 394.027 829.953 393.05 829.953 391.778C829.953 390.493 829.728 389.526 829.276 388.876C828.832 388.227 828.179 387.902 827.318 387.902ZM837.843 381.545V385.39C837.843 385.834 837.83 386.272 837.802 386.703C837.782 387.126 837.761 387.458 837.741 387.697H837.843C838.151 387.205 838.578 386.792 839.125 386.457C839.679 386.115 840.386 385.944 841.248 385.944C842.594 385.944 843.678 386.439 844.498 387.431C845.318 388.415 845.729 389.875 845.729 391.809C845.729 393.094 845.541 394.174 845.165 395.049C844.789 395.924 844.259 396.587 843.575 397.039C842.898 397.483 842.102 397.705 841.186 397.705C840.325 397.705 839.627 397.548 839.094 397.233C838.568 396.912 838.154 396.54 837.854 396.116H837.679L837.238 397.5H835.434V381.545H837.843ZM840.612 387.902C839.928 387.902 839.385 388.039 838.981 388.312C838.585 388.586 838.298 388.996 838.12 389.543C837.942 390.083 837.85 390.77 837.843 391.604V391.819C837.843 393.084 838.042 394.051 838.438 394.721C838.841 395.391 839.573 395.726 840.632 395.726C841.473 395.726 842.119 395.388 842.57 394.711C843.022 394.027 843.247 393.05 843.247 391.778C843.247 390.493 843.022 389.526 842.57 388.876C842.126 388.227 841.473 387.902 840.612 387.902ZM847.015 386.149H849.64L851.968 392.629C852.07 392.923 852.163 393.214 852.245 393.501C852.334 393.781 852.409 394.058 852.47 394.332C852.539 394.605 852.593 394.878 852.634 395.152H852.696C852.764 394.796 852.86 394.4 852.983 393.962C853.113 393.518 853.256 393.074 853.414 392.629L855.649 386.149H858.243L853.373 399.059C853.092 399.797 852.747 400.426 852.337 400.945C851.934 401.472 851.455 401.868 850.901 402.135C850.348 402.408 849.715 402.545 849.004 402.545C848.663 402.545 848.365 402.524 848.112 402.483C847.859 402.449 847.644 402.412 847.466 402.371V400.443C847.61 400.477 847.791 400.508 848.01 400.535C848.229 400.562 848.454 400.576 848.687 400.576C849.117 400.576 849.49 400.491 849.804 400.32C850.119 400.149 850.385 399.906 850.604 399.592C850.823 399.284 851.004 398.932 851.148 398.536L851.547 397.469L847.015 386.149Z" fill="white"/>
<rect width="106" height="18" transform="translate(773.5 329)" fill="#020202"/>
<path d="M785.75 331.714C785.441 331.714 785.188 331.971 785.188 332.286V334.571C785.188 334.886 785.441 335.143 785.75 335.143H799.25C799.559 335.143 799.812 334.886 799.812 334.571V332.286C799.812 331.971 799.559 331.714 799.25 331.714H785.75ZM783.5 332.286C783.5 331.025 784.509 330 785.75 330H799.25C800.491 330 801.5 331.025 801.5 332.286V334.571C801.5 335.832 800.491 336.857 799.25 336.857H785.75C784.509 336.857 783.5 335.832 783.5 334.571V332.286ZM785.75 340.857C785.441 340.857 785.188 341.114 785.188 341.429V343.714C785.188 344.029 785.441 344.286 785.75 344.286H799.25C799.559 344.286 799.812 344.029 799.812 343.714V341.429C799.812 341.114 799.559 340.857 799.25 340.857H785.75ZM783.5 341.429C783.5 340.168 784.509 339.143 785.75 339.143H799.25C800.491 339.143 801.5 340.168 801.5 341.429V343.714C801.5 344.975 800.491 346 799.25 346H785.75C784.509 346 783.5 344.975 783.5 343.714V341.429ZM797.281 342.571C797.281 342.344 797.37 342.126 797.528 341.965C797.687 341.805 797.901 341.714 798.125 341.714C798.349 341.714 798.563 341.805 798.722 341.965C798.88 342.126 798.969 342.344 798.969 342.571C798.969 342.799 798.88 343.017 798.722 343.178C798.563 343.338 798.349 343.429 798.125 343.429C797.901 343.429 797.687 343.338 797.528 343.178C797.37 343.017 797.281 342.799 797.281 342.571ZM798.125 332.571C798.349 332.571 798.563 332.662 798.722 332.822C798.88 332.983 798.969 333.201 798.969 333.429C798.969 333.656 798.88 333.874 798.722 334.035C798.563 334.195 798.349 334.286 798.125 334.286C797.901 334.286 797.687 334.195 797.528 334.035C797.37 333.874 797.281 333.656 797.281 333.429C797.281 333.201 797.37 332.983 797.528 332.822C797.687 332.662 797.901 332.571 798.125 332.571ZM795.031 342.571C795.031 342.344 795.12 342.126 795.278 341.965C795.437 341.805 795.651 341.714 795.875 341.714C796.099 341.714 796.313 341.805 796.472 341.965C796.63 342.126 796.719 342.344 796.719 342.571C796.719 342.799 796.63 343.017 796.472 343.178C796.313 343.338 796.099 343.429 795.875 343.429C795.651 343.429 795.437 343.338 795.278 343.178C795.12 343.017 795.031 342.799 795.031 342.571ZM795.875 332.571C796.099 332.571 796.313 332.662 796.472 332.822C796.63 332.983 796.719 333.201 796.719 333.429C796.719 333.656 796.63 333.874 796.472 334.035C796.313 334.195 796.099 334.286 795.875 334.286C795.651 334.286 795.437 334.195 795.278 334.035C795.12 333.874 795.031 333.656 795.031 333.429C795.031 333.201 795.12 332.983 795.278 332.822C795.437 332.662 795.651 332.571 795.875 332.571Z" fill="#FF5C00"/>
<path d="M812.114 334.881C811.67 334.881 811.272 334.962 810.921 335.123C810.574 335.283 810.28 335.516 810.039 335.821C809.797 336.121 809.613 336.487 809.486 336.919C809.359 337.346 809.296 337.829 809.296 338.366C809.296 339.086 809.397 339.706 809.601 340.226C809.804 340.742 810.113 341.14 810.527 341.419C810.942 341.694 811.467 341.832 812.102 341.832C812.495 341.832 812.878 341.794 813.25 341.718C813.623 341.642 814.008 341.538 814.406 341.407V342.702C814.029 342.85 813.648 342.958 813.263 343.025C812.878 343.093 812.434 343.127 811.93 343.127C810.982 343.127 810.195 342.93 809.569 342.537C808.947 342.143 808.481 341.589 808.172 340.874C807.868 340.158 807.715 339.32 807.715 338.36C807.715 337.657 807.813 337.014 808.007 336.43C808.202 335.846 808.486 335.343 808.858 334.919C809.23 334.492 809.689 334.164 810.235 333.936C810.785 333.703 811.414 333.586 812.121 333.586C812.586 333.586 813.043 333.639 813.492 333.745C813.944 333.847 814.363 333.993 814.749 334.183L814.215 335.44C813.894 335.288 813.557 335.156 813.206 335.046C812.855 334.936 812.491 334.881 812.114 334.881ZM822.467 339.471C822.467 340.055 822.391 340.573 822.239 341.026C822.086 341.479 821.864 341.862 821.572 342.175C821.28 342.484 820.929 342.721 820.519 342.886C820.108 343.047 819.645 343.127 819.128 343.127C818.646 343.127 818.204 343.047 817.802 342.886C817.4 342.721 817.051 342.484 816.754 342.175C816.462 341.862 816.236 341.479 816.075 341.026C815.914 340.573 815.834 340.055 815.834 339.471C815.834 338.696 815.967 338.04 816.234 337.503C816.505 336.961 816.89 336.549 817.389 336.265C817.889 335.982 818.483 335.84 819.173 335.84C819.82 335.84 820.392 335.982 820.887 336.265C821.382 336.549 821.769 336.961 822.048 337.503C822.328 338.045 822.467 338.701 822.467 339.471ZM817.37 339.471C817.37 339.983 817.431 340.421 817.554 340.785C817.681 341.149 817.876 341.428 818.138 341.623C818.401 341.813 818.739 341.908 819.154 341.908C819.569 341.908 819.907 341.813 820.169 341.623C820.432 341.428 820.624 341.149 820.747 340.785C820.87 340.421 820.931 339.983 820.931 339.471C820.931 338.959 820.87 338.525 820.747 338.169C820.624 337.81 820.432 337.537 820.169 337.351C819.907 337.16 819.566 337.065 819.147 337.065C818.53 337.065 818.079 337.272 817.795 337.687C817.512 338.102 817.37 338.696 817.37 339.471ZM827.844 335.84C828.635 335.84 829.251 336.045 829.691 336.456C830.135 336.862 830.357 337.516 830.357 338.417V343H828.866V338.696C828.866 338.15 828.754 337.742 828.529 337.471C828.305 337.196 827.958 337.059 827.488 337.059C826.807 337.059 826.333 337.268 826.066 337.687C825.804 338.106 825.673 338.713 825.673 339.509V343H824.181V335.973H825.343L825.552 336.925H825.635C825.787 336.68 825.975 336.479 826.2 336.322C826.428 336.161 826.682 336.041 826.961 335.96C827.245 335.88 827.539 335.84 827.844 335.84ZM835.061 341.921C835.256 341.921 835.448 341.904 835.639 341.87C835.829 341.832 836.003 341.788 836.159 341.737V342.867C835.994 342.939 835.78 343 835.518 343.051C835.256 343.102 834.983 343.127 834.699 343.127C834.301 343.127 833.944 343.061 833.626 342.93C833.309 342.795 833.057 342.564 832.871 342.238C832.685 341.912 832.592 341.462 832.592 340.886V337.109H831.633V336.443L832.662 335.916L833.15 334.412H834.09V335.973H836.102V337.109H834.09V340.867C834.09 341.223 834.179 341.487 834.356 341.661C834.534 341.834 834.769 341.921 835.061 341.921ZM840.342 335.84C841.231 335.84 841.902 336.037 842.354 336.43C842.812 336.824 843.04 337.437 843.04 338.271V343H841.98L841.694 342.003H841.644C841.445 342.257 841.239 342.467 841.028 342.632C840.816 342.797 840.571 342.92 840.292 343C840.016 343.085 839.68 343.127 839.282 343.127C838.863 343.127 838.489 343.051 838.159 342.898C837.829 342.742 837.568 342.505 837.378 342.188C837.188 341.87 837.092 341.468 837.092 340.981C837.092 340.258 837.361 339.714 837.898 339.35C838.44 338.986 839.257 338.785 840.349 338.747L841.567 338.703V338.334C841.567 337.848 841.453 337.501 841.225 337.293C841 337.086 840.683 336.982 840.272 336.982C839.921 336.982 839.581 337.033 839.25 337.135C838.92 337.236 838.599 337.361 838.286 337.509L837.803 336.456C838.146 336.274 838.535 336.125 838.971 336.011C839.411 335.897 839.868 335.84 840.342 335.84ZM841.561 339.642L840.653 339.674C839.909 339.699 839.386 339.826 839.085 340.055C838.785 340.283 838.635 340.596 838.635 340.994C838.635 341.341 838.738 341.595 838.946 341.756C839.153 341.912 839.426 341.991 839.765 341.991C840.281 341.991 840.708 341.845 841.047 341.553C841.39 341.257 841.561 340.823 841.561 340.251V339.642ZM846.62 335.973V343H845.128V335.973H846.62ZM845.884 333.282C846.112 333.282 846.309 333.343 846.474 333.466C846.643 333.589 846.728 333.8 846.728 334.101C846.728 334.397 846.643 334.608 846.474 334.735C846.309 334.858 846.112 334.919 845.884 334.919C845.647 334.919 845.446 334.858 845.281 334.735C845.12 334.608 845.04 334.397 845.04 334.101C845.04 333.8 845.12 333.589 845.281 333.466C845.446 333.343 845.647 333.282 845.884 333.282ZM852.422 335.84C853.213 335.84 853.829 336.045 854.269 336.456C854.713 336.862 854.936 337.516 854.936 338.417V343H853.444V338.696C853.444 338.15 853.332 337.742 853.107 337.471C852.883 337.196 852.536 337.059 852.066 337.059C851.385 337.059 850.911 337.268 850.645 337.687C850.382 338.106 850.251 338.713 850.251 339.509V343H848.759V335.973H849.921L850.13 336.925H850.213C850.365 336.68 850.554 336.479 850.778 336.322C851.006 336.161 851.26 336.041 851.54 335.96C851.823 335.88 852.117 335.84 852.422 335.84ZM859.823 335.84C860.45 335.84 860.987 335.969 861.436 336.227C861.884 336.485 862.229 336.851 862.47 337.325C862.711 337.799 862.832 338.366 862.832 339.026V339.826H858.141C858.158 340.507 858.34 341.032 858.687 341.4C859.038 341.769 859.529 341.953 860.16 341.953C860.608 341.953 861.01 341.91 861.366 341.826C861.725 341.737 862.096 341.608 862.477 341.438V342.651C862.125 342.816 861.768 342.937 861.404 343.013C861.04 343.089 860.604 343.127 860.096 343.127C859.406 343.127 858.799 342.994 858.274 342.727C857.754 342.456 857.346 342.054 857.049 341.521C856.757 340.988 856.611 340.326 856.611 339.534C856.611 338.747 856.745 338.078 857.011 337.528C857.278 336.978 857.652 336.559 858.135 336.271C858.617 335.984 859.18 335.84 859.823 335.84ZM859.823 336.963C859.354 336.963 858.973 337.116 858.681 337.42C858.393 337.725 858.224 338.172 858.173 338.76H861.372C861.368 338.409 861.309 338.097 861.194 337.827C861.084 337.556 860.915 337.344 860.687 337.192C860.462 337.04 860.174 336.963 859.823 336.963ZM868.075 335.84C868.194 335.84 868.323 335.846 868.462 335.859C868.602 335.872 868.723 335.889 868.824 335.91L868.685 337.306C868.596 337.281 868.486 337.262 868.354 337.249C868.228 337.236 868.113 337.23 868.012 337.23C867.745 337.23 867.491 337.274 867.25 337.363C867.009 337.448 866.795 337.579 866.609 337.757C866.423 337.93 866.277 338.148 866.171 338.411C866.065 338.673 866.012 338.978 866.012 339.325V343H864.514V335.973H865.682L865.885 337.211H865.955C866.095 336.961 866.268 336.733 866.476 336.525C866.683 336.318 866.92 336.153 867.187 336.03C867.457 335.903 867.754 335.84 868.075 335.84Z" fill="#FF5C00"/>
<path d="M516.021 265.203C516.133 265.744 516.662 266.091 517.203 265.979L526.016 264.152C526.556 264.04 526.904 263.51 526.792 262.969C526.68 262.429 526.15 262.081 525.609 262.193L517.776 263.818L516.152 255.984C516.04 255.444 515.51 255.096 514.969 255.208C514.429 255.32 514.081 255.85 514.193 256.391L516.021 265.203ZM603 134L602.164 133.451L516.164 264.451L517 265L517.836 265.549L603.836 134.549L603 134Z" fill="white"/>
<rect width="153" height="64" transform="translate(484 165)" fill="#020202"/>
<path d="M536.358 188.919C536.358 189.808 536.139 190.573 535.702 191.216C535.271 191.858 534.649 192.351 533.835 192.692C533.029 193.034 532.065 193.205 530.944 193.205C530.397 193.205 529.874 193.174 529.375 193.113C528.876 193.051 528.404 192.962 527.96 192.846C527.522 192.723 527.122 192.576 526.76 192.405V190.088C527.369 190.354 528.049 190.597 528.801 190.816C529.553 191.028 530.318 191.134 531.098 191.134C531.733 191.134 532.26 191.052 532.677 190.888C533.1 190.717 533.415 190.478 533.62 190.17C533.825 189.855 533.928 189.49 533.928 189.073C533.928 188.628 533.808 188.252 533.569 187.945C533.329 187.637 532.967 187.357 532.482 187.104C532.003 186.844 531.402 186.567 530.677 186.273C530.185 186.075 529.713 185.85 529.262 185.597C528.818 185.344 528.421 185.046 528.073 184.705C527.724 184.363 527.447 183.959 527.242 183.495C527.044 183.023 526.945 182.469 526.945 181.833C526.945 180.986 527.146 180.261 527.55 179.66C527.96 179.058 528.534 178.597 529.272 178.275C530.017 177.954 530.886 177.793 531.877 177.793C532.663 177.793 533.401 177.875 534.092 178.04C534.789 178.204 535.473 178.436 536.142 178.737L535.363 180.716C534.748 180.463 534.15 180.261 533.569 180.111C532.995 179.96 532.407 179.885 531.805 179.885C531.286 179.885 530.845 179.964 530.482 180.121C530.12 180.278 529.843 180.5 529.652 180.788C529.467 181.068 529.375 181.403 529.375 181.792C529.375 182.23 529.481 182.599 529.693 182.9C529.912 183.194 530.246 183.464 530.698 183.71C531.156 183.956 531.744 184.229 532.461 184.53C533.288 184.872 533.989 185.231 534.563 185.607C535.144 185.983 535.589 186.434 535.896 186.96C536.204 187.48 536.358 188.133 536.358 188.919ZM543.438 191.257C543.752 191.257 544.063 191.229 544.371 191.175C544.679 191.113 544.959 191.042 545.212 190.959V192.785C544.945 192.901 544.6 193 544.176 193.082C543.752 193.164 543.311 193.205 542.853 193.205C542.211 193.205 541.633 193.099 541.121 192.887C540.608 192.668 540.201 192.296 539.9 191.77C539.6 191.243 539.449 190.515 539.449 189.585V183.484H537.901V182.408L539.562 181.557L540.351 179.126H541.869V181.649H545.12V183.484H541.869V189.555C541.869 190.129 542.013 190.556 542.3 190.836C542.587 191.117 542.966 191.257 543.438 191.257ZM552.251 181.434C553.263 181.434 554.131 181.642 554.855 182.059C555.58 182.476 556.137 183.067 556.527 183.833C556.916 184.599 557.111 185.515 557.111 186.581V187.873H549.534C549.561 188.974 549.855 189.821 550.415 190.416C550.983 191.011 551.776 191.308 552.794 191.308C553.519 191.308 554.168 191.24 554.743 191.103C555.324 190.959 555.922 190.751 556.537 190.478V192.436C555.97 192.703 555.392 192.897 554.804 193.021C554.216 193.144 553.512 193.205 552.692 193.205C551.578 193.205 550.597 192.99 549.749 192.559C548.908 192.122 548.248 191.472 547.77 190.611C547.298 189.75 547.062 188.68 547.062 187.401C547.062 186.13 547.278 185.05 547.708 184.161C548.139 183.272 548.744 182.596 549.523 182.131C550.303 181.666 551.212 181.434 552.251 181.434ZM552.251 183.249C551.492 183.249 550.877 183.495 550.405 183.987C549.94 184.479 549.667 185.2 549.585 186.15H554.753C554.746 185.583 554.65 185.081 554.466 184.643C554.288 184.206 554.015 183.864 553.645 183.618C553.283 183.372 552.818 183.249 552.251 183.249ZM565.863 181.434C567.209 181.434 568.29 181.926 569.103 182.91C569.923 183.895 570.333 185.357 570.333 187.299C570.333 188.584 570.142 189.667 569.759 190.549C569.383 191.424 568.854 192.087 568.17 192.539C567.493 192.983 566.704 193.205 565.801 193.205C565.227 193.205 564.728 193.13 564.304 192.979C563.88 192.829 563.518 192.634 563.217 192.395C562.917 192.149 562.664 191.882 562.458 191.595H562.315C562.349 191.869 562.38 192.173 562.407 192.508C562.441 192.836 562.458 193.137 562.458 193.41V198.035H560.039V181.649H562.007L562.346 183.218H562.458C562.67 182.896 562.927 182.599 563.228 182.326C563.535 182.052 563.904 181.837 564.335 181.68C564.772 181.516 565.282 181.434 565.863 181.434ZM565.217 183.402C564.554 183.402 564.021 183.536 563.617 183.802C563.221 184.062 562.93 184.455 562.746 184.981C562.568 185.508 562.472 186.167 562.458 186.96V187.299C562.458 188.14 562.544 188.854 562.715 189.442C562.893 190.023 563.183 190.467 563.586 190.775C563.997 191.076 564.55 191.226 565.248 191.226C565.835 191.226 566.321 191.065 566.704 190.744C567.093 190.423 567.384 189.965 567.575 189.37C567.767 188.775 567.862 188.075 567.862 187.268C567.862 186.044 567.644 185.094 567.206 184.417C566.775 183.741 566.112 183.402 565.217 183.402ZM588.37 193H578.218V191.185L582.105 187.248C582.857 186.482 583.475 185.822 583.961 185.269C584.446 184.708 584.805 184.178 585.037 183.679C585.276 183.18 585.396 182.637 585.396 182.049C585.396 181.324 585.188 180.777 584.771 180.408C584.354 180.032 583.803 179.844 583.12 179.844C582.47 179.844 581.869 179.974 581.315 180.234C580.768 180.487 580.201 180.849 579.613 181.321L578.29 179.731C578.707 179.376 579.151 179.051 579.623 178.757C580.102 178.463 580.635 178.231 581.223 178.06C581.811 177.882 582.481 177.793 583.232 177.793C584.183 177.793 585.003 177.964 585.693 178.306C586.384 178.641 586.914 179.109 587.283 179.711C587.659 180.312 587.847 181.013 587.847 181.813C587.847 182.62 587.686 183.365 587.365 184.048C587.044 184.732 586.586 185.409 585.991 186.079C585.396 186.742 584.689 187.463 583.868 188.242L581.274 190.775V190.888H588.37V193ZM590.877 191.729C590.877 191.168 591.02 190.775 591.307 190.549C591.601 190.317 591.957 190.201 592.374 190.201C592.791 190.201 593.146 190.317 593.44 190.549C593.741 190.775 593.891 191.168 593.891 191.729C593.891 192.275 593.741 192.672 593.44 192.918C593.146 193.157 592.791 193.277 592.374 193.277C591.957 193.277 591.601 193.157 591.307 192.918C591.02 192.672 590.877 192.275 590.877 191.729ZM590.877 182.951C590.877 182.384 591.02 181.984 591.307 181.751C591.601 181.519 591.957 181.403 592.374 181.403C592.791 181.403 593.146 181.519 593.44 181.751C593.741 181.984 593.891 182.384 593.891 182.951C593.891 183.491 593.741 183.884 593.44 184.13C593.146 184.37 592.791 184.489 592.374 184.489C591.957 184.489 591.601 184.37 591.307 184.13C591.02 183.884 590.877 183.491 590.877 182.951ZM500.621 203.885C499.903 203.885 499.261 204.015 498.693 204.275C498.133 204.535 497.658 204.911 497.268 205.403C496.878 205.888 496.581 206.479 496.376 207.177C496.171 207.867 496.068 208.646 496.068 209.515C496.068 210.677 496.232 211.678 496.56 212.519C496.888 213.353 497.387 213.996 498.057 214.447C498.727 214.891 499.575 215.113 500.6 215.113C501.236 215.113 501.855 215.052 502.456 214.929C503.058 214.806 503.68 214.638 504.323 214.426V216.518C503.714 216.757 503.099 216.932 502.477 217.041C501.855 217.15 501.137 217.205 500.324 217.205C498.792 217.205 497.521 216.887 496.509 216.251C495.504 215.616 494.752 214.72 494.253 213.565C493.761 212.41 493.515 211.056 493.515 209.504C493.515 208.37 493.672 207.331 493.987 206.387C494.301 205.444 494.759 204.63 495.361 203.947C495.962 203.256 496.704 202.727 497.586 202.357C498.474 201.981 499.49 201.793 500.631 201.793C501.383 201.793 502.121 201.879 502.846 202.05C503.577 202.214 504.254 202.45 504.876 202.757L504.015 204.788C503.495 204.542 502.952 204.33 502.385 204.152C501.817 203.974 501.229 203.885 500.621 203.885ZM513.259 205.434C513.45 205.434 513.659 205.444 513.884 205.464C514.11 205.485 514.305 205.512 514.469 205.546L514.243 207.802C514.099 207.761 513.922 207.73 513.71 207.71C513.505 207.689 513.32 207.679 513.156 207.679C512.725 207.679 512.315 207.751 511.926 207.895C511.536 208.031 511.191 208.243 510.89 208.53C510.589 208.811 510.353 209.163 510.182 209.586C510.012 210.01 509.926 210.502 509.926 211.063V217H507.506V205.649H509.393L509.721 207.648H509.834C510.059 207.245 510.34 206.876 510.675 206.541C511.01 206.206 511.392 205.939 511.823 205.741C512.261 205.536 512.739 205.434 513.259 205.434ZM521.303 205.434C522.314 205.434 523.182 205.642 523.907 206.059C524.632 206.476 525.189 207.067 525.578 207.833C525.968 208.599 526.163 209.515 526.163 210.581V211.873H518.585C518.613 212.974 518.907 213.821 519.467 214.416C520.035 215.011 520.828 215.308 521.846 215.308C522.571 215.308 523.22 215.24 523.794 215.103C524.375 214.959 524.973 214.751 525.589 214.478V216.436C525.021 216.703 524.444 216.897 523.856 217.021C523.268 217.144 522.564 217.205 521.744 217.205C520.629 217.205 519.648 216.99 518.801 216.559C517.96 216.122 517.3 215.472 516.822 214.611C516.35 213.75 516.114 212.68 516.114 211.401C516.114 210.13 516.329 209.05 516.76 208.161C517.191 207.272 517.796 206.596 518.575 206.131C519.354 205.666 520.264 205.434 521.303 205.434ZM521.303 207.249C520.544 207.249 519.929 207.495 519.457 207.987C518.992 208.479 518.719 209.2 518.637 210.15H523.805C523.798 209.583 523.702 209.081 523.517 208.643C523.34 208.206 523.066 207.864 522.697 207.618C522.335 207.372 521.87 207.249 521.303 207.249ZM533.54 205.434C534.976 205.434 536.059 205.751 536.791 206.387C537.529 207.023 537.898 208.014 537.898 209.361V217H536.186L535.725 215.39H535.642C535.321 215.8 534.99 216.139 534.648 216.405C534.306 216.672 533.91 216.87 533.458 217C533.014 217.137 532.471 217.205 531.828 217.205C531.151 217.205 530.546 217.082 530.013 216.836C529.48 216.583 529.059 216.2 528.752 215.688C528.444 215.175 528.29 214.525 528.29 213.739C528.29 212.57 528.725 211.692 529.593 211.104C530.468 210.516 531.787 210.191 533.551 210.13L535.519 210.058V209.463C535.519 208.677 535.335 208.117 534.966 207.782C534.603 207.447 534.091 207.279 533.428 207.279C532.86 207.279 532.31 207.361 531.777 207.525C531.244 207.689 530.724 207.891 530.218 208.13L529.439 206.428C529.993 206.134 530.621 205.895 531.326 205.71C532.037 205.526 532.775 205.434 533.54 205.434ZM535.509 211.576L534.043 211.627C532.84 211.668 531.996 211.873 531.51 212.242C531.025 212.611 530.782 213.117 530.782 213.76C530.782 214.32 530.95 214.73 531.285 214.99C531.62 215.243 532.06 215.37 532.607 215.37C533.441 215.37 534.132 215.134 534.679 214.662C535.232 214.184 535.509 213.483 535.509 212.56V211.576ZM545.706 215.257C546.021 215.257 546.332 215.229 546.64 215.175C546.947 215.113 547.227 215.042 547.48 214.959V216.785C547.214 216.901 546.869 217 546.445 217.082C546.021 217.164 545.58 217.205 545.122 217.205C544.479 217.205 543.902 217.099 543.389 216.887C542.876 216.668 542.47 216.296 542.169 215.77C541.868 215.243 541.718 214.515 541.718 213.585V207.484H540.169V206.408L541.831 205.557L542.62 203.126H544.138V205.649H547.388V207.484H544.138V213.555C544.138 214.129 544.281 214.556 544.568 214.836C544.855 215.117 545.235 215.257 545.706 215.257ZM554.52 205.434C555.531 205.434 556.399 205.642 557.124 206.059C557.849 206.476 558.406 207.067 558.795 207.833C559.185 208.599 559.38 209.515 559.38 210.581V211.873H551.802C551.83 212.974 552.124 213.821 552.684 214.416C553.251 215.011 554.044 215.308 555.063 215.308C555.788 215.308 556.437 215.24 557.011 215.103C557.592 214.959 558.19 214.751 558.806 214.478V216.436C558.238 216.703 557.661 216.897 557.073 217.021C556.485 217.144 555.781 217.205 554.96 217.205C553.846 217.205 552.865 216.99 552.018 216.559C551.177 216.122 550.517 215.472 550.039 214.611C549.567 213.75 549.331 212.68 549.331 211.401C549.331 210.13 549.546 209.05 549.977 208.161C550.408 207.272 551.013 206.596 551.792 206.131C552.571 205.666 553.48 205.434 554.52 205.434ZM554.52 207.249C553.761 207.249 553.145 207.495 552.674 207.987C552.209 208.479 551.936 209.2 551.853 210.15H557.021C557.015 209.583 556.919 209.081 556.734 208.643C556.557 208.206 556.283 207.864 555.914 207.618C555.552 207.372 555.087 207.249 554.52 207.249ZM568.218 217V202.009H570.679V214.908H577.047V217H568.218ZM589.654 211.299C589.654 212.242 589.531 213.08 589.285 213.811C589.039 214.542 588.68 215.161 588.208 215.667C587.736 216.166 587.169 216.549 586.506 216.815C585.843 217.075 585.094 217.205 584.26 217.205C583.481 217.205 582.767 217.075 582.117 216.815C581.468 216.549 580.904 216.166 580.425 215.667C579.954 215.161 579.588 214.542 579.328 213.811C579.068 213.08 578.939 212.242 578.939 211.299C578.939 210.048 579.154 208.988 579.585 208.12C580.022 207.245 580.644 206.579 581.451 206.121C582.257 205.663 583.218 205.434 584.332 205.434C585.378 205.434 586.301 205.663 587.101 206.121C587.9 206.579 588.526 207.245 588.977 208.12C589.428 208.995 589.654 210.055 589.654 211.299ZM581.42 211.299C581.42 212.126 581.519 212.833 581.717 213.421C581.922 214.009 582.237 214.46 582.661 214.775C583.085 215.083 583.631 215.236 584.301 215.236C584.971 215.236 585.518 215.083 585.942 214.775C586.366 214.46 586.677 214.009 586.875 213.421C587.073 212.833 587.172 212.126 587.172 211.299C587.172 210.472 587.073 209.771 586.875 209.197C586.677 208.616 586.366 208.175 585.942 207.874C585.518 207.566 584.968 207.413 584.291 207.413C583.293 207.413 582.565 207.748 582.107 208.417C581.649 209.087 581.42 210.048 581.42 211.299ZM595.042 201.045V204.89C595.042 205.334 595.028 205.772 595.001 206.203C594.981 206.626 594.96 206.958 594.94 207.197H595.042C595.35 206.705 595.777 206.292 596.324 205.957C596.878 205.615 597.585 205.444 598.446 205.444C599.793 205.444 600.877 205.939 601.697 206.931C602.517 207.915 602.927 209.375 602.927 211.309C602.927 212.594 602.739 213.674 602.363 214.549C601.987 215.424 601.458 216.087 600.774 216.539C600.097 216.983 599.301 217.205 598.385 217.205C597.524 217.205 596.826 217.048 596.293 216.733C595.767 216.412 595.353 216.04 595.052 215.616H594.878L594.437 217H592.632V201.045H595.042ZM597.811 207.402C597.127 207.402 596.584 207.539 596.18 207.812C595.784 208.086 595.497 208.496 595.319 209.043C595.141 209.583 595.049 210.27 595.042 211.104V211.319C595.042 212.584 595.24 213.551 595.637 214.221C596.04 214.891 596.772 215.226 597.831 215.226C598.672 215.226 599.318 214.888 599.769 214.211C600.22 213.527 600.446 212.55 600.446 211.278C600.446 209.993 600.22 209.026 599.769 208.376C599.325 207.727 598.672 207.402 597.811 207.402ZM608.336 201.045V204.89C608.336 205.334 608.322 205.772 608.295 206.203C608.275 206.626 608.254 206.958 608.234 207.197H608.336C608.644 206.705 609.071 206.292 609.618 205.957C610.172 205.615 610.879 205.444 611.74 205.444C613.087 205.444 614.171 205.939 614.991 206.931C615.811 207.915 616.221 209.375 616.221 211.309C616.221 212.594 616.033 213.674 615.657 214.549C615.281 215.424 614.752 216.087 614.068 216.539C613.391 216.983 612.595 217.205 611.679 217.205C610.818 217.205 610.12 217.048 609.587 216.733C609.061 216.412 608.647 216.04 608.346 215.616H608.172L607.731 217H605.926V201.045H608.336ZM611.105 207.402C610.421 207.402 609.878 207.539 609.474 207.812C609.078 208.086 608.791 208.496 608.613 209.043C608.435 209.583 608.343 210.27 608.336 211.104V211.319C608.336 212.584 608.534 213.551 608.931 214.221C609.334 214.891 610.066 215.226 611.125 215.226C611.966 215.226 612.612 214.888 613.063 214.211C613.514 213.527 613.74 212.55 613.74 211.278C613.74 209.993 613.514 209.026 613.063 208.376C612.619 207.727 611.966 207.402 611.105 207.402ZM617.508 205.649H620.133L622.461 212.129C622.563 212.423 622.655 212.714 622.738 213.001C622.826 213.281 622.902 213.558 622.963 213.832C623.031 214.105 623.086 214.378 623.127 214.652H623.189C623.257 214.296 623.353 213.9 623.476 213.462C623.606 213.018 623.749 212.574 623.906 212.129L626.142 205.649H628.736L623.865 218.559C623.585 219.297 623.24 219.926 622.83 220.445C622.426 220.972 621.948 221.368 621.394 221.635C620.841 221.908 620.208 222.045 619.497 222.045C619.155 222.045 618.858 222.024 618.605 221.983C618.352 221.949 618.137 221.912 617.959 221.871V219.943C618.103 219.977 618.284 220.008 618.503 220.035C618.721 220.062 618.947 220.076 619.179 220.076C619.61 220.076 619.983 219.991 620.297 219.82C620.612 219.649 620.878 219.406 621.097 219.092C621.316 218.784 621.497 218.432 621.64 218.036L622.04 216.969L617.508 205.649Z" fill="white"/>
<path d="M296.944 265.998C297.495 266.03 297.967 265.608 297.998 265.056L298.506 256.071C298.537 255.519 298.115 255.047 297.564 255.016C297.012 254.985 296.54 255.407 296.509 255.958L296.058 263.945L288.071 263.494C287.519 263.463 287.047 263.885 287.016 264.436C286.985 264.988 287.407 265.46 287.958 265.491L296.944 265.998ZM180 134L179.254 134.666L296.254 265.666L297 265L297.746 264.334L180.746 133.334L180 134Z" fill="white"/>
<rect width="101" height="64" transform="translate(188 165)" fill="#020202"/>
<path d="M214.358 188.919C214.358 189.808 214.139 190.573 213.702 191.216C213.271 191.858 212.649 192.351 211.835 192.692C211.029 193.034 210.065 193.205 208.944 193.205C208.397 193.205 207.874 193.174 207.375 193.113C206.876 193.051 206.404 192.962 205.96 192.846C205.522 192.723 205.122 192.576 204.76 192.405V190.088C205.369 190.354 206.049 190.597 206.801 190.816C207.553 191.028 208.318 191.134 209.098 191.134C209.733 191.134 210.26 191.052 210.677 190.888C211.1 190.717 211.415 190.478 211.62 190.17C211.825 189.855 211.928 189.49 211.928 189.073C211.928 188.628 211.808 188.252 211.569 187.945C211.329 187.637 210.967 187.357 210.482 187.104C210.003 186.844 209.402 186.567 208.677 186.273C208.185 186.075 207.713 185.85 207.262 185.597C206.818 185.344 206.421 185.046 206.073 184.705C205.724 184.363 205.447 183.959 205.242 183.495C205.044 183.023 204.945 182.469 204.945 181.833C204.945 180.986 205.146 180.261 205.55 179.66C205.96 179.058 206.534 178.597 207.272 178.275C208.017 177.954 208.886 177.793 209.877 177.793C210.663 177.793 211.401 177.875 212.092 178.04C212.789 178.204 213.473 178.436 214.142 178.737L213.363 180.716C212.748 180.463 212.15 180.261 211.569 180.111C210.995 179.96 210.407 179.885 209.805 179.885C209.286 179.885 208.845 179.964 208.482 180.121C208.12 180.278 207.843 180.5 207.652 180.788C207.467 181.068 207.375 181.403 207.375 181.792C207.375 182.23 207.481 182.599 207.693 182.9C207.912 183.194 208.246 183.464 208.698 183.71C209.156 183.956 209.744 184.229 210.461 184.53C211.288 184.872 211.989 185.231 212.563 185.607C213.144 185.983 213.589 186.434 213.896 186.96C214.204 187.48 214.358 188.133 214.358 188.919ZM221.438 191.257C221.752 191.257 222.063 191.229 222.371 191.175C222.679 191.113 222.959 191.042 223.212 190.959V192.785C222.945 192.901 222.6 193 222.176 193.082C221.752 193.164 221.311 193.205 220.853 193.205C220.211 193.205 219.633 193.099 219.121 192.887C218.608 192.668 218.201 192.296 217.9 191.77C217.6 191.243 217.449 190.515 217.449 189.585V183.484H215.901V182.408L217.562 181.557L218.351 179.126H219.869V181.649H223.12V183.484H219.869V189.555C219.869 190.129 220.013 190.556 220.3 190.836C220.587 191.117 220.966 191.257 221.438 191.257ZM230.251 181.434C231.263 181.434 232.131 181.642 232.855 182.059C233.58 182.476 234.137 183.067 234.527 183.833C234.916 184.599 235.111 185.515 235.111 186.581V187.873H227.534C227.561 188.974 227.855 189.821 228.415 190.416C228.983 191.011 229.776 191.308 230.794 191.308C231.519 191.308 232.168 191.24 232.743 191.103C233.324 190.959 233.922 190.751 234.537 190.478V192.436C233.97 192.703 233.392 192.897 232.804 193.021C232.216 193.144 231.512 193.205 230.692 193.205C229.578 193.205 228.597 192.99 227.749 192.559C226.908 192.122 226.248 191.472 225.77 190.611C225.298 189.75 225.062 188.68 225.062 187.401C225.062 186.13 225.278 185.05 225.708 184.161C226.139 183.272 226.744 182.596 227.523 182.131C228.303 181.666 229.212 181.434 230.251 181.434ZM230.251 183.249C229.492 183.249 228.877 183.495 228.405 183.987C227.94 184.479 227.667 185.2 227.585 186.15H232.753C232.746 185.583 232.65 185.081 232.466 184.643C232.288 184.206 232.015 183.864 231.645 183.618C231.283 183.372 230.818 183.249 230.251 183.249ZM243.863 181.434C245.209 181.434 246.29 181.926 247.103 182.91C247.923 183.895 248.333 185.357 248.333 187.299C248.333 188.584 248.142 189.667 247.759 190.549C247.383 191.424 246.854 192.087 246.17 192.539C245.493 192.983 244.704 193.205 243.801 193.205C243.227 193.205 242.728 193.13 242.304 192.979C241.88 192.829 241.518 192.634 241.217 192.395C240.917 192.149 240.664 191.882 240.458 191.595H240.315C240.349 191.869 240.38 192.173 240.407 192.508C240.441 192.836 240.458 193.137 240.458 193.41V198.035H238.039V181.649H240.007L240.346 183.218H240.458C240.67 182.896 240.927 182.599 241.228 182.326C241.535 182.052 241.904 181.837 242.335 181.68C242.772 181.516 243.282 181.434 243.863 181.434ZM243.217 183.402C242.554 183.402 242.021 183.536 241.617 183.802C241.221 184.062 240.93 184.455 240.746 184.981C240.568 185.508 240.472 186.167 240.458 186.96V187.299C240.458 188.14 240.544 188.854 240.715 189.442C240.893 190.023 241.183 190.467 241.586 190.775C241.997 191.076 242.55 191.226 243.248 191.226C243.835 191.226 244.321 191.065 244.704 190.744C245.093 190.423 245.384 189.965 245.575 189.37C245.767 188.775 245.862 188.075 245.862 187.268C245.862 186.044 245.644 185.094 245.206 184.417C244.775 183.741 244.112 183.402 243.217 183.402ZM265.795 181.434C265.795 182.11 265.659 182.698 265.385 183.197C265.112 183.696 264.736 184.106 264.257 184.428C263.786 184.742 263.239 184.968 262.617 185.104V185.176C263.813 185.327 264.715 185.703 265.324 186.304C265.939 186.906 266.247 187.702 266.247 188.693C266.247 189.562 266.038 190.337 265.621 191.021C265.204 191.698 264.565 192.231 263.704 192.621C262.842 193.01 261.735 193.205 260.381 193.205C259.568 193.205 258.813 193.14 258.115 193.01C257.425 192.88 256.769 192.672 256.147 192.385V190.242C256.782 190.556 257.459 190.799 258.177 190.97C258.895 191.141 259.575 191.226 260.217 191.226C261.468 191.226 262.36 190.994 262.894 190.529C263.427 190.057 263.693 189.408 263.693 188.581C263.693 188.047 263.553 187.61 263.273 187.268C263 186.926 262.572 186.67 261.991 186.499C261.417 186.328 260.675 186.243 259.766 186.243H258.443V184.305H259.776C260.645 184.305 261.342 184.202 261.868 183.997C262.395 183.785 262.774 183.495 263.006 183.125C263.246 182.756 263.365 182.326 263.365 181.833C263.365 181.191 263.157 180.692 262.74 180.336C262.323 179.974 261.704 179.793 260.884 179.793C260.378 179.793 259.917 179.851 259.5 179.967C259.089 180.083 258.71 180.23 258.361 180.408C258.013 180.586 257.681 180.777 257.367 180.982L256.208 179.311C256.775 178.887 257.452 178.528 258.238 178.234C259.024 177.94 259.941 177.793 260.986 177.793C262.524 177.793 263.711 178.125 264.545 178.788C265.378 179.444 265.795 180.326 265.795 181.434ZM268.877 191.729C268.877 191.168 269.02 190.775 269.307 190.549C269.601 190.317 269.957 190.201 270.374 190.201C270.791 190.201 271.146 190.317 271.44 190.549C271.741 190.775 271.891 191.168 271.891 191.729C271.891 192.275 271.741 192.672 271.44 192.918C271.146 193.157 270.791 193.277 270.374 193.277C269.957 193.277 269.601 193.157 269.307 192.918C269.02 192.672 268.877 192.275 268.877 191.729ZM268.877 182.951C268.877 182.384 269.02 181.984 269.307 181.751C269.601 181.519 269.957 181.403 270.374 181.403C270.791 181.403 271.146 181.519 271.44 181.751C271.741 181.984 271.891 182.384 271.891 182.951C271.891 183.491 271.741 183.884 271.44 184.13C271.146 184.37 270.791 184.489 270.374 184.489C269.957 184.489 269.601 184.37 269.307 184.13C269.02 183.884 268.877 183.491 268.877 182.951ZM204.391 203.885C203.673 203.885 203.031 204.015 202.463 204.275C201.903 204.535 201.428 204.911 201.038 205.403C200.648 205.888 200.351 206.479 200.146 207.177C199.941 207.867 199.838 208.646 199.838 209.515C199.838 210.677 200.002 211.678 200.33 212.519C200.659 213.353 201.158 213.996 201.828 214.447C202.497 214.891 203.345 215.113 204.37 215.113C205.006 215.113 205.625 215.052 206.226 214.929C206.828 214.806 207.45 214.638 208.093 214.426V216.518C207.484 216.757 206.869 216.932 206.247 217.041C205.625 217.15 204.907 217.205 204.094 217.205C202.562 217.205 201.291 216.887 200.279 216.251C199.274 215.616 198.522 214.72 198.023 213.565C197.531 212.41 197.285 211.056 197.285 209.504C197.285 208.37 197.442 207.331 197.757 206.387C198.071 205.444 198.529 204.63 199.131 203.947C199.732 203.256 200.474 202.727 201.356 202.357C202.245 201.981 203.26 201.793 204.401 201.793C205.153 201.793 205.891 201.879 206.616 202.05C207.348 202.214 208.024 202.45 208.646 202.757L207.785 204.788C207.266 204.542 206.722 204.33 206.155 204.152C205.587 203.974 204.999 203.885 204.391 203.885ZM221.325 211.299C221.325 212.242 221.202 213.08 220.956 213.811C220.71 214.542 220.351 215.161 219.879 215.667C219.408 216.166 218.84 216.549 218.177 216.815C217.514 217.075 216.766 217.205 215.932 217.205C215.152 217.205 214.438 217.075 213.788 216.815C213.139 216.549 212.575 216.166 212.097 215.667C211.625 215.161 211.259 214.542 210.999 213.811C210.74 213.08 210.61 212.242 210.61 211.299C210.61 210.048 210.825 208.988 211.256 208.12C211.693 207.245 212.315 206.579 213.122 206.121C213.929 205.663 214.889 205.434 216.003 205.434C217.049 205.434 217.972 205.663 218.772 206.121C219.572 206.579 220.197 207.245 220.648 208.12C221.1 208.995 221.325 210.055 221.325 211.299ZM213.091 211.299C213.091 212.126 213.19 212.833 213.389 213.421C213.594 214.009 213.908 214.46 214.332 214.775C214.756 215.083 215.303 215.236 215.973 215.236C216.642 215.236 217.189 215.083 217.613 214.775C218.037 214.46 218.348 214.009 218.546 213.421C218.745 212.833 218.844 212.126 218.844 211.299C218.844 210.472 218.745 209.771 218.546 209.197C218.348 208.616 218.037 208.175 217.613 207.874C217.189 207.566 216.639 207.413 215.962 207.413C214.964 207.413 214.236 207.748 213.778 208.417C213.32 209.087 213.091 210.048 213.091 211.299ZM230.22 205.434C231.498 205.434 232.493 205.765 233.204 206.428C233.922 207.084 234.281 208.141 234.281 209.597V217H231.871V210.048C231.871 209.166 231.69 208.506 231.328 208.069C230.965 207.625 230.405 207.402 229.646 207.402C228.545 207.402 227.78 207.741 227.349 208.417C226.925 209.094 226.713 210.075 226.713 211.36V217H224.304V205.649H226.18L226.519 207.187H226.652C226.898 206.791 227.202 206.466 227.564 206.213C227.934 205.953 228.344 205.758 228.795 205.628C229.253 205.499 229.728 205.434 230.22 205.434ZM243.781 205.434C245.059 205.434 246.054 205.765 246.765 206.428C247.482 207.084 247.841 208.141 247.841 209.597V217H245.432V210.048C245.432 209.166 245.25 208.506 244.888 208.069C244.526 207.625 243.965 207.402 243.207 207.402C242.106 207.402 241.34 207.741 240.91 208.417C240.486 209.094 240.274 210.075 240.274 211.36V217H237.864V205.649H239.741L240.079 207.187H240.212C240.458 206.791 240.763 206.466 241.125 206.213C241.494 205.953 241.904 205.758 242.355 205.628C242.813 205.499 243.289 205.434 243.781 205.434ZM255.947 205.434C256.959 205.434 257.827 205.642 258.551 206.059C259.276 206.476 259.833 207.067 260.223 207.833C260.612 208.599 260.807 209.515 260.807 210.581V211.873H253.23C253.257 212.974 253.551 213.821 254.111 214.416C254.679 215.011 255.472 215.308 256.49 215.308C257.215 215.308 257.864 215.24 258.439 215.103C259.02 214.959 259.618 214.751 260.233 214.478V216.436C259.666 216.703 259.088 216.897 258.5 217.021C257.912 217.144 257.208 217.205 256.388 217.205C255.273 217.205 254.293 216.99 253.445 216.559C252.604 216.122 251.944 215.472 251.466 214.611C250.994 213.75 250.758 212.68 250.758 211.401C250.758 210.13 250.974 209.05 251.404 208.161C251.835 207.272 252.44 206.596 253.219 206.131C253.999 205.666 254.908 205.434 255.947 205.434ZM255.947 207.249C255.188 207.249 254.573 207.495 254.101 207.987C253.636 208.479 253.363 209.2 253.281 210.15H258.449C258.442 209.583 258.346 209.081 258.162 208.643C257.984 208.206 257.71 207.864 257.341 207.618C256.979 207.372 256.514 207.249 255.947 207.249ZM268.308 217.205C267.234 217.205 266.305 216.997 265.519 216.58C264.732 216.163 264.128 215.523 263.704 214.662C263.28 213.801 263.068 212.707 263.068 211.381C263.068 210 263.3 208.872 263.765 207.997C264.23 207.122 264.873 206.476 265.693 206.059C266.52 205.642 267.467 205.434 268.533 205.434C269.21 205.434 269.822 205.502 270.369 205.639C270.922 205.769 271.391 205.929 271.774 206.121L271.056 208.048C270.639 207.877 270.212 207.734 269.774 207.618C269.337 207.501 268.916 207.443 268.513 207.443C267.85 207.443 267.296 207.59 266.852 207.884C266.414 208.178 266.086 208.616 265.867 209.197C265.655 209.778 265.549 210.499 265.549 211.36C265.549 212.194 265.659 212.898 265.878 213.473C266.096 214.04 266.421 214.471 266.852 214.765C267.282 215.052 267.812 215.195 268.441 215.195C269.063 215.195 269.62 215.12 270.112 214.97C270.605 214.819 271.069 214.625 271.507 214.385V216.477C271.076 216.723 270.615 216.904 270.123 217.021C269.63 217.144 269.025 217.205 268.308 217.205ZM278.608 215.257C278.922 215.257 279.233 215.229 279.541 215.175C279.848 215.113 280.129 215.042 280.381 214.959V216.785C280.115 216.901 279.77 217 279.346 217.082C278.922 217.164 278.481 217.205 278.023 217.205C277.38 217.205 276.803 217.099 276.29 216.887C275.777 216.668 275.371 216.296 275.07 215.77C274.769 215.243 274.619 214.515 274.619 213.585V207.484H273.07V206.408L274.732 205.557L275.521 203.126H277.039V205.649H280.289V207.484H277.039V213.555C277.039 214.129 277.182 214.556 277.469 214.836C277.756 215.117 278.136 215.257 278.608 215.257Z" fill="white"/>
<defs>
<clipPath id="clip0_12_1100">
<rect width="18" height="15" fill="white" transform="translate(594 9.5)"/>
</clipPath>
</defs>
</svg>
