<svg width="1254" height="120" viewBox="0 0 1254 120" fill="none" xmlns="http://www.w3.org/2000/svg">
<rect y="17" width="226" height="103" rx="8" fill="#020202"/>
<rect x="1" y="18" width="224" height="101" rx="7" stroke="white" stroke-opacity="0.9" stroke-width="2"/>
<path d="M102.923 61.5088V71.209C102.923 72.2549 102.701 73.1914 102.257 74.0186C101.819 74.8457 101.156 75.502 100.268 75.9873C99.3788 76.4658 98.2612 76.7051 96.9145 76.7051C94.9936 76.7051 93.5307 76.2026 92.5258 75.1978C91.5278 74.186 91.0287 72.8428 91.0287 71.168V61.5088H93.4897V70.9526C93.4897 72.2036 93.7836 73.1265 94.3715 73.7212C94.9594 74.3159 95.8378 74.6133 97.0068 74.6133C97.8134 74.6133 98.4697 74.4731 98.9755 74.1929C99.4882 73.9058 99.8642 73.4888 100.103 72.9419C100.35 72.3882 100.473 71.7217 100.473 70.9424V61.5088H102.923ZM114.351 73.2598C114.351 74.0049 114.17 74.6338 113.808 75.1465C113.445 75.6592 112.916 76.0488 112.218 76.3154C111.528 76.5752 110.68 76.7051 109.675 76.7051C108.882 76.7051 108.199 76.647 107.624 76.5308C107.057 76.4214 106.52 76.2505 106.015 76.0181V73.9365C106.555 74.1895 107.16 74.4082 107.83 74.5928C108.506 74.7773 109.145 74.8696 109.747 74.8696C110.54 74.8696 111.111 74.7466 111.459 74.5005C111.808 74.2476 111.982 73.9126 111.982 73.4956C111.982 73.2495 111.911 73.0308 111.767 72.8394C111.63 72.6411 111.371 72.4395 110.988 72.2344C110.612 72.0225 110.058 71.7695 109.327 71.4756C108.609 71.1885 108.004 70.9014 107.512 70.6143C107.02 70.3271 106.647 69.9819 106.394 69.5786C106.141 69.1685 106.015 68.6455 106.015 68.0098C106.015 67.0049 106.411 66.2427 107.204 65.7231C108.004 65.1968 109.06 64.9336 110.373 64.9336C111.07 64.9336 111.726 65.0054 112.341 65.1489C112.963 65.2856 113.572 65.4873 114.166 65.7539L113.408 67.5688C112.895 67.3433 112.379 67.1587 111.859 67.0151C111.347 66.8647 110.824 66.7896 110.291 66.7896C109.668 66.7896 109.193 66.8853 108.865 67.0767C108.544 67.2681 108.383 67.5415 108.383 67.897C108.383 68.1636 108.462 68.3892 108.619 68.5737C108.776 68.7583 109.046 68.9429 109.429 69.1274C109.819 69.312 110.359 69.541 111.049 69.8145C111.726 70.0742 112.311 70.3477 112.803 70.6348C113.302 70.915 113.685 71.2603 113.951 71.6704C114.218 72.0806 114.351 72.6104 114.351 73.2598ZM121.688 64.9336C122.699 64.9336 123.567 65.1421 124.292 65.5591C125.017 65.9761 125.574 66.5674 125.963 67.333C126.353 68.0986 126.548 69.0146 126.548 70.0811V71.373H118.97C118.998 72.4736 119.292 73.3213 119.852 73.916C120.419 74.5107 121.212 74.8081 122.231 74.8081C122.956 74.8081 123.605 74.7397 124.179 74.603C124.76 74.4595 125.358 74.251 125.974 73.9775V75.936C125.406 76.2026 124.829 76.3975 124.241 76.5205C123.653 76.6436 122.949 76.7051 122.128 76.7051C121.014 76.7051 120.033 76.4897 119.186 76.0591C118.345 75.6216 117.685 74.9722 117.207 74.1108C116.735 73.2495 116.499 72.1797 116.499 70.9014C116.499 69.6299 116.714 68.5498 117.145 67.6611C117.576 66.7725 118.181 66.0957 118.96 65.6309C119.739 65.166 120.648 64.9336 121.688 64.9336ZM121.688 66.7485C120.929 66.7485 120.313 66.9946 119.842 67.4868C119.377 67.979 119.104 68.7002 119.021 69.6504H124.189C124.183 69.083 124.087 68.5806 123.902 68.1431C123.725 67.7056 123.451 67.3638 123.082 67.1177C122.72 66.8716 122.255 66.7485 121.688 66.7485ZM135.228 64.9336C135.419 64.9336 135.628 64.9438 135.853 64.9644C136.079 64.9849 136.273 65.0122 136.438 65.0464L136.212 67.3022C136.068 67.2612 135.891 67.2305 135.679 67.21C135.474 67.1895 135.289 67.1792 135.125 67.1792C134.694 67.1792 134.284 67.251 133.895 67.3945C133.505 67.5312 133.16 67.7432 132.859 68.0303C132.558 68.3105 132.322 68.6626 132.151 69.0864C131.981 69.5103 131.895 70.0024 131.895 70.563V76.5H129.475V65.1489H131.362L131.69 67.1484H131.803C132.028 66.7451 132.309 66.376 132.644 66.041C132.979 65.7061 133.361 65.4395 133.792 65.2412C134.23 65.0361 134.708 64.9336 135.228 64.9336Z" fill="white"/>
<rect x="1028" y="17" width="226" height="103" rx="8" fill="#020202"/>
<rect x="1029" y="18" width="224" height="101" rx="7" stroke="white" stroke-opacity="0.9" stroke-width="2"/>
<path d="M1100.12 64.9336C1101.47 64.9336 1102.55 65.4258 1103.36 66.4102C1104.18 67.3945 1104.59 68.8574 1104.59 70.7988C1104.59 72.084 1104.4 73.1675 1104.01 74.0493C1103.64 74.9243 1103.11 75.5874 1102.43 76.0386C1101.75 76.4829 1100.96 76.7051 1100.06 76.7051C1099.48 76.7051 1098.98 76.6299 1098.56 76.4795C1098.14 76.3291 1097.77 76.1343 1097.47 75.895C1097.17 75.6489 1096.92 75.3823 1096.71 75.0952H1096.57C1096.6 75.3687 1096.64 75.6729 1096.66 76.0078C1096.7 76.3359 1096.71 76.6367 1096.71 76.9102V81.5347H1094.29V65.1489H1096.26L1096.6 66.7178H1096.71C1096.93 66.3965 1097.18 66.0991 1097.48 65.8257C1097.79 65.5522 1098.16 65.3369 1098.59 65.1797C1099.03 65.0156 1099.54 64.9336 1100.12 64.9336ZM1099.47 66.9023C1098.81 66.9023 1098.28 67.0356 1097.87 67.3022C1097.48 67.562 1097.19 67.9551 1097 68.4814C1096.82 69.0078 1096.73 69.6675 1096.71 70.4604V70.7988C1096.71 71.6396 1096.8 72.354 1096.97 72.9419C1097.15 73.5229 1097.44 73.9673 1097.84 74.2749C1098.25 74.5757 1098.81 74.7261 1099.5 74.7261C1100.09 74.7261 1100.58 74.5654 1100.96 74.2441C1101.35 73.9229 1101.64 73.4648 1101.83 72.8701C1102.02 72.2754 1102.12 71.5747 1102.12 70.7681C1102.12 69.5444 1101.9 68.5942 1101.46 67.9175C1101.03 67.2407 1100.37 66.9023 1099.47 66.9023ZM1111.4 76.7051C1110.05 76.7051 1108.96 76.2129 1108.14 75.2285C1107.33 74.2373 1106.92 72.7778 1106.92 70.8501C1106.92 68.9019 1107.34 67.4287 1108.16 66.4307C1109 65.4326 1110.09 64.9336 1111.45 64.9336C1112.03 64.9336 1112.53 65.0122 1112.96 65.1694C1113.39 65.3198 1113.76 65.5249 1114.07 65.7847C1114.38 66.0444 1114.65 66.335 1114.87 66.6562H1114.98C1114.95 66.4443 1114.91 66.1401 1114.86 65.7437C1114.82 65.3403 1114.8 64.9678 1114.8 64.626V60.5449H1117.22V76.5H1115.33L1114.9 74.9517H1114.8C1114.59 75.2798 1114.33 75.5771 1114.02 75.8438C1113.71 76.1035 1113.34 76.312 1112.91 76.4692C1112.49 76.6265 1111.98 76.7051 1111.4 76.7051ZM1112.08 74.7466C1113.11 74.7466 1113.84 74.4492 1114.26 73.8545C1114.69 73.2598 1114.91 72.3677 1114.92 71.1782V70.8604C1114.92 69.5889 1114.71 68.6147 1114.3 67.938C1113.89 67.2544 1113.15 66.9126 1112.06 66.9126C1111.19 66.9126 1110.53 67.2646 1110.07 67.9688C1109.62 68.666 1109.39 69.6401 1109.39 70.8911C1109.39 72.1421 1109.62 73.0991 1110.07 73.7622C1110.53 74.4185 1111.2 74.7466 1112.08 74.7466ZM1126.55 66.9844H1123.79V76.5H1121.38V66.9844H1119.53V65.8257L1121.38 65.1182V64.3286C1121.38 63.3647 1121.54 62.5991 1121.84 62.0317C1122.14 61.4644 1122.58 61.0576 1123.15 60.8115C1123.72 60.5586 1124.41 60.4321 1125.2 60.4321C1125.72 60.4321 1126.19 60.4766 1126.62 60.5654C1127.06 60.6475 1127.42 60.7432 1127.71 60.8525L1127.09 62.6777C1126.85 62.6025 1126.59 62.5342 1126.31 62.4727C1126.02 62.4043 1125.71 62.3701 1125.38 62.3701C1124.84 62.3701 1124.43 62.541 1124.17 62.8828C1123.92 63.2246 1123.79 63.7236 1123.79 64.3799V65.1489H1126.55V66.9844ZM1132.93 74.7568C1133.24 74.7568 1133.55 74.7295 1133.86 74.6748C1134.17 74.6133 1134.45 74.5415 1134.7 74.4595V76.2847C1134.43 76.4009 1134.09 76.5 1133.66 76.582C1133.24 76.6641 1132.8 76.7051 1132.34 76.7051C1131.7 76.7051 1131.12 76.5991 1130.61 76.3872C1130.1 76.1685 1129.69 75.7959 1129.39 75.2695C1129.09 74.7432 1128.94 74.0151 1128.94 73.0854V66.9844H1127.39V65.9077L1129.05 65.0566L1129.84 62.6265H1131.36V65.1489H1134.61V66.9844H1131.36V73.0547C1131.36 73.6289 1131.5 74.0562 1131.79 74.3364C1132.07 74.6167 1132.45 74.7568 1132.93 74.7568ZM1147.27 70.7988C1147.27 71.7422 1147.14 72.5796 1146.9 73.311C1146.65 74.0425 1146.29 74.6611 1145.82 75.167C1145.35 75.666 1144.78 76.0488 1144.12 76.3154C1143.45 76.5752 1142.71 76.7051 1141.87 76.7051C1141.09 76.7051 1140.38 76.5752 1139.73 76.3154C1139.08 76.0488 1138.52 75.666 1138.04 75.167C1137.56 74.6611 1137.2 74.0425 1136.94 73.311C1136.68 72.5796 1136.55 71.7422 1136.55 70.7988C1136.55 69.5479 1136.77 68.4883 1137.2 67.6201C1137.63 66.7451 1138.26 66.0786 1139.06 65.6206C1139.87 65.1626 1140.83 64.9336 1141.94 64.9336C1142.99 64.9336 1143.91 65.1626 1144.71 65.6206C1145.51 66.0786 1146.14 66.7451 1146.59 67.6201C1147.04 68.4951 1147.27 69.5547 1147.27 70.7988ZM1139.03 70.7988C1139.03 71.626 1139.13 72.3335 1139.33 72.9214C1139.53 73.5093 1139.85 73.9604 1140.27 74.2749C1140.7 74.5825 1141.24 74.7363 1141.91 74.7363C1142.58 74.7363 1143.13 74.5825 1143.55 74.2749C1143.98 73.9604 1144.29 73.5093 1144.49 72.9214C1144.68 72.3335 1144.78 71.626 1144.78 70.7988C1144.78 69.9717 1144.68 69.271 1144.49 68.6968C1144.29 68.1157 1143.98 67.6748 1143.55 67.374C1143.13 67.0664 1142.58 66.9126 1141.9 66.9126C1140.9 66.9126 1140.18 67.2476 1139.72 67.9175C1139.26 68.5874 1139.03 69.5479 1139.03 70.7988ZM1154.47 74.7568C1154.78 74.7568 1155.09 74.7295 1155.4 74.6748C1155.71 74.6133 1155.99 74.5415 1156.24 74.4595V76.2847C1155.98 76.4009 1155.63 76.5 1155.21 76.582C1154.78 76.6641 1154.34 76.7051 1153.88 76.7051C1153.24 76.7051 1152.66 76.5991 1152.15 76.3872C1151.64 76.1685 1151.23 75.7959 1150.93 75.2695C1150.63 74.7432 1150.48 74.0151 1150.48 73.0854V66.9844H1148.93V65.9077L1150.59 65.0566L1151.38 62.6265H1152.9V65.1489H1156.15V66.9844H1152.9V73.0547C1152.9 73.6289 1153.04 74.0562 1153.33 74.3364C1153.62 74.6167 1154 74.7568 1154.47 74.7568ZM1163.28 64.9336C1164.29 64.9336 1165.16 65.1421 1165.89 65.5591C1166.61 65.9761 1167.17 66.5674 1167.56 67.333C1167.95 68.0986 1168.14 69.0146 1168.14 70.0811V71.373H1160.56C1160.59 72.4736 1160.89 73.3213 1161.45 73.916C1162.01 74.5107 1162.81 74.8081 1163.82 74.8081C1164.55 74.8081 1165.2 74.7397 1165.77 74.603C1166.35 74.4595 1166.95 74.251 1167.57 73.9775V75.936C1167 76.2026 1166.42 76.3975 1165.83 76.5205C1165.25 76.6436 1164.54 76.7051 1163.72 76.7051C1162.61 76.7051 1161.63 76.4897 1160.78 76.0591C1159.94 75.6216 1159.28 74.9722 1158.8 74.1108C1158.33 73.2495 1158.09 72.1797 1158.09 70.9014C1158.09 69.6299 1158.31 68.5498 1158.74 67.6611C1159.17 66.7725 1159.77 66.0957 1160.55 65.6309C1161.33 65.166 1162.24 64.9336 1163.28 64.9336ZM1163.28 66.7485C1162.52 66.7485 1161.91 66.9946 1161.44 67.4868C1160.97 67.979 1160.7 68.7002 1160.62 69.6504H1165.78C1165.78 69.083 1165.68 68.5806 1165.5 68.1431C1165.32 67.7056 1165.04 67.3638 1164.68 67.1177C1164.31 66.8716 1163.85 66.7485 1163.28 66.7485ZM1173.58 70.6963L1169.79 65.1489H1172.54L1175.13 69.1377L1177.73 65.1489H1180.47L1176.66 70.6963L1180.67 76.5H1177.91L1175.13 72.2446L1172.34 76.5H1169.6L1173.58 70.6963ZM1187.07 74.7568C1187.38 74.7568 1187.7 74.7295 1188 74.6748C1188.31 74.6133 1188.59 74.5415 1188.84 74.4595V76.2847C1188.58 76.4009 1188.23 76.5 1187.81 76.582C1187.38 76.6641 1186.94 76.7051 1186.49 76.7051C1185.84 76.7051 1185.27 76.5991 1184.75 76.3872C1184.24 76.1685 1183.83 75.7959 1183.53 75.2695C1183.23 74.7432 1183.08 74.0151 1183.08 73.0854V66.9844H1181.53V65.9077L1183.19 65.0566L1183.98 62.6265H1185.5V65.1489H1188.75V66.9844H1185.5V73.0547C1185.5 73.6289 1185.64 74.0562 1185.93 74.3364C1186.22 74.6167 1186.6 74.7568 1187.07 74.7568Z" fill="white"/>
<rect width="106" height="18" transform="translate(1087.5 8)" fill="#020202"/>
<path d="M1099.75 10.7143C1099.44 10.7143 1099.19 10.9714 1099.19 11.2857V13.5714C1099.19 13.8857 1099.44 14.1429 1099.75 14.1429H1113.25C1113.56 14.1429 1113.81 13.8857 1113.81 13.5714V11.2857C1113.81 10.9714 1113.56 10.7143 1113.25 10.7143H1099.75ZM1097.5 11.2857C1097.5 10.025 1098.51 9 1099.75 9H1113.25C1114.49 9 1115.5 10.025 1115.5 11.2857V13.5714C1115.5 14.8321 1114.49 15.8571 1113.25 15.8571H1099.75C1098.51 15.8571 1097.5 14.8321 1097.5 13.5714V11.2857ZM1099.75 19.8571C1099.44 19.8571 1099.19 20.1143 1099.19 20.4286V22.7143C1099.19 23.0286 1099.44 23.2857 1099.75 23.2857H1113.25C1113.56 23.2857 1113.81 23.0286 1113.81 22.7143V20.4286C1113.81 20.1143 1113.56 19.8571 1113.25 19.8571H1099.75ZM1097.5 20.4286C1097.5 19.1679 1098.51 18.1429 1099.75 18.1429H1113.25C1114.49 18.1429 1115.5 19.1679 1115.5 20.4286V22.7143C1115.5 23.975 1114.49 25 1113.25 25H1099.75C1098.51 25 1097.5 23.975 1097.5 22.7143V20.4286ZM1111.28 21.5714C1111.28 21.3441 1111.37 21.1261 1111.53 20.9653C1111.69 20.8046 1111.9 20.7143 1112.12 20.7143C1112.35 20.7143 1112.56 20.8046 1112.72 20.9653C1112.88 21.1261 1112.97 21.3441 1112.97 21.5714C1112.97 21.7988 1112.88 22.0168 1112.72 22.1775C1112.56 22.3383 1112.35 22.4286 1112.12 22.4286C1111.9 22.4286 1111.69 22.3383 1111.53 22.1775C1111.37 22.0168 1111.28 21.7988 1111.28 21.5714ZM1112.12 11.5714C1112.35 11.5714 1112.56 11.6617 1112.72 11.8225C1112.88 11.9832 1112.97 12.2012 1112.97 12.4286C1112.97 12.6559 1112.88 12.8739 1112.72 13.0347C1112.56 13.1954 1112.35 13.2857 1112.12 13.2857C1111.9 13.2857 1111.69 13.1954 1111.53 13.0347C1111.37 12.8739 1111.28 12.6559 1111.28 12.4286C1111.28 12.2012 1111.37 11.9832 1111.53 11.8225C1111.69 11.6617 1111.9 11.5714 1112.12 11.5714ZM1109.03 21.5714C1109.03 21.3441 1109.12 21.1261 1109.28 20.9653C1109.44 20.8046 1109.65 20.7143 1109.88 20.7143C1110.1 20.7143 1110.31 20.8046 1110.47 20.9653C1110.63 21.1261 1110.72 21.3441 1110.72 21.5714C1110.72 21.7988 1110.63 22.0168 1110.47 22.1775C1110.31 22.3383 1110.1 22.4286 1109.88 22.4286C1109.65 22.4286 1109.44 22.3383 1109.28 22.1775C1109.12 22.0168 1109.03 21.7988 1109.03 21.5714ZM1109.88 11.5714C1110.1 11.5714 1110.31 11.6617 1110.47 11.8225C1110.63 11.9832 1110.72 12.2012 1110.72 12.4286C1110.72 12.6559 1110.63 12.8739 1110.47 13.0347C1110.31 13.1954 1110.1 13.2857 1109.88 13.2857C1109.65 13.2857 1109.44 13.1954 1109.28 13.0347C1109.12 12.8739 1109.03 12.6559 1109.03 12.4286C1109.03 12.2012 1109.12 11.9832 1109.28 11.8225C1109.44 11.6617 1109.65 11.5714 1109.88 11.5714Z" fill="#FF5C00"/>
<path d="M1126.11 13.8813C1125.67 13.8813 1125.27 13.9618 1124.92 14.1226C1124.57 14.2834 1124.28 14.5161 1124.04 14.8208C1123.8 15.1213 1123.61 15.4873 1123.49 15.9189C1123.36 16.3464 1123.3 16.8288 1123.3 17.3662C1123.3 18.0856 1123.4 18.7056 1123.6 19.2261C1123.8 19.7424 1124.11 20.1401 1124.53 20.4194C1124.94 20.6945 1125.47 20.832 1126.1 20.832C1126.5 20.832 1126.88 20.7939 1127.25 20.7178C1127.62 20.6416 1128.01 20.5379 1128.41 20.4067V21.7017C1128.03 21.8498 1127.65 21.9577 1127.26 22.0254C1126.88 22.0931 1126.43 22.127 1125.93 22.127C1124.98 22.127 1124.2 21.9302 1123.57 21.5366C1122.95 21.1431 1122.48 20.5887 1122.17 19.8735C1121.87 19.1584 1121.72 18.3205 1121.72 17.3599C1121.72 16.6574 1121.81 16.0142 1122.01 15.4302C1122.2 14.8462 1122.49 14.3426 1122.86 13.9194C1123.23 13.492 1123.69 13.1641 1124.24 12.9355C1124.79 12.7028 1125.41 12.5864 1126.12 12.5864C1126.59 12.5864 1127.04 12.6393 1127.49 12.7451C1127.94 12.8467 1128.36 12.9927 1128.75 13.1831L1128.22 14.4399C1127.89 14.2876 1127.56 14.1564 1127.21 14.0464C1126.85 13.9364 1126.49 13.8813 1126.11 13.8813ZM1136.47 18.4707C1136.47 19.0547 1136.39 19.5731 1136.24 20.0259C1136.09 20.4787 1135.86 20.8617 1135.57 21.1748C1135.28 21.4837 1134.93 21.7207 1134.52 21.8857C1134.11 22.0465 1133.64 22.127 1133.13 22.127C1132.65 22.127 1132.2 22.0465 1131.8 21.8857C1131.4 21.7207 1131.05 21.4837 1130.75 21.1748C1130.46 20.8617 1130.24 20.4787 1130.08 20.0259C1129.91 19.5731 1129.83 19.0547 1129.83 18.4707C1129.83 17.6963 1129.97 17.0404 1130.23 16.5029C1130.5 15.9613 1130.89 15.5487 1131.39 15.2651C1131.89 14.9816 1132.48 14.8398 1133.17 14.8398C1133.82 14.8398 1134.39 14.9816 1134.89 15.2651C1135.38 15.5487 1135.77 15.9613 1136.05 16.5029C1136.33 17.0446 1136.47 17.7005 1136.47 18.4707ZM1131.37 18.4707C1131.37 18.9827 1131.43 19.4207 1131.55 19.7847C1131.68 20.1486 1131.88 20.4279 1132.14 20.6226C1132.4 20.813 1132.74 20.9082 1133.15 20.9082C1133.57 20.9082 1133.91 20.813 1134.17 20.6226C1134.43 20.4279 1134.62 20.1486 1134.75 19.7847C1134.87 19.4207 1134.93 18.9827 1134.93 18.4707C1134.93 17.9587 1134.87 17.5249 1134.75 17.1694C1134.62 16.8097 1134.43 16.5368 1134.17 16.3506C1133.91 16.1602 1133.57 16.0649 1133.15 16.0649C1132.53 16.0649 1132.08 16.2723 1131.8 16.687C1131.51 17.1017 1131.37 17.6963 1131.37 18.4707ZM1141.84 14.8398C1142.64 14.8398 1143.25 15.0451 1143.69 15.4556C1144.14 15.8618 1144.36 16.5156 1144.36 17.417V22H1142.87V17.6963C1142.87 17.1504 1142.75 16.742 1142.53 16.4712C1142.31 16.1961 1141.96 16.0586 1141.49 16.0586C1140.81 16.0586 1140.33 16.2681 1140.07 16.687C1139.8 17.106 1139.67 17.7132 1139.67 18.5088V22H1138.18V14.9731H1139.34L1139.55 15.9253H1139.63C1139.79 15.6799 1139.98 15.4788 1140.2 15.3223C1140.43 15.1615 1140.68 15.0409 1140.96 14.9604C1141.24 14.88 1141.54 14.8398 1141.84 14.8398ZM1149.06 20.9209C1149.26 20.9209 1149.45 20.904 1149.64 20.8701C1149.83 20.832 1150 20.7876 1150.16 20.7368V21.8667C1149.99 21.9386 1149.78 22 1149.52 22.0508C1149.26 22.1016 1148.98 22.127 1148.7 22.127C1148.3 22.127 1147.94 22.0614 1147.63 21.9302C1147.31 21.7948 1147.06 21.5641 1146.87 21.2383C1146.68 20.9124 1146.59 20.4618 1146.59 19.8862V16.1094H1145.63V15.4429L1146.66 14.916L1147.15 13.4116H1148.09V14.9731H1150.1V16.1094H1148.09V19.8672C1148.09 20.2227 1148.18 20.4871 1148.36 20.6606C1148.53 20.8341 1148.77 20.9209 1149.06 20.9209ZM1154.34 14.8398C1155.23 14.8398 1155.9 15.0366 1156.35 15.4302C1156.81 15.8237 1157.04 16.4373 1157.04 17.271V22H1155.98L1155.69 21.0034H1155.64C1155.44 21.2573 1155.24 21.4668 1155.03 21.6318C1154.82 21.7969 1154.57 21.9196 1154.29 22C1154.02 22.0846 1153.68 22.127 1153.28 22.127C1152.86 22.127 1152.49 22.0508 1152.16 21.8984C1151.83 21.7419 1151.57 21.5049 1151.38 21.1875C1151.19 20.8701 1151.09 20.4681 1151.09 19.9814C1151.09 19.2578 1151.36 18.714 1151.9 18.3501C1152.44 17.9862 1153.26 17.7852 1154.35 17.7471L1155.57 17.7026V17.3345C1155.57 16.8478 1155.45 16.5008 1155.22 16.2935C1155 16.0861 1154.68 15.9824 1154.27 15.9824C1153.92 15.9824 1153.58 16.0332 1153.25 16.1348C1152.92 16.2363 1152.6 16.3612 1152.29 16.5093L1151.8 15.4556C1152.15 15.2736 1152.54 15.1255 1152.97 15.0112C1153.41 14.897 1153.87 14.8398 1154.34 14.8398ZM1155.56 18.6421L1154.65 18.6738C1153.91 18.6992 1153.39 18.8262 1153.09 19.0547C1152.78 19.2832 1152.63 19.5964 1152.63 19.9941C1152.63 20.3411 1152.74 20.5951 1152.95 20.7559C1153.15 20.9124 1153.43 20.9907 1153.76 20.9907C1154.28 20.9907 1154.71 20.8447 1155.05 20.5527C1155.39 20.2565 1155.56 19.8228 1155.56 19.2515V18.6421ZM1160.62 14.9731V22H1159.13V14.9731H1160.62ZM1159.88 12.2817C1160.11 12.2817 1160.31 12.3431 1160.47 12.4658C1160.64 12.5885 1160.73 12.8001 1160.73 13.1006C1160.73 13.3968 1160.64 13.6084 1160.47 13.7354C1160.31 13.8581 1160.11 13.9194 1159.88 13.9194C1159.65 13.9194 1159.45 13.8581 1159.28 13.7354C1159.12 13.6084 1159.04 13.3968 1159.04 13.1006C1159.04 12.8001 1159.12 12.5885 1159.28 12.4658C1159.45 12.3431 1159.65 12.2817 1159.88 12.2817ZM1166.42 14.8398C1167.21 14.8398 1167.83 15.0451 1168.27 15.4556C1168.71 15.8618 1168.94 16.5156 1168.94 17.417V22H1167.44V17.6963C1167.44 17.1504 1167.33 16.742 1167.11 16.4712C1166.88 16.1961 1166.54 16.0586 1166.07 16.0586C1165.39 16.0586 1164.91 16.2681 1164.64 16.687C1164.38 17.106 1164.25 17.7132 1164.25 18.5088V22H1162.76V14.9731H1163.92L1164.13 15.9253H1164.21C1164.37 15.6799 1164.55 15.4788 1164.78 15.3223C1165.01 15.1615 1165.26 15.0409 1165.54 14.9604C1165.82 14.88 1166.12 14.8398 1166.42 14.8398ZM1173.82 14.8398C1174.45 14.8398 1174.99 14.9689 1175.44 15.2271C1175.88 15.4852 1176.23 15.8512 1176.47 16.3252C1176.71 16.7992 1176.83 17.3662 1176.83 18.0264V18.8262H1172.14C1172.16 19.5075 1172.34 20.0322 1172.69 20.4004C1173.04 20.7686 1173.53 20.9526 1174.16 20.9526C1174.61 20.9526 1175.01 20.9103 1175.37 20.8257C1175.73 20.7368 1176.1 20.6077 1176.48 20.4385V21.6509C1176.13 21.8159 1175.77 21.9365 1175.4 22.0127C1175.04 22.0889 1174.6 22.127 1174.1 22.127C1173.41 22.127 1172.8 21.9937 1172.27 21.7271C1171.75 21.4562 1171.35 21.0542 1171.05 20.521C1170.76 19.9878 1170.61 19.3255 1170.61 18.5342C1170.61 17.7471 1170.74 17.0785 1171.01 16.5283C1171.28 15.9782 1171.65 15.5592 1172.13 15.2715C1172.62 14.9837 1173.18 14.8398 1173.82 14.8398ZM1173.82 15.9634C1173.35 15.9634 1172.97 16.1157 1172.68 16.4204C1172.39 16.7251 1172.22 17.1715 1172.17 17.7598H1175.37C1175.37 17.4085 1175.31 17.0975 1175.19 16.8267C1175.08 16.5558 1174.92 16.3442 1174.69 16.1919C1174.46 16.0396 1174.17 15.9634 1173.82 15.9634ZM1182.08 14.8398C1182.19 14.8398 1182.32 14.8462 1182.46 14.8589C1182.6 14.8716 1182.72 14.8885 1182.82 14.9097L1182.68 16.3062C1182.6 16.2808 1182.49 16.2617 1182.35 16.249C1182.23 16.2363 1182.11 16.23 1182.01 16.23C1181.75 16.23 1181.49 16.2744 1181.25 16.3633C1181.01 16.4479 1180.8 16.5791 1180.61 16.7568C1180.42 16.9303 1180.28 17.1483 1180.17 17.4106C1180.07 17.673 1180.01 17.9777 1180.01 18.3247V22H1178.51V14.9731H1179.68L1179.89 16.2109H1179.96C1180.09 15.9613 1180.27 15.7327 1180.48 15.5254C1180.68 15.318 1180.92 15.153 1181.19 15.0303C1181.46 14.9033 1181.75 14.8398 1182.08 14.8398Z" fill="#FF5C00"/>
<path d="M497.707 73.7071C498.098 73.3166 498.098 72.6834 497.707 72.2929L491.343 65.9289C490.953 65.5384 490.319 65.5384 489.929 65.9289C489.538 66.3195 489.538 66.9526 489.929 67.3431L495.586 73L489.929 78.6569C489.538 79.0474 489.538 79.6805 489.929 80.0711C490.319 80.4616 490.953 80.4616 491.343 80.0711L497.707 73.7071ZM240 73V74H497V73V72H240V73Z" fill="white"/>
<path d="M1011.71 73.7071C1012.1 73.3166 1012.1 72.6834 1011.71 72.2929L1005.34 65.9289C1004.95 65.5384 1004.32 65.5384 1003.93 65.9289C1003.54 66.3195 1003.54 66.9526 1003.93 67.3431L1009.59 73L1003.93 78.6569C1003.54 79.0474 1003.54 79.6805 1003.93 80.0711C1004.32 80.4616 1004.95 80.4616 1005.34 80.0711L1011.71 73.7071ZM751 73V74H1011V73V72H751V73Z" fill="white"/>
<rect width="160" height="40" transform="translate(792 53)" fill="#020202"/>
<path d="M806.551 66.0088C807.843 66.0088 808.909 66.166 809.75 66.4805C810.597 66.7949 811.226 67.2734 811.636 67.916C812.053 68.5586 812.262 69.3755 812.262 70.3667C812.262 71.105 812.125 71.7339 811.852 72.2534C811.578 72.7729 811.219 73.2036 810.775 73.5454C810.331 73.8872 809.856 74.1606 809.35 74.3657L813.605 81H810.826L807.207 74.9912H804.797V81H802.336V66.0088H806.551ZM806.386 68.0596H804.797V72.9609H806.499C807.641 72.9609 808.468 72.749 808.981 72.3252C809.5 71.9014 809.76 71.2759 809.76 70.4487C809.76 69.5806 809.483 68.9653 808.929 68.603C808.383 68.2407 807.535 68.0596 806.386 68.0596ZM825.607 69.6489V81H823.71L823.382 79.4722H823.249C823.01 79.8618 822.705 80.1865 822.336 80.4463C821.967 80.6992 821.557 80.8872 821.106 81.0103C820.655 81.1401 820.179 81.2051 819.68 81.2051C818.826 81.2051 818.095 81.0615 817.486 80.7744C816.885 80.4805 816.423 80.0293 816.102 79.4209C815.781 78.8125 815.62 78.0264 815.62 77.0625V69.6489H818.04V76.6113C818.04 77.4932 818.218 78.1528 818.573 78.5903C818.935 79.0278 819.496 79.2466 820.255 79.2466C820.986 79.2466 821.567 79.0962 821.998 78.7954C822.429 78.4946 822.733 78.0503 822.91 77.4624C823.095 76.8745 823.187 76.1533 823.187 75.2988V69.6489H825.607ZM835.189 69.4336C836.468 69.4336 837.462 69.7651 838.173 70.4282C838.891 71.0845 839.25 72.1406 839.25 73.5967V81H836.84V74.0479C836.84 73.166 836.659 72.5063 836.297 72.0688C835.934 71.6245 835.374 71.4023 834.615 71.4023C833.514 71.4023 832.749 71.7407 832.318 72.4175C831.894 73.0942 831.682 74.0752 831.682 75.3604V81H829.273V69.6489H831.149L831.488 71.187H831.621C831.867 70.7905 832.171 70.4658 832.534 70.2129C832.903 69.9531 833.313 69.7583 833.764 69.6284C834.222 69.4985 834.697 69.4336 835.189 69.4336ZM854.323 69.4336C855.669 69.4336 856.749 69.9258 857.563 70.9102C858.383 71.8945 858.793 73.3574 858.793 75.2988C858.793 76.584 858.602 77.6675 858.219 78.5493C857.843 79.4243 857.313 80.0874 856.63 80.5386C855.953 80.9829 855.163 81.2051 854.261 81.2051C853.687 81.2051 853.188 81.1299 852.764 80.9795C852.34 80.8291 851.978 80.6343 851.677 80.395C851.376 80.1489 851.123 79.8823 850.918 79.5952H850.775C850.809 79.8687 850.84 80.1729 850.867 80.5078C850.901 80.8359 850.918 81.1367 850.918 81.4102V86.0347H848.498V69.6489H850.467L850.806 71.2178H850.918C851.13 70.8965 851.387 70.5991 851.687 70.3257C851.995 70.0522 852.364 69.8369 852.795 69.6797C853.232 69.5156 853.742 69.4336 854.323 69.4336ZM853.677 71.4023C853.014 71.4023 852.48 71.5356 852.077 71.8022C851.681 72.062 851.39 72.4551 851.205 72.9814C851.028 73.5078 850.932 74.1675 850.918 74.9604V75.2988C850.918 76.1396 851.004 76.854 851.175 77.4419C851.352 78.0229 851.643 78.4673 852.046 78.7749C852.456 79.0757 853.01 79.2261 853.707 79.2261C854.295 79.2261 854.781 79.0654 855.163 78.7441C855.553 78.4229 855.844 77.9648 856.035 77.3701C856.226 76.7754 856.322 76.0747 856.322 75.2681C856.322 74.0444 856.103 73.0942 855.666 72.4175C855.235 71.7407 854.572 71.4023 853.677 71.4023ZM865.607 81.2051C864.253 81.2051 863.166 80.7129 862.346 79.7285C861.533 78.7373 861.126 77.2778 861.126 75.3501C861.126 73.4019 861.54 71.9287 862.367 70.9307C863.201 69.9326 864.298 69.4336 865.658 69.4336C866.232 69.4336 866.735 69.5122 867.165 69.6694C867.596 69.8198 867.965 70.0249 868.273 70.2847C868.587 70.5444 868.854 70.835 869.073 71.1562H869.186C869.151 70.9443 869.11 70.6401 869.062 70.2437C869.021 69.8403 869.001 69.4678 869.001 69.126V65.0449H871.421V81H869.534L869.103 79.4517H869.001C868.796 79.7798 868.536 80.0771 868.222 80.3438C867.914 80.6035 867.545 80.812 867.114 80.9692C866.69 81.1265 866.188 81.2051 865.607 81.2051ZM866.284 79.2466C867.316 79.2466 868.044 78.9492 868.468 78.3545C868.892 77.7598 869.11 76.8677 869.124 75.6782V75.3604C869.124 74.0889 868.919 73.1147 868.509 72.438C868.099 71.7544 867.35 71.4126 866.263 71.4126C865.395 71.4126 864.732 71.7646 864.274 72.4688C863.823 73.166 863.597 74.1401 863.597 75.3911C863.597 76.6421 863.823 77.5991 864.274 78.2622C864.732 78.9185 865.402 79.2466 866.284 79.2466ZM880.757 71.4844H877.999V81H875.589V71.4844H873.733V70.3257L875.589 69.6182V68.8286C875.589 67.8647 875.739 67.0991 876.04 66.5317C876.348 65.9644 876.785 65.5576 877.353 65.3115C877.927 65.0586 878.61 64.9321 879.403 64.9321C879.923 64.9321 880.398 64.9766 880.829 65.0654C881.259 65.1475 881.622 65.2432 881.916 65.3525L881.29 67.1777C881.058 67.1025 880.798 67.0342 880.511 66.9727C880.224 66.9043 879.916 66.8701 879.588 66.8701C879.041 66.8701 878.638 67.041 878.378 67.3828C878.125 67.7246 877.999 68.2236 877.999 68.8799V69.6489H880.757V71.4844ZM887.129 79.2568C887.444 79.2568 887.755 79.2295 888.063 79.1748C888.37 79.1133 888.65 79.0415 888.903 78.9595V80.7847C888.637 80.9009 888.292 81 887.868 81.082C887.444 81.1641 887.003 81.2051 886.545 81.2051C885.902 81.2051 885.325 81.0991 884.812 80.8872C884.299 80.6685 883.893 80.2959 883.592 79.7695C883.291 79.2432 883.141 78.5151 883.141 77.5854V71.4844H881.592V70.4077L883.253 69.5566L884.043 67.1265H885.561V69.6489H888.811V71.4844H885.561V77.5547C885.561 78.1289 885.704 78.5562 885.991 78.8364C886.278 79.1167 886.658 79.2568 887.129 79.2568ZM901.469 75.2988C901.469 76.2422 901.346 77.0796 901.1 77.811C900.854 78.5425 900.495 79.1611 900.024 79.667C899.552 80.166 898.984 80.5488 898.321 80.8154C897.658 81.0752 896.91 81.2051 896.076 81.2051C895.296 81.2051 894.582 81.0752 893.933 80.8154C893.283 80.5488 892.719 80.166 892.241 79.667C891.769 79.1611 891.403 78.5425 891.144 77.811C890.884 77.0796 890.754 76.2422 890.754 75.2988C890.754 74.0479 890.969 72.9883 891.4 72.1201C891.837 71.2451 892.46 70.5786 893.266 70.1206C894.073 69.6626 895.033 69.4336 896.148 69.4336C897.193 69.4336 898.116 69.6626 898.916 70.1206C899.716 70.5786 900.341 71.2451 900.793 72.1201C901.244 72.9951 901.469 74.0547 901.469 75.2988ZM893.235 75.2988C893.235 76.126 893.335 76.8335 893.533 77.4214C893.738 78.0093 894.052 78.4604 894.476 78.7749C894.9 79.0825 895.447 79.2363 896.117 79.2363C896.787 79.2363 897.334 79.0825 897.757 78.7749C898.181 78.4604 898.492 78.0093 898.691 77.4214C898.889 76.8335 898.988 76.126 898.988 75.2988C898.988 74.4717 898.889 73.771 898.691 73.1968C898.492 72.6157 898.181 72.1748 897.757 71.874C897.334 71.5664 896.783 71.4126 896.107 71.4126C895.108 71.4126 894.38 71.7476 893.922 72.4175C893.464 73.0874 893.235 74.0479 893.235 75.2988ZM908.672 79.2568C908.987 79.2568 909.298 79.2295 909.606 79.1748C909.913 79.1133 910.193 79.0415 910.446 78.9595V80.7847C910.18 80.9009 909.835 81 909.411 81.082C908.987 81.1641 908.546 81.2051 908.088 81.2051C907.445 81.2051 906.868 81.0991 906.355 80.8872C905.842 80.6685 905.436 80.2959 905.135 79.7695C904.834 79.2432 904.684 78.5151 904.684 77.5854V71.4844H903.135V70.4077L904.797 69.5566L905.586 67.1265H907.104V69.6489H910.354V71.4844H907.104V77.5547C907.104 78.1289 907.247 78.5562 907.534 78.8364C907.821 79.1167 908.201 79.2568 908.672 79.2568ZM917.486 69.4336C918.497 69.4336 919.365 69.6421 920.09 70.0591C920.815 70.4761 921.372 71.0674 921.761 71.833C922.151 72.5986 922.346 73.5146 922.346 74.5811V75.873H914.768C914.796 76.9736 915.09 77.8213 915.65 78.416C916.217 79.0107 917.01 79.3081 918.029 79.3081C918.754 79.3081 919.403 79.2397 919.977 79.103C920.558 78.9595 921.156 78.751 921.772 78.4775V80.436C921.204 80.7026 920.627 80.8975 920.039 81.0205C919.451 81.1436 918.747 81.2051 917.926 81.2051C916.812 81.2051 915.831 80.9897 914.984 80.5591C914.143 80.1216 913.483 79.4722 913.005 78.6108C912.533 77.7495 912.297 76.6797 912.297 75.4014C912.297 74.1299 912.512 73.0498 912.943 72.1611C913.374 71.2725 913.979 70.5957 914.758 70.1309C915.537 69.666 916.446 69.4336 917.486 69.4336ZM917.486 71.2485C916.727 71.2485 916.111 71.4946 915.64 71.9868C915.175 72.479 914.902 73.2002 914.819 74.1504H919.987C919.981 73.583 919.885 73.0806 919.7 72.6431C919.523 72.2056 919.249 71.8638 918.88 71.6177C918.518 71.3716 918.053 71.2485 917.486 71.2485ZM927.785 75.1963L923.991 69.6489H926.739L929.334 73.6377L931.938 69.6489H934.676L930.862 75.1963L934.871 81H932.112L929.334 76.7446L926.545 81H923.807L927.785 75.1963ZM941.274 79.2568C941.589 79.2568 941.9 79.2295 942.207 79.1748C942.515 79.1133 942.795 79.0415 943.048 78.9595V80.7847C942.781 80.9009 942.436 81 942.012 81.082C941.589 81.1641 941.148 81.2051 940.69 81.2051C940.047 81.2051 939.469 81.0991 938.957 80.8872C938.444 80.6685 938.037 80.2959 937.737 79.7695C937.436 79.2432 937.285 78.5151 937.285 77.5854V71.4844H935.737V70.4077L937.398 69.5566L938.188 67.1265H939.705V69.6489H942.956V71.4844H939.705V77.5547C939.705 78.1289 939.849 78.5562 940.136 78.8364C940.423 79.1167 940.802 79.2568 941.274 79.2568Z" fill="white"/>
<rect width="136" height="40" transform="translate(289 53)" fill="#020202"/>
<path d="M310.989 66.0088V75.709C310.989 76.7549 310.767 77.6914 310.323 78.5186C309.885 79.3457 309.222 80.002 308.333 80.4873C307.445 80.9658 306.327 81.2051 304.98 81.2051C303.059 81.2051 301.597 80.7026 300.592 79.6978C299.594 78.686 299.095 77.3428 299.095 75.668V66.0088H301.555V75.4526C301.555 76.7036 301.849 77.6265 302.437 78.2212C303.025 78.8159 303.904 79.1133 305.073 79.1133C305.879 79.1133 306.535 78.9731 307.041 78.6929C307.554 78.4058 307.93 77.9888 308.169 77.4419C308.415 76.8882 308.538 76.2217 308.538 75.4424V66.0088H310.989ZM320.612 69.4336C321.959 69.4336 323.039 69.9258 323.852 70.9102C324.673 71.8945 325.083 73.3574 325.083 75.2988C325.083 76.584 324.891 77.6675 324.509 78.5493C324.133 79.4243 323.603 80.0874 322.919 80.5386C322.243 80.9829 321.453 81.2051 320.551 81.2051C319.976 81.2051 319.477 81.1299 319.054 80.9795C318.63 80.8291 318.267 80.6343 317.967 80.395C317.666 80.1489 317.413 79.8823 317.208 79.5952H317.064C317.098 79.8687 317.129 80.1729 317.157 80.5078C317.191 80.8359 317.208 81.1367 317.208 81.4102V86.0347H314.788V69.6489H316.757L317.095 71.2178H317.208C317.42 70.8965 317.676 70.5991 317.977 70.3257C318.285 70.0522 318.654 69.8369 319.084 69.6797C319.522 69.5156 320.031 69.4336 320.612 69.4336ZM319.966 71.4023C319.303 71.4023 318.77 71.5356 318.367 71.8022C317.97 72.062 317.68 72.4551 317.495 72.9814C317.317 73.5078 317.222 74.1675 317.208 74.9604V75.2988C317.208 76.1396 317.293 76.854 317.464 77.4419C317.642 78.0229 317.932 78.4673 318.336 78.7749C318.746 79.0757 319.3 79.2261 319.997 79.2261C320.585 79.2261 321.07 79.0654 321.453 78.7441C321.843 78.4229 322.133 77.9648 322.325 77.3701C322.516 76.7754 322.612 76.0747 322.612 75.2681C322.612 74.0444 322.393 73.0942 321.955 72.4175C321.525 71.7407 320.862 71.4023 319.966 71.4023ZM330.502 81H328.082V65.0449H330.502V81ZM344.206 75.2988C344.206 76.2422 344.083 77.0796 343.837 77.811C343.591 78.5425 343.232 79.1611 342.76 79.667C342.289 80.166 341.721 80.5488 341.058 80.8154C340.395 81.0752 339.646 81.2051 338.812 81.2051C338.033 81.2051 337.319 81.0752 336.669 80.8154C336.02 80.5488 335.456 80.166 334.977 79.667C334.506 79.1611 334.14 78.5425 333.88 77.811C333.621 77.0796 333.491 76.2422 333.491 75.2988C333.491 74.0479 333.706 72.9883 334.137 72.1201C334.574 71.2451 335.196 70.5786 336.003 70.1206C336.81 69.6626 337.77 69.4336 338.884 69.4336C339.93 69.4336 340.853 69.6626 341.653 70.1206C342.453 70.5786 343.078 71.2451 343.529 72.1201C343.98 72.9951 344.206 74.0547 344.206 75.2988ZM335.972 75.2988C335.972 76.126 336.071 76.8335 336.269 77.4214C336.475 78.0093 336.789 78.4604 337.213 78.7749C337.637 79.0825 338.184 79.2363 338.853 79.2363C339.523 79.2363 340.07 79.0825 340.494 78.7749C340.918 78.4604 341.229 78.0093 341.427 77.4214C341.625 76.8335 341.725 76.126 341.725 75.2988C341.725 74.4717 341.625 73.771 341.427 73.1968C341.229 72.6157 340.918 72.1748 340.494 71.874C340.07 71.5664 339.52 71.4126 338.843 71.4126C337.845 71.4126 337.117 71.7476 336.659 72.4175C336.201 73.0874 335.972 74.0479 335.972 75.2988ZM351.635 69.4336C353.07 69.4336 354.154 69.7515 354.885 70.3872C355.624 71.0229 355.993 72.0142 355.993 73.3608V81H354.28L353.819 79.3901H353.737C353.416 79.8003 353.084 80.1387 352.742 80.4053C352.4 80.6719 352.004 80.8701 351.553 81C351.108 81.1367 350.565 81.2051 349.922 81.2051C349.246 81.2051 348.641 81.082 348.107 80.8359C347.574 80.583 347.154 80.2002 346.846 79.6875C346.539 79.1748 346.385 78.5254 346.385 77.7393C346.385 76.5703 346.819 75.6919 347.687 75.104C348.562 74.5161 349.881 74.1914 351.645 74.1299L353.614 74.0581V73.4634C353.614 72.6772 353.429 72.1167 353.06 71.7817C352.698 71.4468 352.185 71.2793 351.522 71.2793C350.955 71.2793 350.404 71.3613 349.871 71.5254C349.338 71.6895 348.818 71.8911 348.312 72.1304L347.533 70.4282C348.087 70.1343 348.716 69.895 349.42 69.7104C350.131 69.5259 350.869 69.4336 351.635 69.4336ZM353.603 75.5757L352.137 75.627C350.934 75.668 350.09 75.873 349.604 76.2422C349.119 76.6113 348.876 77.1172 348.876 77.7598C348.876 78.3203 349.044 78.7305 349.379 78.9902C349.714 79.2432 350.155 79.3696 350.702 79.3696C351.536 79.3696 352.226 79.1338 352.773 78.6621C353.327 78.1836 353.603 77.4829 353.603 76.5601V75.5757ZM363.391 81.2051C362.037 81.2051 360.95 80.7129 360.13 79.7285C359.316 78.7373 358.91 77.2778 358.91 75.3501C358.91 73.4019 359.323 71.9287 360.15 70.9307C360.984 69.9326 362.082 69.4336 363.442 69.4336C364.016 69.4336 364.519 69.5122 364.949 69.6694C365.38 69.8198 365.749 70.0249 366.057 70.2847C366.371 70.5444 366.638 70.835 366.856 71.1562H366.969C366.935 70.9443 366.894 70.6401 366.846 70.2437C366.805 69.8403 366.785 69.4678 366.785 69.126V65.0449H369.205V81H367.318L366.887 79.4517H366.785C366.58 79.7798 366.32 80.0771 366.005 80.3438C365.698 80.6035 365.329 80.812 364.898 80.9692C364.474 81.1265 363.972 81.2051 363.391 81.2051ZM364.067 79.2466C365.1 79.2466 365.828 78.9492 366.251 78.3545C366.675 77.7598 366.894 76.8677 366.908 75.6782V75.3604C366.908 74.0889 366.703 73.1147 366.292 72.438C365.882 71.7544 365.134 71.4126 364.047 71.4126C363.179 71.4126 362.516 71.7646 362.058 72.4688C361.606 73.166 361.381 74.1401 361.381 75.3911C361.381 76.6421 361.606 77.5991 362.058 78.2622C362.516 78.9185 363.186 79.2466 364.067 79.2466ZM383.139 66.0088C385.074 66.0088 386.485 66.4053 387.374 67.1982C388.263 67.9912 388.707 69.1021 388.707 70.5308C388.707 71.1802 388.605 71.7988 388.4 72.3867C388.201 72.9678 387.873 73.4839 387.415 73.9351C386.957 74.3794 386.352 74.7314 385.6 74.9912C384.855 75.251 383.936 75.3809 382.842 75.3809H381.242V81H378.781V66.0088H383.139ZM382.975 68.0493H381.242V73.3301H382.586C383.358 73.3301 384.014 73.2412 384.554 73.0635C385.094 72.8789 385.504 72.5884 385.785 72.1919C386.065 71.7954 386.205 71.2725 386.205 70.623C386.205 69.7549 385.942 69.1089 385.416 68.6851C384.896 68.2612 384.083 68.0493 382.975 68.0493ZM404.083 73.3608C404.083 75.0493 403.768 76.4609 403.139 77.5957C402.51 78.7236 401.598 79.5747 400.402 80.1489C399.205 80.7163 397.763 81 396.074 81H391.911V66.0088H396.526C398.077 66.0088 399.417 66.2891 400.545 66.8496C401.673 67.4033 402.545 68.2271 403.16 69.3208C403.775 70.4077 404.083 71.7544 404.083 73.3608ZM401.519 73.4326C401.519 72.2021 401.324 71.1904 400.935 70.3975C400.552 69.6045 399.985 69.0166 399.233 68.6338C398.487 68.2441 397.568 68.0493 396.474 68.0493H394.372V78.939H396.115C397.927 78.939 399.28 78.4775 400.176 77.5547C401.071 76.6318 401.519 75.2578 401.519 73.4326ZM409.963 81H407.523V66.0088H415.992V68.0801H409.963V72.7559H415.603V74.8169H409.963V81Z" fill="white"/>
<rect x="511" y="17" width="226" height="103" rx="8" fill="#020202"/>
<rect x="512" y="18" width="224" height="101" rx="7" stroke="white" stroke-opacity="0.9" stroke-width="2"/>
<path d="M558.984 68.3481L562.542 61.5088H565.198L560.214 70.6758V76.5H557.763V70.7681L552.77 61.5088H555.446L558.984 68.3481ZM577.179 70.7988C577.179 71.7422 577.056 72.5796 576.81 73.311C576.564 74.0425 576.205 74.6611 575.733 75.167C575.262 75.666 574.694 76.0488 574.031 76.3154C573.368 76.5752 572.619 76.7051 571.785 76.7051C571.006 76.7051 570.292 76.5752 569.642 76.3154C568.993 76.0488 568.429 75.666 567.951 75.167C567.479 74.6611 567.113 74.0425 566.853 73.311C566.594 72.5796 566.464 71.7422 566.464 70.7988C566.464 69.5479 566.679 68.4883 567.11 67.6201C567.547 66.7451 568.169 66.0786 568.976 65.6206C569.783 65.1626 570.743 64.9336 571.857 64.9336C572.903 64.9336 573.826 65.1626 574.626 65.6206C575.426 66.0786 576.051 66.7451 576.502 67.6201C576.953 68.4951 577.179 69.5547 577.179 70.7988ZM568.945 70.7988C568.945 71.626 569.044 72.3335 569.243 72.9214C569.448 73.5093 569.762 73.9604 570.186 74.2749C570.61 74.5825 571.157 74.7363 571.826 74.7363C572.496 74.7363 573.043 74.5825 573.467 74.2749C573.891 73.9604 574.202 73.5093 574.4 72.9214C574.598 72.3335 574.698 71.626 574.698 70.7988C574.698 69.9717 574.598 69.271 574.4 68.6968C574.202 68.1157 573.891 67.6748 573.467 67.374C573.043 67.0664 572.493 66.9126 571.816 66.9126C570.818 66.9126 570.09 67.2476 569.632 67.9175C569.174 68.5874 568.945 69.5479 568.945 70.7988ZM590.053 65.1489V76.5H588.156L587.827 74.9722H587.694C587.455 75.3618 587.151 75.6865 586.782 75.9463C586.412 76.1992 586.002 76.3872 585.551 76.5103C585.1 76.6401 584.625 76.7051 584.126 76.7051C583.271 76.7051 582.54 76.5615 581.932 76.2744C581.33 75.9805 580.869 75.5293 580.547 74.9209C580.226 74.3125 580.065 73.5264 580.065 72.5625V65.1489H582.485V72.1113C582.485 72.9932 582.663 73.6528 583.018 74.0903C583.381 74.5278 583.941 74.7466 584.7 74.7466C585.432 74.7466 586.013 74.5962 586.443 74.2954C586.874 73.9946 587.178 73.5503 587.356 72.9624C587.54 72.3745 587.633 71.6533 587.633 70.7988V65.1489H590.053ZM599.471 64.9336C599.662 64.9336 599.871 64.9438 600.096 64.9644C600.322 64.9849 600.517 65.0122 600.681 65.0464L600.455 67.3022C600.311 67.2612 600.134 67.2305 599.922 67.21C599.717 67.1895 599.532 67.1792 599.368 67.1792C598.937 67.1792 598.527 67.251 598.138 67.3945C597.748 67.5312 597.403 67.7432 597.102 68.0303C596.801 68.3105 596.565 68.6626 596.394 69.0864C596.224 69.5103 596.138 70.0024 596.138 70.563V76.5H593.718V65.1489H595.605L595.933 67.1484H596.046C596.271 66.7451 596.552 66.376 596.887 66.041C597.222 65.7061 597.604 65.4395 598.035 65.2412C598.473 65.0361 598.951 64.9336 599.471 64.9336ZM608.904 61.5088H613.364C615.299 61.5088 616.758 61.7891 617.743 62.3496C618.727 62.9102 619.219 63.8774 619.219 65.2515C619.219 65.8257 619.117 66.3452 618.912 66.8101C618.713 67.2681 618.423 67.6475 618.04 67.9482C617.657 68.2422 617.186 68.4404 616.625 68.543V68.6455C617.206 68.748 617.722 68.9292 618.173 69.189C618.631 69.4487 618.99 69.8213 619.25 70.3066C619.517 70.792 619.65 71.4209 619.65 72.1934C619.65 73.1094 619.431 73.8887 618.994 74.5312C618.563 75.1738 617.944 75.6626 617.138 75.9976C616.338 76.3325 615.388 76.5 614.287 76.5H608.904V61.5088ZM611.365 67.6919H613.723C614.837 67.6919 615.61 67.5107 616.041 67.1484C616.471 66.7861 616.687 66.2563 616.687 65.5591C616.687 64.8481 616.43 64.3354 615.917 64.021C615.412 63.7065 614.605 63.5493 613.498 63.5493H611.365V67.6919ZM611.365 69.6812V74.439H613.959C615.107 74.439 615.914 74.2168 616.379 73.7725C616.844 73.3281 617.076 72.7266 617.076 71.9678C617.076 71.5029 616.97 71.0996 616.758 70.7578C616.553 70.416 616.215 70.1528 615.743 69.9683C615.271 69.7769 614.636 69.6812 613.836 69.6812H611.365ZM627.161 64.9336C628.596 64.9336 629.68 65.2515 630.411 65.8872C631.149 66.5229 631.519 67.5142 631.519 68.8608V76.5H629.806L629.345 74.8901H629.263C628.941 75.3003 628.61 75.6387 628.268 75.9053C627.926 76.1719 627.53 76.3701 627.079 76.5C626.634 76.6367 626.091 76.7051 625.448 76.7051C624.772 76.7051 624.167 76.582 623.633 76.3359C623.1 76.083 622.68 75.7002 622.372 75.1875C622.064 74.6748 621.911 74.0254 621.911 73.2393C621.911 72.0703 622.345 71.1919 623.213 70.604C624.088 70.0161 625.407 69.6914 627.171 69.6299L629.14 69.5581V68.9634C629.14 68.1772 628.955 67.6167 628.586 67.2817C628.224 66.9468 627.711 66.7793 627.048 66.7793C626.48 66.7793 625.93 66.8613 625.397 67.0254C624.864 67.1895 624.344 67.3911 623.838 67.6304L623.059 65.9282C623.613 65.6343 624.242 65.395 624.946 65.2104C625.657 65.0259 626.395 64.9336 627.161 64.9336ZM629.129 71.0757L627.663 71.127C626.46 71.168 625.616 71.373 625.13 71.7422C624.645 72.1113 624.402 72.6172 624.402 73.2598C624.402 73.8203 624.57 74.2305 624.905 74.4902C625.24 74.7432 625.681 74.8696 626.228 74.8696C627.062 74.8696 627.752 74.6338 628.299 74.1621C628.853 73.6836 629.129 72.9829 629.129 72.0601V71.0757ZM639.675 76.7051C638.602 76.7051 637.672 76.4966 636.886 76.0796C636.1 75.6626 635.495 75.0234 635.071 74.1621C634.648 73.3008 634.436 72.207 634.436 70.8809C634.436 69.5 634.668 68.3721 635.133 67.4971C635.598 66.6221 636.24 65.9761 637.061 65.5591C637.888 65.1421 638.835 64.9336 639.901 64.9336C640.578 64.9336 641.19 65.002 641.736 65.1387C642.29 65.2686 642.758 65.4292 643.141 65.6206L642.423 67.5483C642.006 67.3774 641.579 67.2339 641.142 67.1177C640.704 67.0015 640.284 66.9434 639.88 66.9434C639.217 66.9434 638.664 67.0903 638.219 67.3843C637.782 67.6782 637.454 68.1157 637.235 68.6968C637.023 69.2778 636.917 69.999 636.917 70.8604C636.917 71.6943 637.026 72.3984 637.245 72.9727C637.464 73.54 637.789 73.9707 638.219 74.2646C638.65 74.5518 639.18 74.6953 639.809 74.6953C640.431 74.6953 640.988 74.6201 641.48 74.4697C641.972 74.3193 642.437 74.1245 642.875 73.8853V75.9771C642.444 76.2231 641.982 76.4043 641.49 76.5205C640.998 76.6436 640.393 76.7051 639.675 76.7051ZM648.16 60.5449V68.2559C648.16 68.6045 648.147 68.9873 648.119 69.4043C648.092 69.8145 648.065 70.2007 648.037 70.563H648.088C648.266 70.3237 648.478 70.0435 648.724 69.7222C648.977 69.4009 649.216 69.1206 649.442 68.8813L652.908 65.1489H655.676L651.134 70.0298L655.974 76.5H653.144L649.514 71.5166L648.16 72.6753V76.5H645.751V60.5449H648.16ZM662.521 64.9336C663.532 64.9336 664.401 65.1421 665.125 65.5591C665.85 65.9761 666.407 66.5674 666.797 67.333C667.186 68.0986 667.381 69.0146 667.381 70.0811V71.373H659.803C659.831 72.4736 660.125 73.3213 660.685 73.916C661.253 74.5107 662.046 74.8081 663.064 74.8081C663.789 74.8081 664.438 74.7397 665.012 74.603C665.593 74.4595 666.192 74.251 666.807 73.9775V75.936C666.239 76.2026 665.662 76.3975 665.074 76.5205C664.486 76.6436 663.782 76.7051 662.962 76.7051C661.847 76.7051 660.866 76.4897 660.019 76.0591C659.178 75.6216 658.518 74.9722 658.04 74.1108C657.568 73.2495 657.332 72.1797 657.332 70.9014C657.332 69.6299 657.548 68.5498 657.978 67.6611C658.409 66.7725 659.014 66.0957 659.793 65.6309C660.572 65.166 661.482 64.9336 662.521 64.9336ZM662.521 66.7485C661.762 66.7485 661.147 66.9946 660.675 67.4868C660.21 67.979 659.937 68.7002 659.855 69.6504H665.023C665.016 69.083 664.92 68.5806 664.735 68.1431C664.558 67.7056 664.284 67.3638 663.915 67.1177C663.553 66.8716 663.088 66.7485 662.521 66.7485ZM676.225 64.9336C677.503 64.9336 678.498 65.2651 679.209 65.9282C679.926 66.5845 680.285 67.6406 680.285 69.0967V76.5H677.876V69.5479C677.876 68.666 677.695 68.0063 677.332 67.5688C676.97 67.1245 676.409 66.9023 675.651 66.9023C674.55 66.9023 673.784 67.2407 673.354 67.9175C672.93 68.5942 672.718 69.5752 672.718 70.8604V76.5H670.308V65.1489H672.185L672.523 66.687H672.656C672.903 66.2905 673.207 65.9658 673.569 65.7129C673.938 65.4531 674.348 65.2583 674.799 65.1284C675.258 64.9985 675.733 64.9336 676.225 64.9336ZM687.683 76.7051C686.33 76.7051 685.243 76.2129 684.423 75.2285C683.609 74.2373 683.202 72.7778 683.202 70.8501C683.202 68.9019 683.616 67.4287 684.443 66.4307C685.277 65.4326 686.374 64.9336 687.735 64.9336C688.309 64.9336 688.811 65.0122 689.242 65.1694C689.673 65.3198 690.042 65.5249 690.349 65.7847C690.664 66.0444 690.93 66.335 691.149 66.6562H691.262C691.228 66.4443 691.187 66.1401 691.139 65.7437C691.098 65.3403 691.077 64.9678 691.077 64.626V60.5449H693.497V76.5H691.611L691.18 74.9517H691.077C690.872 75.2798 690.613 75.5771 690.298 75.8438C689.99 76.1035 689.621 76.312 689.191 76.4692C688.767 76.6265 688.264 76.7051 687.683 76.7051ZM688.36 74.7466C689.392 74.7466 690.12 74.4492 690.544 73.8545C690.968 73.2598 691.187 72.3677 691.2 71.1782V70.8604C691.2 69.5889 690.995 68.6147 690.585 67.938C690.175 67.2544 689.426 66.9126 688.34 66.9126C687.471 66.9126 686.808 67.2646 686.35 67.9688C685.899 68.666 685.674 69.6401 685.674 70.8911C685.674 72.1421 685.899 73.0991 686.35 73.7622C686.808 74.4185 687.478 74.7466 688.36 74.7466Z" fill="white"/>
<rect width="98" height="18" transform="translate(574.5 8)" fill="#020202"/>
<path d="M586.526 13.0624C586.526 11.9234 587.634 11 589.001 11H590.126C590.5 11 590.801 11.2508 590.801 11.5625C590.801 11.8742 590.5 12.125 590.126 12.125H589.001C588.38 12.125 587.876 12.5445 587.876 13.0624V15.4999H589.226C589.6 15.4999 589.901 15.7507 589.901 16.0624C589.901 16.3741 589.6 16.6249 589.226 16.6249H587.876V20.1568C587.876 21.2068 586.929 22.0904 585.674 22.2075L585.25 22.2474C584.878 22.2825 584.547 22.0599 584.504 21.7505C584.462 21.4412 584.729 21.1646 585.101 21.1294L585.525 21.0896C586.096 21.0357 586.526 20.6349 586.526 20.1568V16.6249H585.177C584.802 16.6249 584.502 16.3741 584.502 16.0624C584.502 15.7507 584.802 15.4999 585.177 15.4999H586.526V13.0624ZM593.397 14.8624C592.612 15.9007 592.151 17.1522 592.151 18.4998C592.151 19.8474 592.612 21.099 593.397 22.1372C593.596 22.3997 593.501 22.7466 593.186 22.913C592.871 23.0794 592.455 22.9997 592.255 22.7372C591.335 21.5208 590.801 20.0631 590.801 18.4998C590.801 16.9366 591.335 15.4788 592.255 14.2624C592.455 13.9999 592.871 13.9202 593.186 14.0866C593.501 14.253 593.596 14.5999 593.397 14.8624ZM599.904 14.8624C599.705 14.5999 599.8 14.253 600.115 14.0866C600.43 13.9202 600.846 13.9999 601.046 14.2624C601.966 15.4788 602.5 16.9366 602.5 18.4998C602.5 20.0631 601.966 21.5208 601.046 22.7372C600.846 22.9997 600.43 23.0794 600.115 22.913C599.8 22.7466 599.705 22.3997 599.904 22.1372C600.689 21.099 601.15 19.8474 601.15 18.4998C601.15 17.1522 600.689 15.9007 599.904 14.8624ZM595.554 16.7889L596.651 17.703L597.747 16.7889C598.012 16.5686 598.439 16.5686 598.701 16.7889C598.962 17.0092 598.965 17.3655 598.701 17.5834L597.604 18.4975L598.701 19.4115C598.965 19.6318 598.965 19.9881 598.701 20.206C598.436 20.424 598.009 20.4263 597.747 20.206L596.651 19.292L595.554 20.206C595.289 20.4263 594.862 20.4263 594.6 20.206C594.339 19.9857 594.336 19.6295 594.6 19.4115L595.697 18.4975L594.6 17.5834C594.336 17.3631 594.336 17.0069 594.6 16.7889C594.865 16.571 595.292 16.5686 595.554 16.7889Z" fill="#FF5C00"/>
<path d="M610.282 22H608.771V12.7197H614.015V14.002H610.282V16.8965H613.773V18.1724H610.282V22ZM621.676 14.9731V22H620.502L620.299 21.0542H620.216C620.068 21.2954 619.88 21.4964 619.651 21.6572C619.423 21.8138 619.169 21.9302 618.89 22.0063C618.61 22.0868 618.316 22.127 618.007 22.127C617.478 22.127 617.026 22.0381 616.649 21.8604C616.277 21.6784 615.991 21.3991 615.792 21.0225C615.593 20.6458 615.494 20.1592 615.494 19.5625V14.9731H616.992V19.2832C616.992 19.8291 617.102 20.2375 617.322 20.5083C617.546 20.7791 617.893 20.9146 618.363 20.9146C618.816 20.9146 619.175 20.8215 619.442 20.6353C619.708 20.4491 619.897 20.174 620.007 19.8101C620.121 19.4461 620.178 18.9997 620.178 18.4707V14.9731H621.676ZM627.478 14.8398C628.269 14.8398 628.885 15.0451 629.325 15.4556C629.77 15.8618 629.992 16.5156 629.992 17.417V22H628.5V17.6963C628.5 17.1504 628.388 16.742 628.164 16.4712C627.939 16.1961 627.592 16.0586 627.123 16.0586C626.441 16.0586 625.967 16.2681 625.701 16.687C625.438 17.106 625.307 17.7132 625.307 18.5088V22H623.815V14.9731H624.977L625.187 15.9253H625.269C625.421 15.6799 625.61 15.4788 625.834 15.3223C626.062 15.1615 626.316 15.0409 626.596 14.9604C626.879 14.88 627.173 14.8398 627.478 14.8398ZM634.911 22.127C634.247 22.127 633.671 21.9979 633.185 21.7397C632.698 21.4816 632.323 21.0859 632.061 20.5527C631.799 20.0195 631.667 19.3424 631.667 18.5215C631.667 17.6667 631.811 16.9684 632.099 16.4268C632.387 15.8851 632.785 15.4852 633.292 15.2271C633.805 14.9689 634.391 14.8398 635.051 14.8398C635.47 14.8398 635.848 14.8822 636.187 14.9668C636.53 15.0472 636.82 15.1466 637.057 15.2651L636.612 16.4585C636.354 16.3527 636.09 16.2638 635.819 16.1919C635.548 16.12 635.288 16.084 635.038 16.084C634.628 16.084 634.285 16.175 634.01 16.3569C633.739 16.5389 633.536 16.8097 633.4 17.1694C633.269 17.5291 633.204 17.9756 633.204 18.5088C633.204 19.0251 633.271 19.4609 633.407 19.8164C633.542 20.1676 633.743 20.4342 634.01 20.6162C634.276 20.7939 634.604 20.8828 634.994 20.8828C635.379 20.8828 635.724 20.8363 636.028 20.7432C636.333 20.6501 636.621 20.5295 636.892 20.3813V21.6763C636.625 21.8286 636.339 21.9408 636.035 22.0127C635.73 22.0889 635.355 22.127 634.911 22.127ZM641.157 20.9209C641.352 20.9209 641.544 20.904 641.735 20.8701C641.925 20.832 642.099 20.7876 642.255 20.7368V21.8667C642.09 21.9386 641.877 22 641.614 22.0508C641.352 22.1016 641.079 22.127 640.795 22.127C640.398 22.127 640.04 22.0614 639.723 21.9302C639.405 21.7948 639.153 21.5641 638.967 21.2383C638.781 20.9124 638.688 20.4618 638.688 19.8862V16.1094H637.729V15.4429L638.758 14.916L639.247 13.4116H640.186V14.9731H642.198V16.1094H640.186V19.8672C640.186 20.2227 640.275 20.4871 640.453 20.6606C640.63 20.8341 640.865 20.9209 641.157 20.9209ZM645.175 14.9731V22H643.684V14.9731H645.175ZM644.439 12.2817C644.667 12.2817 644.864 12.3431 645.029 12.4658C645.199 12.5885 645.283 12.8001 645.283 13.1006C645.283 13.3968 645.199 13.6084 645.029 13.7354C644.864 13.8581 644.667 13.9194 644.439 13.9194C644.202 13.9194 644.001 13.8581 643.836 13.7354C643.675 13.6084 643.595 13.3968 643.595 13.1006C643.595 12.8001 643.675 12.5885 643.836 12.4658C644.001 12.3431 644.202 12.2817 644.439 12.2817ZM653.535 18.4707C653.535 19.0547 653.459 19.5731 653.307 20.0259C653.154 20.4787 652.932 20.8617 652.64 21.1748C652.348 21.4837 651.997 21.7207 651.586 21.8857C651.176 22.0465 650.713 22.127 650.196 22.127C649.714 22.127 649.272 22.0465 648.87 21.8857C648.468 21.7207 648.118 21.4837 647.822 21.1748C647.53 20.8617 647.304 20.4787 647.143 20.0259C646.982 19.5731 646.902 19.0547 646.902 18.4707C646.902 17.6963 647.035 17.0404 647.302 16.5029C647.573 15.9613 647.958 15.5487 648.457 15.2651C648.956 14.9816 649.551 14.8398 650.241 14.8398C650.888 14.8398 651.459 14.9816 651.955 15.2651C652.45 15.5487 652.837 15.9613 653.116 16.5029C653.396 17.0446 653.535 17.7005 653.535 18.4707ZM648.438 18.4707C648.438 18.9827 648.499 19.4207 648.622 19.7847C648.749 20.1486 648.944 20.4279 649.206 20.6226C649.468 20.813 649.807 20.9082 650.222 20.9082C650.636 20.9082 650.975 20.813 651.237 20.6226C651.5 20.4279 651.692 20.1486 651.815 19.7847C651.938 19.4207 651.999 18.9827 651.999 18.4707C651.999 17.9587 651.938 17.5249 651.815 17.1694C651.692 16.8097 651.5 16.5368 651.237 16.3506C650.975 16.1602 650.634 16.0649 650.215 16.0649C649.597 16.0649 649.147 16.2723 648.863 16.687C648.58 17.1017 648.438 17.6963 648.438 18.4707ZM658.912 14.8398C659.703 14.8398 660.319 15.0451 660.759 15.4556C661.203 15.8618 661.425 16.5156 661.425 17.417V22H659.934V17.6963C659.934 17.1504 659.821 16.742 659.597 16.4712C659.373 16.1961 659.026 16.0586 658.556 16.0586C657.875 16.0586 657.401 16.2681 657.134 16.687C656.872 17.106 656.741 17.7132 656.741 18.5088V22H655.249V14.9731H656.411L656.62 15.9253H656.703C656.855 15.6799 657.043 15.4788 657.268 15.3223C657.496 15.1615 657.75 15.0409 658.029 14.9604C658.313 14.88 658.607 14.8398 658.912 14.8398Z" fill="#FF5C00"/>
</svg>
