<svg width="702" height="467" viewBox="0 0 702 467" fill="none" xmlns="http://www.w3.org/2000/svg">
<rect y="68" width="226" height="103" rx="8" fill="#020202"/>
<rect x="1" y="69" width="224" height="101" rx="7" stroke="white" stroke-opacity="0.9" stroke-width="2"/>
<path d="M102.923 112.509V122.209C102.923 123.255 102.701 124.191 102.257 125.019C101.819 125.846 101.156 126.502 100.268 126.987C99.3788 127.466 98.2612 127.705 96.9145 127.705C94.9936 127.705 93.5307 127.203 92.5258 126.198C91.5278 125.186 91.0287 123.843 91.0287 122.168V112.509H93.4897V121.953C93.4897 123.204 93.7836 124.126 94.3715 124.721C94.9594 125.316 95.8378 125.613 97.0068 125.613C97.8134 125.613 98.4697 125.473 98.9755 125.193C99.4882 124.906 99.8642 124.489 100.103 123.942C100.35 123.388 100.473 122.722 100.473 121.942V112.509H102.923ZM114.351 124.26C114.351 125.005 114.17 125.634 113.808 126.146C113.445 126.659 112.916 127.049 112.218 127.315C111.528 127.575 110.68 127.705 109.675 127.705C108.882 127.705 108.199 127.647 107.624 127.531C107.057 127.421 106.52 127.25 106.015 127.018V124.937C106.555 125.189 107.16 125.408 107.83 125.593C108.506 125.777 109.145 125.87 109.747 125.87C110.54 125.87 111.111 125.747 111.459 125.5C111.808 125.248 111.982 124.913 111.982 124.496C111.982 124.25 111.911 124.031 111.767 123.839C111.63 123.641 111.371 123.439 110.988 123.234C110.612 123.022 110.058 122.77 109.327 122.476C108.609 122.188 108.004 121.901 107.512 121.614C107.02 121.327 106.647 120.982 106.394 120.579C106.141 120.168 106.015 119.646 106.015 119.01C106.015 118.005 106.411 117.243 107.204 116.723C108.004 116.197 109.06 115.934 110.373 115.934C111.07 115.934 111.726 116.005 112.341 116.149C112.963 116.286 113.572 116.487 114.166 116.754L113.408 118.569C112.895 118.343 112.379 118.159 111.859 118.015C111.347 117.865 110.824 117.79 110.291 117.79C109.668 117.79 109.193 117.885 108.865 118.077C108.544 118.268 108.383 118.542 108.383 118.897C108.383 119.164 108.462 119.389 108.619 119.574C108.776 119.758 109.046 119.943 109.429 120.127C109.819 120.312 110.359 120.541 111.049 120.814C111.726 121.074 112.311 121.348 112.803 121.635C113.302 121.915 113.685 122.26 113.951 122.67C114.218 123.081 114.351 123.61 114.351 124.26ZM121.688 115.934C122.699 115.934 123.567 116.142 124.292 116.559C125.017 116.976 125.574 117.567 125.963 118.333C126.353 119.099 126.548 120.015 126.548 121.081V122.373H118.97C118.998 123.474 119.292 124.321 119.852 124.916C120.419 125.511 121.212 125.808 122.231 125.808C122.956 125.808 123.605 125.74 124.179 125.603C124.76 125.459 125.358 125.251 125.974 124.978V126.936C125.406 127.203 124.829 127.397 124.241 127.521C123.653 127.644 122.949 127.705 122.128 127.705C121.014 127.705 120.033 127.49 119.186 127.059C118.345 126.622 117.685 125.972 117.207 125.111C116.735 124.25 116.499 123.18 116.499 121.901C116.499 120.63 116.714 119.55 117.145 118.661C117.576 117.772 118.181 117.096 118.96 116.631C119.739 116.166 120.648 115.934 121.688 115.934ZM121.688 117.749C120.929 117.749 120.313 117.995 119.842 118.487C119.377 118.979 119.104 119.7 119.021 120.65H124.189C124.183 120.083 124.087 119.581 123.902 119.143C123.725 118.706 123.451 118.364 123.082 118.118C122.72 117.872 122.255 117.749 121.688 117.749ZM135.228 115.934C135.419 115.934 135.628 115.944 135.853 115.964C136.079 115.985 136.273 116.012 136.438 116.046L136.212 118.302C136.068 118.261 135.891 118.23 135.679 118.21C135.474 118.189 135.289 118.179 135.125 118.179C134.694 118.179 134.284 118.251 133.895 118.395C133.505 118.531 133.16 118.743 132.859 119.03C132.558 119.311 132.322 119.663 132.151 120.086C131.981 120.51 131.895 121.002 131.895 121.563V127.5H129.475V116.149H131.362L131.69 118.148H131.803C132.028 117.745 132.309 117.376 132.644 117.041C132.979 116.706 133.361 116.439 133.792 116.241C134.23 116.036 134.708 115.934 135.228 115.934Z" fill="white"/>
<rect y="336" width="226" height="103" rx="8" fill="#020202"/>
<rect x="1" y="337" width="224" height="101" rx="7" stroke="white" stroke-opacity="0.9" stroke-width="2"/>
<path d="M102.923 380.509V390.209C102.923 391.255 102.701 392.191 102.257 393.019C101.819 393.846 101.156 394.502 100.268 394.987C99.3788 395.466 98.2612 395.705 96.9145 395.705C94.9936 395.705 93.5307 395.203 92.5258 394.198C91.5278 393.186 91.0287 391.843 91.0287 390.168V380.509H93.4897V389.953C93.4897 391.204 93.7836 392.126 94.3715 392.721C94.9594 393.316 95.8378 393.613 97.0068 393.613C97.8134 393.613 98.4697 393.473 98.9755 393.193C99.4882 392.906 99.8642 392.489 100.103 391.942C100.35 391.388 100.473 390.722 100.473 389.942V380.509H102.923ZM114.351 392.26C114.351 393.005 114.17 393.634 113.808 394.146C113.445 394.659 112.916 395.049 112.218 395.315C111.528 395.575 110.68 395.705 109.675 395.705C108.882 395.705 108.199 395.647 107.624 395.531C107.057 395.421 106.52 395.25 106.015 395.018V392.937C106.555 393.189 107.16 393.408 107.83 393.593C108.506 393.777 109.145 393.87 109.747 393.87C110.54 393.87 111.111 393.747 111.459 393.5C111.808 393.248 111.982 392.913 111.982 392.496C111.982 392.25 111.911 392.031 111.767 391.839C111.63 391.641 111.371 391.439 110.988 391.234C110.612 391.022 110.058 390.77 109.327 390.476C108.609 390.188 108.004 389.901 107.512 389.614C107.02 389.327 106.647 388.982 106.394 388.579C106.141 388.168 106.015 387.646 106.015 387.01C106.015 386.005 106.411 385.243 107.204 384.723C108.004 384.197 109.06 383.934 110.373 383.934C111.07 383.934 111.726 384.005 112.341 384.149C112.963 384.286 113.572 384.487 114.166 384.754L113.408 386.569C112.895 386.343 112.379 386.159 111.859 386.015C111.347 385.865 110.824 385.79 110.291 385.79C109.668 385.79 109.193 385.885 108.865 386.077C108.544 386.268 108.383 386.542 108.383 386.897C108.383 387.164 108.462 387.389 108.619 387.574C108.776 387.758 109.046 387.943 109.429 388.127C109.819 388.312 110.359 388.541 111.049 388.814C111.726 389.074 112.311 389.348 112.803 389.635C113.302 389.915 113.685 390.26 113.951 390.67C114.218 391.081 114.351 391.61 114.351 392.26ZM121.688 383.934C122.699 383.934 123.567 384.142 124.292 384.559C125.017 384.976 125.574 385.567 125.963 386.333C126.353 387.099 126.548 388.015 126.548 389.081V390.373H118.97C118.998 391.474 119.292 392.321 119.852 392.916C120.419 393.511 121.212 393.808 122.231 393.808C122.956 393.808 123.605 393.74 124.179 393.603C124.76 393.459 125.358 393.251 125.974 392.978V394.936C125.406 395.203 124.829 395.397 124.241 395.521C123.653 395.644 122.949 395.705 122.128 395.705C121.014 395.705 120.033 395.49 119.186 395.059C118.345 394.622 117.685 393.972 117.207 393.111C116.735 392.25 116.499 391.18 116.499 389.901C116.499 388.63 116.714 387.55 117.145 386.661C117.576 385.772 118.181 385.096 118.96 384.631C119.739 384.166 120.648 383.934 121.688 383.934ZM121.688 385.749C120.929 385.749 120.313 385.995 119.842 386.487C119.377 386.979 119.104 387.7 119.021 388.65H124.189C124.183 388.083 124.087 387.581 123.902 387.143C123.725 386.706 123.451 386.364 123.082 386.118C122.72 385.872 122.255 385.749 121.688 385.749ZM135.228 383.934C135.419 383.934 135.628 383.944 135.853 383.964C136.079 383.985 136.273 384.012 136.438 384.046L136.212 386.302C136.068 386.261 135.891 386.23 135.679 386.21C135.474 386.189 135.289 386.179 135.125 386.179C134.694 386.179 134.284 386.251 133.895 386.395C133.505 386.531 133.16 386.743 132.859 387.03C132.558 387.311 132.322 387.663 132.151 388.086C131.981 388.51 131.895 389.002 131.895 389.563V395.5H129.475V384.149H131.362L131.69 386.148H131.803C132.028 385.745 132.309 385.376 132.644 385.041C132.979 384.706 133.361 384.439 133.792 384.241C134.23 384.036 134.708 383.934 135.228 383.934Z" fill="white"/>
<rect x="456" y="68" width="226" height="103" rx="8" fill="#020202"/>
<rect x="457" y="69" width="224" height="101" rx="7" stroke="white" stroke-opacity="0.9" stroke-width="2"/>
<path d="M534.571 119.861C534.571 121.549 534.256 122.961 533.627 124.096C532.998 125.224 532.086 126.075 530.89 126.649C529.693 127.216 528.251 127.5 526.562 127.5H522.399V112.509H527.014C528.565 112.509 529.905 112.789 531.033 113.35C532.161 113.903 533.033 114.727 533.648 115.821C534.263 116.908 534.571 118.254 534.571 119.861ZM532.007 119.933C532.007 118.702 531.812 117.69 531.423 116.897C531.04 116.104 530.473 115.517 529.721 115.134C528.975 114.744 528.056 114.549 526.962 114.549H524.86V125.439H526.603C528.415 125.439 529.768 124.978 530.664 124.055C531.559 123.132 532.007 121.758 532.007 119.933ZM542.215 115.934C543.65 115.934 544.734 116.251 545.465 116.887C546.204 117.523 546.573 118.514 546.573 119.861V127.5H544.86L544.399 125.89H544.317C543.996 126.3 543.664 126.639 543.322 126.905C542.98 127.172 542.584 127.37 542.133 127.5C541.688 127.637 541.145 127.705 540.502 127.705C539.826 127.705 539.221 127.582 538.687 127.336C538.154 127.083 537.734 126.7 537.426 126.188C537.119 125.675 536.965 125.025 536.965 124.239C536.965 123.07 537.399 122.192 538.267 121.604C539.142 121.016 540.461 120.691 542.225 120.63L544.194 120.558V119.963C544.194 119.177 544.009 118.617 543.64 118.282C543.278 117.947 542.765 117.779 542.102 117.779C541.535 117.779 540.984 117.861 540.451 118.025C539.918 118.189 539.398 118.391 538.892 118.63L538.113 116.928C538.667 116.634 539.296 116.395 540 116.21C540.711 116.026 541.449 115.934 542.215 115.934ZM544.183 122.076L542.717 122.127C541.514 122.168 540.67 122.373 540.184 122.742C539.699 123.111 539.456 123.617 539.456 124.26C539.456 124.82 539.624 125.23 539.959 125.49C540.294 125.743 540.735 125.87 541.282 125.87C542.116 125.87 542.806 125.634 543.353 125.162C543.907 124.684 544.183 123.983 544.183 123.06V122.076ZM554.381 125.757C554.695 125.757 555.006 125.729 555.314 125.675C555.622 125.613 555.902 125.542 556.155 125.459V127.285C555.888 127.401 555.543 127.5 555.119 127.582C554.695 127.664 554.254 127.705 553.796 127.705C553.154 127.705 552.576 127.599 552.063 127.387C551.551 127.168 551.144 126.796 550.843 126.27C550.542 125.743 550.392 125.015 550.392 124.085V117.984H548.844V116.908L550.505 116.057L551.294 113.626H552.812V116.149H556.062V117.984H552.812V124.055C552.812 124.629 552.956 125.056 553.243 125.336C553.53 125.617 553.909 125.757 554.381 125.757ZM563.122 115.934C564.558 115.934 565.641 116.251 566.373 116.887C567.111 117.523 567.48 118.514 567.48 119.861V127.5H565.768L565.306 125.89H565.224C564.903 126.3 564.571 126.639 564.229 126.905C563.888 127.172 563.491 127.37 563.04 127.5C562.596 127.637 562.052 127.705 561.41 127.705C560.733 127.705 560.128 127.582 559.595 127.336C559.062 127.083 558.641 126.7 558.333 126.188C558.026 125.675 557.872 125.025 557.872 124.239C557.872 123.07 558.306 122.192 559.174 121.604C560.049 121.016 561.369 120.691 563.132 120.63L565.101 120.558V119.963C565.101 119.177 564.916 118.617 564.547 118.282C564.185 117.947 563.672 117.779 563.009 117.779C562.442 117.779 561.892 117.861 561.358 118.025C560.825 118.189 560.306 118.391 559.8 118.63L559.02 116.928C559.574 116.634 560.203 116.395 560.907 116.21C561.618 116.026 562.356 115.934 563.122 115.934ZM565.091 122.076L563.624 122.127C562.421 122.168 561.577 122.373 561.092 122.742C560.606 123.111 560.364 123.617 560.364 124.26C560.364 124.82 560.531 125.23 560.866 125.49C561.201 125.743 561.642 125.87 562.189 125.87C563.023 125.87 563.713 125.634 564.26 125.162C564.814 124.684 565.091 123.983 565.091 123.06V122.076ZM573.473 111.545V115.39C573.473 115.834 573.459 116.272 573.432 116.703C573.412 117.126 573.391 117.458 573.371 117.697H573.473C573.781 117.205 574.208 116.792 574.755 116.457C575.309 116.115 576.016 115.944 576.877 115.944C578.224 115.944 579.308 116.439 580.128 117.431C580.948 118.415 581.358 119.875 581.358 121.809C581.358 123.094 581.17 124.174 580.794 125.049C580.418 125.924 579.889 126.587 579.205 127.039C578.528 127.483 577.732 127.705 576.816 127.705C575.955 127.705 575.257 127.548 574.724 127.233C574.198 126.912 573.784 126.54 573.483 126.116H573.309L572.868 127.5H571.063V111.545H573.473ZM576.242 117.902C575.558 117.902 575.015 118.039 574.611 118.312C574.215 118.586 573.928 118.996 573.75 119.543C573.572 120.083 573.48 120.77 573.473 121.604V121.819C573.473 123.084 573.671 124.051 574.068 124.721C574.471 125.391 575.203 125.726 576.262 125.726C577.103 125.726 577.749 125.388 578.2 124.711C578.651 124.027 578.877 123.05 578.877 121.778C578.877 120.493 578.651 119.526 578.2 118.876C577.756 118.227 577.103 117.902 576.242 117.902ZM588.808 115.934C590.243 115.934 591.327 116.251 592.058 116.887C592.796 117.523 593.166 118.514 593.166 119.861V127.5H591.453L590.992 125.89H590.91C590.588 126.3 590.257 126.639 589.915 126.905C589.573 127.172 589.177 127.37 588.726 127.5C588.281 127.637 587.738 127.705 587.095 127.705C586.419 127.705 585.814 127.582 585.28 127.336C584.747 127.083 584.327 126.7 584.019 126.188C583.711 125.675 583.558 125.025 583.558 124.239C583.558 123.07 583.992 122.192 584.86 121.604C585.735 121.016 587.054 120.691 588.818 120.63L590.787 120.558V119.963C590.787 119.177 590.602 118.617 590.233 118.282C589.871 117.947 589.358 117.779 588.695 117.779C588.128 117.779 587.577 117.861 587.044 118.025C586.511 118.189 585.991 118.391 585.485 118.63L584.706 116.928C585.26 116.634 585.889 116.395 586.593 116.21C587.304 116.026 588.042 115.934 588.808 115.934ZM590.776 122.076L589.31 122.127C588.107 122.168 587.263 122.373 586.777 122.742C586.292 123.111 586.049 123.617 586.049 124.26C586.049 124.82 586.217 125.23 586.552 125.49C586.887 125.743 587.328 125.87 587.875 125.87C588.709 125.87 589.399 125.634 589.946 125.162C590.5 124.684 590.776 123.983 590.776 123.06V122.076ZM604.378 124.26C604.378 125.005 604.197 125.634 603.835 126.146C603.472 126.659 602.942 127.049 602.245 127.315C601.555 127.575 600.707 127.705 599.702 127.705C598.909 127.705 598.226 127.647 597.651 127.531C597.084 127.421 596.547 127.25 596.042 127.018V124.937C596.582 125.189 597.187 125.408 597.857 125.593C598.533 125.777 599.172 125.87 599.774 125.87C600.567 125.87 601.138 125.747 601.486 125.5C601.835 125.248 602.009 124.913 602.009 124.496C602.009 124.25 601.938 124.031 601.794 123.839C601.657 123.641 601.398 123.439 601.015 123.234C600.639 123.022 600.085 122.77 599.354 122.476C598.636 122.188 598.031 121.901 597.539 121.614C597.046 121.327 596.674 120.982 596.421 120.579C596.168 120.168 596.042 119.646 596.042 119.01C596.042 118.005 596.438 117.243 597.231 116.723C598.031 116.197 599.087 115.934 600.4 115.934C601.097 115.934 601.753 116.005 602.368 116.149C602.99 116.286 603.599 116.487 604.193 116.754L603.435 118.569C602.922 118.343 602.406 118.159 601.886 118.015C601.374 117.865 600.851 117.79 600.317 117.79C599.695 117.79 599.22 117.885 598.892 118.077C598.571 118.268 598.41 118.542 598.41 118.897C598.41 119.164 598.489 119.389 598.646 119.574C598.803 119.758 599.073 119.943 599.456 120.127C599.846 120.312 600.386 120.541 601.076 120.814C601.753 121.074 602.338 121.348 602.83 121.635C603.329 121.915 603.712 122.26 603.978 122.67C604.245 123.081 604.378 123.61 604.378 124.26ZM611.714 115.934C612.726 115.934 613.594 116.142 614.319 116.559C615.044 116.976 615.601 117.567 615.99 118.333C616.38 119.099 616.575 120.015 616.575 121.081V122.373H608.997C609.025 123.474 609.318 124.321 609.879 124.916C610.446 125.511 611.239 125.808 612.258 125.808C612.983 125.808 613.632 125.74 614.206 125.603C614.787 125.459 615.385 125.251 616.001 124.978V126.936C615.433 127.203 614.856 127.397 614.268 127.521C613.68 127.644 612.976 127.705 612.155 127.705C611.041 127.705 610.06 127.49 609.213 127.059C608.372 126.622 607.712 125.972 607.234 125.111C606.762 124.25 606.526 123.18 606.526 121.901C606.526 120.63 606.741 119.55 607.172 118.661C607.603 117.772 608.208 117.096 608.987 116.631C609.766 116.166 610.675 115.934 611.714 115.934ZM611.714 117.749C610.956 117.749 610.34 117.995 609.869 118.487C609.404 118.979 609.131 119.7 609.048 120.65H614.216C614.21 120.083 614.114 119.581 613.929 119.143C613.752 118.706 613.478 118.364 613.109 118.118C612.747 117.872 612.282 117.749 611.714 117.749Z" fill="white"/>
<rect width="77" height="18" transform="translate(530 59)" fill="#020202"/>
<g clip-path="url(#clip0_12_1105)">
<path d="M548.949 66.752C549.794 66.752 550.604 66.4226 551.202 65.8364C551.799 65.2501 552.134 64.455 552.134 63.626C552.134 62.7969 551.799 62.0018 551.202 61.4156C550.604 60.8293 549.794 60.5 548.949 60.5C548.105 60.5 547.294 60.8293 546.697 61.4156C546.1 62.0018 545.764 62.7969 545.764 63.626C545.764 64.455 546.1 65.2501 546.697 65.8364C547.294 66.4226 548.105 66.752 548.949 66.752ZM546.322 68.0615L547.914 70.7686C548.352 71.5156 548.093 72.4736 547.331 72.9043L544.573 74.4687C543.812 74.8994 542.836 74.6445 542.397 73.8975L540.806 71.1875C540.367 70.4404 540.627 69.4824 541.388 69.0518L544.146 67.4902C544.908 67.0596 545.884 67.3145 546.322 68.0615ZM551.654 67.8945C551.693 67.6719 551.857 67.4902 552.078 67.4258C552.299 67.3613 552.537 67.4229 552.696 67.5898C553.806 68.75 555.755 70.7832 556.779 71.8525C556.922 72.002 556.979 72.2158 556.922 72.415C556.866 72.6143 556.711 72.7725 556.511 72.8311C555.173 73.2236 552.74 73.9385 551.403 74.3311C551.2 74.3896 550.982 74.3428 550.824 74.2051C550.666 74.0674 550.591 73.8594 550.63 73.6572C550.887 72.21 551.376 69.4619 551.654 67.8945Z" fill="#FF5C00"/>
</g>
<path d="M570.098 73L569.19 70.4229H565.642L564.734 73H563.128L566.581 63.6816H568.27L571.716 73H570.098ZM568.796 69.1152L567.914 66.5762C567.88 66.4661 567.832 66.3117 567.768 66.1128C567.705 65.9097 567.641 65.7044 567.578 65.4971C567.514 65.2855 567.461 65.1077 567.419 64.9639C567.377 65.1374 567.324 65.332 567.26 65.5479C567.201 65.7594 567.142 65.9583 567.083 66.1445C567.028 66.3307 566.985 66.4746 566.956 66.5762L566.067 69.1152H568.796ZM575.62 73.127C574.956 73.127 574.38 72.9979 573.894 72.7397C573.407 72.4816 573.032 72.0859 572.77 71.5527C572.508 71.0195 572.376 70.3424 572.376 69.5215C572.376 68.6667 572.52 67.9684 572.808 67.4268C573.096 66.8851 573.494 66.4852 574.001 66.2271C574.514 65.9689 575.1 65.8398 575.76 65.8398C576.179 65.8398 576.557 65.8822 576.896 65.9668C577.239 66.0472 577.529 66.1466 577.766 66.2651L577.321 67.4585C577.063 67.3527 576.799 67.2638 576.528 67.1919C576.257 67.12 575.997 67.084 575.747 67.084C575.337 67.084 574.994 67.175 574.719 67.3569C574.448 67.5389 574.245 67.8097 574.109 68.1694C573.978 68.5291 573.913 68.9756 573.913 69.5088C573.913 70.0251 573.98 70.4609 574.116 70.8164C574.251 71.1676 574.452 71.4342 574.719 71.6162C574.985 71.7939 575.313 71.8828 575.703 71.8828C576.088 71.8828 576.433 71.8363 576.737 71.7432C577.042 71.6501 577.33 71.5295 577.601 71.3813V72.6763C577.334 72.8286 577.048 72.9408 576.744 73.0127C576.439 73.0889 576.064 73.127 575.62 73.127ZM581.866 71.9209C582.061 71.9209 582.253 71.904 582.444 71.8701C582.634 71.832 582.808 71.7876 582.964 71.7368V72.8667C582.799 72.9386 582.586 73 582.323 73.0508C582.061 73.1016 581.788 73.127 581.504 73.127C581.107 73.127 580.749 73.0614 580.432 72.9302C580.114 72.7948 579.862 72.5641 579.676 72.2383C579.49 71.9124 579.397 71.4618 579.397 70.8862V67.1094H578.438V66.4429L579.467 65.916L579.956 64.4116H580.895V65.9731H582.907V67.1094H580.895V70.8672C580.895 71.2227 580.984 71.4871 581.162 71.6606C581.339 71.8341 581.574 71.9209 581.866 71.9209ZM590.613 69.4707C590.613 70.0547 590.537 70.5731 590.385 71.0259C590.232 71.4787 590.01 71.8617 589.718 72.1748C589.426 72.4837 589.075 72.7207 588.665 72.8857C588.254 73.0465 587.791 73.127 587.274 73.127C586.792 73.127 586.35 73.0465 585.948 72.8857C585.546 72.7207 585.197 72.4837 584.9 72.1748C584.608 71.8617 584.382 71.4787 584.221 71.0259C584.06 70.5731 583.98 70.0547 583.98 69.4707C583.98 68.6963 584.113 68.0404 584.38 67.5029C584.651 66.9613 585.036 66.5487 585.535 66.2651C586.035 65.9816 586.629 65.8398 587.319 65.8398C587.966 65.8398 588.538 65.9816 589.033 66.2651C589.528 66.5487 589.915 66.9613 590.194 67.5029C590.474 68.0446 590.613 68.7005 590.613 69.4707ZM585.516 69.4707C585.516 69.9827 585.577 70.4207 585.7 70.7847C585.827 71.1486 586.022 71.4279 586.284 71.6226C586.547 71.813 586.885 71.9082 587.3 71.9082C587.715 71.9082 588.053 71.813 588.315 71.6226C588.578 71.4279 588.77 71.1486 588.893 70.7847C589.016 70.4207 589.077 69.9827 589.077 69.4707C589.077 68.9587 589.016 68.5249 588.893 68.1694C588.77 67.8097 588.578 67.5368 588.315 67.3506C588.053 67.1602 587.712 67.0649 587.293 67.0649C586.676 67.0649 586.225 67.2723 585.941 67.687C585.658 68.1017 585.516 68.6963 585.516 69.4707ZM595.888 65.8398C596.007 65.8398 596.136 65.8462 596.275 65.8589C596.415 65.8716 596.536 65.8885 596.637 65.9097L596.498 67.3062C596.409 67.2808 596.299 67.2617 596.167 67.249C596.041 67.2363 595.926 67.23 595.825 67.23C595.558 67.23 595.304 67.2744 595.063 67.3633C594.822 67.4479 594.608 67.5791 594.422 67.7568C594.236 67.9303 594.09 68.1483 593.984 68.4106C593.878 68.673 593.825 68.9777 593.825 69.3247V73H592.327V65.9731H593.495L593.698 67.2109H593.768C593.908 66.9613 594.081 66.7327 594.289 66.5254C594.496 66.318 594.733 66.153 595 66.0303C595.27 65.9033 595.567 65.8398 595.888 65.8398Z" fill="#FF5C00"/>
<rect x="456" y="336" width="226" height="103" rx="8" fill="#020202"/>
<rect x="457" y="337" width="224" height="101" rx="7" stroke="white" stroke-opacity="0.9" stroke-width="2"/>
<path d="M534.571 387.861C534.571 389.549 534.256 390.961 533.627 392.096C532.998 393.224 532.086 394.075 530.89 394.649C529.693 395.216 528.251 395.5 526.562 395.5H522.399V380.509H527.014C528.565 380.509 529.905 380.789 531.033 381.35C532.161 381.903 533.033 382.727 533.648 383.821C534.263 384.908 534.571 386.254 534.571 387.861ZM532.007 387.933C532.007 386.702 531.812 385.69 531.423 384.897C531.04 384.104 530.473 383.517 529.721 383.134C528.975 382.744 528.056 382.549 526.962 382.549H524.86V393.439H526.603C528.415 393.439 529.768 392.978 530.664 392.055C531.559 391.132 532.007 389.758 532.007 387.933ZM542.215 383.934C543.65 383.934 544.734 384.251 545.465 384.887C546.204 385.523 546.573 386.514 546.573 387.861V395.5H544.86L544.399 393.89H544.317C543.996 394.3 543.664 394.639 543.322 394.905C542.98 395.172 542.584 395.37 542.133 395.5C541.688 395.637 541.145 395.705 540.502 395.705C539.826 395.705 539.221 395.582 538.687 395.336C538.154 395.083 537.734 394.7 537.426 394.188C537.119 393.675 536.965 393.025 536.965 392.239C536.965 391.07 537.399 390.192 538.267 389.604C539.142 389.016 540.461 388.691 542.225 388.63L544.194 388.558V387.963C544.194 387.177 544.009 386.617 543.64 386.282C543.278 385.947 542.765 385.779 542.102 385.779C541.535 385.779 540.984 385.861 540.451 386.025C539.918 386.189 539.398 386.391 538.892 386.63L538.113 384.928C538.667 384.634 539.296 384.395 540 384.21C540.711 384.026 541.449 383.934 542.215 383.934ZM544.183 390.076L542.717 390.127C541.514 390.168 540.67 390.373 540.184 390.742C539.699 391.111 539.456 391.617 539.456 392.26C539.456 392.82 539.624 393.23 539.959 393.49C540.294 393.743 540.735 393.87 541.282 393.87C542.116 393.87 542.806 393.634 543.353 393.162C543.907 392.684 544.183 391.983 544.183 391.06V390.076ZM554.381 393.757C554.695 393.757 555.006 393.729 555.314 393.675C555.622 393.613 555.902 393.542 556.155 393.459V395.285C555.888 395.401 555.543 395.5 555.119 395.582C554.695 395.664 554.254 395.705 553.796 395.705C553.154 395.705 552.576 395.599 552.063 395.387C551.551 395.168 551.144 394.796 550.843 394.27C550.542 393.743 550.392 393.015 550.392 392.085V385.984H548.844V384.908L550.505 384.057L551.294 381.626H552.812V384.149H556.062V385.984H552.812V392.055C552.812 392.629 552.956 393.056 553.243 393.336C553.53 393.617 553.909 393.757 554.381 393.757ZM563.122 383.934C564.558 383.934 565.641 384.251 566.373 384.887C567.111 385.523 567.48 386.514 567.48 387.861V395.5H565.768L565.306 393.89H565.224C564.903 394.3 564.571 394.639 564.229 394.905C563.888 395.172 563.491 395.37 563.04 395.5C562.596 395.637 562.052 395.705 561.41 395.705C560.733 395.705 560.128 395.582 559.595 395.336C559.062 395.083 558.641 394.7 558.333 394.188C558.026 393.675 557.872 393.025 557.872 392.239C557.872 391.07 558.306 390.192 559.174 389.604C560.049 389.016 561.369 388.691 563.132 388.63L565.101 388.558V387.963C565.101 387.177 564.916 386.617 564.547 386.282C564.185 385.947 563.672 385.779 563.009 385.779C562.442 385.779 561.892 385.861 561.358 386.025C560.825 386.189 560.306 386.391 559.8 386.63L559.02 384.928C559.574 384.634 560.203 384.395 560.907 384.21C561.618 384.026 562.356 383.934 563.122 383.934ZM565.091 390.076L563.624 390.127C562.421 390.168 561.577 390.373 561.092 390.742C560.606 391.111 560.364 391.617 560.364 392.26C560.364 392.82 560.531 393.23 560.866 393.49C561.201 393.743 561.642 393.87 562.189 393.87C563.023 393.87 563.713 393.634 564.26 393.162C564.814 392.684 565.091 391.983 565.091 391.06V390.076ZM573.473 379.545V383.39C573.473 383.834 573.459 384.272 573.432 384.703C573.412 385.126 573.391 385.458 573.371 385.697H573.473C573.781 385.205 574.208 384.792 574.755 384.457C575.309 384.115 576.016 383.944 576.877 383.944C578.224 383.944 579.308 384.439 580.128 385.431C580.948 386.415 581.358 387.875 581.358 389.809C581.358 391.094 581.17 392.174 580.794 393.049C580.418 393.924 579.889 394.587 579.205 395.039C578.528 395.483 577.732 395.705 576.816 395.705C575.955 395.705 575.257 395.548 574.724 395.233C574.198 394.912 573.784 394.54 573.483 394.116H573.309L572.868 395.5H571.063V379.545H573.473ZM576.242 385.902C575.558 385.902 575.015 386.039 574.611 386.312C574.215 386.586 573.928 386.996 573.75 387.543C573.572 388.083 573.48 388.77 573.473 389.604V389.819C573.473 391.084 573.671 392.051 574.068 392.721C574.471 393.391 575.203 393.726 576.262 393.726C577.103 393.726 577.749 393.388 578.2 392.711C578.651 392.027 578.877 391.05 578.877 389.778C578.877 388.493 578.651 387.526 578.2 386.876C577.756 386.227 577.103 385.902 576.242 385.902ZM588.808 383.934C590.243 383.934 591.327 384.251 592.058 384.887C592.796 385.523 593.166 386.514 593.166 387.861V395.5H591.453L590.992 393.89H590.91C590.588 394.3 590.257 394.639 589.915 394.905C589.573 395.172 589.177 395.37 588.726 395.5C588.281 395.637 587.738 395.705 587.095 395.705C586.419 395.705 585.814 395.582 585.28 395.336C584.747 395.083 584.327 394.7 584.019 394.188C583.711 393.675 583.558 393.025 583.558 392.239C583.558 391.07 583.992 390.192 584.86 389.604C585.735 389.016 587.054 388.691 588.818 388.63L590.787 388.558V387.963C590.787 387.177 590.602 386.617 590.233 386.282C589.871 385.947 589.358 385.779 588.695 385.779C588.128 385.779 587.577 385.861 587.044 386.025C586.511 386.189 585.991 386.391 585.485 386.63L584.706 384.928C585.26 384.634 585.889 384.395 586.593 384.21C587.304 384.026 588.042 383.934 588.808 383.934ZM590.776 390.076L589.31 390.127C588.107 390.168 587.263 390.373 586.777 390.742C586.292 391.111 586.049 391.617 586.049 392.26C586.049 392.82 586.217 393.23 586.552 393.49C586.887 393.743 587.328 393.87 587.875 393.87C588.709 393.87 589.399 393.634 589.946 393.162C590.5 392.684 590.776 391.983 590.776 391.06V390.076ZM604.378 392.26C604.378 393.005 604.197 393.634 603.835 394.146C603.472 394.659 602.942 395.049 602.245 395.315C601.555 395.575 600.707 395.705 599.702 395.705C598.909 395.705 598.226 395.647 597.651 395.531C597.084 395.421 596.547 395.25 596.042 395.018V392.937C596.582 393.189 597.187 393.408 597.857 393.593C598.533 393.777 599.172 393.87 599.774 393.87C600.567 393.87 601.138 393.747 601.486 393.5C601.835 393.248 602.009 392.913 602.009 392.496C602.009 392.25 601.938 392.031 601.794 391.839C601.657 391.641 601.398 391.439 601.015 391.234C600.639 391.022 600.085 390.77 599.354 390.476C598.636 390.188 598.031 389.901 597.539 389.614C597.046 389.327 596.674 388.982 596.421 388.579C596.168 388.168 596.042 387.646 596.042 387.01C596.042 386.005 596.438 385.243 597.231 384.723C598.031 384.197 599.087 383.934 600.4 383.934C601.097 383.934 601.753 384.005 602.368 384.149C602.99 384.286 603.599 384.487 604.193 384.754L603.435 386.569C602.922 386.343 602.406 386.159 601.886 386.015C601.374 385.865 600.851 385.79 600.317 385.79C599.695 385.79 599.22 385.885 598.892 386.077C598.571 386.268 598.41 386.542 598.41 386.897C598.41 387.164 598.489 387.389 598.646 387.574C598.803 387.758 599.073 387.943 599.456 388.127C599.846 388.312 600.386 388.541 601.076 388.814C601.753 389.074 602.338 389.348 602.83 389.635C603.329 389.915 603.712 390.26 603.978 390.67C604.245 391.081 604.378 391.61 604.378 392.26ZM611.714 383.934C612.726 383.934 613.594 384.142 614.319 384.559C615.044 384.976 615.601 385.567 615.99 386.333C616.38 387.099 616.575 388.015 616.575 389.081V390.373H608.997C609.025 391.474 609.318 392.321 609.879 392.916C610.446 393.511 611.239 393.808 612.258 393.808C612.983 393.808 613.632 393.74 614.206 393.603C614.787 393.459 615.385 393.251 616.001 392.978V394.936C615.433 395.203 614.856 395.397 614.268 395.521C613.68 395.644 612.976 395.705 612.155 395.705C611.041 395.705 610.06 395.49 609.213 395.059C608.372 394.622 607.712 393.972 607.234 393.111C606.762 392.25 606.526 391.18 606.526 389.901C606.526 388.63 606.741 387.55 607.172 386.661C607.603 385.772 608.208 385.096 608.987 384.631C609.766 384.166 610.675 383.934 611.714 383.934ZM611.714 385.749C610.956 385.749 610.34 385.995 609.869 386.487C609.404 386.979 609.131 387.7 609.048 388.65H614.216C614.21 388.083 614.114 387.581 613.929 387.143C613.752 386.706 613.478 386.364 613.109 386.118C612.747 385.872 612.282 385.749 611.714 385.749Z" fill="white"/>
<rect width="77" height="18" transform="translate(530 327)" fill="#020202"/>
<g clip-path="url(#clip1_12_1105)">
<path d="M548.949 334.752C549.794 334.752 550.604 334.423 551.202 333.836C551.799 333.25 552.134 332.455 552.134 331.626C552.134 330.797 551.799 330.002 551.202 329.416C550.604 328.829 549.794 328.5 548.949 328.5C548.105 328.5 547.294 328.829 546.697 329.416C546.1 330.002 545.764 330.797 545.764 331.626C545.764 332.455 546.1 333.25 546.697 333.836C547.294 334.423 548.105 334.752 548.949 334.752ZM546.322 336.062L547.914 338.769C548.352 339.516 548.093 340.474 547.331 340.904L544.573 342.469C543.812 342.899 542.836 342.645 542.397 341.897L540.806 339.187C540.367 338.44 540.627 337.482 541.388 337.052L544.146 335.49C544.908 335.06 545.884 335.314 546.322 336.062ZM551.654 335.895C551.693 335.672 551.857 335.49 552.078 335.426C552.299 335.361 552.537 335.423 552.696 335.59C553.806 336.75 555.755 338.783 556.779 339.853C556.922 340.002 556.979 340.216 556.922 340.415C556.866 340.614 556.711 340.772 556.511 340.831C555.173 341.224 552.74 341.938 551.403 342.331C551.2 342.39 550.982 342.343 550.824 342.205C550.666 342.067 550.591 341.859 550.63 341.657C550.887 340.21 551.376 337.462 551.654 335.895Z" fill="#FF5C00"/>
</g>
<path d="M570.098 341L569.19 338.423H565.642L564.734 341H563.128L566.581 331.682H568.27L571.716 341H570.098ZM568.796 337.115L567.914 334.576C567.88 334.466 567.832 334.312 567.768 334.113C567.705 333.91 567.641 333.704 567.578 333.497C567.514 333.285 567.461 333.108 567.419 332.964C567.377 333.137 567.324 333.332 567.26 333.548C567.201 333.759 567.142 333.958 567.083 334.145C567.028 334.331 566.985 334.475 566.956 334.576L566.067 337.115H568.796ZM575.62 341.127C574.956 341.127 574.38 340.998 573.894 340.74C573.407 340.482 573.032 340.086 572.77 339.553C572.508 339.02 572.376 338.342 572.376 337.521C572.376 336.667 572.52 335.968 572.808 335.427C573.096 334.885 573.494 334.485 574.001 334.227C574.514 333.969 575.1 333.84 575.76 333.84C576.179 333.84 576.557 333.882 576.896 333.967C577.239 334.047 577.529 334.147 577.766 334.265L577.321 335.458C577.063 335.353 576.799 335.264 576.528 335.192C576.257 335.12 575.997 335.084 575.747 335.084C575.337 335.084 574.994 335.175 574.719 335.357C574.448 335.539 574.245 335.81 574.109 336.169C573.978 336.529 573.913 336.976 573.913 337.509C573.913 338.025 573.98 338.461 574.116 338.816C574.251 339.168 574.452 339.434 574.719 339.616C574.985 339.794 575.313 339.883 575.703 339.883C576.088 339.883 576.433 339.836 576.737 339.743C577.042 339.65 577.33 339.529 577.601 339.381V340.676C577.334 340.829 577.048 340.941 576.744 341.013C576.439 341.089 576.064 341.127 575.62 341.127ZM581.866 339.921C582.061 339.921 582.253 339.904 582.444 339.87C582.634 339.832 582.808 339.788 582.964 339.737V340.867C582.799 340.939 582.586 341 582.323 341.051C582.061 341.102 581.788 341.127 581.504 341.127C581.107 341.127 580.749 341.061 580.432 340.93C580.114 340.795 579.862 340.564 579.676 340.238C579.49 339.912 579.397 339.462 579.397 338.886V335.109H578.438V334.443L579.467 333.916L579.956 332.412H580.895V333.973H582.907V335.109H580.895V338.867C580.895 339.223 580.984 339.487 581.162 339.661C581.339 339.834 581.574 339.921 581.866 339.921ZM590.613 337.471C590.613 338.055 590.537 338.573 590.385 339.026C590.232 339.479 590.01 339.862 589.718 340.175C589.426 340.484 589.075 340.721 588.665 340.886C588.254 341.047 587.791 341.127 587.274 341.127C586.792 341.127 586.35 341.047 585.948 340.886C585.546 340.721 585.197 340.484 584.9 340.175C584.608 339.862 584.382 339.479 584.221 339.026C584.06 338.573 583.98 338.055 583.98 337.471C583.98 336.696 584.113 336.04 584.38 335.503C584.651 334.961 585.036 334.549 585.535 334.265C586.035 333.982 586.629 333.84 587.319 333.84C587.966 333.84 588.538 333.982 589.033 334.265C589.528 334.549 589.915 334.961 590.194 335.503C590.474 336.045 590.613 336.701 590.613 337.471ZM585.516 337.471C585.516 337.983 585.577 338.421 585.7 338.785C585.827 339.149 586.022 339.428 586.284 339.623C586.547 339.813 586.885 339.908 587.3 339.908C587.715 339.908 588.053 339.813 588.315 339.623C588.578 339.428 588.77 339.149 588.893 338.785C589.016 338.421 589.077 337.983 589.077 337.471C589.077 336.959 589.016 336.525 588.893 336.169C588.77 335.81 588.578 335.537 588.315 335.351C588.053 335.16 587.712 335.065 587.293 335.065C586.676 335.065 586.225 335.272 585.941 335.687C585.658 336.102 585.516 336.696 585.516 337.471ZM595.888 333.84C596.007 333.84 596.136 333.846 596.275 333.859C596.415 333.872 596.536 333.889 596.637 333.91L596.498 335.306C596.409 335.281 596.299 335.262 596.167 335.249C596.041 335.236 595.926 335.23 595.825 335.23C595.558 335.23 595.304 335.274 595.063 335.363C594.822 335.448 594.608 335.579 594.422 335.757C594.236 335.93 594.09 336.148 593.984 336.411C593.878 336.673 593.825 336.978 593.825 337.325V341H592.327V333.973H593.495L593.698 335.211H593.768C593.908 334.961 594.081 334.733 594.289 334.525C594.496 334.318 594.733 334.153 595 334.03C595.27 333.903 595.567 333.84 595.888 333.84Z" fill="#FF5C00"/>
<path d="M421.707 118.707C422.098 118.317 422.098 117.683 421.707 117.293L415.343 110.929C414.953 110.538 414.319 110.538 413.929 110.929C413.538 111.319 413.538 111.953 413.929 112.343L419.586 118L413.929 123.657C413.538 124.047 413.538 124.681 413.929 125.071C414.319 125.462 414.953 125.462 415.343 125.071L421.707 118.707ZM237 118L237 119L421 119L421 118L421 117L237 117L237 118Z" fill="white"/>
<path d="M421.707 386.707C422.098 386.317 422.098 385.683 421.707 385.293L415.343 378.929C414.953 378.538 414.319 378.538 413.929 378.929C413.538 379.319 413.538 379.953 413.929 380.343L419.586 386L413.929 391.657C413.538 392.047 413.538 392.681 413.929 393.071C414.319 393.462 414.953 393.462 415.343 393.071L421.707 386.707ZM237 386L237 387L421 387L421 386L421 385L237 385L237 386Z" fill="white"/>
<rect width="80" height="40" transform="translate(282 98)" fill="#020202"/>
<path d="M305.717 118.484C305.717 119.653 305.567 120.719 305.266 121.683C304.965 122.647 304.514 123.471 303.913 124.154C303.311 124.838 302.552 125.354 301.636 125.703L305.205 129.568H301.923L299.103 126.195C299.035 126.195 298.967 126.195 298.898 126.195C298.837 126.202 298.775 126.205 298.714 126.205C297.517 126.205 296.478 126.021 295.597 125.651C294.722 125.282 293.994 124.756 293.413 124.072C292.838 123.389 292.408 122.572 292.121 121.622C291.833 120.671 291.69 119.619 291.69 118.463C291.69 116.918 291.943 115.572 292.449 114.423C292.961 113.268 293.737 112.373 294.776 111.737C295.822 111.094 297.142 110.773 298.734 110.773C300.293 110.773 301.588 111.091 302.621 111.727C303.653 112.362 304.425 113.258 304.938 114.413C305.457 115.562 305.717 116.918 305.717 118.484ZM294.274 118.484C294.274 119.639 294.431 120.641 294.746 121.488C295.06 122.329 295.542 122.979 296.191 123.437C296.848 123.888 297.688 124.113 298.714 124.113C299.746 124.113 300.587 123.888 301.236 123.437C301.886 122.979 302.364 122.329 302.672 121.488C302.979 120.641 303.133 119.639 303.133 118.484C303.133 116.727 302.781 115.353 302.077 114.362C301.38 113.364 300.266 112.865 298.734 112.865C297.709 112.865 296.865 113.09 296.202 113.542C295.545 113.993 295.06 114.639 294.746 115.479C294.431 116.313 294.274 117.315 294.274 118.484ZM318.796 114.649V126H316.899L316.571 124.472H316.437C316.198 124.862 315.894 125.187 315.525 125.446C315.156 125.699 314.746 125.887 314.294 126.01C313.843 126.14 313.368 126.205 312.869 126.205C312.015 126.205 311.283 126.062 310.675 125.774C310.073 125.48 309.612 125.029 309.29 124.421C308.969 123.812 308.809 123.026 308.809 122.062V114.649H311.228V121.611C311.228 122.493 311.406 123.153 311.762 123.59C312.124 124.028 312.685 124.247 313.443 124.247C314.175 124.247 314.756 124.096 315.186 123.795C315.617 123.495 315.921 123.05 316.099 122.462C316.284 121.875 316.376 121.153 316.376 120.299V114.649H318.796ZM326.983 114.434C327.995 114.434 328.863 114.642 329.588 115.059C330.312 115.476 330.87 116.067 331.259 116.833C331.649 117.599 331.844 118.515 331.844 119.581V120.873H324.266C324.293 121.974 324.587 122.821 325.148 123.416C325.715 124.011 326.508 124.308 327.527 124.308C328.251 124.308 328.901 124.24 329.475 124.103C330.056 123.959 330.654 123.751 331.27 123.478V125.436C330.702 125.703 330.125 125.897 329.537 126.021C328.949 126.144 328.245 126.205 327.424 126.205C326.31 126.205 325.329 125.99 324.481 125.559C323.641 125.122 322.981 124.472 322.502 123.611C322.031 122.75 321.795 121.68 321.795 120.401C321.795 119.13 322.01 118.05 322.441 117.161C322.872 116.272 323.477 115.596 324.256 115.131C325.035 114.666 325.944 114.434 326.983 114.434ZM326.983 116.249C326.225 116.249 325.609 116.495 325.138 116.987C324.673 117.479 324.399 118.2 324.317 119.15H329.485C329.479 118.583 329.383 118.081 329.198 117.643C329.021 117.206 328.747 116.864 328.378 116.618C328.016 116.372 327.551 116.249 326.983 116.249ZM340.523 114.434C340.715 114.434 340.923 114.444 341.149 114.464C341.375 114.485 341.569 114.512 341.733 114.546L341.508 116.802C341.364 116.761 341.187 116.73 340.975 116.71C340.77 116.689 340.585 116.679 340.421 116.679C339.99 116.679 339.58 116.751 339.19 116.895C338.801 117.031 338.456 117.243 338.155 117.53C337.854 117.811 337.618 118.163 337.447 118.586C337.276 119.01 337.191 119.502 337.191 120.063V126H334.771V114.649H336.658L336.986 116.648H337.099C337.324 116.245 337.605 115.876 337.939 115.541C338.274 115.206 338.657 114.939 339.088 114.741C339.525 114.536 340.004 114.434 340.523 114.434ZM342.333 114.649H344.958L347.286 121.129C347.388 121.423 347.481 121.714 347.563 122.001C347.651 122.281 347.727 122.558 347.788 122.832C347.857 123.105 347.911 123.378 347.952 123.652H348.014C348.082 123.296 348.178 122.9 348.301 122.462C348.431 122.018 348.574 121.574 348.732 121.129L350.967 114.649H353.561L348.691 127.559C348.41 128.297 348.065 128.926 347.655 129.445C347.252 129.972 346.773 130.368 346.219 130.635C345.666 130.908 345.033 131.045 344.322 131.045C343.981 131.045 343.683 131.024 343.43 130.983C343.177 130.949 342.962 130.912 342.784 130.871V128.943C342.928 128.977 343.109 129.008 343.328 129.035C343.546 129.062 343.772 129.076 344.004 129.076C344.435 129.076 344.808 128.991 345.122 128.82C345.437 128.649 345.703 128.406 345.922 128.092C346.141 127.784 346.322 127.432 346.465 127.036L346.865 125.969L342.333 114.649Z" fill="white"/>
<rect width="80" height="40" transform="translate(282 366)" fill="#020202"/>
<path d="M305.717 386.484C305.717 387.653 305.567 388.719 305.266 389.683C304.965 390.647 304.514 391.471 303.913 392.154C303.311 392.838 302.552 393.354 301.636 393.703L305.205 397.568H301.923L299.103 394.195C299.035 394.195 298.967 394.195 298.898 394.195C298.837 394.202 298.775 394.205 298.714 394.205C297.517 394.205 296.478 394.021 295.597 393.651C294.722 393.282 293.994 392.756 293.413 392.072C292.838 391.389 292.408 390.572 292.121 389.622C291.833 388.671 291.69 387.619 291.69 386.463C291.69 384.918 291.943 383.572 292.449 382.423C292.961 381.268 293.737 380.373 294.776 379.737C295.822 379.094 297.142 378.773 298.734 378.773C300.293 378.773 301.588 379.091 302.621 379.727C303.653 380.362 304.425 381.258 304.938 382.413C305.457 383.562 305.717 384.918 305.717 386.484ZM294.274 386.484C294.274 387.639 294.431 388.641 294.746 389.488C295.06 390.329 295.542 390.979 296.191 391.437C296.848 391.888 297.688 392.113 298.714 392.113C299.746 392.113 300.587 391.888 301.236 391.437C301.886 390.979 302.364 390.329 302.672 389.488C302.979 388.641 303.133 387.639 303.133 386.484C303.133 384.727 302.781 383.353 302.077 382.362C301.38 381.364 300.266 380.865 298.734 380.865C297.709 380.865 296.865 381.09 296.202 381.542C295.545 381.993 295.06 382.639 294.746 383.479C294.431 384.313 294.274 385.315 294.274 386.484ZM318.796 382.649V394H316.899L316.571 392.472H316.437C316.198 392.862 315.894 393.187 315.525 393.446C315.156 393.699 314.746 393.887 314.294 394.01C313.843 394.14 313.368 394.205 312.869 394.205C312.015 394.205 311.283 394.062 310.675 393.774C310.073 393.48 309.612 393.029 309.29 392.421C308.969 391.812 308.809 391.026 308.809 390.062V382.649H311.228V389.611C311.228 390.493 311.406 391.153 311.762 391.59C312.124 392.028 312.685 392.247 313.443 392.247C314.175 392.247 314.756 392.096 315.186 391.795C315.617 391.495 315.921 391.05 316.099 390.462C316.284 389.875 316.376 389.153 316.376 388.299V382.649H318.796ZM326.983 382.434C327.995 382.434 328.863 382.642 329.588 383.059C330.312 383.476 330.87 384.067 331.259 384.833C331.649 385.599 331.844 386.515 331.844 387.581V388.873H324.266C324.293 389.974 324.587 390.821 325.148 391.416C325.715 392.011 326.508 392.308 327.527 392.308C328.251 392.308 328.901 392.24 329.475 392.103C330.056 391.959 330.654 391.751 331.27 391.478V393.436C330.702 393.703 330.125 393.897 329.537 394.021C328.949 394.144 328.245 394.205 327.424 394.205C326.31 394.205 325.329 393.99 324.481 393.559C323.641 393.122 322.981 392.472 322.502 391.611C322.031 390.75 321.795 389.68 321.795 388.401C321.795 387.13 322.01 386.05 322.441 385.161C322.872 384.272 323.477 383.596 324.256 383.131C325.035 382.666 325.944 382.434 326.983 382.434ZM326.983 384.249C326.225 384.249 325.609 384.495 325.138 384.987C324.673 385.479 324.399 386.2 324.317 387.15H329.485C329.479 386.583 329.383 386.081 329.198 385.643C329.021 385.206 328.747 384.864 328.378 384.618C328.016 384.372 327.551 384.249 326.983 384.249ZM340.523 382.434C340.715 382.434 340.923 382.444 341.149 382.464C341.375 382.485 341.569 382.512 341.733 382.546L341.508 384.802C341.364 384.761 341.187 384.73 340.975 384.71C340.77 384.689 340.585 384.679 340.421 384.679C339.99 384.679 339.58 384.751 339.19 384.895C338.801 385.031 338.456 385.243 338.155 385.53C337.854 385.811 337.618 386.163 337.447 386.586C337.276 387.01 337.191 387.502 337.191 388.063V394H334.771V382.649H336.658L336.986 384.648H337.099C337.324 384.245 337.605 383.876 337.939 383.541C338.274 383.206 338.657 382.939 339.088 382.741C339.525 382.536 340.004 382.434 340.523 382.434ZM342.333 382.649H344.958L347.286 389.129C347.388 389.423 347.481 389.714 347.563 390.001C347.651 390.281 347.727 390.558 347.788 390.832C347.857 391.105 347.911 391.378 347.952 391.652H348.014C348.082 391.296 348.178 390.9 348.301 390.462C348.431 390.018 348.574 389.574 348.732 389.129L350.967 382.649H353.561L348.691 395.559C348.41 396.297 348.065 396.926 347.655 397.445C347.252 397.972 346.773 398.368 346.219 398.635C345.666 398.908 345.033 399.045 344.322 399.045C343.981 399.045 343.683 399.024 343.43 398.983C343.177 398.949 342.962 398.912 342.784 398.871V396.943C342.928 396.977 343.109 397.008 343.328 397.035C343.546 397.062 343.772 397.076 344.004 397.076C344.435 397.076 344.808 396.991 345.122 396.82C345.437 396.649 345.703 396.406 345.922 396.092C346.141 395.784 346.322 395.432 346.465 395.036L346.865 393.969L342.333 382.649Z" fill="white"/>
<rect x="436" y="47" width="265" height="151" rx="7" stroke="white" stroke-width="2" stroke-dasharray="12 12"/>
<path d="M457.14 20.3608C457.14 22.0493 456.826 23.4609 456.197 24.5957C455.568 25.7236 454.655 26.5747 453.459 27.1489C452.263 27.7163 450.82 28 449.132 28H444.969V13.0088H449.583C451.135 13.0088 452.475 13.2891 453.603 13.8496C454.73 14.4033 455.602 15.2271 456.217 16.3208C456.833 17.4077 457.14 18.7544 457.14 20.3608ZM454.577 20.4326C454.577 19.2021 454.382 18.1904 453.992 17.3975C453.609 16.6045 453.042 16.0166 452.29 15.6338C451.545 15.2441 450.625 15.0493 449.532 15.0493H447.43V25.939H449.173C450.984 25.939 452.338 25.4775 453.233 24.5547C454.129 23.6318 454.577 22.2578 454.577 20.4326ZM464.784 16.4336C466.22 16.4336 467.303 16.7515 468.035 17.3872C468.773 18.0229 469.142 19.0142 469.142 20.3608V28H467.43L466.968 26.3901H466.886C466.565 26.8003 466.233 27.1387 465.892 27.4053C465.55 27.6719 465.153 27.8701 464.702 28C464.258 28.1367 463.714 28.2051 463.072 28.2051C462.395 28.2051 461.79 28.082 461.257 27.8359C460.724 27.583 460.303 27.2002 459.996 26.6875C459.688 26.1748 459.534 25.5254 459.534 24.7393C459.534 23.5703 459.968 22.6919 460.836 22.104C461.711 21.5161 463.031 21.1914 464.794 21.1299L466.763 21.0581V20.4634C466.763 19.6772 466.579 19.1167 466.21 18.7817C465.847 18.4468 465.335 18.2793 464.671 18.2793C464.104 18.2793 463.554 18.3613 463.021 18.5254C462.487 18.6895 461.968 18.8911 461.462 19.1304L460.683 17.4282C461.236 17.1343 461.865 16.895 462.569 16.7104C463.28 16.5259 464.019 16.4336 464.784 16.4336ZM466.753 22.5757L465.287 22.627C464.084 22.668 463.239 22.873 462.754 23.2422C462.269 23.6113 462.026 24.1172 462.026 24.7598C462.026 25.3203 462.193 25.7305 462.528 25.9902C462.863 26.2432 463.304 26.3696 463.851 26.3696C464.685 26.3696 465.376 26.1338 465.922 25.6621C466.476 25.1836 466.753 24.4829 466.753 23.5601V22.5757ZM476.95 26.2568C477.265 26.2568 477.576 26.2295 477.883 26.1748C478.191 26.1133 478.471 26.0415 478.724 25.9595V27.7847C478.458 27.9009 478.112 28 477.689 28.082C477.265 28.1641 476.824 28.2051 476.366 28.2051C475.723 28.2051 475.146 28.0991 474.633 27.8872C474.12 27.6685 473.713 27.2959 473.413 26.7695C473.112 26.2432 472.962 25.5151 472.962 24.5854V18.4844H471.413V17.4077L473.074 16.5566L473.864 14.1265H475.381V16.6489H478.632V18.4844H475.381V24.5547C475.381 25.1289 475.525 25.5562 475.812 25.8364C476.099 26.1167 476.479 26.2568 476.95 26.2568ZM485.692 16.4336C487.127 16.4336 488.211 16.7515 488.942 17.3872C489.68 18.0229 490.049 19.0142 490.049 20.3608V28H488.337L487.876 26.3901H487.794C487.472 26.8003 487.141 27.1387 486.799 27.4053C486.457 27.6719 486.061 27.8701 485.609 28C485.165 28.1367 484.622 28.2051 483.979 28.2051C483.302 28.2051 482.697 28.082 482.164 27.8359C481.631 27.583 481.211 27.2002 480.903 26.6875C480.595 26.1748 480.442 25.5254 480.442 24.7393C480.442 23.5703 480.876 22.6919 481.744 22.104C482.619 21.5161 483.938 21.1914 485.702 21.1299L487.671 21.0581V20.4634C487.671 19.6772 487.486 19.1167 487.117 18.7817C486.755 18.4468 486.242 18.2793 485.579 18.2793C485.011 18.2793 484.461 18.3613 483.928 18.5254C483.395 18.6895 482.875 18.8911 482.369 19.1304L481.59 17.4282C482.144 17.1343 482.773 16.895 483.477 16.7104C484.188 16.5259 484.926 16.4336 485.692 16.4336ZM487.66 22.5757L486.194 22.627C484.991 22.668 484.147 22.873 483.661 23.2422C483.176 23.6113 482.933 24.1172 482.933 24.7598C482.933 25.3203 483.101 25.7305 483.436 25.9902C483.771 26.2432 484.212 26.3696 484.758 26.3696C485.592 26.3696 486.283 26.1338 486.83 25.6621C487.383 25.1836 487.66 24.4829 487.66 23.5601V22.5757ZM496.043 12.0449V15.8901C496.043 16.3345 496.029 16.772 496.002 17.2026C495.981 17.6265 495.961 17.958 495.94 18.1973H496.043C496.35 17.7051 496.778 17.2915 497.324 16.9565C497.878 16.6147 498.586 16.4438 499.447 16.4438C500.794 16.4438 501.877 16.9395 502.697 17.9307C503.518 18.915 503.928 20.3745 503.928 22.3091C503.928 23.5942 503.74 24.6743 503.364 25.5493C502.988 26.4243 502.458 27.0874 501.775 27.5386C501.098 27.9829 500.301 28.2051 499.385 28.2051C498.524 28.2051 497.827 28.0479 497.294 27.7334C496.767 27.4121 496.354 27.0396 496.053 26.6157H495.879L495.438 28H493.633V12.0449H496.043ZM498.811 18.4023C498.128 18.4023 497.584 18.5391 497.181 18.8125C496.784 19.0859 496.497 19.4961 496.319 20.043C496.142 20.583 496.049 21.27 496.043 22.104V22.3193C496.043 23.584 496.241 24.5513 496.637 25.2212C497.041 25.8911 497.772 26.2261 498.832 26.2261C499.673 26.2261 500.319 25.8877 500.77 25.2109C501.221 24.5273 501.446 23.5498 501.446 22.2783C501.446 20.9932 501.221 20.0259 500.77 19.3765C500.325 18.7271 499.673 18.4023 498.811 18.4023ZM511.377 16.4336C512.813 16.4336 513.896 16.7515 514.628 17.3872C515.366 18.0229 515.735 19.0142 515.735 20.3608V28H514.023L513.561 26.3901H513.479C513.158 26.8003 512.826 27.1387 512.485 27.4053C512.143 27.6719 511.746 27.8701 511.295 28C510.851 28.1367 510.307 28.2051 509.665 28.2051C508.988 28.2051 508.383 28.082 507.85 27.8359C507.317 27.583 506.896 27.2002 506.589 26.6875C506.281 26.1748 506.127 25.5254 506.127 24.7393C506.127 23.5703 506.561 22.6919 507.429 22.104C508.304 21.5161 509.624 21.1914 511.387 21.1299L513.356 21.0581V20.4634C513.356 19.6772 513.172 19.1167 512.802 18.7817C512.44 18.4468 511.927 18.2793 511.264 18.2793C510.697 18.2793 510.147 18.3613 509.613 18.5254C509.08 18.6895 508.561 18.8911 508.055 19.1304L507.276 17.4282C507.829 17.1343 508.458 16.895 509.162 16.7104C509.873 16.5259 510.612 16.4336 511.377 16.4336ZM513.346 22.5757L511.88 22.627C510.676 22.668 509.832 22.873 509.347 23.2422C508.862 23.6113 508.619 24.1172 508.619 24.7598C508.619 25.3203 508.786 25.7305 509.121 25.9902C509.456 26.2432 509.897 26.3696 510.444 26.3696C511.278 26.3696 511.968 26.1338 512.515 25.6621C513.069 25.1836 513.346 24.4829 513.346 23.5601V22.5757ZM526.948 24.7598C526.948 25.5049 526.766 26.1338 526.404 26.6465C526.042 27.1592 525.512 27.5488 524.815 27.8154C524.124 28.0752 523.277 28.2051 522.272 28.2051C521.479 28.2051 520.795 28.147 520.221 28.0308C519.654 27.9214 519.117 27.7505 518.611 27.5181V25.4365C519.151 25.6895 519.756 25.9082 520.426 26.0928C521.103 26.2773 521.742 26.3696 522.343 26.3696C523.136 26.3696 523.707 26.2466 524.056 26.0005C524.405 25.7476 524.579 25.4126 524.579 24.9956C524.579 24.7495 524.507 24.5308 524.364 24.3394C524.227 24.1411 523.967 23.9395 523.584 23.7344C523.208 23.5225 522.655 23.2695 521.923 22.9756C521.205 22.6885 520.6 22.4014 520.108 22.1143C519.616 21.8271 519.243 21.4819 518.99 21.0786C518.738 20.6685 518.611 20.1455 518.611 19.5098C518.611 18.5049 519.008 17.7427 519.801 17.2231C520.6 16.6968 521.656 16.4336 522.969 16.4336C523.666 16.4336 524.323 16.5054 524.938 16.6489C525.56 16.7856 526.168 16.9873 526.763 17.2539L526.004 19.0688C525.491 18.8433 524.975 18.6587 524.456 18.5151C523.943 18.3647 523.42 18.2896 522.887 18.2896C522.265 18.2896 521.79 18.3853 521.462 18.5767C521.14 18.7681 520.98 19.0415 520.98 19.397C520.98 19.6636 521.058 19.8892 521.216 20.0737C521.373 20.2583 521.643 20.4429 522.026 20.6274C522.415 20.812 522.955 21.041 523.646 21.3145C524.323 21.5742 524.907 21.8477 525.399 22.1348C525.898 22.415 526.281 22.7603 526.548 23.1704C526.814 23.5806 526.948 24.1104 526.948 24.7598ZM534.284 16.4336C535.296 16.4336 536.164 16.6421 536.888 17.0591C537.613 17.4761 538.17 18.0674 538.56 18.833C538.949 19.5986 539.144 20.5146 539.144 21.5811V22.873H531.567C531.594 23.9736 531.888 24.8213 532.449 25.416C533.016 26.0107 533.809 26.3081 534.827 26.3081C535.552 26.3081 536.201 26.2397 536.776 26.103C537.357 25.9595 537.955 25.751 538.57 25.4775V27.436C538.003 27.7026 537.425 27.8975 536.837 28.0205C536.249 28.1436 535.545 28.2051 534.725 28.2051C533.611 28.2051 532.63 27.9897 531.782 27.5591C530.941 27.1216 530.282 26.4722 529.803 25.6108C529.331 24.7495 529.095 23.6797 529.095 22.4014C529.095 21.1299 529.311 20.0498 529.741 19.1611C530.172 18.2725 530.777 17.5957 531.556 17.1309C532.336 16.666 533.245 16.4336 534.284 16.4336ZM534.284 18.2485C533.525 18.2485 532.91 18.4946 532.438 18.9868C531.973 19.479 531.7 20.2002 531.618 21.1504H536.786C536.779 20.583 536.683 20.0806 536.499 19.6431C536.321 19.2056 536.048 18.8638 535.678 18.6177C535.316 18.3716 534.851 18.2485 534.284 18.2485ZM557.273 28L555.807 23.8369H550.075L548.608 28H546.014L551.592 12.9473H554.32L559.888 28H557.273ZM555.171 21.7246L553.745 17.623C553.691 17.4453 553.612 17.1958 553.51 16.8745C553.407 16.5464 553.305 16.2148 553.202 15.8799C553.099 15.5381 553.014 15.251 552.946 15.0186C552.877 15.2988 552.792 15.6133 552.689 15.9619C552.594 16.3037 552.498 16.625 552.402 16.9258C552.313 17.2266 552.245 17.459 552.197 17.623L550.762 21.7246H555.171Z" fill="white"/>
<rect x="436" y="315" width="265" height="151" rx="7" stroke="white" stroke-width="2" stroke-dasharray="12 12"/>
<path d="M457.14 288.361C457.14 290.049 456.826 291.461 456.197 292.596C455.568 293.724 454.655 294.575 453.459 295.149C452.263 295.716 450.82 296 449.132 296H444.969V281.009H449.583C451.135 281.009 452.475 281.289 453.603 281.85C454.73 282.403 455.602 283.227 456.217 284.321C456.833 285.408 457.14 286.754 457.14 288.361ZM454.577 288.433C454.577 287.202 454.382 286.19 453.992 285.397C453.609 284.604 453.042 284.017 452.29 283.634C451.545 283.244 450.625 283.049 449.532 283.049H447.43V293.939H449.173C450.984 293.939 452.338 293.478 453.233 292.555C454.129 291.632 454.577 290.258 454.577 288.433ZM464.784 284.434C466.22 284.434 467.303 284.751 468.035 285.387C468.773 286.023 469.142 287.014 469.142 288.361V296H467.43L466.968 294.39H466.886C466.565 294.8 466.233 295.139 465.892 295.405C465.55 295.672 465.153 295.87 464.702 296C464.258 296.137 463.714 296.205 463.072 296.205C462.395 296.205 461.79 296.082 461.257 295.836C460.724 295.583 460.303 295.2 459.996 294.688C459.688 294.175 459.534 293.525 459.534 292.739C459.534 291.57 459.968 290.692 460.836 290.104C461.711 289.516 463.031 289.191 464.794 289.13L466.763 289.058V288.463C466.763 287.677 466.579 287.117 466.21 286.782C465.847 286.447 465.335 286.279 464.671 286.279C464.104 286.279 463.554 286.361 463.021 286.525C462.487 286.689 461.968 286.891 461.462 287.13L460.683 285.428C461.236 285.134 461.865 284.895 462.569 284.71C463.28 284.526 464.019 284.434 464.784 284.434ZM466.753 290.576L465.287 290.627C464.084 290.668 463.239 290.873 462.754 291.242C462.269 291.611 462.026 292.117 462.026 292.76C462.026 293.32 462.193 293.73 462.528 293.99C462.863 294.243 463.304 294.37 463.851 294.37C464.685 294.37 465.376 294.134 465.922 293.662C466.476 293.184 466.753 292.483 466.753 291.56V290.576ZM476.95 294.257C477.265 294.257 477.576 294.229 477.883 294.175C478.191 294.113 478.471 294.042 478.724 293.959V295.785C478.458 295.901 478.112 296 477.689 296.082C477.265 296.164 476.824 296.205 476.366 296.205C475.723 296.205 475.146 296.099 474.633 295.887C474.12 295.668 473.713 295.296 473.413 294.77C473.112 294.243 472.962 293.515 472.962 292.585V286.484H471.413V285.408L473.074 284.557L473.864 282.126H475.381V284.649H478.632V286.484H475.381V292.555C475.381 293.129 475.525 293.556 475.812 293.836C476.099 294.117 476.479 294.257 476.95 294.257ZM485.692 284.434C487.127 284.434 488.211 284.751 488.942 285.387C489.68 286.023 490.049 287.014 490.049 288.361V296H488.337L487.876 294.39H487.794C487.472 294.8 487.141 295.139 486.799 295.405C486.457 295.672 486.061 295.87 485.609 296C485.165 296.137 484.622 296.205 483.979 296.205C483.302 296.205 482.697 296.082 482.164 295.836C481.631 295.583 481.211 295.2 480.903 294.688C480.595 294.175 480.442 293.525 480.442 292.739C480.442 291.57 480.876 290.692 481.744 290.104C482.619 289.516 483.938 289.191 485.702 289.13L487.671 289.058V288.463C487.671 287.677 487.486 287.117 487.117 286.782C486.755 286.447 486.242 286.279 485.579 286.279C485.011 286.279 484.461 286.361 483.928 286.525C483.395 286.689 482.875 286.891 482.369 287.13L481.59 285.428C482.144 285.134 482.773 284.895 483.477 284.71C484.188 284.526 484.926 284.434 485.692 284.434ZM487.66 290.576L486.194 290.627C484.991 290.668 484.147 290.873 483.661 291.242C483.176 291.611 482.933 292.117 482.933 292.76C482.933 293.32 483.101 293.73 483.436 293.99C483.771 294.243 484.212 294.37 484.758 294.37C485.592 294.37 486.283 294.134 486.83 293.662C487.383 293.184 487.66 292.483 487.66 291.56V290.576ZM496.043 280.045V283.89C496.043 284.334 496.029 284.772 496.002 285.203C495.981 285.626 495.961 285.958 495.94 286.197H496.043C496.35 285.705 496.778 285.292 497.324 284.957C497.878 284.615 498.586 284.444 499.447 284.444C500.794 284.444 501.877 284.939 502.697 285.931C503.518 286.915 503.928 288.375 503.928 290.309C503.928 291.594 503.74 292.674 503.364 293.549C502.988 294.424 502.458 295.087 501.775 295.539C501.098 295.983 500.301 296.205 499.385 296.205C498.524 296.205 497.827 296.048 497.294 295.733C496.767 295.412 496.354 295.04 496.053 294.616H495.879L495.438 296H493.633V280.045H496.043ZM498.811 286.402C498.128 286.402 497.584 286.539 497.181 286.812C496.784 287.086 496.497 287.496 496.319 288.043C496.142 288.583 496.049 289.27 496.043 290.104V290.319C496.043 291.584 496.241 292.551 496.637 293.221C497.041 293.891 497.772 294.226 498.832 294.226C499.673 294.226 500.319 293.888 500.77 293.211C501.221 292.527 501.446 291.55 501.446 290.278C501.446 288.993 501.221 288.026 500.77 287.376C500.325 286.727 499.673 286.402 498.811 286.402ZM511.377 284.434C512.813 284.434 513.896 284.751 514.628 285.387C515.366 286.023 515.735 287.014 515.735 288.361V296H514.023L513.561 294.39H513.479C513.158 294.8 512.826 295.139 512.485 295.405C512.143 295.672 511.746 295.87 511.295 296C510.851 296.137 510.307 296.205 509.665 296.205C508.988 296.205 508.383 296.082 507.85 295.836C507.317 295.583 506.896 295.2 506.589 294.688C506.281 294.175 506.127 293.525 506.127 292.739C506.127 291.57 506.561 290.692 507.429 290.104C508.304 289.516 509.624 289.191 511.387 289.13L513.356 289.058V288.463C513.356 287.677 513.172 287.117 512.802 286.782C512.44 286.447 511.927 286.279 511.264 286.279C510.697 286.279 510.147 286.361 509.613 286.525C509.08 286.689 508.561 286.891 508.055 287.13L507.276 285.428C507.829 285.134 508.458 284.895 509.162 284.71C509.873 284.526 510.612 284.434 511.377 284.434ZM513.346 290.576L511.88 290.627C510.676 290.668 509.832 290.873 509.347 291.242C508.862 291.611 508.619 292.117 508.619 292.76C508.619 293.32 508.786 293.73 509.121 293.99C509.456 294.243 509.897 294.37 510.444 294.37C511.278 294.37 511.968 294.134 512.515 293.662C513.069 293.184 513.346 292.483 513.346 291.56V290.576ZM526.948 292.76C526.948 293.505 526.766 294.134 526.404 294.646C526.042 295.159 525.512 295.549 524.815 295.815C524.124 296.075 523.277 296.205 522.272 296.205C521.479 296.205 520.795 296.147 520.221 296.031C519.654 295.921 519.117 295.75 518.611 295.518V293.437C519.151 293.689 519.756 293.908 520.426 294.093C521.103 294.277 521.742 294.37 522.343 294.37C523.136 294.37 523.707 294.247 524.056 294C524.405 293.748 524.579 293.413 524.579 292.996C524.579 292.75 524.507 292.531 524.364 292.339C524.227 292.141 523.967 291.939 523.584 291.734C523.208 291.522 522.655 291.27 521.923 290.976C521.205 290.688 520.6 290.401 520.108 290.114C519.616 289.827 519.243 289.482 518.99 289.079C518.738 288.668 518.611 288.146 518.611 287.51C518.611 286.505 519.008 285.743 519.801 285.223C520.6 284.697 521.656 284.434 522.969 284.434C523.666 284.434 524.323 284.505 524.938 284.649C525.56 284.786 526.168 284.987 526.763 285.254L526.004 287.069C525.491 286.843 524.975 286.659 524.456 286.515C523.943 286.365 523.42 286.29 522.887 286.29C522.265 286.29 521.79 286.385 521.462 286.577C521.14 286.768 520.98 287.042 520.98 287.397C520.98 287.664 521.058 287.889 521.216 288.074C521.373 288.258 521.643 288.443 522.026 288.627C522.415 288.812 522.955 289.041 523.646 289.314C524.323 289.574 524.907 289.848 525.399 290.135C525.898 290.415 526.281 290.76 526.548 291.17C526.814 291.581 526.948 292.11 526.948 292.76ZM534.284 284.434C535.296 284.434 536.164 284.642 536.888 285.059C537.613 285.476 538.17 286.067 538.56 286.833C538.949 287.599 539.144 288.515 539.144 289.581V290.873H531.567C531.594 291.974 531.888 292.821 532.449 293.416C533.016 294.011 533.809 294.308 534.827 294.308C535.552 294.308 536.201 294.24 536.776 294.103C537.357 293.959 537.955 293.751 538.57 293.478V295.436C538.003 295.703 537.425 295.897 536.837 296.021C536.249 296.144 535.545 296.205 534.725 296.205C533.611 296.205 532.63 295.99 531.782 295.559C530.941 295.122 530.282 294.472 529.803 293.611C529.331 292.75 529.095 291.68 529.095 290.401C529.095 289.13 529.311 288.05 529.741 287.161C530.172 286.272 530.777 285.596 531.556 285.131C532.336 284.666 533.245 284.434 534.284 284.434ZM534.284 286.249C533.525 286.249 532.91 286.495 532.438 286.987C531.973 287.479 531.7 288.2 531.618 289.15H536.786C536.779 288.583 536.683 288.081 536.499 287.643C536.321 287.206 536.048 286.864 535.678 286.618C535.316 286.372 534.851 286.249 534.284 286.249ZM547.983 281.009H552.443C554.378 281.009 555.837 281.289 556.822 281.85C557.806 282.41 558.298 283.377 558.298 284.751C558.298 285.326 558.196 285.845 557.991 286.31C557.792 286.768 557.502 287.147 557.119 287.448C556.736 287.742 556.265 287.94 555.704 288.043V288.146C556.285 288.248 556.801 288.429 557.252 288.689C557.71 288.949 558.069 289.321 558.329 289.807C558.596 290.292 558.729 290.921 558.729 291.693C558.729 292.609 558.51 293.389 558.073 294.031C557.642 294.674 557.023 295.163 556.217 295.498C555.417 295.833 554.467 296 553.366 296H547.983V281.009ZM550.444 287.192H552.802C553.916 287.192 554.689 287.011 555.119 286.648C555.55 286.286 555.765 285.756 555.765 285.059C555.765 284.348 555.509 283.835 554.996 283.521C554.491 283.207 553.684 283.049 552.577 283.049H550.444V287.192ZM550.444 289.181V293.939H553.038C554.186 293.939 554.993 293.717 555.458 293.272C555.923 292.828 556.155 292.227 556.155 291.468C556.155 291.003 556.049 290.6 555.837 290.258C555.632 289.916 555.294 289.653 554.822 289.468C554.35 289.277 553.715 289.181 552.915 289.181H550.444Z" fill="white"/>
<defs>
<clipPath id="clip0_12_1105">
<rect width="18" height="15" fill="white" transform="translate(540 60.5)"/>
</clipPath>
<clipPath id="clip1_12_1105">
<rect width="18" height="15" fill="white" transform="translate(540 328.5)"/>
</clipPath>
</defs>
</svg>
