<svg width="680" height="120" viewBox="0 0 680 120" fill="none" xmlns="http://www.w3.org/2000/svg">
<rect x="454" y="17" width="226" height="103" rx="8" fill="#020202"/>
<rect x="455" y="18" width="224" height="101" rx="7" stroke="white" stroke-opacity="0.9" stroke-width="2"/>
<path d="M529.441 76.5H520.951V61.5088H529.441V63.5801H523.411V67.6509H529.061V69.7119H523.411V74.4185H529.441V76.5ZM545.473 64.9336C546.744 64.9336 547.701 65.2617 548.344 65.918C548.993 66.5742 549.318 67.627 549.318 69.0762V76.5H546.908V69.5068C546.908 68.6455 546.741 67.9961 546.406 67.5586C546.071 67.1211 545.561 66.9023 544.878 66.9023C543.921 66.9023 543.23 67.21 542.807 67.8252C542.39 68.4336 542.181 69.3188 542.181 70.481V76.5H539.771V69.5068C539.771 68.9326 539.696 68.4541 539.546 68.0713C539.402 67.6816 539.18 67.3911 538.879 67.1997C538.578 67.0015 538.199 66.9023 537.741 66.9023C537.078 66.9023 536.548 67.0527 536.152 67.3535C535.762 67.6543 535.482 68.0986 535.311 68.6865C535.14 69.2676 535.055 69.9819 535.055 70.8296V76.5H532.645V65.1489H534.521L534.86 66.6768H534.993C535.225 66.2803 535.513 65.9556 535.854 65.7026C536.203 65.4429 536.589 65.2515 537.013 65.1284C537.437 64.9985 537.878 64.9336 538.336 64.9336C539.183 64.9336 539.898 65.084 540.479 65.3848C541.06 65.6787 541.494 66.1299 541.781 66.7383H541.966C542.321 66.123 542.817 65.6685 543.453 65.3745C544.088 65.0806 544.762 64.9336 545.473 64.9336ZM557.341 64.9336C558.777 64.9336 559.86 65.2515 560.592 65.8872C561.33 66.5229 561.699 67.5142 561.699 68.8608V76.5H559.987L559.525 74.8901H559.443C559.122 75.3003 558.79 75.6387 558.449 75.9053C558.107 76.1719 557.71 76.3701 557.259 76.5C556.815 76.6367 556.271 76.7051 555.629 76.7051C554.952 76.7051 554.347 76.582 553.814 76.3359C553.281 76.083 552.86 75.7002 552.553 75.1875C552.245 74.6748 552.091 74.0254 552.091 73.2393C552.091 72.0703 552.525 71.1919 553.393 70.604C554.268 70.0161 555.588 69.6914 557.351 69.6299L559.32 69.5581V68.9634C559.32 68.1772 559.136 67.6167 558.767 67.2817C558.404 66.9468 557.892 66.7793 557.228 66.7793C556.661 66.7793 556.111 66.8613 555.578 67.0254C555.044 67.1895 554.525 67.3911 554.019 67.6304L553.24 65.9282C553.793 65.6343 554.422 65.395 555.126 65.2104C555.837 65.0259 556.576 64.9336 557.341 64.9336ZM559.31 71.0757L557.844 71.127C556.641 71.168 555.796 71.373 555.311 71.7422C554.826 72.1113 554.583 72.6172 554.583 73.2598C554.583 73.8203 554.75 74.2305 555.085 74.4902C555.42 74.7432 555.861 74.8696 556.408 74.8696C557.242 74.8696 557.933 74.6338 558.479 74.1621C559.033 73.6836 559.31 72.9829 559.31 72.0601V71.0757ZM567.692 65.1489V76.5H565.283V65.1489H567.692ZM566.503 60.8013C566.872 60.8013 567.19 60.9004 567.457 61.0986C567.73 61.2969 567.867 61.6387 567.867 62.124C567.867 62.6025 567.73 62.9443 567.457 63.1494C567.19 63.3477 566.872 63.4468 566.503 63.4468C566.12 63.4468 565.795 63.3477 565.529 63.1494C565.269 62.9443 565.139 62.6025 565.139 62.124C565.139 61.6387 565.269 61.2969 565.529 61.0986C565.795 60.9004 566.12 60.8013 566.503 60.8013ZM573.778 76.5H571.358V60.5449H573.778V76.5ZM592.634 76.5L591.168 72.3369H585.436L583.97 76.5H581.376L586.954 61.4473H589.681L595.249 76.5H592.634ZM590.532 70.2246L589.107 66.123C589.052 65.9453 588.974 65.6958 588.871 65.3745C588.769 65.0464 588.666 64.7148 588.564 64.3799C588.461 64.0381 588.376 63.751 588.307 63.5186C588.239 63.7988 588.153 64.1133 588.051 64.4619C587.955 64.8037 587.859 65.125 587.764 65.4258C587.675 65.7266 587.607 65.959 587.559 66.123L586.123 70.2246H590.532ZM601.796 61.5088C603.731 61.5088 605.142 61.9053 606.031 62.6982C606.92 63.4912 607.364 64.6021 607.364 66.0308C607.364 66.6802 607.261 67.2988 607.056 67.8867C606.858 68.4678 606.53 68.9839 606.072 69.4351C605.614 69.8794 605.009 70.2314 604.257 70.4912C603.512 70.751 602.592 70.8809 601.499 70.8809H599.899V76.5H597.438V61.5088H601.796ZM601.632 63.5493H599.899V68.8301H601.242C602.015 68.8301 602.671 68.7412 603.211 68.5635C603.751 68.3789 604.161 68.0884 604.442 67.6919C604.722 67.2954 604.862 66.7725 604.862 66.123C604.862 65.2549 604.599 64.6089 604.072 64.1851C603.553 63.7612 602.739 63.5493 601.632 63.5493ZM610.568 76.5V61.5088H613.029V76.5H610.568Z" fill="white"/>
<path d="M442.707 72.7071C443.098 72.3166 443.098 71.6834 442.707 71.2929L436.343 64.9289C435.953 64.5384 435.319 64.5384 434.929 64.9289C434.538 65.3195 434.538 65.9526 434.929 66.3432L440.586 72L434.929 77.6569C434.538 78.0474 434.538 78.6806 434.929 79.0711C435.319 79.4616 435.953 79.4616 436.343 79.0711L442.707 72.7071ZM238 72L238 73L442 73L442 72L442 71L238 71L238 72Z" fill="white"/>
<rect width="130" height="40" transform="translate(273 52)" fill="#020202"/>
<path d="M292.071 75.9189C292.071 76.8076 291.852 77.5732 291.415 78.2158C290.984 78.8584 290.362 79.3506 289.549 79.6924C288.742 80.0342 287.778 80.2051 286.657 80.2051C286.11 80.2051 285.587 80.1743 285.088 80.1128C284.589 80.0513 284.118 79.9624 283.673 79.8462C283.236 79.7231 282.836 79.5762 282.473 79.4053V77.0879C283.082 77.3545 283.762 77.5972 284.514 77.8159C285.266 78.0278 286.032 78.1338 286.811 78.1338C287.447 78.1338 287.973 78.0518 288.39 77.8877C288.814 77.7168 289.128 77.4775 289.333 77.1699C289.538 76.8555 289.641 76.4897 289.641 76.0728C289.641 75.6284 289.521 75.2524 289.282 74.9448C289.043 74.6372 288.68 74.3569 288.195 74.104C287.717 73.8442 287.115 73.5674 286.39 73.2734C285.898 73.0752 285.427 72.8496 284.975 72.5967C284.531 72.3438 284.135 72.0464 283.786 71.7046C283.437 71.3628 283.16 70.9595 282.955 70.4946C282.757 70.0229 282.658 69.4692 282.658 68.8335C282.658 67.9858 282.86 67.2612 283.263 66.6597C283.673 66.0581 284.247 65.5967 284.986 65.2754C285.731 64.9541 286.599 64.7935 287.59 64.7935C288.376 64.7935 289.115 64.8755 289.805 65.0396C290.502 65.2036 291.186 65.436 291.856 65.7368L291.076 67.7158C290.461 67.4629 289.863 67.2612 289.282 67.1108C288.708 66.9604 288.12 66.8853 287.518 66.8853C286.999 66.8853 286.558 66.9639 286.196 67.1211C285.833 67.2783 285.556 67.5005 285.365 67.7876C285.18 68.0679 285.088 68.4028 285.088 68.7925C285.088 69.23 285.194 69.5991 285.406 69.8999C285.625 70.1938 285.96 70.4639 286.411 70.71C286.869 70.9561 287.457 71.2295 288.175 71.5303C289.002 71.8721 289.702 72.231 290.277 72.6069C290.858 72.9829 291.302 73.4341 291.61 73.9604C291.917 74.48 292.071 75.1328 292.071 75.9189ZM299.449 68.4336C300.46 68.4336 301.328 68.6421 302.053 69.0591C302.778 69.4761 303.335 70.0674 303.724 70.833C304.114 71.5986 304.309 72.5146 304.309 73.5811V74.873H296.731C296.759 75.9736 297.053 76.8213 297.613 77.416C298.181 78.0107 298.973 78.3081 299.992 78.3081C300.717 78.3081 301.366 78.2397 301.94 78.103C302.521 77.9595 303.119 77.751 303.735 77.4775V79.436C303.167 79.7026 302.59 79.8975 302.002 80.0205C301.414 80.1436 300.71 80.2051 299.89 80.2051C298.775 80.2051 297.794 79.9897 296.947 79.5591C296.106 79.1216 295.446 78.4722 294.968 77.6108C294.496 76.7495 294.26 75.6797 294.26 74.4014C294.26 73.1299 294.475 72.0498 294.906 71.1611C295.337 70.2725 295.942 69.5957 296.721 69.1309C297.5 68.666 298.41 68.4336 299.449 68.4336ZM299.449 70.2485C298.69 70.2485 298.075 70.4946 297.603 70.9868C297.138 71.479 296.865 72.2002 296.783 73.1504H301.951C301.944 72.583 301.848 72.0806 301.663 71.6431C301.486 71.2056 301.212 70.8638 300.843 70.6177C300.481 70.3716 300.016 70.2485 299.449 70.2485ZM313.153 68.4336C314.431 68.4336 315.426 68.7651 316.137 69.4282C316.854 70.0845 317.213 71.1406 317.213 72.5967V80H314.804V73.0479C314.804 72.166 314.622 71.5063 314.26 71.0688C313.898 70.6245 313.337 70.4023 312.579 70.4023C311.478 70.4023 310.712 70.7407 310.282 71.4175C309.858 72.0942 309.646 73.0752 309.646 74.3604V80H307.236V68.6489H309.113L309.451 70.187H309.584C309.83 69.7905 310.135 69.4658 310.497 69.2129C310.866 68.9531 311.276 68.7583 311.727 68.6284C312.185 68.4985 312.661 68.4336 313.153 68.4336ZM324.611 80.2051C323.258 80.2051 322.171 79.7129 321.351 78.7285C320.537 77.7373 320.13 76.2778 320.13 74.3501C320.13 72.4019 320.544 70.9287 321.371 69.9307C322.205 68.9326 323.302 68.4336 324.663 68.4336C325.237 68.4336 325.739 68.5122 326.17 68.6694C326.601 68.8198 326.97 69.0249 327.277 69.2847C327.592 69.5444 327.858 69.835 328.077 70.1562H328.19C328.156 69.9443 328.115 69.6401 328.067 69.2437C328.026 68.8403 328.005 68.4678 328.005 68.126V64.0449H330.425V80H328.539L328.108 78.4517H328.005C327.8 78.7798 327.54 79.0771 327.226 79.3438C326.918 79.6035 326.549 79.812 326.119 79.9692C325.695 80.1265 325.192 80.2051 324.611 80.2051ZM325.288 78.2466C326.32 78.2466 327.048 77.9492 327.472 77.3545C327.896 76.7598 328.115 75.8677 328.128 74.6782V74.3604C328.128 73.0889 327.923 72.1147 327.513 71.438C327.103 70.7544 326.354 70.4126 325.268 70.4126C324.399 70.4126 323.736 70.7646 323.278 71.4688C322.827 72.166 322.602 73.1401 322.602 74.3911C322.602 75.6421 322.827 76.5991 323.278 77.2622C323.736 77.9185 324.406 78.2466 325.288 78.2466ZM348.492 80H340.002V65.0088H348.492V67.0801H342.463V71.1509H348.113V73.2119H342.463V77.9185H348.492V80ZM364.524 68.4336C365.795 68.4336 366.753 68.7617 367.395 69.418C368.044 70.0742 368.369 71.127 368.369 72.5762V80H365.96V73.0068C365.96 72.1455 365.792 71.4961 365.457 71.0586C365.122 70.6211 364.613 70.4023 363.929 70.4023C362.972 70.4023 362.282 70.71 361.858 71.3252C361.441 71.9336 361.232 72.8188 361.232 73.981V80H358.823V73.0068C358.823 72.4326 358.748 71.9541 358.597 71.5713C358.454 71.1816 358.232 70.8911 357.931 70.6997C357.63 70.5015 357.251 70.4023 356.793 70.4023C356.129 70.4023 355.6 70.5527 355.203 70.8535C354.814 71.1543 354.533 71.5986 354.362 72.1865C354.191 72.7676 354.106 73.4819 354.106 74.3296V80H351.696V68.6489H353.573L353.911 70.1768H354.044C354.277 69.7803 354.564 69.4556 354.906 69.2026C355.254 68.9429 355.641 68.7515 356.065 68.6284C356.488 68.4985 356.929 68.4336 357.387 68.4336C358.235 68.4336 358.949 68.584 359.53 68.8848C360.111 69.1787 360.545 69.6299 360.833 70.2383H361.017C361.373 69.623 361.868 69.1685 362.504 68.8745C363.14 68.5806 363.813 68.4336 364.524 68.4336ZM376.393 68.4336C377.828 68.4336 378.912 68.7515 379.643 69.3872C380.381 70.0229 380.751 71.0142 380.751 72.3608V80H379.038L378.577 78.3901H378.495C378.173 78.8003 377.842 79.1387 377.5 79.4053C377.158 79.6719 376.762 79.8701 376.311 80C375.866 80.1367 375.323 80.2051 374.68 80.2051C374.004 80.2051 373.399 80.082 372.865 79.8359C372.332 79.583 371.912 79.2002 371.604 78.6875C371.296 78.1748 371.143 77.5254 371.143 76.7393C371.143 75.5703 371.577 74.6919 372.445 74.104C373.32 73.5161 374.639 73.1914 376.403 73.1299L378.372 73.0581V72.4634C378.372 71.6772 378.187 71.1167 377.818 70.7817C377.456 70.4468 376.943 70.2793 376.28 70.2793C375.713 70.2793 375.162 70.3613 374.629 70.5254C374.096 70.6895 373.576 70.8911 373.07 71.1304L372.291 69.4282C372.845 69.1343 373.474 68.895 374.178 68.7104C374.889 68.5259 375.627 68.4336 376.393 68.4336ZM378.361 74.5757L376.895 74.627C375.692 74.668 374.848 74.873 374.362 75.2422C373.877 75.6113 373.634 76.1172 373.634 76.7598C373.634 77.3203 373.802 77.7305 374.137 77.9902C374.472 78.2432 374.913 78.3696 375.46 78.3696C376.294 78.3696 376.984 78.1338 377.531 77.6621C378.085 77.1836 378.361 76.4829 378.361 75.5601V74.5757ZM386.744 68.6489V80H384.334V68.6489H386.744ZM385.554 64.3013C385.923 64.3013 386.241 64.4004 386.508 64.5986C386.781 64.7969 386.918 65.1387 386.918 65.624C386.918 66.1025 386.781 66.4443 386.508 66.6494C386.241 66.8477 385.923 66.9468 385.554 66.9468C385.172 66.9468 384.847 66.8477 384.58 66.6494C384.32 66.4443 384.191 66.1025 384.191 65.624C384.191 65.1387 384.32 64.7969 384.58 64.5986C384.847 64.4004 385.172 64.3013 385.554 64.3013ZM392.829 80H390.409V64.0449H392.829V80Z" fill="white"/>
<rect y="17" width="226" height="103" rx="8" fill="#020202"/>
<rect x="1" y="18" width="224" height="101" rx="7" stroke="white" stroke-opacity="0.9" stroke-width="2"/>
<path d="M72.3338 72.4189C72.3338 73.3076 72.1151 74.0732 71.6776 74.7158C71.2469 75.3584 70.6248 75.8506 69.8114 76.1924C69.0047 76.5342 68.0409 76.7051 66.9198 76.7051C66.3729 76.7051 65.8499 76.6743 65.3509 76.6128C64.8519 76.5513 64.3802 76.4624 63.9359 76.3462C63.4984 76.2231 63.0985 76.0762 62.7362 75.9053V73.5879C63.3446 73.8545 64.0247 74.0972 64.7767 74.3159C65.5287 74.5278 66.2943 74.6338 67.0736 74.6338C67.7093 74.6338 68.2357 74.5518 68.6527 74.3877C69.0765 74.2168 69.391 73.9775 69.596 73.6699C69.8011 73.3555 69.9037 72.9897 69.9037 72.5728C69.9037 72.1284 69.784 71.7524 69.5448 71.4448C69.3055 71.1372 68.9432 70.8569 68.4579 70.604C67.9793 70.3442 67.3778 70.0674 66.6532 69.7734C66.161 69.5752 65.6893 69.3496 65.2381 69.0967C64.7938 68.8438 64.3973 68.5464 64.0487 68.2046C63.7 67.8628 63.4232 67.4595 63.2181 66.9946C63.0199 66.5229 62.9207 65.9692 62.9207 65.3335C62.9207 64.4858 63.1224 63.7612 63.5257 63.1597C63.9359 62.5581 64.5101 62.0967 65.2484 61.7754C65.9935 61.4541 66.8617 61.2935 67.8529 61.2935C68.639 61.2935 69.3773 61.3755 70.0677 61.5396C70.765 61.7036 71.4486 61.936 72.1185 62.2368L71.3392 64.2158C70.724 63.9629 70.1258 63.7612 69.5448 63.6108C68.9705 63.4604 68.3827 63.3853 67.7811 63.3853C67.2616 63.3853 66.8206 63.4639 66.4583 63.6211C66.096 63.7783 65.8192 64.0005 65.6278 64.2876C65.4432 64.5679 65.3509 64.9028 65.3509 65.2925C65.3509 65.73 65.4569 66.0991 65.6688 66.3999C65.8875 66.6938 66.2225 66.9639 66.6737 67.21C67.1317 67.4561 67.7196 67.7295 68.4373 68.0303C69.2645 68.3721 69.9652 68.731 70.5394 69.1069C71.1204 69.4829 71.5648 69.9341 71.8724 70.4604C72.18 70.98 72.3338 71.6328 72.3338 72.4189ZM79.7626 76.7051C78.6893 76.7051 77.7596 76.4966 76.9735 76.0796C76.1874 75.6626 75.5824 75.0234 75.1586 74.1621C74.7347 73.3008 74.5228 72.207 74.5228 70.8809C74.5228 69.5 74.7553 68.3721 75.2201 67.4971C75.6849 66.6221 76.3275 65.9761 77.1478 65.5591C77.975 65.1421 78.9218 64.9336 79.9882 64.9336C80.6649 64.9336 81.2767 65.002 81.8236 65.1387C82.3773 65.2686 82.8456 65.4292 83.2284 65.6206L82.5106 67.5483C82.0936 67.3774 81.6664 67.2339 81.2289 67.1177C80.7914 67.0015 80.371 66.9434 79.9677 66.9434C79.3046 66.9434 78.7509 67.0903 78.3065 67.3843C77.869 67.6782 77.5409 68.1157 77.3221 68.6968C77.1102 69.2778 77.0043 69.999 77.0043 70.8604C77.0043 71.6943 77.1137 72.3984 77.3324 72.9727C77.5512 73.54 77.8759 73.9707 78.3065 74.2646C78.7372 74.5518 79.267 74.6953 79.8959 74.6953C80.5179 74.6953 81.0751 74.6201 81.5673 74.4697C82.0595 74.3193 82.5243 74.1245 82.9618 73.8853V75.9771C82.5311 76.2231 82.0697 76.4043 81.5775 76.5205C81.0853 76.6436 80.4804 76.7051 79.7626 76.7051ZM88.2475 60.5449V64.5542C88.2475 64.9712 88.2338 65.3779 88.2065 65.7744C88.186 66.1709 88.162 66.4785 88.1347 66.6973H88.268C88.5072 66.3008 88.8012 65.9761 89.1498 65.7231C89.4985 65.4634 89.8881 65.2686 90.3188 65.1387C90.7563 65.0088 91.2211 64.9438 91.7133 64.9438C92.5815 64.9438 93.3197 65.0908 93.9281 65.3848C94.5365 65.6719 95.0014 66.1196 95.3227 66.728C95.6508 67.3364 95.8149 68.126 95.8149 69.0967V76.5H93.4052V69.5479C93.4052 68.666 93.224 68.0063 92.8617 67.5688C92.4994 67.1245 91.9389 66.9023 91.1801 66.9023C90.4487 66.9023 89.8676 67.0562 89.4369 67.3638C89.0131 67.6646 88.7089 68.1123 88.5243 68.707C88.3398 69.2949 88.2475 70.0127 88.2475 70.8604V76.5H85.8378V60.5449H88.2475ZM103.92 64.9336C104.932 64.9336 105.8 65.1421 106.525 65.5591C107.249 65.9761 107.807 66.5674 108.196 67.333C108.586 68.0986 108.781 69.0146 108.781 70.0811V71.373H101.203C101.23 72.4736 101.524 73.3213 102.085 73.916C102.652 74.5107 103.445 74.8081 104.464 74.8081C105.188 74.8081 105.838 74.7397 106.412 74.603C106.993 74.4595 107.591 74.251 108.207 73.9775V75.936C107.639 76.2026 107.061 76.3975 106.474 76.5205C105.886 76.6436 105.182 76.7051 104.361 76.7051C103.247 76.7051 102.266 76.4897 101.418 76.0591C100.578 75.6216 99.9179 74.9722 99.4394 74.1108C98.9677 73.2495 98.7319 72.1797 98.7319 70.9014C98.7319 69.6299 98.9472 68.5498 99.3779 67.6611C99.8086 66.7725 100.414 66.0957 101.193 65.6309C101.972 65.166 102.881 64.9336 103.92 64.9336ZM103.92 66.7485C103.162 66.7485 102.546 66.9946 102.075 67.4868C101.61 67.979 101.336 68.7002 101.254 69.6504H106.422C106.415 69.083 106.32 68.5806 106.135 68.1431C105.957 67.7056 105.684 67.3638 105.315 67.1177C104.953 66.8716 104.488 66.7485 103.92 66.7485ZM115.522 76.7051C114.169 76.7051 113.082 76.2129 112.262 75.2285C111.448 74.2373 111.042 72.7778 111.042 70.8501C111.042 68.9019 111.455 67.4287 112.282 66.4307C113.116 65.4326 114.213 64.9336 115.574 64.9336C116.148 64.9336 116.65 65.0122 117.081 65.1694C117.512 65.3198 117.881 65.5249 118.188 65.7847C118.503 66.0444 118.77 66.335 118.988 66.6562H119.101C119.067 66.4443 119.026 66.1401 118.978 65.7437C118.937 65.3403 118.917 64.9678 118.917 64.626V60.5449H121.336V76.5H119.45L119.019 74.9517H118.917C118.711 75.2798 118.452 75.5771 118.137 75.8438C117.83 76.1035 117.46 76.312 117.03 76.4692C116.606 76.6265 116.104 76.7051 115.522 76.7051ZM116.199 74.7466C117.231 74.7466 117.959 74.4492 118.383 73.8545C118.807 73.2598 119.026 72.3677 119.04 71.1782V70.8604C119.04 69.5889 118.834 68.6147 118.424 67.938C118.014 67.2544 117.266 66.9126 116.179 66.9126C115.311 66.9126 114.647 67.2646 114.189 67.9688C113.738 68.666 113.513 69.6401 113.513 70.8911C113.513 72.1421 113.738 73.0991 114.189 73.7622C114.647 74.4185 115.317 74.7466 116.199 74.7466ZM134.897 65.1489V76.5H133L132.672 74.9722H132.539C132.299 75.3618 131.995 75.6865 131.626 75.9463C131.257 76.1992 130.847 76.3872 130.396 76.5103C129.944 76.6401 129.469 76.7051 128.97 76.7051C128.116 76.7051 127.384 76.5615 126.776 76.2744C126.174 75.9805 125.713 75.5293 125.392 74.9209C125.07 74.3125 124.91 73.5264 124.91 72.5625V65.1489H127.33V72.1113C127.33 72.9932 127.507 73.6528 127.863 74.0903C128.225 74.5278 128.786 74.7466 129.544 74.7466C130.276 74.7466 130.857 74.5962 131.288 74.2954C131.718 73.9946 132.022 73.5503 132.2 72.9624C132.385 72.3745 132.477 71.6533 132.477 70.7988V65.1489H134.897ZM140.982 76.5H138.563V60.5449H140.982V76.5ZM149.16 64.9336C150.172 64.9336 151.04 65.1421 151.764 65.5591C152.489 65.9761 153.046 66.5674 153.436 67.333C153.825 68.0986 154.02 69.0146 154.02 70.0811V71.373H146.443C146.47 72.4736 146.764 73.3213 147.324 73.916C147.892 74.5107 148.685 74.8081 149.703 74.8081C150.428 74.8081 151.077 74.7397 151.651 74.603C152.233 74.4595 152.831 74.251 153.446 73.9775V75.936C152.879 76.2026 152.301 76.3975 151.713 76.5205C151.125 76.6436 150.421 76.7051 149.601 76.7051C148.486 76.7051 147.505 76.4897 146.658 76.0591C145.817 75.6216 145.157 74.9722 144.679 74.1108C144.207 73.2495 143.971 72.1797 143.971 70.9014C143.971 69.6299 144.187 68.5498 144.617 67.6611C145.048 66.7725 145.653 66.0957 146.432 65.6309C147.212 65.166 148.121 64.9336 149.16 64.9336ZM149.16 66.7485C148.401 66.7485 147.786 66.9946 147.314 67.4868C146.849 67.979 146.576 68.7002 146.494 69.6504H151.662C151.655 69.083 151.559 68.5806 151.375 68.1431C151.197 67.7056 150.923 67.3638 150.554 67.1177C150.192 66.8716 149.727 66.7485 149.16 66.7485ZM162.7 64.9336C162.891 64.9336 163.1 64.9438 163.325 64.9644C163.551 64.9849 163.746 65.0122 163.91 65.0464L163.684 67.3022C163.541 67.2612 163.363 67.2305 163.151 67.21C162.946 67.1895 162.761 67.1792 162.597 67.1792C162.167 67.1792 161.757 67.251 161.367 67.3945C160.977 67.5312 160.632 67.7432 160.331 68.0303C160.03 68.3105 159.795 68.6626 159.624 69.0864C159.453 69.5103 159.367 70.0024 159.367 70.563V76.5H156.947V65.1489H158.834L159.162 67.1484H159.275C159.501 66.7451 159.781 66.376 160.116 66.041C160.451 65.7061 160.834 65.4395 161.264 65.2412C161.702 65.0361 162.18 64.9336 162.7 64.9336Z" fill="white"/>
<rect width="77" height="18" transform="translate(74 8)" fill="#020202"/>
<g clip-path="url(#clip0_12_1106)">
<path d="M92.9494 15.752C93.7941 15.752 94.6042 15.4226 95.2015 14.8364C95.7989 14.2501 96.1344 13.455 96.1344 12.626C96.1344 11.7969 95.7989 11.0018 95.2015 10.4156C94.6042 9.82934 93.7941 9.5 92.9494 9.5C92.1046 9.5 91.2945 9.82934 90.6972 10.4156C90.0998 11.0018 89.7643 11.7969 89.7643 12.626C89.7643 13.455 90.0998 14.2501 90.6972 14.8364C91.2945 15.4226 92.1046 15.752 92.9494 15.752ZM90.3225 17.0615L91.9135 19.7686C92.3523 20.5156 92.0926 21.4736 91.3314 21.9043L88.5732 23.4687C87.812 23.8994 86.8359 23.6445 86.3971 22.8975L84.8061 20.1875C84.3673 19.4404 84.627 18.4824 85.3882 18.0518L88.1464 16.4902C88.9076 16.0596 89.8837 16.3145 90.3225 17.0615ZM95.6538 16.8945C95.6926 16.6719 95.8568 16.4902 96.0777 16.4258C96.2986 16.3613 96.5374 16.4229 96.6956 16.5898C97.8061 17.75 99.7553 19.7832 100.779 20.8525C100.922 21.002 100.979 21.2158 100.922 21.415C100.866 21.6143 100.711 21.7725 100.511 21.8311C99.1732 22.2236 96.7404 22.9385 95.4031 23.3311C95.2001 23.3896 94.9822 23.3428 94.824 23.2051C94.6658 23.0674 94.5911 22.8594 94.6299 22.6572C94.8867 21.21 95.3762 18.4619 95.6538 16.8945Z" fill="#FF5C00"/>
</g>
<path d="M114.098 22L113.19 19.4229H109.642L108.734 22H107.128L110.581 12.6816H112.27L115.716 22H114.098ZM112.796 18.1152L111.914 15.5762C111.88 15.4661 111.832 15.3117 111.768 15.1128C111.705 14.9097 111.641 14.7044 111.578 14.4971C111.514 14.2855 111.461 14.1077 111.419 13.9639C111.377 14.1374 111.324 14.332 111.26 14.5479C111.201 14.7594 111.142 14.9583 111.083 15.1445C111.028 15.3307 110.985 15.4746 110.956 15.5762L110.067 18.1152H112.796ZM119.62 22.127C118.956 22.127 118.38 21.9979 117.894 21.7397C117.407 21.4816 117.032 21.0859 116.77 20.5527C116.508 20.0195 116.376 19.3424 116.376 18.5215C116.376 17.6667 116.52 16.9684 116.808 16.4268C117.096 15.8851 117.494 15.4852 118.001 15.2271C118.514 14.9689 119.1 14.8398 119.76 14.8398C120.179 14.8398 120.557 14.8822 120.896 14.9668C121.239 15.0472 121.529 15.1466 121.766 15.2651L121.321 16.4585C121.063 16.3527 120.799 16.2638 120.528 16.1919C120.257 16.12 119.997 16.084 119.747 16.084C119.337 16.084 118.994 16.175 118.719 16.3569C118.448 16.5389 118.245 16.8097 118.109 17.1694C117.978 17.5291 117.913 17.9756 117.913 18.5088C117.913 19.0251 117.98 19.4609 118.116 19.8164C118.251 20.1676 118.452 20.4342 118.719 20.6162C118.985 20.7939 119.313 20.8828 119.703 20.8828C120.088 20.8828 120.433 20.8363 120.737 20.7432C121.042 20.6501 121.33 20.5295 121.601 20.3813V21.6763C121.334 21.8286 121.048 21.9408 120.744 22.0127C120.439 22.0889 120.064 22.127 119.62 22.127ZM125.866 20.9209C126.061 20.9209 126.253 20.904 126.444 20.8701C126.634 20.832 126.808 20.7876 126.964 20.7368V21.8667C126.799 21.9386 126.586 22 126.323 22.0508C126.061 22.1016 125.788 22.127 125.504 22.127C125.107 22.127 124.749 22.0614 124.432 21.9302C124.114 21.7948 123.862 21.5641 123.676 21.2383C123.49 20.9124 123.397 20.4618 123.397 19.8862V16.1094H122.438V15.4429L123.467 14.916L123.956 13.4116H124.895V14.9731H126.907V16.1094H124.895V19.8672C124.895 20.2227 124.984 20.4871 125.162 20.6606C125.339 20.8341 125.574 20.9209 125.866 20.9209ZM134.613 18.4707C134.613 19.0547 134.537 19.5731 134.385 20.0259C134.232 20.4787 134.01 20.8617 133.718 21.1748C133.426 21.4837 133.075 21.7207 132.665 21.8857C132.254 22.0465 131.791 22.127 131.274 22.127C130.792 22.127 130.35 22.0465 129.948 21.8857C129.546 21.7207 129.197 21.4837 128.9 21.1748C128.608 20.8617 128.382 20.4787 128.221 20.0259C128.06 19.5731 127.98 19.0547 127.98 18.4707C127.98 17.6963 128.113 17.0404 128.38 16.5029C128.651 15.9613 129.036 15.5487 129.535 15.2651C130.035 14.9816 130.629 14.8398 131.319 14.8398C131.966 14.8398 132.538 14.9816 133.033 15.2651C133.528 15.5487 133.915 15.9613 134.194 16.5029C134.474 17.0446 134.613 17.7005 134.613 18.4707ZM129.516 18.4707C129.516 18.9827 129.577 19.4207 129.7 19.7847C129.827 20.1486 130.022 20.4279 130.284 20.6226C130.547 20.813 130.885 20.9082 131.3 20.9082C131.715 20.9082 132.053 20.813 132.315 20.6226C132.578 20.4279 132.77 20.1486 132.893 19.7847C133.016 19.4207 133.077 18.9827 133.077 18.4707C133.077 17.9587 133.016 17.5249 132.893 17.1694C132.77 16.8097 132.578 16.5368 132.315 16.3506C132.053 16.1602 131.712 16.0649 131.293 16.0649C130.676 16.0649 130.225 16.2723 129.941 16.687C129.658 17.1017 129.516 17.6963 129.516 18.4707ZM139.888 14.8398C140.007 14.8398 140.136 14.8462 140.275 14.8589C140.415 14.8716 140.536 14.8885 140.637 14.9097L140.498 16.3062C140.409 16.2808 140.299 16.2617 140.167 16.249C140.041 16.2363 139.926 16.23 139.825 16.23C139.558 16.23 139.304 16.2744 139.063 16.3633C138.822 16.4479 138.608 16.5791 138.422 16.7568C138.236 16.9303 138.09 17.1483 137.984 17.4106C137.878 17.673 137.825 17.9777 137.825 18.3247V22H136.327V14.9731H137.495L137.698 16.2109H137.768C137.908 15.9613 138.081 15.7327 138.289 15.5254C138.496 15.318 138.733 15.153 139 15.0303C139.27 14.9033 139.567 14.8398 139.888 14.8398Z" fill="#FF5C00"/>
<defs>
<clipPath id="clip0_12_1106">
<rect width="18" height="15" fill="white" transform="translate(84 9.5)"/>
</clipPath>
</defs>
</svg>
