<svg width="236" height="58" viewBox="0 0 236 58" fill="none" xmlns="http://www.w3.org/2000/svg">
<path d="M14.3314 15.064C16.3314 24.564 33.7138 32.1023 39.4656 26.0367C45.2174 19.9712 37.6878 15.064 33.5046 20.1803C29.3215 25.2967 30.8314 42.064 63.3314 42.064" stroke="white" stroke-width="2.5" stroke-linecap="round"/>
<path d="M9.67846 18.9384C9.23912 14.6619 9.82516 10.8896 11.1892 7.98535C14.742 9.1467 17.4953 10.5584 21.0092 14.0284" stroke="white" stroke-width="2.5" stroke-linecap="round" stroke-linejoin="round"/>
<path d="M77.2684 45.3213H75.7386V37.3359H73.0219V36.041H79.9789V37.3359H77.2684V45.3213ZM82.7401 35.4443V37.9263C82.7401 38.1844 82.7316 38.4362 82.7147 38.6816C82.702 38.9271 82.6872 39.1175 82.6703 39.2529H82.7528C82.9009 39.0075 83.0829 38.8065 83.2987 38.6499C83.5145 38.4891 83.7557 38.3685 84.0223 38.2881C84.2932 38.2077 84.5809 38.1675 84.8856 38.1675C85.4231 38.1675 85.8801 38.2585 86.2567 38.4404C86.6333 38.6182 86.9211 38.8953 87.12 39.272C87.3231 39.6486 87.4247 40.1374 87.4247 40.7383V45.3213H85.933V41.0176C85.933 40.4717 85.8208 40.0633 85.5966 39.7925C85.3723 39.5174 85.0253 39.3799 84.5555 39.3799C84.1027 39.3799 83.743 39.4751 83.4764 39.6655C83.2141 39.8517 83.0258 40.1289 82.9115 40.4971C82.7972 40.861 82.7401 41.3053 82.7401 41.8301V45.3213H81.2484V35.4443H82.7401ZM91.0048 38.2944V45.3213H89.5131V38.2944H91.0048ZM90.2684 35.603C90.4969 35.603 90.6937 35.6644 90.8588 35.7871C91.028 35.9098 91.1127 36.1214 91.1127 36.4219C91.1127 36.7181 91.028 36.9297 90.8588 37.0566C90.6937 37.1794 90.4969 37.2407 90.2684 37.2407C90.0315 37.2407 89.8304 37.1794 89.6654 37.0566C89.5046 36.9297 89.4242 36.7181 89.4242 36.4219C89.4242 36.1214 89.5046 35.9098 89.6654 35.7871C89.8304 35.6644 90.0315 35.603 90.2684 35.603ZM97.8666 43.3154C97.8666 43.7767 97.7544 44.166 97.5302 44.4834C97.3059 44.8008 96.9779 45.042 96.5463 45.207C96.1189 45.3678 95.5941 45.4482 94.972 45.4482C94.4812 45.4482 94.058 45.4123 93.7025 45.3403C93.3513 45.2726 93.0191 45.1668 92.7059 45.0229V43.7344C93.0402 43.891 93.4148 44.0264 93.8295 44.1406C94.2484 44.2549 94.6441 44.312 95.0165 44.312C95.5074 44.312 95.8607 44.2358 96.0765 44.0835C96.2924 43.9269 96.4003 43.7196 96.4003 43.4614C96.4003 43.3091 96.3558 43.1737 96.267 43.0552C96.1823 42.9325 96.0215 42.8076 95.7845 42.6807C95.5518 42.5495 95.209 42.3929 94.7562 42.2109C94.3119 42.0332 93.9374 41.8555 93.6327 41.6777C93.328 41.5 93.0974 41.2863 92.9408 41.0366C92.7842 40.7827 92.7059 40.459 92.7059 40.0654C92.7059 39.4434 92.9514 38.9715 93.4423 38.6499C93.9374 38.3241 94.5912 38.1611 95.4037 38.1611C95.8353 38.1611 96.2416 38.2056 96.6224 38.2944C97.0075 38.3791 97.3842 38.5039 97.7523 38.6689L97.2826 39.7925C96.9652 39.6528 96.6457 39.5386 96.3241 39.4497C96.0067 39.3566 95.683 39.3101 95.3529 39.3101C94.9678 39.3101 94.6737 39.3693 94.4706 39.4878C94.2717 39.6063 94.1722 39.7756 94.1722 39.9956C94.1722 40.1606 94.2209 40.3003 94.3182 40.4146C94.4156 40.5288 94.5827 40.6431 94.8197 40.7573C95.0609 40.8716 95.3952 41.0133 95.8226 41.1826C96.2416 41.3434 96.6034 41.5127 96.9081 41.6904C97.217 41.8639 97.454 42.0776 97.619 42.3315C97.7841 42.5854 97.8666 42.9134 97.8666 43.3154ZM104.862 48.4443C103.91 48.4443 103.18 48.2729 102.672 47.9302C102.164 47.5874 101.91 47.1071 101.91 46.4893C101.91 46.0576 102.045 45.6916 102.316 45.3911C102.587 45.0949 102.974 44.8896 103.478 44.7754C103.287 44.6908 103.122 44.5596 102.983 44.3818C102.847 44.1999 102.78 43.9989 102.78 43.7788C102.78 43.5164 102.854 43.2922 103.002 43.106C103.15 42.9198 103.372 42.7399 103.668 42.5664C103.3 42.4098 103.004 42.1559 102.78 41.8047C102.56 41.4492 102.45 41.0324 102.45 40.5542C102.45 40.0464 102.557 39.6147 102.773 39.2593C102.989 38.8996 103.304 38.6266 103.719 38.4404C104.134 38.25 104.635 38.1548 105.224 38.1548C105.35 38.1548 105.488 38.1632 105.636 38.1802C105.788 38.1929 105.928 38.2098 106.055 38.231C106.186 38.2479 106.286 38.2669 106.353 38.2881H108.785V39.1196L107.591 39.3418C107.705 39.5026 107.796 39.6867 107.864 39.894C107.932 40.0972 107.966 40.3193 107.966 40.5605C107.966 41.2884 107.714 41.8618 107.21 42.2808C106.711 42.6955 106.021 42.9028 105.141 42.9028C104.929 42.8944 104.724 42.8774 104.525 42.8521C104.373 42.9451 104.257 43.0488 104.176 43.1631C104.096 43.2731 104.056 43.3979 104.056 43.5376C104.056 43.6519 104.096 43.745 104.176 43.8169C104.257 43.8846 104.375 43.9354 104.532 43.9692C104.692 44.0031 104.887 44.02 105.116 44.02H106.328C107.098 44.02 107.686 44.1829 108.093 44.5088C108.499 44.8346 108.702 45.3128 108.702 45.9434C108.702 46.7432 108.372 47.3589 107.712 47.7905C107.052 48.2264 106.102 48.4443 104.862 48.4443ZM104.919 47.397C105.439 47.397 105.877 47.3462 106.233 47.2446C106.588 47.1431 106.857 46.9971 107.039 46.8066C107.221 46.6204 107.312 46.3983 107.312 46.1401C107.312 45.9116 107.255 45.736 107.141 45.6133C107.026 45.4906 106.855 45.4059 106.626 45.3594C106.398 45.3128 106.114 45.2896 105.776 45.2896H104.671C104.396 45.2896 104.153 45.3319 103.941 45.4165C103.73 45.5054 103.565 45.6323 103.446 45.7974C103.332 45.9624 103.275 46.1613 103.275 46.394C103.275 46.7157 103.417 46.9632 103.7 47.1367C103.988 47.3102 104.394 47.397 104.919 47.397ZM105.211 41.9253C105.647 41.9253 105.97 41.8068 106.182 41.5698C106.394 41.3286 106.499 40.9901 106.499 40.5542C106.499 40.0802 106.389 39.7248 106.169 39.4878C105.953 39.2508 105.632 39.1323 105.204 39.1323C104.786 39.1323 104.466 39.2529 104.246 39.4941C104.03 39.7354 103.922 40.0929 103.922 40.5669C103.922 40.9943 104.03 41.3286 104.246 41.5698C104.466 41.8068 104.788 41.9253 105.211 41.9253ZM112.822 38.1611C113.71 38.1611 114.381 38.3579 114.834 38.7515C115.291 39.145 115.519 39.7586 115.519 40.5923V45.3213H114.459L114.174 44.3247H114.123C113.924 44.5786 113.719 44.7881 113.507 44.9531C113.296 45.1182 113.05 45.2409 112.771 45.3213C112.496 45.4059 112.159 45.4482 111.762 45.4482C111.343 45.4482 110.968 45.3721 110.638 45.2197C110.308 45.0632 110.048 44.8262 109.857 44.5088C109.667 44.1914 109.572 43.7894 109.572 43.3027C109.572 42.5791 109.84 42.0353 110.378 41.6714C110.919 41.3075 111.736 41.1064 112.828 41.0684L114.047 41.0239V40.6558C114.047 40.1691 113.932 39.8221 113.704 39.6147C113.48 39.4074 113.162 39.3037 112.752 39.3037C112.401 39.3037 112.06 39.3545 111.73 39.4561C111.4 39.5576 111.078 39.6825 110.765 39.8306L110.283 38.7769C110.625 38.5949 111.015 38.4468 111.451 38.3325C111.891 38.2183 112.348 38.1611 112.822 38.1611ZM114.04 41.9634L113.133 41.9951C112.388 42.0205 111.865 42.1475 111.565 42.376C111.264 42.6045 111.114 42.9176 111.114 43.3154C111.114 43.6624 111.218 43.9163 111.425 44.0771C111.633 44.2337 111.905 44.312 112.244 44.312C112.76 44.312 113.188 44.166 113.526 43.874C113.869 43.5778 114.04 43.144 114.04 42.5728V41.9634ZM125.549 38.1611C126.336 38.1611 126.928 38.3643 127.326 38.7705C127.728 39.1768 127.929 39.8285 127.929 40.7256V45.3213H126.437V40.9922C126.437 40.459 126.334 40.057 126.126 39.7861C125.919 39.5153 125.604 39.3799 125.181 39.3799C124.588 39.3799 124.161 39.5703 123.898 39.9512C123.64 40.3278 123.511 40.8758 123.511 41.5952V45.3213H122.019V40.9922C122.019 40.6367 121.973 40.3405 121.88 40.1035C121.791 39.8623 121.653 39.6825 121.467 39.564C121.281 39.4412 121.046 39.3799 120.763 39.3799C120.352 39.3799 120.024 39.473 119.779 39.6592C119.537 39.8454 119.364 40.1204 119.258 40.4844C119.152 40.8441 119.099 41.2863 119.099 41.811V45.3213H117.608V38.2944H118.769L118.979 39.2402H119.061C119.205 38.9948 119.383 38.7938 119.595 38.6372C119.81 38.4764 120.05 38.3579 120.312 38.2817C120.574 38.2013 120.847 38.1611 121.131 38.1611C121.655 38.1611 122.098 38.2542 122.457 38.4404C122.817 38.6224 123.086 38.9017 123.264 39.2783H123.378C123.598 38.8975 123.905 38.616 124.298 38.4341C124.692 38.2521 125.109 38.1611 125.549 38.1611ZM132.81 38.1611C133.437 38.1611 133.974 38.2902 134.423 38.5483C134.871 38.8065 135.216 39.1725 135.457 39.6465C135.699 40.1204 135.819 40.6875 135.819 41.3477V42.1475H131.128C131.145 42.8288 131.327 43.3535 131.674 43.7217C132.025 44.0898 132.516 44.2739 133.147 44.2739C133.595 44.2739 133.997 44.2316 134.353 44.147C134.713 44.0581 135.083 43.929 135.464 43.7598V44.9722C135.113 45.1372 134.755 45.2578 134.391 45.334C134.027 45.4102 133.591 45.4482 133.083 45.4482C132.394 45.4482 131.786 45.3149 131.262 45.0483C130.741 44.7775 130.333 44.3755 130.036 43.8423C129.745 43.3091 129.599 42.6468 129.599 41.8555C129.599 41.0684 129.732 40.3997 129.998 39.8496C130.265 39.2995 130.64 38.8805 131.122 38.5928C131.604 38.305 132.167 38.1611 132.81 38.1611ZM132.81 39.2847C132.341 39.2847 131.96 39.437 131.668 39.7417C131.38 40.0464 131.211 40.4928 131.16 41.0811H134.359C134.355 40.7298 134.296 40.4188 134.182 40.1479C134.071 39.8771 133.902 39.6655 133.674 39.5132C133.449 39.3608 133.162 39.2847 132.81 39.2847ZM142.37 38.2944V45.3213H140.878V38.2944H142.37ZM141.634 35.603C141.862 35.603 142.059 35.6644 142.224 35.7871C142.393 35.9098 142.478 36.1214 142.478 36.4219C142.478 36.7181 142.393 36.9297 142.224 37.0566C142.059 37.1794 141.862 37.2407 141.634 37.2407C141.397 37.2407 141.196 37.1794 141.031 37.0566C140.87 36.9297 140.789 36.7181 140.789 36.4219C140.789 36.1214 140.87 35.9098 141.031 35.7871C141.196 35.6644 141.397 35.603 141.634 35.603ZM149.232 43.3154C149.232 43.7767 149.12 44.166 148.895 44.4834C148.671 44.8008 148.343 45.042 147.911 45.207C147.484 45.3678 146.959 45.4482 146.337 45.4482C145.846 45.4482 145.423 45.4123 145.068 45.3403C144.717 45.2726 144.384 45.1668 144.071 45.0229V43.7344C144.405 43.891 144.78 44.0264 145.195 44.1406C145.614 44.2549 146.009 44.312 146.382 44.312C146.873 44.312 147.226 44.2358 147.442 44.0835C147.658 43.9269 147.766 43.7196 147.766 43.4614C147.766 43.3091 147.721 43.1737 147.632 43.0552C147.548 42.9325 147.387 42.8076 147.15 42.6807C146.917 42.5495 146.574 42.3929 146.121 42.2109C145.677 42.0332 145.303 41.8555 144.998 41.6777C144.693 41.5 144.463 41.2863 144.306 41.0366C144.149 40.7827 144.071 40.459 144.071 40.0654C144.071 39.4434 144.317 38.9715 144.807 38.6499C145.303 38.3241 145.956 38.1611 146.769 38.1611C147.201 38.1611 147.607 38.2056 147.988 38.2944C148.373 38.3791 148.749 38.5039 149.118 38.6689L148.648 39.7925C148.33 39.6528 148.011 39.5386 147.689 39.4497C147.372 39.3566 147.048 39.3101 146.718 39.3101C146.333 39.3101 146.039 39.3693 145.836 39.4878C145.637 39.6063 145.537 39.7756 145.537 39.9956C145.537 40.1606 145.586 40.3003 145.683 40.4146C145.781 40.5288 145.948 40.6431 146.185 40.7573C146.426 40.8716 146.76 41.0133 147.188 41.1826C147.607 41.3434 147.969 41.5127 148.273 41.6904C148.582 41.8639 148.819 42.0776 148.984 42.3315C149.149 42.5854 149.232 42.9134 149.232 43.3154ZM162.162 38.1611C162.949 38.1611 163.542 38.3643 163.939 38.7705C164.341 39.1768 164.542 39.8285 164.542 40.7256V45.3213H163.051V40.9922C163.051 40.459 162.947 40.057 162.74 39.7861C162.532 39.5153 162.217 39.3799 161.794 39.3799C161.201 39.3799 160.774 39.5703 160.512 39.9512C160.253 40.3278 160.124 40.8758 160.124 41.5952V45.3213H158.633V40.9922C158.633 40.6367 158.586 40.3405 158.493 40.1035C158.404 39.8623 158.267 39.6825 158.08 39.564C157.894 39.4412 157.659 39.3799 157.376 39.3799C156.965 39.3799 156.637 39.473 156.392 39.6592C156.151 39.8454 155.977 40.1204 155.871 40.4844C155.766 40.8441 155.713 41.2863 155.713 41.811V45.3213H154.221V38.2944H155.383L155.592 39.2402H155.675C155.819 38.9948 155.996 38.7938 156.208 38.6372C156.424 38.4764 156.663 38.3579 156.925 38.2817C157.188 38.2013 157.46 38.1611 157.744 38.1611C158.269 38.1611 158.711 38.2542 159.071 38.4404C159.43 38.6224 159.699 38.9017 159.877 39.2783H159.991C160.211 38.8975 160.518 38.616 160.911 38.4341C161.305 38.2521 161.722 38.1611 162.162 38.1611ZM172.75 38.2944V45.3213H171.576L171.372 44.3755H171.29C171.142 44.6167 170.953 44.8177 170.725 44.9785C170.496 45.1351 170.243 45.2515 169.963 45.3276C169.684 45.408 169.39 45.4482 169.081 45.4482C168.552 45.4482 168.099 45.3594 167.723 45.1816C167.35 44.9997 167.064 44.7204 166.866 44.3438C166.667 43.9671 166.567 43.4805 166.567 42.8838V38.2944H168.065V42.6045C168.065 43.1504 168.175 43.5588 168.395 43.8296C168.62 44.1004 168.967 44.2358 169.436 44.2358C169.889 44.2358 170.249 44.1427 170.516 43.9565C170.782 43.7703 170.97 43.4953 171.08 43.1313C171.195 42.7674 171.252 42.321 171.252 41.792V38.2944H172.75ZM176.387 45.3213H174.889V35.4443H176.387V45.3213ZM181.135 44.2422C181.33 44.2422 181.522 44.2253 181.713 44.1914C181.903 44.1533 182.077 44.1089 182.233 44.0581V45.188C182.068 45.2599 181.855 45.3213 181.592 45.3721C181.33 45.4229 181.057 45.4482 180.773 45.4482C180.376 45.4482 180.018 45.3826 179.701 45.2515C179.383 45.116 179.131 44.8854 178.945 44.5596C178.759 44.2337 178.666 43.783 178.666 43.2075V39.4307H177.707V38.7642L178.736 38.2373L179.224 36.7329H180.164V38.2944H182.176V39.4307H180.164V43.1885C180.164 43.5439 180.253 43.8084 180.431 43.9819C180.608 44.1554 180.843 44.2422 181.135 44.2422ZM185.153 38.2944V45.3213H183.661V38.2944H185.153ZM184.417 35.603C184.645 35.603 184.842 35.6644 185.007 35.7871C185.176 35.9098 185.261 36.1214 185.261 36.4219C185.261 36.7181 185.176 36.9297 185.007 37.0566C184.842 37.1794 184.645 37.2407 184.417 37.2407C184.18 37.2407 183.979 37.1794 183.814 37.0566C183.653 36.9297 183.573 36.7181 183.573 36.4219C183.573 36.1214 183.653 35.9098 183.814 35.7871C183.979 35.6644 184.18 35.603 184.417 35.603ZM190.898 38.1611C191.731 38.1611 192.4 38.4658 192.904 39.0752C193.411 39.6846 193.665 40.5902 193.665 41.792C193.665 42.5876 193.547 43.2583 193.31 43.8042C193.077 44.3459 192.749 44.7563 192.326 45.0356C191.907 45.3107 191.418 45.4482 190.86 45.4482C190.504 45.4482 190.195 45.4017 189.933 45.3086C189.671 45.2155 189.446 45.0949 189.26 44.9468C189.074 44.7944 188.917 44.6294 188.79 44.4517H188.702C188.723 44.6209 188.742 44.8092 188.759 45.0166C188.78 45.2197 188.79 45.4059 188.79 45.5752V48.438H187.292V38.2944H188.511L188.721 39.2656H188.79C188.922 39.0667 189.08 38.8826 189.266 38.7134C189.457 38.5441 189.685 38.4108 189.952 38.3135C190.223 38.2119 190.538 38.1611 190.898 38.1611ZM190.498 39.3799C190.087 39.3799 189.757 39.4624 189.508 39.6274C189.262 39.7882 189.082 40.0316 188.968 40.3574C188.858 40.6833 188.799 41.0916 188.79 41.5825V41.792C188.79 42.3125 188.843 42.7547 188.949 43.1187C189.059 43.4784 189.239 43.7534 189.489 43.9438C189.743 44.13 190.085 44.2231 190.517 44.2231C190.881 44.2231 191.181 44.1237 191.418 43.9248C191.66 43.7259 191.839 43.4424 191.958 43.0742C192.076 42.7061 192.136 42.2723 192.136 41.7729C192.136 41.0155 192 40.4272 191.729 40.0083C191.463 39.5894 191.052 39.3799 190.498 39.3799ZM196.89 45.3213H195.392V35.4443H196.89V45.3213ZM201.778 38.1611C202.666 38.1611 203.337 38.3579 203.79 38.7515C204.247 39.145 204.475 39.7586 204.475 40.5923V45.3213H203.415L203.13 44.3247H203.079C202.88 44.5786 202.675 44.7881 202.463 44.9531C202.252 45.1182 202.006 45.2409 201.727 45.3213C201.452 45.4059 201.115 45.4482 200.718 45.4482C200.299 45.4482 199.924 45.3721 199.594 45.2197C199.264 45.0632 199.004 44.8262 198.813 44.5088C198.623 44.1914 198.528 43.7894 198.528 43.3027C198.528 42.5791 198.796 42.0353 199.334 41.6714C199.876 41.3075 200.692 41.1064 201.784 41.0684L203.003 41.0239V40.6558C203.003 40.1691 202.889 39.8221 202.66 39.6147C202.436 39.4074 202.118 39.3037 201.708 39.3037C201.357 39.3037 201.016 39.3545 200.686 39.4561C200.356 39.5576 200.034 39.6825 199.721 39.8306L199.239 38.7769C199.581 38.5949 199.971 38.4468 200.407 38.3325C200.847 38.2183 201.304 38.1611 201.778 38.1611ZM202.996 41.9634L202.089 41.9951C201.344 42.0205 200.821 42.1475 200.521 42.376C200.22 42.6045 200.07 42.9176 200.07 43.3154C200.07 43.6624 200.174 43.9163 200.381 44.0771C200.589 44.2337 200.862 44.312 201.2 44.312C201.716 44.312 202.144 44.166 202.482 43.874C202.825 43.5778 202.996 43.144 202.996 42.5728V41.9634ZM205.504 38.2944H207.129L208.57 42.3062C208.633 42.4881 208.69 42.668 208.741 42.8457C208.796 43.0192 208.843 43.1906 208.881 43.3599C208.923 43.5291 208.957 43.6984 208.982 43.8677H209.02C209.063 43.6476 209.122 43.4022 209.198 43.1313C209.279 42.8563 209.367 42.5812 209.465 42.3062L210.849 38.2944H212.454L209.439 46.2861C209.266 46.7432 209.052 47.1325 208.798 47.4541C208.549 47.7799 208.252 48.0254 207.91 48.1904C207.567 48.3597 207.175 48.4443 206.735 48.4443C206.524 48.4443 206.34 48.4316 206.183 48.4062C206.026 48.3851 205.893 48.3618 205.783 48.3364V47.1431C205.872 47.1642 205.984 47.1833 206.12 47.2002C206.255 47.2171 206.395 47.2256 206.538 47.2256C206.805 47.2256 207.036 47.1727 207.23 47.0669C207.425 46.9611 207.59 46.8109 207.725 46.6162C207.861 46.4258 207.973 46.2078 208.062 45.9624L208.309 45.3022L205.504 38.2944ZM216.32 38.1611C216.946 38.1611 217.484 38.2902 217.932 38.5483C218.381 38.8065 218.726 39.1725 218.967 39.6465C219.208 40.1204 219.329 40.6875 219.329 41.3477V42.1475H214.638C214.655 42.8288 214.837 43.3535 215.184 43.7217C215.535 44.0898 216.026 44.2739 216.657 44.2739C217.105 44.2739 217.507 44.2316 217.863 44.147C218.222 44.0581 218.593 43.929 218.974 43.7598V44.9722C218.622 45.1372 218.265 45.2578 217.901 45.334C217.537 45.4102 217.101 45.4482 216.593 45.4482C215.903 45.4482 215.296 45.3149 214.771 45.0483C214.251 44.7775 213.842 44.3755 213.546 43.8423C213.254 43.3091 213.108 42.6468 213.108 41.8555C213.108 41.0684 213.242 40.3997 213.508 39.8496C213.775 39.2995 214.149 38.8805 214.632 38.5928C215.114 38.305 215.677 38.1611 216.32 38.1611ZM216.32 39.2847C215.85 39.2847 215.47 39.437 215.178 39.7417C214.89 40.0464 214.721 40.4928 214.67 41.0811H217.869C217.865 40.7298 217.806 40.4188 217.691 40.1479C217.581 39.8771 217.412 39.6655 217.183 39.5132C216.959 39.3608 216.671 39.2847 216.32 39.2847ZM224.572 38.1611C224.691 38.1611 224.82 38.1675 224.959 38.1802C225.099 38.1929 225.22 38.2098 225.321 38.231L225.182 39.6274C225.093 39.6021 224.983 39.583 224.851 39.5703C224.724 39.5576 224.61 39.5513 224.509 39.5513C224.242 39.5513 223.988 39.5957 223.747 39.6846C223.506 39.7692 223.292 39.9004 223.106 40.0781C222.92 40.2516 222.774 40.4696 222.668 40.7319C222.562 40.9943 222.509 41.299 222.509 41.646V45.3213H221.011V38.2944H222.179L222.382 39.5322H222.452C222.592 39.2826 222.765 39.054 222.973 38.8467C223.18 38.6393 223.417 38.4743 223.683 38.3516C223.954 38.2246 224.251 38.1611 224.572 38.1611ZM227.911 42.4902H226.787L226.483 36.041H228.216L227.911 42.4902ZM226.407 44.5342C226.407 44.1872 226.495 43.9438 226.673 43.8042C226.855 43.6603 227.077 43.5884 227.34 43.5884C227.598 43.5884 227.818 43.6603 228 43.8042C228.182 43.9438 228.273 44.1872 228.273 44.5342C228.273 44.8727 228.182 45.1182 228 45.2705C227.818 45.4186 227.598 45.4927 227.34 45.4927C227.077 45.4927 226.855 45.4186 226.673 45.2705C226.495 45.1182 226.407 44.8727 226.407 44.5342Z" fill="white"/>
</svg>
