<?xml version="1.0" standalone="no"?>
<!DOCTYPE svg PUBLIC "-//W3C//DTD SVG 20010904//EN"
 "http://www.w3.org/TR/2001/REC-SVG-20010904/DTD/svg10.dtd">
<svg version="1.0" xmlns="http://www.w3.org/2000/svg"
 width="700.000000pt" height="700.000000pt" viewBox="0 0 700.000000 700.000000"
 preserveAspectRatio="xMidYMid meet">
<metadata>
Created by potrace 1.14, written by Peter Selinger 2001-2017
</metadata>
<g transform="translate(0.000000,700.000000) scale(0.100000,-0.100000)"
fill="#000000" stroke="none">
<path d="M2240 6939 c-556 -54 -1057 -284 -1451 -667 -405 -393 -645 -870
-721 -1437 -19 -146 -19 -2524 0 -2670 76 -564 317 -1047 718 -1435 312 -302
667 -499 1090 -606 284 -71 229 -69 1614 -69 1313 0 1319 0 1540 46 204 43
384 105 575 199 689 338 1178 992 1309 1751 35 199 37 327 34 1534 -4 1279 -3
1240 -57 1480 -78 344 -217 645 -433 935 -86 115 -332 363 -443 447 -296 223
-626 376 -966 448 -235 50 -192 49 -1499 51 -674 1 -1263 -2 -1310 -7z m2528
-720 c770 -84 1367 -681 1451 -1451 7 -63 11 -505 11 -1268 0 -763 -4 -1205
-11 -1268 -62 -568 -411 -1060 -921 -1302 -177 -83 -336 -128 -530 -149 -133
-15 -2402 -15 -2536 0 -566 61 -1062 412 -1301 921 -84 177 -129 338 -150 530
-15 133 -15 2403 0 2536 85 779 694 1377 1479 1455 95 10 2419 6 2508 -4z"/>
<path d="M2193 5755 c-149 -27 -329 -101 -458 -188 -78 -53 -214 -185 -276
-267 -100 -132 -185 -330 -214 -499 -22 -125 -22 -2477 0 -2602 18 -104 60
-231 110 -329 163 -324 485 -562 844 -625 125 -22 2477 -22 2602 0 104 18 231
60 329 110 271 137 482 381 582 675 59 176 58 141 58 1470 0 1329 1 1294 -58
1470 -64 186 -165 344 -309 481 -169 161 -373 264 -602 304 -116 21 -2495 21
-2608 0z m939 -1072 c17 -15 18 -65 18 -1183 0 -1132 -1 -1167 -19 -1184 -17
-16 -46 -17 -297 -14 -266 3 -281 4 -320 25 -58 31 -103 79 -130 138 l-24 50
0 981 c0 718 3 990 12 1015 18 53 64 115 104 140 74 45 96 48 373 49 232 0
267 -2 283 -17z m1010 -14 c176 -68 301 -203 353 -383 22 -76 22 -216 0 -293
-53 -184 -210 -339 -395 -388 -42 -11 -124 -15 -359 -15 -269 0 -307 2 -323
17 -17 15 -18 45 -18 535 0 511 0 518 21 539 20 20 28 20 337 17 312 -4 318
-4 384 -29z m146 -1374 c127 -61 152 -93 384 -510 113 -203 216 -389 228 -413
40 -76 53 -73 -399 -70 l-396 3 -65 31 c-132 62 -155 94 -405 543 -124 222
-225 414 -225 427 l0 24 403 0 403 0 72 -35z"/>
</g>
</svg>
