<?xml version="1.0" encoding="UTF-8" standalone="no"?>
<!DOCTYPE svg PUBLIC "-//W3C//DTD SVG 1.1//EN" "http://www.w3.org/Graphics/SVG/1.1/DTD/svg11.dtd">
<svg width="100%" height="100%" viewBox="0 0 966 170" version="1.1" xmlns="http://www.w3.org/2000/svg" xmlns:xlink="http://www.w3.org/1999/xlink" xml:space="preserve" xmlns:serif="http://www.serif.com/" style="fill-rule:evenodd;clip-rule:evenodd;">
    <g id="Artboard1" transform="matrix(0.378824,0,0,0.113333,0,0)">
        <rect x="0" y="0" width="2550" height="1500" style="fill:none;"/>
        <clipPath id="_clip1">
            <rect x="0" y="0" width="2550" height="1500"/>
        </clipPath>
        <g clip-path="url(#_clip1)">
            <g transform="matrix(2.8129,16.2853,-4.87209,9.4023,67755.9,-887008)">
                <path d="M34877.6,33974.2C34877.7,33972.9 34878.8,33972 34880,33972C34881.2,33972 34882.3,33972.9 34882.4,33974.2L34884.9,33994.3C34884.9,33994.9 34885.1,33995.4 34885.4,33995.9C34885.7,33996.4 34886,33996.8 34886.5,33997.1L34902.7,34009.3C34903.7,34010.1 34904,34011.4 34903.4,34012.5C34902.8,34013.6 34901.4,34014 34900.3,34013.5L34881.6,34005.6C34881.1,34005.3 34880.6,34005.2 34880,34005.2C34879.4,34005.2 34878.9,34005.3 34878.4,34005.6L34859.7,34013.5C34858.6,34014 34857.2,34013.6 34856.6,34012.5C34856,34011.4 34856.3,34010.1 34857.3,34009.3L34873.5,33997.1C34874,33996.8 34874.3,33996.4 34874.6,33995.9C34874.9,33995.4 34875.1,33994.9 34875.1,33994.3L34877.6,33974.2Z"/>
            </g>
            <g transform="matrix(2.59077,0,0,8.65981,0.617019,-1.82509)">
                <path d="M164.529,52.792L164.529,120.844C164.529,145.347 144.635,165.241 120.132,165.241L52.08,165.241C27.577,165.241 7.683,145.347 7.683,120.844L7.683,52.792C7.683,28.289 27.577,8.395 52.08,8.395L120.132,8.395C144.635,8.395 164.529,28.289 164.529,52.792Z" style="fill:none;stroke:black;stroke-width:15.18px;"/>
            </g>
            <g transform="matrix(0.884852,0,0,2.95767,-29679.2,-81814.2)">
                <g transform="matrix(1.01797,0,0,1,-615.677,0)">
                    <g transform="matrix(396.539,0,0,396.539,36365.5,28031.9)">
                    </g>
                    <text x="34263.9px" y="28031.9px" style="font-family:'Cartridge-Regular', 'Cartridge';font-size:396.539px;">Ri<tspan x="34576.1px 34780.6px 34983px " y="28031.9px 28031.9px 28031.9px ">vet</tspan> E<tspan x="35406.7px " y="28031.9px ">n</tspan>gine</text>
                </g>
            </g>
        </g>
    </g>
</svg>
