<svg width="1343" height="500" viewBox="0 0 1343 500" fill="none" xmlns="http://www.w3.org/2000/svg">
<rect width="1343" height="500" fill="#020202"/>
<rect x="563" y="67" width="226" height="103" rx="8" fill="#020202"/>
<rect x="564" y="68" width="224" height="101" rx="7" stroke="white" stroke-opacity="0.9" stroke-width="2"/>
<path d="M621.496 111.509C622.788 111.509 623.855 111.666 624.696 111.98C625.543 112.295 626.172 112.773 626.582 113.416C626.999 114.059 627.208 114.875 627.208 115.867C627.208 116.605 627.071 117.234 626.798 117.753C626.524 118.273 626.165 118.704 625.721 119.045C625.277 119.387 624.802 119.661 624.296 119.866L628.551 126.5H625.772L622.153 120.491H619.743V126.5H617.282V111.509H621.496ZM621.332 113.56H619.743V118.461H621.445C622.587 118.461 623.414 118.249 623.927 117.825C624.446 117.401 624.706 116.776 624.706 115.949C624.706 115.081 624.429 114.465 623.875 114.103C623.328 113.741 622.481 113.56 621.332 113.56ZM633.068 115.149V126.5H630.658V115.149H633.068ZM631.878 110.801C632.247 110.801 632.565 110.9 632.832 111.099C633.105 111.297 633.242 111.639 633.242 112.124C633.242 112.603 633.105 112.944 632.832 113.149C632.565 113.348 632.247 113.447 631.878 113.447C631.495 113.447 631.171 113.348 630.904 113.149C630.644 112.944 630.514 112.603 630.514 112.124C630.514 111.639 630.644 111.297 630.904 111.099C631.171 110.9 631.495 110.801 631.878 110.801ZM639.328 126.5L635.011 115.149H637.564L639.902 121.814C640.052 122.238 640.189 122.696 640.312 123.188C640.435 123.68 640.52 124.094 640.568 124.429H640.65C640.698 124.08 640.79 123.663 640.927 123.178C641.064 122.686 641.204 122.231 641.348 121.814L643.685 115.149H646.228L641.912 126.5H639.328ZM652.683 114.934C653.695 114.934 654.563 115.142 655.288 115.559C656.012 115.976 656.569 116.567 656.959 117.333C657.349 118.099 657.543 119.015 657.543 120.081V121.373H649.966C649.993 122.474 650.287 123.321 650.848 123.916C651.415 124.511 652.208 124.808 653.226 124.808C653.951 124.808 654.601 124.74 655.175 124.603C655.756 124.459 656.354 124.251 656.969 123.978V125.936C656.402 126.203 655.824 126.397 655.236 126.521C654.648 126.644 653.944 126.705 653.124 126.705C652.01 126.705 651.029 126.49 650.181 126.059C649.34 125.622 648.681 124.972 648.202 124.111C647.73 123.25 647.495 122.18 647.495 120.901C647.495 119.63 647.71 118.55 648.141 117.661C648.571 116.772 649.176 116.096 649.955 115.631C650.735 115.166 651.644 114.934 652.683 114.934ZM652.683 116.749C651.924 116.749 651.309 116.995 650.837 117.487C650.372 117.979 650.099 118.7 650.017 119.65H655.185C655.178 119.083 655.082 118.581 654.898 118.143C654.72 117.706 654.447 117.364 654.078 117.118C653.715 116.872 653.25 116.749 652.683 116.749ZM664.695 124.757C665.01 124.757 665.321 124.729 665.628 124.675C665.936 124.613 666.216 124.542 666.469 124.459V126.285C666.203 126.401 665.857 126.5 665.434 126.582C665.01 126.664 664.569 126.705 664.111 126.705C663.468 126.705 662.891 126.599 662.378 126.387C661.865 126.168 661.458 125.796 661.158 125.27C660.857 124.743 660.707 124.015 660.707 123.085V116.984H659.158V115.908L660.819 115.057L661.609 112.626H663.126V115.149H666.377V116.984H663.126V123.055C663.126 123.629 663.27 124.056 663.557 124.336C663.844 124.617 664.224 124.757 664.695 124.757ZM680.947 118.358H686.546V125.885C685.76 126.145 684.946 126.346 684.106 126.49C683.265 126.633 682.321 126.705 681.275 126.705C679.751 126.705 678.459 126.404 677.399 125.803C676.347 125.194 675.547 124.316 675 123.167C674.453 122.012 674.18 120.621 674.18 118.994C674.18 117.429 674.484 116.072 675.092 114.923C675.701 113.768 676.586 112.876 677.748 112.247C678.91 111.611 680.318 111.293 681.973 111.293C682.786 111.293 683.572 111.375 684.331 111.54C685.097 111.697 685.797 111.916 686.433 112.196L685.572 114.226C685.066 113.987 684.499 113.785 683.87 113.621C683.241 113.457 682.588 113.375 681.911 113.375C680.838 113.375 679.912 113.607 679.132 114.072C678.36 114.537 677.765 115.193 677.348 116.041C676.931 116.882 676.723 117.876 676.723 119.025C676.723 120.139 676.89 121.117 677.225 121.958C677.56 122.798 678.083 123.455 678.794 123.926C679.512 124.391 680.438 124.624 681.573 124.624C682.14 124.624 682.622 124.593 683.019 124.531C683.415 124.47 683.781 124.401 684.116 124.326V120.46H680.947V118.358ZM699.994 115.149V126.5H698.097L697.769 124.972H697.635C697.396 125.362 697.092 125.687 696.723 125.946C696.354 126.199 695.943 126.387 695.492 126.51C695.041 126.64 694.566 126.705 694.067 126.705C693.212 126.705 692.481 126.562 691.873 126.274C691.271 125.98 690.81 125.529 690.488 124.921C690.167 124.312 690.006 123.526 690.006 122.562V115.149H692.426V122.111C692.426 122.993 692.604 123.653 692.96 124.09C693.322 124.528 693.882 124.747 694.641 124.747C695.373 124.747 695.954 124.596 696.384 124.295C696.815 123.995 697.119 123.55 697.297 122.962C697.482 122.375 697.574 121.653 697.574 120.799V115.149H699.994ZM708.109 114.934C709.545 114.934 710.629 115.251 711.36 115.887C712.098 116.523 712.467 117.514 712.467 118.861V126.5H710.755L710.294 124.89H710.212C709.89 125.3 709.559 125.639 709.217 125.905C708.875 126.172 708.479 126.37 708.027 126.5C707.583 126.637 707.04 126.705 706.397 126.705C705.72 126.705 705.115 126.582 704.582 126.336C704.049 126.083 703.629 125.7 703.321 125.188C703.013 124.675 702.859 124.025 702.859 123.239C702.859 122.07 703.294 121.192 704.162 120.604C705.037 120.016 706.356 119.691 708.12 119.63L710.089 119.558V118.963C710.089 118.177 709.904 117.617 709.535 117.282C709.172 116.947 708.66 116.779 707.997 116.779C707.429 116.779 706.879 116.861 706.346 117.025C705.813 117.189 705.293 117.391 704.787 117.63L704.008 115.928C704.562 115.634 705.191 115.395 705.895 115.21C706.606 115.026 707.344 114.934 708.109 114.934ZM710.078 121.076L708.612 121.127C707.409 121.168 706.565 121.373 706.079 121.742C705.594 122.111 705.351 122.617 705.351 123.26C705.351 123.82 705.519 124.23 705.854 124.49C706.189 124.743 706.63 124.87 707.176 124.87C708.01 124.87 708.701 124.634 709.248 124.162C709.801 123.684 710.078 122.983 710.078 122.06V121.076ZM721.803 114.934C721.995 114.934 722.203 114.944 722.429 114.964C722.654 114.985 722.849 115.012 723.013 115.046L722.788 117.302C722.644 117.261 722.466 117.23 722.255 117.21C722.049 117.189 721.865 117.179 721.701 117.179C721.27 117.179 720.86 117.251 720.47 117.395C720.081 117.531 719.736 117.743 719.435 118.03C719.134 118.311 718.898 118.663 718.727 119.086C718.556 119.51 718.471 120.002 718.471 120.563V126.5H716.051V115.149H717.938L718.266 117.148H718.379C718.604 116.745 718.884 116.376 719.219 116.041C719.554 115.706 719.937 115.439 720.368 115.241C720.805 115.036 721.284 114.934 721.803 114.934ZM729.14 126.705C727.786 126.705 726.699 126.213 725.879 125.229C725.066 124.237 724.659 122.778 724.659 120.85C724.659 118.902 725.072 117.429 725.9 116.431C726.734 115.433 727.831 114.934 729.191 114.934C729.765 114.934 730.268 115.012 730.698 115.169C731.129 115.32 731.498 115.525 731.806 115.785C732.12 116.044 732.387 116.335 732.606 116.656H732.718C732.684 116.444 732.643 116.14 732.595 115.744C732.554 115.34 732.534 114.968 732.534 114.626V110.545H734.954V126.5H733.067L732.636 124.952H732.534C732.329 125.28 732.069 125.577 731.755 125.844C731.447 126.104 731.078 126.312 730.647 126.469C730.223 126.626 729.721 126.705 729.14 126.705ZM729.817 124.747C730.849 124.747 731.577 124.449 732.001 123.854C732.425 123.26 732.643 122.368 732.657 121.178V120.86C732.657 119.589 732.452 118.615 732.042 117.938C731.632 117.254 730.883 116.913 729.796 116.913C728.928 116.913 728.265 117.265 727.807 117.969C727.356 118.666 727.13 119.64 727.13 120.891C727.13 122.142 727.356 123.099 727.807 123.762C728.265 124.418 728.935 124.747 729.817 124.747Z" fill="white"/>
<rect width="75" height="18" transform="translate(638 58)" fill="#020202"/>
<path d="M653.112 66.96H656.578V71.6191C656.091 71.7799 655.587 71.9048 655.067 71.9937C654.546 72.0825 653.962 72.127 653.315 72.127C652.371 72.127 651.571 71.9408 650.916 71.5684C650.264 71.1917 649.769 70.6479 649.43 69.937C649.092 69.2218 648.922 68.3607 648.922 67.3535C648.922 66.3844 649.111 65.5444 649.487 64.8335C649.864 64.1183 650.412 63.5661 651.131 63.1768C651.851 62.7832 652.722 62.5864 653.747 62.5864C654.25 62.5864 654.737 62.6372 655.207 62.7388C655.681 62.8361 656.114 62.9715 656.508 63.145L655.975 64.4019C655.661 64.2537 655.31 64.1289 654.921 64.0273C654.532 63.9258 654.127 63.875 653.708 63.875C653.044 63.875 652.471 64.0189 651.988 64.3066C651.51 64.5944 651.142 65.0007 650.884 65.5254C650.626 66.0459 650.497 66.6616 650.497 67.3726C650.497 68.0623 650.6 68.6675 650.808 69.188C651.015 69.7085 651.339 70.1147 651.779 70.4067C652.223 70.6945 652.797 70.8384 653.499 70.8384C653.85 70.8384 654.149 70.8193 654.394 70.7812C654.639 70.7432 654.866 70.7008 655.073 70.6543V68.2612H653.112V66.96ZM661.402 64.8398C662.291 64.8398 662.961 65.0366 663.414 65.4302C663.871 65.8237 664.1 66.4373 664.1 67.271V72H663.04L662.754 71.0034H662.703C662.504 71.2573 662.299 71.4668 662.087 71.6318C661.876 71.7969 661.63 71.9196 661.351 72C661.076 72.0846 660.74 72.127 660.342 72.127C659.923 72.127 659.548 72.0508 659.218 71.8984C658.888 71.7419 658.628 71.5049 658.438 71.1875C658.247 70.8701 658.152 70.4681 658.152 69.9814C658.152 69.2578 658.421 68.714 658.958 68.3501C659.5 67.9862 660.316 67.7852 661.408 67.7471L662.627 67.7026V67.3345C662.627 66.8478 662.513 66.5008 662.284 66.2935C662.06 66.0861 661.743 65.9824 661.332 65.9824C660.981 65.9824 660.64 66.0332 660.31 66.1348C659.98 66.2363 659.658 66.3612 659.345 66.5093L658.863 65.4556C659.206 65.2736 659.595 65.1255 660.031 65.0112C660.471 64.897 660.928 64.8398 661.402 64.8398ZM662.621 68.6421L661.713 68.6738C660.968 68.6992 660.445 68.8262 660.145 69.0547C659.845 69.2832 659.694 69.5964 659.694 69.9941C659.694 70.3411 659.798 70.5951 660.005 70.7559C660.213 70.9124 660.486 70.9907 660.824 70.9907C661.34 70.9907 661.768 70.8447 662.106 70.5527C662.449 70.2565 662.621 69.8228 662.621 69.2515V68.6421ZM668.803 70.9209C668.998 70.9209 669.19 70.904 669.381 70.8701C669.571 70.832 669.745 70.7876 669.901 70.7368V71.8667C669.736 71.9386 669.523 72 669.26 72.0508C668.998 72.1016 668.725 72.127 668.441 72.127C668.044 72.127 667.686 72.0614 667.369 71.9302C667.051 71.7948 666.799 71.5641 666.613 71.2383C666.427 70.9124 666.334 70.4618 666.334 69.8862V66.1094H665.375V65.4429L666.404 64.916L666.893 63.4116H667.832V64.9731H669.844V66.1094H667.832V69.8672C667.832 70.2227 667.921 70.4871 668.099 70.6606C668.276 70.8341 668.511 70.9209 668.803 70.9209ZM674.129 64.8398C674.755 64.8398 675.293 64.9689 675.741 65.2271C676.19 65.4852 676.535 65.8512 676.776 66.3252C677.017 66.7992 677.138 67.3662 677.138 68.0264V68.8262H672.447C672.464 69.5075 672.646 70.0322 672.993 70.4004C673.344 70.7686 673.835 70.9526 674.465 70.9526C674.914 70.9526 675.316 70.9103 675.671 70.8257C676.031 70.7368 676.401 70.6077 676.782 70.4385V71.6509C676.431 71.8159 676.073 71.9365 675.709 72.0127C675.346 72.0889 674.91 72.127 674.402 72.127C673.712 72.127 673.105 71.9937 672.58 71.7271C672.06 71.4562 671.651 71.0542 671.355 70.521C671.063 69.9878 670.917 69.3255 670.917 68.5342C670.917 67.7471 671.05 67.0785 671.317 66.5283C671.583 65.9782 671.958 65.5592 672.44 65.2715C672.923 64.9837 673.486 64.8398 674.129 64.8398ZM674.129 65.9634C673.659 65.9634 673.278 66.1157 672.986 66.4204C672.699 66.7251 672.529 67.1715 672.479 67.7598H675.678C675.674 67.4085 675.614 67.0975 675.5 66.8267C675.39 66.5558 675.221 66.3442 674.992 66.1919C674.768 66.0396 674.48 65.9634 674.129 65.9634ZM684.564 71.9937L683.676 68.7246C683.633 68.5638 683.583 68.3691 683.523 68.1406C683.464 67.9121 683.405 67.6772 683.346 67.436C683.286 67.1906 683.231 66.9642 683.181 66.7568C683.134 66.5495 683.098 66.3887 683.073 66.2744H683.022C683.001 66.3887 682.967 66.5495 682.92 66.7568C682.874 66.9642 682.821 67.1906 682.762 67.436C682.702 67.6815 682.643 67.9206 682.584 68.1533C682.529 68.3861 682.478 68.585 682.432 68.75L681.499 71.9937H679.861L677.893 64.9668H679.404L680.318 68.458C680.377 68.695 680.434 68.951 680.489 69.2261C680.549 69.5011 680.599 69.7635 680.642 70.0132C680.684 70.2629 680.716 70.4681 680.737 70.6289H680.788C680.805 70.5146 680.828 70.3708 680.857 70.1973C680.887 70.0195 680.921 69.8354 680.959 69.645C680.997 69.4504 681.035 69.2684 681.073 69.0991C681.111 68.9256 681.147 68.786 681.181 68.6802L682.26 64.9668H683.892L684.926 68.6802C684.973 68.841 685.024 69.0441 685.079 69.2896C685.134 69.5308 685.182 69.7741 685.225 70.0195C685.271 70.2607 685.301 70.4618 685.313 70.6226H685.364C685.381 70.4787 685.411 70.284 685.453 70.0386C685.5 69.7889 685.553 69.5244 685.612 69.2451C685.671 68.9616 685.732 68.6992 685.796 68.458L686.729 64.9668H688.214L686.234 71.9937H684.564ZM692.175 64.8398C693.064 64.8398 693.735 65.0366 694.188 65.4302C694.645 65.8237 694.873 66.4373 694.873 67.271V72H693.813L693.527 71.0034H693.477C693.278 71.2573 693.072 71.4668 692.861 71.6318C692.649 71.7969 692.404 71.9196 692.125 72C691.849 72.0846 691.513 72.127 691.115 72.127C690.696 72.127 690.322 72.0508 689.992 71.8984C689.662 71.7419 689.401 71.5049 689.211 71.1875C689.021 70.8701 688.925 70.4681 688.925 69.9814C688.925 69.2578 689.194 68.714 689.731 68.3501C690.273 67.9862 691.09 67.7852 692.182 67.7471L693.4 67.7026V67.3345C693.4 66.8478 693.286 66.5008 693.058 66.2935C692.833 66.0861 692.516 65.9824 692.105 65.9824C691.754 65.9824 691.414 66.0332 691.083 66.1348C690.753 66.2363 690.432 66.3612 690.119 66.5093L689.636 65.4556C689.979 65.2736 690.368 65.1255 690.804 65.0112C691.244 64.897 691.701 64.8398 692.175 64.8398ZM693.394 68.6421L692.486 68.6738C691.742 68.6992 691.219 68.8262 690.918 69.0547C690.618 69.2832 690.468 69.5964 690.468 69.9941C690.468 70.3411 690.571 70.5951 690.779 70.7559C690.986 70.9124 691.259 70.9907 691.598 70.9907C692.114 70.9907 692.541 70.8447 692.88 70.5527C693.223 70.2565 693.394 69.8228 693.394 69.2515V68.6421ZM695.901 64.9731H697.526L698.967 68.9849C699.031 69.1668 699.088 69.3467 699.139 69.5244C699.194 69.6979 699.24 69.8693 699.278 70.0386C699.321 70.2078 699.354 70.3771 699.38 70.5464H699.418C699.46 70.3263 699.52 70.0809 699.596 69.8101C699.676 69.535 699.765 69.2599 699.862 68.9849L701.246 64.9731H702.852L699.837 72.9648C699.663 73.4219 699.45 73.8112 699.196 74.1328C698.946 74.4587 698.65 74.7041 698.307 74.8691C697.964 75.0384 697.573 75.123 697.133 75.123C696.921 75.123 696.737 75.1104 696.581 75.085C696.424 75.0638 696.291 75.0405 696.181 75.0151V73.8218C696.27 73.8429 696.382 73.862 696.517 73.8789C696.653 73.8958 696.792 73.9043 696.936 73.9043C697.203 73.9043 697.433 73.8514 697.628 73.7456C697.823 73.6398 697.988 73.4896 698.123 73.2949C698.258 73.1045 698.371 72.8866 698.459 72.6411L698.707 71.981L695.901 64.9731Z" fill="#FF5C00"/>
<rect x="1073" y="67" width="226" height="103" rx="8" fill="#020202"/>
<rect x="1074" y="68" width="224" height="101" rx="7" stroke="white" stroke-opacity="0.9" stroke-width="2"/>
<path d="M1120.9 111.509C1122.19 111.509 1123.26 111.666 1124.1 111.98C1124.95 112.295 1125.58 112.773 1125.99 113.416C1126.4 114.059 1126.61 114.875 1126.61 115.867C1126.61 116.605 1126.48 117.234 1126.2 117.753C1125.93 118.273 1125.57 118.704 1125.13 119.045C1124.68 119.387 1124.21 119.661 1123.7 119.866L1127.96 126.5H1125.18L1121.56 120.491H1119.15V126.5H1116.69V111.509H1120.9ZM1120.74 113.56H1119.15V118.461H1120.85C1121.99 118.461 1122.82 118.249 1123.33 117.825C1123.85 117.401 1124.11 116.776 1124.11 115.949C1124.11 115.081 1123.83 114.465 1123.28 114.103C1122.73 113.741 1121.89 113.56 1120.74 113.56ZM1140.11 120.799C1140.11 121.742 1139.99 122.58 1139.74 123.311C1139.5 124.042 1139.14 124.661 1138.67 125.167C1138.19 125.666 1137.63 126.049 1136.96 126.315C1136.3 126.575 1135.55 126.705 1134.72 126.705C1133.94 126.705 1133.22 126.575 1132.58 126.315C1131.93 126.049 1131.36 125.666 1130.88 125.167C1130.41 124.661 1130.05 124.042 1129.79 123.311C1129.53 122.58 1129.4 121.742 1129.4 120.799C1129.4 119.548 1129.61 118.488 1130.04 117.62C1130.48 116.745 1131.1 116.079 1131.91 115.621C1132.72 115.163 1133.68 114.934 1134.79 114.934C1135.84 114.934 1136.76 115.163 1137.56 115.621C1138.36 116.079 1138.98 116.745 1139.44 117.62C1139.89 118.495 1140.11 119.555 1140.11 120.799ZM1131.88 120.799C1131.88 121.626 1131.98 122.333 1132.18 122.921C1132.38 123.509 1132.7 123.96 1133.12 124.275C1133.54 124.583 1134.09 124.736 1134.76 124.736C1135.43 124.736 1135.98 124.583 1136.4 124.275C1136.82 123.96 1137.14 123.509 1137.33 122.921C1137.53 122.333 1137.63 121.626 1137.63 120.799C1137.63 119.972 1137.53 119.271 1137.33 118.697C1137.14 118.116 1136.82 117.675 1136.4 117.374C1135.98 117.066 1135.43 116.913 1134.75 116.913C1133.75 116.913 1133.02 117.248 1132.57 117.917C1132.11 118.587 1131.88 119.548 1131.88 120.799ZM1152.99 115.149V126.5H1151.09L1150.76 124.972H1150.63C1150.39 125.362 1150.08 125.687 1149.71 125.946C1149.35 126.199 1148.94 126.387 1148.48 126.51C1148.03 126.64 1147.56 126.705 1147.06 126.705C1146.2 126.705 1145.47 126.562 1144.86 126.274C1144.26 125.98 1143.8 125.529 1143.48 124.921C1143.16 124.312 1143 123.526 1143 122.562V115.149H1145.42V122.111C1145.42 122.993 1145.6 123.653 1145.95 124.09C1146.31 124.528 1146.87 124.747 1147.63 124.747C1148.36 124.747 1148.95 124.596 1149.38 124.295C1149.81 123.995 1150.11 123.55 1150.29 122.962C1150.47 122.375 1150.57 121.653 1150.57 120.799V115.149H1152.99ZM1160.88 124.757C1161.19 124.757 1161.5 124.729 1161.81 124.675C1162.12 124.613 1162.4 124.542 1162.65 124.459V126.285C1162.38 126.401 1162.04 126.5 1161.61 126.582C1161.19 126.664 1160.75 126.705 1160.29 126.705C1159.65 126.705 1159.07 126.599 1158.56 126.387C1158.05 126.168 1157.64 125.796 1157.34 125.27C1157.04 124.743 1156.89 124.015 1156.89 123.085V116.984H1155.34V115.908L1157 115.057L1157.79 112.626H1159.31V115.149H1162.56V116.984H1159.31V123.055C1159.31 123.629 1159.45 124.056 1159.74 124.336C1160.02 124.617 1160.4 124.757 1160.88 124.757ZM1169.69 114.934C1170.7 114.934 1171.57 115.142 1172.29 115.559C1173.02 115.976 1173.58 116.567 1173.96 117.333C1174.35 118.099 1174.55 119.015 1174.55 120.081V121.373H1166.97C1167 122.474 1167.29 123.321 1167.85 123.916C1168.42 124.511 1169.21 124.808 1170.23 124.808C1170.96 124.808 1171.61 124.74 1172.18 124.603C1172.76 124.459 1173.36 124.251 1173.98 123.978V125.936C1173.41 126.203 1172.83 126.397 1172.24 126.521C1171.65 126.644 1170.95 126.705 1170.13 126.705C1169.02 126.705 1168.03 126.49 1167.19 126.059C1166.35 125.622 1165.69 124.972 1165.21 124.111C1164.74 123.25 1164.5 122.18 1164.5 120.901C1164.5 119.63 1164.72 118.55 1165.15 117.661C1165.58 116.772 1166.18 116.096 1166.96 115.631C1167.74 115.166 1168.65 114.934 1169.69 114.934ZM1169.69 116.749C1168.93 116.749 1168.31 116.995 1167.84 117.487C1167.38 117.979 1167.1 118.7 1167.02 119.65H1172.19C1172.18 119.083 1172.09 118.581 1171.9 118.143C1171.73 117.706 1171.45 117.364 1171.08 117.118C1170.72 116.872 1170.26 116.749 1169.69 116.749ZM1189.78 113.385C1189.06 113.385 1188.42 113.515 1187.85 113.775C1187.29 114.035 1186.81 114.411 1186.42 114.903C1186.03 115.388 1185.74 115.979 1185.53 116.677C1185.33 117.367 1185.22 118.146 1185.22 119.015C1185.22 120.177 1185.39 121.178 1185.72 122.019C1186.04 122.853 1186.54 123.496 1187.21 123.947C1187.88 124.391 1188.73 124.613 1189.76 124.613C1190.39 124.613 1191.01 124.552 1191.61 124.429C1192.21 124.306 1192.83 124.138 1193.48 123.926V126.018C1192.87 126.257 1192.25 126.432 1191.63 126.541C1191.01 126.65 1190.29 126.705 1189.48 126.705C1187.95 126.705 1186.68 126.387 1185.66 125.751C1184.66 125.116 1183.91 124.22 1183.41 123.065C1182.92 121.91 1182.67 120.556 1182.67 119.004C1182.67 117.87 1182.83 116.831 1183.14 115.887C1183.46 114.944 1183.91 114.13 1184.52 113.447C1185.12 112.756 1185.86 112.227 1186.74 111.857C1187.63 111.481 1188.64 111.293 1189.79 111.293C1190.54 111.293 1191.28 111.379 1192 111.55C1192.73 111.714 1193.41 111.95 1194.03 112.257L1193.17 114.288C1192.65 114.042 1192.11 113.83 1191.54 113.652C1190.97 113.474 1190.38 113.385 1189.78 113.385ZM1206.71 120.799C1206.71 121.742 1206.59 122.58 1206.34 123.311C1206.09 124.042 1205.74 124.661 1205.26 125.167C1204.79 125.666 1204.23 126.049 1203.56 126.315C1202.9 126.575 1202.15 126.705 1201.32 126.705C1200.54 126.705 1199.82 126.575 1199.17 126.315C1198.52 126.049 1197.96 125.666 1197.48 125.167C1197.01 124.661 1196.64 124.042 1196.38 123.311C1196.12 122.58 1195.99 121.742 1195.99 120.799C1195.99 119.548 1196.21 118.488 1196.64 117.62C1197.08 116.745 1197.7 116.079 1198.51 115.621C1199.31 115.163 1200.27 114.934 1201.39 114.934C1202.43 114.934 1203.36 115.163 1204.16 115.621C1204.96 116.079 1205.58 116.745 1206.03 117.62C1206.48 118.495 1206.71 119.555 1206.71 120.799ZM1198.48 120.799C1198.48 121.626 1198.58 122.333 1198.77 122.921C1198.98 123.509 1199.29 123.96 1199.72 124.275C1200.14 124.583 1200.69 124.736 1201.36 124.736C1202.03 124.736 1202.57 124.583 1203 124.275C1203.42 123.96 1203.73 123.509 1203.93 122.921C1204.13 122.333 1204.23 121.626 1204.23 120.799C1204.23 119.972 1204.13 119.271 1203.93 118.697C1203.73 118.116 1203.42 117.675 1203 117.374C1202.57 117.066 1202.02 116.913 1201.35 116.913C1200.35 116.913 1199.62 117.248 1199.16 117.917C1198.71 118.587 1198.48 119.548 1198.48 120.799ZM1215.61 114.934C1216.88 114.934 1217.88 115.265 1218.59 115.928C1219.31 116.584 1219.67 117.641 1219.67 119.097V126.5H1217.26V119.548C1217.26 118.666 1217.07 118.006 1216.71 117.569C1216.35 117.125 1215.79 116.902 1215.03 116.902C1213.93 116.902 1213.16 117.241 1212.73 117.917C1212.31 118.594 1212.1 119.575 1212.1 120.86V126.5H1209.69V115.149H1211.57L1211.9 116.687H1212.04C1212.28 116.291 1212.59 115.966 1212.95 115.713C1213.32 115.453 1213.73 115.258 1214.18 115.128C1214.64 114.999 1215.11 114.934 1215.61 114.934ZM1228.92 116.984H1226.16V126.5H1223.75V116.984H1221.9V115.826L1223.75 115.118V114.329C1223.75 113.365 1223.9 112.599 1224.2 112.032C1224.51 111.464 1224.95 111.058 1225.52 110.812C1226.09 110.559 1226.77 110.432 1227.57 110.432C1228.09 110.432 1228.56 110.477 1228.99 110.565C1229.42 110.647 1229.78 110.743 1230.08 110.853L1229.45 112.678C1229.22 112.603 1228.96 112.534 1228.67 112.473C1228.39 112.404 1228.08 112.37 1227.75 112.37C1227.2 112.37 1226.8 112.541 1226.54 112.883C1226.29 113.225 1226.16 113.724 1226.16 114.38V115.149H1228.92V116.984ZM1233.26 115.149V126.5H1230.85V115.149H1233.26ZM1232.07 110.801C1232.44 110.801 1232.75 110.9 1233.02 111.099C1233.29 111.297 1233.43 111.639 1233.43 112.124C1233.43 112.603 1233.29 112.944 1233.02 113.149C1232.75 113.348 1232.44 113.447 1232.07 113.447C1231.68 113.447 1231.36 113.348 1231.09 113.149C1230.83 112.944 1230.7 112.603 1230.7 112.124C1230.7 111.639 1230.83 111.297 1231.09 111.099C1231.36 110.9 1231.68 110.801 1232.07 110.801ZM1240.15 131.545C1238.61 131.545 1237.44 131.268 1236.61 130.714C1235.79 130.161 1235.38 129.385 1235.38 128.387C1235.38 127.689 1235.6 127.098 1236.04 126.613C1236.48 126.134 1237.1 125.803 1237.92 125.618C1237.61 125.481 1237.34 125.27 1237.12 124.982C1236.9 124.688 1236.79 124.364 1236.79 124.008C1236.79 123.584 1236.91 123.222 1237.15 122.921C1237.39 122.621 1237.75 122.33 1238.22 122.05C1237.63 121.797 1237.15 121.387 1236.79 120.819C1236.43 120.245 1236.26 119.572 1236.26 118.799C1236.26 117.979 1236.43 117.282 1236.78 116.708C1237.13 116.126 1237.64 115.686 1238.31 115.385C1238.98 115.077 1239.79 114.923 1240.74 114.923C1240.94 114.923 1241.16 114.937 1241.4 114.964C1241.65 114.985 1241.88 115.012 1242.08 115.046C1242.29 115.074 1242.45 115.104 1242.56 115.139H1246.49V116.482L1244.56 116.841C1244.75 117.101 1244.89 117.398 1245 117.733C1245.11 118.061 1245.17 118.42 1245.17 118.81C1245.17 119.985 1244.76 120.912 1243.95 121.588C1243.14 122.258 1242.03 122.593 1240.6 122.593C1240.26 122.58 1239.93 122.552 1239.61 122.511C1239.36 122.662 1239.17 122.829 1239.05 123.014C1238.92 123.191 1238.85 123.393 1238.85 123.619C1238.85 123.803 1238.92 123.954 1239.05 124.07C1239.17 124.179 1239.37 124.261 1239.62 124.316C1239.88 124.371 1240.19 124.398 1240.56 124.398H1242.52C1243.77 124.398 1244.72 124.661 1245.37 125.188C1246.03 125.714 1246.36 126.486 1246.36 127.505C1246.36 128.797 1245.82 129.792 1244.76 130.489C1243.69 131.193 1242.16 131.545 1240.15 131.545ZM1240.24 129.853C1241.09 129.853 1241.79 129.771 1242.37 129.607C1242.94 129.443 1243.38 129.207 1243.67 128.899C1243.96 128.599 1244.11 128.24 1244.11 127.823C1244.11 127.454 1244.02 127.17 1243.83 126.972C1243.65 126.773 1243.37 126.637 1243 126.562C1242.63 126.486 1242.18 126.449 1241.63 126.449H1239.84C1239.4 126.449 1239.01 126.517 1238.67 126.654C1238.32 126.797 1238.06 127.002 1237.87 127.269C1237.68 127.536 1237.59 127.857 1237.59 128.233C1237.59 128.752 1237.82 129.152 1238.28 129.433C1238.74 129.713 1239.4 129.853 1240.24 129.853ZM1240.72 121.014C1241.42 121.014 1241.94 120.823 1242.29 120.44C1242.63 120.05 1242.8 119.503 1242.8 118.799C1242.8 118.034 1242.62 117.459 1242.26 117.077C1241.92 116.694 1241.4 116.502 1240.71 116.502C1240.03 116.502 1239.51 116.697 1239.16 117.087C1238.81 117.477 1238.63 118.054 1238.63 118.82C1238.63 119.51 1238.81 120.05 1239.16 120.44C1239.51 120.823 1240.03 121.014 1240.72 121.014ZM1256.4 123.26C1256.4 124.005 1256.22 124.634 1255.86 125.146C1255.49 125.659 1254.96 126.049 1254.27 126.315C1253.58 126.575 1252.73 126.705 1251.72 126.705C1250.93 126.705 1250.25 126.647 1249.67 126.531C1249.11 126.421 1248.57 126.25 1248.06 126.018V123.937C1248.6 124.189 1249.21 124.408 1249.88 124.593C1250.55 124.777 1251.19 124.87 1251.8 124.87C1252.59 124.87 1253.16 124.747 1253.51 124.5C1253.86 124.248 1254.03 123.913 1254.03 123.496C1254.03 123.25 1253.96 123.031 1253.82 122.839C1253.68 122.641 1253.42 122.439 1253.04 122.234C1252.66 122.022 1252.11 121.77 1251.38 121.476C1250.66 121.188 1250.05 120.901 1249.56 120.614C1249.07 120.327 1248.7 119.982 1248.44 119.579C1248.19 119.168 1248.06 118.646 1248.06 118.01C1248.06 117.005 1248.46 116.243 1249.25 115.723C1250.05 115.197 1251.11 114.934 1252.42 114.934C1253.12 114.934 1253.77 115.005 1254.39 115.149C1255.01 115.286 1255.62 115.487 1256.22 115.754L1255.46 117.569C1254.94 117.343 1254.43 117.159 1253.91 117.015C1253.4 116.865 1252.87 116.79 1252.34 116.79C1251.72 116.79 1251.24 116.885 1250.91 117.077C1250.59 117.268 1250.43 117.542 1250.43 117.897C1250.43 118.164 1250.51 118.389 1250.67 118.574C1250.82 118.758 1251.09 118.943 1251.48 119.127C1251.87 119.312 1252.41 119.541 1253.1 119.814C1253.77 120.074 1254.36 120.348 1254.85 120.635C1255.35 120.915 1255.73 121.26 1256 121.67C1256.27 122.081 1256.4 122.61 1256.4 123.26Z" fill="white"/>
<rect width="111" height="18" transform="translate(1130 58)" fill="#020202"/>
<path d="M1143.17 72H1141.66V62.7197H1146.91V64.002H1143.17V66.8965H1146.67V68.1724H1143.17V72ZM1154.66 68.4707C1154.66 69.0547 1154.59 69.5731 1154.43 70.0259C1154.28 70.4787 1154.06 70.8617 1153.77 71.1748C1153.48 71.4837 1153.12 71.7207 1152.71 71.8857C1152.3 72.0465 1151.84 72.127 1151.32 72.127C1150.84 72.127 1150.4 72.0465 1150 71.8857C1149.6 71.7207 1149.25 71.4837 1148.95 71.1748C1148.66 70.8617 1148.43 70.4787 1148.27 70.0259C1148.11 69.5731 1148.03 69.0547 1148.03 68.4707C1148.03 67.6963 1148.16 67.0404 1148.43 66.5029C1148.7 65.9613 1149.09 65.5487 1149.58 65.2651C1150.08 64.9816 1150.68 64.8398 1151.37 64.8398C1152.02 64.8398 1152.59 64.9816 1153.08 65.2651C1153.58 65.5487 1153.96 65.9613 1154.24 66.5029C1154.52 67.0446 1154.66 67.7005 1154.66 68.4707ZM1149.57 68.4707C1149.57 68.9827 1149.63 69.4207 1149.75 69.7847C1149.88 70.1486 1150.07 70.4279 1150.33 70.6226C1150.6 70.813 1150.93 70.9082 1151.35 70.9082C1151.76 70.9082 1152.1 70.813 1152.37 70.6226C1152.63 70.4279 1152.82 70.1486 1152.94 69.7847C1153.07 69.4207 1153.13 68.9827 1153.13 68.4707C1153.13 67.9587 1153.07 67.5249 1152.94 67.1694C1152.82 66.8097 1152.63 66.5368 1152.37 66.3506C1152.1 66.1602 1151.76 66.0649 1151.34 66.0649C1150.73 66.0649 1150.27 66.2723 1149.99 66.687C1149.71 67.1017 1149.57 67.6963 1149.57 68.4707ZM1162.5 64.9731V72H1161.33L1161.12 71.0542H1161.04C1160.89 71.2954 1160.71 71.4964 1160.48 71.6572C1160.25 71.8138 1160 71.9302 1159.72 72.0063C1159.44 72.0868 1159.14 72.127 1158.83 72.127C1158.3 72.127 1157.85 72.0381 1157.48 71.8604C1157.1 71.6784 1156.82 71.3991 1156.62 71.0225C1156.42 70.6458 1156.32 70.1592 1156.32 69.5625V64.9731H1157.82V69.2832C1157.82 69.8291 1157.93 70.2375 1158.15 70.5083C1158.37 70.7791 1158.72 70.9146 1159.19 70.9146C1159.64 70.9146 1160 70.8215 1160.27 70.6353C1160.53 70.4491 1160.72 70.174 1160.83 69.8101C1160.95 69.4461 1161 68.9997 1161 68.4707V64.9731H1162.5ZM1168.3 64.8398C1169.1 64.8398 1169.71 65.0451 1170.15 65.4556C1170.6 65.8618 1170.82 66.5156 1170.82 67.417V72H1169.33V67.6963C1169.33 67.1504 1169.21 66.742 1168.99 66.4712C1168.77 66.1961 1168.42 66.0586 1167.95 66.0586C1167.27 66.0586 1166.79 66.2681 1166.53 66.687C1166.26 67.106 1166.13 67.7132 1166.13 68.5088V72H1164.64V64.9731H1165.8L1166.01 65.9253H1166.1C1166.25 65.6799 1166.44 65.4788 1166.66 65.3223C1166.89 65.1615 1167.14 65.0409 1167.42 64.9604C1167.71 64.88 1168 64.8398 1168.3 64.8398ZM1175.27 72.127C1174.43 72.127 1173.76 71.8223 1173.25 71.2129C1172.75 70.5993 1172.49 69.6958 1172.49 68.5024C1172.49 67.2964 1172.75 66.3844 1173.26 65.7666C1173.78 65.1488 1174.46 64.8398 1175.3 64.8398C1175.65 64.8398 1175.97 64.8885 1176.23 64.9858C1176.5 65.0789 1176.73 65.2059 1176.92 65.3667C1177.11 65.5275 1177.28 65.7074 1177.41 65.9062H1177.48C1177.46 65.7751 1177.44 65.5868 1177.41 65.3413C1177.38 65.0916 1177.37 64.861 1177.37 64.6494V62.123H1178.87V72H1177.7L1177.43 71.0415H1177.37C1177.24 71.2446 1177.08 71.4287 1176.89 71.5938C1176.7 71.7546 1176.47 71.8836 1176.2 71.981C1175.94 72.0783 1175.63 72.127 1175.27 72.127ZM1175.69 70.9146C1176.33 70.9146 1176.78 70.7305 1177.04 70.3623C1177.3 69.9941 1177.44 69.4419 1177.44 68.7056V68.5088C1177.44 67.7217 1177.32 67.1187 1177.06 66.6997C1176.81 66.2765 1176.35 66.0649 1175.67 66.0649C1175.14 66.0649 1174.73 66.2829 1174.44 66.7188C1174.16 67.1504 1174.02 67.7534 1174.02 68.5278C1174.02 69.3022 1174.16 69.8947 1174.44 70.3052C1174.73 70.7114 1175.14 70.9146 1175.69 70.9146ZM1183.76 64.8398C1184.65 64.8398 1185.32 65.0366 1185.77 65.4302C1186.23 65.8237 1186.46 66.4373 1186.46 67.271V72H1185.4L1185.11 71.0034H1185.06C1184.86 71.2573 1184.66 71.4668 1184.45 71.6318C1184.23 71.7969 1183.99 71.9196 1183.71 72C1183.43 72.0846 1183.1 72.127 1182.7 72.127C1182.28 72.127 1181.91 72.0508 1181.58 71.8984C1181.25 71.7419 1180.99 71.5049 1180.8 71.1875C1180.61 70.8701 1180.51 70.4681 1180.51 69.9814C1180.51 69.2578 1180.78 68.714 1181.32 68.3501C1181.86 67.9862 1182.68 67.7852 1183.77 67.7471L1184.99 67.7026V67.3345C1184.99 66.8478 1184.87 66.5008 1184.64 66.2935C1184.42 66.0861 1184.1 65.9824 1183.69 65.9824C1183.34 65.9824 1183 66.0332 1182.67 66.1348C1182.34 66.2363 1182.02 66.3612 1181.7 66.5093L1181.22 65.4556C1181.56 65.2736 1181.95 65.1255 1182.39 65.0112C1182.83 64.897 1183.29 64.8398 1183.76 64.8398ZM1184.98 68.6421L1184.07 68.6738C1183.33 68.6992 1182.8 68.8262 1182.5 69.0547C1182.2 69.2832 1182.05 69.5964 1182.05 69.9941C1182.05 70.3411 1182.16 70.5951 1182.36 70.7559C1182.57 70.9124 1182.84 70.9907 1183.18 70.9907C1183.7 70.9907 1184.13 70.8447 1184.47 70.5527C1184.81 70.2565 1184.98 69.8228 1184.98 69.2515V68.6421ZM1191.16 70.9209C1191.36 70.9209 1191.55 70.904 1191.74 70.8701C1191.93 70.832 1192.1 70.7876 1192.26 70.7368V71.8667C1192.1 71.9386 1191.88 72 1191.62 72.0508C1191.36 72.1016 1191.08 72.127 1190.8 72.127C1190.4 72.127 1190.04 72.0614 1189.73 71.9302C1189.41 71.7948 1189.16 71.5641 1188.97 71.2383C1188.79 70.9124 1188.69 70.4618 1188.69 69.8862V66.1094H1187.73V65.4429L1188.76 64.916L1189.25 63.4116H1190.19V64.9731H1192.2V66.1094H1190.19V69.8672C1190.19 70.2227 1190.28 70.4871 1190.46 70.6606C1190.64 70.8341 1190.87 70.9209 1191.16 70.9209ZM1195.18 64.9731V72H1193.69V64.9731H1195.18ZM1194.44 62.2817C1194.67 62.2817 1194.87 62.3431 1195.03 62.4658C1195.2 62.5885 1195.29 62.8001 1195.29 63.1006C1195.29 63.3968 1195.2 63.6084 1195.03 63.7354C1194.87 63.8581 1194.67 63.9194 1194.44 63.9194C1194.21 63.9194 1194.01 63.8581 1193.84 63.7354C1193.68 63.6084 1193.6 63.3968 1193.6 63.1006C1193.6 62.8001 1193.68 62.5885 1193.84 62.4658C1194.01 62.3431 1194.21 62.2817 1194.44 62.2817ZM1203.54 68.4707C1203.54 69.0547 1203.46 69.5731 1203.31 70.0259C1203.16 70.4787 1202.94 70.8617 1202.65 71.1748C1202.35 71.4837 1202 71.7207 1201.59 71.8857C1201.18 72.0465 1200.72 72.127 1200.2 72.127C1199.72 72.127 1199.28 72.0465 1198.87 71.8857C1198.47 71.7207 1198.12 71.4837 1197.83 71.1748C1197.54 70.8617 1197.31 70.4787 1197.15 70.0259C1196.99 69.5731 1196.91 69.0547 1196.91 68.4707C1196.91 67.6963 1197.04 67.0404 1197.31 66.5029C1197.58 65.9613 1197.96 65.5487 1198.46 65.2651C1198.96 64.9816 1199.56 64.8398 1200.25 64.8398C1200.89 64.8398 1201.46 64.9816 1201.96 65.2651C1202.45 65.5487 1202.84 65.9613 1203.12 66.5029C1203.4 67.0446 1203.54 67.7005 1203.54 68.4707ZM1198.44 68.4707C1198.44 68.9827 1198.5 69.4207 1198.63 69.7847C1198.75 70.1486 1198.95 70.4279 1199.21 70.6226C1199.47 70.813 1199.81 70.9082 1200.23 70.9082C1200.64 70.9082 1200.98 70.813 1201.24 70.6226C1201.5 70.4279 1201.7 70.1486 1201.82 69.7847C1201.94 69.4207 1202 68.9827 1202 68.4707C1202 67.9587 1201.94 67.5249 1201.82 67.1694C1201.7 66.8097 1201.5 66.5368 1201.24 66.3506C1200.98 66.1602 1200.64 66.0649 1200.22 66.0649C1199.6 66.0649 1199.15 66.2723 1198.87 66.687C1198.58 67.1017 1198.44 67.6963 1198.44 68.4707ZM1208.92 64.8398C1209.71 64.8398 1210.32 65.0451 1210.76 65.4556C1211.21 65.8618 1211.43 66.5156 1211.43 67.417V72H1209.94V67.6963C1209.94 67.1504 1209.83 66.742 1209.6 66.4712C1209.38 66.1961 1209.03 66.0586 1208.56 66.0586C1207.88 66.0586 1207.41 66.2681 1207.14 66.687C1206.88 67.106 1206.75 67.7132 1206.75 68.5088V72H1205.25V64.9731H1206.42L1206.62 65.9253H1206.71C1206.86 65.6799 1207.05 65.4788 1207.27 65.3223C1207.5 65.1615 1207.75 65.0409 1208.03 64.9604C1208.32 64.88 1208.61 64.8398 1208.92 64.8398ZM1221.21 67.271C1221.21 68.3162 1221.01 69.1901 1220.62 69.8926C1220.23 70.5908 1219.67 71.1177 1218.93 71.4731C1218.19 71.8244 1217.29 72 1216.25 72H1213.67V62.7197H1216.53C1217.49 62.7197 1218.32 62.8932 1219.02 63.2402C1219.71 63.583 1220.25 64.0929 1220.63 64.77C1221.02 65.4429 1221.21 66.2765 1221.21 67.271ZM1219.62 67.3154C1219.62 66.5537 1219.5 65.9274 1219.26 65.4365C1219.02 64.9456 1218.67 64.5817 1218.2 64.3447C1217.74 64.1035 1217.17 63.9829 1216.5 63.9829H1215.19V70.7241H1216.27C1217.39 70.7241 1218.23 70.4385 1218.79 69.8672C1219.34 69.2959 1219.62 68.4453 1219.62 67.3154ZM1223.21 62.7197H1225.97C1227.16 62.7197 1228.07 62.8932 1228.68 63.2402C1229.29 63.5872 1229.59 64.186 1229.59 65.0366C1229.59 65.3921 1229.53 65.7137 1229.4 66.0015C1229.28 66.285 1229.1 66.5199 1228.86 66.7061C1228.62 66.888 1228.33 67.0107 1227.98 67.0742V67.1377C1228.34 67.2012 1228.66 67.3133 1228.94 67.4741C1229.23 67.6349 1229.45 67.8656 1229.61 68.166C1229.77 68.4665 1229.86 68.8558 1229.86 69.334C1229.86 69.901 1229.72 70.3835 1229.45 70.7812C1229.18 71.179 1228.8 71.4816 1228.3 71.689C1227.81 71.8963 1227.22 72 1226.54 72H1223.21V62.7197ZM1224.73 66.5474H1226.19C1226.88 66.5474 1227.36 66.4352 1227.62 66.2109C1227.89 65.9867 1228.02 65.6587 1228.02 65.2271C1228.02 64.7869 1227.86 64.4696 1227.55 64.2749C1227.23 64.0802 1226.73 63.9829 1226.05 63.9829H1224.73V66.5474ZM1224.73 67.7788V70.7241H1226.33C1227.05 70.7241 1227.54 70.5866 1227.83 70.3115C1228.12 70.0365 1228.26 69.6641 1228.26 69.1943C1228.26 68.9066 1228.2 68.6569 1228.07 68.4453C1227.94 68.2337 1227.73 68.0708 1227.44 67.9565C1227.15 67.8381 1226.75 67.7788 1226.26 67.7788H1224.73Z" fill="#FF5C00"/>
<path d="M1059.71 121.707C1060.1 121.317 1060.1 120.683 1059.71 120.293L1053.34 113.929C1052.95 113.538 1052.32 113.538 1051.93 113.929C1051.54 114.319 1051.54 114.953 1051.93 115.343L1057.59 121L1051.93 126.657C1051.54 127.047 1051.54 127.681 1051.93 128.071C1052.32 128.462 1052.95 128.462 1053.34 128.071L1059.71 121.707ZM802 121L802 122L1059 122L1059 121L1059 120L802 120L802 121Z" fill="white"/>
<path d="M542.707 121.707C543.098 121.317 543.098 120.683 542.707 120.293L536.343 113.929C535.953 113.538 535.319 113.538 534.929 113.929C534.538 114.319 534.538 114.953 534.929 115.343L540.586 121L534.929 126.657C534.538 127.047 534.538 127.681 534.929 128.071C535.319 128.462 535.953 128.462 536.343 128.071L542.707 121.707ZM285 121L285 122L542 122L542 121L542 120L285 120L285 121Z" fill="white"/>
<path d="M1186.71 184.293C1186.32 183.902 1185.68 183.902 1185.29 184.293L1178.93 190.657C1178.54 191.047 1178.54 191.681 1178.93 192.071C1179.32 192.462 1179.95 192.462 1180.34 192.071L1186 186.414L1191.66 192.071C1192.05 192.462 1192.68 192.462 1193.07 192.071C1193.46 191.681 1193.46 191.047 1193.07 190.657L1186.71 184.293ZM1186 329L1187 329L1187 185L1186 185L1185 185L1185 329L1186 329Z" fill="white"/>
<rect width="151" height="64" transform="translate(855 89)" fill="#020202"/>
<path d="M877.799 117H875.358V102.009H883.828V104.08H877.799V108.756H883.438V110.817H877.799V117ZM891.041 105.434C892.053 105.434 892.921 105.642 893.646 106.059C894.37 106.476 894.928 107.067 895.317 107.833C895.707 108.599 895.902 109.515 895.902 110.581V111.873H888.324C888.351 112.974 888.645 113.821 889.206 114.416C889.773 115.011 890.566 115.308 891.585 115.308C892.309 115.308 892.959 115.24 893.533 115.103C894.114 114.959 894.712 114.751 895.327 114.478V116.436C894.76 116.703 894.182 116.897 893.595 117.021C893.007 117.144 892.303 117.205 891.482 117.205C890.368 117.205 889.387 116.99 888.539 116.559C887.699 116.122 887.039 115.472 886.56 114.611C886.089 113.75 885.853 112.68 885.853 111.401C885.853 110.13 886.068 109.05 886.499 108.161C886.93 107.272 887.534 106.596 888.314 106.131C889.093 105.666 890.002 105.434 891.041 105.434ZM891.041 107.249C890.283 107.249 889.667 107.495 889.196 107.987C888.731 108.479 888.457 109.2 888.375 110.15H893.543C893.536 109.583 893.441 109.081 893.256 108.643C893.078 108.206 892.805 107.864 892.436 107.618C892.074 107.372 891.609 107.249 891.041 107.249ZM903.054 115.257C903.368 115.257 903.679 115.229 903.987 115.175C904.294 115.113 904.575 115.042 904.827 114.959V116.785C904.561 116.901 904.216 117 903.792 117.082C903.368 117.164 902.927 117.205 902.469 117.205C901.827 117.205 901.249 117.099 900.736 116.887C900.223 116.668 899.817 116.296 899.516 115.77C899.215 115.243 899.065 114.515 899.065 113.585V107.484H897.516V106.408L899.178 105.557L899.967 103.126H901.485V105.649H904.735V107.484H901.485V113.555C901.485 114.129 901.628 114.556 901.915 114.836C902.202 115.117 902.582 115.257 903.054 115.257ZM911.918 117.205C910.845 117.205 909.915 116.997 909.129 116.58C908.343 116.163 907.738 115.523 907.314 114.662C906.89 113.801 906.678 112.707 906.678 111.381C906.678 110 906.911 108.872 907.375 107.997C907.84 107.122 908.483 106.476 909.303 106.059C910.13 105.642 911.077 105.434 912.143 105.434C912.82 105.434 913.432 105.502 913.979 105.639C914.533 105.769 915.001 105.929 915.384 106.121L914.666 108.048C914.249 107.877 913.822 107.734 913.384 107.618C912.947 107.501 912.526 107.443 912.123 107.443C911.46 107.443 910.906 107.59 910.462 107.884C910.024 108.178 909.696 108.616 909.477 109.197C909.266 109.778 909.16 110.499 909.16 111.36C909.16 112.194 909.269 112.898 909.488 113.473C909.706 114.04 910.031 114.471 910.462 114.765C910.892 115.052 911.422 115.195 912.051 115.195C912.673 115.195 913.23 115.12 913.723 114.97C914.215 114.819 914.68 114.625 915.117 114.385V116.477C914.686 116.723 914.225 116.904 913.733 117.021C913.241 117.144 912.636 117.205 911.918 117.205ZM920.403 101.045V105.054C920.403 105.471 920.389 105.878 920.362 106.274C920.341 106.671 920.317 106.979 920.29 107.197H920.423C920.663 106.801 920.956 106.476 921.305 106.223C921.654 105.963 922.043 105.769 922.474 105.639C922.912 105.509 923.376 105.444 923.869 105.444C924.737 105.444 925.475 105.591 926.083 105.885C926.692 106.172 927.157 106.62 927.478 107.228C927.806 107.836 927.97 108.626 927.97 109.597V117H925.56V110.048C925.56 109.166 925.379 108.506 925.017 108.069C924.655 107.625 924.094 107.402 923.335 107.402C922.604 107.402 922.023 107.556 921.592 107.864C921.168 108.165 920.864 108.612 920.68 109.207C920.495 109.795 920.403 110.513 920.403 111.36V117H917.993V101.045H920.403ZM939.639 117H937.219V101.045H939.639V117ZM947.744 105.434C949.18 105.434 950.263 105.751 950.995 106.387C951.733 107.023 952.102 108.014 952.102 109.361V117H950.39L949.928 115.39H949.846C949.525 115.8 949.193 116.139 948.852 116.405C948.51 116.672 948.113 116.87 947.662 117C947.218 117.137 946.674 117.205 946.032 117.205C945.355 117.205 944.75 117.082 944.217 116.836C943.684 116.583 943.263 116.2 942.956 115.688C942.648 115.175 942.494 114.525 942.494 113.739C942.494 112.57 942.928 111.692 943.796 111.104C944.671 110.516 945.991 110.191 947.754 110.13L949.723 110.058V109.463C949.723 108.677 949.539 108.117 949.169 107.782C948.807 107.447 948.294 107.279 947.631 107.279C947.064 107.279 946.514 107.361 945.981 107.525C945.447 107.689 944.928 107.891 944.422 108.13L943.643 106.428C944.196 106.134 944.825 105.895 945.529 105.71C946.24 105.526 946.979 105.434 947.744 105.434ZM949.713 111.576L948.247 111.627C947.044 111.668 946.199 111.873 945.714 112.242C945.229 112.611 944.986 113.117 944.986 113.76C944.986 114.32 945.153 114.73 945.488 114.99C945.823 115.243 946.264 115.37 946.811 115.37C947.645 115.37 948.336 115.134 948.882 114.662C949.436 114.184 949.713 113.483 949.713 112.56V111.576ZM963.284 117H954.66V115.513L960.392 107.505H955.009V105.649H963.12V107.29L957.501 115.144H963.284V117ZM968.354 105.649V117H965.944V105.649H968.354ZM967.165 101.301C967.534 101.301 967.852 101.4 968.118 101.599C968.392 101.797 968.528 102.139 968.528 102.624C968.528 103.103 968.392 103.444 968.118 103.649C967.852 103.848 967.534 103.947 967.165 103.947C966.782 103.947 966.457 103.848 966.191 103.649C965.931 103.444 965.801 103.103 965.801 102.624C965.801 102.139 965.931 101.797 966.191 101.599C966.457 101.4 966.782 101.301 967.165 101.301ZM974.44 117H972.02V101.045H974.44V117ZM976.383 105.649H979.008L981.335 112.129C981.438 112.423 981.53 112.714 981.612 113.001C981.701 113.281 981.776 113.558 981.838 113.832C981.906 114.105 981.961 114.378 982.002 114.652H982.063C982.132 114.296 982.227 113.9 982.35 113.462C982.48 113.018 982.624 112.574 982.781 112.129L985.016 105.649H987.611L982.74 118.559C982.46 119.297 982.114 119.926 981.704 120.445C981.301 120.972 980.822 121.368 980.269 121.635C979.715 121.908 979.083 122.045 978.372 122.045C978.03 122.045 977.733 122.024 977.48 121.983C977.227 121.949 977.011 121.912 976.834 121.871V119.943C976.977 119.977 977.158 120.008 977.377 120.035C977.596 120.062 977.822 120.076 978.054 120.076C978.485 120.076 978.857 119.991 979.172 119.82C979.486 119.649 979.753 119.406 979.971 119.092C980.19 118.784 980.371 118.432 980.515 118.036L980.915 116.969L976.383 105.649ZM867.224 129.649V141H864.815V129.649H867.224ZM866.035 125.301C866.404 125.301 866.722 125.4 866.989 125.599C867.262 125.797 867.399 126.139 867.399 126.624C867.399 127.103 867.262 127.444 866.989 127.649C866.722 127.848 866.404 127.947 866.035 127.947C865.652 127.947 865.327 127.848 865.061 127.649C864.801 127.444 864.671 127.103 864.671 126.624C864.671 126.139 864.801 125.797 865.061 125.599C865.327 125.4 865.652 125.301 866.035 125.301ZM876.806 129.434C878.085 129.434 879.079 129.765 879.79 130.428C880.508 131.084 880.867 132.141 880.867 133.597V141H878.457V134.048C878.457 133.166 878.276 132.506 877.914 132.069C877.552 131.625 876.991 131.402 876.232 131.402C875.132 131.402 874.366 131.741 873.935 132.417C873.512 133.094 873.3 134.075 873.3 135.36V141H870.89V129.649H872.766L873.105 131.187H873.238C873.484 130.791 873.788 130.466 874.151 130.213C874.52 129.953 874.93 129.758 875.381 129.628C875.839 129.499 876.314 129.434 876.806 129.434ZM895.868 129.434C896.059 129.434 896.268 129.444 896.494 129.464C896.719 129.485 896.914 129.512 897.078 129.546L896.852 131.802C896.709 131.761 896.531 131.73 896.319 131.71C896.114 131.689 895.93 131.679 895.766 131.679C895.335 131.679 894.925 131.751 894.535 131.895C894.145 132.031 893.8 132.243 893.499 132.53C893.199 132.811 892.963 133.163 892.792 133.586C892.621 134.01 892.536 134.502 892.536 135.063V141H890.116V129.649H892.002L892.33 131.648H892.443C892.669 131.245 892.949 130.876 893.284 130.541C893.619 130.206 894.002 129.939 894.432 129.741C894.87 129.536 895.349 129.434 895.868 129.434ZM909.439 135.299C909.439 136.242 909.316 137.08 909.07 137.811C908.824 138.542 908.465 139.161 907.993 139.667C907.521 140.166 906.954 140.549 906.291 140.815C905.628 141.075 904.879 141.205 904.045 141.205C903.266 141.205 902.552 141.075 901.902 140.815C901.253 140.549 900.689 140.166 900.21 139.667C899.739 139.161 899.373 138.542 899.113 137.811C898.853 137.08 898.724 136.242 898.724 135.299C898.724 134.048 898.939 132.988 899.37 132.12C899.807 131.245 900.429 130.579 901.236 130.121C902.042 129.663 903.003 129.434 904.117 129.434C905.163 129.434 906.086 129.663 906.886 130.121C907.685 130.579 908.311 131.245 908.762 132.12C909.213 132.995 909.439 134.055 909.439 135.299ZM901.205 135.299C901.205 136.126 901.304 136.833 901.502 137.421C901.707 138.009 902.022 138.46 902.446 138.775C902.87 139.083 903.416 139.236 904.086 139.236C904.756 139.236 905.303 139.083 905.727 138.775C906.151 138.46 906.462 138.009 906.66 137.421C906.858 136.833 906.957 136.126 906.957 135.299C906.957 134.472 906.858 133.771 906.66 133.197C906.462 132.616 906.151 132.175 905.727 131.874C905.303 131.566 904.753 131.413 904.076 131.413C903.078 131.413 902.35 131.748 901.892 132.417C901.434 133.087 901.205 134.048 901.205 135.299ZM922.312 129.649V141H920.415L920.087 139.472H919.954C919.715 139.862 919.411 140.187 919.041 140.446C918.672 140.699 918.262 140.887 917.811 141.01C917.36 141.14 916.885 141.205 916.386 141.205C915.531 141.205 914.8 141.062 914.191 140.774C913.59 140.48 913.128 140.029 912.807 139.421C912.486 138.812 912.325 138.026 912.325 137.062V129.649H914.745V136.611C914.745 137.493 914.923 138.153 915.278 138.59C915.641 139.028 916.201 139.247 916.96 139.247C917.691 139.247 918.272 139.096 918.703 138.795C919.134 138.495 919.438 138.05 919.616 137.462C919.8 136.875 919.893 136.153 919.893 135.299V129.649H922.312ZM929.218 146.045C927.68 146.045 926.501 145.768 925.681 145.214C924.86 144.661 924.45 143.885 924.45 142.887C924.45 142.189 924.669 141.598 925.106 141.113C925.544 140.634 926.169 140.303 926.983 140.118C926.675 139.981 926.409 139.77 926.183 139.482C925.964 139.188 925.855 138.864 925.855 138.508C925.855 138.084 925.975 137.722 926.214 137.421C926.453 137.121 926.812 136.83 927.291 136.55C926.696 136.297 926.217 135.887 925.855 135.319C925.5 134.745 925.322 134.072 925.322 133.299C925.322 132.479 925.496 131.782 925.845 131.208C926.193 130.626 926.703 130.186 927.373 129.885C928.042 129.577 928.853 129.423 929.803 129.423C930.008 129.423 930.23 129.437 930.469 129.464C930.715 129.485 930.941 129.512 931.146 129.546C931.358 129.574 931.519 129.604 931.628 129.639H935.555V130.982L933.627 131.341C933.812 131.601 933.959 131.898 934.068 132.233C934.178 132.561 934.232 132.92 934.232 133.31C934.232 134.485 933.826 135.412 933.012 136.088C932.206 136.758 931.091 137.093 929.669 137.093C929.328 137.08 928.996 137.052 928.675 137.011C928.429 137.162 928.241 137.329 928.111 137.514C927.981 137.691 927.916 137.893 927.916 138.119C927.916 138.303 927.981 138.454 928.111 138.57C928.241 138.679 928.432 138.761 928.685 138.816C928.945 138.871 929.259 138.898 929.628 138.898H931.587C932.831 138.898 933.781 139.161 934.437 139.688C935.094 140.214 935.422 140.986 935.422 142.005C935.422 143.297 934.889 144.292 933.822 144.989C932.756 145.693 931.221 146.045 929.218 146.045ZM929.311 144.353C930.151 144.353 930.859 144.271 931.433 144.107C932.007 143.943 932.441 143.707 932.735 143.399C933.029 143.099 933.176 142.74 933.176 142.323C933.176 141.954 933.084 141.67 932.899 141.472C932.715 141.273 932.438 141.137 932.069 141.062C931.7 140.986 931.242 140.949 930.695 140.949H928.911C928.466 140.949 928.073 141.017 927.731 141.154C927.39 141.297 927.123 141.502 926.932 141.769C926.747 142.036 926.655 142.357 926.655 142.733C926.655 143.252 926.884 143.652 927.342 143.933C927.807 144.213 928.463 144.353 929.311 144.353ZM929.782 135.514C930.486 135.514 931.009 135.323 931.351 134.94C931.693 134.55 931.864 134.003 931.864 133.299C931.864 132.534 931.686 131.959 931.331 131.577C930.982 131.194 930.462 131.002 929.772 131.002C929.095 131.002 928.579 131.197 928.224 131.587C927.875 131.977 927.701 132.554 927.701 133.32C927.701 134.01 927.875 134.55 928.224 134.94C928.579 135.323 929.099 135.514 929.782 135.514ZM940.246 129.649V141H937.836V129.649H940.246ZM939.057 125.301C939.426 125.301 939.744 125.4 940.01 125.599C940.284 125.797 940.42 126.139 940.42 126.624C940.42 127.103 940.284 127.444 940.01 127.649C939.744 127.848 939.426 127.947 939.057 127.947C938.674 127.947 938.349 127.848 938.083 127.649C937.823 127.444 937.693 127.103 937.693 126.624C937.693 126.139 937.823 125.797 938.083 125.599C938.349 125.4 938.674 125.301 939.057 125.301ZM949.828 129.434C951.107 129.434 952.101 129.765 952.812 130.428C953.53 131.084 953.889 132.141 953.889 133.597V141H951.479V134.048C951.479 133.166 951.298 132.506 950.936 132.069C950.573 131.625 950.013 131.402 949.254 131.402C948.153 131.402 947.388 131.741 946.957 132.417C946.533 133.094 946.321 134.075 946.321 135.36V141H943.912V129.649H945.788L946.127 131.187H946.26C946.506 130.791 946.81 130.466 947.172 130.213C947.542 129.953 947.952 129.758 948.403 129.628C948.861 129.499 949.336 129.434 949.828 129.434ZM960.713 146.045C959.174 146.045 957.995 145.768 957.175 145.214C956.355 144.661 955.944 143.885 955.944 142.887C955.944 142.189 956.163 141.598 956.601 141.113C957.038 140.634 957.664 140.303 958.477 140.118C958.17 139.981 957.903 139.77 957.677 139.482C957.459 139.188 957.349 138.864 957.349 138.508C957.349 138.084 957.469 137.722 957.708 137.421C957.947 137.121 958.306 136.83 958.785 136.55C958.19 136.297 957.712 135.887 957.349 135.319C956.994 134.745 956.816 134.072 956.816 133.299C956.816 132.479 956.99 131.782 957.339 131.208C957.688 130.626 958.197 130.186 958.867 129.885C959.537 129.577 960.347 129.423 961.297 129.423C961.502 129.423 961.724 129.437 961.963 129.464C962.21 129.485 962.435 129.512 962.64 129.546C962.852 129.574 963.013 129.604 963.122 129.639H967.049V130.982L965.122 131.341C965.306 131.601 965.453 131.898 965.563 132.233C965.672 132.561 965.727 132.92 965.727 133.31C965.727 134.485 965.32 135.412 964.506 136.088C963.7 136.758 962.586 137.093 961.164 137.093C960.822 137.08 960.49 137.052 960.169 137.011C959.923 137.162 959.735 137.329 959.605 137.514C959.475 137.691 959.41 137.893 959.41 138.119C959.41 138.303 959.475 138.454 959.605 138.57C959.735 138.679 959.926 138.761 960.179 138.816C960.439 138.871 960.754 138.898 961.123 138.898H963.081C964.325 138.898 965.276 139.161 965.932 139.688C966.588 140.214 966.916 140.986 966.916 142.005C966.916 143.297 966.383 144.292 965.317 144.989C964.25 145.693 962.715 146.045 960.713 146.045ZM960.805 144.353C961.646 144.353 962.353 144.271 962.927 144.107C963.502 143.943 963.936 143.707 964.23 143.399C964.524 143.099 964.671 142.74 964.671 142.323C964.671 141.954 964.578 141.67 964.394 141.472C964.209 141.273 963.932 141.137 963.563 141.062C963.194 140.986 962.736 140.949 962.189 140.949H960.405C959.961 140.949 959.567 141.017 959.226 141.154C958.884 141.297 958.617 141.502 958.426 141.769C958.241 142.036 958.149 142.357 958.149 142.733C958.149 143.252 958.378 143.652 958.836 143.933C959.301 144.213 959.957 144.353 960.805 144.353ZM961.276 135.514C961.981 135.514 962.504 135.323 962.845 134.94C963.187 134.55 963.358 134.003 963.358 133.299C963.358 132.534 963.18 131.959 962.825 131.577C962.476 131.194 961.957 131.002 961.266 131.002C960.589 131.002 960.073 131.197 959.718 131.587C959.369 131.977 959.195 132.554 959.195 133.32C959.195 134.01 959.369 134.55 959.718 134.94C960.073 135.323 960.593 135.514 961.276 135.514ZM976.57 144.23H967.567V142.887H976.57V144.23ZM984.132 131.484H981.374V141H978.964V131.484H977.108V130.326L978.964 129.618V128.829C978.964 127.865 979.114 127.099 979.415 126.532C979.723 125.964 980.16 125.558 980.728 125.312C981.302 125.059 981.986 124.932 982.779 124.932C983.298 124.932 983.773 124.977 984.204 125.065C984.634 125.147 984.997 125.243 985.291 125.353L984.665 127.178C984.433 127.103 984.173 127.034 983.886 126.973C983.599 126.904 983.291 126.87 982.963 126.87C982.416 126.87 982.013 127.041 981.753 127.383C981.5 127.725 981.374 128.224 981.374 128.88V129.649H984.132V131.484ZM992.197 129.434C993.475 129.434 994.469 129.765 995.18 130.428C995.898 131.084 996.257 132.141 996.257 133.597V141H993.847V134.048C993.847 133.166 993.666 132.506 993.304 132.069C992.942 131.625 992.381 131.402 991.622 131.402C990.522 131.402 989.756 131.741 989.325 132.417C988.902 133.094 988.69 134.075 988.69 135.36V141H986.28V129.649H988.156L988.495 131.187H988.628C988.874 130.791 989.178 130.466 989.541 130.213C989.91 129.953 990.32 129.758 990.771 129.628C991.229 129.499 991.704 129.434 992.197 129.434Z" fill="white"/>
<rect width="100" height="40" transform="translate(367 101)" fill="#020202"/>
<path d="M381.261 114.009C382.553 114.009 383.619 114.166 384.46 114.48C385.307 114.795 385.936 115.273 386.347 115.916C386.764 116.559 386.972 117.375 386.972 118.367C386.972 119.105 386.835 119.734 386.562 120.253C386.288 120.773 385.93 121.204 385.485 121.545C385.041 121.887 384.566 122.161 384.06 122.366L388.315 129H385.537L381.917 122.991H379.507V129H377.046V114.009H381.261ZM381.097 116.06H379.507V120.961H381.209C382.351 120.961 383.178 120.749 383.691 120.325C384.21 119.901 384.47 119.276 384.47 118.449C384.47 117.581 384.193 116.965 383.64 116.603C383.093 116.241 382.245 116.06 381.097 116.06ZM394.944 117.434C395.956 117.434 396.824 117.642 397.549 118.059C398.273 118.476 398.83 119.067 399.22 119.833C399.61 120.599 399.805 121.515 399.805 122.581V123.873H392.227C392.254 124.974 392.548 125.821 393.109 126.416C393.676 127.011 394.469 127.308 395.488 127.308C396.212 127.308 396.862 127.24 397.436 127.103C398.017 126.959 398.615 126.751 399.23 126.478V128.436C398.663 128.703 398.085 128.897 397.497 129.021C396.91 129.144 396.205 129.205 395.385 129.205C394.271 129.205 393.29 128.99 392.442 128.559C391.601 128.122 390.942 127.472 390.463 126.611C389.992 125.75 389.756 124.68 389.756 123.401C389.756 122.13 389.971 121.05 390.402 120.161C390.832 119.272 391.437 118.596 392.217 118.131C392.996 117.666 393.905 117.434 394.944 117.434ZM394.944 119.249C394.185 119.249 393.57 119.495 393.099 119.987C392.634 120.479 392.36 121.2 392.278 122.15H397.446C397.439 121.583 397.344 121.081 397.159 120.643C396.981 120.206 396.708 119.864 396.339 119.618C395.976 119.372 395.512 119.249 394.944 119.249ZM409.94 134.035V129.215C409.94 128.942 409.947 128.645 409.961 128.323C409.981 128.002 410.012 127.708 410.053 127.441H409.93C409.623 127.94 409.195 128.361 408.648 128.703C408.102 129.038 407.387 129.205 406.505 129.205C405.172 129.205 404.099 128.713 403.286 127.729C402.472 126.737 402.065 125.274 402.065 123.34C402.065 122.055 402.253 120.975 402.629 120.1C403.005 119.225 403.532 118.562 404.208 118.11C404.892 117.659 405.685 117.434 406.587 117.434C407.456 117.434 408.16 117.604 408.7 117.946C409.247 118.281 409.684 118.695 410.012 119.187H410.094L410.361 117.649H412.36V134.035H409.94ZM407.223 127.267C407.907 127.267 408.454 127.137 408.864 126.877C409.274 126.618 409.571 126.225 409.756 125.698C409.94 125.165 410.04 124.505 410.053 123.719V123.35C410.053 122.065 409.845 121.087 409.428 120.417C409.011 119.748 408.269 119.413 407.203 119.413C406.3 119.413 405.63 119.765 405.193 120.469C404.755 121.166 404.537 122.137 404.537 123.381C404.537 124.639 404.755 125.603 405.193 126.272C405.637 126.936 406.314 127.267 407.223 127.267ZM425.921 117.649V129H424.024L423.696 127.472H423.562C423.323 127.862 423.019 128.187 422.65 128.446C422.281 128.699 421.871 128.887 421.419 129.01C420.968 129.14 420.493 129.205 419.994 129.205C419.14 129.205 418.408 129.062 417.8 128.774C417.198 128.48 416.737 128.029 416.416 127.421C416.094 126.812 415.934 126.026 415.934 125.062V117.649H418.354V124.611C418.354 125.493 418.531 126.153 418.887 126.59C419.249 127.028 419.81 127.247 420.568 127.247C421.3 127.247 421.881 127.096 422.312 126.795C422.742 126.495 423.046 126.05 423.224 125.462C423.409 124.875 423.501 124.153 423.501 123.299V117.649H425.921ZM434.108 117.434C435.12 117.434 435.988 117.642 436.713 118.059C437.438 118.476 437.995 119.067 438.384 119.833C438.774 120.599 438.969 121.515 438.969 122.581V123.873H431.391C431.418 124.974 431.712 125.821 432.273 126.416C432.84 127.011 433.633 127.308 434.652 127.308C435.377 127.308 436.026 127.24 436.6 127.103C437.181 126.959 437.779 126.751 438.395 126.478V128.436C437.827 128.703 437.25 128.897 436.662 129.021C436.074 129.144 435.37 129.205 434.549 129.205C433.435 129.205 432.454 128.99 431.606 128.559C430.766 128.122 430.106 127.472 429.627 126.611C429.156 125.75 428.92 124.68 428.92 123.401C428.92 122.13 429.135 121.05 429.566 120.161C429.997 119.272 430.602 118.596 431.381 118.131C432.16 117.666 433.069 117.434 434.108 117.434ZM434.108 119.249C433.35 119.249 432.734 119.495 432.263 119.987C431.798 120.479 431.524 121.2 431.442 122.15H436.61C436.604 121.583 436.508 121.081 436.323 120.643C436.146 120.206 435.872 119.864 435.503 119.618C435.141 119.372 434.676 119.249 434.108 119.249ZM449.525 125.76C449.525 126.505 449.344 127.134 448.982 127.646C448.619 128.159 448.089 128.549 447.392 128.815C446.702 129.075 445.854 129.205 444.849 129.205C444.056 129.205 443.373 129.147 442.798 129.031C442.231 128.921 441.694 128.75 441.189 128.518V126.437C441.729 126.689 442.334 126.908 443.003 127.093C443.68 127.277 444.319 127.37 444.921 127.37C445.714 127.37 446.285 127.247 446.633 127C446.982 126.748 447.156 126.413 447.156 125.996C447.156 125.75 447.085 125.531 446.941 125.339C446.804 125.141 446.545 124.939 446.162 124.734C445.786 124.522 445.232 124.27 444.501 123.976C443.783 123.688 443.178 123.401 442.686 123.114C442.193 122.827 441.821 122.482 441.568 122.079C441.315 121.668 441.189 121.146 441.189 120.51C441.189 119.505 441.585 118.743 442.378 118.223C443.178 117.697 444.234 117.434 445.546 117.434C446.244 117.434 446.9 117.505 447.515 117.649C448.137 117.786 448.746 117.987 449.34 118.254L448.582 120.069C448.069 119.843 447.553 119.659 447.033 119.515C446.521 119.365 445.998 119.29 445.464 119.29C444.842 119.29 444.367 119.385 444.039 119.577C443.718 119.768 443.557 120.042 443.557 120.397C443.557 120.664 443.636 120.889 443.793 121.074C443.95 121.258 444.22 121.443 444.603 121.627C444.993 121.812 445.533 122.041 446.223 122.314C446.9 122.574 447.484 122.848 447.977 123.135C448.476 123.415 448.858 123.76 449.125 124.17C449.392 124.581 449.525 125.11 449.525 125.76ZM456.564 127.257C456.879 127.257 457.19 127.229 457.497 127.175C457.805 127.113 458.085 127.042 458.338 126.959V128.785C458.071 128.901 457.726 129 457.302 129.082C456.879 129.164 456.438 129.205 455.98 129.205C455.337 129.205 454.759 129.099 454.247 128.887C453.734 128.668 453.327 128.296 453.026 127.77C452.726 127.243 452.575 126.515 452.575 125.585V119.484H451.027V118.408L452.688 117.557L453.478 115.126H454.995V117.649H458.246V119.484H454.995V125.555C454.995 126.129 455.139 126.556 455.426 126.836C455.713 127.117 456.092 127.257 456.564 127.257Z" fill="white"/>
<rect width="141" height="40" transform="translate(1115 237)" fill="#020202"/>
<path d="M1142.97 250.009L1139.06 265H1136.37L1133.87 256.018C1133.81 255.799 1133.74 255.539 1133.66 255.238C1133.59 254.938 1133.51 254.63 1133.44 254.315C1133.37 254.001 1133.31 253.714 1133.25 253.454C1133.2 253.188 1133.17 252.982 1133.15 252.839C1133.14 252.982 1133.11 253.184 1133.06 253.444C1133.01 253.704 1132.95 253.991 1132.88 254.305C1132.82 254.613 1132.75 254.92 1132.68 255.228C1132.6 255.529 1132.53 255.795 1132.47 256.028L1130.01 265H1127.34L1123.43 250.009H1125.9L1128.06 258.796C1128.13 259.077 1128.2 259.381 1128.27 259.709C1128.34 260.03 1128.41 260.355 1128.47 260.683C1128.54 261.011 1128.6 261.333 1128.66 261.647C1128.71 261.955 1128.76 262.235 1128.79 262.488C1128.83 262.228 1128.87 261.941 1128.93 261.626C1128.98 261.305 1129.04 260.98 1129.1 260.652C1129.17 260.317 1129.24 259.996 1129.3 259.688C1129.38 259.381 1129.45 259.104 1129.53 258.858L1131.97 250.009H1134.37L1136.86 258.889C1136.94 259.142 1137.01 259.425 1137.08 259.74C1137.15 260.054 1137.22 260.375 1137.29 260.704C1137.36 261.032 1137.42 261.35 1137.48 261.657C1137.53 261.965 1137.58 262.242 1137.61 262.488C1137.66 262.153 1137.72 261.77 1137.79 261.339C1137.87 260.909 1137.96 260.471 1138.05 260.027C1138.15 259.583 1138.24 259.172 1138.34 258.796L1140.49 250.009H1142.97ZM1150.81 253.434C1151 253.434 1151.21 253.444 1151.44 253.464C1151.66 253.485 1151.86 253.512 1152.02 253.546L1151.8 255.802C1151.65 255.761 1151.47 255.73 1151.26 255.71C1151.06 255.689 1150.87 255.679 1150.71 255.679C1150.28 255.679 1149.87 255.751 1149.48 255.895C1149.09 256.031 1148.74 256.243 1148.44 256.53C1148.14 256.811 1147.91 257.163 1147.74 257.586C1147.56 258.01 1147.48 258.502 1147.48 259.063V265H1145.06V253.649H1146.95L1147.27 255.648H1147.39C1147.61 255.245 1147.89 254.876 1148.23 254.541C1148.56 254.206 1148.95 253.939 1149.38 253.741C1149.81 253.536 1150.29 253.434 1150.81 253.434ZM1156.74 253.649V265H1154.33V253.649H1156.74ZM1155.55 249.301C1155.92 249.301 1156.24 249.4 1156.51 249.599C1156.78 249.797 1156.92 250.139 1156.92 250.624C1156.92 251.103 1156.78 251.444 1156.51 251.649C1156.24 251.848 1155.92 251.947 1155.55 251.947C1155.17 251.947 1154.85 251.848 1154.58 251.649C1154.32 251.444 1154.19 251.103 1154.19 250.624C1154.19 250.139 1154.32 249.797 1154.58 249.599C1154.85 249.4 1155.17 249.301 1155.55 249.301ZM1164.63 263.257C1164.95 263.257 1165.26 263.229 1165.57 263.175C1165.87 263.113 1166.15 263.042 1166.41 262.959V264.785C1166.14 264.901 1165.8 265 1165.37 265.082C1164.95 265.164 1164.51 265.205 1164.05 265.205C1163.41 265.205 1162.83 265.099 1162.32 264.887C1161.8 264.668 1161.4 264.296 1161.1 263.77C1160.8 263.243 1160.64 262.515 1160.64 261.585V255.484H1159.1V254.408L1160.76 253.557L1161.55 251.126H1163.06V253.649H1166.32V255.484H1163.06V261.555C1163.06 262.129 1163.21 262.556 1163.5 262.836C1163.78 263.117 1164.16 263.257 1164.63 263.257ZM1173.45 253.434C1174.46 253.434 1175.33 253.642 1176.05 254.059C1176.78 254.476 1177.33 255.067 1177.72 255.833C1178.11 256.599 1178.31 257.515 1178.31 258.581V259.873H1170.73C1170.76 260.974 1171.05 261.821 1171.61 262.416C1172.18 263.011 1172.97 263.308 1173.99 263.308C1174.71 263.308 1175.36 263.24 1175.94 263.103C1176.52 262.959 1177.12 262.751 1177.73 262.478V264.436C1177.17 264.703 1176.59 264.897 1176 265.021C1175.41 265.144 1174.71 265.205 1173.89 265.205C1172.77 265.205 1171.79 264.99 1170.94 264.559C1170.1 264.122 1169.44 263.472 1168.97 262.611C1168.49 261.75 1168.26 260.68 1168.26 259.401C1168.26 258.13 1168.47 257.05 1168.9 256.161C1169.33 255.272 1169.94 254.596 1170.72 254.131C1171.5 253.666 1172.41 253.434 1173.45 253.434ZM1173.45 255.249C1172.69 255.249 1172.07 255.495 1171.6 255.987C1171.14 256.479 1170.86 257.2 1170.78 258.15H1175.95C1175.94 257.583 1175.85 257.081 1175.66 256.643C1175.48 256.206 1175.21 255.864 1174.84 255.618C1174.48 255.372 1174.01 255.249 1173.45 255.249ZM1191.47 265.205C1190.4 265.205 1189.47 264.997 1188.68 264.58C1187.9 264.163 1187.29 263.523 1186.87 262.662C1186.44 261.801 1186.23 260.707 1186.23 259.381C1186.23 258 1186.47 256.872 1186.93 255.997C1187.4 255.122 1188.04 254.476 1188.86 254.059C1189.69 253.642 1190.63 253.434 1191.7 253.434C1192.38 253.434 1192.99 253.502 1193.53 253.639C1194.09 253.769 1194.56 253.929 1194.94 254.121L1194.22 256.048C1193.8 255.877 1193.38 255.734 1192.94 255.618C1192.5 255.501 1192.08 255.443 1191.68 255.443C1191.01 255.443 1190.46 255.59 1190.02 255.884C1189.58 256.178 1189.25 256.616 1189.03 257.197C1188.82 257.778 1188.71 258.499 1188.71 259.36C1188.71 260.194 1188.82 260.898 1189.04 261.473C1189.26 262.04 1189.59 262.471 1190.02 262.765C1190.45 263.052 1190.98 263.195 1191.61 263.195C1192.23 263.195 1192.79 263.12 1193.28 262.97C1193.77 262.819 1194.23 262.625 1194.67 262.385V264.477C1194.24 264.723 1193.78 264.904 1193.29 265.021C1192.8 265.144 1192.19 265.205 1191.47 265.205ZM1207.6 259.299C1207.6 260.242 1207.47 261.08 1207.23 261.811C1206.98 262.542 1206.62 263.161 1206.15 263.667C1205.68 264.166 1205.11 264.549 1204.45 264.815C1203.79 265.075 1203.04 265.205 1202.2 265.205C1201.42 265.205 1200.71 265.075 1200.06 264.815C1199.41 264.549 1198.85 264.166 1198.37 263.667C1197.9 263.161 1197.53 262.542 1197.27 261.811C1197.01 261.08 1196.88 260.242 1196.88 259.299C1196.88 258.048 1197.1 256.988 1197.53 256.12C1197.96 255.245 1198.59 254.579 1199.39 254.121C1200.2 253.663 1201.16 253.434 1202.27 253.434C1203.32 253.434 1204.24 253.663 1205.04 254.121C1205.84 254.579 1206.47 255.245 1206.92 256.12C1207.37 256.995 1207.6 258.055 1207.6 259.299ZM1199.36 259.299C1199.36 260.126 1199.46 260.833 1199.66 261.421C1199.87 262.009 1200.18 262.46 1200.6 262.775C1201.03 263.083 1201.57 263.236 1202.24 263.236C1202.91 263.236 1203.46 263.083 1203.88 262.775C1204.31 262.46 1204.62 262.009 1204.82 261.421C1205.02 260.833 1205.12 260.126 1205.12 259.299C1205.12 258.472 1205.02 257.771 1204.82 257.197C1204.62 256.616 1204.31 256.175 1203.88 255.874C1203.46 255.566 1202.91 255.413 1202.23 255.413C1201.24 255.413 1200.51 255.748 1200.05 256.417C1199.59 257.087 1199.36 258.048 1199.36 259.299ZM1216.49 253.434C1217.77 253.434 1218.76 253.765 1219.48 254.428C1220.19 255.084 1220.55 256.141 1220.55 257.597V265H1218.14V258.048C1218.14 257.166 1217.96 256.506 1217.6 256.069C1217.24 255.625 1216.68 255.402 1215.92 255.402C1214.82 255.402 1214.05 255.741 1213.62 256.417C1213.2 257.094 1212.98 258.075 1212.98 259.36V265H1210.58V253.649H1212.45L1212.79 255.187H1212.92C1213.17 254.791 1213.47 254.466 1213.84 254.213C1214.21 253.953 1214.62 253.758 1215.07 253.628C1215.52 253.499 1216 253.434 1216.49 253.434ZM1229.81 255.484H1227.05V265H1224.64V255.484H1222.78V254.326L1224.64 253.618V252.829C1224.64 251.865 1224.79 251.099 1225.09 250.532C1225.4 249.964 1225.83 249.558 1226.4 249.312C1226.98 249.059 1227.66 248.932 1228.45 248.932C1228.97 248.932 1229.45 248.977 1229.88 249.065C1230.31 249.147 1230.67 249.243 1230.96 249.353L1230.34 251.178C1230.11 251.103 1229.85 251.034 1229.56 250.973C1229.27 250.904 1228.97 250.87 1228.64 250.87C1228.09 250.87 1227.69 251.041 1227.43 251.383C1227.17 251.725 1227.05 252.224 1227.05 252.88V253.649H1229.81V255.484ZM1234.14 253.649V265H1231.73V253.649H1234.14ZM1232.95 249.301C1233.32 249.301 1233.64 249.4 1233.91 249.599C1234.18 249.797 1234.32 250.139 1234.32 250.624C1234.32 251.103 1234.18 251.444 1233.91 251.649C1233.64 251.848 1233.32 251.947 1232.95 251.947C1232.57 251.947 1232.25 251.848 1231.98 251.649C1231.72 251.444 1231.59 251.103 1231.59 250.624C1231.59 250.139 1231.72 249.797 1231.98 249.599C1232.25 249.4 1232.57 249.301 1232.95 249.301ZM1241.04 270.045C1239.5 270.045 1238.32 269.768 1237.5 269.214C1236.68 268.661 1236.27 267.885 1236.27 266.887C1236.27 266.189 1236.49 265.598 1236.93 265.113C1237.36 264.634 1237.99 264.303 1238.8 264.118C1238.5 263.981 1238.23 263.77 1238 263.482C1237.79 263.188 1237.68 262.864 1237.68 262.508C1237.68 262.084 1237.8 261.722 1238.03 261.421C1238.27 261.121 1238.63 260.83 1239.11 260.55C1238.52 260.297 1238.04 259.887 1237.68 259.319C1237.32 258.745 1237.14 258.072 1237.14 257.299C1237.14 256.479 1237.32 255.782 1237.67 255.208C1238.01 254.626 1238.52 254.186 1239.19 253.885C1239.86 253.577 1240.67 253.423 1241.62 253.423C1241.83 253.423 1242.05 253.437 1242.29 253.464C1242.54 253.485 1242.76 253.512 1242.97 253.546C1243.18 253.574 1243.34 253.604 1243.45 253.639H1247.38V254.982L1245.45 255.341C1245.63 255.601 1245.78 255.898 1245.89 256.233C1246 256.561 1246.05 256.92 1246.05 257.31C1246.05 258.485 1245.65 259.412 1244.83 260.088C1244.03 260.758 1242.91 261.093 1241.49 261.093C1241.15 261.08 1240.82 261.052 1240.5 261.011C1240.25 261.162 1240.06 261.329 1239.93 261.514C1239.8 261.691 1239.74 261.893 1239.74 262.119C1239.74 262.303 1239.8 262.454 1239.93 262.57C1240.06 262.679 1240.25 262.761 1240.51 262.816C1240.77 262.871 1241.08 262.898 1241.45 262.898H1243.41C1244.65 262.898 1245.6 263.161 1246.26 263.688C1246.91 264.214 1247.24 264.986 1247.24 266.005C1247.24 267.297 1246.71 268.292 1245.64 268.989C1244.58 269.693 1243.04 270.045 1241.04 270.045ZM1241.13 268.353C1241.97 268.353 1242.68 268.271 1243.25 268.107C1243.83 267.943 1244.26 267.707 1244.56 267.399C1244.85 267.099 1245 266.74 1245 266.323C1245 265.954 1244.9 265.67 1244.72 265.472C1244.54 265.273 1244.26 265.137 1243.89 265.062C1243.52 264.986 1243.06 264.949 1242.52 264.949H1240.73C1240.29 264.949 1239.89 265.017 1239.55 265.154C1239.21 265.297 1238.94 265.502 1238.75 265.769C1238.57 266.036 1238.48 266.357 1238.48 266.733C1238.48 267.252 1238.7 267.652 1239.16 267.933C1239.63 268.213 1240.28 268.353 1241.13 268.353ZM1241.6 259.514C1242.31 259.514 1242.83 259.323 1243.17 258.94C1243.51 258.55 1243.68 258.003 1243.68 257.299C1243.68 256.534 1243.51 255.959 1243.15 255.577C1242.8 255.194 1242.28 255.002 1241.59 255.002C1240.92 255.002 1240.4 255.197 1240.04 255.587C1239.7 255.977 1239.52 256.554 1239.52 257.32C1239.52 258.01 1239.7 258.55 1240.04 258.94C1240.4 259.323 1240.92 259.514 1241.6 259.514Z" fill="white"/>
<rect x="1073" y="346" width="226" height="103" rx="8" fill="#020202"/>
<rect x="1074" y="347" width="224" height="101" rx="7" stroke="white" stroke-opacity="0.9" stroke-width="2"/>
<path d="M1112.24 397.984C1112.24 399.139 1112.09 400.192 1111.8 401.142C1111.51 402.085 1111.08 402.899 1110.5 403.583C1109.92 404.259 1109.19 404.782 1108.31 405.151C1107.44 405.521 1106.41 405.705 1105.24 405.705C1104.04 405.705 1103 405.521 1102.12 405.151C1101.24 404.782 1100.52 404.256 1099.94 403.572C1099.36 402.889 1098.93 402.072 1098.64 401.122C1098.36 400.171 1098.21 399.119 1098.21 397.963C1098.21 396.418 1098.47 395.072 1098.97 393.923C1099.48 392.768 1100.26 391.873 1101.3 391.237C1102.34 390.594 1103.66 390.273 1105.26 390.273C1106.82 390.273 1108.11 390.591 1109.14 391.227C1110.18 391.862 1110.95 392.758 1111.46 393.913C1111.98 395.062 1112.24 396.418 1112.24 397.984ZM1100.8 397.984C1100.8 399.139 1100.95 400.141 1101.27 400.988C1101.58 401.829 1102.06 402.479 1102.71 402.937C1103.37 403.388 1104.21 403.613 1105.24 403.613C1106.27 403.613 1107.11 403.388 1107.76 402.937C1108.41 402.479 1108.89 401.829 1109.19 400.988C1109.5 400.141 1109.66 399.139 1109.66 397.984C1109.66 396.227 1109.3 394.853 1108.6 393.862C1107.9 392.864 1106.79 392.365 1105.26 392.365C1104.23 392.365 1103.39 392.59 1102.72 393.042C1102.07 393.493 1101.58 394.139 1101.27 394.979C1100.95 395.813 1100.8 396.815 1100.8 397.984ZM1121.34 393.934C1122.62 393.934 1123.61 394.265 1124.32 394.928C1125.04 395.584 1125.4 396.641 1125.4 398.097V405.5H1122.99V398.548C1122.99 397.666 1122.81 397.006 1122.45 396.569C1122.09 396.125 1121.52 395.902 1120.77 395.902C1119.67 395.902 1118.9 396.241 1118.47 396.917C1118.05 397.594 1117.83 398.575 1117.83 399.86V405.5H1115.42V394.149H1117.3L1117.64 395.687H1117.77C1118.02 395.291 1118.32 394.966 1118.68 394.713C1119.05 394.453 1119.46 394.258 1119.91 394.128C1120.37 393.999 1120.85 393.934 1121.34 393.934ZM1139.11 390.509C1140.4 390.509 1141.47 390.666 1142.31 390.98C1143.16 391.295 1143.79 391.773 1144.2 392.416C1144.61 393.059 1144.82 393.875 1144.82 394.867C1144.82 395.605 1144.68 396.234 1144.41 396.753C1144.14 397.273 1143.78 397.704 1143.33 398.045C1142.89 398.387 1142.41 398.661 1141.91 398.866L1146.16 405.5H1143.39L1139.77 399.491H1137.36V405.5H1134.9V390.509H1139.11ZM1138.95 392.56H1137.36V397.461H1139.06C1140.2 397.461 1141.03 397.249 1141.54 396.825C1142.06 396.401 1142.32 395.776 1142.32 394.949C1142.32 394.081 1142.04 393.465 1141.49 393.103C1140.94 392.741 1140.09 392.56 1138.95 392.56ZM1158.32 399.799C1158.32 400.742 1158.2 401.58 1157.95 402.311C1157.7 403.042 1157.35 403.661 1156.87 404.167C1156.4 404.666 1155.84 405.049 1155.17 405.315C1154.51 405.575 1153.76 405.705 1152.93 405.705C1152.15 405.705 1151.43 405.575 1150.78 405.315C1150.13 405.049 1149.57 404.666 1149.09 404.167C1148.62 403.661 1148.25 403.042 1147.99 402.311C1147.73 401.58 1147.6 400.742 1147.6 399.799C1147.6 398.548 1147.82 397.488 1148.25 396.62C1148.69 395.745 1149.31 395.079 1150.12 394.621C1150.92 394.163 1151.88 393.934 1153 393.934C1154.04 393.934 1154.97 394.163 1155.77 394.621C1156.57 395.079 1157.19 395.745 1157.64 396.62C1158.09 397.495 1158.32 398.555 1158.32 399.799ZM1150.09 399.799C1150.09 400.626 1150.19 401.333 1150.38 401.921C1150.59 402.509 1150.9 402.96 1151.33 403.275C1151.75 403.583 1152.3 403.736 1152.97 403.736C1153.64 403.736 1154.18 403.583 1154.61 403.275C1155.03 402.96 1155.34 402.509 1155.54 401.921C1155.74 401.333 1155.84 400.626 1155.84 399.799C1155.84 398.972 1155.74 398.271 1155.54 397.697C1155.34 397.116 1155.03 396.675 1154.61 396.374C1154.18 396.066 1153.63 395.913 1152.96 395.913C1151.96 395.913 1151.23 396.248 1150.77 396.917C1150.32 397.587 1150.09 398.548 1150.09 399.799ZM1171.19 394.149V405.5H1169.3L1168.97 403.972H1168.84C1168.6 404.362 1168.29 404.687 1167.92 404.946C1167.55 405.199 1167.14 405.387 1166.69 405.51C1166.24 405.64 1165.77 405.705 1165.27 405.705C1164.41 405.705 1163.68 405.562 1163.07 405.274C1162.47 404.98 1162.01 404.529 1161.69 403.921C1161.37 403.312 1161.21 402.526 1161.21 401.562V394.149H1163.63V401.111C1163.63 401.993 1163.8 402.653 1164.16 403.09C1164.52 403.528 1165.08 403.747 1165.84 403.747C1166.57 403.747 1167.15 403.596 1167.58 403.295C1168.02 402.995 1168.32 402.55 1168.5 401.962C1168.68 401.375 1168.77 400.653 1168.77 399.799V394.149H1171.19ZM1179.08 403.757C1179.4 403.757 1179.71 403.729 1180.02 403.675C1180.32 403.613 1180.6 403.542 1180.86 403.459V405.285C1180.59 405.401 1180.25 405.5 1179.82 405.582C1179.4 405.664 1178.96 405.705 1178.5 405.705C1177.86 405.705 1177.28 405.599 1176.77 405.387C1176.25 405.168 1175.85 404.796 1175.55 404.27C1175.25 403.743 1175.1 403.015 1175.1 402.085V395.984H1173.55V394.908L1175.21 394.057L1176 391.626H1177.52V394.149H1180.77V395.984H1177.52V402.055C1177.52 402.629 1177.66 403.056 1177.95 403.336C1178.23 403.617 1178.61 403.757 1179.08 403.757ZM1187.9 393.934C1188.91 393.934 1189.78 394.142 1190.5 394.559C1191.23 394.976 1191.78 395.567 1192.17 396.333C1192.56 397.099 1192.76 398.015 1192.76 399.081V400.373H1185.18C1185.21 401.474 1185.5 402.321 1186.06 402.916C1186.63 403.511 1187.42 403.808 1188.44 403.808C1189.17 403.808 1189.81 403.74 1190.39 403.603C1190.97 403.459 1191.57 403.251 1192.18 402.978V404.936C1191.62 405.203 1191.04 405.397 1190.45 405.521C1189.86 405.644 1189.16 405.705 1188.34 405.705C1187.22 405.705 1186.24 405.49 1185.4 405.059C1184.55 404.622 1183.89 403.972 1183.42 403.111C1182.94 402.25 1182.71 401.18 1182.71 399.901C1182.71 398.63 1182.92 397.55 1183.35 396.661C1183.79 395.772 1184.39 395.096 1185.17 394.631C1185.95 394.166 1186.86 393.934 1187.9 393.934ZM1187.9 395.749C1187.14 395.749 1186.52 395.995 1186.05 396.487C1185.59 396.979 1185.31 397.7 1185.23 398.65H1190.4C1190.39 398.083 1190.3 397.581 1190.11 397.143C1189.93 396.706 1189.66 396.364 1189.29 396.118C1188.93 395.872 1188.46 395.749 1187.9 395.749ZM1213.37 390.509V400.209C1213.37 401.255 1213.15 402.191 1212.7 403.019C1212.26 403.846 1211.6 404.502 1210.71 404.987C1209.82 405.466 1208.71 405.705 1207.36 405.705C1205.44 405.705 1203.97 405.203 1202.97 404.198C1201.97 403.186 1201.47 401.843 1201.47 400.168V390.509H1203.93V399.953C1203.93 401.204 1204.23 402.126 1204.82 402.721C1205.4 403.316 1206.28 403.613 1207.45 403.613C1208.26 403.613 1208.91 403.473 1209.42 403.193C1209.93 402.906 1210.31 402.489 1210.55 401.942C1210.79 401.388 1210.92 400.722 1210.92 399.942V390.509H1213.37ZM1222.99 393.934C1224.34 393.934 1225.42 394.426 1226.23 395.41C1227.05 396.395 1227.46 397.857 1227.46 399.799C1227.46 401.084 1227.27 402.167 1226.89 403.049C1226.51 403.924 1225.98 404.587 1225.3 405.039C1224.62 405.483 1223.83 405.705 1222.93 405.705C1222.35 405.705 1221.86 405.63 1221.43 405.479C1221.01 405.329 1220.65 405.134 1220.34 404.895C1220.04 404.649 1219.79 404.382 1219.59 404.095H1219.44C1219.48 404.369 1219.51 404.673 1219.53 405.008C1219.57 405.336 1219.59 405.637 1219.59 405.91V410.535H1217.17V394.149H1219.13L1219.47 395.718H1219.59C1219.8 395.396 1220.05 395.099 1220.36 394.826C1220.66 394.552 1221.03 394.337 1221.46 394.18C1221.9 394.016 1222.41 393.934 1222.99 393.934ZM1222.34 395.902C1221.68 395.902 1221.15 396.036 1220.74 396.302C1220.35 396.562 1220.06 396.955 1219.87 397.481C1219.7 398.008 1219.6 398.667 1219.59 399.46V399.799C1219.59 400.64 1219.67 401.354 1219.84 401.942C1220.02 402.523 1220.31 402.967 1220.71 403.275C1221.12 403.576 1221.68 403.726 1222.38 403.726C1222.96 403.726 1223.45 403.565 1223.83 403.244C1224.22 402.923 1224.51 402.465 1224.7 401.87C1224.89 401.275 1224.99 400.575 1224.99 399.768C1224.99 398.544 1224.77 397.594 1224.33 396.917C1223.9 396.241 1223.24 395.902 1222.34 395.902ZM1234.27 405.705C1232.92 405.705 1231.83 405.213 1231.01 404.229C1230.2 403.237 1229.79 401.778 1229.79 399.85C1229.79 397.902 1230.21 396.429 1231.03 395.431C1231.87 394.433 1232.97 393.934 1234.33 393.934C1234.9 393.934 1235.4 394.012 1235.83 394.169C1236.26 394.32 1236.63 394.525 1236.94 394.785C1237.26 395.044 1237.52 395.335 1237.74 395.656H1237.85C1237.82 395.444 1237.78 395.14 1237.73 394.744C1237.69 394.34 1237.67 393.968 1237.67 393.626V389.545H1240.09V405.5H1238.2L1237.77 403.952H1237.67C1237.46 404.28 1237.2 404.577 1236.89 404.844C1236.58 405.104 1236.21 405.312 1235.78 405.469C1235.36 405.626 1234.86 405.705 1234.27 405.705ZM1234.95 403.747C1235.98 403.747 1236.71 403.449 1237.14 402.854C1237.56 402.26 1237.78 401.368 1237.79 400.178V399.86C1237.79 398.589 1237.59 397.615 1237.18 396.938C1236.77 396.254 1236.02 395.913 1234.93 395.913C1234.06 395.913 1233.4 396.265 1232.94 396.969C1232.49 397.666 1232.26 398.64 1232.26 399.891C1232.26 401.142 1232.49 402.099 1232.94 402.762C1233.4 403.418 1234.07 403.747 1234.95 403.747ZM1248.2 393.934C1249.64 393.934 1250.72 394.251 1251.45 394.887C1252.19 395.523 1252.56 396.514 1252.56 397.861V405.5H1250.85L1250.39 403.89H1250.31C1249.99 404.3 1249.65 404.639 1249.31 404.905C1248.97 405.172 1248.57 405.37 1248.12 405.5C1247.68 405.637 1247.13 405.705 1246.49 405.705C1245.82 405.705 1245.21 405.582 1244.68 405.336C1244.14 405.083 1243.72 404.7 1243.42 404.188C1243.11 403.675 1242.95 403.025 1242.95 402.239C1242.95 401.07 1243.39 400.192 1244.26 399.604C1245.13 399.016 1246.45 398.691 1248.21 398.63L1250.18 398.558V397.963C1250.18 397.177 1250 396.617 1249.63 396.282C1249.27 395.947 1248.75 395.779 1248.09 395.779C1247.52 395.779 1246.97 395.861 1246.44 396.025C1245.91 396.189 1245.39 396.391 1244.88 396.63L1244.1 394.928C1244.66 394.634 1245.29 394.395 1245.99 394.21C1246.7 394.026 1247.44 393.934 1248.2 393.934ZM1250.17 400.076L1248.71 400.127C1247.5 400.168 1246.66 400.373 1246.17 400.742C1245.69 401.111 1245.45 401.617 1245.45 402.26C1245.45 402.82 1245.61 403.23 1245.95 403.49C1246.28 403.743 1246.72 403.87 1247.27 403.87C1248.11 403.87 1248.8 403.634 1249.34 403.162C1249.9 402.684 1250.17 401.983 1250.17 401.06V400.076ZM1260.37 403.757C1260.68 403.757 1261 403.729 1261.3 403.675C1261.61 403.613 1261.89 403.542 1262.14 403.459V405.285C1261.88 405.401 1261.53 405.5 1261.11 405.582C1260.68 405.664 1260.24 405.705 1259.79 405.705C1259.14 405.705 1258.57 405.599 1258.05 405.387C1257.54 405.168 1257.13 404.796 1256.83 404.27C1256.53 403.743 1256.38 403.015 1256.38 402.085V395.984H1254.83V394.908L1256.49 394.057L1257.28 391.626H1258.8V394.149H1262.05V395.984H1258.8V402.055C1258.8 402.629 1258.95 403.056 1259.23 403.336C1259.52 403.617 1259.9 403.757 1260.37 403.757ZM1269.18 393.934C1270.2 393.934 1271.06 394.142 1271.79 394.559C1272.51 394.976 1273.07 395.567 1273.46 396.333C1273.85 397.099 1274.04 398.015 1274.04 399.081V400.373H1266.47C1266.49 401.474 1266.79 402.321 1267.35 402.916C1267.92 403.511 1268.71 403.808 1269.73 403.808C1270.45 403.808 1271.1 403.74 1271.68 403.603C1272.26 403.459 1272.85 403.251 1273.47 402.978V404.936C1272.9 405.203 1272.32 405.397 1271.74 405.521C1271.15 405.644 1270.44 405.705 1269.62 405.705C1268.51 405.705 1267.53 405.49 1266.68 405.059C1265.84 404.622 1265.18 403.972 1264.7 403.111C1264.23 402.25 1263.99 401.18 1263.99 399.901C1263.99 398.63 1264.21 397.55 1264.64 396.661C1265.07 395.772 1265.68 395.096 1266.46 394.631C1267.24 394.166 1268.14 393.934 1269.18 393.934ZM1269.18 395.749C1268.42 395.749 1267.81 395.995 1267.34 396.487C1266.87 396.979 1266.6 397.7 1266.52 398.65H1271.69C1271.68 398.083 1271.58 397.581 1271.4 397.143C1271.22 396.706 1270.95 396.364 1270.58 396.118C1270.22 395.872 1269.75 395.749 1269.18 395.749Z" fill="white"/>
<rect x="45" y="67" width="226" height="103" rx="8" fill="#020202"/>
<rect x="46" y="68" width="224" height="101" rx="7" stroke="white" stroke-opacity="0.9" stroke-width="2"/>
<path d="M136.434 113.385C135.716 113.385 135.074 113.515 134.506 113.775C133.946 114.035 133.471 114.411 133.081 114.903C132.691 115.388 132.394 115.979 132.189 116.677C131.984 117.367 131.881 118.146 131.881 119.015C131.881 120.177 132.045 121.178 132.373 122.019C132.702 122.853 133.201 123.496 133.871 123.947C134.54 124.391 135.388 124.613 136.413 124.613C137.049 124.613 137.668 124.552 138.269 124.429C138.871 124.306 139.493 124.138 140.136 123.926V126.018C139.527 126.257 138.912 126.432 138.29 126.541C137.668 126.65 136.95 126.705 136.137 126.705C134.605 126.705 133.334 126.387 132.322 125.751C131.317 125.116 130.565 124.22 130.066 123.065C129.574 121.91 129.328 120.556 129.328 119.004C129.328 117.87 129.485 116.831 129.8 115.887C130.114 114.944 130.572 114.13 131.174 113.447C131.775 112.756 132.517 112.227 133.399 111.857C134.287 111.481 135.303 111.293 136.444 111.293C137.196 111.293 137.934 111.379 138.659 111.55C139.391 111.714 140.067 111.95 140.689 112.257L139.828 114.288C139.308 114.042 138.765 113.83 138.198 113.652C137.63 113.474 137.042 113.385 136.434 113.385ZM145.739 126.5H143.319V110.545H145.739V126.5ZM151.804 115.149V126.5H149.395V115.149H151.804ZM150.615 110.801C150.984 110.801 151.302 110.9 151.568 111.099C151.842 111.297 151.978 111.639 151.978 112.124C151.978 112.603 151.842 112.944 151.568 113.149C151.302 113.348 150.984 113.447 150.615 113.447C150.232 113.447 149.907 113.348 149.641 113.149C149.381 112.944 149.251 112.603 149.251 112.124C149.251 111.639 149.381 111.297 149.641 111.099C149.907 110.9 150.232 110.801 150.615 110.801ZM159.992 114.934C161.003 114.934 161.872 115.142 162.596 115.559C163.321 115.976 163.878 116.567 164.268 117.333C164.657 118.099 164.852 119.015 164.852 120.081V121.373H157.274C157.302 122.474 157.596 123.321 158.156 123.916C158.724 124.511 159.517 124.808 160.535 124.808C161.26 124.808 161.909 124.74 162.483 124.603C163.064 124.459 163.663 124.251 164.278 123.978V125.936C163.71 126.203 163.133 126.397 162.545 126.521C161.957 126.644 161.253 126.705 160.433 126.705C159.318 126.705 158.337 126.49 157.49 126.059C156.649 125.622 155.989 124.972 155.511 124.111C155.039 123.25 154.803 122.18 154.803 120.901C154.803 119.63 155.019 118.55 155.449 117.661C155.88 116.772 156.485 116.096 157.264 115.631C158.043 115.166 158.953 114.934 159.992 114.934ZM159.992 116.749C159.233 116.749 158.618 116.995 158.146 117.487C157.681 117.979 157.408 118.7 157.326 119.65H162.494C162.487 119.083 162.391 118.581 162.207 118.143C162.029 117.706 161.755 117.364 161.386 117.118C161.024 116.872 160.559 116.749 159.992 116.749ZM173.696 114.934C174.974 114.934 175.969 115.265 176.68 115.928C177.398 116.584 177.756 117.641 177.756 119.097V126.5H175.347V119.548C175.347 118.666 175.166 118.006 174.803 117.569C174.441 117.125 173.88 116.902 173.122 116.902C172.021 116.902 171.255 117.241 170.825 117.917C170.401 118.594 170.189 119.575 170.189 120.86V126.5H167.779V115.149H169.656L169.994 116.687H170.128C170.374 116.291 170.678 115.966 171.04 115.713C171.409 115.453 171.819 115.258 172.271 115.128C172.729 114.999 173.204 114.934 173.696 114.934ZM185.565 124.757C185.879 124.757 186.19 124.729 186.498 124.675C186.805 124.613 187.086 124.542 187.338 124.459V126.285C187.072 126.401 186.727 126.5 186.303 126.582C185.879 126.664 185.438 126.705 184.98 126.705C184.337 126.705 183.76 126.599 183.247 126.387C182.734 126.168 182.328 125.796 182.027 125.27C181.726 124.743 181.576 124.015 181.576 123.085V116.984H180.027V115.908L181.689 115.057L182.478 112.626H183.996V115.149H187.246V116.984H183.996V123.055C183.996 123.629 184.139 124.056 184.426 124.336C184.713 124.617 185.093 124.757 185.565 124.757Z" fill="white"/>
</svg>
