<svg width="512" height="512" viewBox="0 0 512 512" fill="none" xmlns="http://www.w3.org/2000/svg">
<mask id="mask0_1_159" style="mask-type:alpha" maskUnits="userSpaceOnUse" x="0" y="0" width="512" height="512">
<rect width="512" height="512" fill="url(#paint0_radial_1_159)"/>
</mask>
<g mask="url(#mask0_1_159)">
<path d="M22 -4L22 508" stroke="#FF7C00"/>
<path d="M53 -4L53 508" stroke="#FF7C00"/>
<path d="M84 -4L84 508" stroke="#FF7C00"/>
<path d="M115 -4L115 508" stroke="#FF7C00"/>
<path d="M146 -4V508" stroke="#FF7C00"/>
<path d="M177 -4V508" stroke="#FF7C00"/>
<path d="M208 -4V508" stroke="#FF7C00"/>
<path d="M239 -4V508" stroke="#FF7C00"/>
<path d="M270 -4V508" stroke="#FF7C00"/>
<path d="M301 -4V508" stroke="#FF7C00"/>
<path d="M332 -4V508" stroke="#FF7C00"/>
<path d="M363 -4V508" stroke="#FF7C00"/>
<path d="M394 -4V508" stroke="#FF7C00"/>
<path d="M425 -4V508" stroke="#FF7C00"/>
<path d="M456 -4V508" stroke="#FF7C00"/>
<path d="M487 -4V508" stroke="#FF7C00"/>
<path d="M6.00003 492L518 492" stroke="#FF7C00"/>
<path d="M6.00003 461L518 461" stroke="#FF7C00"/>
<path d="M6.00003 430L518 430" stroke="#FF7C00"/>
<path d="M6.00003 399L518 399" stroke="#FF7C00"/>
<path d="M6.00003 368L518 368" stroke="#FF7C00"/>
<path d="M6.00003 337L518 337" stroke="#FF7C00"/>
<path d="M6.00003 306L518 306" stroke="#FF7C00"/>
<path d="M6.00003 275L518 275" stroke="#FF7C00"/>
<path d="M6.00003 244L518 244" stroke="#FF7C00"/>
<path d="M6.00003 213L518 213" stroke="#FF7C00"/>
<path d="M6.00003 182L518 182" stroke="#FF7C00"/>
<path d="M6 151L518 151" stroke="#FF7C00"/>
<path d="M6 120L518 120" stroke="#FF7C00"/>
<path d="M6 89L518 89" stroke="#FF7C00"/>
<path d="M6 58L518 58" stroke="#FF7C00"/>
<path d="M6 27L518 27" stroke="#FF7C00"/>
</g>
<defs>
<radialGradient id="paint0_radial_1_159" cx="0" cy="0" r="1" gradientUnits="userSpaceOnUse" gradientTransform="translate(512 2.13049e-05) rotate(94.4094) scale(409.713 504.543)">
<stop stop-color="#D9D9D9"/>
<stop offset="1" stop-color="#D9D9D9" stop-opacity="0"/>
</radialGradient>
</defs>
</svg>
