<svg width="1846" height="484" viewBox="0 0 1846 484" fill="none" xmlns="http://www.w3.org/2000/svg">
<path d="M436.205 144.606C436.205 88.1056 390.327 42.2185 333.839 42.2185H144.58C88.0903 42.2189 42.2114 88.1061 42.2109 144.606V333.899C42.2109 390.397 88.0897 436.283 144.58 436.283H333.839C390.328 436.283 436.205 390.398 436.205 333.899V144.606ZM478.419 333.899C478.419 413.716 413.642 478.505 333.839 478.505H144.58C64.7763 478.504 0 413.716 0 333.899V144.606C0.000465086 64.7881 64.7763 0.000327301 144.58 0H333.839C413.642 0 478.418 64.7881 478.419 144.606V333.899Z" fill="black"/>
<path fill-rule="evenodd" clip-rule="evenodd" d="M291.503 242.698C292.437 238.624 295.675 235.178 299.868 233.797C304.062 232.416 308.49 233.337 311.304 236.177C331.148 256.184 365.898 291.224 384.183 309.661C386.759 312.259 387.599 316.078 386.4 319.75C385.201 323.422 382.136 326.426 378.301 327.691C352.89 336.058 306.649 351.285 281.241 359.655C277.404 360.918 273.341 360.258 270.506 357.916C267.67 355.571 266.464 351.875 267.319 348.147C273.386 321.691 284.917 271.408 291.503 242.698Z" fill="black"/>
<path fill-rule="evenodd" clip-rule="evenodd" d="M195.241 242.231L222.46 290.729C229.971 304.114 224.336 321.947 209.885 330.531L157.515 361.635C143.063 370.219 125.232 366.322 117.721 352.937L90.5016 304.44C82.9901 291.055 88.6249 273.221 103.077 264.637L155.447 233.533C169.898 224.95 187.729 228.847 195.241 242.231Z" fill="black"/>
<path d="M240.419 218.795C272.597 218.795 298.681 192.706 298.681 160.522C298.681 128.339 272.597 102.249 240.419 102.249C208.241 102.249 182.156 128.339 182.156 160.522C182.156 192.706 208.241 218.795 240.419 218.795Z" fill="black"/>
<path d="M739.904 111.805C793.774 111.805 831.736 145.796 831.736 199.314C831.736 232.221 818.359 256.449 792.689 270.551C790.881 271.636 790.881 273.083 792.689 274.529C821.613 294.418 833.905 331.663 834.99 361.315C834.99 363.485 833.543 364.931 831.374 364.931H794.497C792.327 364.931 790.881 363.846 790.881 361.315C789.435 334.195 770.635 290.078 723.273 283.569C719.657 283.569 715.68 283.208 711.703 283.208C709.895 282.846 708.811 283.931 708.811 285.739V361.315C708.811 363.485 707.365 364.931 705.195 364.931H664.702C662.533 364.931 661.087 363.485 661.087 361.315V115.421C661.087 113.251 662.533 111.805 664.702 111.805H739.904ZM708.811 238.368C708.811 240.176 709.895 241.261 711.703 241.261H738.819C803.535 241.261 803.535 155.56 742.073 155.56H711.703C709.895 155.56 708.811 156.644 708.811 158.452V238.368ZM868.357 364.931C866.188 364.931 864.742 363.485 864.742 361.315V187.743C864.742 185.573 866.188 184.127 868.357 184.127H908.85C911.02 184.127 912.466 185.573 912.466 187.743V361.315C912.466 363.485 911.02 364.931 908.85 364.931H868.357ZM860.403 138.564C860.403 122.653 873.058 109.997 888.604 109.997C904.512 109.997 916.804 122.653 916.804 138.564C916.804 154.113 904.15 166.769 888.604 166.769C873.058 166.769 860.403 154.113 860.403 138.564ZM933.36 188.466C932.276 185.935 933.722 184.127 936.253 184.127H979.276C981.084 184.127 982.53 184.85 983.253 187.02L1024.47 296.226C1025.19 298.757 1027.36 298.757 1028.08 296.226L1069.66 187.02C1070.39 184.85 1071.83 184.127 1073.64 184.127H1116.66C1119.19 184.127 1120.64 185.935 1119.56 188.466L1048.33 362.038C1047.61 364.208 1046.16 364.931 1044.35 364.931H1008.2C1006.39 364.931 1004.95 364.208 1004.22 362.038L933.36 188.466ZM1213.42 369.271C1161 369.271 1117.97 326.239 1117.97 272.721C1117.97 219.564 1157.38 178.341 1209.44 178.341C1253.55 178.341 1290.43 210.886 1293.68 249.94C1294.05 251.748 1292.96 253.194 1291.51 254.279L1183.05 317.561C1181.24 318.645 1180.88 320.453 1182.69 321.9C1192.09 329.855 1203.66 331.663 1213.42 331.663C1235.84 331.663 1247.04 321.177 1256.44 305.627C1257.53 303.819 1258.98 303.096 1260.78 303.458L1291.51 308.882C1293.68 309.244 1295.13 310.328 1294.77 311.775C1288.26 338.172 1259.7 369.271 1213.42 369.271ZM1163.53 281.4L1164.25 283.569C1164.97 285.739 1166.78 286.101 1168.23 285.016L1242.34 239.453C1243.79 238.368 1244.51 237.283 1243.43 235.475C1236.92 224.627 1223.54 217.756 1206.91 219.564C1182.69 222.457 1153.77 251.748 1163.53 281.4ZM1386.15 129.885C1388.32 129.885 1389.76 131.332 1389.76 133.501V181.234C1389.76 183.042 1390.85 184.127 1392.65 184.127H1422.66C1424.83 184.127 1426.28 185.573 1426.28 187.743V219.203C1426.28 221.372 1424.83 222.819 1422.66 222.819H1392.65C1390.85 222.819 1389.76 223.904 1389.76 225.712V361.315C1389.76 363.485 1388.32 364.931 1386.15 364.931H1345.65C1343.48 364.931 1342.04 363.485 1342.04 361.315V225.712C1342.04 223.904 1340.95 222.819 1339.15 222.819H1306.25C1304.08 222.819 1302.63 221.372 1302.63 219.203V187.743C1302.63 185.573 1304.08 184.127 1306.25 184.127H1339.15C1340.95 184.127 1342.04 183.042 1342.04 181.234V133.501C1342.04 131.332 1343.48 129.885 1345.65 129.885H1386.15ZM1455.14 115.421C1455.14 113.251 1456.59 111.805 1458.76 111.805H1499.25C1501.42 111.805 1502.87 113.251 1502.87 115.421V205.823C1502.87 207.631 1503.95 208.716 1505.76 208.716C1551.68 205.1 1572.28 162.069 1571.56 115.421C1571.56 113.251 1573.01 111.805 1575.18 111.805H1615.67C1617.84 111.805 1619.28 113.251 1619.28 115.421C1618.92 162.069 1611.33 201.122 1571.2 228.966C1569.39 230.051 1569.39 231.498 1571.2 232.944C1611.69 262.958 1623.62 297.31 1625.79 361.315C1625.79 363.485 1624.35 364.931 1622.18 364.931H1581.68C1579.51 364.931 1578.07 363.485 1578.07 361.315C1576.98 292.248 1543.72 260.065 1505.76 254.279C1503.95 253.917 1502.87 255.364 1502.87 257.172V361.315C1502.87 363.485 1501.42 364.931 1499.25 364.931H1458.76C1456.59 364.931 1455.14 363.485 1455.14 361.315V115.421ZM1658.88 364.931C1656.71 364.931 1655.27 363.485 1655.27 361.315V187.743C1655.27 185.573 1656.71 184.127 1658.88 184.127H1699.38C1701.54 184.127 1702.99 185.573 1702.99 187.743V361.315C1702.99 363.485 1701.54 364.931 1699.38 364.931H1658.88ZM1650.93 138.564C1650.93 122.653 1663.58 109.997 1679.13 109.997C1695.04 109.997 1707.33 122.653 1707.33 138.564C1707.33 154.113 1694.68 166.769 1679.13 166.769C1663.58 166.769 1650.93 154.113 1650.93 138.564ZM1805.59 129.885C1807.76 129.885 1809.21 131.332 1809.21 133.501V181.234C1809.21 183.042 1810.29 184.127 1812.1 184.127H1842.11C1844.28 184.127 1845.73 185.573 1845.73 187.743V219.203C1845.73 221.372 1844.28 222.819 1842.11 222.819H1812.1C1810.29 222.819 1809.21 223.904 1809.21 225.712V361.315C1809.21 363.485 1807.76 364.931 1805.59 364.931H1765.1C1762.93 364.931 1761.49 363.485 1761.49 361.315V225.712C1761.49 223.904 1760.4 222.819 1758.59 222.819H1725.69C1723.52 222.819 1722.08 221.372 1722.08 219.203V187.743C1722.08 185.573 1723.52 184.127 1725.69 184.127H1758.59C1760.4 184.127 1761.49 183.042 1761.49 181.234V133.501C1761.49 131.332 1762.93 129.885 1765.1 129.885H1805.59Z" fill="black"/>
</svg>
