<svg width="64" height="64" viewBox="0 0 64 64" fill="none" xmlns="http://www.w3.org/2000/svg">
<path d="M16.25 16.5714C16.25 15.1491 15.077 14 13.625 14C12.173 14 11 15.1491 11 16.5714V43.5714C11 47.1232 13.9367 50 17.5625 50H50.375C51.827 50 53 48.8509 53 47.4286C53 46.0062 51.827 44.8571 50.375 44.8571H17.5625C16.8406 44.8571 16.25 44.2786 16.25 43.5714V16.5714ZM49.6039 23.5304C50.6293 22.5259 50.6293 20.8946 49.6039 19.8902C48.5785 18.8857 46.9133 18.8857 45.8879 19.8902L37.25 28.3598L32.5414 23.7473C31.516 22.7429 29.8508 22.7429 28.8254 23.7473L19.6379 32.7473C18.6125 33.7518 18.6125 35.383 19.6379 36.3875C20.6633 37.392 22.3285 37.392 23.3539 36.3875L30.6875 29.2116L35.3961 33.8241C36.4215 34.8286 38.0867 34.8286 39.1121 33.8241L49.6121 23.5384L49.6039 23.5304Z" fill="#4DB1F9"/>
</svg>
