<svg width="64" height="64" viewBox="0 0 64 64" fill="none" xmlns="http://www.w3.org/2000/svg">
<path d="M25.0011 38.2627C32.1826 38.2627 38.0016 33.2789 38.0016 27.1313C38.0016 20.9838 32.1826 16 25.0011 16C17.8196 16 12.0007 20.9838 12.0007 27.1313C12.0007 29.5726 12.9195 31.8305 14.4758 33.671C14.257 34.2655 13.932 34.7904 13.5882 35.2332C13.2882 35.6253 12.982 35.9289 12.757 36.1376C12.6445 36.2388 12.5507 36.321 12.4882 36.3716C12.4569 36.3969 12.4319 36.4159 12.4194 36.4222L12.4069 36.4348C12.0632 36.6942 11.9132 37.1495 12.0507 37.5606C12.1882 37.9717 12.5695 38.2627 13.0007 38.2627C14.3633 38.2627 15.7383 37.9085 16.8821 37.4721C17.4571 37.2507 17.9946 37.0041 18.4634 36.7511C20.3822 37.7124 22.6135 38.2627 25.0011 38.2627ZM40.0016 27.1313C40.0016 34.2339 33.8077 39.5845 26.4699 40.2233C27.9887 44.9288 33.0264 48.382 39.0016 48.382C41.3892 48.382 43.6205 47.8318 45.5456 46.8705C46.0143 47.1235 46.5456 47.3701 47.1206 47.5915C48.2644 48.0279 49.6395 48.382 51.002 48.382C51.4333 48.382 51.8208 48.0974 51.952 47.68C52.0833 47.2626 51.9395 46.8072 51.5895 46.5479L51.577 46.5353C51.5645 46.5226 51.5395 46.51 51.5083 46.4847C51.4458 46.4341 51.352 46.3582 51.2395 46.2507C51.0145 46.0419 50.7082 45.7384 50.4082 45.3462C50.0645 44.9035 49.7395 44.3722 49.5207 43.7841C51.077 41.9499 51.9958 39.692 51.9958 37.2444C51.9958 31.3751 46.6894 26.5621 39.9579 26.1447C39.9829 26.4672 39.9954 26.7961 39.9954 27.125L40.0016 27.1313Z" fill="white"/>
</svg>
