<svg width="64" height="64" viewBox="0 0 64 64" fill="none" xmlns="http://www.w3.org/2000/svg">
<g clip-path="url(#clip0_15_20)">
<path fill-rule="evenodd" clip-rule="evenodd" d="M58.9096 58.9087C53.8183 64 46.0232 64 32.001 64C17.9788 64 10.1836 64 5.09231 58.9087C0.000976562 53.8173 0.000976562 46.0222 0.000976562 32C0.000976562 17.9778 0.000976562 10.1827 5.09231 5.09133C10.1836 0 17.9788 0 32.001 0C46.0232 0 53.8183 0 58.9096 5.09133C64.001 10.1827 64.001 17.9778 64.001 32C64.001 46.0222 64.001 53.8173 58.9096 58.9087ZM38.0016 27.1313C38.0016 33.2789 32.1826 38.2627 25.0011 38.2627C22.6135 38.2627 20.3822 37.7124 18.4634 36.7511C17.9946 37.0041 17.4571 37.2507 16.8821 37.4721C15.7383 37.9085 14.3633 38.2627 13.0007 38.2627C12.5695 38.2627 12.1882 37.9717 12.0507 37.5606C11.9132 37.1495 12.0632 36.6942 12.4069 36.4348L12.4194 36.4222C12.4319 36.4159 12.4569 36.3969 12.4882 36.3716C12.5507 36.321 12.6445 36.2388 12.757 36.1376C12.982 35.9289 13.2882 35.6253 13.5882 35.2332C13.932 34.7904 14.257 34.2655 14.4758 33.671C12.9195 31.8305 12.0007 29.5726 12.0007 27.1313C12.0007 20.9838 17.8196 16 25.0011 16C32.1826 16 38.0016 20.9838 38.0016 27.1313ZM26.4699 40.2233C33.8077 39.5845 40.0016 34.2339 40.0016 27.1313L39.9954 27.125C39.9954 26.7961 39.9829 26.4672 39.9579 26.1447C46.6894 26.5621 51.9958 31.3751 51.9958 37.2444C51.9958 39.692 51.077 41.9499 49.5207 43.784C49.7395 44.3722 50.0645 44.9035 50.4082 45.3462C50.7082 45.7384 51.0145 46.0419 51.2395 46.2507C51.352 46.3582 51.4458 46.4341 51.5083 46.4847C51.5239 46.4973 51.538 46.5068 51.5497 46.5147C51.5614 46.5226 51.5708 46.5289 51.577 46.5353L51.5895 46.5479C51.9395 46.8072 52.0833 47.2626 51.952 47.68C51.8208 48.0974 51.4333 48.382 51.002 48.382C49.6395 48.382 48.2644 48.0279 47.1206 47.5915C46.5456 47.3701 46.0143 47.1235 45.5456 46.8705C43.6205 47.8318 41.3892 48.382 39.0016 48.382C33.0264 48.382 27.9887 44.9288 26.4699 40.2233Z" fill="white"/>
</g>
<defs>
<clipPath id="clip0_15_20">
<rect width="64" height="64" fill="white"/>
</clipPath>
</defs>
</svg>
