<svg xmlns="http://www.w3.org/2000/svg" xml:space="preserve" style="fill-rule:evenodd;clip-rule:evenodd;stroke-linejoin:round;stroke-miterlimit:2" viewBox="0 0 16 16"><path d="M16 1H0v6h16V1Zm-5.25 2.25c.411 0 .75.339.75.75s-.339.75-.75.75A.754.754 0 0 1 10 4c0-.411.339-.75.75-.75Zm1.5.75c0-.411.339-.75.75-.75s.75.339.75.75-.339.75-.75.75a.754.754 0 0 1-.75-.75ZM16 9H0v6h16V9Zm-5.25 2.25c.411 0 .75.339.75.75s-.339.75-.75.75A.754.754 0 0 1 10 12c0-.411.339-.75.75-.75Zm1.75.75c0-.411.339-.75.75-.75s.75.339.75.75-.339.75-.75.75a.754.754 0 0 1-.75-.75Z" style="fill:#fff;fill-rule:nonzero"/></svg>