<svg width="64" height="64" viewBox="0 0 64 64" fill="none" xmlns="http://www.w3.org/2000/svg">
<g clip-path="url(#clip0_4_163)">
<path fill-rule="evenodd" clip-rule="evenodd" d="M58.9096 58.9087C53.8183 64 46.0232 64 32.001 64C17.9788 64 10.1836 64 5.09231 58.9087C0.000976562 53.8173 0.000976562 46.0222 0.000976562 32C0.000976562 17.9778 0.000976562 10.1827 5.09231 5.09133C10.1836 0 17.9788 0 32.001 0C46.0232 0 53.8183 0 58.9096 5.09133C64.001 10.1827 64.001 17.9778 64.001 32C64.001 46.0222 64.001 53.8173 58.9096 58.9087ZM34.5 39.4999V20.539L40.2266 26.2733C41.2031 27.2499 42.7891 27.2499 43.7656 26.2733C44.7422 25.2968 44.7422 23.7108 43.7656 22.7343L33.7656 12.7343C32.7891 11.7577 31.2031 11.7577 30.2266 12.7343L20.2266 22.7343C19.25 23.7108 19.25 25.2968 20.2266 26.2733C21.2031 27.2499 22.7891 27.2499 23.7656 26.2733L29.5 20.539V39.4999C29.5 40.8827 30.6172 41.9999 32 41.9999C33.3828 41.9999 34.5 40.8827 34.5 39.4999ZM27 39.4999H17C14.2422 39.4999 12 41.7421 12 44.4999V46.9999C12 49.7577 14.2422 51.9999 17 51.9999H47C49.7578 51.9999 52 49.7577 52 46.9999V44.4999C52 41.7421 49.7578 39.4999 47 39.4999H37C37 42.2577 34.7578 44.4999 32 44.4999C29.2422 44.4999 27 42.2577 27 39.4999ZM47.625 45.7499C47.625 46.789 46.7891 47.6249 45.75 47.6249C44.7109 47.6249 43.875 46.789 43.875 45.7499C43.875 44.7108 44.7109 43.8749 45.75 43.8749C46.7891 43.8749 47.625 44.7108 47.625 45.7499Z" fill="white"/>
</g>
<defs>
<clipPath id="clip0_4_163">
<rect width="64" height="64" fill="white"/>
</clipPath>
</defs>
</svg>
