<svg width="64" height="64" viewBox="0 0 64 64" fill="none" xmlns="http://www.w3.org/2000/svg">
<path d="M34 24C34 28.4187 30.4187 32 26 32C21.5813 32 18 28.4187 18 24C18 19.5813 21.5813 16 26 16C30.4187 16 34 19.5813 34 24ZM12 46.1437C12 39.9875 16.9875 35 23.1438 35H28.8563C35.0125 35 40 39.9875 40 46.1437C40 47.1687 39.1687 48 38.1437 48H13.8563C12.8313 48 12 47.1687 12 46.1437ZM50.0812 48H41.4625C41.8 47.4125 42 46.7312 42 46V45.5C42 41.7062 40.3063 38.3 37.6375 36.0125C37.7875 36.0063 37.9312 36 38.0812 36H41.9188C47.4875 36 52 40.5125 52 46.0812C52 47.1437 51.1375 48 50.0812 48ZM39 32C37.0625 32 35.3125 31.2125 34.0438 29.9438C35.275 28.2813 36 26.225 36 24C36 22.325 35.5875 20.7438 34.8563 19.3563C36.0188 18.5063 37.45 18 39 18C42.8688 18 46 21.1312 46 25C46 28.8688 42.8688 32 39 32Z" fill="#F2B046"/>
</svg>
