<svg width="64" height="64" viewBox="0 0 64 64" fill="none" xmlns="http://www.w3.org/2000/svg">
<g clip-path="url(#clip0_15_7)">
<path fill-rule="evenodd" clip-rule="evenodd" d="M58.9096 58.9087C53.8183 64 46.0232 64 32.001 64C17.9788 64 10.1836 64 5.09231 58.9087C0.000976562 53.8173 0.000976562 46.0222 0.000976562 32C0.000976562 17.9778 0.000976562 10.1827 5.09231 5.09133C10.1836 0 17.9788 0 32.001 0C46.0232 0 53.8183 0 58.9096 5.09133C64.001 10.1827 64.001 17.9778 64.001 32C64.001 46.0222 64.001 53.8173 58.9096 58.9087ZM26 32C30.4188 32 34 28.4188 34 24C34 19.5812 30.4188 16 26 16C21.5812 16 18 19.5812 18 24C18 28.4188 21.5812 32 26 32ZM23.1437 35C16.9875 35 12 39.9875 12 46.1437C12 47.1687 12.8313 48 13.8562 48H38.1437C39.1687 48 40 47.1687 40 46.1437C40 39.9875 35.0125 35 28.8563 35H23.1437ZM41.4625 48H50.0812C51.1375 48 52 47.1437 52 46.0812C52 40.5125 47.4875 36 41.9188 36H38.0812C37.9369 36 37.7984 36.0058 37.6546 36.0118L37.6375 36.0125C40.3063 38.3 42 41.7062 42 45.5V46C42 46.7313 41.8 47.4125 41.4625 48ZM34.0438 29.9438C35.3125 31.2125 37.0625 32 39 32C42.8688 32 46 28.8687 46 25C46 21.1313 42.8688 18 39 18C37.45 18 36.0188 18.5063 34.8563 19.3563C35.5875 20.7437 36 22.325 36 24C36 26.225 35.275 28.2812 34.0438 29.9438Z" fill="white"/>
</g>
<defs>
<clipPath id="clip0_15_7">
<rect width="64" height="64" fill="white"/>
</clipPath>
</defs>
</svg>
