<svg width="64" height="64" viewBox="0 0 64 64" fill="none" xmlns="http://www.w3.org/2000/svg">
<g clip-path="url(#clip0_101_2)">
<path d="M32.001 64C46.0232 64 53.8183 64 58.9096 58.9087C64.001 53.8173 64.001 46.0222 64.001 32C64.001 17.9778 64.001 10.1827 58.9096 5.09133C53.8183 0 46.0232 0 32.001 0C17.9788 0 10.1836 0 5.09231 5.09133C0.000976562 10.1827 0.000976562 17.9778 0.000976562 32C0.000976562 46.0222 0.000976562 53.8173 5.09231 58.9087C10.1836 64 17.9788 64 32.001 64Z" fill="url(#paint0_linear_101_2)"/>
<path d="M31.8531 12C32.2145 12 32.5758 12.0786 32.9058 12.2278L47.6976 18.5043C49.4258 19.2349 50.7141 20.9395 50.7062 22.9976C50.667 30.7903 47.4619 45.0479 33.9191 51.5287C32.6073 52.1571 31.0833 52.1571 29.7714 51.5287C16.2443 45.0479 13.0393 30.7903 13 22.9976C12.9922 20.9395 14.2805 19.2349 16.0087 18.5043L30.8084 12.2278C31.1304 12.0786 31.4918 12 31.8531 12ZM31.8531 17.2474V46.9411C42.6937 41.6936 45.608 30.0754 45.6787 23.1076L31.8531 17.2474Z" fill="url(#paint1_linear_101_2)"/>
</g>
<defs>
<linearGradient id="paint0_linear_101_2" x1="31.9589" y1="-0.0105222" x2="32.0325" y2="63.9264" gradientUnits="userSpaceOnUse">
<stop stop-color="#9E92EF"/>
<stop offset="1" stop-color="#7468BF"/>
</linearGradient>
<linearGradient id="paint1_linear_101_2" x1="31.8531" y1="12" x2="31.8531" y2="52" gradientUnits="userSpaceOnUse">
<stop stop-color="white"/>
<stop offset="1" stop-color="white" stop-opacity="0.6"/>
</linearGradient>
<clipPath id="clip0_101_2">
<rect width="64" height="64" fill="white"/>
</clipPath>
</defs>
</svg>
