<svg width="64" height="64" viewBox="0 0 64 64" fill="none" xmlns="http://www.w3.org/2000/svg">
<path d="M31.8531 12C32.2145 12 32.5758 12.0786 32.9058 12.2278L47.6976 18.5043C49.4258 19.2349 50.7141 20.9395 50.7062 22.9976C50.667 30.7903 47.4619 45.0479 33.9191 51.5287C32.6073 52.1571 31.0833 52.1571 29.7714 51.5287C16.2443 45.0479 13.0393 30.7903 13 22.9976C12.9922 20.9395 14.2805 19.2349 16.0087 18.5043L30.8084 12.2278C31.1304 12.0786 31.4918 12 31.8531 12ZM31.8531 17.2474V46.9411C42.6937 41.6936 45.608 30.0754 45.6787 23.1076L31.8531 17.2474Z" fill="#8A7ED8"/>
</svg>
