<svg width="64" height="64" viewBox="0 0 64 64" fill="none" xmlns="http://www.w3.org/2000/svg">
<g clip-path="url(#clip0_101_7)">
<path fill-rule="evenodd" clip-rule="evenodd" d="M58.9096 58.9087C53.8183 64 46.0232 64 32.001 64C17.9788 64 10.1836 64 5.09231 58.9087C0.000976562 53.8173 0.000976562 46.0222 0.000976562 32C0.000976562 17.9778 0.000976562 10.1827 5.09231 5.09133C10.1836 0 17.9788 0 32.001 0C46.0232 0 53.8183 0 58.9096 5.09133C64.001 10.1827 64.001 17.9778 64.001 32C64.001 46.0222 64.001 53.8173 58.9096 58.9087ZM32.9058 12.2278C32.5758 12.0786 32.2145 12 31.8531 12C31.4918 12 31.1304 12.0786 30.8084 12.2278L16.0087 18.5043C14.2805 19.2349 12.9922 20.9395 13 22.9976C13.0393 30.7903 16.2443 45.0479 29.7714 51.5287C31.0833 52.1571 32.6073 52.1571 33.9191 51.5287C47.4619 45.0479 50.667 30.7903 50.7062 22.9976C50.7141 20.9395 49.4258 19.2349 47.6976 18.5043L32.9058 12.2278ZM31.8531 46.9411V17.2474L45.6787 23.1076C45.608 30.0754 42.6937 41.6936 31.8531 46.9411Z" fill="white"/>
</g>
<defs>
<clipPath id="clip0_101_7">
<rect width="64" height="64" fill="white"/>
</clipPath>
</defs>
</svg>
