<svg width="64" height="64" viewBox="0 0 64 64" fill="none" xmlns="http://www.w3.org/2000/svg">
<g clip-path="url(#clip0_4_260)">
<path fill-rule="evenodd" clip-rule="evenodd" d="M58.9096 58.9087C53.8183 64 46.0232 64 32.001 64C17.9788 64 10.1836 64 5.09231 58.9087C0.000976562 53.8173 0.000976562 46.0222 0.000976562 32C0.000976562 17.9778 0.000976562 10.1827 5.09231 5.09133C10.1836 0 17.9788 0 32.001 0C46.0232 0 53.8183 0 58.9096 5.09133C64.001 10.1827 64.001 17.9778 64.001 32C64.001 46.0222 64.001 53.8173 58.9096 58.9087ZM16.8 21.6875C16.8 24.2773 18.9256 26.375 21.55 26.375C24.1744 26.375 26.3 24.2773 26.3 21.6875C26.3 19.0977 24.1744 17 21.55 17C18.9256 17 16.8 19.0977 16.8 21.6875ZM38.65 21.6875C38.65 24.2773 40.7756 26.375 43.4 26.375C46.0244 26.375 48.15 24.2773 48.15 21.6875C48.15 19.0977 46.0244 17 43.4 17C40.7756 17 38.65 19.0977 38.65 21.6875ZM19.3353 28.25C15.8381 28.25 13 31.0508 13 34.502C13 35.1875 13.57 35.75 14.2647 35.75H26.9353H26.9769C25.4034 34.373 24.4059 32.3633 24.4059 30.125C24.4059 29.6797 24.4416 29.2402 24.5187 28.8184C23.7113 28.4551 22.8147 28.25 21.8706 28.25H19.3353ZM37.0231 35.75H37.0647H49.7353C50.43 35.75 51 35.1934 51 34.502C51 31.0508 48.1619 28.25 44.6647 28.25H42.1294C41.1853 28.25 40.2887 28.4492 39.4812 28.8184C39.5525 29.2461 39.5941 29.6797 39.5941 30.125C39.5941 32.3633 38.6025 34.373 37.0231 35.75ZM32 35.75C35.1469 35.75 37.7 33.2305 37.7 30.125C37.7 27.0195 35.1469 24.5 32 24.5C28.8531 24.5 26.3 27.0195 26.3 30.125C26.3 33.2305 28.8531 35.75 32 35.75ZM28.5147 37.625C24.1447 37.625 20.6 41.123 20.6 45.4355C20.6 46.3027 21.3125 47 22.1853 47H41.8147C42.6934 47 43.4 46.2969 43.4 45.4355C43.4 41.123 39.8553 37.625 35.4853 37.625H28.5147Z" fill="white"/>
</g>
<defs>
<clipPath id="clip0_4_260">
<rect width="64" height="64" fill="white"/>
</clipPath>
</defs>
</svg>
