<svg width="64" height="64" viewBox="0 0 64 64" fill="none" xmlns="http://www.w3.org/2000/svg">
<path d="M37.3125 38.375C43.7672 38.375 49 33.1422 49 26.6875C49 20.2328 43.7672 15 37.3125 15C30.8578 15 25.625 20.2328 25.625 26.6875C25.625 27.9293 25.8176 29.1313 26.1762 30.2535L15.4648 40.9648C15.166 41.2637 15 41.6688 15 42.0938V47.4063C15 48.2895 15.7105 49 16.5938 49H21.9063C22.7895 49 23.5 48.2895 23.5 47.4063V44.75H26.1563C27.0395 44.75 27.75 44.0395 27.75 43.1563V40.5H30.4063C30.8313 40.5 31.2363 40.334 31.5352 40.0352L33.7465 37.8238C34.8688 38.1824 36.0707 38.375 37.3125 38.375ZM39.9688 26.6875C38.5012 26.6875 37.3125 25.4988 37.3125 24.0313C37.3125 22.5637 38.5012 21.375 39.9688 21.375C41.4363 21.375 42.625 22.5637 42.625 24.0313C42.625 25.4988 41.4363 26.6875 39.9688 26.6875Z" fill="white"/>
</svg>
