<svg width="64" height="64" viewBox="0 0 64 64" fill="none" xmlns="http://www.w3.org/2000/svg">
<g clip-path="url(#clip0_4_230)">
<path fill-rule="evenodd" clip-rule="evenodd" d="M58.9096 58.9087C53.8183 64 46.0232 64 32.001 64C17.9788 64 10.1836 64 5.09231 58.9087C0.000976562 53.8173 0.000976562 46.0222 0.000976562 32C0.000976562 17.9778 0.000976562 10.1827 5.09231 5.09133C10.1836 0 17.9788 0 32.001 0C46.0232 0 53.8183 0 58.9096 5.09133C64.001 10.1827 64.001 17.9778 64.001 32C64.001 46.0222 64.001 53.8173 58.9096 58.9087ZM49 26.6875C49 33.1422 43.7672 38.375 37.3125 38.375C36.0707 38.375 34.8688 38.1824 33.7465 37.8238L31.5352 40.0352C31.2363 40.334 30.8312 40.5 30.4062 40.5H27.75V43.1562C27.75 44.0395 27.0395 44.75 26.1562 44.75H23.5V47.4062C23.5 48.2895 22.7895 49 21.9062 49H16.5938C15.7105 49 15 48.2895 15 47.4062V42.0938C15 41.6688 15.166 41.2637 15.4648 40.9648L26.1762 30.2535C25.8176 29.1313 25.625 27.9293 25.625 26.6875C25.625 20.2328 30.8578 15 37.3125 15C43.7672 15 49 20.2328 49 26.6875ZM37.3125 24.0312C37.3125 25.4988 38.5012 26.6875 39.9688 26.6875C41.4363 26.6875 42.625 25.4988 42.625 24.0312C42.625 22.5637 41.4363 21.375 39.9688 21.375C38.5012 21.375 37.3125 22.5637 37.3125 24.0312Z" fill="white"/>
</g>
<defs>
<clipPath id="clip0_4_230">
<rect width="64" height="64" fill="white"/>
</clipPath>
</defs>
</svg>
