<svg fill="none" xmlns="http://www.w3.org/2000/svg" viewBox="14 12 35.15 40"> <path d="M49.1515 18.25V22C49.1515 25.4531 41.2817 28.25 31.5758 28.25C21.8699 28.25 14 25.4531 14 22V18.25C14 14.7969 21.8699 12 31.5758 12C41.2817 12 49.1515 14.7969 49.1515 18.25ZM44.8517 28.7734C46.4838 28.1953 47.9824 27.4531 49.1515 26.5391V34.5C49.1515 37.9531 41.2817 40.75 31.5758 40.75C21.8699 40.75 14 37.9531 14 34.5V26.5391C15.1691 27.4609 16.6677 28.1953 18.2998 28.7734C21.8228 30.0234 26.5149 30.75 31.5758 30.75C36.6366 30.75 41.3287 30.0234 44.8517 28.7734ZM14 39.0391C15.1691 39.9609 16.6677 40.6953 18.2998 41.2734C21.8228 42.5234 26.5149 43.25 31.5758 43.25C36.6366 43.25 41.3287 42.5234 44.8517 41.2734C46.4838 40.6953 47.9824 39.9531 49.1515 39.0391V45.75C49.1515 49.2031 41.2817 52 31.5758 52C21.8699 52 14 49.2031 14 45.75V39.0391Z" fill="white"></path> </svg>