<svg width="64" height="64" viewBox="0 0 64 64" fill="none" xmlns="http://www.w3.org/2000/svg">
<g clip-path="url(#clip0_4_287)">
<path fill-rule="evenodd" clip-rule="evenodd" d="M58.9096 58.9087C53.8183 64 46.0232 64 32.001 64C17.9788 64 10.1836 64 5.09231 58.9087C0.000976562 53.8173 0.000976562 46.0222 0.000976562 32C0.000976562 17.9778 0.000976562 10.1827 5.09231 5.09133C10.1836 0 17.9788 0 32.001 0C46.0232 0 53.8183 0 58.9096 5.09133C64.001 10.1827 64.001 17.9778 64.001 32C64.001 46.0222 64.001 53.8173 58.9096 58.9087ZM23.2498 12H13.2498C12.7888 12 12.367 12.2578 12.1482 12.6641C11.9295 13.0703 11.9529 13.5625 12.2107 13.9453L20.656 26.6094C23.281 24.0547 26.7576 22.375 30.6248 22.0547L24.2888 12.5547C24.0545 12.2109 23.6638 12 23.2498 12ZM43.3435 26.6172L51.7888 13.9453C52.0466 13.5625 52.0701 13.0781 51.8513 12.6641C51.6326 12.25 51.2107 12 50.7498 12H40.7498C40.3357 12 39.9451 12.2031 39.7107 12.5547L33.3748 22.0625C37.242 22.3828 40.7263 24.0625 43.3435 26.6172ZM31.9998 52C39.5935 52 45.7498 45.8438 45.7498 38.25C45.7498 30.6562 39.5935 24.5 31.9998 24.5C24.406 24.5 18.2498 30.6562 18.2498 38.25C18.2498 45.8438 24.406 52 31.9998 52ZM31.3435 30.8359C31.617 30.2891 32.3904 30.2891 32.656 30.8359L34.406 34.3828C34.5076 34.5938 34.7185 34.75 34.9529 34.7812L38.867 35.3516C39.4685 35.4453 39.7107 36.1797 39.2732 36.6016L36.4373 39.3672C36.2654 39.5391 36.1873 39.7812 36.2263 40.0156L36.8982 43.9141C36.9998 44.5156 36.3748 44.9688 35.8357 44.6875L32.3357 42.8438C32.1248 42.7344 31.867 42.7344 31.656 42.8438L28.156 44.6875C27.617 44.9688 26.992 44.5078 27.0935 43.9141L27.7654 40.0156C27.8045 39.7734 27.7263 39.5391 27.5545 39.3672L24.7185 36.6016C24.2888 36.1719 24.5232 35.4375 25.1248 35.3516L29.0466 34.7812C29.281 34.75 29.4841 34.6016 29.5935 34.3828L31.3435 30.8359Z" fill="white"/>
</g>
<defs>
<clipPath id="clip0_4_287">
<rect width="64" height="64" fill="white"/>
</clipPath>
</defs>
</svg>
