<svg width="64" height="64" viewBox="0 0 64 64" fill="none" xmlns="http://www.w3.org/2000/svg">
<g clip-path="url(#clip0_4_187)">
<path fill-rule="evenodd" clip-rule="evenodd" d="M58.9096 58.9087C53.8183 64 46.0232 64 32.001 64C17.9788 64 10.1836 64 5.09231 58.9087C0.000976562 53.8173 0.000976562 46.0222 0.000976562 32C0.000976562 17.9778 0.000976562 10.1827 5.09231 5.09133C10.1836 0 17.9788 0 32.001 0C46.0232 0 53.8183 0 58.9096 5.09133C64.001 10.1827 64.001 17.9778 64.001 32C64.001 46.0222 64.001 53.8173 58.9096 58.9087ZM19.4242 43V41.0938C19.4242 39.1953 20.4621 37.4688 22.1061 36.6172L26.4394 34.375C28.0833 33.5312 29.1212 31.7969 29.1212 29.9062V26.75L27.6591 27.5078C27.0455 27.8203 26.5985 28.3828 26.4091 29.0547L25.7803 31.3125C25.5909 31.9844 25.1364 32.5469 24.5303 32.8594L24.0303 33.1172C23.4091 33.4375 22.6894 33.4688 22.0455 33.2031L18.5227 31.75C17.6061 31.375 17 30.4531 17 29.4297V19.0312C17 18.3672 17.2576 17.7344 17.7121 17.2656L18.2121 16.75L17.1061 14.4609C17.0379 14.3203 17 14.1641 17 14.0078C17 13.4531 17.4394 13 17.9773 13H29.1212C37.1515 13 43.6667 19.7188 43.6667 28V43H19.4242ZM20.9394 23.625C21.7727 23.625 22.4545 22.9219 22.4545 22.0625C22.4545 21.2031 21.7727 20.5 20.9394 20.5C20.1061 20.5 19.4242 21.2031 19.4242 22.0625C19.4242 22.9219 20.1061 23.625 20.9394 23.625ZM19.4242 45.5H43.6667C45.0076 45.5 46.0909 46.6172 46.0909 48C46.0909 49.3828 45.0076 50.5 43.6667 50.5H19.4242C18.0833 50.5 17 49.3828 17 48C17 46.6172 18.0833 45.5 19.4242 45.5Z" fill="white"/>
</g>
<defs>
<clipPath id="clip0_4_187">
<rect width="64" height="64" fill="white"/>
</clipPath>
</defs>
</svg>
