<svg xmlns="http://www.w3.org/2000/svg" fill="none" viewBox="17 13 29.09 37.5"><path fill="#fff" d="M19.424 41.094V43h24.243V28c0-8.281-6.516-15-14.546-15H17.977c-.538 0-.977.453-.977 1.008 0 .156.038.312.106.453l1.106 2.289-.5.516A2.536 2.536 0 0 0 17 19.03V29.43c0 1.023.606 1.945 1.523 2.32l3.523 1.453a2.353 2.353 0 0 0 1.984-.086l.5-.258a2.5 2.5 0 0 0 1.25-1.547l.63-2.257a2.476 2.476 0 0 1 1.25-1.547l1.461-.758v3.156c0 1.89-1.038 3.625-2.682 4.469l-4.333 2.242c-1.644.852-2.682 2.578-2.682 4.477Zm3.03-19.032c0 .86-.681 1.563-1.515 1.563-.833 0-1.515-.703-1.515-1.563 0-.859.682-1.562 1.515-1.562.834 0 1.515.703 1.515 1.563ZM43.668 45.5H19.424C18.084 45.5 17 46.617 17 48s1.083 2.5 2.424 2.5h24.243c1.34 0 2.424-1.117 2.424-2.5s-1.083-2.5-2.424-2.5Z"></path></svg>