<svg width="64" height="64" viewBox="0 0 64 64" fill="none" xmlns="http://www.w3.org/2000/svg">
<g clip-path="url(#clip0_4_177)">
<path fill-rule="evenodd" clip-rule="evenodd" d="M58.9096 58.9087C53.8183 64 46.0232 64 32.001 64C17.9788 64 10.1836 64 5.09231 58.9087C0.000976562 53.8173 0.000976562 46.0222 0.000976562 32C0.000976562 17.9778 0.000976562 10.1827 5.09231 5.09133C10.1836 0 17.9788 0 32.001 0C46.0232 0 53.8183 0 58.9096 5.09133C64.001 10.1827 64.001 17.9778 64.001 32C64.001 46.0222 64.001 53.8173 58.9096 58.9087ZM16 20C16 17.7938 17.7938 16 20 16H40C42.2062 16 44 17.7938 44 20V22H40V20H20V34H34V40H16.8C14.15 40 12 37.85 12 35.2C12 34.5375 12.5375 34 13.2 34H16V20ZM40 28V44H48V28H40ZM36 45V27C36 25.3438 37.3438 24 39 24H49C50.6562 24 52 25.3438 52 27V45C52 46.6562 50.6562 48 49 48H39C37.3438 48 36 46.6562 36 45Z" fill="white"/>
</g>
<defs>
<clipPath id="clip0_4_177">
<rect width="64" height="64" fill="white"/>
</clipPath>
</defs>
</svg>
