<svg width="64" height="64" viewBox="0 0 64 64" fill="none" xmlns="http://www.w3.org/2000/svg">
<g clip-path="url(#clip0_4_171)">
<path d="M32.001 64C46.0232 64 53.8183 64 58.9096 58.9087C64.001 53.8173 64.001 46.0222 64.001 32C64.001 17.9778 64.001 10.1827 58.9096 5.09133C53.8183 0 46.0232 0 32.001 0C17.9788 0 10.1836 0 5.09231 5.09133C0.000976562 10.1827 0.000976562 17.9778 0.000976562 32C0.000976562 46.0222 0.000976562 53.8173 5.09231 58.9087C10.1836 64 17.9788 64 32.001 64Z" fill="url(#paint0_linear_4_171)"/>
<path d="M20 16C17.7938 16 16 17.7938 16 20V34H13.2C12.5375 34 12 34.5375 12 35.2C12 37.85 14.15 40 16.8 40H34V34H20V20H40V22H44V20C44 17.7938 42.2062 16 40 16H20ZM40 44V28H48V44H40ZM36 27V45C36 46.6562 37.3438 48 39 48H49C50.6562 48 52 46.6562 52 45V27C52 25.3438 50.6562 24 49 24H39C37.3438 24 36 25.3438 36 27Z" fill="url(#paint1_linear_4_171)"/>
</g>
<defs>
<linearGradient id="paint0_linear_4_171" x1="31.9589" y1="-0.0105222" x2="32.0325" y2="63.9264" gradientUnits="userSpaceOnUse">
<stop stop-color="#9E92EF"/>
<stop offset="1" stop-color="#7468BF"/>
</linearGradient>
<linearGradient id="paint1_linear_4_171" x1="32" y1="16" x2="32" y2="48" gradientUnits="userSpaceOnUse">
<stop stop-color="white"/>
<stop offset="1" stop-color="white" stop-opacity="0.6"/>
</linearGradient>
<clipPath id="clip0_4_171">
<rect width="64" height="64" fill="white"/>
</clipPath>
</defs>
</svg>
