<svg width="64" height="64" viewBox="0 0 64 64" fill="none" xmlns="http://www.w3.org/2000/svg">
<g clip-path="url(#clip0_4_268)">
<path d="M32 64C46.0222 64 53.8173 64 58.9087 58.9087C64 53.8173 64 46.0222 64 32C64 17.9778 64 10.1827 58.9087 5.09133C53.8173 0 46.0222 0 32 0C17.9778 0 10.1827 0 5.09133 5.09133C0 10.1827 0 17.9778 0 32C0 46.0222 0 53.8173 5.09133 58.9087C10.1827 64 17.9778 64 32 64Z" fill="url(#paint0_linear_4_268)"/>
<path d="M51.3317 15.3041C52.1206 14.6324 52.2222 13.4529 51.5504 12.664C50.8786 11.875 49.6991 11.7735 48.9102 12.4452L48.1291 13.1092C47.676 13.4919 47.098 13.695 46.5122 13.6794C43.1924 13.5935 40.396 16.1556 40.2007 19.4753L40.0601 21.8187C39.982 23.1153 38.8884 24.1152 37.5918 24.0839C36.0764 24.0449 34.6079 24.5604 33.4518 25.5368L32.6707 26.2008C31.8818 26.8725 31.7802 28.052 32.452 28.841C33.1238 29.6299 34.3033 29.7314 35.0922 29.0597L35.8733 28.3957C36.3264 28.013 36.9044 27.8099 37.4902 27.8255C40.81 27.9114 43.6064 25.3494 43.8017 22.0296L43.9423 19.6862C44.0204 18.3896 45.114 17.3897 46.4106 17.421C47.926 17.46 49.3945 16.9445 50.5506 15.9681L51.3317 15.3041V15.3041ZM30.1243 12C29.0854 12 28.2496 12.8358 28.2496 13.8747C28.2496 16.2571 27.4606 18.1006 26.6639 19.3582C26.2655 19.9909 25.8672 20.4673 25.586 20.7798C25.4454 20.936 25.3282 21.0454 25.2579 21.1157C25.2188 21.1469 25.1954 21.1704 25.1798 21.186L25.172 21.1938C24.383 21.8577 24.2815 23.0372 24.9376 23.8262C25.6016 24.6229 26.7811 24.7323 27.5778 24.0683L26.3749 22.6232C27.5778 24.0605 27.5778 24.0605 27.5778 24.0605L27.5856 24.0527L27.6013 24.0371L27.6559 23.9902C27.695 23.9511 27.7497 23.9043 27.82 23.8418C27.9528 23.7168 28.1324 23.545 28.3355 23.3184C28.7495 22.8654 29.2963 22.2092 29.8353 21.3578C30.9132 19.6472 31.999 17.1163 31.999 13.8747C31.999 12.8358 31.1632 12 30.1243 12ZM19.501 14.4996C19.501 13.117 18.384 12 17.0014 12C15.6189 12 14.5019 13.117 14.5019 14.4996C14.5019 15.8822 15.6189 16.9992 17.0014 16.9992C18.384 16.9992 19.501 15.8822 19.501 14.4996ZM51.9956 24.4979C51.9956 23.1153 50.8786 21.9983 49.4961 21.9983C48.1135 21.9983 46.9965 23.1153 46.9965 24.4979C46.9965 25.8805 48.1135 26.9975 49.4961 26.9975C50.8786 26.9975 51.9956 25.8805 51.9956 24.4979ZM49.4961 49.4938C50.8786 49.4938 51.9956 48.3768 51.9956 46.9942C51.9956 45.6116 50.8786 44.4946 49.4961 44.4946C48.1135 44.4946 46.9965 45.6116 46.9965 46.9942C46.9965 48.3768 48.1135 49.4938 49.4961 49.4938ZM42.8956 38.7221L42.9034 38.7143C42.919 38.6987 42.9425 38.6675 42.9737 38.6284C43.044 38.5425 43.1534 38.4097 43.3096 38.2535C43.622 37.9254 44.0907 37.4958 44.7 37.074C45.9185 36.2382 47.6604 35.4961 49.9179 35.7461C50.9489 35.8632 51.8707 35.1212 51.9878 34.0901C52.105 33.059 51.3629 32.1373 50.3319 32.0201C46.9652 31.6452 44.3329 32.7778 42.5831 33.9729C41.7083 34.5666 41.0443 35.1915 40.5913 35.6601C40.3648 35.9023 40.1851 36.1054 40.0679 36.2538C40.0054 36.3319 39.9586 36.3944 39.9195 36.4413L39.8727 36.5038L39.857 36.5272L39.8492 36.535C39.8492 36.535 39.8492 36.535 41.3724 37.6286L39.8492 36.5428C39.2478 37.3864 39.443 38.5581 40.2866 39.1596C41.1224 39.761 42.2941 39.5657 42.8956 38.7299V38.7221ZM21.4695 27.0522C20.6415 27.2319 19.9541 27.8255 19.6573 28.6144L18.4934 31.7233L32.2724 45.5023L35.3734 44.3384C36.1701 44.0416 36.756 43.3542 36.9356 42.5262C37.1153 41.6982 36.8575 40.8312 36.2639 40.2297L23.766 27.7318C23.1645 27.1303 22.2974 26.8725 21.4695 27.06V27.0522ZM17.5326 34.2932L15.7673 38.9955L25.0001 48.2284L29.7025 46.463L17.5326 34.2932ZM22.4302 49.1892L14.8065 41.5654L12.1585 48.6189C11.8148 49.5407 12.0413 50.5717 12.7287 51.2669C13.4161 51.9621 14.455 52.1808 15.3767 51.8371L22.4302 49.197V49.1892Z" fill="url(#paint1_linear_4_268)"/>
</g>
<defs>
<linearGradient id="paint0_linear_4_268" x1="31.9579" y1="-0.0105222" x2="32.0315" y2="63.9264" gradientUnits="userSpaceOnUse">
<stop stop-color="#F5C448"/>
<stop offset="1" stop-color="#EE9343"/>
</linearGradient>
<linearGradient id="paint1_linear_4_268" x1="32" y1="12" x2="32" y2="51.9972" gradientUnits="userSpaceOnUse">
<stop stop-color="white"/>
<stop offset="1" stop-color="white" stop-opacity="0.6"/>
</linearGradient>
<clipPath id="clip0_4_268">
<rect width="64" height="64" fill="white"/>
</clipPath>
</defs>
</svg>
