<svg width="64" height="64" viewBox="0 0 64 64" fill="none" xmlns="http://www.w3.org/2000/svg">
<g clip-path="url(#clip0_4_273)">
<path fill-rule="evenodd" clip-rule="evenodd" d="M58.9096 58.9087C53.8183 64 46.0232 64 32.001 64C17.9788 64 10.1836 64 5.09231 58.9087C0.000976562 53.8173 0.000976562 46.0222 0.000976562 32C0.000976562 17.9778 0.000976562 10.1827 5.09231 5.09133C10.1836 0 17.9788 0 32.001 0C46.0232 0 53.8183 0 58.9096 5.09133C64.001 10.1827 64.001 17.9778 64.001 32C64.001 46.0222 64.001 53.8173 58.9096 58.9087ZM51.5504 12.664C52.2222 13.4529 52.1206 14.6324 51.3317 15.3041L50.5506 15.9681C49.3945 16.9445 47.926 17.46 46.4106 17.421C45.114 17.3897 44.0204 18.3896 43.9423 19.6862L43.8017 22.0296C43.6064 25.3493 40.81 27.9114 37.4902 27.8255C36.9044 27.8099 36.3264 28.013 35.8733 28.3957L35.0922 29.0597C34.3033 29.7314 33.1238 29.6299 32.452 28.841C31.7802 28.052 31.8818 26.8725 32.6707 26.2008L33.4518 25.5368C34.6079 24.5604 36.0764 24.0449 37.5918 24.0839C38.8884 24.1152 39.982 23.1153 40.0601 21.8187L40.2007 19.4753C40.396 16.1556 43.1924 13.5935 46.5122 13.6794C47.098 13.695 47.676 13.4919 48.1291 13.1092L48.9102 12.4452C49.6992 11.7735 50.8786 11.875 51.5504 12.664ZM28.2496 13.8747C28.2496 12.8358 29.0854 12 30.1243 12C31.1632 12 31.999 12.8358 31.999 13.8747C31.999 17.1163 30.9132 19.6472 29.8353 21.3578C29.2963 22.2092 28.7495 22.8654 28.3355 23.3184C28.1324 23.545 27.9528 23.7168 27.82 23.8418C27.8035 23.8564 27.7879 23.8702 27.7731 23.8832C27.7249 23.9258 27.6858 23.9603 27.6559 23.9902L27.6013 24.0371L27.5856 24.0527L27.5778 24.0605L26.3749 22.6232L27.5778 24.0683C26.7811 24.7323 25.6016 24.6229 24.9376 23.8262C24.2815 23.0372 24.383 21.8577 25.172 21.1938L25.1798 21.186C25.1954 21.1704 25.2188 21.1469 25.2579 21.1157C25.2735 21.1001 25.2913 21.0826 25.3112 21.0631C25.3812 20.9946 25.4765 20.9014 25.586 20.7798C25.8672 20.4673 26.2655 19.9909 26.6639 19.3582C27.4606 18.1006 28.2496 16.2571 28.2496 13.8747ZM17.0014 12C18.384 12 19.501 13.117 19.501 14.4996C19.501 15.8822 18.384 16.9992 17.0014 16.9992C15.6189 16.9992 14.5019 15.8822 14.5019 14.4996C14.5019 13.117 15.6189 12 17.0014 12ZM49.4961 21.9983C50.8786 21.9983 51.9956 23.1153 51.9956 24.4979C51.9956 25.8805 50.8786 26.9975 49.4961 26.9975C48.1135 26.9975 46.9965 25.8805 46.9965 24.4979C46.9965 23.1153 48.1135 21.9983 49.4961 21.9983ZM51.9956 46.9942C51.9956 48.3768 50.8786 49.4938 49.4961 49.4938C48.1135 49.4938 46.9965 48.3768 46.9965 46.9942C46.9965 45.6116 48.1135 44.4946 49.4961 44.4946C50.8786 44.4946 51.9956 45.6116 51.9956 46.9942ZM42.9034 38.7143L42.8956 38.7221V38.7299C42.2941 39.5657 41.1224 39.761 40.2866 39.1596C39.443 38.5581 39.2478 37.3864 39.8492 36.5428L41.3724 37.6286L39.8492 36.535L39.857 36.5272L39.8727 36.5038L39.9195 36.4413C39.9415 36.4149 39.9659 36.3837 39.9941 36.3475C40.0161 36.3193 40.0405 36.288 40.0679 36.2538C40.1851 36.1054 40.3648 35.9023 40.5913 35.6601C41.0443 35.1915 41.7083 34.5666 42.5831 33.9729C44.3329 32.7778 46.9652 31.6452 50.3319 32.0201C51.3629 32.1373 52.105 33.059 51.9878 34.0901C51.8707 35.1212 50.9489 35.8632 49.9179 35.7461C47.6604 35.4961 45.9185 36.2382 44.7 37.074C44.0907 37.4958 43.622 37.9254 43.3096 38.2535C43.1534 38.4097 43.044 38.5425 42.9737 38.6284C42.9653 38.6389 42.9575 38.6487 42.9503 38.6579C42.9305 38.6831 42.9148 38.7029 42.9034 38.7143ZM19.6573 28.6144C19.9541 27.8255 20.6415 27.2319 21.4695 27.0522V27.06C22.2974 26.8725 23.1645 27.1303 23.7659 27.7318L36.2639 40.2297C36.8575 40.8312 37.1153 41.6982 36.9356 42.5262C36.756 43.3542 36.1701 44.0416 35.3734 44.3384L32.2724 45.5023L18.4934 31.7233L19.6573 28.6144ZM15.7673 38.9955L17.5326 34.2932L29.7025 46.463L25.0001 48.2284L15.7673 38.9955ZM14.8065 41.5654L22.4302 49.1892V49.197L15.3767 51.8372C14.455 52.1808 13.4161 51.9621 12.7287 51.2669C12.0413 50.5717 11.8148 49.5407 12.1585 48.6189L14.8065 41.5654Z" fill="white"/>
</g>
<defs>
<clipPath id="clip0_4_273">
<rect width="64" height="64" fill="white"/>
</clipPath>
</defs>
</svg>
