<svg width="64" height="64" viewBox="0 0 64 64" fill="none" xmlns="http://www.w3.org/2000/svg">
<g clip-path="url(#clip0_4_216)">
<path fill-rule="evenodd" clip-rule="evenodd" d="M58.9096 58.9087C53.8183 64 46.0232 64 32.001 64C17.9788 64 10.1836 64 5.09231 58.9087C0.000976562 53.8173 0.000976562 46.0222 0.000976562 32C0.000976562 17.9778 0.000976562 10.1827 5.09231 5.09133C10.1836 0 17.9788 0 32.001 0C46.0232 0 53.8183 0 58.9096 5.09133C64.001 10.1827 64.001 17.9778 64.001 32C64.001 46.0222 64.001 53.8173 58.9096 58.9087ZM46.0486 14.9138L50.0278 21.2405H50.0347C52.0972 24.512 50.2708 29.053 46.4167 29.5692C46.1389 29.6041 45.8611 29.625 45.5764 29.625C43.7639 29.625 42.1597 28.8298 41.0486 27.6021C39.9445 28.8298 38.3403 29.625 36.5208 29.625C34.7083 29.625 33.0972 28.8298 31.9931 27.6021C30.8889 28.8298 29.2778 29.625 27.4653 29.625C25.6528 29.625 24.0417 28.8298 22.9375 27.6021C21.8333 28.8298 20.2222 29.625 18.4097 29.625C18.132 29.625 17.8472 29.6041 17.5695 29.5692C13.7292 29.046 11.9097 24.505 13.9653 21.2405L17.9514 14.9138C18.3056 14.3488 18.9375 14 19.6111 14H44.3889C45.0625 14 45.6944 14.3488 46.0486 14.9138ZM46.6945 31.7804H46.7014C47 31.7455 47.2778 31.6897 47.5556 31.62V40.7857V45.25C47.5556 47.7123 45.5625 49.7143 43.1111 49.7143H20.8889C18.4375 49.7143 16.4445 47.7123 16.4445 45.25V40.7857V31.62C16.7153 31.6897 16.9931 31.7386 17.2778 31.7804H17.2847C17.6528 31.8292 18.0347 31.8571 18.4167 31.8571C19.2778 31.8571 20.1111 31.7246 20.8889 31.4805V40.7857H43.1111V31.4874C43.882 31.7246 44.7083 31.8571 45.5695 31.8571C45.9514 31.8571 46.3264 31.8292 46.6945 31.7804Z" fill="white"/>
</g>
<defs>
<clipPath id="clip0_4_216">
<rect width="64" height="64" fill="white"/>
</clipPath>
</defs>
</svg>
