<svg width="64" height="64" viewBox="0 0 64 64" fill="none" xmlns="http://www.w3.org/2000/svg">
<g clip-path="url(#clip0_4_211)">
<path d="M32 64C46.0222 64 53.8173 64 58.9087 58.9087C64 53.8173 64 46.0222 64 32C64 17.9778 64 10.1827 58.9087 5.09133C53.8173 0 46.0222 0 32 0C17.9778 0 10.1827 0 5.09133 5.09133C0 10.1827 0 17.9778 0 32C0 46.0222 0 53.8173 5.09133 58.9087C10.1827 64 17.9778 64 32 64Z" fill="url(#paint0_linear_4_211)"/>
<path d="M50.0278 21.2405L46.0486 14.9138C45.6944 14.3488 45.0625 14 44.3889 14H19.6111C18.9375 14 18.3056 14.3488 17.9514 14.9138L13.9653 21.2405C11.9097 24.505 13.7292 29.046 17.5694 29.5692C17.8472 29.6041 18.1319 29.625 18.4097 29.625C20.2222 29.625 21.8333 28.8298 22.9375 27.6021C24.0417 28.8298 25.6528 29.625 27.4653 29.625C29.2778 29.625 30.8889 28.8298 31.9931 27.6021C33.0972 28.8298 34.7083 29.625 36.5208 29.625C38.3403 29.625 39.9444 28.8298 41.0486 27.6021C42.1597 28.8298 43.7639 29.625 45.5764 29.625C45.8611 29.625 46.1389 29.6041 46.4167 29.5692C50.2708 29.053 52.0972 24.512 50.0347 21.2405H50.0278ZM46.7014 31.7804H46.6944C46.3264 31.8292 45.9514 31.8571 45.5694 31.8571C44.7083 31.8571 43.8819 31.7246 43.1111 31.4874V40.7857H20.8889V31.4805C20.1111 31.7246 19.2778 31.8571 18.4167 31.8571C18.0347 31.8571 17.6528 31.8292 17.2847 31.7804H17.2778C16.9931 31.7386 16.7153 31.6897 16.4444 31.62V40.7857V45.25C16.4444 47.7123 18.4375 49.7143 20.8889 49.7143H43.1111C45.5625 49.7143 47.5556 47.7123 47.5556 45.25V40.7857V31.62C47.2778 31.6897 47 31.7455 46.7014 31.7804Z" fill="url(#paint1_linear_4_211)"/>
</g>
<defs>
<linearGradient id="paint0_linear_4_211" x1="31.9579" y1="-0.0105222" x2="32.0315" y2="63.9264" gradientUnits="userSpaceOnUse">
<stop stop-color="#58C4FA"/>
<stop offset="1" stop-color="#419CF8"/>
</linearGradient>
<linearGradient id="paint1_linear_4_211" x1="32.0014" y1="14" x2="32.0014" y2="49.7143" gradientUnits="userSpaceOnUse">
<stop stop-color="white"/>
<stop offset="1" stop-color="white" stop-opacity="0.6"/>
</linearGradient>
<clipPath id="clip0_4_211">
<rect width="64" height="64" fill="white"/>
</clipPath>
</defs>
</svg>
