<?xml version="1.0" encoding="UTF-8" standalone="no"?>
<!DOCTYPE svg PUBLIC "-//W3C//DTD SVG 1.1//EN" "http://www.w3.org/Graphics/SVG/1.1/DTD/svg11.dtd">
<svg width="100%" height="100%" viewBox="0 0 16 16" version="1.1" xmlns="http://www.w3.org/2000/svg" xmlns:xlink="http://www.w3.org/1999/xlink" xml:space="preserve" xmlns:serif="http://www.serif.com/" style="fill-rule:evenodd;clip-rule:evenodd;stroke-linejoin:round;stroke-miterlimit:2;">
    <path d="M12,9.531L12,13.5L7,16L7,11.563C7,10.881 6.731,10.231 6.25,9.75C5.772,9.272 5.122,9 4.441,9L0,8.988L2.5,4L6.469,4C9.191,-0.484 13.494,-0.263 15.709,0.291C16.262,2.506 16.484,6.809 12,9.531ZM13.25,4C13.25,3.314 12.686,2.75 12,2.75C11.314,2.75 10.75,3.314 10.75,4C10.75,4.686 11.314,5.25 12,5.25C12.686,5.25 13.25,4.686 13.25,4ZM5.203,14.688C3.656,16.234 0.016,15.984 0.016,15.984C0.016,15.984 -0.234,12.344 1.313,10.797C2.388,9.722 4.128,9.722 5.203,10.797C6.278,11.872 6.278,13.613 5.203,14.688ZM3.744,13.55C4.1,13.194 4.1,12.613 3.744,12.256C3.388,11.9 2.806,11.9 2.45,12.256C1.934,12.772 2.019,13.981 2.019,13.981C2.019,13.981 3.228,14.066 3.744,13.55Z" style="fill:white;fill-rule:nonzero;"/>
</svg>
